  0
SECTION
  2
HEADER
  9
$ANGBASE
  50
0.0
  9
$ANGDIR
  70
1
  9
$MEASUREMENT
  70
0
  0
ENDSEC
  0
SECTION
  2
TABLES
  0
TABLE
  2
LTYPE
  70
4
  0
LTYPE
  5
40F
  2
CONTINUOUS
  70
0
  3
Solid line
  72
65
  73
0
  40
0.0
  0
LTYPE
  5
410
  2
DASHDOT
 70
0
  3
Dash Dot ____ _ ____ _
 72
65
 73
4
 40
2.0
 49
1.25
 49
-0.25
 49
0.25
 49
-0.25
  0
LTYPE
  5
411
  2
DASHED
 70
0
  3
Dashed __ __ __ __ __
 72
65
 73
2
 40
0.75
 49
0.5
 49
-0.25
  0
LTYPE
  5
43B
  2
DOTTED
 70
0
  3
Dotted .  .  .  .
 72
65
 73
2
 40
0.2
 49
0.0
 49
-0.2
  0
ENDTAB
  0
TABLE
  2
STYLE
  70
4
  0
STYLE
  2
KICAD
  70
0
  40
0
  41
1
  42
1
  50
0
  71
0
  3
isocp.shx
  0
STYLE
  2
KICADB
  70
0
  40
0
  41
1
  42
1
  50
0
  71
0
  3
isocp.shx
  0
STYLE
  2
KICADI
  70
0
  40
0
  41
1
  42
1
  50
15
  71
0
  3
isocp.shx
  0
STYLE
  2
KICADBI
  70
0
  40
0
  41
1
  42
1
  50
15
  71
0
  3
isocp.shx
  0
ENDTAB
  0
TABLE
  2
LAYER
  70
1
  0
LAYER
  2
BLACK
  70
0
  62
7
  6
CONTINUOUS
  0
ENDTAB
  0
ENDSEC
  0
SECTION
  2
ENTITIES
0
LINE
8
BLACK
6
CONTINUOUS
10
4.0143006299212596
20
-4.54393842519685
11
4.0284446062992121
21
-4.5461786220472442
0
LINE
8
BLACK
6
CONTINUOUS
10
4.0284446062992121
20
-4.5461786220472442
11
4.0422769291338581
21
-4.5498849999999997
0
LINE
8
BLACK
6
CONTINUOUS
10
4.0422769291338581
20
-4.5498849999999997
11
4.0556460629921256
21
-4.555016929133858
0
LINE
8
BLACK
6
CONTINUOUS
10
4.0556460629921256
20
-4.555016929133858
11
4.0684055118110232
21
-4.5615181889763781
0
LINE
8
BLACK
6
CONTINUOUS
10
4.0684055118110232
20
-4.5615181889763781
11
4.0804155118110232
21
-4.5693175590551176
0
LINE
8
BLACK
6
CONTINUOUS
10
4.0804155118110232
20
-4.5693175590551176
11
4.0915444488188975
21
-4.5783296062992127
0
LINE
8
BLACK
6
CONTINUOUS
10
4.0915444488188975
20
-4.5783296062992127
11
4.101670393700787
21
-4.5884555511811023
0
LINE
8
BLACK
6
CONTINUOUS
10
4.101670393700787
20
-4.5884555511811023
11
4.1106824409448821
21
-4.5995844881889765
0
LINE
8
BLACK
6
CONTINUOUS
10
4.1106824409448821
20
-4.5995844881889765
11
4.1184818110236217
21
-4.6115944881889765
0
LINE
8
BLACK
6
CONTINUOUS
10
4.1184818110236217
20
-4.6115944881889765
11
4.1249830708661417
21
-4.6243539370078741
0
LINE
8
BLACK
6
CONTINUOUS
10
4.1249830708661417
20
-4.6243539370078741
11
4.130115
21
-4.6377230708661417
0
LINE
8
BLACK
6
CONTINUOUS
10
4.130115
20
-4.6377230708661417
11
4.1338213779527555
21
-4.6515553937007876
0
LINE
8
BLACK
6
CONTINUOUS
10
4.1338213779527555
20
-4.6515553937007876
11
4.1360615748031497
21
-4.6656993700787401
0
LINE
8
BLACK
6
CONTINUOUS
10
4.1360615748031497
20
-4.6656993700787401
11
4.1368110236220472
21
-4.6799999999999997
0
LINE
8
BLACK
6
CONTINUOUS
10
4.1368110236220472
20
-4.6799999999999997
11
4.1360615748031497
21
-4.6943006299212593
0
LINE
8
BLACK
6
CONTINUOUS
10
4.1360615748031497
20
-4.6943006299212593
11
4.1338213779527555
21
-4.7084446062992127
0
LINE
8
BLACK
6
CONTINUOUS
10
4.1338213779527555
20
-4.7084446062992127
11
4.130115
21
-4.7222769291338578
0
LINE
8
BLACK
6
CONTINUOUS
10
4.130115
20
-4.7222769291338578
11
4.1249830708661417
21
-4.7356460629921262
0
LINE
8
BLACK
6
CONTINUOUS
10
4.1249830708661417
20
-4.7356460629921262
11
4.1184818110236217
21
-4.7484055118110238
0
LINE
8
BLACK
6
CONTINUOUS
10
4.1184818110236217
20
-4.7484055118110238
11
4.1106824409448821
21
-4.7604155118110238
0
LINE
8
BLACK
6
CONTINUOUS
10
4.1106824409448821
20
-4.7604155118110238
11
4.101670393700787
21
-4.7715444488188972
0
LINE
8
BLACK
6
CONTINUOUS
10
4.101670393700787
20
-4.7715444488188972
11
4.0915444488188975
21
-4.7816703937007876
0
LINE
8
BLACK
6
CONTINUOUS
10
4.0915444488188975
20
-4.7816703937007876
11
4.0804155118110232
21
-4.7906824409448818
0
LINE
8
BLACK
6
CONTINUOUS
10
4.0804155118110232
20
-4.7906824409448818
11
4.0684055118110232
21
-4.7984818110236223
0
LINE
8
BLACK
6
CONTINUOUS
10
4.0684055118110232
20
-4.7984818110236223
11
4.0556460629921256
21
-4.8049830708661414
0
LINE
8
BLACK
6
CONTINUOUS
10
4.0556460629921256
20
-4.8049830708661414
11
4.0422769291338581
21
-4.8101149999999997
0
LINE
8
BLACK
6
CONTINUOUS
10
4.0422769291338581
20
-4.8101149999999997
11
4.0284446062992121
21
-4.8138213779527561
0
LINE
8
BLACK
6
CONTINUOUS
10
4.0284446062992121
20
-4.8138213779527561
11
4.0143006299212596
21
-4.8160615748031494
0
LINE
8
BLACK
6
CONTINUOUS
10
4.0143006299212596
20
-4.8160615748031494
11
4.
21
-4.8168110236220469
0
LINE
8
BLACK
6
CONTINUOUS
10
4.
20
-4.8168110236220469
11
3.98569937007874
21
-4.8160615748031494
0
LINE
8
BLACK
6
CONTINUOUS
10
3.98569937007874
20
-4.8160615748031494
11
3.9715553937007875
21
-4.8138213779527561
0
LINE
8
BLACK
6
CONTINUOUS
10
3.9715553937007875
20
-4.8138213779527561
11
3.9577230708661415
21
-4.8101149999999997
0
LINE
8
BLACK
6
CONTINUOUS
10
3.9577230708661415
20
-4.8101149999999997
11
3.944353937007874
21
-4.8049830708661414
0
LINE
8
BLACK
6
CONTINUOUS
10
3.944353937007874
20
-4.8049830708661414
11
3.9315944881889764
21
-4.7984818110236223
0
LINE
8
BLACK
6
CONTINUOUS
10
3.9315944881889764
20
-4.7984818110236223
11
3.9195844881889763
21
-4.7906824409448818
0
LINE
8
BLACK
6
CONTINUOUS
10
3.9195844881889763
20
-4.7906824409448818
11
3.9084555511811021
21
-4.7816703937007876
0
LINE
8
BLACK
6
CONTINUOUS
10
3.9084555511811021
20
-4.7816703937007876
11
3.8983296062992125
21
-4.7715444488188972
0
LINE
8
BLACK
6
CONTINUOUS
10
3.8983296062992125
20
-4.7715444488188972
11
3.8893175590551179
21
-4.7604155118110238
0
LINE
8
BLACK
6
CONTINUOUS
10
3.8893175590551179
20
-4.7604155118110238
11
3.8815181889763779
21
-4.7484055118110238
0
LINE
8
BLACK
6
CONTINUOUS
10
3.8815181889763779
20
-4.7484055118110238
11
3.8750169291338583
21
-4.7356460629921262
0
LINE
8
BLACK
6
CONTINUOUS
10
3.8750169291338583
20
-4.7356460629921262
11
3.869885
21
-4.7222769291338578
0
LINE
8
BLACK
6
CONTINUOUS
10
3.869885
20
-4.7222769291338578
11
3.8661786220472441
21
-4.7084446062992127
0
LINE
8
BLACK
6
CONTINUOUS
10
3.8661786220472441
20
-4.7084446062992127
11
3.8639384251968503
21
-4.6943006299212593
0
LINE
8
BLACK
6
CONTINUOUS
10
3.8639384251968503
20
-4.6943006299212593
11
3.8631889763779528
21
-4.6799999999999997
0
LINE
8
BLACK
6
CONTINUOUS
10
3.8631889763779528
20
-4.6799999999999997
11
3.8639384251968503
21
-4.6656993700787401
0
LINE
8
BLACK
6
CONTINUOUS
10
3.8639384251968503
20
-4.6656993700787401
11
3.8661786220472441
21
-4.6515553937007876
0
LINE
8
BLACK
6
CONTINUOUS
10
3.8661786220472441
20
-4.6515553937007876
11
3.869885
21
-4.6377230708661417
0
LINE
8
BLACK
6
CONTINUOUS
10
3.869885
20
-4.6377230708661417
11
3.8750169291338583
21
-4.6243539370078741
0
LINE
8
BLACK
6
CONTINUOUS
10
3.8750169291338583
20
-4.6243539370078741
11
3.8815181889763779
21
-4.6115944881889765
0
LINE
8
BLACK
6
CONTINUOUS
10
3.8815181889763779
20
-4.6115944881889765
11
3.8893175590551179
21
-4.5995844881889765
0
LINE
8
BLACK
6
CONTINUOUS
10
3.8893175590551179
20
-4.5995844881889765
11
3.8983296062992125
21
-4.5884555511811023
0
LINE
8
BLACK
6
CONTINUOUS
10
3.8983296062992125
20
-4.5884555511811023
11
3.9084555511811021
21
-4.5783296062992127
0
LINE
8
BLACK
6
CONTINUOUS
10
3.9084555511811021
20
-4.5783296062992127
11
3.9195844881889763
21
-4.5693175590551176
0
LINE
8
BLACK
6
CONTINUOUS
10
3.9195844881889763
20
-4.5693175590551176
11
3.9315944881889764
21
-4.5615181889763781
0
LINE
8
BLACK
6
CONTINUOUS
10
3.9315944881889764
20
-4.5615181889763781
11
3.944353937007874
21
-4.555016929133858
0
LINE
8
BLACK
6
CONTINUOUS
10
3.944353937007874
20
-4.555016929133858
11
3.9577230708661415
21
-4.5498849999999997
0
LINE
8
BLACK
6
CONTINUOUS
10
3.9577230708661415
20
-4.5498849999999997
11
3.9715553937007875
21
-4.5461786220472442
0
LINE
8
BLACK
6
CONTINUOUS
10
3.9715553937007875
20
-4.5461786220472442
11
3.98569937007874
21
-4.54393842519685
0
LINE
8
BLACK
6
CONTINUOUS
10
3.98569937007874
20
-4.54393842519685
11
4.
21
-4.5431889763779525
0
LINE
8
BLACK
6
CONTINUOUS
10
4.
20
-4.5431889763779525
11
4.0143006299212596
21
-4.54393842519685
0
LINE
8
BLACK
6
CONTINUOUS
10
3.8657510629921257
20
-4.6946004330708657
11
3.8681166141732284
21
-4.709029724409449
0
LINE
8
BLACK
6
CONTINUOUS
10
3.8681166141732284
20
-4.709029724409449
11
3.8720283858267717
21
-4.7231186614173231
0
LINE
8
BLACK
6
CONTINUOUS
10
3.8720283858267717
20
-4.7231186614173231
11
3.8774405118110233
21
-4.7367020472440942
0
LINE
8
BLACK
6
CONTINUOUS
10
3.8774405118110233
20
-4.7367020472440942
11
3.884289527559055
21
-4.7496206692913381
0
LINE
8
BLACK
6
CONTINUOUS
10
3.884289527559055
20
-4.7496206692913381
11
3.8924951574803148
21
-4.7617230708661413
0
LINE
8
BLACK
6
CONTINUOUS
10
3.8924951574803148
20
-4.7617230708661413
11
3.901961181102362
21
-4.7728673228346459
0
LINE
8
BLACK
6
CONTINUOUS
10
3.901961181102362
20
-4.7728673228346459
11
3.9125766141732283
21
-4.7829227952755904
0
LINE
8
BLACK
6
CONTINUOUS
10
3.9125766141732283
20
-4.7829227952755904
11
3.9242170078740157
21
-4.7917715748031497
0
LINE
8
BLACK
6
CONTINUOUS
10
3.9242170078740157
20
-4.7917715748031497
11
3.9367458661417323
21
-4.7993099606299214
0
LINE
8
BLACK
6
CONTINUOUS
10
3.9367458661417323
20
-4.7993099606299214
11
3.9500163385826772
21
-4.8054495275590554
0
LINE
8
BLACK
6
CONTINUOUS
10
3.9500163385826772
20
-4.8054495275590554
11
3.9638728346456693
21
-4.810118307086614
0
LINE
8
BLACK
6
CONTINUOUS
10
3.9638728346456693
20
-4.810118307086614
11
3.9781528740157479
21
-4.8132616141732285
0
LINE
8
BLACK
6
CONTINUOUS
10
3.9781528740157479
20
-4.8132616141732285
11
3.99268905511811
21
-4.8148425196850395
0
LINE
8
BLACK
6
CONTINUOUS
10
3.99268905511811
20
-4.8148425196850395
11
4.0073109448818895
21
-4.8148425196850395
0
LINE
8
BLACK
6
CONTINUOUS
10
4.0073109448818895
20
-4.8148425196850395
11
4.0218471259842516
21
-4.8132616141732285
0
LINE
8
BLACK
6
CONTINUOUS
10
4.0218471259842516
20
-4.8132616141732285
11
4.0361271653543307
21
-4.810118307086614
0
LINE
8
BLACK
6
CONTINUOUS
10
4.0361271653543307
20
-4.810118307086614
11
4.0499836614173228
21
-4.8054495275590554
0
LINE
8
BLACK
6
CONTINUOUS
10
4.0499836614173228
20
-4.8054495275590554
11
4.0632541338582673
21
-4.7993099606299214
0
LINE
8
BLACK
6
CONTINUOUS
10
4.0632541338582673
20
-4.7993099606299214
11
4.0757829921259843
21
-4.7917715748031497
0
LINE
8
BLACK
6
CONTINUOUS
10
4.0757829921259843
20
-4.7917715748031497
11
4.0874233858267717
21
-4.7829227952755904
0
LINE
8
BLACK
6
CONTINUOUS
10
4.0874233858267717
20
-4.7829227952755904
11
4.0980388188976375
21
-4.7728673228346459
0
LINE
8
BLACK
6
CONTINUOUS
10
4.0980388188976375
20
-4.7728673228346459
11
4.1075048425196847
21
-4.7617230708661413
0
LINE
8
BLACK
6
CONTINUOUS
10
4.1075048425196847
20
-4.7617230708661413
11
4.115710472440945
21
-4.7496206692913381
0
LINE
8
BLACK
6
CONTINUOUS
10
4.115710472440945
20
-4.7496206692913381
11
4.1225594881889762
21
-4.7367020472440942
0
LINE
8
BLACK
6
CONTINUOUS
10
4.1225594881889762
20
-4.7367020472440942
11
4.1279716141732283
21
-4.7231186614173231
0
LINE
8
BLACK
6
CONTINUOUS
10
4.1279716141732283
20
-4.7231186614173231
11
4.1318833858267716
21
-4.709029724409449
0
LINE
8
BLACK
6
CONTINUOUS
10
4.1318833858267716
20
-4.709029724409449
11
4.1342489370078743
21
-4.6946004330708657
0
LINE
8
BLACK
6
CONTINUOUS
10
4.1342489370078743
20
-4.6946004330708657
11
4.1350405511811026
21
-4.6799999999999997
0
LINE
8
BLACK
6
CONTINUOUS
10
4.1350405511811026
20
-4.6799999999999997
11
4.1342489370078743
21
-4.6653995669291337
0
LINE
8
BLACK
6
CONTINUOUS
10
4.1342489370078743
20
-4.6653995669291337
11
4.1318833858267716
21
-4.6509702755905513
0
LINE
8
BLACK
6
CONTINUOUS
10
4.1318833858267716
20
-4.6509702755905513
11
4.1279716141732283
21
-4.6368813385826773
0
LINE
8
BLACK
6
CONTINUOUS
10
4.1279716141732283
20
-4.6368813385826773
11
4.1225594881889762
21
-4.6232979527559053
0
LINE
8
BLACK
6
CONTINUOUS
10
4.1225594881889762
20
-4.6232979527559053
11
4.115710472440945
21
-4.6103793307086613
0
LINE
8
BLACK
6
CONTINUOUS
10
4.115710472440945
20
-4.6103793307086613
11
4.1075048425196847
21
-4.5982769291338581
0
LINE
8
BLACK
6
CONTINUOUS
10
4.1075048425196847
20
-4.5982769291338581
11
4.0980388188976375
21
-4.5871326771653544
0
LINE
8
BLACK
6
CONTINUOUS
10
4.0980388188976375
20
-4.5871326771653544
11
4.0874233858267717
21
-4.577077204724409
0
LINE
8
BLACK
6
CONTINUOUS
10
4.0874233858267717
20
-4.577077204724409
11
4.0757829921259843
21
-4.5682284251968506
0
LINE
8
BLACK
6
CONTINUOUS
10
4.0757829921259843
20
-4.5682284251968506
11
4.0632541338582673
21
-4.5606900393700789
0
LINE
8
BLACK
6
CONTINUOUS
10
4.0632541338582673
20
-4.5606900393700789
11
4.0499836614173228
21
-4.5545504724409449
0
LINE
8
BLACK
6
CONTINUOUS
10
4.0499836614173228
20
-4.5545504724409449
11
4.0361271653543307
21
-4.5498816929133854
0
LINE
8
BLACK
6
CONTINUOUS
10
4.0361271653543307
20
-4.5498816929133854
11
4.0218471259842516
21
-4.5467383858267718
0
LINE
8
BLACK
6
CONTINUOUS
10
4.0218471259842516
20
-4.5467383858267718
11
4.0073109448818895
21
-4.5451574803149608
0
LINE
8
BLACK
6
CONTINUOUS
10
4.0073109448818895
20
-4.5451574803149608
11
3.99268905511811
21
-4.5451574803149608
0
LINE
8
BLACK
6
CONTINUOUS
10
3.99268905511811
20
-4.5451574803149608
11
3.9781528740157479
21
-4.5467383858267718
0
LINE
8
BLACK
6
CONTINUOUS
10
3.9781528740157479
20
-4.5467383858267718
11
3.9638728346456693
21
-4.5498816929133854
0
LINE
8
BLACK
6
CONTINUOUS
10
3.9638728346456693
20
-4.5498816929133854
11
3.9500163385826772
21
-4.5545504724409449
0
LINE
8
BLACK
6
CONTINUOUS
10
3.9500163385826772
20
-4.5545504724409449
11
3.9367458661417323
21
-4.5606900393700789
0
LINE
8
BLACK
6
CONTINUOUS
10
3.9367458661417323
20
-4.5606900393700789
11
3.9242170078740157
21
-4.5682284251968506
0
LINE
8
BLACK
6
CONTINUOUS
10
3.9242170078740157
20
-4.5682284251968506
11
3.9125766141732283
21
-4.577077204724409
0
LINE
8
BLACK
6
CONTINUOUS
10
3.9125766141732283
20
-4.577077204724409
11
3.901961181102362
21
-4.5871326771653544
0
LINE
8
BLACK
6
CONTINUOUS
10
3.901961181102362
20
-4.5871326771653544
11
3.8924951574803148
21
-4.5982769291338581
0
LINE
8
BLACK
6
CONTINUOUS
10
3.8924951574803148
20
-4.5982769291338581
11
3.884289527559055
21
-4.6103793307086613
0
LINE
8
BLACK
6
CONTINUOUS
10
3.884289527559055
20
-4.6103793307086613
11
3.8774405118110233
21
-4.6232979527559053
0
LINE
8
BLACK
6
CONTINUOUS
10
3.8774405118110233
20
-4.6232979527559053
11
3.8720283858267717
21
-4.6368813385826773
0
LINE
8
BLACK
6
CONTINUOUS
10
3.8720283858267717
20
-4.6368813385826773
11
3.8681166141732284
21
-4.6509702755905513
0
LINE
8
BLACK
6
CONTINUOUS
10
3.8681166141732284
20
-4.6509702755905513
11
3.8657510629921257
21
-4.6653995669291337
0
LINE
8
BLACK
6
CONTINUOUS
10
3.8657510629921257
20
-4.6653995669291337
11
3.8649594488188974
21
-4.6799999999999997
0
LINE
8
BLACK
6
CONTINUOUS
10
3.8649594488188974
20
-4.6799999999999997
11
3.8657510629921257
21
-4.6946004330708657
0
LINE
8
BLACK
6
CONTINUOUS
10
5.7143006299212598
20
-4.54393842519685
11
5.7284446062992123
21
-4.5461786220472442
0
LINE
8
BLACK
6
CONTINUOUS
10
5.7284446062992123
20
-4.5461786220472442
11
5.7422769291338582
21
-4.5498849999999997
0
LINE
8
BLACK
6
CONTINUOUS
10
5.7422769291338582
20
-4.5498849999999997
11
5.7556460629921258
21
-4.555016929133858
0
LINE
8
BLACK
6
CONTINUOUS
10
5.7556460629921258
20
-4.555016929133858
11
5.7684055118110233
21
-4.5615181889763781
0
LINE
8
BLACK
6
CONTINUOUS
10
5.7684055118110233
20
-4.5615181889763781
11
5.7804155118110234
21
-4.5693175590551176
0
LINE
8
BLACK
6
CONTINUOUS
10
5.7804155118110234
20
-4.5693175590551176
11
5.7915444488188976
21
-4.5783296062992127
0
LINE
8
BLACK
6
CONTINUOUS
10
5.7915444488188976
20
-4.5783296062992127
11
5.8016703937007872
21
-4.5884555511811023
0
LINE
8
BLACK
6
CONTINUOUS
10
5.8016703937007872
20
-4.5884555511811023
11
5.8106824409448814
21
-4.5995844881889765
0
LINE
8
BLACK
6
CONTINUOUS
10
5.8106824409448814
20
-4.5995844881889765
11
5.8184818110236218
21
-4.6115944881889765
0
LINE
8
BLACK
6
CONTINUOUS
10
5.8184818110236218
20
-4.6115944881889765
11
5.8249830708661419
21
-4.6243539370078741
0
LINE
8
BLACK
6
CONTINUOUS
10
5.8249830708661419
20
-4.6243539370078741
11
5.8301150000000002
21
-4.6377230708661417
0
LINE
8
BLACK
6
CONTINUOUS
10
5.8301150000000002
20
-4.6377230708661417
11
5.8338213779527557
21
-4.6515553937007876
0
LINE
8
BLACK
6
CONTINUOUS
10
5.8338213779527557
20
-4.6515553937007876
11
5.8360615748031499
21
-4.6656993700787401
0
LINE
8
BLACK
6
CONTINUOUS
10
5.8360615748031499
20
-4.6656993700787401
11
5.8368110236220474
21
-4.6799999999999997
0
LINE
8
BLACK
6
CONTINUOUS
10
5.8368110236220474
20
-4.6799999999999997
11
5.8360615748031499
21
-4.6943006299212593
0
LINE
8
BLACK
6
CONTINUOUS
10
5.8360615748031499
20
-4.6943006299212593
11
5.8338213779527557
21
-4.7084446062992127
0
LINE
8
BLACK
6
CONTINUOUS
10
5.8338213779527557
20
-4.7084446062992127
11
5.8301150000000002
21
-4.7222769291338578
0
LINE
8
BLACK
6
CONTINUOUS
10
5.8301150000000002
20
-4.7222769291338578
11
5.8249830708661419
21
-4.7356460629921262
0
LINE
8
BLACK
6
CONTINUOUS
10
5.8249830708661419
20
-4.7356460629921262
11
5.8184818110236218
21
-4.7484055118110238
0
LINE
8
BLACK
6
CONTINUOUS
10
5.8184818110236218
20
-4.7484055118110238
11
5.8106824409448814
21
-4.7604155118110238
0
LINE
8
BLACK
6
CONTINUOUS
10
5.8106824409448814
20
-4.7604155118110238
11
5.8016703937007872
21
-4.7715444488188972
0
LINE
8
BLACK
6
CONTINUOUS
10
5.8016703937007872
20
-4.7715444488188972
11
5.7915444488188976
21
-4.7816703937007876
0
LINE
8
BLACK
6
CONTINUOUS
10
5.7915444488188976
20
-4.7816703937007876
11
5.7804155118110234
21
-4.7906824409448818
0
LINE
8
BLACK
6
CONTINUOUS
10
5.7804155118110234
20
-4.7906824409448818
11
5.7684055118110233
21
-4.7984818110236223
0
LINE
8
BLACK
6
CONTINUOUS
10
5.7684055118110233
20
-4.7984818110236223
11
5.7556460629921258
21
-4.8049830708661414
0
LINE
8
BLACK
6
CONTINUOUS
10
5.7556460629921258
20
-4.8049830708661414
11
5.7422769291338582
21
-4.8101149999999997
0
LINE
8
BLACK
6
CONTINUOUS
10
5.7422769291338582
20
-4.8101149999999997
11
5.7284446062992123
21
-4.8138213779527561
0
LINE
8
BLACK
6
CONTINUOUS
10
5.7284446062992123
20
-4.8138213779527561
11
5.7143006299212598
21
-4.8160615748031494
0
LINE
8
BLACK
6
CONTINUOUS
10
5.7143006299212598
20
-4.8160615748031494
11
5.7000000000000002
21
-4.8168110236220469
0
LINE
8
BLACK
6
CONTINUOUS
10
5.7000000000000002
20
-4.8168110236220469
11
5.6856993700787397
21
-4.8160615748031494
0
LINE
8
BLACK
6
CONTINUOUS
10
5.6856993700787397
20
-4.8160615748031494
11
5.6715553937007872
21
-4.8138213779527561
0
LINE
8
BLACK
6
CONTINUOUS
10
5.6715553937007872
20
-4.8138213779527561
11
5.6577230708661412
21
-4.8101149999999997
0
LINE
8
BLACK
6
CONTINUOUS
10
5.6577230708661412
20
-4.8101149999999997
11
5.6443539370078737
21
-4.8049830708661414
0
LINE
8
BLACK
6
CONTINUOUS
10
5.6443539370078737
20
-4.8049830708661414
11
5.6315944881889761
21
-4.7984818110236223
0
LINE
8
BLACK
6
CONTINUOUS
10
5.6315944881889761
20
-4.7984818110236223
11
5.619584488188976
21
-4.7906824409448818
0
LINE
8
BLACK
6
CONTINUOUS
10
5.619584488188976
20
-4.7906824409448818
11
5.6084555511811018
21
-4.7816703937007876
0
LINE
8
BLACK
6
CONTINUOUS
10
5.6084555511811018
20
-4.7816703937007876
11
5.5983296062992123
21
-4.7715444488188972
0
LINE
8
BLACK
6
CONTINUOUS
10
5.5983296062992123
20
-4.7715444488188972
11
5.5893175590551181
21
-4.7604155118110238
0
LINE
8
BLACK
6
CONTINUOUS
10
5.5893175590551181
20
-4.7604155118110238
11
5.5815181889763776
21
-4.7484055118110238
0
LINE
8
BLACK
6
CONTINUOUS
10
5.5815181889763776
20
-4.7484055118110238
11
5.5750169291338585
21
-4.7356460629921262
0
LINE
8
BLACK
6
CONTINUOUS
10
5.5750169291338585
20
-4.7356460629921262
11
5.5698850000000002
21
-4.7222769291338578
0
LINE
8
BLACK
6
CONTINUOUS
10
5.5698850000000002
20
-4.7222769291338578
11
5.5661786220472438
21
-4.7084446062992127
0
LINE
8
BLACK
6
CONTINUOUS
10
5.5661786220472438
20
-4.7084446062992127
11
5.5639384251968504
21
-4.6943006299212593
0
LINE
8
BLACK
6
CONTINUOUS
10
5.5639384251968504
20
-4.6943006299212593
11
5.563188976377953
21
-4.6799999999999997
0
LINE
8
BLACK
6
CONTINUOUS
10
5.563188976377953
20
-4.6799999999999997
11
5.5639384251968504
21
-4.6656993700787401
0
LINE
8
BLACK
6
CONTINUOUS
10
5.5639384251968504
20
-4.6656993700787401
11
5.5661786220472438
21
-4.6515553937007876
0
LINE
8
BLACK
6
CONTINUOUS
10
5.5661786220472438
20
-4.6515553937007876
11
5.5698850000000002
21
-4.6377230708661417
0
LINE
8
BLACK
6
CONTINUOUS
10
5.5698850000000002
20
-4.6377230708661417
11
5.5750169291338585
21
-4.6243539370078741
0
LINE
8
BLACK
6
CONTINUOUS
10
5.5750169291338585
20
-4.6243539370078741
11
5.5815181889763776
21
-4.6115944881889765
0
LINE
8
BLACK
6
CONTINUOUS
10
5.5815181889763776
20
-4.6115944881889765
11
5.5893175590551181
21
-4.5995844881889765
0
LINE
8
BLACK
6
CONTINUOUS
10
5.5893175590551181
20
-4.5995844881889765
11
5.5983296062992123
21
-4.5884555511811023
0
LINE
8
BLACK
6
CONTINUOUS
10
5.5983296062992123
20
-4.5884555511811023
11
5.6084555511811018
21
-4.5783296062992127
0
LINE
8
BLACK
6
CONTINUOUS
10
5.6084555511811018
20
-4.5783296062992127
11
5.619584488188976
21
-4.5693175590551176
0
LINE
8
BLACK
6
CONTINUOUS
10
5.619584488188976
20
-4.5693175590551176
11
5.6315944881889761
21
-4.5615181889763781
0
LINE
8
BLACK
6
CONTINUOUS
10
5.6315944881889761
20
-4.5615181889763781
11
5.6443539370078737
21
-4.555016929133858
0
LINE
8
BLACK
6
CONTINUOUS
10
5.6443539370078737
20
-4.555016929133858
11
5.6577230708661412
21
-4.5498849999999997
0
LINE
8
BLACK
6
CONTINUOUS
10
5.6577230708661412
20
-4.5498849999999997
11
5.6715553937007872
21
-4.5461786220472442
0
LINE
8
BLACK
6
CONTINUOUS
10
5.6715553937007872
20
-4.5461786220472442
11
5.6856993700787397
21
-4.54393842519685
0
LINE
8
BLACK
6
CONTINUOUS
10
5.6856993700787397
20
-4.54393842519685
11
5.7000000000000002
21
-4.5431889763779525
0
LINE
8
BLACK
6
CONTINUOUS
10
5.7000000000000002
20
-4.5431889763779525
11
5.7143006299212598
21
-4.54393842519685
0
LINE
8
BLACK
6
CONTINUOUS
10
5.5657510629921259
20
-4.6946004330708657
11
5.5681166141732286
21
-4.709029724409449
0
LINE
8
BLACK
6
CONTINUOUS
10
5.5681166141732286
20
-4.709029724409449
11
5.5720283858267718
21
-4.7231186614173231
0
LINE
8
BLACK
6
CONTINUOUS
10
5.5720283858267718
20
-4.7231186614173231
11
5.5774405118110231
21
-4.7367020472440942
0
LINE
8
BLACK
6
CONTINUOUS
10
5.5774405118110231
20
-4.7367020472440942
11
5.5842895275590552
21
-4.7496206692913381
0
LINE
8
BLACK
6
CONTINUOUS
10
5.5842895275590552
20
-4.7496206692913381
11
5.5924951574803146
21
-4.7617230708661413
0
LINE
8
BLACK
6
CONTINUOUS
10
5.5924951574803146
20
-4.7617230708661413
11
5.6019611811023617
21
-4.7728673228346459
0
LINE
8
BLACK
6
CONTINUOUS
10
5.6019611811023617
20
-4.7728673228346459
11
5.6125766141732285
21
-4.7829227952755904
0
LINE
8
BLACK
6
CONTINUOUS
10
5.6125766141732285
20
-4.7829227952755904
11
5.6242170078740159
21
-4.7917715748031497
0
LINE
8
BLACK
6
CONTINUOUS
10
5.6242170078740159
20
-4.7917715748031497
11
5.636745866141732
21
-4.7993099606299214
0
LINE
8
BLACK
6
CONTINUOUS
10
5.636745866141732
20
-4.7993099606299214
11
5.6500163385826774
21
-4.8054495275590554
0
LINE
8
BLACK
6
CONTINUOUS
10
5.6500163385826774
20
-4.8054495275590554
11
5.6638728346456695
21
-4.810118307086614
0
LINE
8
BLACK
6
CONTINUOUS
10
5.6638728346456695
20
-4.810118307086614
11
5.6781528740157476
21
-4.8132616141732285
0
LINE
8
BLACK
6
CONTINUOUS
10
5.6781528740157476
20
-4.8132616141732285
11
5.6926890551181097
21
-4.8148425196850395
0
LINE
8
BLACK
6
CONTINUOUS
10
5.6926890551181097
20
-4.8148425196850395
11
5.7073109448818897
21
-4.8148425196850395
0
LINE
8
BLACK
6
CONTINUOUS
10
5.7073109448818897
20
-4.8148425196850395
11
5.7218471259842518
21
-4.8132616141732285
0
LINE
8
BLACK
6
CONTINUOUS
10
5.7218471259842518
20
-4.8132616141732285
11
5.7361271653543309
21
-4.810118307086614
0
LINE
8
BLACK
6
CONTINUOUS
10
5.7361271653543309
20
-4.810118307086614
11
5.749983661417323
21
-4.8054495275590554
0
LINE
8
BLACK
6
CONTINUOUS
10
5.749983661417323
20
-4.8054495275590554
11
5.7632541338582675
21
-4.7993099606299214
0
LINE
8
BLACK
6
CONTINUOUS
10
5.7632541338582675
20
-4.7993099606299214
11
5.7757829921259844
21
-4.7917715748031497
0
LINE
8
BLACK
6
CONTINUOUS
10
5.7757829921259844
20
-4.7917715748031497
11
5.7874233858267718
21
-4.7829227952755904
0
LINE
8
BLACK
6
CONTINUOUS
10
5.7874233858267718
20
-4.7829227952755904
11
5.7980388188976377
21
-4.7728673228346459
0
LINE
8
BLACK
6
CONTINUOUS
10
5.7980388188976377
20
-4.7728673228346459
11
5.8075048425196849
21
-4.7617230708661413
0
LINE
8
BLACK
6
CONTINUOUS
10
5.8075048425196849
20
-4.7617230708661413
11
5.8157104724409452
21
-4.7496206692913381
0
LINE
8
BLACK
6
CONTINUOUS
10
5.8157104724409452
20
-4.7496206692913381
11
5.8225594881889764
21
-4.7367020472440942
0
LINE
8
BLACK
6
CONTINUOUS
10
5.8225594881889764
20
-4.7367020472440942
11
5.8279716141732285
21
-4.7231186614173231
0
LINE
8
BLACK
6
CONTINUOUS
10
5.8279716141732285
20
-4.7231186614173231
11
5.8318833858267718
21
-4.709029724409449
0
LINE
8
BLACK
6
CONTINUOUS
10
5.8318833858267718
20
-4.709029724409449
11
5.8342489370078736
21
-4.6946004330708657
0
LINE
8
BLACK
6
CONTINUOUS
10
5.8342489370078736
20
-4.6946004330708657
11
5.8350405511811019
21
-4.6799999999999997
0
LINE
8
BLACK
6
CONTINUOUS
10
5.8350405511811019
20
-4.6799999999999997
11
5.8342489370078736
21
-4.6653995669291337
0
LINE
8
BLACK
6
CONTINUOUS
10
5.8342489370078736
20
-4.6653995669291337
11
5.8318833858267718
21
-4.6509702755905513
0
LINE
8
BLACK
6
CONTINUOUS
10
5.8318833858267718
20
-4.6509702755905513
11
5.8279716141732285
21
-4.6368813385826773
0
LINE
8
BLACK
6
CONTINUOUS
10
5.8279716141732285
20
-4.6368813385826773
11
5.8225594881889764
21
-4.6232979527559053
0
LINE
8
BLACK
6
CONTINUOUS
10
5.8225594881889764
20
-4.6232979527559053
11
5.8157104724409452
21
-4.6103793307086613
0
LINE
8
BLACK
6
CONTINUOUS
10
5.8157104724409452
20
-4.6103793307086613
11
5.8075048425196849
21
-4.5982769291338581
0
LINE
8
BLACK
6
CONTINUOUS
10
5.8075048425196849
20
-4.5982769291338581
11
5.7980388188976377
21
-4.5871326771653544
0
LINE
8
BLACK
6
CONTINUOUS
10
5.7980388188976377
20
-4.5871326771653544
11
5.7874233858267718
21
-4.577077204724409
0
LINE
8
BLACK
6
CONTINUOUS
10
5.7874233858267718
20
-4.577077204724409
11
5.7757829921259844
21
-4.5682284251968506
0
LINE
8
BLACK
6
CONTINUOUS
10
5.7757829921259844
20
-4.5682284251968506
11
5.7632541338582675
21
-4.5606900393700789
0
LINE
8
BLACK
6
CONTINUOUS
10
5.7632541338582675
20
-4.5606900393700789
11
5.749983661417323
21
-4.5545504724409449
0
LINE
8
BLACK
6
CONTINUOUS
10
5.749983661417323
20
-4.5545504724409449
11
5.7361271653543309
21
-4.5498816929133854
0
LINE
8
BLACK
6
CONTINUOUS
10
5.7361271653543309
20
-4.5498816929133854
11
5.7218471259842518
21
-4.5467383858267718
0
LINE
8
BLACK
6
CONTINUOUS
10
5.7218471259842518
20
-4.5467383858267718
11
5.7073109448818897
21
-4.5451574803149608
0
LINE
8
BLACK
6
CONTINUOUS
10
5.7073109448818897
20
-4.5451574803149608
11
5.6926890551181097
21
-4.5451574803149608
0
LINE
8
BLACK
6
CONTINUOUS
10
5.6926890551181097
20
-4.5451574803149608
11
5.6781528740157476
21
-4.5467383858267718
0
LINE
8
BLACK
6
CONTINUOUS
10
5.6781528740157476
20
-4.5467383858267718
11
5.6638728346456695
21
-4.5498816929133854
0
LINE
8
BLACK
6
CONTINUOUS
10
5.6638728346456695
20
-4.5498816929133854
11
5.6500163385826774
21
-4.5545504724409449
0
LINE
8
BLACK
6
CONTINUOUS
10
5.6500163385826774
20
-4.5545504724409449
11
5.636745866141732
21
-4.5606900393700789
0
LINE
8
BLACK
6
CONTINUOUS
10
5.636745866141732
20
-4.5606900393700789
11
5.6242170078740159
21
-4.5682284251968506
0
LINE
8
BLACK
6
CONTINUOUS
10
5.6242170078740159
20
-4.5682284251968506
11
5.6125766141732285
21
-4.577077204724409
0
LINE
8
BLACK
6
CONTINUOUS
10
5.6125766141732285
20
-4.577077204724409
11
5.6019611811023617
21
-4.5871326771653544
0
LINE
8
BLACK
6
CONTINUOUS
10
5.6019611811023617
20
-4.5871326771653544
11
5.5924951574803146
21
-4.5982769291338581
0
LINE
8
BLACK
6
CONTINUOUS
10
5.5924951574803146
20
-4.5982769291338581
11
5.5842895275590552
21
-4.6103793307086613
0
LINE
8
BLACK
6
CONTINUOUS
10
5.5842895275590552
20
-4.6103793307086613
11
5.5774405118110231
21
-4.6232979527559053
0
LINE
8
BLACK
6
CONTINUOUS
10
5.5774405118110231
20
-4.6232979527559053
11
5.5720283858267718
21
-4.6368813385826773
0
LINE
8
BLACK
6
CONTINUOUS
10
5.5720283858267718
20
-4.6368813385826773
11
5.5681166141732286
21
-4.6509702755905513
0
LINE
8
BLACK
6
CONTINUOUS
10
5.5681166141732286
20
-4.6509702755905513
11
5.5657510629921259
21
-4.6653995669291337
0
LINE
8
BLACK
6
CONTINUOUS
10
5.5657510629921259
20
-4.6653995669291337
11
5.5649594488188976
21
-4.6799999999999997
0
LINE
8
BLACK
6
CONTINUOUS
10
5.5649594488188976
20
-4.6799999999999997
11
5.5657510629921259
21
-4.6946004330708657
0
LINE
8
BLACK
6
CONTINUOUS
10
4.7133687795275589
20
-4.0010394881889759
11
4.7139014566929136
21
-4.0015721653543306
0
LINE
8
BLACK
6
CONTINUOUS
10
4.7139014566929136
20
-4.0015721653543306
11
4.7139763779527559
21
-4.1830511811023623
0
LINE
8
BLACK
6
CONTINUOUS
10
4.7139763779527559
20
-4.1830511811023623
11
4.7139014566929136
21
-4.183427834645669
0
LINE
8
BLACK
6
CONTINUOUS
10
4.7139014566929136
20
-4.183427834645669
11
4.7133687795275589
21
-4.1839605118110237
0
LINE
8
BLACK
6
CONTINUOUS
10
4.7133687795275589
20
-4.1839605118110237
11
4.5870078740157476
21
-4.184035433070866
0
LINE
8
BLACK
6
CONTINUOUS
10
4.5870078740157476
20
-4.184035433070866
11
4.5866312204724409
21
-4.1839605118110237
0
LINE
8
BLACK
6
CONTINUOUS
10
4.5866312204724409
20
-4.1839605118110237
11
4.5860985433070862
21
-4.183427834645669
0
LINE
8
BLACK
6
CONTINUOUS
10
4.5860985433070862
20
-4.183427834645669
11
4.5860236220472439
21
-4.0019488188976373
0
LINE
8
BLACK
6
CONTINUOUS
10
4.5860236220472439
20
-4.0019488188976373
11
4.5860985433070862
21
-4.0015721653543306
0
LINE
8
BLACK
6
CONTINUOUS
10
4.5860985433070862
20
-4.0015721653543306
11
4.5866312204724409
21
-4.0010394881889759
0
LINE
8
BLACK
6
CONTINUOUS
10
4.5866312204724409
20
-4.0010394881889759
11
4.7129921259842522
21
-4.0009645669291336
0
LINE
8
BLACK
6
CONTINUOUS
10
4.7129921259842522
20
-4.0009645669291336
11
4.7133687795275589
21
-4.0010394881889759
0
LINE
8
BLACK
6
CONTINUOUS
10
4.5879177559055115
20
-4.0029325196850394
11
4.5879917322834647
21
-4.1821410236220471
0
LINE
8
BLACK
6
CONTINUOUS
10
4.5879917322834647
20
-4.1821410236220471
11
4.7120822047244095
21
-4.1820674409448815
0
LINE
8
BLACK
6
CONTINUOUS
10
4.7120822047244095
20
-4.1820674409448815
11
4.7120082283464564
21
-4.0028589370078738
0
LINE
8
BLACK
6
CONTINUOUS
10
4.7120082283464564
20
-4.0028589370078738
11
4.5879177559055115
21
-4.0029325196850394
0
LINE
8
BLACK
6
CONTINUOUS
10
4.8533687795275586
20
-4.0010394881889759
11
4.8539014566929133
21
-4.0015721653543306
0
LINE
8
BLACK
6
CONTINUOUS
10
4.8539014566929133
20
-4.0015721653543306
11
4.8539763779527556
21
-4.1830511811023623
0
LINE
8
BLACK
6
CONTINUOUS
10
4.8539763779527556
20
-4.1830511811023623
11
4.8539014566929133
21
-4.183427834645669
0
LINE
8
BLACK
6
CONTINUOUS
10
4.8539014566929133
20
-4.183427834645669
11
4.8533687795275586
21
-4.1839605118110237
0
LINE
8
BLACK
6
CONTINUOUS
10
4.8533687795275586
20
-4.1839605118110237
11
4.7270078740157482
21
-4.184035433070866
0
LINE
8
BLACK
6
CONTINUOUS
10
4.7270078740157482
20
-4.184035433070866
11
4.7266312204724406
21
-4.1839605118110237
0
LINE
8
BLACK
6
CONTINUOUS
10
4.7266312204724406
20
-4.1839605118110237
11
4.7260985433070868
21
-4.183427834645669
0
LINE
8
BLACK
6
CONTINUOUS
10
4.7260985433070868
20
-4.183427834645669
11
4.7260236220472436
21
-4.0019488188976373
0
LINE
8
BLACK
6
CONTINUOUS
10
4.7260236220472436
20
-4.0019488188976373
11
4.7260985433070868
21
-4.0015721653543306
0
LINE
8
BLACK
6
CONTINUOUS
10
4.7260985433070868
20
-4.0015721653543306
11
4.7266312204724406
21
-4.0010394881889759
0
LINE
8
BLACK
6
CONTINUOUS
10
4.7266312204724406
20
-4.0010394881889759
11
4.8529921259842519
21
-4.0009645669291336
0
LINE
8
BLACK
6
CONTINUOUS
10
4.8529921259842519
20
-4.0009645669291336
11
4.8533687795275586
21
-4.0010394881889759
0
LINE
8
BLACK
6
CONTINUOUS
10
4.7279177559055121
20
-4.0029325196850394
11
4.7279917322834644
21
-4.1821410236220471
0
LINE
8
BLACK
6
CONTINUOUS
10
4.7279917322834644
20
-4.1821410236220471
11
4.8520822047244092
21
-4.1820674409448815
0
LINE
8
BLACK
6
CONTINUOUS
10
4.8520822047244092
20
-4.1820674409448815
11
4.852008228346457
21
-4.0028589370078738
0
LINE
8
BLACK
6
CONTINUOUS
10
4.852008228346457
20
-4.0028589370078738
11
4.7279177559055121
21
-4.0029325196850394
0
LINE
8
BLACK
6
CONTINUOUS
10
4.9933687795275592
20
-4.0010394881889759
11
4.993901456692913
21
-4.0015721653543306
0
LINE
8
BLACK
6
CONTINUOUS
10
4.993901456692913
20
-4.0015721653543306
11
4.9939763779527562
21
-4.1830511811023623
0
LINE
8
BLACK
6
CONTINUOUS
10
4.9939763779527562
20
-4.1830511811023623
11
4.993901456692913
21
-4.183427834645669
0
LINE
8
BLACK
6
CONTINUOUS
10
4.993901456692913
20
-4.183427834645669
11
4.9933687795275592
21
-4.1839605118110237
0
LINE
8
BLACK
6
CONTINUOUS
10
4.9933687795275592
20
-4.1839605118110237
11
4.8670078740157479
21
-4.184035433070866
0
LINE
8
BLACK
6
CONTINUOUS
10
4.8670078740157479
20
-4.184035433070866
11
4.8666312204724411
21
-4.1839605118110237
0
LINE
8
BLACK
6
CONTINUOUS
10
4.8666312204724411
20
-4.1839605118110237
11
4.8660985433070865
21
-4.183427834645669
0
LINE
8
BLACK
6
CONTINUOUS
10
4.8660985433070865
20
-4.183427834645669
11
4.8660236220472441
21
-4.0019488188976373
0
LINE
8
BLACK
6
CONTINUOUS
10
4.8660236220472441
20
-4.0019488188976373
11
4.8660985433070865
21
-4.0015721653543306
0
LINE
8
BLACK
6
CONTINUOUS
10
4.8660985433070865
20
-4.0015721653543306
11
4.8666312204724411
21
-4.0010394881889759
0
LINE
8
BLACK
6
CONTINUOUS
10
4.8666312204724411
20
-4.0010394881889759
11
4.9929921259842516
21
-4.0009645669291336
0
LINE
8
BLACK
6
CONTINUOUS
10
4.9929921259842516
20
-4.0009645669291336
11
4.9933687795275592
21
-4.0010394881889759
0
LINE
8
BLACK
6
CONTINUOUS
10
4.8679177559055118
20
-4.0029325196850394
11
4.867991732283464
21
-4.1821410236220471
0
LINE
8
BLACK
6
CONTINUOUS
10
4.867991732283464
20
-4.1821410236220471
11
4.9920822047244098
21
-4.1820674409448815
0
LINE
8
BLACK
6
CONTINUOUS
10
4.9920822047244098
20
-4.1820674409448815
11
4.9920082283464566
21
-4.0028589370078738
0
LINE
8
BLACK
6
CONTINUOUS
10
4.9920082283464566
20
-4.0028589370078738
11
4.8679177559055118
21
-4.0029325196850394
0
LINE
8
BLACK
6
CONTINUOUS
10
5.1333687795275589
20
-4.0010394881889759
11
5.1339014566929135
21
-4.0015721653543306
0
LINE
8
BLACK
6
CONTINUOUS
10
5.1339014566929135
20
-4.0015721653543306
11
5.1339763779527559
21
-4.1830511811023623
0
LINE
8
BLACK
6
CONTINUOUS
10
5.1339763779527559
20
-4.1830511811023623
11
5.1339014566929135
21
-4.183427834645669
0
LINE
8
BLACK
6
CONTINUOUS
10
5.1339014566929135
20
-4.183427834645669
11
5.1333687795275589
21
-4.1839605118110237
0
LINE
8
BLACK
6
CONTINUOUS
10
5.1333687795275589
20
-4.1839605118110237
11
5.0070078740157475
21
-4.184035433070866
0
LINE
8
BLACK
6
CONTINUOUS
10
5.0070078740157475
20
-4.184035433070866
11
5.0066312204724408
21
-4.1839605118110237
0
LINE
8
BLACK
6
CONTINUOUS
10
5.0066312204724408
20
-4.1839605118110237
11
5.0060985433070861
21
-4.183427834645669
0
LINE
8
BLACK
6
CONTINUOUS
10
5.0060985433070861
20
-4.183427834645669
11
5.0060236220472438
21
-4.0019488188976373
0
LINE
8
BLACK
6
CONTINUOUS
10
5.0060236220472438
20
-4.0019488188976373
11
5.0060985433070861
21
-4.0015721653543306
0
LINE
8
BLACK
6
CONTINUOUS
10
5.0060985433070861
20
-4.0015721653543306
11
5.0066312204724408
21
-4.0010394881889759
0
LINE
8
BLACK
6
CONTINUOUS
10
5.0066312204724408
20
-4.0010394881889759
11
5.1329921259842521
21
-4.0009645669291336
0
LINE
8
BLACK
6
CONTINUOUS
10
5.1329921259842521
20
-4.0009645669291336
11
5.1333687795275589
21
-4.0010394881889759
0
LINE
8
BLACK
6
CONTINUOUS
10
5.0079177559055115
20
-4.0029325196850394
11
5.0079917322834646
21
-4.1821410236220471
0
LINE
8
BLACK
6
CONTINUOUS
10
5.0079917322834646
20
-4.1821410236220471
11
5.1320822047244095
21
-4.1820674409448815
0
LINE
8
BLACK
6
CONTINUOUS
10
5.1320822047244095
20
-4.1820674409448815
11
5.1320082283464563
21
-4.0028589370078738
0
LINE
8
BLACK
6
CONTINUOUS
10
5.1320082283464563
20
-4.0028589370078738
11
5.0079177559055115
21
-4.0029325196850394
0
LINE
8
BLACK
6
CONTINUOUS
10
5.1331325590551176
20
-3.6732638976377952
11
5.1336652362204722
21
-3.6737965748031494
0
LINE
8
BLACK
6
CONTINUOUS
10
5.1336652362204722
20
-3.6737965748031494
11
5.1337401574803145
21
-3.9458267716535431
0
LINE
8
BLACK
6
CONTINUOUS
10
5.1337401574803145
20
-3.9458267716535431
11
5.1336652362204722
21
-3.9462034251968503
0
LINE
8
BLACK
6
CONTINUOUS
10
5.1336652362204722
20
-3.9462034251968503
11
5.1331325590551176
21
-3.9467361023622045
0
LINE
8
BLACK
6
CONTINUOUS
10
5.1331325590551176
20
-3.9467361023622045
11
4.7272440944881886
21
-3.9468110236220473
0
LINE
8
BLACK
6
CONTINUOUS
10
4.7272440944881886
20
-3.9468110236220473
11
4.7268674409448819
21
-3.9467361023622045
0
LINE
8
BLACK
6
CONTINUOUS
10
4.7268674409448819
20
-3.9467361023622045
11
4.7263347637795272
21
-3.9462034251968503
0
LINE
8
BLACK
6
CONTINUOUS
10
4.7263347637795272
20
-3.9462034251968503
11
4.7262598425196849
21
-3.6741732283464565
0
LINE
8
BLACK
6
CONTINUOUS
10
4.7262598425196849
20
-3.6741732283464565
11
4.7263347637795272
21
-3.6737965748031494
0
LINE
8
BLACK
6
CONTINUOUS
10
4.7263347637795272
20
-3.6737965748031494
11
4.7268674409448819
21
-3.6732638976377952
0
LINE
8
BLACK
6
CONTINUOUS
10
4.7268674409448819
20
-3.6732638976377952
11
5.1327559055118108
21
-3.6731889763779528
0
LINE
8
BLACK
6
CONTINUOUS
10
5.1327559055118108
20
-3.6731889763779528
11
5.1331325590551176
21
-3.6732638976377952
0
LINE
8
BLACK
6
CONTINUOUS
10
4.7281537795275588
20
-3.6751572834645669
11
4.7282280708661419
21
-3.9449171653543305
0
LINE
8
BLACK
6
CONTINUOUS
10
4.7282280708661419
20
-3.9449171653543305
11
5.1318461811023619
21
-3.9448426771653544
0
LINE
8
BLACK
6
CONTINUOUS
10
5.1318461811023619
20
-3.9448426771653544
11
5.1317718897637796
21
-3.6750827952755905
0
LINE
8
BLACK
6
CONTINUOUS
10
5.1317718897637796
20
-3.6750827952755905
11
4.7281537795275588
21
-3.6751572834645669
0
LINE
8
BLACK
6
CONTINUOUS
10
4.7233687795275587
20
-3.4485394881889762
11
4.7239014566929134
21
-3.4490721653543308
0
LINE
8
BLACK
6
CONTINUOUS
10
4.7239014566929134
20
-3.4490721653543308
11
4.7239763779527557
21
-3.6305511811023621
0
LINE
8
BLACK
6
CONTINUOUS
10
4.7239763779527557
20
-3.6305511811023621
11
4.7239014566929134
21
-3.6309278346456693
0
LINE
8
BLACK
6
CONTINUOUS
10
4.7239014566929134
20
-3.6309278346456693
11
4.7233687795275587
21
-3.6314605118110235
0
LINE
8
BLACK
6
CONTINUOUS
10
4.7233687795275587
20
-3.6314605118110235
11
4.5970078740157483
21
-3.6315354330708662
0
LINE
8
BLACK
6
CONTINUOUS
10
4.5970078740157483
20
-3.6315354330708662
11
4.5966312204724407
21
-3.6314605118110235
0
LINE
8
BLACK
6
CONTINUOUS
10
4.5966312204724407
20
-3.6314605118110235
11
4.5960985433070869
21
-3.6309278346456693
0
LINE
8
BLACK
6
CONTINUOUS
10
4.5960985433070869
20
-3.6309278346456693
11
4.5960236220472437
21
-3.4494488188976375
0
LINE
8
BLACK
6
CONTINUOUS
10
4.5960236220472437
20
-3.4494488188976375
11
4.5960985433070869
21
-3.4490721653543308
0
LINE
8
BLACK
6
CONTINUOUS
10
4.5960985433070869
20
-3.4490721653543308
11
4.5966312204724407
21
-3.4485394881889762
0
LINE
8
BLACK
6
CONTINUOUS
10
4.5966312204724407
20
-3.4485394881889762
11
4.722992125984252
21
-3.4484645669291338
0
LINE
8
BLACK
6
CONTINUOUS
10
4.722992125984252
20
-3.4484645669291338
11
4.7233687795275587
21
-3.4485394881889762
0
LINE
8
BLACK
6
CONTINUOUS
10
4.5979177559055113
20
-3.4504325196850392
11
4.5979917322834645
21
-3.6296410236220473
0
LINE
8
BLACK
6
CONTINUOUS
10
4.5979917322834645
20
-3.6296410236220473
11
4.7220822047244093
21
-3.6295674409448817
0
LINE
8
BLACK
6
CONTINUOUS
10
4.7220822047244093
20
-3.6295674409448817
11
4.7220082283464562
21
-3.450358937007874
0
LINE
8
BLACK
6
CONTINUOUS
10
4.7220082283464562
20
-3.450358937007874
11
4.5979177559055113
21
-3.4504325196850392
0
LINE
8
BLACK
6
CONTINUOUS
10
4.8633687795275593
20
-3.4485394881889762
11
4.8639014566929131
21
-3.4490721653543308
0
LINE
8
BLACK
6
CONTINUOUS
10
4.8639014566929131
20
-3.4490721653543308
11
4.8639763779527554
21
-3.6305511811023621
0
LINE
8
BLACK
6
CONTINUOUS
10
4.8639763779527554
20
-3.6305511811023621
11
4.8639014566929131
21
-3.6309278346456693
0
LINE
8
BLACK
6
CONTINUOUS
10
4.8639014566929131
20
-3.6309278346456693
11
4.8633687795275593
21
-3.6314605118110235
0
LINE
8
BLACK
6
CONTINUOUS
10
4.8633687795275593
20
-3.6314605118110235
11
4.737007874015748
21
-3.6315354330708662
0
LINE
8
BLACK
6
CONTINUOUS
10
4.737007874015748
20
-3.6315354330708662
11
4.7366312204724412
21
-3.6314605118110235
0
LINE
8
BLACK
6
CONTINUOUS
10
4.7366312204724412
20
-3.6314605118110235
11
4.7360985433070866
21
-3.6309278346456693
0
LINE
8
BLACK
6
CONTINUOUS
10
4.7360985433070866
20
-3.6309278346456693
11
4.7360236220472443
21
-3.4494488188976375
0
LINE
8
BLACK
6
CONTINUOUS
10
4.7360236220472443
20
-3.4494488188976375
11
4.7360985433070866
21
-3.4490721653543308
0
LINE
8
BLACK
6
CONTINUOUS
10
4.7360985433070866
20
-3.4490721653543308
11
4.7366312204724412
21
-3.4485394881889762
0
LINE
8
BLACK
6
CONTINUOUS
10
4.7366312204724412
20
-3.4485394881889762
11
4.8629921259842517
21
-3.4484645669291338
0
LINE
8
BLACK
6
CONTINUOUS
10
4.8629921259842517
20
-3.4484645669291338
11
4.8633687795275593
21
-3.4485394881889762
0
LINE
8
BLACK
6
CONTINUOUS
10
4.7379177559055119
20
-3.4504325196850392
11
4.7379917322834642
21
-3.6296410236220473
0
LINE
8
BLACK
6
CONTINUOUS
10
4.7379917322834642
20
-3.6296410236220473
11
4.862082204724409
21
-3.6295674409448817
0
LINE
8
BLACK
6
CONTINUOUS
10
4.862082204724409
20
-3.6295674409448817
11
4.8620082283464567
21
-3.450358937007874
0
LINE
8
BLACK
6
CONTINUOUS
10
4.8620082283464567
20
-3.450358937007874
11
4.7379177559055119
21
-3.4504325196850392
0
LINE
8
BLACK
6
CONTINUOUS
10
5.003368779527559
20
-3.4485394881889762
11
5.0039014566929136
21
-3.4490721653543308
0
LINE
8
BLACK
6
CONTINUOUS
10
5.0039014566929136
20
-3.4490721653543308
11
5.003976377952756
21
-3.6305511811023621
0
LINE
8
BLACK
6
CONTINUOUS
10
5.003976377952756
20
-3.6305511811023621
11
5.0039014566929136
21
-3.6309278346456693
0
LINE
8
BLACK
6
CONTINUOUS
10
5.0039014566929136
20
-3.6309278346456693
11
5.003368779527559
21
-3.6314605118110235
0
LINE
8
BLACK
6
CONTINUOUS
10
5.003368779527559
20
-3.6314605118110235
11
4.8770078740157476
21
-3.6315354330708662
0
LINE
8
BLACK
6
CONTINUOUS
10
4.8770078740157476
20
-3.6315354330708662
11
4.8766312204724409
21
-3.6314605118110235
0
LINE
8
BLACK
6
CONTINUOUS
10
4.8766312204724409
20
-3.6314605118110235
11
4.8760985433070863
21
-3.6309278346456693
0
LINE
8
BLACK
6
CONTINUOUS
10
4.8760985433070863
20
-3.6309278346456693
11
4.8760236220472439
21
-3.4494488188976375
0
LINE
8
BLACK
6
CONTINUOUS
10
4.8760236220472439
20
-3.4494488188976375
11
4.8760985433070863
21
-3.4490721653543308
0
LINE
8
BLACK
6
CONTINUOUS
10
4.8760985433070863
20
-3.4490721653543308
11
4.8766312204724409
21
-3.4485394881889762
0
LINE
8
BLACK
6
CONTINUOUS
10
4.8766312204724409
20
-3.4485394881889762
11
5.0029921259842522
21
-3.4484645669291338
0
LINE
8
BLACK
6
CONTINUOUS
10
5.0029921259842522
20
-3.4484645669291338
11
5.003368779527559
21
-3.4485394881889762
0
LINE
8
BLACK
6
CONTINUOUS
10
4.8779177559055116
20
-3.4504325196850392
11
4.8779917322834647
21
-3.6296410236220473
0
LINE
8
BLACK
6
CONTINUOUS
10
4.8779917322834647
20
-3.6296410236220473
11
5.0020822047244096
21
-3.6295674409448817
0
LINE
8
BLACK
6
CONTINUOUS
10
5.0020822047244096
20
-3.6295674409448817
11
5.0020082283464564
21
-3.450358937007874
0
LINE
8
BLACK
6
CONTINUOUS
10
5.0020082283464564
20
-3.450358937007874
11
4.8779177559055116
21
-3.4504325196850392
0
LINE
8
BLACK
6
CONTINUOUS
10
5.1433687795275587
20
-3.4485394881889762
11
5.1439014566929133
21
-3.4490721653543308
0
LINE
8
BLACK
6
CONTINUOUS
10
5.1439014566929133
20
-3.4490721653543308
11
5.1439763779527556
21
-3.6305511811023621
0
LINE
8
BLACK
6
CONTINUOUS
10
5.1439763779527556
20
-3.6305511811023621
11
5.1439014566929133
21
-3.6309278346456693
0
LINE
8
BLACK
6
CONTINUOUS
10
5.1439014566929133
20
-3.6309278346456693
11
5.1433687795275587
21
-3.6314605118110235
0
LINE
8
BLACK
6
CONTINUOUS
10
5.1433687795275587
20
-3.6314605118110235
11
5.0170078740157482
21
-3.6315354330708662
0
LINE
8
BLACK
6
CONTINUOUS
10
5.0170078740157482
20
-3.6315354330708662
11
5.0166312204724406
21
-3.6314605118110235
0
LINE
8
BLACK
6
CONTINUOUS
10
5.0166312204724406
20
-3.6314605118110235
11
5.0160985433070868
21
-3.6309278346456693
0
LINE
8
BLACK
6
CONTINUOUS
10
5.0160985433070868
20
-3.6309278346456693
11
5.0160236220472436
21
-3.4494488188976375
0
LINE
8
BLACK
6
CONTINUOUS
10
5.0160236220472436
20
-3.4494488188976375
11
5.0160985433070868
21
-3.4490721653543308
0
LINE
8
BLACK
6
CONTINUOUS
10
5.0160985433070868
20
-3.4490721653543308
11
5.0166312204724406
21
-3.4485394881889762
0
LINE
8
BLACK
6
CONTINUOUS
10
5.0166312204724406
20
-3.4485394881889762
11
5.1429921259842519
21
-3.4484645669291338
0
LINE
8
BLACK
6
CONTINUOUS
10
5.1429921259842519
20
-3.4484645669291338
11
5.1433687795275587
21
-3.4485394881889762
0
LINE
8
BLACK
6
CONTINUOUS
10
5.0179177559055113
20
-3.4504325196850392
11
5.0179917322834644
21
-3.6296410236220473
0
LINE
8
BLACK
6
CONTINUOUS
10
5.0179917322834644
20
-3.6296410236220473
11
5.1420822047244092
21
-3.6295674409448817
0
LINE
8
BLACK
6
CONTINUOUS
10
5.1420822047244092
20
-3.6295674409448817
11
5.142008228346457
21
-3.450358937007874
0
LINE
8
BLACK
6
CONTINUOUS
10
5.142008228346457
20
-3.450358937007874
11
5.0179177559055113
21
-3.4504325196850392
0
LINE
8
BLACK
6
CONTINUOUS
10
5.639963267716535
20
-3.5670631102362202
11
5.6404959448818897
21
-3.5675957874015749
0
LINE
8
BLACK
6
CONTINUOUS
10
5.6404959448818897
20
-3.5675957874015749
11
5.640570866141732
21
-3.6270275590551182
0
LINE
8
BLACK
6
CONTINUOUS
10
5.640570866141732
20
-3.6270275590551182
11
5.6404959448818897
21
-3.6274042125984249
0
LINE
8
BLACK
6
CONTINUOUS
10
5.6404959448818897
20
-3.6274042125984249
11
5.639963267716535
21
-3.6279368897637796
0
LINE
8
BLACK
6
CONTINUOUS
10
5.639963267716535
20
-3.6279368897637796
11
5.5254133858267718
21
-3.6280118110236219
0
LINE
8
BLACK
6
CONTINUOUS
10
5.5254133858267718
20
-3.6280118110236219
11
5.5250367322834641
21
-3.6279368897637796
0
LINE
8
BLACK
6
CONTINUOUS
10
5.5250367322834641
20
-3.6279368897637796
11
5.5245040551181104
21
-3.6274042125984249
0
LINE
8
BLACK
6
CONTINUOUS
10
5.5245040551181104
20
-3.6274042125984249
11
5.5244291338582672
21
-3.5679724409448816
0
LINE
8
BLACK
6
CONTINUOUS
10
5.5244291338582672
20
-3.5679724409448816
11
5.5245040551181104
21
-3.5675957874015749
0
LINE
8
BLACK
6
CONTINUOUS
10
5.5245040551181104
20
-3.5675957874015749
11
5.5250367322834641
21
-3.5670631102362202
0
LINE
8
BLACK
6
CONTINUOUS
10
5.5250367322834641
20
-3.5670631102362202
11
5.6395866141732283
21
-3.5669881889763779
0
LINE
8
BLACK
6
CONTINUOUS
10
5.6395866141732283
20
-3.5669881889763779
11
5.639963267716535
21
-3.5670631102362202
0
LINE
8
BLACK
6
CONTINUOUS
10
5.5263244094488186
20
-3.5689560629921258
11
5.5263964566929129
21
-3.6261173228346455
0
LINE
8
BLACK
6
CONTINUOUS
10
5.5263964566929129
20
-3.6261173228346455
11
5.6386755511811026
21
-3.6260438976377953
0
LINE
8
BLACK
6
CONTINUOUS
10
5.6386755511811026
20
-3.6260438976377953
11
5.6386035039370075
21
-3.5688826377952756
0
LINE
8
BLACK
6
CONTINUOUS
10
5.6386035039370075
20
-3.5688826377952756
11
5.5263244094488186
21
-3.5689560629921258
0
LINE
8
BLACK
6
CONTINUOUS
10
5.639963267716535
20
-3.4820631102362203
11
5.6404959448818897
21
-3.4825957874015749
0
LINE
8
BLACK
6
CONTINUOUS
10
5.6404959448818897
20
-3.4825957874015749
11
5.640570866141732
21
-3.5420275590551182
0
LINE
8
BLACK
6
CONTINUOUS
10
5.640570866141732
20
-3.5420275590551182
11
5.6404959448818897
21
-3.542404212598425
0
LINE
8
BLACK
6
CONTINUOUS
10
5.6404959448818897
20
-3.542404212598425
11
5.639963267716535
21
-3.5429368897637796
0
LINE
8
BLACK
6
CONTINUOUS
10
5.639963267716535
20
-3.5429368897637796
11
5.5254133858267718
21
-3.5430118110236219
0
LINE
8
BLACK
6
CONTINUOUS
10
5.5254133858267718
20
-3.5430118110236219
11
5.5250367322834641
21
-3.5429368897637796
0
LINE
8
BLACK
6
CONTINUOUS
10
5.5250367322834641
20
-3.5429368897637796
11
5.5245040551181104
21
-3.542404212598425
0
LINE
8
BLACK
6
CONTINUOUS
10
5.5245040551181104
20
-3.542404212598425
11
5.5244291338582672
21
-3.4829724409448817
0
LINE
8
BLACK
6
CONTINUOUS
10
5.5244291338582672
20
-3.4829724409448817
11
5.5245040551181104
21
-3.4825957874015749
0
LINE
8
BLACK
6
CONTINUOUS
10
5.5245040551181104
20
-3.4825957874015749
11
5.5250367322834641
21
-3.4820631102362203
0
LINE
8
BLACK
6
CONTINUOUS
10
5.5250367322834641
20
-3.4820631102362203
11
5.6395866141732283
21
-3.481988188976378
0
LINE
8
BLACK
6
CONTINUOUS
10
5.6395866141732283
20
-3.481988188976378
11
5.639963267716535
21
-3.4820631102362203
0
LINE
8
BLACK
6
CONTINUOUS
10
5.5263244094488186
20
-3.4839560629921258
11
5.5263964566929129
21
-3.5411173228346455
0
LINE
8
BLACK
6
CONTINUOUS
10
5.5263964566929129
20
-3.5411173228346455
11
5.6386755511811026
21
-3.5410438976377954
0
LINE
8
BLACK
6
CONTINUOUS
10
5.6386755511811026
20
-3.5410438976377954
11
5.6386035039370075
21
-3.4838826377952756
0
LINE
8
BLACK
6
CONTINUOUS
10
5.6386035039370075
20
-3.4838826377952756
11
5.5263244094488186
21
-3.4839560629921258
0
LINE
8
BLACK
6
CONTINUOUS
10
5.639963267716535
20
-3.4170631102362203
11
5.6404959448818897
21
-3.4175957874015745
0
LINE
8
BLACK
6
CONTINUOUS
10
5.6404959448818897
20
-3.4175957874015745
11
5.640570866141732
21
-3.4770275590551178
0
LINE
8
BLACK
6
CONTINUOUS
10
5.640570866141732
20
-3.4770275590551178
11
5.6404959448818897
21
-3.477404212598425
0
LINE
8
BLACK
6
CONTINUOUS
10
5.6404959448818897
20
-3.477404212598425
11
5.639963267716535
21
-3.4779368897637792
0
LINE
8
BLACK
6
CONTINUOUS
10
5.639963267716535
20
-3.4779368897637792
11
5.5254133858267718
21
-3.478011811023622
0
LINE
8
BLACK
6
CONTINUOUS
10
5.5254133858267718
20
-3.478011811023622
11
5.5250367322834641
21
-3.4779368897637792
0
LINE
8
BLACK
6
CONTINUOUS
10
5.5250367322834641
20
-3.4779368897637792
11
5.5245040551181104
21
-3.477404212598425
0
LINE
8
BLACK
6
CONTINUOUS
10
5.5245040551181104
20
-3.477404212598425
11
5.5244291338582672
21
-3.4179724409448817
0
LINE
8
BLACK
6
CONTINUOUS
10
5.5244291338582672
20
-3.4179724409448817
11
5.5245040551181104
21
-3.4175957874015745
0
LINE
8
BLACK
6
CONTINUOUS
10
5.5245040551181104
20
-3.4175957874015745
11
5.5250367322834641
21
-3.4170631102362203
0
LINE
8
BLACK
6
CONTINUOUS
10
5.5250367322834641
20
-3.4170631102362203
11
5.6395866141732283
21
-3.416988188976378
0
LINE
8
BLACK
6
CONTINUOUS
10
5.6395866141732283
20
-3.416988188976378
11
5.639963267716535
21
-3.4170631102362203
0
LINE
8
BLACK
6
CONTINUOUS
10
5.5263244094488186
20
-3.4189560629921258
11
5.5263964566929129
21
-3.4761173228346456
0
LINE
8
BLACK
6
CONTINUOUS
10
5.5263964566929129
20
-3.4761173228346456
11
5.6386755511811026
21
-3.476043897637795
0
LINE
8
BLACK
6
CONTINUOUS
10
5.6386755511811026
20
-3.476043897637795
11
5.6386035039370075
21
-3.4188826377952757
0
LINE
8
BLACK
6
CONTINUOUS
10
5.6386035039370075
20
-3.4188826377952757
11
5.5263244094488186
21
-3.4189560629921258
0
LINE
8
BLACK
6
CONTINUOUS
10
5.287463267716535
20
-3.3495631102362204
11
5.2879959448818896
21
-3.3500957874015747
0
LINE
8
BLACK
6
CONTINUOUS
10
5.2879959448818896
20
-3.3500957874015747
11
5.2880708661417319
21
-3.409527559055118
0
LINE
8
BLACK
6
CONTINUOUS
10
5.2880708661417319
20
-3.409527559055118
11
5.2879959448818896
21
-3.4099042125984251
0
LINE
8
BLACK
6
CONTINUOUS
10
5.2879959448818896
20
-3.4099042125984251
11
5.287463267716535
21
-3.4104368897637793
0
LINE
8
BLACK
6
CONTINUOUS
10
5.287463267716535
20
-3.4104368897637793
11
5.1729133858267717
21
-3.4105118110236221
0
LINE
8
BLACK
6
CONTINUOUS
10
5.1729133858267717
20
-3.4105118110236221
11
5.1725367322834641
21
-3.4104368897637793
0
LINE
8
BLACK
6
CONTINUOUS
10
5.1725367322834641
20
-3.4104368897637793
11
5.1720040551181103
21
-3.4099042125984251
0
LINE
8
BLACK
6
CONTINUOUS
10
5.1720040551181103
20
-3.4099042125984251
11
5.171929133858268
21
-3.3504724409448818
0
LINE
8
BLACK
6
CONTINUOUS
10
5.171929133858268
20
-3.3504724409448818
11
5.1720040551181103
21
-3.3500957874015747
0
LINE
8
BLACK
6
CONTINUOUS
10
5.1720040551181103
20
-3.3500957874015747
11
5.1725367322834641
21
-3.3495631102362204
0
LINE
8
BLACK
6
CONTINUOUS
10
5.1725367322834641
20
-3.3495631102362204
11
5.2870866141732282
21
-3.3494881889763777
0
LINE
8
BLACK
6
CONTINUOUS
10
5.2870866141732282
20
-3.3494881889763777
11
5.287463267716535
21
-3.3495631102362204
0
LINE
8
BLACK
6
CONTINUOUS
10
5.1738244094488186
20
-3.351456062992126
11
5.1738964566929129
21
-3.4086173228346457
0
LINE
8
BLACK
6
CONTINUOUS
10
5.1738964566929129
20
-3.4086173228346457
11
5.2861755511811026
21
-3.4085438976377951
0
LINE
8
BLACK
6
CONTINUOUS
10
5.2861755511811026
20
-3.4085438976377951
11
5.2861035039370075
21
-3.3513826377952753
0
LINE
8
BLACK
6
CONTINUOUS
10
5.2861035039370075
20
-3.3513826377952753
11
5.1738244094488186
21
-3.351456062992126
0
LINE
8
BLACK
6
CONTINUOUS
10
5.577463267716535
20
-3.3495631102362204
11
5.5779959448818897
21
-3.3500957874015747
0
LINE
8
BLACK
6
CONTINUOUS
10
5.5779959448818897
20
-3.3500957874015747
11
5.578070866141732
21
-3.409527559055118
0
LINE
8
BLACK
6
CONTINUOUS
10
5.578070866141732
20
-3.409527559055118
11
5.5779959448818897
21
-3.4099042125984251
0
LINE
8
BLACK
6
CONTINUOUS
10
5.5779959448818897
20
-3.4099042125984251
11
5.577463267716535
21
-3.4104368897637793
0
LINE
8
BLACK
6
CONTINUOUS
10
5.577463267716535
20
-3.4104368897637793
11
5.4629133858267718
21
-3.4105118110236221
0
LINE
8
BLACK
6
CONTINUOUS
10
5.4629133858267718
20
-3.4105118110236221
11
5.4625367322834641
21
-3.4104368897637793
0
LINE
8
BLACK
6
CONTINUOUS
10
5.4625367322834641
20
-3.4104368897637793
11
5.4620040551181104
21
-3.4099042125984251
0
LINE
8
BLACK
6
CONTINUOUS
10
5.4620040551181104
20
-3.4099042125984251
11
5.4619291338582672
21
-3.3504724409448818
0
LINE
8
BLACK
6
CONTINUOUS
10
5.4619291338582672
20
-3.3504724409448818
11
5.4620040551181104
21
-3.3500957874015747
0
LINE
8
BLACK
6
CONTINUOUS
10
5.4620040551181104
20
-3.3500957874015747
11
5.4625367322834641
21
-3.3495631102362204
0
LINE
8
BLACK
6
CONTINUOUS
10
5.4625367322834641
20
-3.3495631102362204
11
5.5770866141732283
21
-3.3494881889763777
0
LINE
8
BLACK
6
CONTINUOUS
10
5.5770866141732283
20
-3.3494881889763777
11
5.577463267716535
21
-3.3495631102362204
0
LINE
8
BLACK
6
CONTINUOUS
10
5.4638244094488186
20
-3.351456062992126
11
5.4638964566929129
21
-3.4086173228346457
0
LINE
8
BLACK
6
CONTINUOUS
10
5.4638964566929129
20
-3.4086173228346457
11
5.5761755511811026
21
-3.4085438976377951
0
LINE
8
BLACK
6
CONTINUOUS
10
5.5761755511811026
20
-3.4085438976377951
11
5.5761035039370075
21
-3.3513826377952753
0
LINE
8
BLACK
6
CONTINUOUS
10
5.5761035039370075
20
-3.3513826377952753
11
5.4638244094488186
21
-3.351456062992126
0
LINE
8
BLACK
6
CONTINUOUS
10
4.0143006299212596
20
-2.8639384251968503
11
4.0284446062992121
21
-2.8661786220472441
0
LINE
8
BLACK
6
CONTINUOUS
10
4.0284446062992121
20
-2.8661786220472441
11
4.0422769291338581
21
-2.869885
0
LINE
8
BLACK
6
CONTINUOUS
10
4.0422769291338581
20
-2.869885
11
4.0556460629921256
21
-2.8750169291338583
0
LINE
8
BLACK
6
CONTINUOUS
10
4.0556460629921256
20
-2.8750169291338583
11
4.0684055118110232
21
-2.8815181889763779
0
LINE
8
BLACK
6
CONTINUOUS
10
4.0684055118110232
20
-2.8815181889763779
11
4.0804155118110232
21
-2.8893175590551179
0
LINE
8
BLACK
6
CONTINUOUS
10
4.0804155118110232
20
-2.8893175590551179
11
4.0915444488188975
21
-2.8983296062992125
0
LINE
8
BLACK
6
CONTINUOUS
10
4.0915444488188975
20
-2.8983296062992125
11
4.101670393700787
21
-2.9084555511811021
0
LINE
8
BLACK
6
CONTINUOUS
10
4.101670393700787
20
-2.9084555511811021
11
4.1106824409448821
21
-2.9195844881889763
0
LINE
8
BLACK
6
CONTINUOUS
10
4.1106824409448821
20
-2.9195844881889763
11
4.1184818110236217
21
-2.9315944881889764
0
LINE
8
BLACK
6
CONTINUOUS
10
4.1184818110236217
20
-2.9315944881889764
11
4.1249830708661417
21
-2.944353937007874
0
LINE
8
BLACK
6
CONTINUOUS
10
4.1249830708661417
20
-2.944353937007874
11
4.130115
21
-2.9577230708661415
0
LINE
8
BLACK
6
CONTINUOUS
10
4.130115
20
-2.9577230708661415
11
4.1338213779527555
21
-2.9715553937007875
0
LINE
8
BLACK
6
CONTINUOUS
10
4.1338213779527555
20
-2.9715553937007875
11
4.1360615748031497
21
-2.98569937007874
0
LINE
8
BLACK
6
CONTINUOUS
10
4.1360615748031497
20
-2.98569937007874
11
4.1368110236220472
21
-3.
0
LINE
8
BLACK
6
CONTINUOUS
10
4.1368110236220472
20
-3.
11
4.1360615748031497
21
-3.0143006299212596
0
LINE
8
BLACK
6
CONTINUOUS
10
4.1360615748031497
20
-3.0143006299212596
11
4.1338213779527555
21
-3.0284446062992125
0
LINE
8
BLACK
6
CONTINUOUS
10
4.1338213779527555
20
-3.0284446062992125
11
4.130115
21
-3.0422769291338581
0
LINE
8
BLACK
6
CONTINUOUS
10
4.130115
20
-3.0422769291338581
11
4.1249830708661417
21
-3.055646062992126
0
LINE
8
BLACK
6
CONTINUOUS
10
4.1249830708661417
20
-3.055646062992126
11
4.1184818110236217
21
-3.0684055118110236
0
LINE
8
BLACK
6
CONTINUOUS
10
4.1184818110236217
20
-3.0684055118110236
11
4.1106824409448821
21
-3.0804155118110237
0
LINE
8
BLACK
6
CONTINUOUS
10
4.1106824409448821
20
-3.0804155118110237
11
4.101670393700787
21
-3.0915444488188975
0
LINE
8
BLACK
6
CONTINUOUS
10
4.101670393700787
20
-3.0915444488188975
11
4.0915444488188975
21
-3.1016703937007875
0
LINE
8
BLACK
6
CONTINUOUS
10
4.0915444488188975
20
-3.1016703937007875
11
4.0804155118110232
21
-3.1106824409448817
0
LINE
8
BLACK
6
CONTINUOUS
10
4.0804155118110232
20
-3.1106824409448817
11
4.0684055118110232
21
-3.1184818110236221
0
LINE
8
BLACK
6
CONTINUOUS
10
4.0684055118110232
20
-3.1184818110236221
11
4.0556460629921256
21
-3.1249830708661417
0
LINE
8
BLACK
6
CONTINUOUS
10
4.0556460629921256
20
-3.1249830708661417
11
4.0422769291338581
21
-3.130115
0
LINE
8
BLACK
6
CONTINUOUS
10
4.0422769291338581
20
-3.130115
11
4.0284446062992121
21
-3.1338213779527559
0
LINE
8
BLACK
6
CONTINUOUS
10
4.0284446062992121
20
-3.1338213779527559
11
4.0143006299212596
21
-3.1360615748031497
0
LINE
8
BLACK
6
CONTINUOUS
10
4.0143006299212596
20
-3.1360615748031497
11
4.
21
-3.1368110236220472
0
LINE
8
BLACK
6
CONTINUOUS
10
4.
20
-3.1368110236220472
11
3.98569937007874
21
-3.1360615748031497
0
LINE
8
BLACK
6
CONTINUOUS
10
3.98569937007874
20
-3.1360615748031497
11
3.9715553937007875
21
-3.1338213779527559
0
LINE
8
BLACK
6
CONTINUOUS
10
3.9715553937007875
20
-3.1338213779527559
11
3.9577230708661415
21
-3.130115
0
LINE
8
BLACK
6
CONTINUOUS
10
3.9577230708661415
20
-3.130115
11
3.944353937007874
21
-3.1249830708661417
0
LINE
8
BLACK
6
CONTINUOUS
10
3.944353937007874
20
-3.1249830708661417
11
3.9315944881889764
21
-3.1184818110236221
0
LINE
8
BLACK
6
CONTINUOUS
10
3.9315944881889764
20
-3.1184818110236221
11
3.9195844881889763
21
-3.1106824409448817
0
LINE
8
BLACK
6
CONTINUOUS
10
3.9195844881889763
20
-3.1106824409448817
11
3.9084555511811021
21
-3.1016703937007875
0
LINE
8
BLACK
6
CONTINUOUS
10
3.9084555511811021
20
-3.1016703937007875
11
3.8983296062992125
21
-3.0915444488188975
0
LINE
8
BLACK
6
CONTINUOUS
10
3.8983296062992125
20
-3.0915444488188975
11
3.8893175590551179
21
-3.0804155118110237
0
LINE
8
BLACK
6
CONTINUOUS
10
3.8893175590551179
20
-3.0804155118110237
11
3.8815181889763779
21
-3.0684055118110236
0
LINE
8
BLACK
6
CONTINUOUS
10
3.8815181889763779
20
-3.0684055118110236
11
3.8750169291338583
21
-3.055646062992126
0
LINE
8
BLACK
6
CONTINUOUS
10
3.8750169291338583
20
-3.055646062992126
11
3.869885
21
-3.0422769291338581
0
LINE
8
BLACK
6
CONTINUOUS
10
3.869885
20
-3.0422769291338581
11
3.8661786220472441
21
-3.0284446062992125
0
LINE
8
BLACK
6
CONTINUOUS
10
3.8661786220472441
20
-3.0284446062992125
11
3.8639384251968503
21
-3.0143006299212596
0
LINE
8
BLACK
6
CONTINUOUS
10
3.8639384251968503
20
-3.0143006299212596
11
3.8631889763779528
21
-3.
0
LINE
8
BLACK
6
CONTINUOUS
10
3.8631889763779528
20
-3.
11
3.8639384251968503
21
-2.98569937007874
0
LINE
8
BLACK
6
CONTINUOUS
10
3.8639384251968503
20
-2.98569937007874
11
3.8661786220472441
21
-2.9715553937007875
0
LINE
8
BLACK
6
CONTINUOUS
10
3.8661786220472441
20
-2.9715553937007875
11
3.869885
21
-2.9577230708661415
0
LINE
8
BLACK
6
CONTINUOUS
10
3.869885
20
-2.9577230708661415
11
3.8750169291338583
21
-2.944353937007874
0
LINE
8
BLACK
6
CONTINUOUS
10
3.8750169291338583
20
-2.944353937007874
11
3.8815181889763779
21
-2.9315944881889764
0
LINE
8
BLACK
6
CONTINUOUS
10
3.8815181889763779
20
-2.9315944881889764
11
3.8893175590551179
21
-2.9195844881889763
0
LINE
8
BLACK
6
CONTINUOUS
10
3.8893175590551179
20
-2.9195844881889763
11
3.8983296062992125
21
-2.9084555511811021
0
LINE
8
BLACK
6
CONTINUOUS
10
3.8983296062992125
20
-2.9084555511811021
11
3.9084555511811021
21
-2.8983296062992125
0
LINE
8
BLACK
6
CONTINUOUS
10
3.9084555511811021
20
-2.8983296062992125
11
3.9195844881889763
21
-2.8893175590551179
0
LINE
8
BLACK
6
CONTINUOUS
10
3.9195844881889763
20
-2.8893175590551179
11
3.9315944881889764
21
-2.8815181889763779
0
LINE
8
BLACK
6
CONTINUOUS
10
3.9315944881889764
20
-2.8815181889763779
11
3.944353937007874
21
-2.8750169291338583
0
LINE
8
BLACK
6
CONTINUOUS
10
3.944353937007874
20
-2.8750169291338583
11
3.9577230708661415
21
-2.869885
0
LINE
8
BLACK
6
CONTINUOUS
10
3.9577230708661415
20
-2.869885
11
3.9715553937007875
21
-2.8661786220472441
0
LINE
8
BLACK
6
CONTINUOUS
10
3.9715553937007875
20
-2.8661786220472441
11
3.98569937007874
21
-2.8639384251968503
0
LINE
8
BLACK
6
CONTINUOUS
10
3.98569937007874
20
-2.8639384251968503
11
4.
21
-2.8631889763779528
0
LINE
8
BLACK
6
CONTINUOUS
10
4.
20
-2.8631889763779528
11
4.0143006299212596
21
-2.8639384251968503
0
LINE
8
BLACK
6
CONTINUOUS
10
3.8657510629921257
20
-3.014600433070866
11
3.8681166141732284
21
-3.0290297244094488
0
LINE
8
BLACK
6
CONTINUOUS
10
3.8681166141732284
20
-3.0290297244094488
11
3.8720283858267717
21
-3.0431186614173229
0
LINE
8
BLACK
6
CONTINUOUS
10
3.8720283858267717
20
-3.0431186614173229
11
3.8774405118110233
21
-3.0567020472440944
0
LINE
8
BLACK
6
CONTINUOUS
10
3.8774405118110233
20
-3.0567020472440944
11
3.884289527559055
21
-3.0696206692913384
0
LINE
8
BLACK
6
CONTINUOUS
10
3.884289527559055
20
-3.0696206692913384
11
3.8924951574803148
21
-3.0817230708661416
0
LINE
8
BLACK
6
CONTINUOUS
10
3.8924951574803148
20
-3.0817230708661416
11
3.901961181102362
21
-3.0928673228346457
0
LINE
8
BLACK
6
CONTINUOUS
10
3.901961181102362
20
-3.0928673228346457
11
3.9125766141732283
21
-3.1029227952755907
0
LINE
8
BLACK
6
CONTINUOUS
10
3.9125766141732283
20
-3.1029227952755907
11
3.9242170078740157
21
-3.1117715748031496
0
LINE
8
BLACK
6
CONTINUOUS
10
3.9242170078740157
20
-3.1117715748031496
11
3.9367458661417323
21
-3.1193099606299213
0
LINE
8
BLACK
6
CONTINUOUS
10
3.9367458661417323
20
-3.1193099606299213
11
3.9500163385826772
21
-3.1254495275590553
0
LINE
8
BLACK
6
CONTINUOUS
10
3.9500163385826772
20
-3.1254495275590553
11
3.9638728346456693
21
-3.1301183070866143
0
LINE
8
BLACK
6
CONTINUOUS
10
3.9638728346456693
20
-3.1301183070866143
11
3.9781528740157479
21
-3.1332616141732283
0
LINE
8
BLACK
6
CONTINUOUS
10
3.9781528740157479
20
-3.1332616141732283
11
3.99268905511811
21
-3.1348425196850394
0
LINE
8
BLACK
6
CONTINUOUS
10
3.99268905511811
20
-3.1348425196850394
11
4.0073109448818895
21
-3.1348425196850394
0
LINE
8
BLACK
6
CONTINUOUS
10
4.0073109448818895
20
-3.1348425196850394
11
4.0218471259842516
21
-3.1332616141732283
0
LINE
8
BLACK
6
CONTINUOUS
10
4.0218471259842516
20
-3.1332616141732283
11
4.0361271653543307
21
-3.1301183070866143
0
LINE
8
BLACK
6
CONTINUOUS
10
4.0361271653543307
20
-3.1301183070866143
11
4.0499836614173228
21
-3.1254495275590553
0
LINE
8
BLACK
6
CONTINUOUS
10
4.0499836614173228
20
-3.1254495275590553
11
4.0632541338582673
21
-3.1193099606299213
0
LINE
8
BLACK
6
CONTINUOUS
10
4.0632541338582673
20
-3.1193099606299213
11
4.0757829921259843
21
-3.1117715748031496
0
LINE
8
BLACK
6
CONTINUOUS
10
4.0757829921259843
20
-3.1117715748031496
11
4.0874233858267717
21
-3.1029227952755907
0
LINE
8
BLACK
6
CONTINUOUS
10
4.0874233858267717
20
-3.1029227952755907
11
4.0980388188976375
21
-3.0928673228346457
0
LINE
8
BLACK
6
CONTINUOUS
10
4.0980388188976375
20
-3.0928673228346457
11
4.1075048425196847
21
-3.0817230708661416
0
LINE
8
BLACK
6
CONTINUOUS
10
4.1075048425196847
20
-3.0817230708661416
11
4.115710472440945
21
-3.0696206692913384
0
LINE
8
BLACK
6
CONTINUOUS
10
4.115710472440945
20
-3.0696206692913384
11
4.1225594881889762
21
-3.0567020472440944
0
LINE
8
BLACK
6
CONTINUOUS
10
4.1225594881889762
20
-3.0567020472440944
11
4.1279716141732283
21
-3.0431186614173229
0
LINE
8
BLACK
6
CONTINUOUS
10
4.1279716141732283
20
-3.0431186614173229
11
4.1318833858267716
21
-3.0290297244094488
0
LINE
8
BLACK
6
CONTINUOUS
10
4.1318833858267716
20
-3.0290297244094488
11
4.1342489370078743
21
-3.014600433070866
0
LINE
8
BLACK
6
CONTINUOUS
10
4.1342489370078743
20
-3.014600433070866
11
4.1350405511811026
21
-3.
0
LINE
8
BLACK
6
CONTINUOUS
10
4.1350405511811026
20
-3.
11
4.1342489370078743
21
-2.985399566929134
0
LINE
8
BLACK
6
CONTINUOUS
10
4.1342489370078743
20
-2.985399566929134
11
4.1318833858267716
21
-2.9709702755905512
0
LINE
8
BLACK
6
CONTINUOUS
10
4.1318833858267716
20
-2.9709702755905512
11
4.1279716141732283
21
-2.9568813385826771
0
LINE
8
BLACK
6
CONTINUOUS
10
4.1279716141732283
20
-2.9568813385826771
11
4.1225594881889762
21
-2.9432979527559056
0
LINE
8
BLACK
6
CONTINUOUS
10
4.1225594881889762
20
-2.9432979527559056
11
4.115710472440945
21
-2.9303793307086612
0
LINE
8
BLACK
6
CONTINUOUS
10
4.115710472440945
20
-2.9303793307086612
11
4.1075048425196847
21
-2.9182769291338584
0
LINE
8
BLACK
6
CONTINUOUS
10
4.1075048425196847
20
-2.9182769291338584
11
4.0980388188976375
21
-2.9071326771653543
0
LINE
8
BLACK
6
CONTINUOUS
10
4.0980388188976375
20
-2.9071326771653543
11
4.0874233858267717
21
-2.8970772047244093
0
LINE
8
BLACK
6
CONTINUOUS
10
4.0874233858267717
20
-2.8970772047244093
11
4.0757829921259843
21
-2.8882284251968504
0
LINE
8
BLACK
6
CONTINUOUS
10
4.0757829921259843
20
-2.8882284251968504
11
4.0632541338582673
21
-2.8806900393700787
0
LINE
8
BLACK
6
CONTINUOUS
10
4.0632541338582673
20
-2.8806900393700787
11
4.0499836614173228
21
-2.8745504724409447
0
LINE
8
BLACK
6
CONTINUOUS
10
4.0499836614173228
20
-2.8745504724409447
11
4.0361271653543307
21
-2.8698816929133857
0
LINE
8
BLACK
6
CONTINUOUS
10
4.0361271653543307
20
-2.8698816929133857
11
4.0218471259842516
21
-2.8667383858267717
0
LINE
8
BLACK
6
CONTINUOUS
10
4.0218471259842516
20
-2.8667383858267717
11
4.0073109448818895
21
-2.8651574803149606
0
LINE
8
BLACK
6
CONTINUOUS
10
4.0073109448818895
20
-2.8651574803149606
11
3.99268905511811
21
-2.8651574803149606
0
LINE
8
BLACK
6
CONTINUOUS
10
3.99268905511811
20
-2.8651574803149606
11
3.9781528740157479
21
-2.8667383858267717
0
LINE
8
BLACK
6
CONTINUOUS
10
3.9781528740157479
20
-2.8667383858267717
11
3.9638728346456693
21
-2.8698816929133857
0
LINE
8
BLACK
6
CONTINUOUS
10
3.9638728346456693
20
-2.8698816929133857
11
3.9500163385826772
21
-2.8745504724409447
0
LINE
8
BLACK
6
CONTINUOUS
10
3.9500163385826772
20
-2.8745504724409447
11
3.9367458661417323
21
-2.8806900393700787
0
LINE
8
BLACK
6
CONTINUOUS
10
3.9367458661417323
20
-2.8806900393700787
11
3.9242170078740157
21
-2.8882284251968504
0
LINE
8
BLACK
6
CONTINUOUS
10
3.9242170078740157
20
-2.8882284251968504
11
3.9125766141732283
21
-2.8970772047244093
0
LINE
8
BLACK
6
CONTINUOUS
10
3.9125766141732283
20
-2.8970772047244093
11
3.901961181102362
21
-2.9071326771653543
0
LINE
8
BLACK
6
CONTINUOUS
10
3.901961181102362
20
-2.9071326771653543
11
3.8924951574803148
21
-2.9182769291338584
0
LINE
8
BLACK
6
CONTINUOUS
10
3.8924951574803148
20
-2.9182769291338584
11
3.884289527559055
21
-2.9303793307086612
0
LINE
8
BLACK
6
CONTINUOUS
10
3.884289527559055
20
-2.9303793307086612
11
3.8774405118110233
21
-2.9432979527559056
0
LINE
8
BLACK
6
CONTINUOUS
10
3.8774405118110233
20
-2.9432979527559056
11
3.8720283858267717
21
-2.9568813385826771
0
LINE
8
BLACK
6
CONTINUOUS
10
3.8720283858267717
20
-2.9568813385826771
11
3.8681166141732284
21
-2.9709702755905512
0
LINE
8
BLACK
6
CONTINUOUS
10
3.8681166141732284
20
-2.9709702755905512
11
3.8657510629921257
21
-2.985399566929134
0
LINE
8
BLACK
6
CONTINUOUS
10
3.8657510629921257
20
-2.985399566929134
11
3.8649594488188974
21
-3.
0
LINE
8
BLACK
6
CONTINUOUS
10
3.8649594488188974
20
-3.
11
3.8657510629921257
21
-3.014600433070866
0
LINE
8
BLACK
6
CONTINUOUS
10
5.7143006299212598
20
-2.8639384251968503
11
5.7284446062992123
21
-2.8661786220472441
0
LINE
8
BLACK
6
CONTINUOUS
10
5.7284446062992123
20
-2.8661786220472441
11
5.7422769291338582
21
-2.869885
0
LINE
8
BLACK
6
CONTINUOUS
10
5.7422769291338582
20
-2.869885
11
5.7556460629921258
21
-2.8750169291338583
0
LINE
8
BLACK
6
CONTINUOUS
10
5.7556460629921258
20
-2.8750169291338583
11
5.7684055118110233
21
-2.8815181889763779
0
LINE
8
BLACK
6
CONTINUOUS
10
5.7684055118110233
20
-2.8815181889763779
11
5.7804155118110234
21
-2.8893175590551179
0
LINE
8
BLACK
6
CONTINUOUS
10
5.7804155118110234
20
-2.8893175590551179
11
5.7915444488188976
21
-2.8983296062992125
0
LINE
8
BLACK
6
CONTINUOUS
10
5.7915444488188976
20
-2.8983296062992125
11
5.8016703937007872
21
-2.9084555511811021
0
LINE
8
BLACK
6
CONTINUOUS
10
5.8016703937007872
20
-2.9084555511811021
11
5.8106824409448814
21
-2.9195844881889763
0
LINE
8
BLACK
6
CONTINUOUS
10
5.8106824409448814
20
-2.9195844881889763
11
5.8184818110236218
21
-2.9315944881889764
0
LINE
8
BLACK
6
CONTINUOUS
10
5.8184818110236218
20
-2.9315944881889764
11
5.8249830708661419
21
-2.944353937007874
0
LINE
8
BLACK
6
CONTINUOUS
10
5.8249830708661419
20
-2.944353937007874
11
5.8301150000000002
21
-2.9577230708661415
0
LINE
8
BLACK
6
CONTINUOUS
10
5.8301150000000002
20
-2.9577230708661415
11
5.8338213779527557
21
-2.9715553937007875
0
LINE
8
BLACK
6
CONTINUOUS
10
5.8338213779527557
20
-2.9715553937007875
11
5.8360615748031499
21
-2.98569937007874
0
LINE
8
BLACK
6
CONTINUOUS
10
5.8360615748031499
20
-2.98569937007874
11
5.8368110236220474
21
-3.
0
LINE
8
BLACK
6
CONTINUOUS
10
5.8368110236220474
20
-3.
11
5.8360615748031499
21
-3.0143006299212596
0
LINE
8
BLACK
6
CONTINUOUS
10
5.8360615748031499
20
-3.0143006299212596
11
5.8338213779527557
21
-3.0284446062992125
0
LINE
8
BLACK
6
CONTINUOUS
10
5.8338213779527557
20
-3.0284446062992125
11
5.8301150000000002
21
-3.0422769291338581
0
LINE
8
BLACK
6
CONTINUOUS
10
5.8301150000000002
20
-3.0422769291338581
11
5.8249830708661419
21
-3.055646062992126
0
LINE
8
BLACK
6
CONTINUOUS
10
5.8249830708661419
20
-3.055646062992126
11
5.8184818110236218
21
-3.0684055118110236
0
LINE
8
BLACK
6
CONTINUOUS
10
5.8184818110236218
20
-3.0684055118110236
11
5.8106824409448814
21
-3.0804155118110237
0
LINE
8
BLACK
6
CONTINUOUS
10
5.8106824409448814
20
-3.0804155118110237
11
5.8016703937007872
21
-3.0915444488188975
0
LINE
8
BLACK
6
CONTINUOUS
10
5.8016703937007872
20
-3.0915444488188975
11
5.7915444488188976
21
-3.1016703937007875
0
LINE
8
BLACK
6
CONTINUOUS
10
5.7915444488188976
20
-3.1016703937007875
11
5.7804155118110234
21
-3.1106824409448817
0
LINE
8
BLACK
6
CONTINUOUS
10
5.7804155118110234
20
-3.1106824409448817
11
5.7684055118110233
21
-3.1184818110236221
0
LINE
8
BLACK
6
CONTINUOUS
10
5.7684055118110233
20
-3.1184818110236221
11
5.7556460629921258
21
-3.1249830708661417
0
LINE
8
BLACK
6
CONTINUOUS
10
5.7556460629921258
20
-3.1249830708661417
11
5.7422769291338582
21
-3.130115
0
LINE
8
BLACK
6
CONTINUOUS
10
5.7422769291338582
20
-3.130115
11
5.7284446062992123
21
-3.1338213779527559
0
LINE
8
BLACK
6
CONTINUOUS
10
5.7284446062992123
20
-3.1338213779527559
11
5.7143006299212598
21
-3.1360615748031497
0
LINE
8
BLACK
6
CONTINUOUS
10
5.7143006299212598
20
-3.1360615748031497
11
5.7000000000000002
21
-3.1368110236220472
0
LINE
8
BLACK
6
CONTINUOUS
10
5.7000000000000002
20
-3.1368110236220472
11
5.6856993700787397
21
-3.1360615748031497
0
LINE
8
BLACK
6
CONTINUOUS
10
5.6856993700787397
20
-3.1360615748031497
11
5.6715553937007872
21
-3.1338213779527559
0
LINE
8
BLACK
6
CONTINUOUS
10
5.6715553937007872
20
-3.1338213779527559
11
5.6577230708661412
21
-3.130115
0
LINE
8
BLACK
6
CONTINUOUS
10
5.6577230708661412
20
-3.130115
11
5.6443539370078737
21
-3.1249830708661417
0
LINE
8
BLACK
6
CONTINUOUS
10
5.6443539370078737
20
-3.1249830708661417
11
5.6315944881889761
21
-3.1184818110236221
0
LINE
8
BLACK
6
CONTINUOUS
10
5.6315944881889761
20
-3.1184818110236221
11
5.619584488188976
21
-3.1106824409448817
0
LINE
8
BLACK
6
CONTINUOUS
10
5.619584488188976
20
-3.1106824409448817
11
5.6084555511811018
21
-3.1016703937007875
0
LINE
8
BLACK
6
CONTINUOUS
10
5.6084555511811018
20
-3.1016703937007875
11
5.5983296062992123
21
-3.0915444488188975
0
LINE
8
BLACK
6
CONTINUOUS
10
5.5983296062992123
20
-3.0915444488188975
11
5.5893175590551181
21
-3.0804155118110237
0
LINE
8
BLACK
6
CONTINUOUS
10
5.5893175590551181
20
-3.0804155118110237
11
5.5815181889763776
21
-3.0684055118110236
0
LINE
8
BLACK
6
CONTINUOUS
10
5.5815181889763776
20
-3.0684055118110236
11
5.5750169291338585
21
-3.055646062992126
0
LINE
8
BLACK
6
CONTINUOUS
10
5.5750169291338585
20
-3.055646062992126
11
5.5698850000000002
21
-3.0422769291338581
0
LINE
8
BLACK
6
CONTINUOUS
10
5.5698850000000002
20
-3.0422769291338581
11
5.5661786220472438
21
-3.0284446062992125
0
LINE
8
BLACK
6
CONTINUOUS
10
5.5661786220472438
20
-3.0284446062992125
11
5.5639384251968504
21
-3.0143006299212596
0
LINE
8
BLACK
6
CONTINUOUS
10
5.5639384251968504
20
-3.0143006299212596
11
5.563188976377953
21
-3.
0
LINE
8
BLACK
6
CONTINUOUS
10
5.563188976377953
20
-3.
11
5.5639384251968504
21
-2.98569937007874
0
LINE
8
BLACK
6
CONTINUOUS
10
5.5639384251968504
20
-2.98569937007874
11
5.5661786220472438
21
-2.9715553937007875
0
LINE
8
BLACK
6
CONTINUOUS
10
5.5661786220472438
20
-2.9715553937007875
11
5.5698850000000002
21
-2.9577230708661415
0
LINE
8
BLACK
6
CONTINUOUS
10
5.5698850000000002
20
-2.9577230708661415
11
5.5750169291338585
21
-2.944353937007874
0
LINE
8
BLACK
6
CONTINUOUS
10
5.5750169291338585
20
-2.944353937007874
11
5.5815181889763776
21
-2.9315944881889764
0
LINE
8
BLACK
6
CONTINUOUS
10
5.5815181889763776
20
-2.9315944881889764
11
5.5893175590551181
21
-2.9195844881889763
0
LINE
8
BLACK
6
CONTINUOUS
10
5.5893175590551181
20
-2.9195844881889763
11
5.5983296062992123
21
-2.9084555511811021
0
LINE
8
BLACK
6
CONTINUOUS
10
5.5983296062992123
20
-2.9084555511811021
11
5.6084555511811018
21
-2.8983296062992125
0
LINE
8
BLACK
6
CONTINUOUS
10
5.6084555511811018
20
-2.8983296062992125
11
5.619584488188976
21
-2.8893175590551179
0
LINE
8
BLACK
6
CONTINUOUS
10
5.619584488188976
20
-2.8893175590551179
11
5.6315944881889761
21
-2.8815181889763779
0
LINE
8
BLACK
6
CONTINUOUS
10
5.6315944881889761
20
-2.8815181889763779
11
5.6443539370078737
21
-2.8750169291338583
0
LINE
8
BLACK
6
CONTINUOUS
10
5.6443539370078737
20
-2.8750169291338583
11
5.6577230708661412
21
-2.869885
0
LINE
8
BLACK
6
CONTINUOUS
10
5.6577230708661412
20
-2.869885
11
5.6715553937007872
21
-2.8661786220472441
0
LINE
8
BLACK
6
CONTINUOUS
10
5.6715553937007872
20
-2.8661786220472441
11
5.6856993700787397
21
-2.8639384251968503
0
LINE
8
BLACK
6
CONTINUOUS
10
5.6856993700787397
20
-2.8639384251968503
11
5.7000000000000002
21
-2.8631889763779528
0
LINE
8
BLACK
6
CONTINUOUS
10
5.7000000000000002
20
-2.8631889763779528
11
5.7143006299212598
21
-2.8639384251968503
0
LINE
8
BLACK
6
CONTINUOUS
10
5.5657510629921259
20
-3.014600433070866
11
5.5681166141732286
21
-3.0290297244094488
0
LINE
8
BLACK
6
CONTINUOUS
10
5.5681166141732286
20
-3.0290297244094488
11
5.5720283858267718
21
-3.0431186614173229
0
LINE
8
BLACK
6
CONTINUOUS
10
5.5720283858267718
20
-3.0431186614173229
11
5.5774405118110231
21
-3.0567020472440944
0
LINE
8
BLACK
6
CONTINUOUS
10
5.5774405118110231
20
-3.0567020472440944
11
5.5842895275590552
21
-3.0696206692913384
0
LINE
8
BLACK
6
CONTINUOUS
10
5.5842895275590552
20
-3.0696206692913384
11
5.5924951574803146
21
-3.0817230708661416
0
LINE
8
BLACK
6
CONTINUOUS
10
5.5924951574803146
20
-3.0817230708661416
11
5.6019611811023617
21
-3.0928673228346457
0
LINE
8
BLACK
6
CONTINUOUS
10
5.6019611811023617
20
-3.0928673228346457
11
5.6125766141732285
21
-3.1029227952755907
0
LINE
8
BLACK
6
CONTINUOUS
10
5.6125766141732285
20
-3.1029227952755907
11
5.6242170078740159
21
-3.1117715748031496
0
LINE
8
BLACK
6
CONTINUOUS
10
5.6242170078740159
20
-3.1117715748031496
11
5.636745866141732
21
-3.1193099606299213
0
LINE
8
BLACK
6
CONTINUOUS
10
5.636745866141732
20
-3.1193099606299213
11
5.6500163385826774
21
-3.1254495275590553
0
LINE
8
BLACK
6
CONTINUOUS
10
5.6500163385826774
20
-3.1254495275590553
11
5.6638728346456695
21
-3.1301183070866143
0
LINE
8
BLACK
6
CONTINUOUS
10
5.6638728346456695
20
-3.1301183070866143
11
5.6781528740157476
21
-3.1332616141732283
0
LINE
8
BLACK
6
CONTINUOUS
10
5.6781528740157476
20
-3.1332616141732283
11
5.6926890551181097
21
-3.1348425196850394
0
LINE
8
BLACK
6
CONTINUOUS
10
5.6926890551181097
20
-3.1348425196850394
11
5.7073109448818897
21
-3.1348425196850394
0
LINE
8
BLACK
6
CONTINUOUS
10
5.7073109448818897
20
-3.1348425196850394
11
5.7218471259842518
21
-3.1332616141732283
0
LINE
8
BLACK
6
CONTINUOUS
10
5.7218471259842518
20
-3.1332616141732283
11
5.7361271653543309
21
-3.1301183070866143
0
LINE
8
BLACK
6
CONTINUOUS
10
5.7361271653543309
20
-3.1301183070866143
11
5.749983661417323
21
-3.1254495275590553
0
LINE
8
BLACK
6
CONTINUOUS
10
5.749983661417323
20
-3.1254495275590553
11
5.7632541338582675
21
-3.1193099606299213
0
LINE
8
BLACK
6
CONTINUOUS
10
5.7632541338582675
20
-3.1193099606299213
11
5.7757829921259844
21
-3.1117715748031496
0
LINE
8
BLACK
6
CONTINUOUS
10
5.7757829921259844
20
-3.1117715748031496
11
5.7874233858267718
21
-3.1029227952755907
0
LINE
8
BLACK
6
CONTINUOUS
10
5.7874233858267718
20
-3.1029227952755907
11
5.7980388188976377
21
-3.0928673228346457
0
LINE
8
BLACK
6
CONTINUOUS
10
5.7980388188976377
20
-3.0928673228346457
11
5.8075048425196849
21
-3.0817230708661416
0
LINE
8
BLACK
6
CONTINUOUS
10
5.8075048425196849
20
-3.0817230708661416
11
5.8157104724409452
21
-3.0696206692913384
0
LINE
8
BLACK
6
CONTINUOUS
10
5.8157104724409452
20
-3.0696206692913384
11
5.8225594881889764
21
-3.0567020472440944
0
LINE
8
BLACK
6
CONTINUOUS
10
5.8225594881889764
20
-3.0567020472440944
11
5.8279716141732285
21
-3.0431186614173229
0
LINE
8
BLACK
6
CONTINUOUS
10
5.8279716141732285
20
-3.0431186614173229
11
5.8318833858267718
21
-3.0290297244094488
0
LINE
8
BLACK
6
CONTINUOUS
10
5.8318833858267718
20
-3.0290297244094488
11
5.8342489370078736
21
-3.014600433070866
0
LINE
8
BLACK
6
CONTINUOUS
10
5.8342489370078736
20
-3.014600433070866
11
5.8350405511811019
21
-3.
0
LINE
8
BLACK
6
CONTINUOUS
10
5.8350405511811019
20
-3.
11
5.8342489370078736
21
-2.985399566929134
0
LINE
8
BLACK
6
CONTINUOUS
10
5.8342489370078736
20
-2.985399566929134
11
5.8318833858267718
21
-2.9709702755905512
0
LINE
8
BLACK
6
CONTINUOUS
10
5.8318833858267718
20
-2.9709702755905512
11
5.8279716141732285
21
-2.9568813385826771
0
LINE
8
BLACK
6
CONTINUOUS
10
5.8279716141732285
20
-2.9568813385826771
11
5.8225594881889764
21
-2.9432979527559056
0
LINE
8
BLACK
6
CONTINUOUS
10
5.8225594881889764
20
-2.9432979527559056
11
5.8157104724409452
21
-2.9303793307086612
0
LINE
8
BLACK
6
CONTINUOUS
10
5.8157104724409452
20
-2.9303793307086612
11
5.8075048425196849
21
-2.9182769291338584
0
LINE
8
BLACK
6
CONTINUOUS
10
5.8075048425196849
20
-2.9182769291338584
11
5.7980388188976377
21
-2.9071326771653543
0
LINE
8
BLACK
6
CONTINUOUS
10
5.7980388188976377
20
-2.9071326771653543
11
5.7874233858267718
21
-2.8970772047244093
0
LINE
8
BLACK
6
CONTINUOUS
10
5.7874233858267718
20
-2.8970772047244093
11
5.7757829921259844
21
-2.8882284251968504
0
LINE
8
BLACK
6
CONTINUOUS
10
5.7757829921259844
20
-2.8882284251968504
11
5.7632541338582675
21
-2.8806900393700787
0
LINE
8
BLACK
6
CONTINUOUS
10
5.7632541338582675
20
-2.8806900393700787
11
5.749983661417323
21
-2.8745504724409447
0
LINE
8
BLACK
6
CONTINUOUS
10
5.749983661417323
20
-2.8745504724409447
11
5.7361271653543309
21
-2.8698816929133857
0
LINE
8
BLACK
6
CONTINUOUS
10
5.7361271653543309
20
-2.8698816929133857
11
5.7218471259842518
21
-2.8667383858267717
0
LINE
8
BLACK
6
CONTINUOUS
10
5.7218471259842518
20
-2.8667383858267717
11
5.7073109448818897
21
-2.8651574803149606
0
LINE
8
BLACK
6
CONTINUOUS
10
5.7073109448818897
20
-2.8651574803149606
11
5.6926890551181097
21
-2.8651574803149606
0
LINE
8
BLACK
6
CONTINUOUS
10
5.6926890551181097
20
-2.8651574803149606
11
5.6781528740157476
21
-2.8667383858267717
0
LINE
8
BLACK
6
CONTINUOUS
10
5.6781528740157476
20
-2.8667383858267717
11
5.6638728346456695
21
-2.8698816929133857
0
LINE
8
BLACK
6
CONTINUOUS
10
5.6638728346456695
20
-2.8698816929133857
11
5.6500163385826774
21
-2.8745504724409447
0
LINE
8
BLACK
6
CONTINUOUS
10
5.6500163385826774
20
-2.8745504724409447
11
5.636745866141732
21
-2.8806900393700787
0
LINE
8
BLACK
6
CONTINUOUS
10
5.636745866141732
20
-2.8806900393700787
11
5.6242170078740159
21
-2.8882284251968504
0
LINE
8
BLACK
6
CONTINUOUS
10
5.6242170078740159
20
-2.8882284251968504
11
5.6125766141732285
21
-2.8970772047244093
0
LINE
8
BLACK
6
CONTINUOUS
10
5.6125766141732285
20
-2.8970772047244093
11
5.6019611811023617
21
-2.9071326771653543
0
LINE
8
BLACK
6
CONTINUOUS
10
5.6019611811023617
20
-2.9071326771653543
11
5.5924951574803146
21
-2.9182769291338584
0
LINE
8
BLACK
6
CONTINUOUS
10
5.5924951574803146
20
-2.9182769291338584
11
5.5842895275590552
21
-2.9303793307086612
0
LINE
8
BLACK
6
CONTINUOUS
10
5.5842895275590552
20
-2.9303793307086612
11
5.5774405118110231
21
-2.9432979527559056
0
LINE
8
BLACK
6
CONTINUOUS
10
5.5774405118110231
20
-2.9432979527559056
11
5.5720283858267718
21
-2.9568813385826771
0
LINE
8
BLACK
6
CONTINUOUS
10
5.5720283858267718
20
-2.9568813385826771
11
5.5681166141732286
21
-2.9709702755905512
0
LINE
8
BLACK
6
CONTINUOUS
10
5.5681166141732286
20
-2.9709702755905512
11
5.5657510629921259
21
-2.985399566929134
0
LINE
8
BLACK
6
CONTINUOUS
10
5.5657510629921259
20
-2.985399566929134
11
5.5649594488188976
21
-3.
0
LINE
8
BLACK
6
CONTINUOUS
10
5.5649594488188976
20
-3.
11
5.5657510629921259
21
-3.014600433070866
  0
ENDSEC
  0
EOF
