  0
SECTION
  2
HEADER
  9
$ANGBASE
  50
0.0
  9
$ANGDIR
  70
1
  9
$MEASUREMENT
  70
0
  0
ENDSEC
  0
SECTION
  2
TABLES
  0
TABLE
  2
LTYPE
  70
4
  0
LTYPE
  5
40F
  2
CONTINUOUS
  70
0
  3
Solid line
  72
65
  73
0
  40
0.0
  0
LTYPE
  5
410
  2
DASHDOT
 70
0
  3
Dash Dot ____ _ ____ _
 72
65
 73
4
 40
2.0
 49
1.25
 49
-0.25
 49
0.25
 49
-0.25
  0
LTYPE
  5
411
  2
DASHED
 70
0
  3
Dashed __ __ __ __ __
 72
65
 73
2
 40
0.75
 49
0.5
 49
-0.25
  0
LTYPE
  5
43B
  2
DOTTED
 70
0
  3
Dotted .  .  .  .
 72
65
 73
2
 40
0.2
 49
0.0
 49
-0.2
  0
ENDTAB
  0
TABLE
  2
STYLE
  70
4
  0
STYLE
  2
KICAD
  70
0
  40
0
  41
1
  42
1
  50
0
  71
0
  3
isocp.shx
  0
STYLE
  2
KICADB
  70
0
  40
0
  41
1
  42
1
  50
0
  71
0
  3
isocp.shx
  0
STYLE
  2
KICADI
  70
0
  40
0
  41
1
  42
1
  50
15
  71
0
  3
isocp.shx
  0
STYLE
  2
KICADBI
  70
0
  40
0
  41
1
  42
1
  50
15
  71
0
  3
isocp.shx
  0
ENDTAB
  0
TABLE
  2
LAYER
  70
1
  0
LAYER
  2
BLACK
  70
0
  62
7
  6
CONTINUOUS
  0
ENDTAB
  0
ENDSEC
  0
SECTION
  2
ENTITIES
0
LINE
8
BLACK
6
CONTINUOUS
10
5.8905760629921256
20
-2.8071039763779528
11
5.8916404724409448
21
-2.8075448818897639
0
LINE
8
BLACK
6
CONTINUOUS
10
5.8916404724409448
20
-2.8075448818897639
11
5.8924551181102363
21
-2.8083595275590549
0
LINE
8
BLACK
6
CONTINUOUS
10
5.8924551181102363
20
-2.8083595275590549
11
5.8928960236220469
21
-2.8094239370078737
0
LINE
8
BLACK
6
CONTINUOUS
10
5.8928960236220469
20
-2.8094239370078737
11
5.8929527559055117
21
-4.8899999999999997
0
LINE
8
BLACK
6
CONTINUOUS
10
5.8929527559055117
20
-4.8899999999999997
11
5.8928960236220469
21
-4.8905760629921256
0
LINE
8
BLACK
6
CONTINUOUS
10
5.8928960236220469
20
-4.8905760629921256
11
5.8924551181102363
21
-4.8916404724409448
0
LINE
8
BLACK
6
CONTINUOUS
10
5.8924551181102363
20
-4.8916404724409448
11
5.8916404724409448
21
-4.8924551181102363
0
LINE
8
BLACK
6
CONTINUOUS
10
5.8916404724409448
20
-4.8924551181102363
11
5.8905760629921256
21
-4.8928960236220469
0
LINE
8
BLACK
6
CONTINUOUS
10
5.8905760629921256
20
-4.8928960236220469
11
3.8100000000000001
21
-4.8929527559055117
0
LINE
8
BLACK
6
CONTINUOUS
10
3.8100000000000001
20
-4.8929527559055117
11
3.8094239370078737
21
-4.8928960236220469
0
LINE
8
BLACK
6
CONTINUOUS
10
3.8094239370078737
20
-4.8928960236220469
11
3.8083595275590549
21
-4.8924551181102363
0
LINE
8
BLACK
6
CONTINUOUS
10
3.8083595275590549
20
-4.8924551181102363
11
3.8075448818897635
21
-4.8916404724409448
0
LINE
8
BLACK
6
CONTINUOUS
10
3.8075448818897635
20
-4.8916404724409448
11
3.8071039763779528
21
-4.8905760629921256
0
LINE
8
BLACK
6
CONTINUOUS
10
3.8071039763779528
20
-4.8905760629921256
11
3.8071039763779528
21
-4.8899999999999997
0
LINE
8
BLACK
6
CONTINUOUS
10
3.8071039763779528
20
-4.8899999999999997
11
3.807047244094488
21
-2.8100000000000001
0
LINE
8
BLACK
6
CONTINUOUS
10
3.807047244094488
20
-2.8100000000000001
11
3.8071039763779528
21
-2.8094239370078737
0
LINE
8
BLACK
6
CONTINUOUS
10
3.8071039763779528
20
-2.8094239370078737
11
3.8075448818897635
21
-2.8083595275590549
0
LINE
8
BLACK
6
CONTINUOUS
10
3.8075448818897635
20
-2.8083595275590549
11
3.8083595275590549
21
-2.8075448818897639
0
LINE
8
BLACK
6
CONTINUOUS
10
3.8083595275590549
20
-2.8075448818897639
11
3.8094239370078737
21
-2.8071039763779528
0
LINE
8
BLACK
6
CONTINUOUS
10
3.8094239370078737
20
-2.8071039763779528
11
5.8899999999999997
21
-2.807047244094488
0
LINE
8
BLACK
6
CONTINUOUS
10
5.8899999999999997
20
-2.807047244094488
11
5.8905760629921256
21
-2.8071039763779528
0
LINE
8
BLACK
6
CONTINUOUS
10
3.8128961023622048
20
-2.8129526377952754
11
3.8129526377952754
21
-4.8871038582677162
0
LINE
8
BLACK
6
CONTINUOUS
10
3.8129526377952754
20
-4.8871038582677162
11
5.8871038582677162
21
-4.8870473228346452
0
LINE
8
BLACK
6
CONTINUOUS
10
5.8871038582677162
20
-4.8870473228346452
11
5.8870473228346452
21
-2.8128961023622048
0
LINE
8
BLACK
6
CONTINUOUS
10
5.8870473228346452
20
-2.8128961023622048
11
3.8128961023622048
21
-2.8129526377952754
  0
ENDSEC
  0
EOF
