  0
SECTION
  2
HEADER
  9
$ANGBASE
  50
0.0
  9
$ANGDIR
  70
1
  9
$MEASUREMENT
  70
0
  0
ENDSEC
  0
SECTION
  2
TABLES
  0
TABLE
  2
LTYPE
  70
4
  0
LTYPE
  5
40F
  2
CONTINUOUS
  70
0
  3
Solid line
  72
65
  73
0
  40
0.0
  0
LTYPE
  5
410
  2
DASHDOT
 70
0
  3
Dash Dot ____ _ ____ _
 72
65
 73
4
 40
2.0
 49
1.25
 49
-0.25
 49
0.25
 49
-0.25
  0
LTYPE
  5
411
  2
DASHED
 70
0
  3
Dashed __ __ __ __ __
 72
65
 73
2
 40
0.75
 49
0.5
 49
-0.25
  0
LTYPE
  5
43B
  2
DOTTED
 70
0
  3
Dotted .  .  .  .
 72
65
 73
2
 40
0.2
 49
0.0
 49
-0.2
  0
ENDTAB
  0
TABLE
  2
STYLE
  70
4
  0
STYLE
  2
KICAD
  70
0
  40
0
  41
1
  42
1
  50
0
  71
0
  3
isocp.shx
  0
STYLE
  2
KICADB
  70
0
  40
0
  41
1
  42
1
  50
0
  71
0
  3
isocp.shx
  0
STYLE
  2
KICADI
  70
0
  40
0
  41
1
  42
1
  50
15
  71
0
  3
isocp.shx
  0
STYLE
  2
KICADBI
  70
0
  40
0
  41
1
  42
1
  50
15
  71
0
  3
isocp.shx
  0
ENDTAB
  0
TABLE
  2
LAYER
  70
1
  0
LAYER
  2
BLACK
  70
0
  62
7
  6
CONTINUOUS
  0
ENDTAB
  0
ENDSEC
  0
SECTION
  2
ENTITIES
0
LINE
8
BLACK
6
CONTINUOUS
10
5.5062999999999995
20
-4.2240000000000002
11
5.2937000000000003
21
-4.2240000000000002
0
LINE
8
BLACK
6
CONTINUOUS
10
5.2937000000000003
20
-4.2240000000000002
11
5.2937000000000003
21
-4.1097999999999999
0
LINE
8
BLACK
6
CONTINUOUS
10
5.2937000000000003
20
-4.1097999999999999
11
5.5062999999999995
21
-4.1097999999999999
0
LINE
8
BLACK
6
CONTINUOUS
10
5.5062999999999995
20
-4.1097999999999999
11
5.5062999999999995
21
-4.2240000000000002
0
LINE
8
BLACK
6
CONTINUOUS
10
4.6992125984251967
20
-4.1712401574803151
11
4.6007874015748031
21
-4.1712401574803151
0
LINE
8
BLACK
6
CONTINUOUS
10
4.6007874015748031
20
-4.1712401574803151
11
4.6007874015748031
21
-4.1318700787401577
0
LINE
8
BLACK
6
CONTINUOUS
10
4.6007874015748031
20
-4.1318700787401577
11
4.6992125984251967
21
-4.1318700787401577
0
LINE
8
BLACK
6
CONTINUOUS
10
4.6992125984251967
20
-4.1318700787401577
11
4.6992125984251967
21
-4.1712401574803151
0
LINE
8
BLACK
6
CONTINUOUS
10
4.8392125984251964
20
-4.1712401574803151
11
4.7407874015748028
21
-4.1712401574803151
0
LINE
8
BLACK
6
CONTINUOUS
10
4.7407874015748028
20
-4.1712401574803151
11
4.7407874015748028
21
-4.1318700787401577
0
LINE
8
BLACK
6
CONTINUOUS
10
4.7407874015748028
20
-4.1318700787401577
11
4.8392125984251964
21
-4.1318700787401577
0
LINE
8
BLACK
6
CONTINUOUS
10
4.8392125984251964
20
-4.1318700787401577
11
4.8392125984251964
21
-4.1712401574803151
0
LINE
8
BLACK
6
CONTINUOUS
10
4.9792125984251969
20
-4.1712401574803151
11
4.8807874015748034
21
-4.1712401574803151
0
LINE
8
BLACK
6
CONTINUOUS
10
4.8807874015748034
20
-4.1712401574803151
11
4.8807874015748034
21
-4.1318700787401577
0
LINE
8
BLACK
6
CONTINUOUS
10
4.8807874015748034
20
-4.1318700787401577
11
4.9792125984251969
21
-4.1318700787401577
0
LINE
8
BLACK
6
CONTINUOUS
10
4.9792125984251969
20
-4.1318700787401577
11
4.9792125984251969
21
-4.1712401574803151
0
LINE
8
BLACK
6
CONTINUOUS
10
5.1192125984251966
20
-4.1712401574803151
11
5.0207874015748031
21
-4.1712401574803151
0
LINE
8
BLACK
6
CONTINUOUS
10
5.0207874015748031
20
-4.1712401574803151
11
5.0207874015748031
21
-4.1318700787401577
0
LINE
8
BLACK
6
CONTINUOUS
10
5.0207874015748031
20
-4.1318700787401577
11
5.1192125984251966
21
-4.1318700787401577
0
LINE
8
BLACK
6
CONTINUOUS
10
5.1192125984251966
20
-4.1318700787401577
11
5.1192125984251966
21
-4.1712401574803151
0
LINE
8
BLACK
6
CONTINUOUS
10
4.6992125984251967
20
-4.0531299212598428
11
4.6007874015748031
21
-4.0531299212598428
0
LINE
8
BLACK
6
CONTINUOUS
10
4.6007874015748031
20
-4.0531299212598428
11
4.6007874015748031
21
-4.0137598425196845
0
LINE
8
BLACK
6
CONTINUOUS
10
4.6007874015748031
20
-4.0137598425196845
11
4.6992125984251967
21
-4.0137598425196845
0
LINE
8
BLACK
6
CONTINUOUS
10
4.6992125984251967
20
-4.0137598425196845
11
4.6992125984251967
21
-4.0531299212598428
0
LINE
8
BLACK
6
CONTINUOUS
10
4.8392125984251964
20
-4.0531299212598428
11
4.7407874015748028
21
-4.0531299212598428
0
LINE
8
BLACK
6
CONTINUOUS
10
4.7407874015748028
20
-4.0531299212598428
11
4.7407874015748028
21
-4.0137598425196845
0
LINE
8
BLACK
6
CONTINUOUS
10
4.7407874015748028
20
-4.0137598425196845
11
4.8392125984251964
21
-4.0137598425196845
0
LINE
8
BLACK
6
CONTINUOUS
10
4.8392125984251964
20
-4.0137598425196845
11
4.8392125984251964
21
-4.0531299212598428
0
LINE
8
BLACK
6
CONTINUOUS
10
4.9792125984251969
20
-4.0531299212598428
11
4.8807874015748034
21
-4.0531299212598428
0
LINE
8
BLACK
6
CONTINUOUS
10
4.8807874015748034
20
-4.0531299212598428
11
4.8807874015748034
21
-4.0137598425196845
0
LINE
8
BLACK
6
CONTINUOUS
10
4.8807874015748034
20
-4.0137598425196845
11
4.9792125984251969
21
-4.0137598425196845
0
LINE
8
BLACK
6
CONTINUOUS
10
4.9792125984251969
20
-4.0137598425196845
11
4.9792125984251969
21
-4.0531299212598428
0
LINE
8
BLACK
6
CONTINUOUS
10
5.1192125984251966
20
-4.0531299212598428
11
5.0207874015748031
21
-4.0531299212598428
0
LINE
8
BLACK
6
CONTINUOUS
10
5.0207874015748031
20
-4.0531299212598428
11
5.0207874015748031
21
-4.0137598425196845
0
LINE
8
BLACK
6
CONTINUOUS
10
5.0207874015748031
20
-4.0137598425196845
11
5.1192125984251966
21
-4.0137598425196845
0
LINE
8
BLACK
6
CONTINUOUS
10
5.1192125984251966
20
-4.0137598425196845
11
5.1192125984251966
21
-4.0531299212598428
0
LINE
8
BLACK
6
CONTINUOUS
10
4.8394488188976377
20
-3.8729921259842519
11
4.7370866141732284
21
-3.8729921259842519
0
LINE
8
BLACK
6
CONTINUOUS
10
4.7370866141732284
20
-3.8729921259842519
11
4.7370866141732284
21
-3.7470078740157478
0
LINE
8
BLACK
6
CONTINUOUS
10
4.7370866141732284
20
-3.7470078740157478
11
4.8394488188976377
21
-3.7470078740157478
0
LINE
8
BLACK
6
CONTINUOUS
10
4.8394488188976377
20
-3.7470078740157478
11
4.8394488188976377
21
-3.8729921259842519
0
LINE
8
BLACK
6
CONTINUOUS
10
5.1229133858267719
20
-3.8729921259842519
11
5.0205511811023618
21
-3.8729921259842519
0
LINE
8
BLACK
6
CONTINUOUS
10
5.0205511811023618
20
-3.8729921259842519
11
5.0205511811023618
21
-3.7470078740157478
0
LINE
8
BLACK
6
CONTINUOUS
10
5.0205511811023618
20
-3.7470078740157478
11
5.1229133858267719
21
-3.7470078740157478
0
LINE
8
BLACK
6
CONTINUOUS
10
5.1229133858267719
20
-3.7470078740157478
11
5.1229133858267719
21
-3.8729921259842519
0
LINE
8
BLACK
6
CONTINUOUS
10
5.5062999999999995
20
-3.8302
11
5.2937000000000003
21
-3.8302
0
LINE
8
BLACK
6
CONTINUOUS
10
5.2937000000000003
20
-3.8302
11
5.2937000000000003
21
-3.7159999999999997
0
LINE
8
BLACK
6
CONTINUOUS
10
5.2937000000000003
20
-3.7159999999999997
11
5.5062999999999995
21
-3.7159999999999997
0
LINE
8
BLACK
6
CONTINUOUS
10
5.5062999999999995
20
-3.7159999999999997
11
5.5062999999999995
21
-3.8302
0
LINE
8
BLACK
6
CONTINUOUS
10
4.7092125984251965
20
-3.6187401574803149
11
4.6107874015748029
21
-3.6187401574803149
0
LINE
8
BLACK
6
CONTINUOUS
10
4.6107874015748029
20
-3.6187401574803149
11
4.6107874015748029
21
-3.5793700787401574
0
LINE
8
BLACK
6
CONTINUOUS
10
4.6107874015748029
20
-3.5793700787401574
11
4.7092125984251965
21
-3.5793700787401574
0
LINE
8
BLACK
6
CONTINUOUS
10
4.7092125984251965
20
-3.5793700787401574
11
4.7092125984251965
21
-3.6187401574803149
0
LINE
8
BLACK
6
CONTINUOUS
10
4.849212598425197
20
-3.6187401574803149
11
4.7507874015748026
21
-3.6187401574803149
0
LINE
8
BLACK
6
CONTINUOUS
10
4.7507874015748026
20
-3.6187401574803149
11
4.7507874015748026
21
-3.5793700787401574
0
LINE
8
BLACK
6
CONTINUOUS
10
4.7507874015748026
20
-3.5793700787401574
11
4.849212598425197
21
-3.5793700787401574
0
LINE
8
BLACK
6
CONTINUOUS
10
4.849212598425197
20
-3.5793700787401574
11
4.849212598425197
21
-3.6187401574803149
0
LINE
8
BLACK
6
CONTINUOUS
10
4.9892125984251967
20
-3.6187401574803149
11
4.8907874015748032
21
-3.6187401574803149
0
LINE
8
BLACK
6
CONTINUOUS
10
4.8907874015748032
20
-3.6187401574803149
11
4.8907874015748032
21
-3.5793700787401574
0
LINE
8
BLACK
6
CONTINUOUS
10
4.8907874015748032
20
-3.5793700787401574
11
4.9892125984251967
21
-3.5793700787401574
0
LINE
8
BLACK
6
CONTINUOUS
10
4.9892125984251967
20
-3.5793700787401574
11
4.9892125984251967
21
-3.6187401574803149
0
LINE
8
BLACK
6
CONTINUOUS
10
5.1292125984251964
20
-3.6187401574803149
11
5.0307874015748029
21
-3.6187401574803149
0
LINE
8
BLACK
6
CONTINUOUS
10
5.0307874015748029
20
-3.6187401574803149
11
5.0307874015748029
21
-3.5793700787401574
0
LINE
8
BLACK
6
CONTINUOUS
10
5.0307874015748029
20
-3.5793700787401574
11
5.1292125984251964
21
-3.5793700787401574
0
LINE
8
BLACK
6
CONTINUOUS
10
5.1292125984251964
20
-3.5793700787401574
11
5.1292125984251964
21
-3.6187401574803149
0
LINE
8
BLACK
6
CONTINUOUS
10
5.5687204724409449
20
-3.6122637795275589
11
5.537224409448819
21
-3.6122637795275589
0
LINE
8
BLACK
6
CONTINUOUS
10
5.537224409448819
20
-3.6122637795275589
11
5.537224409448819
21
-3.5827362204724409
0
LINE
8
BLACK
6
CONTINUOUS
10
5.537224409448819
20
-3.5827362204724409
11
5.5687204724409449
21
-3.5827362204724409
0
LINE
8
BLACK
6
CONTINUOUS
10
5.5687204724409449
20
-3.5827362204724409
11
5.5687204724409449
21
-3.6122637795275589
0
LINE
8
BLACK
6
CONTINUOUS
10
5.627775590551181
20
-3.6122637795275589
11
5.5962795275590551
21
-3.6122637795275589
0
LINE
8
BLACK
6
CONTINUOUS
10
5.5962795275590551
20
-3.6122637795275589
11
5.5962795275590551
21
-3.5827362204724409
0
LINE
8
BLACK
6
CONTINUOUS
10
5.5962795275590551
20
-3.5827362204724409
11
5.627775590551181
21
-3.5827362204724409
0
LINE
8
BLACK
6
CONTINUOUS
10
5.627775590551181
20
-3.5827362204724409
11
5.627775590551181
21
-3.6122637795275589
0
LINE
8
BLACK
6
CONTINUOUS
10
5.271633858267716
20
-3.6071653543307085
11
5.186988188976378
21
-3.6071653543307085
0
LINE
8
BLACK
6
CONTINUOUS
10
5.186988188976378
20
-3.6071653543307085
11
5.186988188976378
21
-3.5894488188976377
0
LINE
8
BLACK
6
CONTINUOUS
10
5.186988188976378
20
-3.5894488188976377
11
5.271633858267716
21
-3.5894488188976377
0
LINE
8
BLACK
6
CONTINUOUS
10
5.271633858267716
20
-3.5894488188976377
11
5.271633858267716
21
-3.6071653543307085
0
LINE
8
BLACK
6
CONTINUOUS
10
5.4980118110236216
20
-3.6071653543307085
11
5.4133661417322836
21
-3.6071653543307085
0
LINE
8
BLACK
6
CONTINUOUS
10
5.4133661417322836
20
-3.6071653543307085
11
5.4133661417322836
21
-3.5894488188976377
0
LINE
8
BLACK
6
CONTINUOUS
10
5.4133661417322836
20
-3.5894488188976377
11
5.4980118110236216
21
-3.5894488188976377
0
LINE
8
BLACK
6
CONTINUOUS
10
5.4980118110236216
20
-3.5894488188976377
11
5.4980118110236216
21
-3.6071653543307085
0
LINE
8
BLACK
6
CONTINUOUS
10
5.3897440944881891
20
-3.5843307086614171
11
5.2952559055118105
21
-3.5843307086614171
0
LINE
8
BLACK
6
CONTINUOUS
10
5.2952559055118105
20
-3.5843307086614171
11
5.2952559055118105
21
-3.4622834645669291
0
LINE
8
BLACK
6
CONTINUOUS
10
5.2952559055118105
20
-3.4622834645669291
11
5.3897440944881891
21
-3.4622834645669291
0
LINE
8
BLACK
6
CONTINUOUS
10
5.3897440944881891
20
-3.4622834645669291
11
5.3897440944881891
21
-3.5843307086614171
0
LINE
8
BLACK
6
CONTINUOUS
10
5.271633858267716
20
-3.5571653543307087
11
5.186988188976378
21
-3.5571653543307087
0
LINE
8
BLACK
6
CONTINUOUS
10
5.186988188976378
20
-3.5571653543307087
11
5.186988188976378
21
-3.5394488188976378
0
LINE
8
BLACK
6
CONTINUOUS
10
5.186988188976378
20
-3.5394488188976378
11
5.271633858267716
21
-3.5394488188976378
0
LINE
8
BLACK
6
CONTINUOUS
10
5.271633858267716
20
-3.5394488188976378
11
5.271633858267716
21
-3.5571653543307087
0
LINE
8
BLACK
6
CONTINUOUS
10
5.4980118110236216
20
-3.5571653543307087
11
5.4133661417322836
21
-3.5571653543307087
0
LINE
8
BLACK
6
CONTINUOUS
10
5.4133661417322836
20
-3.5571653543307087
11
5.4133661417322836
21
-3.5394488188976378
0
LINE
8
BLACK
6
CONTINUOUS
10
5.4133661417322836
20
-3.5394488188976378
11
5.4980118110236216
21
-3.5394488188976378
0
LINE
8
BLACK
6
CONTINUOUS
10
5.4980118110236216
20
-3.5394488188976378
11
5.4980118110236216
21
-3.5571653543307087
0
LINE
8
BLACK
6
CONTINUOUS
10
5.5687204724409449
20
-3.527263779527559
11
5.537224409448819
21
-3.527263779527559
0
LINE
8
BLACK
6
CONTINUOUS
10
5.537224409448819
20
-3.527263779527559
11
5.537224409448819
21
-3.4977362204724409
0
LINE
8
BLACK
6
CONTINUOUS
10
5.537224409448819
20
-3.4977362204724409
11
5.5687204724409449
21
-3.4977362204724409
0
LINE
8
BLACK
6
CONTINUOUS
10
5.5687204724409449
20
-3.4977362204724409
11
5.5687204724409449
21
-3.527263779527559
0
LINE
8
BLACK
6
CONTINUOUS
10
5.627775590551181
20
-3.527263779527559
11
5.5962795275590551
21
-3.527263779527559
0
LINE
8
BLACK
6
CONTINUOUS
10
5.5962795275590551
20
-3.527263779527559
11
5.5962795275590551
21
-3.4977362204724409
0
LINE
8
BLACK
6
CONTINUOUS
10
5.5962795275590551
20
-3.4977362204724409
11
5.627775590551181
21
-3.4977362204724409
0
LINE
8
BLACK
6
CONTINUOUS
10
5.627775590551181
20
-3.4977362204724409
11
5.627775590551181
21
-3.527263779527559
0
LINE
8
BLACK
6
CONTINUOUS
10
5.271633858267716
20
-3.5071653543307084
11
5.186988188976378
21
-3.5071653543307084
0
LINE
8
BLACK
6
CONTINUOUS
10
5.186988188976378
20
-3.5071653543307084
11
5.186988188976378
21
-3.4894488188976376
0
LINE
8
BLACK
6
CONTINUOUS
10
5.186988188976378
20
-3.4894488188976376
11
5.271633858267716
21
-3.4894488188976376
0
LINE
8
BLACK
6
CONTINUOUS
10
5.271633858267716
20
-3.4894488188976376
11
5.271633858267716
21
-3.5071653543307084
0
LINE
8
BLACK
6
CONTINUOUS
10
5.4980118110236216
20
-3.5071653543307084
11
5.4133661417322836
21
-3.5071653543307084
0
LINE
8
BLACK
6
CONTINUOUS
10
5.4133661417322836
20
-3.5071653543307084
11
5.4133661417322836
21
-3.4894488188976376
0
LINE
8
BLACK
6
CONTINUOUS
10
5.4133661417322836
20
-3.4894488188976376
11
5.4980118110236216
21
-3.4894488188976376
0
LINE
8
BLACK
6
CONTINUOUS
10
5.4980118110236216
20
-3.4894488188976376
11
5.4980118110236216
21
-3.5071653543307084
0
LINE
8
BLACK
6
CONTINUOUS
10
4.7092125984251965
20
-3.5006299212598426
11
4.6107874015748029
21
-3.5006299212598426
0
LINE
8
BLACK
6
CONTINUOUS
10
4.6107874015748029
20
-3.5006299212598426
11
4.6107874015748029
21
-3.4612598425196848
0
LINE
8
BLACK
6
CONTINUOUS
10
4.6107874015748029
20
-3.4612598425196848
11
4.7092125984251965
21
-3.4612598425196848
0
LINE
8
BLACK
6
CONTINUOUS
10
4.7092125984251965
20
-3.4612598425196848
11
4.7092125984251965
21
-3.5006299212598426
0
LINE
8
BLACK
6
CONTINUOUS
10
4.849212598425197
20
-3.5006299212598426
11
4.7507874015748026
21
-3.5006299212598426
0
LINE
8
BLACK
6
CONTINUOUS
10
4.7507874015748026
20
-3.5006299212598426
11
4.7507874015748026
21
-3.4612598425196848
0
LINE
8
BLACK
6
CONTINUOUS
10
4.7507874015748026
20
-3.4612598425196848
11
4.849212598425197
21
-3.4612598425196848
0
LINE
8
BLACK
6
CONTINUOUS
10
4.849212598425197
20
-3.4612598425196848
11
4.849212598425197
21
-3.5006299212598426
0
LINE
8
BLACK
6
CONTINUOUS
10
4.9892125984251967
20
-3.5006299212598426
11
4.8907874015748032
21
-3.5006299212598426
0
LINE
8
BLACK
6
CONTINUOUS
10
4.8907874015748032
20
-3.5006299212598426
11
4.8907874015748032
21
-3.4612598425196848
0
LINE
8
BLACK
6
CONTINUOUS
10
4.8907874015748032
20
-3.4612598425196848
11
4.9892125984251967
21
-3.4612598425196848
0
LINE
8
BLACK
6
CONTINUOUS
10
4.9892125984251967
20
-3.4612598425196848
11
4.9892125984251967
21
-3.5006299212598426
0
LINE
8
BLACK
6
CONTINUOUS
10
5.1292125984251964
20
-3.5006299212598426
11
5.0307874015748029
21
-3.5006299212598426
0
LINE
8
BLACK
6
CONTINUOUS
10
5.0307874015748029
20
-3.5006299212598426
11
5.0307874015748029
21
-3.4612598425196848
0
LINE
8
BLACK
6
CONTINUOUS
10
5.0307874015748029
20
-3.4612598425196848
11
5.1292125984251964
21
-3.4612598425196848
0
LINE
8
BLACK
6
CONTINUOUS
10
5.1292125984251964
20
-3.4612598425196848
11
5.1292125984251964
21
-3.5006299212598426
0
LINE
8
BLACK
6
CONTINUOUS
10
5.5687204724409449
20
-3.462263779527559
11
5.537224409448819
21
-3.462263779527559
0
LINE
8
BLACK
6
CONTINUOUS
10
5.537224409448819
20
-3.462263779527559
11
5.537224409448819
21
-3.432736220472441
0
LINE
8
BLACK
6
CONTINUOUS
10
5.537224409448819
20
-3.432736220472441
11
5.5687204724409449
21
-3.432736220472441
0
LINE
8
BLACK
6
CONTINUOUS
10
5.5687204724409449
20
-3.432736220472441
11
5.5687204724409449
21
-3.462263779527559
0
LINE
8
BLACK
6
CONTINUOUS
10
5.627775590551181
20
-3.462263779527559
11
5.5962795275590551
21
-3.462263779527559
0
LINE
8
BLACK
6
CONTINUOUS
10
5.5962795275590551
20
-3.462263779527559
11
5.5962795275590551
21
-3.432736220472441
0
LINE
8
BLACK
6
CONTINUOUS
10
5.5962795275590551
20
-3.432736220472441
11
5.627775590551181
21
-3.432736220472441
0
LINE
8
BLACK
6
CONTINUOUS
10
5.627775590551181
20
-3.432736220472441
11
5.627775590551181
21
-3.462263779527559
0
LINE
8
BLACK
6
CONTINUOUS
10
5.271633858267716
20
-3.4571653543307086
11
5.186988188976378
21
-3.4571653543307086
0
LINE
8
BLACK
6
CONTINUOUS
10
5.186988188976378
20
-3.4571653543307086
11
5.186988188976378
21
-3.4394488188976378
0
LINE
8
BLACK
6
CONTINUOUS
10
5.186988188976378
20
-3.4394488188976378
11
5.271633858267716
21
-3.4394488188976378
0
LINE
8
BLACK
6
CONTINUOUS
10
5.271633858267716
20
-3.4394488188976378
11
5.271633858267716
21
-3.4571653543307086
0
LINE
8
BLACK
6
CONTINUOUS
10
5.4980118110236216
20
-3.4571653543307086
11
5.4133661417322836
21
-3.4571653543307086
0
LINE
8
BLACK
6
CONTINUOUS
10
5.4133661417322836
20
-3.4571653543307086
11
5.4133661417322836
21
-3.4394488188976378
0
LINE
8
BLACK
6
CONTINUOUS
10
5.4133661417322836
20
-3.4394488188976378
11
5.4980118110236216
21
-3.4394488188976378
0
LINE
8
BLACK
6
CONTINUOUS
10
5.4980118110236216
20
-3.4394488188976378
11
5.4980118110236216
21
-3.4571653543307086
0
LINE
8
BLACK
6
CONTINUOUS
10
5.2162204724409449
20
-3.3947637795275591
11
5.184724409448819
21
-3.3947637795275591
0
LINE
8
BLACK
6
CONTINUOUS
10
5.184724409448819
20
-3.3947637795275591
11
5.184724409448819
21
-3.3652362204724411
0
LINE
8
BLACK
6
CONTINUOUS
10
5.184724409448819
20
-3.3652362204724411
11
5.2162204724409449
21
-3.3652362204724411
0
LINE
8
BLACK
6
CONTINUOUS
10
5.2162204724409449
20
-3.3652362204724411
11
5.2162204724409449
21
-3.3947637795275591
0
LINE
8
BLACK
6
CONTINUOUS
10
5.275275590551181
20
-3.3947637795275591
11
5.2437795275590551
21
-3.3947637795275591
0
LINE
8
BLACK
6
CONTINUOUS
10
5.2437795275590551
20
-3.3947637795275591
11
5.2437795275590551
21
-3.3652362204724411
0
LINE
8
BLACK
6
CONTINUOUS
10
5.2437795275590551
20
-3.3652362204724411
11
5.275275590551181
21
-3.3652362204724411
0
LINE
8
BLACK
6
CONTINUOUS
10
5.275275590551181
20
-3.3652362204724411
11
5.275275590551181
21
-3.3947637795275591
0
LINE
8
BLACK
6
CONTINUOUS
10
5.5062204724409449
20
-3.3947637795275591
11
5.474724409448819
21
-3.3947637795275591
0
LINE
8
BLACK
6
CONTINUOUS
10
5.474724409448819
20
-3.3947637795275591
11
5.474724409448819
21
-3.3652362204724411
0
LINE
8
BLACK
6
CONTINUOUS
10
5.474724409448819
20
-3.3652362204724411
11
5.5062204724409449
21
-3.3652362204724411
0
LINE
8
BLACK
6
CONTINUOUS
10
5.5062204724409449
20
-3.3652362204724411
11
5.5062204724409449
21
-3.3947637795275591
0
LINE
8
BLACK
6
CONTINUOUS
10
5.565275590551181
20
-3.3947637795275591
11
5.5337795275590551
21
-3.3947637795275591
0
LINE
8
BLACK
6
CONTINUOUS
10
5.5337795275590551
20
-3.3947637795275591
11
5.5337795275590551
21
-3.3652362204724411
0
LINE
8
BLACK
6
CONTINUOUS
10
5.5337795275590551
20
-3.3652362204724411
11
5.565275590551181
21
-3.3652362204724411
0
LINE
8
BLACK
6
CONTINUOUS
10
5.565275590551181
20
-3.3652362204724411
11
5.565275590551181
21
-3.3947637795275591
  0
ENDSEC
  0
EOF
