  0
SECTION
  2
HEADER
  9
$ANGBASE
  50
0.0
  9
$ANGDIR
  70
1
  9
$MEASUREMENT
  70
0
  0
ENDSEC
  0
SECTION
  2
TABLES
  0
TABLE
  2
LTYPE
  70
4
  0
LTYPE
  5
40F
  2
CONTINUOUS
  70
0
  3
Solid line
  72
65
  73
0
  40
0.0
  0
LTYPE
  5
410
  2
DASHDOT
 70
0
  3
Dash Dot ____ _ ____ _
 72
65
 73
4
 40
2.0
 49
1.25
 49
-0.25
 49
0.25
 49
-0.25
  0
LTYPE
  5
411
  2
DASHED
 70
0
  3
Dashed __ __ __ __ __
 72
65
 73
2
 40
0.75
 49
0.5
 49
-0.25
  0
LTYPE
  5
43B
  2
DOTTED
 70
0
  3
Dotted .  .  .  .
 72
65
 73
2
 40
0.2
 49
0.0
 49
-0.2
  0
ENDTAB
  0
TABLE
  2
STYLE
  70
4
  0
STYLE
  2
KICAD
  70
0
  40
0
  41
1
  42
1
  50
0
  71
0
  3
isocp.shx
  0
STYLE
  2
KICADB
  70
0
  40
0
  41
1
  42
1
  50
0
  71
0
  3
isocp.shx
  0
STYLE
  2
KICADI
  70
0
  40
0
  41
1
  42
1
  50
15
  71
0
  3
isocp.shx
  0
STYLE
  2
KICADBI
  70
0
  40
0
  41
1
  42
1
  50
15
  71
0
  3
isocp.shx
  0
ENDTAB
  0
TABLE
  2
LAYER
  70
1
  0
LAYER
  2
BLACK
  70
0
  62
7
  6
CONTINUOUS
  0
ENDTAB
  0
ENDSEC
  0
SECTION
  2
ENTITIES
0
LINE
8
BLACK
6
CONTINUOUS
10
4.0216558661417325
20
-4.5479051181102363
11
4.0358108661417322
21
-4.551020866141732
0
LINE
8
BLACK
6
CONTINUOUS
10
4.0358108661417322
20
-4.551020866141732
11
4.0495460629921256
21
-4.5556487795275586
0
LINE
8
BLACK
6
CONTINUOUS
10
4.0495460629921256
20
-4.5556487795275586
11
4.0627003543307083
21
-4.5617346062992121
0
LINE
8
BLACK
6
CONTINUOUS
10
4.0627003543307083
20
-4.5617346062992121
11
4.075119527559055
21
-4.5692069685039369
0
LINE
8
BLACK
6
CONTINUOUS
10
4.075119527559055
20
-4.5692069685039369
11
4.0866579921259838
21
-4.5779783070866138
0
LINE
8
BLACK
6
CONTINUOUS
10
4.0866579921259838
20
-4.5779783070866138
11
4.0971805118110236
21
-4.5879457480314958
0
LINE
8
BLACK
6
CONTINUOUS
10
4.0971805118110236
20
-4.5879457480314958
11
4.1065636220472443
21
-4.5989924409448815
0
LINE
8
BLACK
6
CONTINUOUS
10
4.1065636220472443
20
-4.5989924409448815
11
4.1146974015748032
21
-4.6109888582677163
0
LINE
8
BLACK
6
CONTINUOUS
10
4.1146974015748032
20
-4.6109888582677163
11
4.1214864566929137
21
-4.6237943700787403
0
LINE
8
BLACK
6
CONTINUOUS
10
4.1214864566929137
20
-4.6237943700787403
11
4.1268512204724406
21
-4.6372588582677166
0
LINE
8
BLACK
6
CONTINUOUS
10
4.1268512204724406
20
-4.6372588582677166
11
4.1307287401574806
21
-4.6512244488188976
0
LINE
8
BLACK
6
CONTINUOUS
10
4.1307287401574806
20
-4.6512244488188976
11
4.1330735826771656
21
-4.665527362204724
0
LINE
8
BLACK
6
CONTINUOUS
10
4.1330735826771656
20
-4.665527362204724
11
4.1338582677165352
21
-4.6799999999999997
0
LINE
8
BLACK
6
CONTINUOUS
10
4.1338582677165352
20
-4.6799999999999997
11
4.1330735826771656
21
-4.6944726377952755
0
LINE
8
BLACK
6
CONTINUOUS
10
4.1330735826771656
20
-4.6944726377952755
11
4.1307287401574806
21
-4.7087755511811027
0
LINE
8
BLACK
6
CONTINUOUS
10
4.1307287401574806
20
-4.7087755511811027
11
4.1268512204724406
21
-4.7227411417322838
0
LINE
8
BLACK
6
CONTINUOUS
10
4.1268512204724406
20
-4.7227411417322838
11
4.1214864566929137
21
-4.73620562992126
0
LINE
8
BLACK
6
CONTINUOUS
10
4.1214864566929137
20
-4.73620562992126
11
4.1146974015748032
21
-4.7490111417322831
0
LINE
8
BLACK
6
CONTINUOUS
10
4.1146974015748032
20
-4.7490111417322831
11
4.1065636220472443
21
-4.761007559055118
0
LINE
8
BLACK
6
CONTINUOUS
10
4.1065636220472443
20
-4.761007559055118
11
4.0971805118110236
21
-4.7720542519685036
0
LINE
8
BLACK
6
CONTINUOUS
10
4.0971805118110236
20
-4.7720542519685036
11
4.0866579921259838
21
-4.7820216929133856
0
LINE
8
BLACK
6
CONTINUOUS
10
4.0866579921259838
20
-4.7820216929133856
11
4.075119527559055
21
-4.7907930314960625
0
LINE
8
BLACK
6
CONTINUOUS
10
4.075119527559055
20
-4.7907930314960625
11
4.0627003543307083
21
-4.7982653937007873
0
LINE
8
BLACK
6
CONTINUOUS
10
4.0627003543307083
20
-4.7982653937007873
11
4.0495460629921256
21
-4.8043512204724408
0
LINE
8
BLACK
6
CONTINUOUS
10
4.0495460629921256
20
-4.8043512204724408
11
4.0358108661417322
21
-4.8089791338582675
0
LINE
8
BLACK
6
CONTINUOUS
10
4.0358108661417322
20
-4.8089791338582675
11
4.0216558661417325
21
-4.812094881889764
0
LINE
8
BLACK
6
CONTINUOUS
10
4.0216558661417325
20
-4.812094881889764
11
4.0072469291338582
21
-4.8136619685039372
0
LINE
8
BLACK
6
CONTINUOUS
10
4.0072469291338582
20
-4.8136619685039372
11
3.9927530708661418
21
-4.8136619685039372
0
LINE
8
BLACK
6
CONTINUOUS
10
3.9927530708661418
20
-4.8136619685039372
11
3.9783441338582675
21
-4.812094881889764
0
LINE
8
BLACK
6
CONTINUOUS
10
3.9783441338582675
20
-4.812094881889764
11
3.9641891338582678
21
-4.8089791338582675
0
LINE
8
BLACK
6
CONTINUOUS
10
3.9641891338582678
20
-4.8089791338582675
11
3.950453937007874
21
-4.8043512204724408
0
LINE
8
BLACK
6
CONTINUOUS
10
3.950453937007874
20
-4.8043512204724408
11
3.9372996456692912
21
-4.7982653937007873
0
LINE
8
BLACK
6
CONTINUOUS
10
3.9372996456692912
20
-4.7982653937007873
11
3.924880472440945
21
-4.7907930314960625
0
LINE
8
BLACK
6
CONTINUOUS
10
3.924880472440945
20
-4.7907930314960625
11
3.9133420078740158
21
-4.7820216929133856
0
LINE
8
BLACK
6
CONTINUOUS
10
3.9133420078740158
20
-4.7820216929133856
11
3.9028194881889764
21
-4.7720542519685036
0
LINE
8
BLACK
6
CONTINUOUS
10
3.9028194881889764
20
-4.7720542519685036
11
3.8934363779527557
21
-4.761007559055118
0
LINE
8
BLACK
6
CONTINUOUS
10
3.8934363779527557
20
-4.761007559055118
11
3.8853025984251968
21
-4.7490111417322831
0
LINE
8
BLACK
6
CONTINUOUS
10
3.8853025984251968
20
-4.7490111417322831
11
3.8785135433070863
21
-4.73620562992126
0
LINE
8
BLACK
6
CONTINUOUS
10
3.8785135433070863
20
-4.73620562992126
11
3.873148779527559
21
-4.7227411417322838
0
LINE
8
BLACK
6
CONTINUOUS
10
3.873148779527559
20
-4.7227411417322838
11
3.8692712598425194
21
-4.7087755511811027
0
LINE
8
BLACK
6
CONTINUOUS
10
3.8692712598425194
20
-4.7087755511811027
11
3.8669264173228344
21
-4.6944726377952755
0
LINE
8
BLACK
6
CONTINUOUS
10
3.8669264173228344
20
-4.6944726377952755
11
3.8661417322834644
21
-4.6799999999999997
0
LINE
8
BLACK
6
CONTINUOUS
10
3.8661417322834644
20
-4.6799999999999997
11
3.8669264173228344
21
-4.665527362204724
0
LINE
8
BLACK
6
CONTINUOUS
10
3.8669264173228344
20
-4.665527362204724
11
3.8692712598425194
21
-4.6512244488188976
0
LINE
8
BLACK
6
CONTINUOUS
10
3.8692712598425194
20
-4.6512244488188976
11
3.873148779527559
21
-4.6372588582677166
0
LINE
8
BLACK
6
CONTINUOUS
10
3.873148779527559
20
-4.6372588582677166
11
3.8785135433070863
21
-4.6237943700787403
0
LINE
8
BLACK
6
CONTINUOUS
10
3.8785135433070863
20
-4.6237943700787403
11
3.8853025984251968
21
-4.6109888582677163
0
LINE
8
BLACK
6
CONTINUOUS
10
3.8853025984251968
20
-4.6109888582677163
11
3.8934363779527557
21
-4.5989924409448815
0
LINE
8
BLACK
6
CONTINUOUS
10
3.8934363779527557
20
-4.5989924409448815
11
3.9028194881889764
21
-4.5879457480314958
0
LINE
8
BLACK
6
CONTINUOUS
10
3.9028194881889764
20
-4.5879457480314958
11
3.9133420078740158
21
-4.5779783070866138
0
LINE
8
BLACK
6
CONTINUOUS
10
3.9133420078740158
20
-4.5779783070866138
11
3.924880472440945
21
-4.5692069685039369
0
LINE
8
BLACK
6
CONTINUOUS
10
3.924880472440945
20
-4.5692069685039369
11
3.9372996456692912
21
-4.5617346062992121
0
LINE
8
BLACK
6
CONTINUOUS
10
3.9372996456692912
20
-4.5617346062992121
11
3.950453937007874
21
-4.5556487795275586
0
LINE
8
BLACK
6
CONTINUOUS
10
3.950453937007874
20
-4.5556487795275586
11
3.9641891338582678
21
-4.551020866141732
0
LINE
8
BLACK
6
CONTINUOUS
10
3.9641891338582678
20
-4.551020866141732
11
3.9783441338582675
21
-4.5479051181102363
0
LINE
8
BLACK
6
CONTINUOUS
10
3.9783441338582675
20
-4.5479051181102363
11
3.9927530708661418
21
-4.5463380314960631
0
LINE
8
BLACK
6
CONTINUOUS
10
3.9927530708661418
20
-4.5463380314960631
11
4.0072469291338582
21
-4.5463380314960631
0
LINE
8
BLACK
6
CONTINUOUS
10
4.0072469291338582
20
-4.5463380314960631
11
4.0216558661417325
21
-4.5479051181102363
0
LINE
8
BLACK
6
CONTINUOUS
10
5.7216558661417318
20
-4.5479051181102363
11
5.7358108661417324
21
-4.551020866141732
0
LINE
8
BLACK
6
CONTINUOUS
10
5.7358108661417324
20
-4.551020866141732
11
5.7495460629921258
21
-4.5556487795275586
0
LINE
8
BLACK
6
CONTINUOUS
10
5.7495460629921258
20
-4.5556487795275586
11
5.7627003543307085
21
-4.5617346062992121
0
LINE
8
BLACK
6
CONTINUOUS
10
5.7627003543307085
20
-4.5617346062992121
11
5.7751195275590552
21
-4.5692069685039369
0
LINE
8
BLACK
6
CONTINUOUS
10
5.7751195275590552
20
-4.5692069685039369
11
5.786657992125984
21
-4.5779783070866138
0
LINE
8
BLACK
6
CONTINUOUS
10
5.786657992125984
20
-4.5779783070866138
11
5.7971805118110238
21
-4.5879457480314958
0
LINE
8
BLACK
6
CONTINUOUS
10
5.7971805118110238
20
-4.5879457480314958
11
5.8065636220472436
21
-4.5989924409448815
0
LINE
8
BLACK
6
CONTINUOUS
10
5.8065636220472436
20
-4.5989924409448815
11
5.8146974015748034
21
-4.6109888582677163
0
LINE
8
BLACK
6
CONTINUOUS
10
5.8146974015748034
20
-4.6109888582677163
11
5.821486456692913
21
-4.6237943700787403
0
LINE
8
BLACK
6
CONTINUOUS
10
5.821486456692913
20
-4.6237943700787403
11
5.8268512204724408
21
-4.6372588582677166
0
LINE
8
BLACK
6
CONTINUOUS
10
5.8268512204724408
20
-4.6372588582677166
11
5.8307287401574799
21
-4.6512244488188976
0
LINE
8
BLACK
6
CONTINUOUS
10
5.8307287401574799
20
-4.6512244488188976
11
5.8330735826771649
21
-4.665527362204724
0
LINE
8
BLACK
6
CONTINUOUS
10
5.8330735826771649
20
-4.665527362204724
11
5.8338582677165354
21
-4.6799999999999997
0
LINE
8
BLACK
6
CONTINUOUS
10
5.8338582677165354
20
-4.6799999999999997
11
5.8330735826771649
21
-4.6944726377952755
0
LINE
8
BLACK
6
CONTINUOUS
10
5.8330735826771649
20
-4.6944726377952755
11
5.8307287401574799
21
-4.7087755511811027
0
LINE
8
BLACK
6
CONTINUOUS
10
5.8307287401574799
20
-4.7087755511811027
11
5.8268512204724408
21
-4.7227411417322838
0
LINE
8
BLACK
6
CONTINUOUS
10
5.8268512204724408
20
-4.7227411417322838
11
5.821486456692913
21
-4.73620562992126
0
LINE
8
BLACK
6
CONTINUOUS
10
5.821486456692913
20
-4.73620562992126
11
5.8146974015748034
21
-4.7490111417322831
0
LINE
8
BLACK
6
CONTINUOUS
10
5.8146974015748034
20
-4.7490111417322831
11
5.8065636220472436
21
-4.761007559055118
0
LINE
8
BLACK
6
CONTINUOUS
10
5.8065636220472436
20
-4.761007559055118
11
5.7971805118110238
21
-4.7720542519685036
0
LINE
8
BLACK
6
CONTINUOUS
10
5.7971805118110238
20
-4.7720542519685036
11
5.786657992125984
21
-4.7820216929133856
0
LINE
8
BLACK
6
CONTINUOUS
10
5.786657992125984
20
-4.7820216929133856
11
5.7751195275590552
21
-4.7907930314960625
0
LINE
8
BLACK
6
CONTINUOUS
10
5.7751195275590552
20
-4.7907930314960625
11
5.7627003543307085
21
-4.7982653937007873
0
LINE
8
BLACK
6
CONTINUOUS
10
5.7627003543307085
20
-4.7982653937007873
11
5.7495460629921258
21
-4.8043512204724408
0
LINE
8
BLACK
6
CONTINUOUS
10
5.7495460629921258
20
-4.8043512204724408
11
5.7358108661417324
21
-4.8089791338582675
0
LINE
8
BLACK
6
CONTINUOUS
10
5.7358108661417324
20
-4.8089791338582675
11
5.7216558661417318
21
-4.812094881889764
0
LINE
8
BLACK
6
CONTINUOUS
10
5.7216558661417318
20
-4.812094881889764
11
5.7072469291338583
21
-4.8136619685039372
0
LINE
8
BLACK
6
CONTINUOUS
10
5.7072469291338583
20
-4.8136619685039372
11
5.692753070866142
21
-4.8136619685039372
0
LINE
8
BLACK
6
CONTINUOUS
10
5.692753070866142
20
-4.8136619685039372
11
5.6783441338582676
21
-4.812094881889764
0
LINE
8
BLACK
6
CONTINUOUS
10
5.6783441338582676
20
-4.812094881889764
11
5.6641891338582679
21
-4.8089791338582675
0
LINE
8
BLACK
6
CONTINUOUS
10
5.6641891338582679
20
-4.8089791338582675
11
5.6504539370078737
21
-4.8043512204724408
0
LINE
8
BLACK
6
CONTINUOUS
10
5.6504539370078737
20
-4.8043512204724408
11
5.637299645669291
21
-4.7982653937007873
0
LINE
8
BLACK
6
CONTINUOUS
10
5.637299645669291
20
-4.7982653937007873
11
5.6248804724409451
21
-4.7907930314960625
0
LINE
8
BLACK
6
CONTINUOUS
10
5.6248804724409451
20
-4.7907930314960625
11
5.6133420078740155
21
-4.7820216929133856
0
LINE
8
BLACK
6
CONTINUOUS
10
5.6133420078740155
20
-4.7820216929133856
11
5.6028194881889766
21
-4.7720542519685036
0
LINE
8
BLACK
6
CONTINUOUS
10
5.6028194881889766
20
-4.7720542519685036
11
5.5934363779527558
21
-4.761007559055118
0
LINE
8
BLACK
6
CONTINUOUS
10
5.5934363779527558
20
-4.761007559055118
11
5.5853025984251969
21
-4.7490111417322831
0
LINE
8
BLACK
6
CONTINUOUS
10
5.5853025984251969
20
-4.7490111417322831
11
5.5785135433070865
21
-4.73620562992126
0
LINE
8
BLACK
6
CONTINUOUS
10
5.5785135433070865
20
-4.73620562992126
11
5.5731487795275587
21
-4.7227411417322838
0
LINE
8
BLACK
6
CONTINUOUS
10
5.5731487795275587
20
-4.7227411417322838
11
5.5692712598425196
21
-4.7087755511811027
0
LINE
8
BLACK
6
CONTINUOUS
10
5.5692712598425196
20
-4.7087755511811027
11
5.5669264173228346
21
-4.6944726377952755
0
LINE
8
BLACK
6
CONTINUOUS
10
5.5669264173228346
20
-4.6944726377952755
11
5.5661417322834641
21
-4.6799999999999997
0
LINE
8
BLACK
6
CONTINUOUS
10
5.5661417322834641
20
-4.6799999999999997
11
5.5669264173228346
21
-4.665527362204724
0
LINE
8
BLACK
6
CONTINUOUS
10
5.5669264173228346
20
-4.665527362204724
11
5.5692712598425196
21
-4.6512244488188976
0
LINE
8
BLACK
6
CONTINUOUS
10
5.5692712598425196
20
-4.6512244488188976
11
5.5731487795275587
21
-4.6372588582677166
0
LINE
8
BLACK
6
CONTINUOUS
10
5.5731487795275587
20
-4.6372588582677166
11
5.5785135433070865
21
-4.6237943700787403
0
LINE
8
BLACK
6
CONTINUOUS
10
5.5785135433070865
20
-4.6237943700787403
11
5.5853025984251969
21
-4.6109888582677163
0
LINE
8
BLACK
6
CONTINUOUS
10
5.5853025984251969
20
-4.6109888582677163
11
5.5934363779527558
21
-4.5989924409448815
0
LINE
8
BLACK
6
CONTINUOUS
10
5.5934363779527558
20
-4.5989924409448815
11
5.6028194881889766
21
-4.5879457480314958
0
LINE
8
BLACK
6
CONTINUOUS
10
5.6028194881889766
20
-4.5879457480314958
11
5.6133420078740155
21
-4.5779783070866138
0
LINE
8
BLACK
6
CONTINUOUS
10
5.6133420078740155
20
-4.5779783070866138
11
5.6248804724409451
21
-4.5692069685039369
0
LINE
8
BLACK
6
CONTINUOUS
10
5.6248804724409451
20
-4.5692069685039369
11
5.637299645669291
21
-4.5617346062992121
0
LINE
8
BLACK
6
CONTINUOUS
10
5.637299645669291
20
-4.5617346062992121
11
5.6504539370078737
21
-4.5556487795275586
0
LINE
8
BLACK
6
CONTINUOUS
10
5.6504539370078737
20
-4.5556487795275586
11
5.6641891338582679
21
-4.551020866141732
0
LINE
8
BLACK
6
CONTINUOUS
10
5.6641891338582679
20
-4.551020866141732
11
5.6783441338582676
21
-4.5479051181102363
0
LINE
8
BLACK
6
CONTINUOUS
10
5.6783441338582676
20
-4.5479051181102363
11
5.692753070866142
21
-4.5463380314960631
0
LINE
8
BLACK
6
CONTINUOUS
10
5.692753070866142
20
-4.5463380314960631
11
5.7072469291338583
21
-4.5463380314960631
0
LINE
8
BLACK
6
CONTINUOUS
10
5.7072469291338583
20
-4.5463380314960631
11
5.7216558661417318
21
-4.5479051181102363
0
LINE
8
BLACK
6
CONTINUOUS
10
5.5093132677165357
20
-4.1025253543307088
11
5.511867755905512
21
-4.1042322440944883
0
LINE
8
BLACK
6
CONTINUOUS
10
5.511867755905512
20
-4.1042322440944883
11
5.5135746456692916
21
-4.1067867322834646
0
LINE
8
BLACK
6
CONTINUOUS
10
5.5135746456692916
20
-4.1067867322834646
11
5.514174015748031
21
-4.1097999999999999
0
LINE
8
BLACK
6
CONTINUOUS
10
5.514174015748031
20
-4.1097999999999999
11
5.514174015748031
21
-4.2240000000000002
0
LINE
8
BLACK
6
CONTINUOUS
10
5.514174015748031
20
-4.2240000000000002
11
5.5135746456692916
21
-4.2270132677165355
0
LINE
8
BLACK
6
CONTINUOUS
10
5.5135746456692916
20
-4.2270132677165355
11
5.511867755905512
21
-4.2295677559055118
0
LINE
8
BLACK
6
CONTINUOUS
10
5.511867755905512
20
-4.2295677559055118
11
5.5093132677165357
21
-4.2312746456692913
0
LINE
8
BLACK
6
CONTINUOUS
10
5.5093132677165357
20
-4.2312746456692913
11
5.5062999999999995
21
-4.2318740157480317
0
LINE
8
BLACK
6
CONTINUOUS
10
5.5062999999999995
20
-4.2318740157480317
11
5.2937000000000003
21
-4.2318740157480317
0
LINE
8
BLACK
6
CONTINUOUS
10
5.2937000000000003
20
-4.2318740157480317
11
5.2906867322834641
21
-4.2312746456692913
0
LINE
8
BLACK
6
CONTINUOUS
10
5.2906867322834641
20
-4.2312746456692913
11
5.2881322440944878
21
-4.2295677559055118
0
LINE
8
BLACK
6
CONTINUOUS
10
5.2881322440944878
20
-4.2295677559055118
11
5.2864253543307083
21
-4.2270132677165355
0
LINE
8
BLACK
6
CONTINUOUS
10
5.2864253543307083
20
-4.2270132677165355
11
5.2858259842519688
21
-4.2240000000000002
0
LINE
8
BLACK
6
CONTINUOUS
10
5.2858259842519688
20
-4.2240000000000002
11
5.2858259842519688
21
-4.1097999999999999
0
LINE
8
BLACK
6
CONTINUOUS
10
5.2858259842519688
20
-4.1097999999999999
11
5.2864253543307083
21
-4.1067867322834646
0
LINE
8
BLACK
6
CONTINUOUS
10
5.2864253543307083
20
-4.1067867322834646
11
5.2881322440944878
21
-4.1042322440944883
0
LINE
8
BLACK
6
CONTINUOUS
10
5.2881322440944878
20
-4.1042322440944883
11
5.2906867322834641
21
-4.1025253543307088
0
LINE
8
BLACK
6
CONTINUOUS
10
5.2906867322834641
20
-4.1025253543307088
11
5.2937000000000003
21
-4.1019259842519684
0
LINE
8
BLACK
6
CONTINUOUS
10
5.2937000000000003
20
-4.1019259842519684
11
5.5062999999999995
21
-4.1019259842519684
0
LINE
8
BLACK
6
CONTINUOUS
10
5.5062999999999995
20
-4.1019259842519684
11
5.5093132677165357
21
-4.1025253543307088
0
LINE
8
BLACK
6
CONTINUOUS
10
4.244013267716535
20
-4.0517253543307081
11
4.2465677559055113
21
-4.0534322440944877
0
LINE
8
BLACK
6
CONTINUOUS
10
4.2465677559055113
20
-4.0534322440944877
11
4.2482746456692908
21
-4.0559867322834648
0
LINE
8
BLACK
6
CONTINUOUS
10
4.2482746456692908
20
-4.0559867322834648
11
4.2488740157480311
21
-4.0590000000000002
0
LINE
8
BLACK
6
CONTINUOUS
10
4.2488740157480311
20
-4.0590000000000002
11
4.2488740157480311
21
-4.2089999999999996
0
LINE
8
BLACK
6
CONTINUOUS
10
4.2488740157480311
20
-4.2089999999999996
11
4.2482746456692908
21
-4.2120132677165349
0
LINE
8
BLACK
6
CONTINUOUS
10
4.2482746456692908
20
-4.2120132677165349
11
4.2465677559055113
21
-4.2145677559055121
0
LINE
8
BLACK
6
CONTINUOUS
10
4.2465677559055113
20
-4.2145677559055121
11
4.244013267716535
21
-4.2162746456692917
0
LINE
8
BLACK
6
CONTINUOUS
10
4.244013267716535
20
-4.2162746456692917
11
4.2409999999999997
21
-4.2168740157480311
0
LINE
8
BLACK
6
CONTINUOUS
10
4.2409999999999997
20
-4.2168740157480311
11
4.0910000000000002
21
-4.2168740157480311
0
LINE
8
BLACK
6
CONTINUOUS
10
4.0910000000000002
20
-4.2168740157480311
11
4.0879867322834649
21
-4.2162746456692917
0
LINE
8
BLACK
6
CONTINUOUS
10
4.0879867322834649
20
-4.2162746456692917
11
4.0854322440944877
21
-4.2145677559055121
0
LINE
8
BLACK
6
CONTINUOUS
10
4.0854322440944877
20
-4.2145677559055121
11
4.0837253543307082
21
-4.2120132677165349
0
LINE
8
BLACK
6
CONTINUOUS
10
4.0837253543307082
20
-4.2120132677165349
11
4.0831259842519687
21
-4.2089999999999996
0
LINE
8
BLACK
6
CONTINUOUS
10
4.0831259842519687
20
-4.2089999999999996
11
4.0831259842519687
21
-4.0590000000000002
0
LINE
8
BLACK
6
CONTINUOUS
10
4.0831259842519687
20
-4.0590000000000002
11
4.0837253543307082
21
-4.0559867322834648
0
LINE
8
BLACK
6
CONTINUOUS
10
4.0837253543307082
20
-4.0559867322834648
11
4.0854322440944877
21
-4.0534322440944877
0
LINE
8
BLACK
6
CONTINUOUS
10
4.0854322440944877
20
-4.0534322440944877
11
4.0879867322834649
21
-4.0517253543307081
0
LINE
8
BLACK
6
CONTINUOUS
10
4.0879867322834649
20
-4.0517253543307081
11
4.0910000000000002
21
-4.0511259842519687
0
LINE
8
BLACK
6
CONTINUOUS
10
4.0910000000000002
20
-4.0511259842519687
11
4.2409999999999997
21
-4.0511259842519687
0
LINE
8
BLACK
6
CONTINUOUS
10
4.2409999999999997
20
-4.0511259842519687
11
4.244013267716535
21
-4.0517253543307081
0
LINE
8
BLACK
6
CONTINUOUS
10
4.4408636614173229
20
-4.0517253543307081
11
4.4434181496062992
21
-4.0534322440944877
0
LINE
8
BLACK
6
CONTINUOUS
10
4.4434181496062992
20
-4.0534322440944877
11
4.4451250393700787
21
-4.0559867322834648
0
LINE
8
BLACK
6
CONTINUOUS
10
4.4451250393700787
20
-4.0559867322834648
11
4.4457244094488191
21
-4.0590000000000002
0
LINE
8
BLACK
6
CONTINUOUS
10
4.4457244094488191
20
-4.0590000000000002
11
4.4457244094488191
21
-4.2089999999999996
0
LINE
8
BLACK
6
CONTINUOUS
10
4.4457244094488191
20
-4.2089999999999996
11
4.4451250393700787
21
-4.2120132677165349
0
LINE
8
BLACK
6
CONTINUOUS
10
4.4451250393700787
20
-4.2120132677165349
11
4.4434181496062992
21
-4.2145677559055121
0
LINE
8
BLACK
6
CONTINUOUS
10
4.4434181496062992
20
-4.2145677559055121
11
4.4408636614173229
21
-4.2162746456692917
0
LINE
8
BLACK
6
CONTINUOUS
10
4.4408636614173229
20
-4.2162746456692917
11
4.4378503937007876
21
-4.2168740157480311
0
LINE
8
BLACK
6
CONTINUOUS
10
4.4378503937007876
20
-4.2168740157480311
11
4.2878503937007872
21
-4.2168740157480311
0
LINE
8
BLACK
6
CONTINUOUS
10
4.2878503937007872
20
-4.2168740157480311
11
4.2848371259842519
21
-4.2162746456692917
0
LINE
8
BLACK
6
CONTINUOUS
10
4.2848371259842519
20
-4.2162746456692917
11
4.2822826377952756
21
-4.2145677559055121
0
LINE
8
BLACK
6
CONTINUOUS
10
4.2822826377952756
20
-4.2145677559055121
11
4.2805757480314961
21
-4.2120132677165349
0
LINE
8
BLACK
6
CONTINUOUS
10
4.2805757480314961
20
-4.2120132677165349
11
4.2799763779527558
21
-4.2089999999999996
0
LINE
8
BLACK
6
CONTINUOUS
10
4.2799763779527558
20
-4.2089999999999996
11
4.2799763779527558
21
-4.0590000000000002
0
LINE
8
BLACK
6
CONTINUOUS
10
4.2799763779527558
20
-4.0590000000000002
11
4.2805757480314961
21
-4.0559867322834648
0
LINE
8
BLACK
6
CONTINUOUS
10
4.2805757480314961
20
-4.0559867322834648
11
4.2822826377952756
21
-4.0534322440944877
0
LINE
8
BLACK
6
CONTINUOUS
10
4.2822826377952756
20
-4.0534322440944877
11
4.2848371259842519
21
-4.0517253543307081
0
LINE
8
BLACK
6
CONTINUOUS
10
4.2848371259842519
20
-4.0517253543307081
11
4.2878503937007872
21
-4.0511259842519687
0
LINE
8
BLACK
6
CONTINUOUS
10
4.2878503937007872
20
-4.0511259842519687
11
4.4378503937007876
21
-4.0511259842519687
0
LINE
8
BLACK
6
CONTINUOUS
10
4.4378503937007876
20
-4.0511259842519687
11
4.4408636614173229
21
-4.0517253543307081
0
LINE
8
BLACK
6
CONTINUOUS
10
4.702225866141732
20
-4.1245954330708656
11
4.7047803543307083
21
-4.1263023228346452
0
LINE
8
BLACK
6
CONTINUOUS
10
4.7047803543307083
20
-4.1263023228346452
11
4.7064872440944878
21
-4.1288568110236223
0
LINE
8
BLACK
6
CONTINUOUS
10
4.7064872440944878
20
-4.1288568110236223
11
4.7070866141732282
21
-4.1318700787401577
0
LINE
8
BLACK
6
CONTINUOUS
10
4.7070866141732282
20
-4.1318700787401577
11
4.7070866141732282
21
-4.1712401574803151
0
LINE
8
BLACK
6
CONTINUOUS
10
4.7070866141732282
20
-4.1712401574803151
11
4.7064872440944878
21
-4.1742534251968504
0
LINE
8
BLACK
6
CONTINUOUS
10
4.7064872440944878
20
-4.1742534251968504
11
4.7047803543307083
21
-4.1768079133858267
0
LINE
8
BLACK
6
CONTINUOUS
10
4.7047803543307083
20
-4.1768079133858267
11
4.702225866141732
21
-4.1785148031496062
0
LINE
8
BLACK
6
CONTINUOUS
10
4.702225866141732
20
-4.1785148031496062
11
4.6992125984251967
21
-4.1791141732283466
0
LINE
8
BLACK
6
CONTINUOUS
10
4.6992125984251967
20
-4.1791141732283466
11
4.6007874015748031
21
-4.1791141732283466
0
LINE
8
BLACK
6
CONTINUOUS
10
4.6007874015748031
20
-4.1791141732283466
11
4.5977741338582678
21
-4.1785148031496062
0
LINE
8
BLACK
6
CONTINUOUS
10
4.5977741338582678
20
-4.1785148031496062
11
4.5952196456692915
21
-4.1768079133858267
0
LINE
8
BLACK
6
CONTINUOUS
10
4.5952196456692915
20
-4.1768079133858267
11
4.593512755905512
21
-4.1742534251968504
0
LINE
8
BLACK
6
CONTINUOUS
10
4.593512755905512
20
-4.1742534251968504
11
4.5929133858267717
21
-4.1712401574803151
0
LINE
8
BLACK
6
CONTINUOUS
10
4.5929133858267717
20
-4.1712401574803151
11
4.5929133858267717
21
-4.1318700787401577
0
LINE
8
BLACK
6
CONTINUOUS
10
4.5929133858267717
20
-4.1318700787401577
11
4.593512755905512
21
-4.1288568110236223
0
LINE
8
BLACK
6
CONTINUOUS
10
4.593512755905512
20
-4.1288568110236223
11
4.5952196456692915
21
-4.1263023228346452
0
LINE
8
BLACK
6
CONTINUOUS
10
4.5952196456692915
20
-4.1263023228346452
11
4.5977741338582678
21
-4.1245954330708656
0
LINE
8
BLACK
6
CONTINUOUS
10
4.5977741338582678
20
-4.1245954330708656
11
4.6007874015748031
21
-4.1239960629921262
0
LINE
8
BLACK
6
CONTINUOUS
10
4.6007874015748031
20
-4.1239960629921262
11
4.6992125984251967
21
-4.1239960629921262
0
LINE
8
BLACK
6
CONTINUOUS
10
4.6992125984251967
20
-4.1239960629921262
11
4.702225866141732
21
-4.1245954330708656
0
LINE
8
BLACK
6
CONTINUOUS
10
4.8422258661417326
20
-4.1245954330708656
11
4.8447803543307089
21
-4.1263023228346452
0
LINE
8
BLACK
6
CONTINUOUS
10
4.8447803543307089
20
-4.1263023228346452
11
4.8464872440944884
21
-4.1288568110236223
0
LINE
8
BLACK
6
CONTINUOUS
10
4.8464872440944884
20
-4.1288568110236223
11
4.8470866141732278
21
-4.1318700787401577
0
LINE
8
BLACK
6
CONTINUOUS
10
4.8470866141732278
20
-4.1318700787401577
11
4.8470866141732278
21
-4.1712401574803151
0
LINE
8
BLACK
6
CONTINUOUS
10
4.8470866141732278
20
-4.1712401574803151
11
4.8464872440944884
21
-4.1742534251968504
0
LINE
8
BLACK
6
CONTINUOUS
10
4.8464872440944884
20
-4.1742534251968504
11
4.8447803543307089
21
-4.1768079133858267
0
LINE
8
BLACK
6
CONTINUOUS
10
4.8447803543307089
20
-4.1768079133858267
11
4.8422258661417326
21
-4.1785148031496062
0
LINE
8
BLACK
6
CONTINUOUS
10
4.8422258661417326
20
-4.1785148031496062
11
4.8392125984251964
21
-4.1791141732283466
0
LINE
8
BLACK
6
CONTINUOUS
10
4.8392125984251964
20
-4.1791141732283466
11
4.7407874015748028
21
-4.1791141732283466
0
LINE
8
BLACK
6
CONTINUOUS
10
4.7407874015748028
20
-4.1791141732283466
11
4.7377741338582675
21
-4.1785148031496062
0
LINE
8
BLACK
6
CONTINUOUS
10
4.7377741338582675
20
-4.1785148031496062
11
4.7352196456692912
21
-4.1768079133858267
0
LINE
8
BLACK
6
CONTINUOUS
10
4.7352196456692912
20
-4.1768079133858267
11
4.7335127559055117
21
-4.1742534251968504
0
LINE
8
BLACK
6
CONTINUOUS
10
4.7335127559055117
20
-4.1742534251968504
11
4.7329133858267713
21
-4.1712401574803151
0
LINE
8
BLACK
6
CONTINUOUS
10
4.7329133858267713
20
-4.1712401574803151
11
4.7329133858267713
21
-4.1318700787401577
0
LINE
8
BLACK
6
CONTINUOUS
10
4.7329133858267713
20
-4.1318700787401577
11
4.7335127559055117
21
-4.1288568110236223
0
LINE
8
BLACK
6
CONTINUOUS
10
4.7335127559055117
20
-4.1288568110236223
11
4.7352196456692912
21
-4.1263023228346452
0
LINE
8
BLACK
6
CONTINUOUS
10
4.7352196456692912
20
-4.1263023228346452
11
4.7377741338582675
21
-4.1245954330708656
0
LINE
8
BLACK
6
CONTINUOUS
10
4.7377741338582675
20
-4.1245954330708656
11
4.7407874015748028
21
-4.1239960629921262
0
LINE
8
BLACK
6
CONTINUOUS
10
4.7407874015748028
20
-4.1239960629921262
11
4.8392125984251964
21
-4.1239960629921262
0
LINE
8
BLACK
6
CONTINUOUS
10
4.8392125984251964
20
-4.1239960629921262
11
4.8422258661417326
21
-4.1245954330708656
0
LINE
8
BLACK
6
CONTINUOUS
10
4.9822258661417322
20
-4.1245954330708656
11
4.9847803543307085
21
-4.1263023228346452
0
LINE
8
BLACK
6
CONTINUOUS
10
4.9847803543307085
20
-4.1263023228346452
11
4.9864872440944881
21
-4.1288568110236223
0
LINE
8
BLACK
6
CONTINUOUS
10
4.9864872440944881
20
-4.1288568110236223
11
4.9870866141732284
21
-4.1318700787401577
0
LINE
8
BLACK
6
CONTINUOUS
10
4.9870866141732284
20
-4.1318700787401577
11
4.9870866141732284
21
-4.1712401574803151
0
LINE
8
BLACK
6
CONTINUOUS
10
4.9870866141732284
20
-4.1712401574803151
11
4.9864872440944881
21
-4.1742534251968504
0
LINE
8
BLACK
6
CONTINUOUS
10
4.9864872440944881
20
-4.1742534251968504
11
4.9847803543307085
21
-4.1768079133858267
0
LINE
8
BLACK
6
CONTINUOUS
10
4.9847803543307085
20
-4.1768079133858267
11
4.9822258661417322
21
-4.1785148031496062
0
LINE
8
BLACK
6
CONTINUOUS
10
4.9822258661417322
20
-4.1785148031496062
11
4.9792125984251969
21
-4.1791141732283466
0
LINE
8
BLACK
6
CONTINUOUS
10
4.9792125984251969
20
-4.1791141732283466
11
4.8807874015748034
21
-4.1791141732283466
0
LINE
8
BLACK
6
CONTINUOUS
10
4.8807874015748034
20
-4.1791141732283466
11
4.8777741338582672
21
-4.1785148031496062
0
LINE
8
BLACK
6
CONTINUOUS
10
4.8777741338582672
20
-4.1785148031496062
11
4.8752196456692909
21
-4.1768079133858267
0
LINE
8
BLACK
6
CONTINUOUS
10
4.8752196456692909
20
-4.1768079133858267
11
4.8735127559055114
21
-4.1742534251968504
0
LINE
8
BLACK
6
CONTINUOUS
10
4.8735127559055114
20
-4.1742534251968504
11
4.8729133858267719
21
-4.1712401574803151
0
LINE
8
BLACK
6
CONTINUOUS
10
4.8729133858267719
20
-4.1712401574803151
11
4.8729133858267719
21
-4.1318700787401577
0
LINE
8
BLACK
6
CONTINUOUS
10
4.8729133858267719
20
-4.1318700787401577
11
4.8735127559055114
21
-4.1288568110236223
0
LINE
8
BLACK
6
CONTINUOUS
10
4.8735127559055114
20
-4.1288568110236223
11
4.8752196456692909
21
-4.1263023228346452
0
LINE
8
BLACK
6
CONTINUOUS
10
4.8752196456692909
20
-4.1263023228346452
11
4.8777741338582672
21
-4.1245954330708656
0
LINE
8
BLACK
6
CONTINUOUS
10
4.8777741338582672
20
-4.1245954330708656
11
4.8807874015748034
21
-4.1239960629921262
0
LINE
8
BLACK
6
CONTINUOUS
10
4.8807874015748034
20
-4.1239960629921262
11
4.9792125984251969
21
-4.1239960629921262
0
LINE
8
BLACK
6
CONTINUOUS
10
4.9792125984251969
20
-4.1239960629921262
11
4.9822258661417322
21
-4.1245954330708656
0
LINE
8
BLACK
6
CONTINUOUS
10
5.1222258661417319
20
-4.1245954330708656
11
5.1247803543307082
21
-4.1263023228346452
0
LINE
8
BLACK
6
CONTINUOUS
10
5.1247803543307082
20
-4.1263023228346452
11
5.1264872440944877
21
-4.1288568110236223
0
LINE
8
BLACK
6
CONTINUOUS
10
5.1264872440944877
20
-4.1288568110236223
11
5.1270866141732281
21
-4.1318700787401577
0
LINE
8
BLACK
6
CONTINUOUS
10
5.1270866141732281
20
-4.1318700787401577
11
5.1270866141732281
21
-4.1712401574803151
0
LINE
8
BLACK
6
CONTINUOUS
10
5.1270866141732281
20
-4.1712401574803151
11
5.1264872440944877
21
-4.1742534251968504
0
LINE
8
BLACK
6
CONTINUOUS
10
5.1264872440944877
20
-4.1742534251968504
11
5.1247803543307082
21
-4.1768079133858267
0
LINE
8
BLACK
6
CONTINUOUS
10
5.1247803543307082
20
-4.1768079133858267
11
5.1222258661417319
21
-4.1785148031496062
0
LINE
8
BLACK
6
CONTINUOUS
10
5.1222258661417319
20
-4.1785148031496062
11
5.1192125984251966
21
-4.1791141732283466
0
LINE
8
BLACK
6
CONTINUOUS
10
5.1192125984251966
20
-4.1791141732283466
11
5.0207874015748031
21
-4.1791141732283466
0
LINE
8
BLACK
6
CONTINUOUS
10
5.0207874015748031
20
-4.1791141732283466
11
5.0177741338582678
21
-4.1785148031496062
0
LINE
8
BLACK
6
CONTINUOUS
10
5.0177741338582678
20
-4.1785148031496062
11
5.0152196456692915
21
-4.1768079133858267
0
LINE
8
BLACK
6
CONTINUOUS
10
5.0152196456692915
20
-4.1768079133858267
11
5.0135127559055119
21
-4.1742534251968504
0
LINE
8
BLACK
6
CONTINUOUS
10
5.0135127559055119
20
-4.1742534251968504
11
5.0129133858267716
21
-4.1712401574803151
0
LINE
8
BLACK
6
CONTINUOUS
10
5.0129133858267716
20
-4.1712401574803151
11
5.0129133858267716
21
-4.1318700787401577
0
LINE
8
BLACK
6
CONTINUOUS
10
5.0129133858267716
20
-4.1318700787401577
11
5.0135127559055119
21
-4.1288568110236223
0
LINE
8
BLACK
6
CONTINUOUS
10
5.0135127559055119
20
-4.1288568110236223
11
5.0152196456692915
21
-4.1263023228346452
0
LINE
8
BLACK
6
CONTINUOUS
10
5.0152196456692915
20
-4.1263023228346452
11
5.0177741338582678
21
-4.1245954330708656
0
LINE
8
BLACK
6
CONTINUOUS
10
5.0177741338582678
20
-4.1245954330708656
11
5.0207874015748031
21
-4.1239960629921262
0
LINE
8
BLACK
6
CONTINUOUS
10
5.0207874015748031
20
-4.1239960629921262
11
5.1192125984251966
21
-4.1239960629921262
0
LINE
8
BLACK
6
CONTINUOUS
10
5.1192125984251966
20
-4.1239960629921262
11
5.1222258661417319
21
-4.1245954330708656
0
LINE
8
BLACK
6
CONTINUOUS
10
4.702225866141732
20
-4.0064851968503934
11
4.7047803543307083
21
-4.0081920866141729
0
LINE
8
BLACK
6
CONTINUOUS
10
4.7047803543307083
20
-4.0081920866141729
11
4.7064872440944878
21
-4.0107465748031492
0
LINE
8
BLACK
6
CONTINUOUS
10
4.7064872440944878
20
-4.0107465748031492
11
4.7070866141732282
21
-4.0137598425196845
0
LINE
8
BLACK
6
CONTINUOUS
10
4.7070866141732282
20
-4.0137598425196845
11
4.7070866141732282
21
-4.0531299212598428
0
LINE
8
BLACK
6
CONTINUOUS
10
4.7070866141732282
20
-4.0531299212598428
11
4.7064872440944878
21
-4.0561431889763782
0
LINE
8
BLACK
6
CONTINUOUS
10
4.7064872440944878
20
-4.0561431889763782
11
4.7047803543307083
21
-4.0586976771653545
0
LINE
8
BLACK
6
CONTINUOUS
10
4.7047803543307083
20
-4.0586976771653545
11
4.702225866141732
21
-4.060404566929134
0
LINE
8
BLACK
6
CONTINUOUS
10
4.702225866141732
20
-4.060404566929134
11
4.6992125984251967
21
-4.0610039370078743
0
LINE
8
BLACK
6
CONTINUOUS
10
4.6992125984251967
20
-4.0610039370078743
11
4.6007874015748031
21
-4.0610039370078743
0
LINE
8
BLACK
6
CONTINUOUS
10
4.6007874015748031
20
-4.0610039370078743
11
4.5977741338582678
21
-4.060404566929134
0
LINE
8
BLACK
6
CONTINUOUS
10
4.5977741338582678
20
-4.060404566929134
11
4.5952196456692915
21
-4.0586976771653545
0
LINE
8
BLACK
6
CONTINUOUS
10
4.5952196456692915
20
-4.0586976771653545
11
4.593512755905512
21
-4.0561431889763782
0
LINE
8
BLACK
6
CONTINUOUS
10
4.593512755905512
20
-4.0561431889763782
11
4.5929133858267717
21
-4.0531299212598428
0
LINE
8
BLACK
6
CONTINUOUS
10
4.5929133858267717
20
-4.0531299212598428
11
4.5929133858267717
21
-4.0137598425196845
0
LINE
8
BLACK
6
CONTINUOUS
10
4.5929133858267717
20
-4.0137598425196845
11
4.593512755905512
21
-4.0107465748031492
0
LINE
8
BLACK
6
CONTINUOUS
10
4.593512755905512
20
-4.0107465748031492
11
4.5952196456692915
21
-4.0081920866141729
0
LINE
8
BLACK
6
CONTINUOUS
10
4.5952196456692915
20
-4.0081920866141729
11
4.5977741338582678
21
-4.0064851968503934
0
LINE
8
BLACK
6
CONTINUOUS
10
4.5977741338582678
20
-4.0064851968503934
11
4.6007874015748031
21
-4.0058858267716531
0
LINE
8
BLACK
6
CONTINUOUS
10
4.6007874015748031
20
-4.0058858267716531
11
4.6992125984251967
21
-4.0058858267716531
0
LINE
8
BLACK
6
CONTINUOUS
10
4.6992125984251967
20
-4.0058858267716531
11
4.702225866141732
21
-4.0064851968503934
0
LINE
8
BLACK
6
CONTINUOUS
10
4.8422258661417326
20
-4.0064851968503934
11
4.8447803543307089
21
-4.0081920866141729
0
LINE
8
BLACK
6
CONTINUOUS
10
4.8447803543307089
20
-4.0081920866141729
11
4.8464872440944884
21
-4.0107465748031492
0
LINE
8
BLACK
6
CONTINUOUS
10
4.8464872440944884
20
-4.0107465748031492
11
4.8470866141732278
21
-4.0137598425196845
0
LINE
8
BLACK
6
CONTINUOUS
10
4.8470866141732278
20
-4.0137598425196845
11
4.8470866141732278
21
-4.0531299212598428
0
LINE
8
BLACK
6
CONTINUOUS
10
4.8470866141732278
20
-4.0531299212598428
11
4.8464872440944884
21
-4.0561431889763782
0
LINE
8
BLACK
6
CONTINUOUS
10
4.8464872440944884
20
-4.0561431889763782
11
4.8447803543307089
21
-4.0586976771653545
0
LINE
8
BLACK
6
CONTINUOUS
10
4.8447803543307089
20
-4.0586976771653545
11
4.8422258661417326
21
-4.060404566929134
0
LINE
8
BLACK
6
CONTINUOUS
10
4.8422258661417326
20
-4.060404566929134
11
4.8392125984251964
21
-4.0610039370078743
0
LINE
8
BLACK
6
CONTINUOUS
10
4.8392125984251964
20
-4.0610039370078743
11
4.7407874015748028
21
-4.0610039370078743
0
LINE
8
BLACK
6
CONTINUOUS
10
4.7407874015748028
20
-4.0610039370078743
11
4.7377741338582675
21
-4.060404566929134
0
LINE
8
BLACK
6
CONTINUOUS
10
4.7377741338582675
20
-4.060404566929134
11
4.7352196456692912
21
-4.0586976771653545
0
LINE
8
BLACK
6
CONTINUOUS
10
4.7352196456692912
20
-4.0586976771653545
11
4.7335127559055117
21
-4.0561431889763782
0
LINE
8
BLACK
6
CONTINUOUS
10
4.7335127559055117
20
-4.0561431889763782
11
4.7329133858267713
21
-4.0531299212598428
0
LINE
8
BLACK
6
CONTINUOUS
10
4.7329133858267713
20
-4.0531299212598428
11
4.7329133858267713
21
-4.0137598425196845
0
LINE
8
BLACK
6
CONTINUOUS
10
4.7329133858267713
20
-4.0137598425196845
11
4.7335127559055117
21
-4.0107465748031492
0
LINE
8
BLACK
6
CONTINUOUS
10
4.7335127559055117
20
-4.0107465748031492
11
4.7352196456692912
21
-4.0081920866141729
0
LINE
8
BLACK
6
CONTINUOUS
10
4.7352196456692912
20
-4.0081920866141729
11
4.7377741338582675
21
-4.0064851968503934
0
LINE
8
BLACK
6
CONTINUOUS
10
4.7377741338582675
20
-4.0064851968503934
11
4.7407874015748028
21
-4.0058858267716531
0
LINE
8
BLACK
6
CONTINUOUS
10
4.7407874015748028
20
-4.0058858267716531
11
4.8392125984251964
21
-4.0058858267716531
0
LINE
8
BLACK
6
CONTINUOUS
10
4.8392125984251964
20
-4.0058858267716531
11
4.8422258661417326
21
-4.0064851968503934
0
LINE
8
BLACK
6
CONTINUOUS
10
4.9822258661417322
20
-4.0064851968503934
11
4.9847803543307085
21
-4.0081920866141729
0
LINE
8
BLACK
6
CONTINUOUS
10
4.9847803543307085
20
-4.0081920866141729
11
4.9864872440944881
21
-4.0107465748031492
0
LINE
8
BLACK
6
CONTINUOUS
10
4.9864872440944881
20
-4.0107465748031492
11
4.9870866141732284
21
-4.0137598425196845
0
LINE
8
BLACK
6
CONTINUOUS
10
4.9870866141732284
20
-4.0137598425196845
11
4.9870866141732284
21
-4.0531299212598428
0
LINE
8
BLACK
6
CONTINUOUS
10
4.9870866141732284
20
-4.0531299212598428
11
4.9864872440944881
21
-4.0561431889763782
0
LINE
8
BLACK
6
CONTINUOUS
10
4.9864872440944881
20
-4.0561431889763782
11
4.9847803543307085
21
-4.0586976771653545
0
LINE
8
BLACK
6
CONTINUOUS
10
4.9847803543307085
20
-4.0586976771653545
11
4.9822258661417322
21
-4.060404566929134
0
LINE
8
BLACK
6
CONTINUOUS
10
4.9822258661417322
20
-4.060404566929134
11
4.9792125984251969
21
-4.0610039370078743
0
LINE
8
BLACK
6
CONTINUOUS
10
4.9792125984251969
20
-4.0610039370078743
11
4.8807874015748034
21
-4.0610039370078743
0
LINE
8
BLACK
6
CONTINUOUS
10
4.8807874015748034
20
-4.0610039370078743
11
4.8777741338582672
21
-4.060404566929134
0
LINE
8
BLACK
6
CONTINUOUS
10
4.8777741338582672
20
-4.060404566929134
11
4.8752196456692909
21
-4.0586976771653545
0
LINE
8
BLACK
6
CONTINUOUS
10
4.8752196456692909
20
-4.0586976771653545
11
4.8735127559055114
21
-4.0561431889763782
0
LINE
8
BLACK
6
CONTINUOUS
10
4.8735127559055114
20
-4.0561431889763782
11
4.8729133858267719
21
-4.0531299212598428
0
LINE
8
BLACK
6
CONTINUOUS
10
4.8729133858267719
20
-4.0531299212598428
11
4.8729133858267719
21
-4.0137598425196845
0
LINE
8
BLACK
6
CONTINUOUS
10
4.8729133858267719
20
-4.0137598425196845
11
4.8735127559055114
21
-4.0107465748031492
0
LINE
8
BLACK
6
CONTINUOUS
10
4.8735127559055114
20
-4.0107465748031492
11
4.8752196456692909
21
-4.0081920866141729
0
LINE
8
BLACK
6
CONTINUOUS
10
4.8752196456692909
20
-4.0081920866141729
11
4.8777741338582672
21
-4.0064851968503934
0
LINE
8
BLACK
6
CONTINUOUS
10
4.8777741338582672
20
-4.0064851968503934
11
4.8807874015748034
21
-4.0058858267716531
0
LINE
8
BLACK
6
CONTINUOUS
10
4.8807874015748034
20
-4.0058858267716531
11
4.9792125984251969
21
-4.0058858267716531
0
LINE
8
BLACK
6
CONTINUOUS
10
4.9792125984251969
20
-4.0058858267716531
11
4.9822258661417322
21
-4.0064851968503934
0
LINE
8
BLACK
6
CONTINUOUS
10
5.1222258661417319
20
-4.0064851968503934
11
5.1247803543307082
21
-4.0081920866141729
0
LINE
8
BLACK
6
CONTINUOUS
10
5.1247803543307082
20
-4.0081920866141729
11
5.1264872440944877
21
-4.0107465748031492
0
LINE
8
BLACK
6
CONTINUOUS
10
5.1264872440944877
20
-4.0107465748031492
11
5.1270866141732281
21
-4.0137598425196845
0
LINE
8
BLACK
6
CONTINUOUS
10
5.1270866141732281
20
-4.0137598425196845
11
5.1270866141732281
21
-4.0531299212598428
0
LINE
8
BLACK
6
CONTINUOUS
10
5.1270866141732281
20
-4.0531299212598428
11
5.1264872440944877
21
-4.0561431889763782
0
LINE
8
BLACK
6
CONTINUOUS
10
5.1264872440944877
20
-4.0561431889763782
11
5.1247803543307082
21
-4.0586976771653545
0
LINE
8
BLACK
6
CONTINUOUS
10
5.1247803543307082
20
-4.0586976771653545
11
5.1222258661417319
21
-4.060404566929134
0
LINE
8
BLACK
6
CONTINUOUS
10
5.1222258661417319
20
-4.060404566929134
11
5.1192125984251966
21
-4.0610039370078743
0
LINE
8
BLACK
6
CONTINUOUS
10
5.1192125984251966
20
-4.0610039370078743
11
5.0207874015748031
21
-4.0610039370078743
0
LINE
8
BLACK
6
CONTINUOUS
10
5.0207874015748031
20
-4.0610039370078743
11
5.0177741338582678
21
-4.060404566929134
0
LINE
8
BLACK
6
CONTINUOUS
10
5.0177741338582678
20
-4.060404566929134
11
5.0152196456692915
21
-4.0586976771653545
0
LINE
8
BLACK
6
CONTINUOUS
10
5.0152196456692915
20
-4.0586976771653545
11
5.0135127559055119
21
-4.0561431889763782
0
LINE
8
BLACK
6
CONTINUOUS
10
5.0135127559055119
20
-4.0561431889763782
11
5.0129133858267716
21
-4.0531299212598428
0
LINE
8
BLACK
6
CONTINUOUS
10
5.0129133858267716
20
-4.0531299212598428
11
5.0129133858267716
21
-4.0137598425196845
0
LINE
8
BLACK
6
CONTINUOUS
10
5.0129133858267716
20
-4.0137598425196845
11
5.0135127559055119
21
-4.0107465748031492
0
LINE
8
BLACK
6
CONTINUOUS
10
5.0135127559055119
20
-4.0107465748031492
11
5.0152196456692915
21
-4.0081920866141729
0
LINE
8
BLACK
6
CONTINUOUS
10
5.0152196456692915
20
-4.0081920866141729
11
5.0177741338582678
21
-4.0064851968503934
0
LINE
8
BLACK
6
CONTINUOUS
10
5.0177741338582678
20
-4.0064851968503934
11
5.0207874015748031
21
-4.0058858267716531
0
LINE
8
BLACK
6
CONTINUOUS
10
5.0207874015748031
20
-4.0058858267716531
11
5.1192125984251966
21
-4.0058858267716531
0
LINE
8
BLACK
6
CONTINUOUS
10
5.1192125984251966
20
-4.0058858267716531
11
5.1222258661417319
21
-4.0064851968503934
0
LINE
8
BLACK
6
CONTINUOUS
10
4.2442696456692914
20
-3.8548749606299211
11
4.2468241338582677
21
-3.8565818503937006
0
LINE
8
BLACK
6
CONTINUOUS
10
4.2468241338582677
20
-3.8565818503937006
11
4.2485310236220473
21
-3.8591363385826769
0
LINE
8
BLACK
6
CONTINUOUS
10
4.2485310236220473
20
-3.8591363385826769
11
4.2491303937007876
21
-3.8621496062992127
0
LINE
8
BLACK
6
CONTINUOUS
10
4.2491303937007876
20
-3.8621496062992127
11
4.2491303937007876
21
-4.0121496062992126
0
LINE
8
BLACK
6
CONTINUOUS
10
4.2491303937007876
20
-4.0121496062992126
11
4.2485310236220473
21
-4.0151628740157479
0
LINE
8
BLACK
6
CONTINUOUS
10
4.2485310236220473
20
-4.0151628740157479
11
4.2468241338582677
21
-4.0177173622047242
0
LINE
8
BLACK
6
CONTINUOUS
10
4.2468241338582677
20
-4.0177173622047242
11
4.2442696456692914
21
-4.0194242519685037
0
LINE
8
BLACK
6
CONTINUOUS
10
4.2442696456692914
20
-4.0194242519685037
11
4.2412563779527561
21
-4.0200236220472441
0
LINE
8
BLACK
6
CONTINUOUS
10
4.2412563779527561
20
-4.0200236220472441
11
4.0912563779527558
21
-4.0200236220472441
0
LINE
8
BLACK
6
CONTINUOUS
10
4.0912563779527558
20
-4.0200236220472441
11
4.0882431102362204
21
-4.0194242519685037
0
LINE
8
BLACK
6
CONTINUOUS
10
4.0882431102362204
20
-4.0194242519685037
11
4.0856886220472441
21
-4.0177173622047242
0
LINE
8
BLACK
6
CONTINUOUS
10
4.0856886220472441
20
-4.0177173622047242
11
4.0839817322834646
21
-4.0151628740157479
0
LINE
8
BLACK
6
CONTINUOUS
10
4.0839817322834646
20
-4.0151628740157479
11
4.0833823622047243
21
-4.0121496062992126
0
LINE
8
BLACK
6
CONTINUOUS
10
4.0833823622047243
20
-4.0121496062992126
11
4.0833823622047243
21
-3.8621496062992127
0
LINE
8
BLACK
6
CONTINUOUS
10
4.0833823622047243
20
-3.8621496062992127
11
4.0839817322834646
21
-3.8591363385826769
0
LINE
8
BLACK
6
CONTINUOUS
10
4.0839817322834646
20
-3.8591363385826769
11
4.0856886220472441
21
-3.8565818503937006
0
LINE
8
BLACK
6
CONTINUOUS
10
4.0856886220472441
20
-3.8565818503937006
11
4.0882431102362204
21
-3.8548749606299211
0
LINE
8
BLACK
6
CONTINUOUS
10
4.0882431102362204
20
-3.8548749606299211
11
4.0912563779527558
21
-3.8542755905511812
0
LINE
8
BLACK
6
CONTINUOUS
10
4.0912563779527558
20
-3.8542755905511812
11
4.2412563779527561
21
-3.8542755905511812
0
LINE
8
BLACK
6
CONTINUOUS
10
4.2412563779527561
20
-3.8542755905511812
11
4.2442696456692914
21
-3.8548749606299211
0
LINE
8
BLACK
6
CONTINUOUS
10
4.4411200393700785
20
-3.8548749606299211
11
4.4436745275590548
21
-3.8565818503937006
0
LINE
8
BLACK
6
CONTINUOUS
10
4.4436745275590548
20
-3.8565818503937006
11
4.4453814173228343
21
-3.8591363385826769
0
LINE
8
BLACK
6
CONTINUOUS
10
4.4453814173228343
20
-3.8591363385826769
11
4.4459807874015747
21
-3.8621496062992127
0
LINE
8
BLACK
6
CONTINUOUS
10
4.4459807874015747
20
-3.8621496062992127
11
4.4459807874015747
21
-4.0121496062992126
0
LINE
8
BLACK
6
CONTINUOUS
10
4.4459807874015747
20
-4.0121496062992126
11
4.4453814173228343
21
-4.0151628740157479
0
LINE
8
BLACK
6
CONTINUOUS
10
4.4453814173228343
20
-4.0151628740157479
11
4.4436745275590548
21
-4.0177173622047242
0
LINE
8
BLACK
6
CONTINUOUS
10
4.4436745275590548
20
-4.0177173622047242
11
4.4411200393700785
21
-4.0194242519685037
0
LINE
8
BLACK
6
CONTINUOUS
10
4.4411200393700785
20
-4.0194242519685037
11
4.4381067716535432
21
-4.0200236220472441
0
LINE
8
BLACK
6
CONTINUOUS
10
4.4381067716535432
20
-4.0200236220472441
11
4.2881067716535428
21
-4.0200236220472441
0
LINE
8
BLACK
6
CONTINUOUS
10
4.2881067716535428
20
-4.0200236220472441
11
4.2850935039370075
21
-4.0194242519685037
0
LINE
8
BLACK
6
CONTINUOUS
10
4.2850935039370075
20
-4.0194242519685037
11
4.2825390157480312
21
-4.0177173622047242
0
LINE
8
BLACK
6
CONTINUOUS
10
4.2825390157480312
20
-4.0177173622047242
11
4.2808321259842517
21
-4.0151628740157479
0
LINE
8
BLACK
6
CONTINUOUS
10
4.2808321259842517
20
-4.0151628740157479
11
4.2802327559055113
21
-4.0121496062992126
0
LINE
8
BLACK
6
CONTINUOUS
10
4.2802327559055113
20
-4.0121496062992126
11
4.2802327559055113
21
-3.8621496062992127
0
LINE
8
BLACK
6
CONTINUOUS
10
4.2802327559055113
20
-3.8621496062992127
11
4.2808321259842517
21
-3.8591363385826769
0
LINE
8
BLACK
6
CONTINUOUS
10
4.2808321259842517
20
-3.8591363385826769
11
4.2825390157480312
21
-3.8565818503937006
0
LINE
8
BLACK
6
CONTINUOUS
10
4.2825390157480312
20
-3.8565818503937006
11
4.2850935039370075
21
-3.8548749606299211
0
LINE
8
BLACK
6
CONTINUOUS
10
4.2850935039370075
20
-3.8548749606299211
11
4.2881067716535428
21
-3.8542755905511812
0
LINE
8
BLACK
6
CONTINUOUS
10
4.2881067716535428
20
-3.8542755905511812
11
4.4381067716535432
21
-3.8542755905511812
0
LINE
8
BLACK
6
CONTINUOUS
10
4.4381067716535432
20
-3.8542755905511812
11
4.4411200393700785
21
-3.8548749606299211
0
LINE
8
BLACK
6
CONTINUOUS
10
4.842462086614173
20
-3.7397332283464566
11
4.8450165748031493
21
-3.7414401181102361
0
LINE
8
BLACK
6
CONTINUOUS
10
4.8450165748031493
20
-3.7414401181102361
11
4.8467234645669288
21
-3.7439946062992124
0
LINE
8
BLACK
6
CONTINUOUS
10
4.8467234645669288
20
-3.7439946062992124
11
4.8473228346456692
21
-3.7470078740157478
0
LINE
8
BLACK
6
CONTINUOUS
10
4.8473228346456692
20
-3.7470078740157478
11
4.8473228346456692
21
-3.8729921259842519
0
LINE
8
BLACK
6
CONTINUOUS
10
4.8473228346456692
20
-3.8729921259842519
11
4.8467234645669288
21
-3.8760053937007872
0
LINE
8
BLACK
6
CONTINUOUS
10
4.8467234645669288
20
-3.8760053937007872
11
4.8450165748031493
21
-3.8785598818897635
0
LINE
8
BLACK
6
CONTINUOUS
10
4.8450165748031493
20
-3.8785598818897635
11
4.842462086614173
21
-3.8802667716535431
0
LINE
8
BLACK
6
CONTINUOUS
10
4.842462086614173
20
-3.8802667716535431
11
4.8394488188976377
21
-3.8808661417322834
0
LINE
8
BLACK
6
CONTINUOUS
10
4.8394488188976377
20
-3.8808661417322834
11
4.7370866141732284
21
-3.8808661417322834
0
LINE
8
BLACK
6
CONTINUOUS
10
4.7370866141732284
20
-3.8808661417322834
11
4.7340733464566931
21
-3.8802667716535431
0
LINE
8
BLACK
6
CONTINUOUS
10
4.7340733464566931
20
-3.8802667716535431
11
4.7315188582677168
21
-3.8785598818897635
0
LINE
8
BLACK
6
CONTINUOUS
10
4.7315188582677168
20
-3.8785598818897635
11
4.7298119685039373
21
-3.8760053937007872
0
LINE
8
BLACK
6
CONTINUOUS
10
4.7298119685039373
20
-3.8760053937007872
11
4.7292125984251969
21
-3.8729921259842519
0
LINE
8
BLACK
6
CONTINUOUS
10
4.7292125984251969
20
-3.8729921259842519
11
4.7292125984251969
21
-3.7470078740157478
0
LINE
8
BLACK
6
CONTINUOUS
10
4.7292125984251969
20
-3.7470078740157478
11
4.7298119685039373
21
-3.7439946062992124
0
LINE
8
BLACK
6
CONTINUOUS
10
4.7298119685039373
20
-3.7439946062992124
11
4.7315188582677168
21
-3.7414401181102361
0
LINE
8
BLACK
6
CONTINUOUS
10
4.7315188582677168
20
-3.7414401181102361
11
4.7340733464566931
21
-3.7397332283464566
0
LINE
8
BLACK
6
CONTINUOUS
10
4.7340733464566931
20
-3.7397332283464566
11
4.7370866141732284
21
-3.7391338582677163
0
LINE
8
BLACK
6
CONTINUOUS
10
4.7370866141732284
20
-3.7391338582677163
11
4.8394488188976377
21
-3.7391338582677163
0
LINE
8
BLACK
6
CONTINUOUS
10
4.8394488188976377
20
-3.7391338582677163
11
4.842462086614173
21
-3.7397332283464566
0
LINE
8
BLACK
6
CONTINUOUS
10
5.1259266535433072
20
-3.7397332283464566
11
5.1284811417322835
21
-3.7414401181102361
0
LINE
8
BLACK
6
CONTINUOUS
10
5.1284811417322835
20
-3.7414401181102361
11
5.1301880314960631
21
-3.7439946062992124
0
LINE
8
BLACK
6
CONTINUOUS
10
5.1301880314960631
20
-3.7439946062992124
11
5.1307874015748034
21
-3.7470078740157478
0
LINE
8
BLACK
6
CONTINUOUS
10
5.1307874015748034
20
-3.7470078740157478
11
5.1307874015748034
21
-3.8729921259842519
0
LINE
8
BLACK
6
CONTINUOUS
10
5.1307874015748034
20
-3.8729921259842519
11
5.1301880314960631
21
-3.8760053937007872
0
LINE
8
BLACK
6
CONTINUOUS
10
5.1301880314960631
20
-3.8760053937007872
11
5.1284811417322835
21
-3.8785598818897635
0
LINE
8
BLACK
6
CONTINUOUS
10
5.1284811417322835
20
-3.8785598818897635
11
5.1259266535433072
21
-3.8802667716535431
0
LINE
8
BLACK
6
CONTINUOUS
10
5.1259266535433072
20
-3.8802667716535431
11
5.1229133858267719
21
-3.8808661417322834
0
LINE
8
BLACK
6
CONTINUOUS
10
5.1229133858267719
20
-3.8808661417322834
11
5.0205511811023618
21
-3.8808661417322834
0
LINE
8
BLACK
6
CONTINUOUS
10
5.0205511811023618
20
-3.8808661417322834
11
5.0175379133858264
21
-3.8802667716535431
0
LINE
8
BLACK
6
CONTINUOUS
10
5.0175379133858264
20
-3.8802667716535431
11
5.0149834251968501
21
-3.8785598818897635
0
LINE
8
BLACK
6
CONTINUOUS
10
5.0149834251968501
20
-3.8785598818897635
11
5.0132765354330706
21
-3.8760053937007872
0
LINE
8
BLACK
6
CONTINUOUS
10
5.0132765354330706
20
-3.8760053937007872
11
5.0126771653543303
21
-3.8729921259842519
0
LINE
8
BLACK
6
CONTINUOUS
10
5.0126771653543303
20
-3.8729921259842519
11
5.0126771653543303
21
-3.7470078740157478
0
LINE
8
BLACK
6
CONTINUOUS
10
5.0126771653543303
20
-3.7470078740157478
11
5.0132765354330706
21
-3.7439946062992124
0
LINE
8
BLACK
6
CONTINUOUS
10
5.0132765354330706
20
-3.7439946062992124
11
5.0149834251968501
21
-3.7414401181102361
0
LINE
8
BLACK
6
CONTINUOUS
10
5.0149834251968501
20
-3.7414401181102361
11
5.0175379133858264
21
-3.7397332283464566
0
LINE
8
BLACK
6
CONTINUOUS
10
5.0175379133858264
20
-3.7397332283464566
11
5.0205511811023618
21
-3.7391338582677163
0
LINE
8
BLACK
6
CONTINUOUS
10
5.0205511811023618
20
-3.7391338582677163
11
5.1229133858267719
21
-3.7391338582677163
0
LINE
8
BLACK
6
CONTINUOUS
10
5.1229133858267719
20
-3.7391338582677163
11
5.1259266535433072
21
-3.7397332283464566
0
LINE
8
BLACK
6
CONTINUOUS
10
5.5093132677165357
20
-3.7087253543307086
11
5.511867755905512
21
-3.7104322440944881
0
LINE
8
BLACK
6
CONTINUOUS
10
5.511867755905512
20
-3.7104322440944881
11
5.5135746456692916
21
-3.7129867322834644
0
LINE
8
BLACK
6
CONTINUOUS
10
5.5135746456692916
20
-3.7129867322834644
11
5.514174015748031
21
-3.7159999999999997
0
LINE
8
BLACK
6
CONTINUOUS
10
5.514174015748031
20
-3.7159999999999997
11
5.514174015748031
21
-3.8302
0
LINE
8
BLACK
6
CONTINUOUS
10
5.514174015748031
20
-3.8302
11
5.5135746456692916
21
-3.8332132677165354
0
LINE
8
BLACK
6
CONTINUOUS
10
5.5135746456692916
20
-3.8332132677165354
11
5.511867755905512
21
-3.8357677559055117
0
LINE
8
BLACK
6
CONTINUOUS
10
5.511867755905512
20
-3.8357677559055117
11
5.5093132677165357
21
-3.8374746456692912
0
LINE
8
BLACK
6
CONTINUOUS
10
5.5093132677165357
20
-3.8374746456692912
11
5.5062999999999995
21
-3.8380740157480315
0
LINE
8
BLACK
6
CONTINUOUS
10
5.5062999999999995
20
-3.8380740157480315
11
5.2937000000000003
21
-3.8380740157480315
0
LINE
8
BLACK
6
CONTINUOUS
10
5.2937000000000003
20
-3.8380740157480315
11
5.2906867322834641
21
-3.8374746456692912
0
LINE
8
BLACK
6
CONTINUOUS
10
5.2906867322834641
20
-3.8374746456692912
11
5.2881322440944878
21
-3.8357677559055117
0
LINE
8
BLACK
6
CONTINUOUS
10
5.2881322440944878
20
-3.8357677559055117
11
5.2864253543307083
21
-3.8332132677165354
0
LINE
8
BLACK
6
CONTINUOUS
10
5.2864253543307083
20
-3.8332132677165354
11
5.2858259842519688
21
-3.8302
0
LINE
8
BLACK
6
CONTINUOUS
10
5.2858259842519688
20
-3.8302
11
5.2858259842519688
21
-3.7159999999999997
0
LINE
8
BLACK
6
CONTINUOUS
10
5.2858259842519688
20
-3.7159999999999997
11
5.2864253543307083
21
-3.7129867322834644
0
LINE
8
BLACK
6
CONTINUOUS
10
5.2864253543307083
20
-3.7129867322834644
11
5.2881322440944878
21
-3.7104322440944881
0
LINE
8
BLACK
6
CONTINUOUS
10
5.2881322440944878
20
-3.7104322440944881
11
5.2906867322834641
21
-3.7087253543307086
0
LINE
8
BLACK
6
CONTINUOUS
10
5.2906867322834641
20
-3.7087253543307086
11
5.2937000000000003
21
-3.7081259842519683
0
LINE
8
BLACK
6
CONTINUOUS
10
5.2937000000000003
20
-3.7081259842519683
11
5.5062999999999995
21
-3.7081259842519683
0
LINE
8
BLACK
6
CONTINUOUS
10
5.5062999999999995
20
-3.7081259842519683
11
5.5093132677165357
21
-3.7087253543307086
0
LINE
8
BLACK
6
CONTINUOUS
10
4.2442696456692914
20
-3.6580245669291336
11
4.2468241338582677
21
-3.6597314566929131
0
LINE
8
BLACK
6
CONTINUOUS
10
4.2468241338582677
20
-3.6597314566929131
11
4.2485310236220473
21
-3.6622859448818899
0
LINE
8
BLACK
6
CONTINUOUS
10
4.2485310236220473
20
-3.6622859448818899
11
4.2491303937007876
21
-3.6652992125984252
0
LINE
8
BLACK
6
CONTINUOUS
10
4.2491303937007876
20
-3.6652992125984252
11
4.2491303937007876
21
-3.8152992125984251
0
LINE
8
BLACK
6
CONTINUOUS
10
4.2491303937007876
20
-3.8152992125984251
11
4.2485310236220473
21
-3.8183124803149604
0
LINE
8
BLACK
6
CONTINUOUS
10
4.2485310236220473
20
-3.8183124803149604
11
4.2468241338582677
21
-3.8208669685039367
0
LINE
8
BLACK
6
CONTINUOUS
10
4.2468241338582677
20
-3.8208669685039367
11
4.2442696456692914
21
-3.8225738582677162
0
LINE
8
BLACK
6
CONTINUOUS
10
4.2442696456692914
20
-3.8225738582677162
11
4.2412563779527561
21
-3.8231732283464566
0
LINE
8
BLACK
6
CONTINUOUS
10
4.2412563779527561
20
-3.8231732283464566
11
4.0912563779527558
21
-3.8231732283464566
0
LINE
8
BLACK
6
CONTINUOUS
10
4.0912563779527558
20
-3.8231732283464566
11
4.0882431102362204
21
-3.8225738582677162
0
LINE
8
BLACK
6
CONTINUOUS
10
4.0882431102362204
20
-3.8225738582677162
11
4.0856886220472441
21
-3.8208669685039367
0
LINE
8
BLACK
6
CONTINUOUS
10
4.0856886220472441
20
-3.8208669685039367
11
4.0839817322834646
21
-3.8183124803149604
0
LINE
8
BLACK
6
CONTINUOUS
10
4.0839817322834646
20
-3.8183124803149604
11
4.0833823622047243
21
-3.8152992125984251
0
LINE
8
BLACK
6
CONTINUOUS
10
4.0833823622047243
20
-3.8152992125984251
11
4.0833823622047243
21
-3.6652992125984252
0
LINE
8
BLACK
6
CONTINUOUS
10
4.0833823622047243
20
-3.6652992125984252
11
4.0839817322834646
21
-3.6622859448818899
0
LINE
8
BLACK
6
CONTINUOUS
10
4.0839817322834646
20
-3.6622859448818899
11
4.0856886220472441
21
-3.6597314566929131
0
LINE
8
BLACK
6
CONTINUOUS
10
4.0856886220472441
20
-3.6597314566929131
11
4.0882431102362204
21
-3.6580245669291336
0
LINE
8
BLACK
6
CONTINUOUS
10
4.0882431102362204
20
-3.6580245669291336
11
4.0912563779527558
21
-3.6574251968503937
0
LINE
8
BLACK
6
CONTINUOUS
10
4.0912563779527558
20
-3.6574251968503937
11
4.2412563779527561
21
-3.6574251968503937
0
LINE
8
BLACK
6
CONTINUOUS
10
4.2412563779527561
20
-3.6574251968503937
11
4.2442696456692914
21
-3.6580245669291336
0
LINE
8
BLACK
6
CONTINUOUS
10
4.4411200393700785
20
-3.6580245669291336
11
4.4436745275590548
21
-3.6597314566929131
0
LINE
8
BLACK
6
CONTINUOUS
10
4.4436745275590548
20
-3.6597314566929131
11
4.4453814173228343
21
-3.6622859448818899
0
LINE
8
BLACK
6
CONTINUOUS
10
4.4453814173228343
20
-3.6622859448818899
11
4.4459807874015747
21
-3.6652992125984252
0
LINE
8
BLACK
6
CONTINUOUS
10
4.4459807874015747
20
-3.6652992125984252
11
4.4459807874015747
21
-3.8152992125984251
0
LINE
8
BLACK
6
CONTINUOUS
10
4.4459807874015747
20
-3.8152992125984251
11
4.4453814173228343
21
-3.8183124803149604
0
LINE
8
BLACK
6
CONTINUOUS
10
4.4453814173228343
20
-3.8183124803149604
11
4.4436745275590548
21
-3.8208669685039367
0
LINE
8
BLACK
6
CONTINUOUS
10
4.4436745275590548
20
-3.8208669685039367
11
4.4411200393700785
21
-3.8225738582677162
0
LINE
8
BLACK
6
CONTINUOUS
10
4.4411200393700785
20
-3.8225738582677162
11
4.4381067716535432
21
-3.8231732283464566
0
LINE
8
BLACK
6
CONTINUOUS
10
4.4381067716535432
20
-3.8231732283464566
11
4.2881067716535428
21
-3.8231732283464566
0
LINE
8
BLACK
6
CONTINUOUS
10
4.2881067716535428
20
-3.8231732283464566
11
4.2850935039370075
21
-3.8225738582677162
0
LINE
8
BLACK
6
CONTINUOUS
10
4.2850935039370075
20
-3.8225738582677162
11
4.2825390157480312
21
-3.8208669685039367
0
LINE
8
BLACK
6
CONTINUOUS
10
4.2825390157480312
20
-3.8208669685039367
11
4.2808321259842517
21
-3.8183124803149604
0
LINE
8
BLACK
6
CONTINUOUS
10
4.2808321259842517
20
-3.8183124803149604
11
4.2802327559055113
21
-3.8152992125984251
0
LINE
8
BLACK
6
CONTINUOUS
10
4.2802327559055113
20
-3.8152992125984251
11
4.2802327559055113
21
-3.6652992125984252
0
LINE
8
BLACK
6
CONTINUOUS
10
4.2802327559055113
20
-3.6652992125984252
11
4.2808321259842517
21
-3.6622859448818899
0
LINE
8
BLACK
6
CONTINUOUS
10
4.2808321259842517
20
-3.6622859448818899
11
4.2825390157480312
21
-3.6597314566929131
0
LINE
8
BLACK
6
CONTINUOUS
10
4.2825390157480312
20
-3.6597314566929131
11
4.2850935039370075
21
-3.6580245669291336
0
LINE
8
BLACK
6
CONTINUOUS
10
4.2850935039370075
20
-3.6580245669291336
11
4.2881067716535428
21
-3.6574251968503937
0
LINE
8
BLACK
6
CONTINUOUS
10
4.2881067716535428
20
-3.6574251968503937
11
4.4381067716535432
21
-3.6574251968503937
0
LINE
8
BLACK
6
CONTINUOUS
10
4.4381067716535432
20
-3.6574251968503937
11
4.4411200393700785
21
-3.6580245669291336
0
LINE
8
BLACK
6
CONTINUOUS
10
4.7122258661417318
20
-3.5720954330708659
11
4.714780354330709
21
-3.5738023228346454
0
LINE
8
BLACK
6
CONTINUOUS
10
4.714780354330709
20
-3.5738023228346454
11
4.7164872440944885
21
-3.5763568110236221
0
LINE
8
BLACK
6
CONTINUOUS
10
4.7164872440944885
20
-3.5763568110236221
11
4.7170866141732279
21
-3.5793700787401574
0
LINE
8
BLACK
6
CONTINUOUS
10
4.7170866141732279
20
-3.5793700787401574
11
4.7170866141732279
21
-3.6187401574803149
0
LINE
8
BLACK
6
CONTINUOUS
10
4.7170866141732279
20
-3.6187401574803149
11
4.7164872440944885
21
-3.6217534251968502
0
LINE
8
BLACK
6
CONTINUOUS
10
4.7164872440944885
20
-3.6217534251968502
11
4.714780354330709
21
-3.6243079133858265
0
LINE
8
BLACK
6
CONTINUOUS
10
4.714780354330709
20
-3.6243079133858265
11
4.7122258661417318
21
-3.626014803149606
0
LINE
8
BLACK
6
CONTINUOUS
10
4.7122258661417318
20
-3.626014803149606
11
4.7092125984251965
21
-3.6266141732283463
0
LINE
8
BLACK
6
CONTINUOUS
10
4.7092125984251965
20
-3.6266141732283463
11
4.6107874015748029
21
-3.6266141732283463
0
LINE
8
BLACK
6
CONTINUOUS
10
4.6107874015748029
20
-3.6266141732283463
11
4.6077741338582676
21
-3.626014803149606
0
LINE
8
BLACK
6
CONTINUOUS
10
4.6077741338582676
20
-3.626014803149606
11
4.6052196456692913
21
-3.6243079133858265
0
LINE
8
BLACK
6
CONTINUOUS
10
4.6052196456692913
20
-3.6243079133858265
11
4.6035127559055118
21
-3.6217534251968502
0
LINE
8
BLACK
6
CONTINUOUS
10
4.6035127559055118
20
-3.6217534251968502
11
4.6029133858267715
21
-3.6187401574803149
0
LINE
8
BLACK
6
CONTINUOUS
10
4.6029133858267715
20
-3.6187401574803149
11
4.6029133858267715
21
-3.5793700787401574
0
LINE
8
BLACK
6
CONTINUOUS
10
4.6029133858267715
20
-3.5793700787401574
11
4.6035127559055118
21
-3.5763568110236221
0
LINE
8
BLACK
6
CONTINUOUS
10
4.6035127559055118
20
-3.5763568110236221
11
4.6052196456692913
21
-3.5738023228346454
0
LINE
8
BLACK
6
CONTINUOUS
10
4.6052196456692913
20
-3.5738023228346454
11
4.6077741338582676
21
-3.5720954330708659
0
LINE
8
BLACK
6
CONTINUOUS
10
4.6077741338582676
20
-3.5720954330708659
11
4.6107874015748029
21
-3.571496062992126
0
LINE
8
BLACK
6
CONTINUOUS
10
4.6107874015748029
20
-3.571496062992126
11
4.7092125984251965
21
-3.571496062992126
0
LINE
8
BLACK
6
CONTINUOUS
10
4.7092125984251965
20
-3.571496062992126
11
4.7122258661417318
21
-3.5720954330708659
0
LINE
8
BLACK
6
CONTINUOUS
10
4.8522258661417323
20
-3.5720954330708659
11
4.8547803543307086
21
-3.5738023228346454
0
LINE
8
BLACK
6
CONTINUOUS
10
4.8547803543307086
20
-3.5738023228346454
11
4.8564872440944882
21
-3.5763568110236221
0
LINE
8
BLACK
6
CONTINUOUS
10
4.8564872440944882
20
-3.5763568110236221
11
4.8570866141732285
21
-3.5793700787401574
0
LINE
8
BLACK
6
CONTINUOUS
10
4.8570866141732285
20
-3.5793700787401574
11
4.8570866141732285
21
-3.6187401574803149
0
LINE
8
BLACK
6
CONTINUOUS
10
4.8570866141732285
20
-3.6187401574803149
11
4.8564872440944882
21
-3.6217534251968502
0
LINE
8
BLACK
6
CONTINUOUS
10
4.8564872440944882
20
-3.6217534251968502
11
4.8547803543307086
21
-3.6243079133858265
0
LINE
8
BLACK
6
CONTINUOUS
10
4.8547803543307086
20
-3.6243079133858265
11
4.8522258661417323
21
-3.626014803149606
0
LINE
8
BLACK
6
CONTINUOUS
10
4.8522258661417323
20
-3.626014803149606
11
4.849212598425197
21
-3.6266141732283463
0
LINE
8
BLACK
6
CONTINUOUS
10
4.849212598425197
20
-3.6266141732283463
11
4.7507874015748026
21
-3.6266141732283463
0
LINE
8
BLACK
6
CONTINUOUS
10
4.7507874015748026
20
-3.6266141732283463
11
4.7477741338582673
21
-3.626014803149606
0
LINE
8
BLACK
6
CONTINUOUS
10
4.7477741338582673
20
-3.626014803149606
11
4.745219645669291
21
-3.6243079133858265
0
LINE
8
BLACK
6
CONTINUOUS
10
4.745219645669291
20
-3.6243079133858265
11
4.7435127559055115
21
-3.6217534251968502
0
LINE
8
BLACK
6
CONTINUOUS
10
4.7435127559055115
20
-3.6217534251968502
11
4.7429133858267711
21
-3.6187401574803149
0
LINE
8
BLACK
6
CONTINUOUS
10
4.7429133858267711
20
-3.6187401574803149
11
4.7429133858267711
21
-3.5793700787401574
0
LINE
8
BLACK
6
CONTINUOUS
10
4.7429133858267711
20
-3.5793700787401574
11
4.7435127559055115
21
-3.5763568110236221
0
LINE
8
BLACK
6
CONTINUOUS
10
4.7435127559055115
20
-3.5763568110236221
11
4.745219645669291
21
-3.5738023228346454
0
LINE
8
BLACK
6
CONTINUOUS
10
4.745219645669291
20
-3.5738023228346454
11
4.7477741338582673
21
-3.5720954330708659
0
LINE
8
BLACK
6
CONTINUOUS
10
4.7477741338582673
20
-3.5720954330708659
11
4.7507874015748026
21
-3.571496062992126
0
LINE
8
BLACK
6
CONTINUOUS
10
4.7507874015748026
20
-3.571496062992126
11
4.849212598425197
21
-3.571496062992126
0
LINE
8
BLACK
6
CONTINUOUS
10
4.849212598425197
20
-3.571496062992126
11
4.8522258661417323
21
-3.5720954330708659
0
LINE
8
BLACK
6
CONTINUOUS
10
4.992225866141732
20
-3.5720954330708659
11
4.9947803543307083
21
-3.5738023228346454
0
LINE
8
BLACK
6
CONTINUOUS
10
4.9947803543307083
20
-3.5738023228346454
11
4.9964872440944879
21
-3.5763568110236221
0
LINE
8
BLACK
6
CONTINUOUS
10
4.9964872440944879
20
-3.5763568110236221
11
4.9970866141732282
21
-3.5793700787401574
0
LINE
8
BLACK
6
CONTINUOUS
10
4.9970866141732282
20
-3.5793700787401574
11
4.9970866141732282
21
-3.6187401574803149
0
LINE
8
BLACK
6
CONTINUOUS
10
4.9970866141732282
20
-3.6187401574803149
11
4.9964872440944879
21
-3.6217534251968502
0
LINE
8
BLACK
6
CONTINUOUS
10
4.9964872440944879
20
-3.6217534251968502
11
4.9947803543307083
21
-3.6243079133858265
0
LINE
8
BLACK
6
CONTINUOUS
10
4.9947803543307083
20
-3.6243079133858265
11
4.992225866141732
21
-3.626014803149606
0
LINE
8
BLACK
6
CONTINUOUS
10
4.992225866141732
20
-3.626014803149606
11
4.9892125984251967
21
-3.6266141732283463
0
LINE
8
BLACK
6
CONTINUOUS
10
4.9892125984251967
20
-3.6266141732283463
11
4.8907874015748032
21
-3.6266141732283463
0
LINE
8
BLACK
6
CONTINUOUS
10
4.8907874015748032
20
-3.6266141732283463
11
4.8877741338582679
21
-3.626014803149606
0
LINE
8
BLACK
6
CONTINUOUS
10
4.8877741338582679
20
-3.626014803149606
11
4.8852196456692916
21
-3.6243079133858265
0
LINE
8
BLACK
6
CONTINUOUS
10
4.8852196456692916
20
-3.6243079133858265
11
4.883512755905512
21
-3.6217534251968502
0
LINE
8
BLACK
6
CONTINUOUS
10
4.883512755905512
20
-3.6217534251968502
11
4.8829133858267717
21
-3.6187401574803149
0
LINE
8
BLACK
6
CONTINUOUS
10
4.8829133858267717
20
-3.6187401574803149
11
4.8829133858267717
21
-3.5793700787401574
0
LINE
8
BLACK
6
CONTINUOUS
10
4.8829133858267717
20
-3.5793700787401574
11
4.883512755905512
21
-3.5763568110236221
0
LINE
8
BLACK
6
CONTINUOUS
10
4.883512755905512
20
-3.5763568110236221
11
4.8852196456692916
21
-3.5738023228346454
0
LINE
8
BLACK
6
CONTINUOUS
10
4.8852196456692916
20
-3.5738023228346454
11
4.8877741338582679
21
-3.5720954330708659
0
LINE
8
BLACK
6
CONTINUOUS
10
4.8877741338582679
20
-3.5720954330708659
11
4.8907874015748032
21
-3.571496062992126
0
LINE
8
BLACK
6
CONTINUOUS
10
4.8907874015748032
20
-3.571496062992126
11
4.9892125984251967
21
-3.571496062992126
0
LINE
8
BLACK
6
CONTINUOUS
10
4.9892125984251967
20
-3.571496062992126
11
4.992225866141732
21
-3.5720954330708659
0
LINE
8
BLACK
6
CONTINUOUS
10
5.1322258661417326
20
-3.5720954330708659
11
5.1347803543307089
21
-3.5738023228346454
0
LINE
8
BLACK
6
CONTINUOUS
10
5.1347803543307089
20
-3.5738023228346454
11
5.1364872440944884
21
-3.5763568110236221
0
LINE
8
BLACK
6
CONTINUOUS
10
5.1364872440944884
20
-3.5763568110236221
11
5.1370866141732279
21
-3.5793700787401574
0
LINE
8
BLACK
6
CONTINUOUS
10
5.1370866141732279
20
-3.5793700787401574
11
5.1370866141732279
21
-3.6187401574803149
0
LINE
8
BLACK
6
CONTINUOUS
10
5.1370866141732279
20
-3.6187401574803149
11
5.1364872440944884
21
-3.6217534251968502
0
LINE
8
BLACK
6
CONTINUOUS
10
5.1364872440944884
20
-3.6217534251968502
11
5.1347803543307089
21
-3.6243079133858265
0
LINE
8
BLACK
6
CONTINUOUS
10
5.1347803543307089
20
-3.6243079133858265
11
5.1322258661417326
21
-3.626014803149606
0
LINE
8
BLACK
6
CONTINUOUS
10
5.1322258661417326
20
-3.626014803149606
11
5.1292125984251964
21
-3.6266141732283463
0
LINE
8
BLACK
6
CONTINUOUS
10
5.1292125984251964
20
-3.6266141732283463
11
5.0307874015748029
21
-3.6266141732283463
0
LINE
8
BLACK
6
CONTINUOUS
10
5.0307874015748029
20
-3.6266141732283463
11
5.0277741338582675
21
-3.626014803149606
0
LINE
8
BLACK
6
CONTINUOUS
10
5.0277741338582675
20
-3.626014803149606
11
5.0252196456692912
21
-3.6243079133858265
0
LINE
8
BLACK
6
CONTINUOUS
10
5.0252196456692912
20
-3.6243079133858265
11
5.0235127559055117
21
-3.6217534251968502
0
LINE
8
BLACK
6
CONTINUOUS
10
5.0235127559055117
20
-3.6217534251968502
11
5.0229133858267714
21
-3.6187401574803149
0
LINE
8
BLACK
6
CONTINUOUS
10
5.0229133858267714
20
-3.6187401574803149
11
5.0229133858267714
21
-3.5793700787401574
0
LINE
8
BLACK
6
CONTINUOUS
10
5.0229133858267714
20
-3.5793700787401574
11
5.0235127559055117
21
-3.5763568110236221
0
LINE
8
BLACK
6
CONTINUOUS
10
5.0235127559055117
20
-3.5763568110236221
11
5.0252196456692912
21
-3.5738023228346454
0
LINE
8
BLACK
6
CONTINUOUS
10
5.0252196456692912
20
-3.5738023228346454
11
5.0277741338582675
21
-3.5720954330708659
0
LINE
8
BLACK
6
CONTINUOUS
10
5.0277741338582675
20
-3.5720954330708659
11
5.0307874015748029
21
-3.571496062992126
0
LINE
8
BLACK
6
CONTINUOUS
10
5.0307874015748029
20
-3.571496062992126
11
5.1292125984251964
21
-3.571496062992126
0
LINE
8
BLACK
6
CONTINUOUS
10
5.1292125984251964
20
-3.571496062992126
11
5.1322258661417326
21
-3.5720954330708659
0
LINE
8
BLACK
6
CONTINUOUS
10
4.2442696456692914
20
-3.4611741732283465
11
4.2468241338582677
21
-3.4628810629921261
0
LINE
8
BLACK
6
CONTINUOUS
10
4.2468241338582677
20
-3.4628810629921261
11
4.2485310236220473
21
-3.4654355511811024
0
LINE
8
BLACK
6
CONTINUOUS
10
4.2485310236220473
20
-3.4654355511811024
11
4.2491303937007876
21
-3.4684488188976377
0
LINE
8
BLACK
6
CONTINUOUS
10
4.2491303937007876
20
-3.4684488188976377
11
4.2491303937007876
21
-3.6184488188976376
0
LINE
8
BLACK
6
CONTINUOUS
10
4.2491303937007876
20
-3.6184488188976376
11
4.2485310236220473
21
-3.6214620866141733
0
LINE
8
BLACK
6
CONTINUOUS
10
4.2485310236220473
20
-3.6214620866141733
11
4.2468241338582677
21
-3.6240165748031496
0
LINE
8
BLACK
6
CONTINUOUS
10
4.2468241338582677
20
-3.6240165748031496
11
4.2442696456692914
21
-3.6257234645669292
0
LINE
8
BLACK
6
CONTINUOUS
10
4.2442696456692914
20
-3.6257234645669292
11
4.2412563779527561
21
-3.6263228346456691
0
LINE
8
BLACK
6
CONTINUOUS
10
4.2412563779527561
20
-3.6263228346456691
11
4.0912563779527558
21
-3.6263228346456691
0
LINE
8
BLACK
6
CONTINUOUS
10
4.0912563779527558
20
-3.6263228346456691
11
4.0882431102362204
21
-3.6257234645669292
0
LINE
8
BLACK
6
CONTINUOUS
10
4.0882431102362204
20
-3.6257234645669292
11
4.0856886220472441
21
-3.6240165748031496
0
LINE
8
BLACK
6
CONTINUOUS
10
4.0856886220472441
20
-3.6240165748031496
11
4.0839817322834646
21
-3.6214620866141733
0
LINE
8
BLACK
6
CONTINUOUS
10
4.0839817322834646
20
-3.6214620866141733
11
4.0833823622047243
21
-3.6184488188976376
0
LINE
8
BLACK
6
CONTINUOUS
10
4.0833823622047243
20
-3.6184488188976376
11
4.0833823622047243
21
-3.4684488188976377
0
LINE
8
BLACK
6
CONTINUOUS
10
4.0833823622047243
20
-3.4684488188976377
11
4.0839817322834646
21
-3.4654355511811024
0
LINE
8
BLACK
6
CONTINUOUS
10
4.0839817322834646
20
-3.4654355511811024
11
4.0856886220472441
21
-3.4628810629921261
0
LINE
8
BLACK
6
CONTINUOUS
10
4.0856886220472441
20
-3.4628810629921261
11
4.0882431102362204
21
-3.4611741732283465
0
LINE
8
BLACK
6
CONTINUOUS
10
4.0882431102362204
20
-3.4611741732283465
11
4.0912563779527558
21
-3.4605748031496062
0
LINE
8
BLACK
6
CONTINUOUS
10
4.0912563779527558
20
-3.4605748031496062
11
4.2412563779527561
21
-3.4605748031496062
0
LINE
8
BLACK
6
CONTINUOUS
10
4.2412563779527561
20
-3.4605748031496062
11
4.2442696456692914
21
-3.4611741732283465
0
LINE
8
BLACK
6
CONTINUOUS
10
4.4411200393700785
20
-3.4611741732283465
11
4.4436745275590548
21
-3.4628810629921261
0
LINE
8
BLACK
6
CONTINUOUS
10
4.4436745275590548
20
-3.4628810629921261
11
4.4453814173228343
21
-3.4654355511811024
0
LINE
8
BLACK
6
CONTINUOUS
10
4.4453814173228343
20
-3.4654355511811024
11
4.4459807874015747
21
-3.4684488188976377
0
LINE
8
BLACK
6
CONTINUOUS
10
4.4459807874015747
20
-3.4684488188976377
11
4.4459807874015747
21
-3.6184488188976376
0
LINE
8
BLACK
6
CONTINUOUS
10
4.4459807874015747
20
-3.6184488188976376
11
4.4453814173228343
21
-3.6214620866141733
0
LINE
8
BLACK
6
CONTINUOUS
10
4.4453814173228343
20
-3.6214620866141733
11
4.4436745275590548
21
-3.6240165748031496
0
LINE
8
BLACK
6
CONTINUOUS
10
4.4436745275590548
20
-3.6240165748031496
11
4.4411200393700785
21
-3.6257234645669292
0
LINE
8
BLACK
6
CONTINUOUS
10
4.4411200393700785
20
-3.6257234645669292
11
4.4381067716535432
21
-3.6263228346456691
0
LINE
8
BLACK
6
CONTINUOUS
10
4.4381067716535432
20
-3.6263228346456691
11
4.2881067716535428
21
-3.6263228346456691
0
LINE
8
BLACK
6
CONTINUOUS
10
4.2881067716535428
20
-3.6263228346456691
11
4.2850935039370075
21
-3.6257234645669292
0
LINE
8
BLACK
6
CONTINUOUS
10
4.2850935039370075
20
-3.6257234645669292
11
4.2825390157480312
21
-3.6240165748031496
0
LINE
8
BLACK
6
CONTINUOUS
10
4.2825390157480312
20
-3.6240165748031496
11
4.2808321259842517
21
-3.6214620866141733
0
LINE
8
BLACK
6
CONTINUOUS
10
4.2808321259842517
20
-3.6214620866141733
11
4.2802327559055113
21
-3.6184488188976376
0
LINE
8
BLACK
6
CONTINUOUS
10
4.2802327559055113
20
-3.6184488188976376
11
4.2802327559055113
21
-3.4684488188976377
0
LINE
8
BLACK
6
CONTINUOUS
10
4.2802327559055113
20
-3.4684488188976377
11
4.2808321259842517
21
-3.4654355511811024
0
LINE
8
BLACK
6
CONTINUOUS
10
4.2808321259842517
20
-3.4654355511811024
11
4.2825390157480312
21
-3.4628810629921261
0
LINE
8
BLACK
6
CONTINUOUS
10
4.2825390157480312
20
-3.4628810629921261
11
4.2850935039370075
21
-3.4611741732283465
0
LINE
8
BLACK
6
CONTINUOUS
10
4.2850935039370075
20
-3.4611741732283465
11
4.2881067716535428
21
-3.4605748031496062
0
LINE
8
BLACK
6
CONTINUOUS
10
4.2881067716535428
20
-3.4605748031496062
11
4.4381067716535432
21
-3.4605748031496062
0
LINE
8
BLACK
6
CONTINUOUS
10
4.4381067716535432
20
-3.4605748031496062
11
4.4411200393700785
21
-3.4611741732283465
0
LINE
8
BLACK
6
CONTINUOUS
10
5.5717337401574802
20
-3.5754615748031497
11
5.5742882283464565
21
-3.5771684645669293
0
LINE
8
BLACK
6
CONTINUOUS
10
5.5742882283464565
20
-3.5771684645669293
11
5.5759951181102361
21
-3.5797229527559056
0
LINE
8
BLACK
6
CONTINUOUS
10
5.5759951181102361
20
-3.5797229527559056
11
5.5765944881889764
21
-3.5827362204724409
0
LINE
8
BLACK
6
CONTINUOUS
10
5.5765944881889764
20
-3.5827362204724409
11
5.5765944881889764
21
-3.6122637795275589
0
LINE
8
BLACK
6
CONTINUOUS
10
5.5765944881889764
20
-3.6122637795275589
11
5.5759951181102361
21
-3.6152770472440943
0
LINE
8
BLACK
6
CONTINUOUS
10
5.5759951181102361
20
-3.6152770472440943
11
5.5742882283464565
21
-3.6178315354330706
0
LINE
8
BLACK
6
CONTINUOUS
10
5.5742882283464565
20
-3.6178315354330706
11
5.5717337401574802
21
-3.6195384251968501
0
LINE
8
BLACK
6
CONTINUOUS
10
5.5717337401574802
20
-3.6195384251968501
11
5.5687204724409449
21
-3.6201377952755904
0
LINE
8
BLACK
6
CONTINUOUS
10
5.5687204724409449
20
-3.6201377952755904
11
5.537224409448819
21
-3.6201377952755904
0
LINE
8
BLACK
6
CONTINUOUS
10
5.537224409448819
20
-3.6201377952755904
11
5.5342111417322837
21
-3.6195384251968501
0
LINE
8
BLACK
6
CONTINUOUS
10
5.5342111417322837
20
-3.6195384251968501
11
5.5316566535433074
21
-3.6178315354330706
0
LINE
8
BLACK
6
CONTINUOUS
10
5.5316566535433074
20
-3.6178315354330706
11
5.5299497637795278
21
-3.6152770472440943
0
LINE
8
BLACK
6
CONTINUOUS
10
5.5299497637795278
20
-3.6152770472440943
11
5.5293503937007875
21
-3.6122637795275589
0
LINE
8
BLACK
6
CONTINUOUS
10
5.5293503937007875
20
-3.6122637795275589
11
5.5293503937007875
21
-3.5827362204724409
0
LINE
8
BLACK
6
CONTINUOUS
10
5.5293503937007875
20
-3.5827362204724409
11
5.5299497637795278
21
-3.5797229527559056
0
LINE
8
BLACK
6
CONTINUOUS
10
5.5299497637795278
20
-3.5797229527559056
11
5.5316566535433074
21
-3.5771684645669293
0
LINE
8
BLACK
6
CONTINUOUS
10
5.5316566535433074
20
-3.5771684645669293
11
5.5342111417322837
21
-3.5754615748031497
0
LINE
8
BLACK
6
CONTINUOUS
10
5.5342111417322837
20
-3.5754615748031497
11
5.537224409448819
21
-3.5748622047244094
0
LINE
8
BLACK
6
CONTINUOUS
10
5.537224409448819
20
-3.5748622047244094
11
5.5687204724409449
21
-3.5748622047244094
0
LINE
8
BLACK
6
CONTINUOUS
10
5.5687204724409449
20
-3.5748622047244094
11
5.5717337401574802
21
-3.5754615748031497
0
LINE
8
BLACK
6
CONTINUOUS
10
5.6307888582677164
20
-3.5754615748031497
11
5.6333433464566927
21
-3.5771684645669293
0
LINE
8
BLACK
6
CONTINUOUS
10
5.6333433464566927
20
-3.5771684645669293
11
5.6350502362204722
21
-3.5797229527559056
0
LINE
8
BLACK
6
CONTINUOUS
10
5.6350502362204722
20
-3.5797229527559056
11
5.6356496062992125
21
-3.5827362204724409
0
LINE
8
BLACK
6
CONTINUOUS
10
5.6356496062992125
20
-3.5827362204724409
11
5.6356496062992125
21
-3.6122637795275589
0
LINE
8
BLACK
6
CONTINUOUS
10
5.6356496062992125
20
-3.6122637795275589
11
5.6350502362204722
21
-3.6152770472440943
0
LINE
8
BLACK
6
CONTINUOUS
10
5.6350502362204722
20
-3.6152770472440943
11
5.6333433464566927
21
-3.6178315354330706
0
LINE
8
BLACK
6
CONTINUOUS
10
5.6333433464566927
20
-3.6178315354330706
11
5.6307888582677164
21
-3.6195384251968501
0
LINE
8
BLACK
6
CONTINUOUS
10
5.6307888582677164
20
-3.6195384251968501
11
5.627775590551181
21
-3.6201377952755904
0
LINE
8
BLACK
6
CONTINUOUS
10
5.627775590551181
20
-3.6201377952755904
11
5.5962795275590551
21
-3.6201377952755904
0
LINE
8
BLACK
6
CONTINUOUS
10
5.5962795275590551
20
-3.6201377952755904
11
5.5932662598425198
21
-3.6195384251968501
0
LINE
8
BLACK
6
CONTINUOUS
10
5.5932662598425198
20
-3.6195384251968501
11
5.5907117716535435
21
-3.6178315354330706
0
LINE
8
BLACK
6
CONTINUOUS
10
5.5907117716535435
20
-3.6178315354330706
11
5.589004881889764
21
-3.6152770472440943
0
LINE
8
BLACK
6
CONTINUOUS
10
5.589004881889764
20
-3.6152770472440943
11
5.5884055118110236
21
-3.6122637795275589
0
LINE
8
BLACK
6
CONTINUOUS
10
5.5884055118110236
20
-3.6122637795275589
11
5.5884055118110236
21
-3.5827362204724409
0
LINE
8
BLACK
6
CONTINUOUS
10
5.5884055118110236
20
-3.5827362204724409
11
5.589004881889764
21
-3.5797229527559056
0
LINE
8
BLACK
6
CONTINUOUS
10
5.589004881889764
20
-3.5797229527559056
11
5.5907117716535435
21
-3.5771684645669293
0
LINE
8
BLACK
6
CONTINUOUS
10
5.5907117716535435
20
-3.5771684645669293
11
5.5932662598425198
21
-3.5754615748031497
0
LINE
8
BLACK
6
CONTINUOUS
10
5.5932662598425198
20
-3.5754615748031497
11
5.5962795275590551
21
-3.5748622047244094
0
LINE
8
BLACK
6
CONTINUOUS
10
5.5962795275590551
20
-3.5748622047244094
11
5.627775590551181
21
-3.5748622047244094
0
LINE
8
BLACK
6
CONTINUOUS
10
5.627775590551181
20
-3.5748622047244094
11
5.6307888582677164
21
-3.5754615748031497
0
LINE
8
BLACK
6
CONTINUOUS
10
5.2746471259842522
20
-3.5821741732283465
11
5.2772016141732285
21
-3.5838810629921261
0
LINE
8
BLACK
6
CONTINUOUS
10
5.2772016141732285
20
-3.5838810629921261
11
5.2789085039370081
21
-3.5864355511811024
0
LINE
8
BLACK
6
CONTINUOUS
10
5.2789085039370081
20
-3.5864355511811024
11
5.2795078740157475
21
-3.5894488188976377
0
LINE
8
BLACK
6
CONTINUOUS
10
5.2795078740157475
20
-3.5894488188976377
11
5.2795078740157475
21
-3.6071653543307085
0
LINE
8
BLACK
6
CONTINUOUS
10
5.2795078740157475
20
-3.6071653543307085
11
5.2789085039370081
21
-3.6101786220472438
0
LINE
8
BLACK
6
CONTINUOUS
10
5.2789085039370081
20
-3.6101786220472438
11
5.2772016141732285
21
-3.6127331102362206
0
LINE
8
BLACK
6
CONTINUOUS
10
5.2772016141732285
20
-3.6127331102362206
11
5.2746471259842522
21
-3.6144400000000001
0
LINE
8
BLACK
6
CONTINUOUS
10
5.2746471259842522
20
-3.6144400000000001
11
5.271633858267716
21
-3.61503937007874
0
LINE
8
BLACK
6
CONTINUOUS
10
5.271633858267716
20
-3.61503937007874
11
5.186988188976378
21
-3.61503937007874
0
LINE
8
BLACK
6
CONTINUOUS
10
5.186988188976378
20
-3.61503937007874
11
5.1839749212598427
21
-3.6144400000000001
0
LINE
8
BLACK
6
CONTINUOUS
10
5.1839749212598427
20
-3.6144400000000001
11
5.1814204330708664
21
-3.6127331102362206
0
LINE
8
BLACK
6
CONTINUOUS
10
5.1814204330708664
20
-3.6127331102362206
11
5.1797135433070869
21
-3.6101786220472438
0
LINE
8
BLACK
6
CONTINUOUS
10
5.1797135433070869
20
-3.6101786220472438
11
5.1791141732283466
21
-3.6071653543307085
0
LINE
8
BLACK
6
CONTINUOUS
10
5.1791141732283466
20
-3.6071653543307085
11
5.1791141732283466
21
-3.5894488188976377
0
LINE
8
BLACK
6
CONTINUOUS
10
5.1791141732283466
20
-3.5894488188976377
11
5.1797135433070869
21
-3.5864355511811024
0
LINE
8
BLACK
6
CONTINUOUS
10
5.1797135433070869
20
-3.5864355511811024
11
5.1814204330708664
21
-3.5838810629921261
0
LINE
8
BLACK
6
CONTINUOUS
10
5.1814204330708664
20
-3.5838810629921261
11
5.1839749212598427
21
-3.5821741732283465
0
LINE
8
BLACK
6
CONTINUOUS
10
5.1839749212598427
20
-3.5821741732283465
11
5.186988188976378
21
-3.5815748031496062
0
LINE
8
BLACK
6
CONTINUOUS
10
5.186988188976378
20
-3.5815748031496062
11
5.271633858267716
21
-3.5815748031496062
0
LINE
8
BLACK
6
CONTINUOUS
10
5.271633858267716
20
-3.5815748031496062
11
5.2746471259842522
21
-3.5821741732283465
0
LINE
8
BLACK
6
CONTINUOUS
10
5.5010250787401578
20
-3.5821741732283465
11
5.5035795669291341
21
-3.5838810629921261
0
LINE
8
BLACK
6
CONTINUOUS
10
5.5035795669291341
20
-3.5838810629921261
11
5.5052864566929136
21
-3.5864355511811024
0
LINE
8
BLACK
6
CONTINUOUS
10
5.5052864566929136
20
-3.5864355511811024
11
5.5058858267716531
21
-3.5894488188976377
0
LINE
8
BLACK
6
CONTINUOUS
10
5.5058858267716531
20
-3.5894488188976377
11
5.5058858267716531
21
-3.6071653543307085
0
LINE
8
BLACK
6
CONTINUOUS
10
5.5058858267716531
20
-3.6071653543307085
11
5.5052864566929136
21
-3.6101786220472438
0
LINE
8
BLACK
6
CONTINUOUS
10
5.5052864566929136
20
-3.6101786220472438
11
5.5035795669291341
21
-3.6127331102362206
0
LINE
8
BLACK
6
CONTINUOUS
10
5.5035795669291341
20
-3.6127331102362206
11
5.5010250787401578
21
-3.6144400000000001
0
LINE
8
BLACK
6
CONTINUOUS
10
5.5010250787401578
20
-3.6144400000000001
11
5.4980118110236216
21
-3.61503937007874
0
LINE
8
BLACK
6
CONTINUOUS
10
5.4980118110236216
20
-3.61503937007874
11
5.4133661417322836
21
-3.61503937007874
0
LINE
8
BLACK
6
CONTINUOUS
10
5.4133661417322836
20
-3.61503937007874
11
5.4103528740157483
21
-3.6144400000000001
0
LINE
8
BLACK
6
CONTINUOUS
10
5.4103528740157483
20
-3.6144400000000001
11
5.407798385826772
21
-3.6127331102362206
0
LINE
8
BLACK
6
CONTINUOUS
10
5.407798385826772
20
-3.6127331102362206
11
5.4060914960629924
21
-3.6101786220472438
0
LINE
8
BLACK
6
CONTINUOUS
10
5.4060914960629924
20
-3.6101786220472438
11
5.4054921259842521
21
-3.6071653543307085
0
LINE
8
BLACK
6
CONTINUOUS
10
5.4054921259842521
20
-3.6071653543307085
11
5.4054921259842521
21
-3.5894488188976377
0
LINE
8
BLACK
6
CONTINUOUS
10
5.4054921259842521
20
-3.5894488188976377
11
5.4060914960629924
21
-3.5864355511811024
0
LINE
8
BLACK
6
CONTINUOUS
10
5.4060914960629924
20
-3.5864355511811024
11
5.407798385826772
21
-3.5838810629921261
0
LINE
8
BLACK
6
CONTINUOUS
10
5.407798385826772
20
-3.5838810629921261
11
5.4103528740157483
21
-3.5821741732283465
0
LINE
8
BLACK
6
CONTINUOUS
10
5.4103528740157483
20
-3.5821741732283465
11
5.4133661417322836
21
-3.5815748031496062
0
LINE
8
BLACK
6
CONTINUOUS
10
5.4133661417322836
20
-3.5815748031496062
11
5.4980118110236216
21
-3.5815748031496062
0
LINE
8
BLACK
6
CONTINUOUS
10
5.4980118110236216
20
-3.5815748031496062
11
5.5010250787401578
21
-3.5821741732283465
0
LINE
8
BLACK
6
CONTINUOUS
10
5.3927573622047245
20
-3.4550088188976376
11
5.3953118503937008
21
-3.4567157086614171
0
LINE
8
BLACK
6
CONTINUOUS
10
5.3953118503937008
20
-3.4567157086614171
11
5.3970187401574803
21
-3.4592701968503938
0
LINE
8
BLACK
6
CONTINUOUS
10
5.3970187401574803
20
-3.4592701968503938
11
5.3976181102362206
21
-3.4622834645669291
0
LINE
8
BLACK
6
CONTINUOUS
10
5.3976181102362206
20
-3.4622834645669291
11
5.3976181102362206
21
-3.5843307086614171
0
LINE
8
BLACK
6
CONTINUOUS
10
5.3976181102362206
20
-3.5843307086614171
11
5.3970187401574803
21
-3.5873439763779529
0
LINE
8
BLACK
6
CONTINUOUS
10
5.3970187401574803
20
-3.5873439763779529
11
5.3953118503937008
21
-3.5898984645669292
0
LINE
8
BLACK
6
CONTINUOUS
10
5.3953118503937008
20
-3.5898984645669292
11
5.3927573622047245
21
-3.5916053543307087
0
LINE
8
BLACK
6
CONTINUOUS
10
5.3927573622047245
20
-3.5916053543307087
11
5.3897440944881891
21
-3.5922047244094486
0
LINE
8
BLACK
6
CONTINUOUS
10
5.3897440944881891
20
-3.5922047244094486
11
5.2952559055118105
21
-3.5922047244094486
0
LINE
8
BLACK
6
CONTINUOUS
10
5.2952559055118105
20
-3.5922047244094486
11
5.2922426377952752
21
-3.5916053543307087
0
LINE
8
BLACK
6
CONTINUOUS
10
5.2922426377952752
20
-3.5916053543307087
11
5.2896881496062989
21
-3.5898984645669292
0
LINE
8
BLACK
6
CONTINUOUS
10
5.2896881496062989
20
-3.5898984645669292
11
5.2879812598425193
21
-3.5873439763779529
0
LINE
8
BLACK
6
CONTINUOUS
10
5.2879812598425193
20
-3.5873439763779529
11
5.287381889763779
21
-3.5843307086614171
0
LINE
8
BLACK
6
CONTINUOUS
10
5.287381889763779
20
-3.5843307086614171
11
5.287381889763779
21
-3.4622834645669291
0
LINE
8
BLACK
6
CONTINUOUS
10
5.287381889763779
20
-3.4622834645669291
11
5.2879812598425193
21
-3.4592701968503938
0
LINE
8
BLACK
6
CONTINUOUS
10
5.2879812598425193
20
-3.4592701968503938
11
5.2896881496062989
21
-3.4567157086614171
0
LINE
8
BLACK
6
CONTINUOUS
10
5.2896881496062989
20
-3.4567157086614171
11
5.2922426377952752
21
-3.4550088188976376
0
LINE
8
BLACK
6
CONTINUOUS
10
5.2922426377952752
20
-3.4550088188976376
11
5.2952559055118105
21
-3.4544094488188977
0
LINE
8
BLACK
6
CONTINUOUS
10
5.2952559055118105
20
-3.4544094488188977
11
5.3897440944881891
21
-3.4544094488188977
0
LINE
8
BLACK
6
CONTINUOUS
10
5.3897440944881891
20
-3.4544094488188977
11
5.3927573622047245
21
-3.4550088188976376
0
LINE
8
BLACK
6
CONTINUOUS
10
5.2746471259842522
20
-3.5321741732283463
11
5.2772016141732285
21
-3.5338810629921258
0
LINE
8
BLACK
6
CONTINUOUS
10
5.2772016141732285
20
-3.5338810629921258
11
5.2789085039370081
21
-3.5364355511811021
0
LINE
8
BLACK
6
CONTINUOUS
10
5.2789085039370081
20
-3.5364355511811021
11
5.2795078740157475
21
-3.5394488188976378
0
LINE
8
BLACK
6
CONTINUOUS
10
5.2795078740157475
20
-3.5394488188976378
11
5.2795078740157475
21
-3.5571653543307087
0
LINE
8
BLACK
6
CONTINUOUS
10
5.2795078740157475
20
-3.5571653543307087
11
5.2789085039370081
21
-3.560178622047244
0
LINE
8
BLACK
6
CONTINUOUS
10
5.2789085039370081
20
-3.560178622047244
11
5.2772016141732285
21
-3.5627331102362203
0
LINE
8
BLACK
6
CONTINUOUS
10
5.2772016141732285
20
-3.5627331102362203
11
5.2746471259842522
21
-3.5644399999999998
0
LINE
8
BLACK
6
CONTINUOUS
10
5.2746471259842522
20
-3.5644399999999998
11
5.271633858267716
21
-3.5650393700787402
0
LINE
8
BLACK
6
CONTINUOUS
10
5.271633858267716
20
-3.5650393700787402
11
5.186988188976378
21
-3.5650393700787402
0
LINE
8
BLACK
6
CONTINUOUS
10
5.186988188976378
20
-3.5650393700787402
11
5.1839749212598427
21
-3.5644399999999998
0
LINE
8
BLACK
6
CONTINUOUS
10
5.1839749212598427
20
-3.5644399999999998
11
5.1814204330708664
21
-3.5627331102362203
0
LINE
8
BLACK
6
CONTINUOUS
10
5.1814204330708664
20
-3.5627331102362203
11
5.1797135433070869
21
-3.560178622047244
0
LINE
8
BLACK
6
CONTINUOUS
10
5.1797135433070869
20
-3.560178622047244
11
5.1791141732283466
21
-3.5571653543307087
0
LINE
8
BLACK
6
CONTINUOUS
10
5.1791141732283466
20
-3.5571653543307087
11
5.1791141732283466
21
-3.5394488188976378
0
LINE
8
BLACK
6
CONTINUOUS
10
5.1791141732283466
20
-3.5394488188976378
11
5.1797135433070869
21
-3.5364355511811021
0
LINE
8
BLACK
6
CONTINUOUS
10
5.1797135433070869
20
-3.5364355511811021
11
5.1814204330708664
21
-3.5338810629921258
0
LINE
8
BLACK
6
CONTINUOUS
10
5.1814204330708664
20
-3.5338810629921258
11
5.1839749212598427
21
-3.5321741732283463
0
LINE
8
BLACK
6
CONTINUOUS
10
5.1839749212598427
20
-3.5321741732283463
11
5.186988188976378
21
-3.5315748031496064
0
LINE
8
BLACK
6
CONTINUOUS
10
5.186988188976378
20
-3.5315748031496064
11
5.271633858267716
21
-3.5315748031496064
0
LINE
8
BLACK
6
CONTINUOUS
10
5.271633858267716
20
-3.5315748031496064
11
5.2746471259842522
21
-3.5321741732283463
0
LINE
8
BLACK
6
CONTINUOUS
10
5.5010250787401578
20
-3.5321741732283463
11
5.5035795669291341
21
-3.5338810629921258
0
LINE
8
BLACK
6
CONTINUOUS
10
5.5035795669291341
20
-3.5338810629921258
11
5.5052864566929136
21
-3.5364355511811021
0
LINE
8
BLACK
6
CONTINUOUS
10
5.5052864566929136
20
-3.5364355511811021
11
5.5058858267716531
21
-3.5394488188976378
0
LINE
8
BLACK
6
CONTINUOUS
10
5.5058858267716531
20
-3.5394488188976378
11
5.5058858267716531
21
-3.5571653543307087
0
LINE
8
BLACK
6
CONTINUOUS
10
5.5058858267716531
20
-3.5571653543307087
11
5.5052864566929136
21
-3.560178622047244
0
LINE
8
BLACK
6
CONTINUOUS
10
5.5052864566929136
20
-3.560178622047244
11
5.5035795669291341
21
-3.5627331102362203
0
LINE
8
BLACK
6
CONTINUOUS
10
5.5035795669291341
20
-3.5627331102362203
11
5.5010250787401578
21
-3.5644399999999998
0
LINE
8
BLACK
6
CONTINUOUS
10
5.5010250787401578
20
-3.5644399999999998
11
5.4980118110236216
21
-3.5650393700787402
0
LINE
8
BLACK
6
CONTINUOUS
10
5.4980118110236216
20
-3.5650393700787402
11
5.4133661417322836
21
-3.5650393700787402
0
LINE
8
BLACK
6
CONTINUOUS
10
5.4133661417322836
20
-3.5650393700787402
11
5.4103528740157483
21
-3.5644399999999998
0
LINE
8
BLACK
6
CONTINUOUS
10
5.4103528740157483
20
-3.5644399999999998
11
5.407798385826772
21
-3.5627331102362203
0
LINE
8
BLACK
6
CONTINUOUS
10
5.407798385826772
20
-3.5627331102362203
11
5.4060914960629924
21
-3.560178622047244
0
LINE
8
BLACK
6
CONTINUOUS
10
5.4060914960629924
20
-3.560178622047244
11
5.4054921259842521
21
-3.5571653543307087
0
LINE
8
BLACK
6
CONTINUOUS
10
5.4054921259842521
20
-3.5571653543307087
11
5.4054921259842521
21
-3.5394488188976378
0
LINE
8
BLACK
6
CONTINUOUS
10
5.4054921259842521
20
-3.5394488188976378
11
5.4060914960629924
21
-3.5364355511811021
0
LINE
8
BLACK
6
CONTINUOUS
10
5.4060914960629924
20
-3.5364355511811021
11
5.407798385826772
21
-3.5338810629921258
0
LINE
8
BLACK
6
CONTINUOUS
10
5.407798385826772
20
-3.5338810629921258
11
5.4103528740157483
21
-3.5321741732283463
0
LINE
8
BLACK
6
CONTINUOUS
10
5.4103528740157483
20
-3.5321741732283463
11
5.4133661417322836
21
-3.5315748031496064
0
LINE
8
BLACK
6
CONTINUOUS
10
5.4133661417322836
20
-3.5315748031496064
11
5.4980118110236216
21
-3.5315748031496064
0
LINE
8
BLACK
6
CONTINUOUS
10
5.4980118110236216
20
-3.5315748031496064
11
5.5010250787401578
21
-3.5321741732283463
0
LINE
8
BLACK
6
CONTINUOUS
10
5.5717337401574802
20
-3.4904615748031493
11
5.5742882283464565
21
-3.4921684645669289
0
LINE
8
BLACK
6
CONTINUOUS
10
5.5742882283464565
20
-3.4921684645669289
11
5.5759951181102361
21
-3.4947229527559056
0
LINE
8
BLACK
6
CONTINUOUS
10
5.5759951181102361
20
-3.4947229527559056
11
5.5765944881889764
21
-3.4977362204724409
0
LINE
8
BLACK
6
CONTINUOUS
10
5.5765944881889764
20
-3.4977362204724409
11
5.5765944881889764
21
-3.527263779527559
0
LINE
8
BLACK
6
CONTINUOUS
10
5.5765944881889764
20
-3.527263779527559
11
5.5759951181102361
21
-3.5302770472440943
0
LINE
8
BLACK
6
CONTINUOUS
10
5.5759951181102361
20
-3.5302770472440943
11
5.5742882283464565
21
-3.5328315354330706
0
LINE
8
BLACK
6
CONTINUOUS
10
5.5742882283464565
20
-3.5328315354330706
11
5.5717337401574802
21
-3.5345384251968501
0
LINE
8
BLACK
6
CONTINUOUS
10
5.5717337401574802
20
-3.5345384251968501
11
5.5687204724409449
21
-3.5351377952755905
0
LINE
8
BLACK
6
CONTINUOUS
10
5.5687204724409449
20
-3.5351377952755905
11
5.537224409448819
21
-3.5351377952755905
0
LINE
8
BLACK
6
CONTINUOUS
10
5.537224409448819
20
-3.5351377952755905
11
5.5342111417322837
21
-3.5345384251968501
0
LINE
8
BLACK
6
CONTINUOUS
10
5.5342111417322837
20
-3.5345384251968501
11
5.5316566535433074
21
-3.5328315354330706
0
LINE
8
BLACK
6
CONTINUOUS
10
5.5316566535433074
20
-3.5328315354330706
11
5.5299497637795278
21
-3.5302770472440943
0
LINE
8
BLACK
6
CONTINUOUS
10
5.5299497637795278
20
-3.5302770472440943
11
5.5293503937007875
21
-3.527263779527559
0
LINE
8
BLACK
6
CONTINUOUS
10
5.5293503937007875
20
-3.527263779527559
11
5.5293503937007875
21
-3.4977362204724409
0
LINE
8
BLACK
6
CONTINUOUS
10
5.5293503937007875
20
-3.4977362204724409
11
5.5299497637795278
21
-3.4947229527559056
0
LINE
8
BLACK
6
CONTINUOUS
10
5.5299497637795278
20
-3.4947229527559056
11
5.5316566535433074
21
-3.4921684645669289
0
LINE
8
BLACK
6
CONTINUOUS
10
5.5316566535433074
20
-3.4921684645669289
11
5.5342111417322837
21
-3.4904615748031493
0
LINE
8
BLACK
6
CONTINUOUS
10
5.5342111417322837
20
-3.4904615748031493
11
5.537224409448819
21
-3.4898622047244094
0
LINE
8
BLACK
6
CONTINUOUS
10
5.537224409448819
20
-3.4898622047244094
11
5.5687204724409449
21
-3.4898622047244094
0
LINE
8
BLACK
6
CONTINUOUS
10
5.5687204724409449
20
-3.4898622047244094
11
5.5717337401574802
21
-3.4904615748031493
0
LINE
8
BLACK
6
CONTINUOUS
10
5.6307888582677164
20
-3.4904615748031493
11
5.6333433464566927
21
-3.4921684645669289
0
LINE
8
BLACK
6
CONTINUOUS
10
5.6333433464566927
20
-3.4921684645669289
11
5.6350502362204722
21
-3.4947229527559056
0
LINE
8
BLACK
6
CONTINUOUS
10
5.6350502362204722
20
-3.4947229527559056
11
5.6356496062992125
21
-3.4977362204724409
0
LINE
8
BLACK
6
CONTINUOUS
10
5.6356496062992125
20
-3.4977362204724409
11
5.6356496062992125
21
-3.527263779527559
0
LINE
8
BLACK
6
CONTINUOUS
10
5.6356496062992125
20
-3.527263779527559
11
5.6350502362204722
21
-3.5302770472440943
0
LINE
8
BLACK
6
CONTINUOUS
10
5.6350502362204722
20
-3.5302770472440943
11
5.6333433464566927
21
-3.5328315354330706
0
LINE
8
BLACK
6
CONTINUOUS
10
5.6333433464566927
20
-3.5328315354330706
11
5.6307888582677164
21
-3.5345384251968501
0
LINE
8
BLACK
6
CONTINUOUS
10
5.6307888582677164
20
-3.5345384251968501
11
5.627775590551181
21
-3.5351377952755905
0
LINE
8
BLACK
6
CONTINUOUS
10
5.627775590551181
20
-3.5351377952755905
11
5.5962795275590551
21
-3.5351377952755905
0
LINE
8
BLACK
6
CONTINUOUS
10
5.5962795275590551
20
-3.5351377952755905
11
5.5932662598425198
21
-3.5345384251968501
0
LINE
8
BLACK
6
CONTINUOUS
10
5.5932662598425198
20
-3.5345384251968501
11
5.5907117716535435
21
-3.5328315354330706
0
LINE
8
BLACK
6
CONTINUOUS
10
5.5907117716535435
20
-3.5328315354330706
11
5.589004881889764
21
-3.5302770472440943
0
LINE
8
BLACK
6
CONTINUOUS
10
5.589004881889764
20
-3.5302770472440943
11
5.5884055118110236
21
-3.527263779527559
0
LINE
8
BLACK
6
CONTINUOUS
10
5.5884055118110236
20
-3.527263779527559
11
5.5884055118110236
21
-3.4977362204724409
0
LINE
8
BLACK
6
CONTINUOUS
10
5.5884055118110236
20
-3.4977362204724409
11
5.589004881889764
21
-3.4947229527559056
0
LINE
8
BLACK
6
CONTINUOUS
10
5.589004881889764
20
-3.4947229527559056
11
5.5907117716535435
21
-3.4921684645669289
0
LINE
8
BLACK
6
CONTINUOUS
10
5.5907117716535435
20
-3.4921684645669289
11
5.5932662598425198
21
-3.4904615748031493
0
LINE
8
BLACK
6
CONTINUOUS
10
5.5932662598425198
20
-3.4904615748031493
11
5.5962795275590551
21
-3.4898622047244094
0
LINE
8
BLACK
6
CONTINUOUS
10
5.5962795275590551
20
-3.4898622047244094
11
5.627775590551181
21
-3.4898622047244094
0
LINE
8
BLACK
6
CONTINUOUS
10
5.627775590551181
20
-3.4898622047244094
11
5.6307888582677164
21
-3.4904615748031493
0
LINE
8
BLACK
6
CONTINUOUS
10
5.2746471259842522
20
-3.4821741732283464
11
5.2772016141732285
21
-3.483881062992126
0
LINE
8
BLACK
6
CONTINUOUS
10
5.2772016141732285
20
-3.483881062992126
11
5.2789085039370081
21
-3.4864355511811023
0
LINE
8
BLACK
6
CONTINUOUS
10
5.2789085039370081
20
-3.4864355511811023
11
5.2795078740157475
21
-3.4894488188976376
0
LINE
8
BLACK
6
CONTINUOUS
10
5.2795078740157475
20
-3.4894488188976376
11
5.2795078740157475
21
-3.5071653543307084
0
LINE
8
BLACK
6
CONTINUOUS
10
5.2795078740157475
20
-3.5071653543307084
11
5.2789085039370081
21
-3.5101786220472442
0
LINE
8
BLACK
6
CONTINUOUS
10
5.2789085039370081
20
-3.5101786220472442
11
5.2772016141732285
21
-3.5127331102362205
0
LINE
8
BLACK
6
CONTINUOUS
10
5.2772016141732285
20
-3.5127331102362205
11
5.2746471259842522
21
-3.51444
0
LINE
8
BLACK
6
CONTINUOUS
10
5.2746471259842522
20
-3.51444
11
5.271633858267716
21
-3.5150393700787399
0
LINE
8
BLACK
6
CONTINUOUS
10
5.271633858267716
20
-3.5150393700787399
11
5.186988188976378
21
-3.5150393700787399
0
LINE
8
BLACK
6
CONTINUOUS
10
5.186988188976378
20
-3.5150393700787399
11
5.1839749212598427
21
-3.51444
0
LINE
8
BLACK
6
CONTINUOUS
10
5.1839749212598427
20
-3.51444
11
5.1814204330708664
21
-3.5127331102362205
0
LINE
8
BLACK
6
CONTINUOUS
10
5.1814204330708664
20
-3.5127331102362205
11
5.1797135433070869
21
-3.5101786220472442
0
LINE
8
BLACK
6
CONTINUOUS
10
5.1797135433070869
20
-3.5101786220472442
11
5.1791141732283466
21
-3.5071653543307084
0
LINE
8
BLACK
6
CONTINUOUS
10
5.1791141732283466
20
-3.5071653543307084
11
5.1791141732283466
21
-3.4894488188976376
0
LINE
8
BLACK
6
CONTINUOUS
10
5.1791141732283466
20
-3.4894488188976376
11
5.1797135433070869
21
-3.4864355511811023
0
LINE
8
BLACK
6
CONTINUOUS
10
5.1797135433070869
20
-3.4864355511811023
11
5.1814204330708664
21
-3.483881062992126
0
LINE
8
BLACK
6
CONTINUOUS
10
5.1814204330708664
20
-3.483881062992126
11
5.1839749212598427
21
-3.4821741732283464
0
LINE
8
BLACK
6
CONTINUOUS
10
5.1839749212598427
20
-3.4821741732283464
11
5.186988188976378
21
-3.4815748031496061
0
LINE
8
BLACK
6
CONTINUOUS
10
5.186988188976378
20
-3.4815748031496061
11
5.271633858267716
21
-3.4815748031496061
0
LINE
8
BLACK
6
CONTINUOUS
10
5.271633858267716
20
-3.4815748031496061
11
5.2746471259842522
21
-3.4821741732283464
0
LINE
8
BLACK
6
CONTINUOUS
10
5.5010250787401578
20
-3.4821741732283464
11
5.5035795669291341
21
-3.483881062992126
0
LINE
8
BLACK
6
CONTINUOUS
10
5.5035795669291341
20
-3.483881062992126
11
5.5052864566929136
21
-3.4864355511811023
0
LINE
8
BLACK
6
CONTINUOUS
10
5.5052864566929136
20
-3.4864355511811023
11
5.5058858267716531
21
-3.4894488188976376
0
LINE
8
BLACK
6
CONTINUOUS
10
5.5058858267716531
20
-3.4894488188976376
11
5.5058858267716531
21
-3.5071653543307084
0
LINE
8
BLACK
6
CONTINUOUS
10
5.5058858267716531
20
-3.5071653543307084
11
5.5052864566929136
21
-3.5101786220472442
0
LINE
8
BLACK
6
CONTINUOUS
10
5.5052864566929136
20
-3.5101786220472442
11
5.5035795669291341
21
-3.5127331102362205
0
LINE
8
BLACK
6
CONTINUOUS
10
5.5035795669291341
20
-3.5127331102362205
11
5.5010250787401578
21
-3.51444
0
LINE
8
BLACK
6
CONTINUOUS
10
5.5010250787401578
20
-3.51444
11
5.4980118110236216
21
-3.5150393700787399
0
LINE
8
BLACK
6
CONTINUOUS
10
5.4980118110236216
20
-3.5150393700787399
11
5.4133661417322836
21
-3.5150393700787399
0
LINE
8
BLACK
6
CONTINUOUS
10
5.4133661417322836
20
-3.5150393700787399
11
5.4103528740157483
21
-3.51444
0
LINE
8
BLACK
6
CONTINUOUS
10
5.4103528740157483
20
-3.51444
11
5.407798385826772
21
-3.5127331102362205
0
LINE
8
BLACK
6
CONTINUOUS
10
5.407798385826772
20
-3.5127331102362205
11
5.4060914960629924
21
-3.5101786220472442
0
LINE
8
BLACK
6
CONTINUOUS
10
5.4060914960629924
20
-3.5101786220472442
11
5.4054921259842521
21
-3.5071653543307084
0
LINE
8
BLACK
6
CONTINUOUS
10
5.4054921259842521
20
-3.5071653543307084
11
5.4054921259842521
21
-3.4894488188976376
0
LINE
8
BLACK
6
CONTINUOUS
10
5.4054921259842521
20
-3.4894488188976376
11
5.4060914960629924
21
-3.4864355511811023
0
LINE
8
BLACK
6
CONTINUOUS
10
5.4060914960629924
20
-3.4864355511811023
11
5.407798385826772
21
-3.483881062992126
0
LINE
8
BLACK
6
CONTINUOUS
10
5.407798385826772
20
-3.483881062992126
11
5.4103528740157483
21
-3.4821741732283464
0
LINE
8
BLACK
6
CONTINUOUS
10
5.4103528740157483
20
-3.4821741732283464
11
5.4133661417322836
21
-3.4815748031496061
0
LINE
8
BLACK
6
CONTINUOUS
10
5.4133661417322836
20
-3.4815748031496061
11
5.4980118110236216
21
-3.4815748031496061
0
LINE
8
BLACK
6
CONTINUOUS
10
5.4980118110236216
20
-3.4815748031496061
11
5.5010250787401578
21
-3.4821741732283464
0
LINE
8
BLACK
6
CONTINUOUS
10
4.7122258661417318
20
-3.4539851968503936
11
4.714780354330709
21
-3.4556920866141732
0
LINE
8
BLACK
6
CONTINUOUS
10
4.714780354330709
20
-3.4556920866141732
11
4.7164872440944885
21
-3.4582465748031495
0
LINE
8
BLACK
6
CONTINUOUS
10
4.7164872440944885
20
-3.4582465748031495
11
4.7170866141732279
21
-3.4612598425196848
0
LINE
8
BLACK
6
CONTINUOUS
10
4.7170866141732279
20
-3.4612598425196848
11
4.7170866141732279
21
-3.5006299212598426
0
LINE
8
BLACK
6
CONTINUOUS
10
4.7170866141732279
20
-3.5006299212598426
11
4.7164872440944885
21
-3.5036431889763779
0
LINE
8
BLACK
6
CONTINUOUS
10
4.7164872440944885
20
-3.5036431889763779
11
4.714780354330709
21
-3.5061976771653542
0
LINE
8
BLACK
6
CONTINUOUS
10
4.714780354330709
20
-3.5061976771653542
11
4.7122258661417318
21
-3.5079045669291338
0
LINE
8
BLACK
6
CONTINUOUS
10
4.7122258661417318
20
-3.5079045669291338
11
4.7092125984251965
21
-3.5085039370078741
0
LINE
8
BLACK
6
CONTINUOUS
10
4.7092125984251965
20
-3.5085039370078741
11
4.6107874015748029
21
-3.5085039370078741
0
LINE
8
BLACK
6
CONTINUOUS
10
4.6107874015748029
20
-3.5085039370078741
11
4.6077741338582676
21
-3.5079045669291338
0
LINE
8
BLACK
6
CONTINUOUS
10
4.6077741338582676
20
-3.5079045669291338
11
4.6052196456692913
21
-3.5061976771653542
0
LINE
8
BLACK
6
CONTINUOUS
10
4.6052196456692913
20
-3.5061976771653542
11
4.6035127559055118
21
-3.5036431889763779
0
LINE
8
BLACK
6
CONTINUOUS
10
4.6035127559055118
20
-3.5036431889763779
11
4.6029133858267715
21
-3.5006299212598426
0
LINE
8
BLACK
6
CONTINUOUS
10
4.6029133858267715
20
-3.5006299212598426
11
4.6029133858267715
21
-3.4612598425196848
0
LINE
8
BLACK
6
CONTINUOUS
10
4.6029133858267715
20
-3.4612598425196848
11
4.6035127559055118
21
-3.4582465748031495
0
LINE
8
BLACK
6
CONTINUOUS
10
4.6035127559055118
20
-3.4582465748031495
11
4.6052196456692913
21
-3.4556920866141732
0
LINE
8
BLACK
6
CONTINUOUS
10
4.6052196456692913
20
-3.4556920866141732
11
4.6077741338582676
21
-3.4539851968503936
0
LINE
8
BLACK
6
CONTINUOUS
10
4.6077741338582676
20
-3.4539851968503936
11
4.6107874015748029
21
-3.4533858267716533
0
LINE
8
BLACK
6
CONTINUOUS
10
4.6107874015748029
20
-3.4533858267716533
11
4.7092125984251965
21
-3.4533858267716533
0
LINE
8
BLACK
6
CONTINUOUS
10
4.7092125984251965
20
-3.4533858267716533
11
4.7122258661417318
21
-3.4539851968503936
0
LINE
8
BLACK
6
CONTINUOUS
10
4.8522258661417323
20
-3.4539851968503936
11
4.8547803543307086
21
-3.4556920866141732
0
LINE
8
BLACK
6
CONTINUOUS
10
4.8547803543307086
20
-3.4556920866141732
11
4.8564872440944882
21
-3.4582465748031495
0
LINE
8
BLACK
6
CONTINUOUS
10
4.8564872440944882
20
-3.4582465748031495
11
4.8570866141732285
21
-3.4612598425196848
0
LINE
8
BLACK
6
CONTINUOUS
10
4.8570866141732285
20
-3.4612598425196848
11
4.8570866141732285
21
-3.5006299212598426
0
LINE
8
BLACK
6
CONTINUOUS
10
4.8570866141732285
20
-3.5006299212598426
11
4.8564872440944882
21
-3.5036431889763779
0
LINE
8
BLACK
6
CONTINUOUS
10
4.8564872440944882
20
-3.5036431889763779
11
4.8547803543307086
21
-3.5061976771653542
0
LINE
8
BLACK
6
CONTINUOUS
10
4.8547803543307086
20
-3.5061976771653542
11
4.8522258661417323
21
-3.5079045669291338
0
LINE
8
BLACK
6
CONTINUOUS
10
4.8522258661417323
20
-3.5079045669291338
11
4.849212598425197
21
-3.5085039370078741
0
LINE
8
BLACK
6
CONTINUOUS
10
4.849212598425197
20
-3.5085039370078741
11
4.7507874015748026
21
-3.5085039370078741
0
LINE
8
BLACK
6
CONTINUOUS
10
4.7507874015748026
20
-3.5085039370078741
11
4.7477741338582673
21
-3.5079045669291338
0
LINE
8
BLACK
6
CONTINUOUS
10
4.7477741338582673
20
-3.5079045669291338
11
4.745219645669291
21
-3.5061976771653542
0
LINE
8
BLACK
6
CONTINUOUS
10
4.745219645669291
20
-3.5061976771653542
11
4.7435127559055115
21
-3.5036431889763779
0
LINE
8
BLACK
6
CONTINUOUS
10
4.7435127559055115
20
-3.5036431889763779
11
4.7429133858267711
21
-3.5006299212598426
0
LINE
8
BLACK
6
CONTINUOUS
10
4.7429133858267711
20
-3.5006299212598426
11
4.7429133858267711
21
-3.4612598425196848
0
LINE
8
BLACK
6
CONTINUOUS
10
4.7429133858267711
20
-3.4612598425196848
11
4.7435127559055115
21
-3.4582465748031495
0
LINE
8
BLACK
6
CONTINUOUS
10
4.7435127559055115
20
-3.4582465748031495
11
4.745219645669291
21
-3.4556920866141732
0
LINE
8
BLACK
6
CONTINUOUS
10
4.745219645669291
20
-3.4556920866141732
11
4.7477741338582673
21
-3.4539851968503936
0
LINE
8
BLACK
6
CONTINUOUS
10
4.7477741338582673
20
-3.4539851968503936
11
4.7507874015748026
21
-3.4533858267716533
0
LINE
8
BLACK
6
CONTINUOUS
10
4.7507874015748026
20
-3.4533858267716533
11
4.849212598425197
21
-3.4533858267716533
0
LINE
8
BLACK
6
CONTINUOUS
10
4.849212598425197
20
-3.4533858267716533
11
4.8522258661417323
21
-3.4539851968503936
0
LINE
8
BLACK
6
CONTINUOUS
10
4.992225866141732
20
-3.4539851968503936
11
4.9947803543307083
21
-3.4556920866141732
0
LINE
8
BLACK
6
CONTINUOUS
10
4.9947803543307083
20
-3.4556920866141732
11
4.9964872440944879
21
-3.4582465748031495
0
LINE
8
BLACK
6
CONTINUOUS
10
4.9964872440944879
20
-3.4582465748031495
11
4.9970866141732282
21
-3.4612598425196848
0
LINE
8
BLACK
6
CONTINUOUS
10
4.9970866141732282
20
-3.4612598425196848
11
4.9970866141732282
21
-3.5006299212598426
0
LINE
8
BLACK
6
CONTINUOUS
10
4.9970866141732282
20
-3.5006299212598426
11
4.9964872440944879
21
-3.5036431889763779
0
LINE
8
BLACK
6
CONTINUOUS
10
4.9964872440944879
20
-3.5036431889763779
11
4.9947803543307083
21
-3.5061976771653542
0
LINE
8
BLACK
6
CONTINUOUS
10
4.9947803543307083
20
-3.5061976771653542
11
4.992225866141732
21
-3.5079045669291338
0
LINE
8
BLACK
6
CONTINUOUS
10
4.992225866141732
20
-3.5079045669291338
11
4.9892125984251967
21
-3.5085039370078741
0
LINE
8
BLACK
6
CONTINUOUS
10
4.9892125984251967
20
-3.5085039370078741
11
4.8907874015748032
21
-3.5085039370078741
0
LINE
8
BLACK
6
CONTINUOUS
10
4.8907874015748032
20
-3.5085039370078741
11
4.8877741338582679
21
-3.5079045669291338
0
LINE
8
BLACK
6
CONTINUOUS
10
4.8877741338582679
20
-3.5079045669291338
11
4.8852196456692916
21
-3.5061976771653542
0
LINE
8
BLACK
6
CONTINUOUS
10
4.8852196456692916
20
-3.5061976771653542
11
4.883512755905512
21
-3.5036431889763779
0
LINE
8
BLACK
6
CONTINUOUS
10
4.883512755905512
20
-3.5036431889763779
11
4.8829133858267717
21
-3.5006299212598426
0
LINE
8
BLACK
6
CONTINUOUS
10
4.8829133858267717
20
-3.5006299212598426
11
4.8829133858267717
21
-3.4612598425196848
0
LINE
8
BLACK
6
CONTINUOUS
10
4.8829133858267717
20
-3.4612598425196848
11
4.883512755905512
21
-3.4582465748031495
0
LINE
8
BLACK
6
CONTINUOUS
10
4.883512755905512
20
-3.4582465748031495
11
4.8852196456692916
21
-3.4556920866141732
0
LINE
8
BLACK
6
CONTINUOUS
10
4.8852196456692916
20
-3.4556920866141732
11
4.8877741338582679
21
-3.4539851968503936
0
LINE
8
BLACK
6
CONTINUOUS
10
4.8877741338582679
20
-3.4539851968503936
11
4.8907874015748032
21
-3.4533858267716533
0
LINE
8
BLACK
6
CONTINUOUS
10
4.8907874015748032
20
-3.4533858267716533
11
4.9892125984251967
21
-3.4533858267716533
0
LINE
8
BLACK
6
CONTINUOUS
10
4.9892125984251967
20
-3.4533858267716533
11
4.992225866141732
21
-3.4539851968503936
0
LINE
8
BLACK
6
CONTINUOUS
10
5.1322258661417326
20
-3.4539851968503936
11
5.1347803543307089
21
-3.4556920866141732
0
LINE
8
BLACK
6
CONTINUOUS
10
5.1347803543307089
20
-3.4556920866141732
11
5.1364872440944884
21
-3.4582465748031495
0
LINE
8
BLACK
6
CONTINUOUS
10
5.1364872440944884
20
-3.4582465748031495
11
5.1370866141732279
21
-3.4612598425196848
0
LINE
8
BLACK
6
CONTINUOUS
10
5.1370866141732279
20
-3.4612598425196848
11
5.1370866141732279
21
-3.5006299212598426
0
LINE
8
BLACK
6
CONTINUOUS
10
5.1370866141732279
20
-3.5006299212598426
11
5.1364872440944884
21
-3.5036431889763779
0
LINE
8
BLACK
6
CONTINUOUS
10
5.1364872440944884
20
-3.5036431889763779
11
5.1347803543307089
21
-3.5061976771653542
0
LINE
8
BLACK
6
CONTINUOUS
10
5.1347803543307089
20
-3.5061976771653542
11
5.1322258661417326
21
-3.5079045669291338
0
LINE
8
BLACK
6
CONTINUOUS
10
5.1322258661417326
20
-3.5079045669291338
11
5.1292125984251964
21
-3.5085039370078741
0
LINE
8
BLACK
6
CONTINUOUS
10
5.1292125984251964
20
-3.5085039370078741
11
5.0307874015748029
21
-3.5085039370078741
0
LINE
8
BLACK
6
CONTINUOUS
10
5.0307874015748029
20
-3.5085039370078741
11
5.0277741338582675
21
-3.5079045669291338
0
LINE
8
BLACK
6
CONTINUOUS
10
5.0277741338582675
20
-3.5079045669291338
11
5.0252196456692912
21
-3.5061976771653542
0
LINE
8
BLACK
6
CONTINUOUS
10
5.0252196456692912
20
-3.5061976771653542
11
5.0235127559055117
21
-3.5036431889763779
0
LINE
8
BLACK
6
CONTINUOUS
10
5.0235127559055117
20
-3.5036431889763779
11
5.0229133858267714
21
-3.5006299212598426
0
LINE
8
BLACK
6
CONTINUOUS
10
5.0229133858267714
20
-3.5006299212598426
11
5.0229133858267714
21
-3.4612598425196848
0
LINE
8
BLACK
6
CONTINUOUS
10
5.0229133858267714
20
-3.4612598425196848
11
5.0235127559055117
21
-3.4582465748031495
0
LINE
8
BLACK
6
CONTINUOUS
10
5.0235127559055117
20
-3.4582465748031495
11
5.0252196456692912
21
-3.4556920866141732
0
LINE
8
BLACK
6
CONTINUOUS
10
5.0252196456692912
20
-3.4556920866141732
11
5.0277741338582675
21
-3.4539851968503936
0
LINE
8
BLACK
6
CONTINUOUS
10
5.0277741338582675
20
-3.4539851968503936
11
5.0307874015748029
21
-3.4533858267716533
0
LINE
8
BLACK
6
CONTINUOUS
10
5.0307874015748029
20
-3.4533858267716533
11
5.1292125984251964
21
-3.4533858267716533
0
LINE
8
BLACK
6
CONTINUOUS
10
5.1292125984251964
20
-3.4533858267716533
11
5.1322258661417326
21
-3.4539851968503936
0
LINE
8
BLACK
6
CONTINUOUS
10
5.5717337401574802
20
-3.4254615748031494
11
5.5742882283464565
21
-3.4271684645669289
0
LINE
8
BLACK
6
CONTINUOUS
10
5.5742882283464565
20
-3.4271684645669289
11
5.5759951181102361
21
-3.4297229527559052
0
LINE
8
BLACK
6
CONTINUOUS
10
5.5759951181102361
20
-3.4297229527559052
11
5.5765944881889764
21
-3.432736220472441
0
LINE
8
BLACK
6
CONTINUOUS
10
5.5765944881889764
20
-3.432736220472441
11
5.5765944881889764
21
-3.462263779527559
0
LINE
8
BLACK
6
CONTINUOUS
10
5.5765944881889764
20
-3.462263779527559
11
5.5759951181102361
21
-3.4652770472440944
0
LINE
8
BLACK
6
CONTINUOUS
10
5.5759951181102361
20
-3.4652770472440944
11
5.5742882283464565
21
-3.4678315354330707
0
LINE
8
BLACK
6
CONTINUOUS
10
5.5742882283464565
20
-3.4678315354330707
11
5.5717337401574802
21
-3.4695384251968502
0
LINE
8
BLACK
6
CONTINUOUS
10
5.5717337401574802
20
-3.4695384251968502
11
5.5687204724409449
21
-3.4701377952755905
0
LINE
8
BLACK
6
CONTINUOUS
10
5.5687204724409449
20
-3.4701377952755905
11
5.537224409448819
21
-3.4701377952755905
0
LINE
8
BLACK
6
CONTINUOUS
10
5.537224409448819
20
-3.4701377952755905
11
5.5342111417322837
21
-3.4695384251968502
0
LINE
8
BLACK
6
CONTINUOUS
10
5.5342111417322837
20
-3.4695384251968502
11
5.5316566535433074
21
-3.4678315354330707
0
LINE
8
BLACK
6
CONTINUOUS
10
5.5316566535433074
20
-3.4678315354330707
11
5.5299497637795278
21
-3.4652770472440944
0
LINE
8
BLACK
6
CONTINUOUS
10
5.5299497637795278
20
-3.4652770472440944
11
5.5293503937007875
21
-3.462263779527559
0
LINE
8
BLACK
6
CONTINUOUS
10
5.5293503937007875
20
-3.462263779527559
11
5.5293503937007875
21
-3.432736220472441
0
LINE
8
BLACK
6
CONTINUOUS
10
5.5293503937007875
20
-3.432736220472441
11
5.5299497637795278
21
-3.4297229527559052
0
LINE
8
BLACK
6
CONTINUOUS
10
5.5299497637795278
20
-3.4297229527559052
11
5.5316566535433074
21
-3.4271684645669289
0
LINE
8
BLACK
6
CONTINUOUS
10
5.5316566535433074
20
-3.4271684645669289
11
5.5342111417322837
21
-3.4254615748031494
0
LINE
8
BLACK
6
CONTINUOUS
10
5.5342111417322837
20
-3.4254615748031494
11
5.537224409448819
21
-3.4248622047244095
0
LINE
8
BLACK
6
CONTINUOUS
10
5.537224409448819
20
-3.4248622047244095
11
5.5687204724409449
21
-3.4248622047244095
0
LINE
8
BLACK
6
CONTINUOUS
10
5.5687204724409449
20
-3.4248622047244095
11
5.5717337401574802
21
-3.4254615748031494
0
LINE
8
BLACK
6
CONTINUOUS
10
5.6307888582677164
20
-3.4254615748031494
11
5.6333433464566927
21
-3.4271684645669289
0
LINE
8
BLACK
6
CONTINUOUS
10
5.6333433464566927
20
-3.4271684645669289
11
5.6350502362204722
21
-3.4297229527559052
0
LINE
8
BLACK
6
CONTINUOUS
10
5.6350502362204722
20
-3.4297229527559052
11
5.6356496062992125
21
-3.432736220472441
0
LINE
8
BLACK
6
CONTINUOUS
10
5.6356496062992125
20
-3.432736220472441
11
5.6356496062992125
21
-3.462263779527559
0
LINE
8
BLACK
6
CONTINUOUS
10
5.6356496062992125
20
-3.462263779527559
11
5.6350502362204722
21
-3.4652770472440944
0
LINE
8
BLACK
6
CONTINUOUS
10
5.6350502362204722
20
-3.4652770472440944
11
5.6333433464566927
21
-3.4678315354330707
0
LINE
8
BLACK
6
CONTINUOUS
10
5.6333433464566927
20
-3.4678315354330707
11
5.6307888582677164
21
-3.4695384251968502
0
LINE
8
BLACK
6
CONTINUOUS
10
5.6307888582677164
20
-3.4695384251968502
11
5.627775590551181
21
-3.4701377952755905
0
LINE
8
BLACK
6
CONTINUOUS
10
5.627775590551181
20
-3.4701377952755905
11
5.5962795275590551
21
-3.4701377952755905
0
LINE
8
BLACK
6
CONTINUOUS
10
5.5962795275590551
20
-3.4701377952755905
11
5.5932662598425198
21
-3.4695384251968502
0
LINE
8
BLACK
6
CONTINUOUS
10
5.5932662598425198
20
-3.4695384251968502
11
5.5907117716535435
21
-3.4678315354330707
0
LINE
8
BLACK
6
CONTINUOUS
10
5.5907117716535435
20
-3.4678315354330707
11
5.589004881889764
21
-3.4652770472440944
0
LINE
8
BLACK
6
CONTINUOUS
10
5.589004881889764
20
-3.4652770472440944
11
5.5884055118110236
21
-3.462263779527559
0
LINE
8
BLACK
6
CONTINUOUS
10
5.5884055118110236
20
-3.462263779527559
11
5.5884055118110236
21
-3.432736220472441
0
LINE
8
BLACK
6
CONTINUOUS
10
5.5884055118110236
20
-3.432736220472441
11
5.589004881889764
21
-3.4297229527559052
0
LINE
8
BLACK
6
CONTINUOUS
10
5.589004881889764
20
-3.4297229527559052
11
5.5907117716535435
21
-3.4271684645669289
0
LINE
8
BLACK
6
CONTINUOUS
10
5.5907117716535435
20
-3.4271684645669289
11
5.5932662598425198
21
-3.4254615748031494
0
LINE
8
BLACK
6
CONTINUOUS
10
5.5932662598425198
20
-3.4254615748031494
11
5.5962795275590551
21
-3.4248622047244095
0
LINE
8
BLACK
6
CONTINUOUS
10
5.5962795275590551
20
-3.4248622047244095
11
5.627775590551181
21
-3.4248622047244095
0
LINE
8
BLACK
6
CONTINUOUS
10
5.627775590551181
20
-3.4248622047244095
11
5.6307888582677164
21
-3.4254615748031494
0
LINE
8
BLACK
6
CONTINUOUS
10
5.2746471259842522
20
-3.4321741732283462
11
5.2772016141732285
21
-3.4338810629921257
0
LINE
8
BLACK
6
CONTINUOUS
10
5.2772016141732285
20
-3.4338810629921257
11
5.2789085039370081
21
-3.4364355511811024
0
LINE
8
BLACK
6
CONTINUOUS
10
5.2789085039370081
20
-3.4364355511811024
11
5.2795078740157475
21
-3.4394488188976378
0
LINE
8
BLACK
6
CONTINUOUS
10
5.2795078740157475
20
-3.4394488188976378
11
5.2795078740157475
21
-3.4571653543307086
0
LINE
8
BLACK
6
CONTINUOUS
10
5.2795078740157475
20
-3.4571653543307086
11
5.2789085039370081
21
-3.4601786220472439
0
LINE
8
BLACK
6
CONTINUOUS
10
5.2789085039370081
20
-3.4601786220472439
11
5.2772016141732285
21
-3.4627331102362202
0
LINE
8
BLACK
6
CONTINUOUS
10
5.2772016141732285
20
-3.4627331102362202
11
5.2746471259842522
21
-3.4644399999999997
0
LINE
8
BLACK
6
CONTINUOUS
10
5.2746471259842522
20
-3.4644399999999997
11
5.271633858267716
21
-3.4650393700787401
0
LINE
8
BLACK
6
CONTINUOUS
10
5.271633858267716
20
-3.4650393700787401
11
5.186988188976378
21
-3.4650393700787401
0
LINE
8
BLACK
6
CONTINUOUS
10
5.186988188976378
20
-3.4650393700787401
11
5.1839749212598427
21
-3.4644399999999997
0
LINE
8
BLACK
6
CONTINUOUS
10
5.1839749212598427
20
-3.4644399999999997
11
5.1814204330708664
21
-3.4627331102362202
0
LINE
8
BLACK
6
CONTINUOUS
10
5.1814204330708664
20
-3.4627331102362202
11
5.1797135433070869
21
-3.4601786220472439
0
LINE
8
BLACK
6
CONTINUOUS
10
5.1797135433070869
20
-3.4601786220472439
11
5.1791141732283466
21
-3.4571653543307086
0
LINE
8
BLACK
6
CONTINUOUS
10
5.1791141732283466
20
-3.4571653543307086
11
5.1791141732283466
21
-3.4394488188976378
0
LINE
8
BLACK
6
CONTINUOUS
10
5.1791141732283466
20
-3.4394488188976378
11
5.1797135433070869
21
-3.4364355511811024
0
LINE
8
BLACK
6
CONTINUOUS
10
5.1797135433070869
20
-3.4364355511811024
11
5.1814204330708664
21
-3.4338810629921257
0
LINE
8
BLACK
6
CONTINUOUS
10
5.1814204330708664
20
-3.4338810629921257
11
5.1839749212598427
21
-3.4321741732283462
0
LINE
8
BLACK
6
CONTINUOUS
10
5.1839749212598427
20
-3.4321741732283462
11
5.186988188976378
21
-3.4315748031496063
0
LINE
8
BLACK
6
CONTINUOUS
10
5.186988188976378
20
-3.4315748031496063
11
5.271633858267716
21
-3.4315748031496063
0
LINE
8
BLACK
6
CONTINUOUS
10
5.271633858267716
20
-3.4315748031496063
11
5.2746471259842522
21
-3.4321741732283462
0
LINE
8
BLACK
6
CONTINUOUS
10
5.5010250787401578
20
-3.4321741732283462
11
5.5035795669291341
21
-3.4338810629921257
0
LINE
8
BLACK
6
CONTINUOUS
10
5.5035795669291341
20
-3.4338810629921257
11
5.5052864566929136
21
-3.4364355511811024
0
LINE
8
BLACK
6
CONTINUOUS
10
5.5052864566929136
20
-3.4364355511811024
11
5.5058858267716531
21
-3.4394488188976378
0
LINE
8
BLACK
6
CONTINUOUS
10
5.5058858267716531
20
-3.4394488188976378
11
5.5058858267716531
21
-3.4571653543307086
0
LINE
8
BLACK
6
CONTINUOUS
10
5.5058858267716531
20
-3.4571653543307086
11
5.5052864566929136
21
-3.4601786220472439
0
LINE
8
BLACK
6
CONTINUOUS
10
5.5052864566929136
20
-3.4601786220472439
11
5.5035795669291341
21
-3.4627331102362202
0
LINE
8
BLACK
6
CONTINUOUS
10
5.5035795669291341
20
-3.4627331102362202
11
5.5010250787401578
21
-3.4644399999999997
0
LINE
8
BLACK
6
CONTINUOUS
10
5.5010250787401578
20
-3.4644399999999997
11
5.4980118110236216
21
-3.4650393700787401
0
LINE
8
BLACK
6
CONTINUOUS
10
5.4980118110236216
20
-3.4650393700787401
11
5.4133661417322836
21
-3.4650393700787401
0
LINE
8
BLACK
6
CONTINUOUS
10
5.4133661417322836
20
-3.4650393700787401
11
5.4103528740157483
21
-3.4644399999999997
0
LINE
8
BLACK
6
CONTINUOUS
10
5.4103528740157483
20
-3.4644399999999997
11
5.407798385826772
21
-3.4627331102362202
0
LINE
8
BLACK
6
CONTINUOUS
10
5.407798385826772
20
-3.4627331102362202
11
5.4060914960629924
21
-3.4601786220472439
0
LINE
8
BLACK
6
CONTINUOUS
10
5.4060914960629924
20
-3.4601786220472439
11
5.4054921259842521
21
-3.4571653543307086
0
LINE
8
BLACK
6
CONTINUOUS
10
5.4054921259842521
20
-3.4571653543307086
11
5.4054921259842521
21
-3.4394488188976378
0
LINE
8
BLACK
6
CONTINUOUS
10
5.4054921259842521
20
-3.4394488188976378
11
5.4060914960629924
21
-3.4364355511811024
0
LINE
8
BLACK
6
CONTINUOUS
10
5.4060914960629924
20
-3.4364355511811024
11
5.407798385826772
21
-3.4338810629921257
0
LINE
8
BLACK
6
CONTINUOUS
10
5.407798385826772
20
-3.4338810629921257
11
5.4103528740157483
21
-3.4321741732283462
0
LINE
8
BLACK
6
CONTINUOUS
10
5.4103528740157483
20
-3.4321741732283462
11
5.4133661417322836
21
-3.4315748031496063
0
LINE
8
BLACK
6
CONTINUOUS
10
5.4133661417322836
20
-3.4315748031496063
11
5.4980118110236216
21
-3.4315748031496063
0
LINE
8
BLACK
6
CONTINUOUS
10
5.4980118110236216
20
-3.4315748031496063
11
5.5010250787401578
21
-3.4321741732283462
0
LINE
8
BLACK
6
CONTINUOUS
10
5.2192337401574802
20
-3.3579615748031495
11
5.2217882283464565
21
-3.359668464566929
0
LINE
8
BLACK
6
CONTINUOUS
10
5.2217882283464565
20
-3.359668464566929
11
5.223495118110236
21
-3.3622229527559053
0
LINE
8
BLACK
6
CONTINUOUS
10
5.223495118110236
20
-3.3622229527559053
11
5.2240944881889764
21
-3.3652362204724411
0
LINE
8
BLACK
6
CONTINUOUS
10
5.2240944881889764
20
-3.3652362204724411
11
5.2240944881889764
21
-3.3947637795275591
0
LINE
8
BLACK
6
CONTINUOUS
10
5.2240944881889764
20
-3.3947637795275591
11
5.223495118110236
21
-3.3977770472440945
0
LINE
8
BLACK
6
CONTINUOUS
10
5.223495118110236
20
-3.3977770472440945
11
5.2217882283464565
21
-3.4003315354330708
0
LINE
8
BLACK
6
CONTINUOUS
10
5.2217882283464565
20
-3.4003315354330708
11
5.2192337401574802
21
-3.4020384251968503
0
LINE
8
BLACK
6
CONTINUOUS
10
5.2192337401574802
20
-3.4020384251968503
11
5.2162204724409449
21
-3.4026377952755906
0
LINE
8
BLACK
6
CONTINUOUS
10
5.2162204724409449
20
-3.4026377952755906
11
5.184724409448819
21
-3.4026377952755906
0
LINE
8
BLACK
6
CONTINUOUS
10
5.184724409448819
20
-3.4026377952755906
11
5.1817111417322836
21
-3.4020384251968503
0
LINE
8
BLACK
6
CONTINUOUS
10
5.1817111417322836
20
-3.4020384251968503
11
5.1791566535433073
21
-3.4003315354330708
0
LINE
8
BLACK
6
CONTINUOUS
10
5.1791566535433073
20
-3.4003315354330708
11
5.1774497637795278
21
-3.3977770472440945
0
LINE
8
BLACK
6
CONTINUOUS
10
5.1774497637795278
20
-3.3977770472440945
11
5.1768503937007875
21
-3.3947637795275591
0
LINE
8
BLACK
6
CONTINUOUS
10
5.1768503937007875
20
-3.3947637795275591
11
5.1768503937007875
21
-3.3652362204724411
0
LINE
8
BLACK
6
CONTINUOUS
10
5.1768503937007875
20
-3.3652362204724411
11
5.1774497637795278
21
-3.3622229527559053
0
LINE
8
BLACK
6
CONTINUOUS
10
5.1774497637795278
20
-3.3622229527559053
11
5.1791566535433073
21
-3.359668464566929
0
LINE
8
BLACK
6
CONTINUOUS
10
5.1791566535433073
20
-3.359668464566929
11
5.1817111417322836
21
-3.3579615748031495
0
LINE
8
BLACK
6
CONTINUOUS
10
5.1817111417322836
20
-3.3579615748031495
11
5.184724409448819
21
-3.3573622047244092
0
LINE
8
BLACK
6
CONTINUOUS
10
5.184724409448819
20
-3.3573622047244092
11
5.2162204724409449
21
-3.3573622047244092
0
LINE
8
BLACK
6
CONTINUOUS
10
5.2162204724409449
20
-3.3573622047244092
11
5.2192337401574802
21
-3.3579615748031495
0
LINE
8
BLACK
6
CONTINUOUS
10
5.2782888582677163
20
-3.3579615748031495
11
5.2808433464566926
21
-3.359668464566929
0
LINE
8
BLACK
6
CONTINUOUS
10
5.2808433464566926
20
-3.359668464566929
11
5.2825502362204722
21
-3.3622229527559053
0
LINE
8
BLACK
6
CONTINUOUS
10
5.2825502362204722
20
-3.3622229527559053
11
5.2831496062992125
21
-3.3652362204724411
0
LINE
8
BLACK
6
CONTINUOUS
10
5.2831496062992125
20
-3.3652362204724411
11
5.2831496062992125
21
-3.3947637795275591
0
LINE
8
BLACK
6
CONTINUOUS
10
5.2831496062992125
20
-3.3947637795275591
11
5.2825502362204722
21
-3.3977770472440945
0
LINE
8
BLACK
6
CONTINUOUS
10
5.2825502362204722
20
-3.3977770472440945
11
5.2808433464566926
21
-3.4003315354330708
0
LINE
8
BLACK
6
CONTINUOUS
10
5.2808433464566926
20
-3.4003315354330708
11
5.2782888582677163
21
-3.4020384251968503
0
LINE
8
BLACK
6
CONTINUOUS
10
5.2782888582677163
20
-3.4020384251968503
11
5.275275590551181
21
-3.4026377952755906
0
LINE
8
BLACK
6
CONTINUOUS
10
5.275275590551181
20
-3.4026377952755906
11
5.2437795275590551
21
-3.4026377952755906
0
LINE
8
BLACK
6
CONTINUOUS
10
5.2437795275590551
20
-3.4026377952755906
11
5.2407662598425198
21
-3.4020384251968503
0
LINE
8
BLACK
6
CONTINUOUS
10
5.2407662598425198
20
-3.4020384251968503
11
5.2382117716535435
21
-3.4003315354330708
0
LINE
8
BLACK
6
CONTINUOUS
10
5.2382117716535435
20
-3.4003315354330708
11
5.2365048818897639
21
-3.3977770472440945
0
LINE
8
BLACK
6
CONTINUOUS
10
5.2365048818897639
20
-3.3977770472440945
11
5.2359055118110236
21
-3.3947637795275591
0
LINE
8
BLACK
6
CONTINUOUS
10
5.2359055118110236
20
-3.3947637795275591
11
5.2359055118110236
21
-3.3652362204724411
0
LINE
8
BLACK
6
CONTINUOUS
10
5.2359055118110236
20
-3.3652362204724411
11
5.2365048818897639
21
-3.3622229527559053
0
LINE
8
BLACK
6
CONTINUOUS
10
5.2365048818897639
20
-3.3622229527559053
11
5.2382117716535435
21
-3.359668464566929
0
LINE
8
BLACK
6
CONTINUOUS
10
5.2382117716535435
20
-3.359668464566929
11
5.2407662598425198
21
-3.3579615748031495
0
LINE
8
BLACK
6
CONTINUOUS
10
5.2407662598425198
20
-3.3579615748031495
11
5.2437795275590551
21
-3.3573622047244092
0
LINE
8
BLACK
6
CONTINUOUS
10
5.2437795275590551
20
-3.3573622047244092
11
5.275275590551181
21
-3.3573622047244092
0
LINE
8
BLACK
6
CONTINUOUS
10
5.275275590551181
20
-3.3573622047244092
11
5.2782888582677163
21
-3.3579615748031495
0
LINE
8
BLACK
6
CONTINUOUS
10
5.5092337401574802
20
-3.3579615748031495
11
5.5117882283464565
21
-3.359668464566929
0
LINE
8
BLACK
6
CONTINUOUS
10
5.5117882283464565
20
-3.359668464566929
11
5.5134951181102361
21
-3.3622229527559053
0
LINE
8
BLACK
6
CONTINUOUS
10
5.5134951181102361
20
-3.3622229527559053
11
5.5140944881889764
21
-3.3652362204724411
0
LINE
8
BLACK
6
CONTINUOUS
10
5.5140944881889764
20
-3.3652362204724411
11
5.5140944881889764
21
-3.3947637795275591
0
LINE
8
BLACK
6
CONTINUOUS
10
5.5140944881889764
20
-3.3947637795275591
11
5.5134951181102361
21
-3.3977770472440945
0
LINE
8
BLACK
6
CONTINUOUS
10
5.5134951181102361
20
-3.3977770472440945
11
5.5117882283464565
21
-3.4003315354330708
0
LINE
8
BLACK
6
CONTINUOUS
10
5.5117882283464565
20
-3.4003315354330708
11
5.5092337401574802
21
-3.4020384251968503
0
LINE
8
BLACK
6
CONTINUOUS
10
5.5092337401574802
20
-3.4020384251968503
11
5.5062204724409449
21
-3.4026377952755906
0
LINE
8
BLACK
6
CONTINUOUS
10
5.5062204724409449
20
-3.4026377952755906
11
5.474724409448819
21
-3.4026377952755906
0
LINE
8
BLACK
6
CONTINUOUS
10
5.474724409448819
20
-3.4026377952755906
11
5.4717111417322837
21
-3.4020384251968503
0
LINE
8
BLACK
6
CONTINUOUS
10
5.4717111417322837
20
-3.4020384251968503
11
5.4691566535433074
21
-3.4003315354330708
0
LINE
8
BLACK
6
CONTINUOUS
10
5.4691566535433074
20
-3.4003315354330708
11
5.4674497637795278
21
-3.3977770472440945
0
LINE
8
BLACK
6
CONTINUOUS
10
5.4674497637795278
20
-3.3977770472440945
11
5.4668503937007875
21
-3.3947637795275591
0
LINE
8
BLACK
6
CONTINUOUS
10
5.4668503937007875
20
-3.3947637795275591
11
5.4668503937007875
21
-3.3652362204724411
0
LINE
8
BLACK
6
CONTINUOUS
10
5.4668503937007875
20
-3.3652362204724411
11
5.4674497637795278
21
-3.3622229527559053
0
LINE
8
BLACK
6
CONTINUOUS
10
5.4674497637795278
20
-3.3622229527559053
11
5.4691566535433074
21
-3.359668464566929
0
LINE
8
BLACK
6
CONTINUOUS
10
5.4691566535433074
20
-3.359668464566929
11
5.4717111417322837
21
-3.3579615748031495
0
LINE
8
BLACK
6
CONTINUOUS
10
5.4717111417322837
20
-3.3579615748031495
11
5.474724409448819
21
-3.3573622047244092
0
LINE
8
BLACK
6
CONTINUOUS
10
5.474724409448819
20
-3.3573622047244092
11
5.5062204724409449
21
-3.3573622047244092
0
LINE
8
BLACK
6
CONTINUOUS
10
5.5062204724409449
20
-3.3573622047244092
11
5.5092337401574802
21
-3.3579615748031495
0
LINE
8
BLACK
6
CONTINUOUS
10
5.5682888582677164
20
-3.3579615748031495
11
5.5708433464566927
21
-3.359668464566929
0
LINE
8
BLACK
6
CONTINUOUS
10
5.5708433464566927
20
-3.359668464566929
11
5.5725502362204722
21
-3.3622229527559053
0
LINE
8
BLACK
6
CONTINUOUS
10
5.5725502362204722
20
-3.3622229527559053
11
5.5731496062992125
21
-3.3652362204724411
0
LINE
8
BLACK
6
CONTINUOUS
10
5.5731496062992125
20
-3.3652362204724411
11
5.5731496062992125
21
-3.3947637795275591
0
LINE
8
BLACK
6
CONTINUOUS
10
5.5731496062992125
20
-3.3947637795275591
11
5.5725502362204722
21
-3.3977770472440945
0
LINE
8
BLACK
6
CONTINUOUS
10
5.5725502362204722
20
-3.3977770472440945
11
5.5708433464566927
21
-3.4003315354330708
0
LINE
8
BLACK
6
CONTINUOUS
10
5.5708433464566927
20
-3.4003315354330708
11
5.5682888582677164
21
-3.4020384251968503
0
LINE
8
BLACK
6
CONTINUOUS
10
5.5682888582677164
20
-3.4020384251968503
11
5.565275590551181
21
-3.4026377952755906
0
LINE
8
BLACK
6
CONTINUOUS
10
5.565275590551181
20
-3.4026377952755906
11
5.5337795275590551
21
-3.4026377952755906
0
LINE
8
BLACK
6
CONTINUOUS
10
5.5337795275590551
20
-3.4026377952755906
11
5.5307662598425198
21
-3.4020384251968503
0
LINE
8
BLACK
6
CONTINUOUS
10
5.5307662598425198
20
-3.4020384251968503
11
5.5282117716535435
21
-3.4003315354330708
0
LINE
8
BLACK
6
CONTINUOUS
10
5.5282117716535435
20
-3.4003315354330708
11
5.526504881889764
21
-3.3977770472440945
0
LINE
8
BLACK
6
CONTINUOUS
10
5.526504881889764
20
-3.3977770472440945
11
5.5259055118110236
21
-3.3947637795275591
0
LINE
8
BLACK
6
CONTINUOUS
10
5.5259055118110236
20
-3.3947637795275591
11
5.5259055118110236
21
-3.3652362204724411
0
LINE
8
BLACK
6
CONTINUOUS
10
5.5259055118110236
20
-3.3652362204724411
11
5.526504881889764
21
-3.3622229527559053
0
LINE
8
BLACK
6
CONTINUOUS
10
5.526504881889764
20
-3.3622229527559053
11
5.5282117716535435
21
-3.359668464566929
0
LINE
8
BLACK
6
CONTINUOUS
10
5.5282117716535435
20
-3.359668464566929
11
5.5307662598425198
21
-3.3579615748031495
0
LINE
8
BLACK
6
CONTINUOUS
10
5.5307662598425198
20
-3.3579615748031495
11
5.5337795275590551
21
-3.3573622047244092
0
LINE
8
BLACK
6
CONTINUOUS
10
5.5337795275590551
20
-3.3573622047244092
11
5.565275590551181
21
-3.3573622047244092
0
LINE
8
BLACK
6
CONTINUOUS
10
5.565275590551181
20
-3.3573622047244092
11
5.5682888582677164
21
-3.3579615748031495
0
LINE
8
BLACK
6
CONTINUOUS
10
4.0216558661417325
20
-2.8679051181102362
11
4.0358108661417322
21
-2.8710208661417322
0
LINE
8
BLACK
6
CONTINUOUS
10
4.0358108661417322
20
-2.8710208661417322
11
4.0495460629921256
21
-2.8756487795275589
0
LINE
8
BLACK
6
CONTINUOUS
10
4.0495460629921256
20
-2.8756487795275589
11
4.0627003543307083
21
-2.8817346062992124
0
LINE
8
BLACK
6
CONTINUOUS
10
4.0627003543307083
20
-2.8817346062992124
11
4.075119527559055
21
-2.8892069685039368
0
LINE
8
BLACK
6
CONTINUOUS
10
4.075119527559055
20
-2.8892069685039368
11
4.0866579921259838
21
-2.8979783070866141
0
LINE
8
BLACK
6
CONTINUOUS
10
4.0866579921259838
20
-2.8979783070866141
11
4.0971805118110236
21
-2.9079457480314961
0
LINE
8
BLACK
6
CONTINUOUS
10
4.0971805118110236
20
-2.9079457480314961
11
4.1065636220472443
21
-2.9189924409448817
0
LINE
8
BLACK
6
CONTINUOUS
10
4.1065636220472443
20
-2.9189924409448817
11
4.1146974015748032
21
-2.9309888582677166
0
LINE
8
BLACK
6
CONTINUOUS
10
4.1146974015748032
20
-2.9309888582677166
11
4.1214864566929137
21
-2.9437943700787401
0
LINE
8
BLACK
6
CONTINUOUS
10
4.1214864566929137
20
-2.9437943700787401
11
4.1268512204724406
21
-2.9572588582677164
0
LINE
8
BLACK
6
CONTINUOUS
10
4.1268512204724406
20
-2.9572588582677164
11
4.1307287401574806
21
-2.9712244488188975
0
LINE
8
BLACK
6
CONTINUOUS
10
4.1307287401574806
20
-2.9712244488188975
11
4.1330735826771656
21
-2.9855273622047243
0
LINE
8
BLACK
6
CONTINUOUS
10
4.1330735826771656
20
-2.9855273622047243
11
4.1338582677165352
21
-3.
0
LINE
8
BLACK
6
CONTINUOUS
10
4.1338582677165352
20
-3.
11
4.1330735826771656
21
-3.0144726377952753
0
LINE
8
BLACK
6
CONTINUOUS
10
4.1330735826771656
20
-3.0144726377952753
11
4.1307287401574806
21
-3.0287755511811021
0
LINE
8
BLACK
6
CONTINUOUS
10
4.1307287401574806
20
-3.0287755511811021
11
4.1268512204724406
21
-3.0427411417322836
0
LINE
8
BLACK
6
CONTINUOUS
10
4.1268512204724406
20
-3.0427411417322836
11
4.1214864566929137
21
-3.0562056299212599
0
LINE
8
BLACK
6
CONTINUOUS
10
4.1214864566929137
20
-3.0562056299212599
11
4.1146974015748032
21
-3.0690111417322834
0
LINE
8
BLACK
6
CONTINUOUS
10
4.1146974015748032
20
-3.0690111417322834
11
4.1065636220472443
21
-3.0810075590551183
0
LINE
8
BLACK
6
CONTINUOUS
10
4.1065636220472443
20
-3.0810075590551183
11
4.0971805118110236
21
-3.0920542519685039
0
LINE
8
BLACK
6
CONTINUOUS
10
4.0971805118110236
20
-3.0920542519685039
11
4.0866579921259838
21
-3.1020216929133859
0
LINE
8
BLACK
6
CONTINUOUS
10
4.0866579921259838
20
-3.1020216929133859
11
4.075119527559055
21
-3.1107930314960628
0
LINE
8
BLACK
6
CONTINUOUS
10
4.075119527559055
20
-3.1107930314960628
11
4.0627003543307083
21
-3.1182653937007871
0
LINE
8
BLACK
6
CONTINUOUS
10
4.0627003543307083
20
-3.1182653937007871
11
4.0495460629921256
21
-3.1243512204724411
0
LINE
8
BLACK
6
CONTINUOUS
10
4.0495460629921256
20
-3.1243512204724411
11
4.0358108661417322
21
-3.1289791338582678
0
LINE
8
BLACK
6
CONTINUOUS
10
4.0358108661417322
20
-3.1289791338582678
11
4.0216558661417325
21
-3.1320948818897638
0
LINE
8
BLACK
6
CONTINUOUS
10
4.0216558661417325
20
-3.1320948818897638
11
4.0072469291338582
21
-3.1336619685039371
0
LINE
8
BLACK
6
CONTINUOUS
10
4.0072469291338582
20
-3.1336619685039371
11
3.9927530708661418
21
-3.1336619685039371
0
LINE
8
BLACK
6
CONTINUOUS
10
3.9927530708661418
20
-3.1336619685039371
11
3.9783441338582675
21
-3.1320948818897638
0
LINE
8
BLACK
6
CONTINUOUS
10
3.9783441338582675
20
-3.1320948818897638
11
3.9641891338582678
21
-3.1289791338582678
0
LINE
8
BLACK
6
CONTINUOUS
10
3.9641891338582678
20
-3.1289791338582678
11
3.950453937007874
21
-3.1243512204724411
0
LINE
8
BLACK
6
CONTINUOUS
10
3.950453937007874
20
-3.1243512204724411
11
3.9372996456692912
21
-3.1182653937007871
0
LINE
8
BLACK
6
CONTINUOUS
10
3.9372996456692912
20
-3.1182653937007871
11
3.924880472440945
21
-3.1107930314960628
0
LINE
8
BLACK
6
CONTINUOUS
10
3.924880472440945
20
-3.1107930314960628
11
3.9133420078740158
21
-3.1020216929133859
0
LINE
8
BLACK
6
CONTINUOUS
10
3.9133420078740158
20
-3.1020216929133859
11
3.9028194881889764
21
-3.0920542519685039
0
LINE
8
BLACK
6
CONTINUOUS
10
3.9028194881889764
20
-3.0920542519685039
11
3.8934363779527557
21
-3.0810075590551183
0
LINE
8
BLACK
6
CONTINUOUS
10
3.8934363779527557
20
-3.0810075590551183
11
3.8853025984251968
21
-3.0690111417322834
0
LINE
8
BLACK
6
CONTINUOUS
10
3.8853025984251968
20
-3.0690111417322834
11
3.8785135433070863
21
-3.0562056299212599
0
LINE
8
BLACK
6
CONTINUOUS
10
3.8785135433070863
20
-3.0562056299212599
11
3.873148779527559
21
-3.0427411417322836
0
LINE
8
BLACK
6
CONTINUOUS
10
3.873148779527559
20
-3.0427411417322836
11
3.8692712598425194
21
-3.0287755511811021
0
LINE
8
BLACK
6
CONTINUOUS
10
3.8692712598425194
20
-3.0287755511811021
11
3.8669264173228344
21
-3.0144726377952753
0
LINE
8
BLACK
6
CONTINUOUS
10
3.8669264173228344
20
-3.0144726377952753
11
3.8661417322834644
21
-3.
0
LINE
8
BLACK
6
CONTINUOUS
10
3.8661417322834644
20
-3.
11
3.8669264173228344
21
-2.9855273622047243
0
LINE
8
BLACK
6
CONTINUOUS
10
3.8669264173228344
20
-2.9855273622047243
11
3.8692712598425194
21
-2.9712244488188975
0
LINE
8
BLACK
6
CONTINUOUS
10
3.8692712598425194
20
-2.9712244488188975
11
3.873148779527559
21
-2.9572588582677164
0
LINE
8
BLACK
6
CONTINUOUS
10
3.873148779527559
20
-2.9572588582677164
11
3.8785135433070863
21
-2.9437943700787401
0
LINE
8
BLACK
6
CONTINUOUS
10
3.8785135433070863
20
-2.9437943700787401
11
3.8853025984251968
21
-2.9309888582677166
0
LINE
8
BLACK
6
CONTINUOUS
10
3.8853025984251968
20
-2.9309888582677166
11
3.8934363779527557
21
-2.9189924409448817
0
LINE
8
BLACK
6
CONTINUOUS
10
3.8934363779527557
20
-2.9189924409448817
11
3.9028194881889764
21
-2.9079457480314961
0
LINE
8
BLACK
6
CONTINUOUS
10
3.9028194881889764
20
-2.9079457480314961
11
3.9133420078740158
21
-2.8979783070866141
0
LINE
8
BLACK
6
CONTINUOUS
10
3.9133420078740158
20
-2.8979783070866141
11
3.924880472440945
21
-2.8892069685039368
0
LINE
8
BLACK
6
CONTINUOUS
10
3.924880472440945
20
-2.8892069685039368
11
3.9372996456692912
21
-2.8817346062992124
0
LINE
8
BLACK
6
CONTINUOUS
10
3.9372996456692912
20
-2.8817346062992124
11
3.950453937007874
21
-2.8756487795275589
0
LINE
8
BLACK
6
CONTINUOUS
10
3.950453937007874
20
-2.8756487795275589
11
3.9641891338582678
21
-2.8710208661417322
0
LINE
8
BLACK
6
CONTINUOUS
10
3.9641891338582678
20
-2.8710208661417322
11
3.9783441338582675
21
-2.8679051181102362
0
LINE
8
BLACK
6
CONTINUOUS
10
3.9783441338582675
20
-2.8679051181102362
11
3.9927530708661418
21
-2.8663380314960629
0
LINE
8
BLACK
6
CONTINUOUS
10
3.9927530708661418
20
-2.8663380314960629
11
4.0072469291338582
21
-2.8663380314960629
0
LINE
8
BLACK
6
CONTINUOUS
10
4.0072469291338582
20
-2.8663380314960629
11
4.0216558661417325
21
-2.8679051181102362
0
LINE
8
BLACK
6
CONTINUOUS
10
5.7216558661417318
20
-2.8679051181102362
11
5.7358108661417324
21
-2.8710208661417322
0
LINE
8
BLACK
6
CONTINUOUS
10
5.7358108661417324
20
-2.8710208661417322
11
5.7495460629921258
21
-2.8756487795275589
0
LINE
8
BLACK
6
CONTINUOUS
10
5.7495460629921258
20
-2.8756487795275589
11
5.7627003543307085
21
-2.8817346062992124
0
LINE
8
BLACK
6
CONTINUOUS
10
5.7627003543307085
20
-2.8817346062992124
11
5.7751195275590552
21
-2.8892069685039368
0
LINE
8
BLACK
6
CONTINUOUS
10
5.7751195275590552
20
-2.8892069685039368
11
5.786657992125984
21
-2.8979783070866141
0
LINE
8
BLACK
6
CONTINUOUS
10
5.786657992125984
20
-2.8979783070866141
11
5.7971805118110238
21
-2.9079457480314961
0
LINE
8
BLACK
6
CONTINUOUS
10
5.7971805118110238
20
-2.9079457480314961
11
5.8065636220472436
21
-2.9189924409448817
0
LINE
8
BLACK
6
CONTINUOUS
10
5.8065636220472436
20
-2.9189924409448817
11
5.8146974015748034
21
-2.9309888582677166
0
LINE
8
BLACK
6
CONTINUOUS
10
5.8146974015748034
20
-2.9309888582677166
11
5.821486456692913
21
-2.9437943700787401
0
LINE
8
BLACK
6
CONTINUOUS
10
5.821486456692913
20
-2.9437943700787401
11
5.8268512204724408
21
-2.9572588582677164
0
LINE
8
BLACK
6
CONTINUOUS
10
5.8268512204724408
20
-2.9572588582677164
11
5.8307287401574799
21
-2.9712244488188975
0
LINE
8
BLACK
6
CONTINUOUS
10
5.8307287401574799
20
-2.9712244488188975
11
5.8330735826771649
21
-2.9855273622047243
0
LINE
8
BLACK
6
CONTINUOUS
10
5.8330735826771649
20
-2.9855273622047243
11
5.8338582677165354
21
-3.
0
LINE
8
BLACK
6
CONTINUOUS
10
5.8338582677165354
20
-3.
11
5.8330735826771649
21
-3.0144726377952753
0
LINE
8
BLACK
6
CONTINUOUS
10
5.8330735826771649
20
-3.0144726377952753
11
5.8307287401574799
21
-3.0287755511811021
0
LINE
8
BLACK
6
CONTINUOUS
10
5.8307287401574799
20
-3.0287755511811021
11
5.8268512204724408
21
-3.0427411417322836
0
LINE
8
BLACK
6
CONTINUOUS
10
5.8268512204724408
20
-3.0427411417322836
11
5.821486456692913
21
-3.0562056299212599
0
LINE
8
BLACK
6
CONTINUOUS
10
5.821486456692913
20
-3.0562056299212599
11
5.8146974015748034
21
-3.0690111417322834
0
LINE
8
BLACK
6
CONTINUOUS
10
5.8146974015748034
20
-3.0690111417322834
11
5.8065636220472436
21
-3.0810075590551183
0
LINE
8
BLACK
6
CONTINUOUS
10
5.8065636220472436
20
-3.0810075590551183
11
5.7971805118110238
21
-3.0920542519685039
0
LINE
8
BLACK
6
CONTINUOUS
10
5.7971805118110238
20
-3.0920542519685039
11
5.786657992125984
21
-3.1020216929133859
0
LINE
8
BLACK
6
CONTINUOUS
10
5.786657992125984
20
-3.1020216929133859
11
5.7751195275590552
21
-3.1107930314960628
0
LINE
8
BLACK
6
CONTINUOUS
10
5.7751195275590552
20
-3.1107930314960628
11
5.7627003543307085
21
-3.1182653937007871
0
LINE
8
BLACK
6
CONTINUOUS
10
5.7627003543307085
20
-3.1182653937007871
11
5.7495460629921258
21
-3.1243512204724411
0
LINE
8
BLACK
6
CONTINUOUS
10
5.7495460629921258
20
-3.1243512204724411
11
5.7358108661417324
21
-3.1289791338582678
0
LINE
8
BLACK
6
CONTINUOUS
10
5.7358108661417324
20
-3.1289791338582678
11
5.7216558661417318
21
-3.1320948818897638
0
LINE
8
BLACK
6
CONTINUOUS
10
5.7216558661417318
20
-3.1320948818897638
11
5.7072469291338583
21
-3.1336619685039371
0
LINE
8
BLACK
6
CONTINUOUS
10
5.7072469291338583
20
-3.1336619685039371
11
5.692753070866142
21
-3.1336619685039371
0
LINE
8
BLACK
6
CONTINUOUS
10
5.692753070866142
20
-3.1336619685039371
11
5.6783441338582676
21
-3.1320948818897638
0
LINE
8
BLACK
6
CONTINUOUS
10
5.6783441338582676
20
-3.1320948818897638
11
5.6641891338582679
21
-3.1289791338582678
0
LINE
8
BLACK
6
CONTINUOUS
10
5.6641891338582679
20
-3.1289791338582678
11
5.6504539370078737
21
-3.1243512204724411
0
LINE
8
BLACK
6
CONTINUOUS
10
5.6504539370078737
20
-3.1243512204724411
11
5.637299645669291
21
-3.1182653937007871
0
LINE
8
BLACK
6
CONTINUOUS
10
5.637299645669291
20
-3.1182653937007871
11
5.6248804724409451
21
-3.1107930314960628
0
LINE
8
BLACK
6
CONTINUOUS
10
5.6248804724409451
20
-3.1107930314960628
11
5.6133420078740155
21
-3.1020216929133859
0
LINE
8
BLACK
6
CONTINUOUS
10
5.6133420078740155
20
-3.1020216929133859
11
5.6028194881889766
21
-3.0920542519685039
0
LINE
8
BLACK
6
CONTINUOUS
10
5.6028194881889766
20
-3.0920542519685039
11
5.5934363779527558
21
-3.0810075590551183
0
LINE
8
BLACK
6
CONTINUOUS
10
5.5934363779527558
20
-3.0810075590551183
11
5.5853025984251969
21
-3.0690111417322834
0
LINE
8
BLACK
6
CONTINUOUS
10
5.5853025984251969
20
-3.0690111417322834
11
5.5785135433070865
21
-3.0562056299212599
0
LINE
8
BLACK
6
CONTINUOUS
10
5.5785135433070865
20
-3.0562056299212599
11
5.5731487795275587
21
-3.0427411417322836
0
LINE
8
BLACK
6
CONTINUOUS
10
5.5731487795275587
20
-3.0427411417322836
11
5.5692712598425196
21
-3.0287755511811021
0
LINE
8
BLACK
6
CONTINUOUS
10
5.5692712598425196
20
-3.0287755511811021
11
5.5669264173228346
21
-3.0144726377952753
0
LINE
8
BLACK
6
CONTINUOUS
10
5.5669264173228346
20
-3.0144726377952753
11
5.5661417322834641
21
-3.
0
LINE
8
BLACK
6
CONTINUOUS
10
5.5661417322834641
20
-3.
11
5.5669264173228346
21
-2.9855273622047243
0
LINE
8
BLACK
6
CONTINUOUS
10
5.5669264173228346
20
-2.9855273622047243
11
5.5692712598425196
21
-2.9712244488188975
0
LINE
8
BLACK
6
CONTINUOUS
10
5.5692712598425196
20
-2.9712244488188975
11
5.5731487795275587
21
-2.9572588582677164
0
LINE
8
BLACK
6
CONTINUOUS
10
5.5731487795275587
20
-2.9572588582677164
11
5.5785135433070865
21
-2.9437943700787401
0
LINE
8
BLACK
6
CONTINUOUS
10
5.5785135433070865
20
-2.9437943700787401
11
5.5853025984251969
21
-2.9309888582677166
0
LINE
8
BLACK
6
CONTINUOUS
10
5.5853025984251969
20
-2.9309888582677166
11
5.5934363779527558
21
-2.9189924409448817
0
LINE
8
BLACK
6
CONTINUOUS
10
5.5934363779527558
20
-2.9189924409448817
11
5.6028194881889766
21
-2.9079457480314961
0
LINE
8
BLACK
6
CONTINUOUS
10
5.6028194881889766
20
-2.9079457480314961
11
5.6133420078740155
21
-2.8979783070866141
0
LINE
8
BLACK
6
CONTINUOUS
10
5.6133420078740155
20
-2.8979783070866141
11
5.6248804724409451
21
-2.8892069685039368
0
LINE
8
BLACK
6
CONTINUOUS
10
5.6248804724409451
20
-2.8892069685039368
11
5.637299645669291
21
-2.8817346062992124
0
LINE
8
BLACK
6
CONTINUOUS
10
5.637299645669291
20
-2.8817346062992124
11
5.6504539370078737
21
-2.8756487795275589
0
LINE
8
BLACK
6
CONTINUOUS
10
5.6504539370078737
20
-2.8756487795275589
11
5.6641891338582679
21
-2.8710208661417322
0
LINE
8
BLACK
6
CONTINUOUS
10
5.6641891338582679
20
-2.8710208661417322
11
5.6783441338582676
21
-2.8679051181102362
0
LINE
8
BLACK
6
CONTINUOUS
10
5.6783441338582676
20
-2.8679051181102362
11
5.692753070866142
21
-2.8663380314960629
0
LINE
8
BLACK
6
CONTINUOUS
10
5.692753070866142
20
-2.8663380314960629
11
5.7072469291338583
21
-2.8663380314960629
0
LINE
8
BLACK
6
CONTINUOUS
10
5.7072469291338583
20
-2.8663380314960629
11
5.7216558661417318
21
-2.8679051181102362
  0
ENDSEC
  0
EOF
