  0
SECTION
  2
HEADER
  9
$ANGBASE
  50
0.0
  9
$ANGDIR
  70
1
  9
$MEASUREMENT
  70
0
  0
ENDSEC
  0
SECTION
  2
TABLES
  0
TABLE
  2
LTYPE
  70
4
  0
LTYPE
  5
40F
  2
CONTINUOUS
  70
0
  3
Solid line
  72
65
  73
0
  40
0.0
  0
LTYPE
  5
410
  2
DASHDOT
 70
0
  3
Dash Dot ____ _ ____ _
 72
65
 73
4
 40
2.0
 49
1.25
 49
-0.25
 49
0.25
 49
-0.25
  0
LTYPE
  5
411
  2
DASHED
 70
0
  3
Dashed __ __ __ __ __
 72
65
 73
2
 40
0.75
 49
0.5
 49
-0.25
  0
LTYPE
  5
43B
  2
DOTTED
 70
0
  3
Dotted .  .  .  .
 72
65
 73
2
 40
0.2
 49
0.0
 49
-0.2
  0
ENDTAB
  0
TABLE
  2
STYLE
  70
4
  0
STYLE
  2
KICAD
  70
0
  40
0
  41
1
  42
1
  50
0
  71
0
  3
isocp.shx
  0
STYLE
  2
KICADB
  70
0
  40
0
  41
1
  42
1
  50
0
  71
0
  3
isocp.shx
  0
STYLE
  2
KICADI
  70
0
  40
0
  41
1
  42
1
  50
15
  71
0
  3
isocp.shx
  0
STYLE
  2
KICADBI
  70
0
  40
0
  41
1
  42
1
  50
15
  71
0
  3
isocp.shx
  0
ENDTAB
  0
TABLE
  2
LAYER
  70
1
  0
LAYER
  2
BLACK
  70
0
  62
7
  6
CONTINUOUS
  0
ENDTAB
  0
ENDSEC
  0
SECTION
  2
ENTITIES
0
LINE
8
BLACK
6
CONTINUOUS
10
5.4611521259842517
20
-3.1942079527559053
11
5.4620338976377951
21
-3.1945731889763778
0
LINE
8
BLACK
6
CONTINUOUS
10
5.4620338976377951
20
-3.1945731889763778
11
5.4632809055118106
21
-3.1950897244094487
0
LINE
8
BLACK
6
CONTINUOUS
10
5.4632809055118106
20
-3.1950897244094487
11
5.6162033858267719
21
-3.3478517322834644
0
LINE
8
BLACK
6
CONTINUOUS
10
5.6162033858267719
20
-3.3478517322834644
11
5.6169378346456691
21
-3.3487466535433068
0
LINE
8
BLACK
6
CONTINUOUS
10
5.6169378346456691
20
-3.3487466535433068
11
5.6174543307086608
21
-3.3499936614173227
0
LINE
8
BLACK
6
CONTINUOUS
10
5.6174543307086608
20
-3.3499936614173227
11
5.6178196062992125
21
-3.3508754330708661
0
LINE
8
BLACK
6
CONTINUOUS
10
5.6178196062992125
20
-3.3508754330708661
11
5.6179330708661412
21
-3.4209251968503938
0
LINE
8
BLACK
6
CONTINUOUS
10
5.6179330708661412
20
-3.4209251968503938
11
5.6178286220472442
21
-3.4219853937007874
0
LINE
8
BLACK
6
CONTINUOUS
10
5.6178286220472442
20
-3.4219853937007874
11
5.6178726377952755
21
-3.432736220472441
0
LINE
8
BLACK
6
CONTINUOUS
10
5.6178726377952755
20
-3.432736220472441
11
5.627775590551181
21
-3.432736220472441
0
LINE
8
BLACK
6
CONTINUOUS
10
5.627775590551181
20
-3.432736220472441
11
5.627775590551181
21
-3.462263779527559
0
LINE
8
BLACK
6
CONTINUOUS
10
5.627775590551181
20
-3.462263779527559
11
5.5962795275590551
21
-3.462263779527559
0
LINE
8
BLACK
6
CONTINUOUS
10
5.5962795275590551
20
-3.462263779527559
11
5.5962795275590551
21
-3.432736220472441
0
LINE
8
BLACK
6
CONTINUOUS
10
5.5962795275590551
20
-3.432736220472441
11
5.6061703937007872
21
-3.432736220472441
0
LINE
8
BLACK
6
CONTINUOUS
10
5.6061703937007872
20
-3.432736220472441
11
5.606122047244094
21
-3.4209251968503938
0
LINE
8
BLACK
6
CONTINUOUS
10
5.606122047244094
20
-3.4209251968503938
11
5.6062318110236218
21
-3.4198103543307088
0
LINE
8
BLACK
6
CONTINUOUS
10
5.6062318110236218
20
-3.4198103543307088
11
5.6061257480314959
21
-3.3543196850393699
0
LINE
8
BLACK
6
CONTINUOUS
10
5.6061257480314959
20
-3.3543196850393699
11
5.4574424015748031
21
-3.2057923622047242
0
LINE
8
BLACK
6
CONTINUOUS
10
5.4574424015748031
20
-3.2057923622047242
11
4.2322879527559056
21
-3.2059052755905513
0
LINE
8
BLACK
6
CONTINUOUS
10
4.2322879527559056
20
-3.2059052755905513
11
4.0357927165354326
21
-3.4025575984251968
0
LINE
8
BLACK
6
CONTINUOUS
10
4.0357927165354326
20
-3.4025575984251968
11
4.0359050787401571
21
-3.997710748031496
0
LINE
8
BLACK
6
CONTINUOUS
10
4.0359050787401571
20
-3.997710748031496
11
4.0972672834645669
21
-4.0590000000000002
0
LINE
8
BLACK
6
CONTINUOUS
10
4.0972672834645669
20
-4.0590000000000002
11
4.2409999999999997
21
-4.0590000000000002
0
LINE
8
BLACK
6
CONTINUOUS
10
4.2409999999999997
20
-4.0590000000000002
11
4.2409999999999997
21
-4.1049999999999995
0
LINE
8
BLACK
6
CONTINUOUS
10
4.2409999999999997
20
-4.1049999999999995
11
4.2878503937007872
21
-4.1049999999999995
0
LINE
8
BLACK
6
CONTINUOUS
10
4.2878503937007872
20
-4.1049999999999995
11
4.2878503937007872
21
-4.0590000000000002
0
LINE
8
BLACK
6
CONTINUOUS
10
4.2878503937007872
20
-4.0590000000000002
11
4.4378503937007876
21
-4.0590000000000002
0
LINE
8
BLACK
6
CONTINUOUS
10
4.4378503937007876
20
-4.0590000000000002
11
4.4378503937007876
21
-4.1049999999999995
0
LINE
8
BLACK
6
CONTINUOUS
10
4.4378503937007876
20
-4.1049999999999995
11
5.5040994488188977
21
-4.1049999999999995
0
LINE
8
BLACK
6
CONTINUOUS
10
5.5040994488188977
20
-4.1049999999999995
11
5.5067813779527555
21
-4.1057874803149605
0
LINE
8
BLACK
6
CONTINUOUS
10
5.5067813779527555
20
-4.1057874803149605
11
5.5086118110236217
21
-4.1078999212598424
0
LINE
8
BLACK
6
CONTINUOUS
10
5.5086118110236217
20
-4.1078999212598424
11
5.5088373228346459
21
-4.1084907874015748
0
LINE
8
BLACK
6
CONTINUOUS
10
5.5088373228346459
20
-4.1084907874015748
11
5.5089552362204719
21
-4.1088708661417321
0
LINE
8
BLACK
6
CONTINUOUS
10
5.5089552362204719
20
-4.1088708661417321
11
5.5091779921259842
21
-4.1103407086614174
0
LINE
8
BLACK
6
CONTINUOUS
10
5.5091779921259842
20
-4.1103407086614174
11
5.5091779921259842
21
-4.2500393700787402
0
LINE
8
BLACK
6
CONTINUOUS
10
5.5091779921259842
20
-4.2500393700787402
11
5.5083905118110232
21
-4.252721299212598
0
LINE
8
BLACK
6
CONTINUOUS
10
5.5083905118110232
20
-4.252721299212598
11
5.5062780708661414
21
-4.2545517322834643
0
LINE
8
BLACK
6
CONTINUOUS
10
5.5062780708661414
20
-4.2545517322834643
11
5.5042173622047246
21
-4.2549999999999999
0
LINE
8
BLACK
6
CONTINUOUS
10
5.5042173622047246
20
-4.2549999999999999
11
4.0899606299212596
21
-4.2549999999999999
0
LINE
8
BLACK
6
CONTINUOUS
10
4.0899606299212596
20
-4.2549999999999999
11
4.0872787007874019
21
-4.2542125196850389
0
LINE
8
BLACK
6
CONTINUOUS
10
4.0872787007874019
20
-4.2542125196850389
11
4.0854482677165356
21
-4.2521000787401571
0
LINE
8
BLACK
6
CONTINUOUS
10
4.0854482677165356
20
-4.2521000787401571
11
4.085
21
-4.2500393700787402
0
LINE
8
BLACK
6
CONTINUOUS
10
4.085
20
-4.2500393700787402
11
4.085
21
-4.1099606299212601
0
LINE
8
BLACK
6
CONTINUOUS
10
4.085
20
-4.1099606299212601
11
4.085787480314961
21
-4.1072787007874014
0
LINE
8
BLACK
6
CONTINUOUS
10
4.085787480314961
20
-4.1072787007874014
11
4.0878999212598428
21
-4.1054482677165351
0
LINE
8
BLACK
6
CONTINUOUS
10
4.0878999212598428
20
-4.1054482677165351
11
4.0899606299212596
21
-4.1049999999999995
0
LINE
8
BLACK
6
CONTINUOUS
10
4.0899606299212596
20
-4.1049999999999995
11
4.0910000000000002
21
-4.1049999999999995
0
LINE
8
BLACK
6
CONTINUOUS
10
4.0910000000000002
20
-4.1049999999999995
11
4.0910000000000002
21
-4.0692741338582676
0
LINE
8
BLACK
6
CONTINUOUS
10
4.0910000000000002
20
-4.0692741338582676
11
4.0258241732283464
21
-4.0041758267716538
0
LINE
8
BLACK
6
CONTINUOUS
10
4.0258241732283464
20
-4.0041758267716538
11
4.0250897244094483
21
-4.0032809055118106
0
LINE
8
BLACK
6
CONTINUOUS
10
4.0250897244094483
20
-4.0032809055118106
11
4.0242079527559058
21
-4.001152086614173
0
LINE
8
BLACK
6
CONTINUOUS
10
4.0242079527559058
20
-4.001152086614173
11
4.0240944881889762
21
-3.3999999999999999
0
LINE
8
BLACK
6
CONTINUOUS
10
4.0240944881889762
20
-3.3999999999999999
11
4.0242079527559058
21
-3.3988478740157482
0
LINE
8
BLACK
6
CONTINUOUS
10
4.0242079527559058
20
-3.3988478740157482
11
4.024788464566929
21
-3.3974464173228345
0
LINE
8
BLACK
6
CONTINUOUS
10
4.024788464566929
20
-3.3974464173228345
11
4.0250897244094483
21
-3.3967190944881889
0
LINE
8
BLACK
6
CONTINUOUS
10
4.0250897244094483
20
-3.3967190944881889
11
4.2258241732283466
21
-3.1958241732283463
0
LINE
8
BLACK
6
CONTINUOUS
10
4.2258241732283466
20
-3.1958241732283463
11
4.2267190944881889
21
-3.1950897244094487
0
LINE
8
BLACK
6
CONTINUOUS
10
4.2267190944881889
20
-3.1950897244094487
11
4.2279661023622044
21
-3.1945731889763778
0
LINE
8
BLACK
6
CONTINUOUS
10
4.2279661023622044
20
-3.1945731889763778
11
4.2288478740157478
21
-3.1942079527559053
0
LINE
8
BLACK
6
CONTINUOUS
10
4.2288478740157478
20
-3.1942079527559053
11
5.46
21
-3.1940944881889761
0
LINE
8
BLACK
6
CONTINUOUS
10
5.46
20
-3.1940944881889761
11
5.4611521259842517
21
-3.1942079527559053
0
LINE
8
BLACK
6
CONTINUOUS
10
5.5077212992125979
20
-3.5807874803149606
11
5.5095517322834642
21
-3.5828999212598425
0
LINE
8
BLACK
6
CONTINUOUS
10
5.5095517322834642
20
-3.5828999212598425
11
5.5099999999999998
21
-3.5849606299212597
0
LINE
8
BLACK
6
CONTINUOUS
10
5.5099999999999998
20
-3.5849606299212597
11
5.5099999999999998
21
-3.5924505511811025
0
LINE
8
BLACK
6
CONTINUOUS
10
5.5099999999999998
20
-3.5924505511811025
11
5.537224409448819
21
-3.5924189370078738
0
LINE
8
BLACK
6
CONTINUOUS
10
5.537224409448819
20
-3.5924189370078738
11
5.537224409448819
21
-3.5827362204724409
0
LINE
8
BLACK
6
CONTINUOUS
10
5.537224409448819
20
-3.5827362204724409
11
5.5687204724409449
21
-3.5827362204724409
0
LINE
8
BLACK
6
CONTINUOUS
10
5.5687204724409449
20
-3.5827362204724409
11
5.5687204724409449
21
-3.6122637795275589
0
LINE
8
BLACK
6
CONTINUOUS
10
5.5687204724409449
20
-3.6122637795275589
11
5.537224409448819
21
-3.6122637795275589
0
LINE
8
BLACK
6
CONTINUOUS
10
5.537224409448819
20
-3.6122637795275589
11
5.537224409448819
21
-3.604117834645669
0
LINE
8
BLACK
6
CONTINUOUS
10
5.537224409448819
20
-3.604117834645669
11
5.5099999999999998
21
-3.6041494488188976
0
LINE
8
BLACK
6
CONTINUOUS
10
5.5099999999999998
20
-3.6041494488188976
11
5.5099999999999998
21
-3.8750393700787402
0
LINE
8
BLACK
6
CONTINUOUS
10
5.5099999999999998
20
-3.8750393700787402
11
5.5092125196850397
21
-3.8777212992125984
0
LINE
8
BLACK
6
CONTINUOUS
10
5.5092125196850397
20
-3.8777212992125984
11
5.5071000787401569
21
-3.8795517322834643
0
LINE
8
BLACK
6
CONTINUOUS
10
5.5071000787401569
20
-3.8795517322834643
11
5.5050393700787401
21
-3.8799999999999999
0
LINE
8
BLACK
6
CONTINUOUS
10
5.5050393700787401
20
-3.8799999999999999
11
5.0828572047244096
21
-3.8799999999999999
0
LINE
8
BLACK
6
CONTINUOUS
10
5.0828572047244096
20
-3.8799999999999999
11
5.0149606299212595
21
-3.8799999999999999
0
LINE
8
BLACK
6
CONTINUOUS
10
5.0149606299212595
20
-3.8799999999999999
11
5.0122787007874017
21
-3.8792125196850393
0
LINE
8
BLACK
6
CONTINUOUS
10
5.0122787007874017
20
-3.8792125196850393
11
5.0104482677165354
21
-3.8771000787401575
0
LINE
8
BLACK
6
CONTINUOUS
10
5.0104482677165354
20
-3.8771000787401575
11
5.0099999999999998
21
-3.8750393700787402
0
LINE
8
BLACK
6
CONTINUOUS
10
5.0099999999999998
20
-3.8750393700787402
11
5.0099999999999998
21
-3.7149606299212596
0
LINE
8
BLACK
6
CONTINUOUS
10
5.0099999999999998
20
-3.7149606299212596
11
5.0107874803149608
21
-3.7122787007874014
0
LINE
8
BLACK
6
CONTINUOUS
10
5.0107874803149608
20
-3.7122787007874014
11
5.0128999212598426
21
-3.7104482677165351
0
LINE
8
BLACK
6
CONTINUOUS
10
5.0128999212598426
20
-3.7104482677165351
11
5.0149606299212595
21
-3.71
0
LINE
8
BLACK
6
CONTINUOUS
10
5.0149606299212595
20
-3.71
11
5.3499999606299209
21
-3.71
0
LINE
8
BLACK
6
CONTINUOUS
10
5.3499999606299209
20
-3.71
11
5.3999999999999995
21
-3.6781817716535432
0
LINE
8
BLACK
6
CONTINUOUS
10
5.3999999999999995
20
-3.6781817716535432
11
5.3999999999999995
21
-3.6041440157480316
0
LINE
8
BLACK
6
CONTINUOUS
10
5.3999999999999995
20
-3.6041440157480316
11
5.4007874803149605
21
-3.6014620866141733
0
LINE
8
BLACK
6
CONTINUOUS
10
5.4007874803149605
20
-3.6014620866141733
11
5.4019878346456691
21
-3.6001728346456692
0
LINE
8
BLACK
6
CONTINUOUS
10
5.4019878346456691
20
-3.6001728346456692
11
5.4040457086614175
21
-3.5986323228346455
0
LINE
8
BLACK
6
CONTINUOUS
10
5.4040457086614175
20
-3.5986323228346455
11
5.4074955511811025
21
-3.5940238976377952
0
LINE
8
BLACK
6
CONTINUOUS
10
5.4074955511811025
20
-3.5940238976377952
11
5.4074955511811025
21
-3.5940238582677164
0
LINE
8
BLACK
6
CONTINUOUS
10
5.4074955511811025
20
-3.5940238582677164
11
5.40749562992126
21
-3.5940237795275589
0
LINE
8
BLACK
6
CONTINUOUS
10
5.40749562992126
20
-3.5940237795275589
11
5.409507440944882
21
-3.588629960629921
0
LINE
8
BLACK
6
CONTINUOUS
10
5.409507440944882
20
-3.588629960629921
11
5.4097637795275588
21
-3.5862455905511812
0
LINE
8
BLACK
6
CONTINUOUS
10
5.4097637795275588
20
-3.5862455905511812
11
5.4097637795275588
21
-3.5849606299212597
0
LINE
8
BLACK
6
CONTINUOUS
10
5.4097637795275588
20
-3.5849606299212597
11
5.4105512598425198
21
-3.5822787007874015
0
LINE
8
BLACK
6
CONTINUOUS
10
5.4105512598425198
20
-3.5822787007874015
11
5.4126637007874017
21
-3.5804482677165352
0
LINE
8
BLACK
6
CONTINUOUS
10
5.4126637007874017
20
-3.5804482677165352
11
5.4147244094488185
21
-3.5800000000000001
0
LINE
8
BLACK
6
CONTINUOUS
10
5.4147244094488185
20
-3.5800000000000001
11
5.5050393700787401
21
-3.5800000000000001
0
LINE
8
BLACK
6
CONTINUOUS
10
5.5050393700787401
20
-3.5800000000000001
11
5.5077212992125979
21
-3.5807874803149606
0
LINE
8
BLACK
6
CONTINUOUS
10
5.627775590551181
20
-3.6122637795275589
11
5.6178688976377948
21
-3.6122637795275589
0
LINE
8
BLACK
6
CONTINUOUS
10
5.6178688976377948
20
-3.6122637795275589
11
5.6179128740157482
21
-3.626455472440945
0
LINE
8
BLACK
6
CONTINUOUS
10
5.6179128740157482
20
-3.626455472440945
11
5.6190477559055116
21
-3.6274077952755905
0
LINE
8
BLACK
6
CONTINUOUS
10
5.6190477559055116
20
-3.6274077952755905
11
5.6210987401574801
21
-3.630960157480315
0
LINE
8
BLACK
6
CONTINUOUS
10
5.6210987401574801
20
-3.630960157480315
11
5.6218110236220475
21
-3.6349997637795273
0
LINE
8
BLACK
6
CONTINUOUS
10
5.6218110236220475
20
-3.6349997637795273
11
5.6210987401574801
21
-3.63903937007874
0
LINE
8
BLACK
6
CONTINUOUS
10
5.6210987401574801
20
-3.63903937007874
11
5.6190477559055116
21
-3.6425917322834644
0
LINE
8
BLACK
6
CONTINUOUS
10
5.6190477559055116
20
-3.6425917322834644
11
5.6159055118110235
21
-3.6452284251968505
0
LINE
8
BLACK
6
CONTINUOUS
10
5.6159055118110235
20
-3.6452284251968505
11
5.61205094488189
21
-3.6466313385826772
0
LINE
8
BLACK
6
CONTINUOUS
10
5.61205094488189
20
-3.6466313385826772
11
5.6079490551181097
21
-3.6466313385826772
0
LINE
8
BLACK
6
CONTINUOUS
10
5.6079490551181097
20
-3.6466313385826772
11
5.6040944881889763
21
-3.6452284251968505
0
LINE
8
BLACK
6
CONTINUOUS
10
5.6040944881889763
20
-3.6452284251968505
11
5.6009522440944881
21
-3.6425917322834644
0
LINE
8
BLACK
6
CONTINUOUS
10
5.6009522440944881
20
-3.6425917322834644
11
5.5989012598425196
21
-3.63903937007874
0
LINE
8
BLACK
6
CONTINUOUS
10
5.5989012598425196
20
-3.63903937007874
11
5.5981889763779522
21
-3.6349997637795273
0
LINE
8
BLACK
6
CONTINUOUS
10
5.5981889763779522
20
-3.6349997637795273
11
5.5989012598425196
21
-3.630960157480315
0
LINE
8
BLACK
6
CONTINUOUS
10
5.5989012598425196
20
-3.630960157480315
11
5.6009522440944881
21
-3.6274077952755905
0
LINE
8
BLACK
6
CONTINUOUS
10
5.6009522440944881
20
-3.6274077952755905
11
5.6040944881889763
21
-3.6247711023622045
0
LINE
8
BLACK
6
CONTINUOUS
10
5.6040944881889763
20
-3.6247711023622045
11
5.6062041338582675
21
-3.6240032283464565
0
LINE
8
BLACK
6
CONTINUOUS
10
5.6062041338582675
20
-3.6240032283464565
11
5.6061677952755904
21
-3.6122637795275589
0
LINE
8
BLACK
6
CONTINUOUS
10
5.6061677952755904
20
-3.6122637795275589
11
5.5962795275590551
21
-3.6122637795275589
0
LINE
8
BLACK
6
CONTINUOUS
10
5.5962795275590551
20
-3.6122637795275589
11
5.5962795275590551
21
-3.5827362204724409
0
LINE
8
BLACK
6
CONTINUOUS
10
5.5962795275590551
20
-3.5827362204724409
11
5.627775590551181
21
-3.5827362204724409
0
LINE
8
BLACK
6
CONTINUOUS
10
5.627775590551181
20
-3.5827362204724409
11
5.627775590551181
21
-3.6122637795275589
0
LINE
8
BLACK
6
CONTINUOUS
10
5.4980118110236216
20
-3.4924564566929135
11
5.538779527559055
21
-3.4924015748031496
0
LINE
8
BLACK
6
CONTINUOUS
10
5.538779527559055
20
-3.4924015748031496
11
5.5399316535433067
21
-3.4925150393700788
0
LINE
8
BLACK
6
CONTINUOUS
10
5.5399316535433067
20
-3.4925150393700788
11
5.5404499212598424
21
-3.4927297244094486
0
LINE
8
BLACK
6
CONTINUOUS
10
5.5404499212598424
20
-3.4927297244094486
11
5.5420604330708656
21
-3.4933968110236218
0
LINE
8
BLACK
6
CONTINUOUS
10
5.5420604330708656
20
-3.4933968110236218
11
5.546446496062992
21
-3.4977362204724409
0
LINE
8
BLACK
6
CONTINUOUS
10
5.546446496062992
20
-3.4977362204724409
11
5.5687204724409449
21
-3.4977362204724409
0
LINE
8
BLACK
6
CONTINUOUS
10
5.5687204724409449
20
-3.4977362204724409
11
5.5687204724409449
21
-3.527263779527559
0
LINE
8
BLACK
6
CONTINUOUS
10
5.5687204724409449
20
-3.527263779527559
11
5.537224409448819
21
-3.527263779527559
0
LINE
8
BLACK
6
CONTINUOUS
10
5.537224409448819
20
-3.527263779527559
11
5.537224409448819
21
-3.505075748031496
0
LINE
8
BLACK
6
CONTINUOUS
10
5.537224409448819
20
-3.505075748031496
11
5.536242283464567
21
-3.5041040944881887
0
LINE
8
BLACK
6
CONTINUOUS
10
5.536242283464567
20
-3.5041040944881887
11
5.4980118110236216
21
-3.5041555905511812
0
LINE
8
BLACK
6
CONTINUOUS
10
5.4980118110236216
20
-3.5041555905511812
11
5.4980118110236216
21
-3.5071653543307084
0
LINE
8
BLACK
6
CONTINUOUS
10
5.4980118110236216
20
-3.5071653543307084
11
5.4133661417322836
21
-3.5071653543307084
0
LINE
8
BLACK
6
CONTINUOUS
10
5.4133661417322836
20
-3.5071653543307084
11
5.4133661417322836
21
-3.4894488188976376
0
LINE
8
BLACK
6
CONTINUOUS
10
5.4133661417322836
20
-3.4894488188976376
11
5.4980118110236216
21
-3.4894488188976376
0
LINE
8
BLACK
6
CONTINUOUS
10
5.4980118110236216
20
-3.4894488188976376
11
5.4980118110236216
21
-3.4924564566929135
0
LINE
8
BLACK
6
CONTINUOUS
10
5.565275590551181
20
-3.3947637795275591
11
5.558786181102362
21
-3.3947637795275591
0
LINE
8
BLACK
6
CONTINUOUS
10
5.558786181102362
20
-3.3947637795275591
11
5.5588522440944876
21
-3.432736220472441
0
LINE
8
BLACK
6
CONTINUOUS
10
5.5588522440944876
20
-3.432736220472441
11
5.5687204724409449
21
-3.432736220472441
0
LINE
8
BLACK
6
CONTINUOUS
10
5.5687204724409449
20
-3.432736220472441
11
5.5687204724409449
21
-3.462263779527559
0
LINE
8
BLACK
6
CONTINUOUS
10
5.5687204724409449
20
-3.462263779527559
11
5.537224409448819
21
-3.462263779527559
0
LINE
8
BLACK
6
CONTINUOUS
10
5.537224409448819
20
-3.462263779527559
11
5.537224409448819
21
-3.4541178346456691
0
LINE
8
BLACK
6
CONTINUOUS
10
5.537224409448819
20
-3.4541178346456691
11
5.4980118110236216
21
-3.4541633858267717
0
LINE
8
BLACK
6
CONTINUOUS
10
5.4980118110236216
20
-3.4541633858267717
11
5.4980118110236216
21
-3.4571653543307086
0
LINE
8
BLACK
6
CONTINUOUS
10
5.4980118110236216
20
-3.4571653543307086
11
5.4133661417322836
21
-3.4571653543307086
0
LINE
8
BLACK
6
CONTINUOUS
10
5.4133661417322836
20
-3.4571653543307086
11
5.4133661417322836
21
-3.4394488188976378
0
LINE
8
BLACK
6
CONTINUOUS
10
5.4133661417322836
20
-3.4394488188976378
11
5.4980118110236216
21
-3.4394488188976378
0
LINE
8
BLACK
6
CONTINUOUS
10
5.4980118110236216
20
-3.4394488188976378
11
5.4980118110236216
21
-3.4424644881889761
0
LINE
8
BLACK
6
CONTINUOUS
10
5.4980118110236216
20
-3.4424644881889761
11
5.537224409448819
21
-3.4424189370078739
0
LINE
8
BLACK
6
CONTINUOUS
10
5.537224409448819
20
-3.4424189370078739
11
5.537224409448819
21
-3.432736220472441
0
LINE
8
BLACK
6
CONTINUOUS
10
5.537224409448819
20
-3.432736220472441
11
5.5471527165354333
21
-3.432736220472441
0
LINE
8
BLACK
6
CONTINUOUS
10
5.5471527165354333
20
-3.432736220472441
11
5.547086614173228
21
-3.3947637795275591
0
LINE
8
BLACK
6
CONTINUOUS
10
5.547086614173228
20
-3.3947637795275591
11
5.5337795275590551
21
-3.3947637795275591
0
LINE
8
BLACK
6
CONTINUOUS
10
5.5337795275590551
20
-3.3947637795275591
11
5.5337795275590551
21
-3.3652362204724411
0
LINE
8
BLACK
6
CONTINUOUS
10
5.5337795275590551
20
-3.3652362204724411
11
5.565275590551181
21
-3.3652362204724411
0
LINE
8
BLACK
6
CONTINUOUS
10
5.565275590551181
20
-3.3652362204724411
11
5.565275590551181
21
-3.3947637795275591
0
LINE
8
BLACK
6
CONTINUOUS
10
5.271633858267716
20
-3.6071653543307085
11
5.2351336220472442
21
-3.6071653543307085
0
LINE
8
BLACK
6
CONTINUOUS
10
5.2351336220472442
20
-3.6071653543307085
11
5.2351865748031496
21
-3.6245096456692911
0
LINE
8
BLACK
6
CONTINUOUS
10
5.2351865748031496
20
-3.6245096456692911
11
5.2359055118110236
21
-3.624771338582677
0
LINE
8
BLACK
6
CONTINUOUS
10
5.2359055118110236
20
-3.624771338582677
11
5.2390477559055117
21
-3.6274080314960631
0
LINE
8
BLACK
6
CONTINUOUS
10
5.2390477559055117
20
-3.6274080314960631
11
5.2410987401574802
21
-3.6309603937007875
0
LINE
8
BLACK
6
CONTINUOUS
10
5.2410987401574802
20
-3.6309603937007875
11
5.2418110236220468
21
-3.6349999999999998
0
LINE
8
BLACK
6
CONTINUOUS
10
5.2418110236220468
20
-3.6349999999999998
11
5.2410987401574802
21
-3.6390396062992125
0
LINE
8
BLACK
6
CONTINUOUS
10
5.2410987401574802
20
-3.6390396062992125
11
5.2390477559055117
21
-3.642591968503937
0
LINE
8
BLACK
6
CONTINUOUS
10
5.2390477559055117
20
-3.642591968503937
11
5.2359055118110236
21
-3.6452286614173226
0
LINE
8
BLACK
6
CONTINUOUS
10
5.2359055118110236
20
-3.6452286614173226
11
5.2320509448818893
21
-3.6466315748031497
0
LINE
8
BLACK
6
CONTINUOUS
10
5.2320509448818893
20
-3.6466315748031497
11
5.2279490551181098
21
-3.6466315748031497
0
LINE
8
BLACK
6
CONTINUOUS
10
5.2279490551181098
20
-3.6466315748031497
11
5.2240944881889764
21
-3.6452286614173226
0
LINE
8
BLACK
6
CONTINUOUS
10
5.2240944881889764
20
-3.6452286614173226
11
5.2209522440944882
21
-3.642591968503937
0
LINE
8
BLACK
6
CONTINUOUS
10
5.2209522440944882
20
-3.642591968503937
11
5.2189012598425197
21
-3.6390396062992125
0
LINE
8
BLACK
6
CONTINUOUS
10
5.2189012598425197
20
-3.6390396062992125
11
5.2181889763779523
21
-3.6349999999999998
0
LINE
8
BLACK
6
CONTINUOUS
10
5.2181889763779523
20
-3.6349999999999998
11
5.2189012598425197
21
-3.6309603937007875
0
LINE
8
BLACK
6
CONTINUOUS
10
5.2189012598425197
20
-3.6309603937007875
11
5.2209522440944882
21
-3.6274080314960631
0
LINE
8
BLACK
6
CONTINUOUS
10
5.2209522440944882
20
-3.6274080314960631
11
5.2234878740157482
21
-3.6252803149606296
0
LINE
8
BLACK
6
CONTINUOUS
10
5.2234878740157482
20
-3.6252803149606296
11
5.2234325590551176
21
-3.6071653543307085
0
LINE
8
BLACK
6
CONTINUOUS
10
5.2234325590551176
20
-3.6071653543307085
11
5.186988188976378
21
-3.6071653543307085
0
LINE
8
BLACK
6
CONTINUOUS
10
5.186988188976378
20
-3.6071653543307085
11
5.186988188976378
21
-3.5894488188976377
0
LINE
8
BLACK
6
CONTINUOUS
10
5.186988188976378
20
-3.5894488188976377
11
5.271633858267716
21
-3.5894488188976377
0
LINE
8
BLACK
6
CONTINUOUS
10
5.271633858267716
20
-3.5894488188976377
11
5.271633858267716
21
-3.6071653543307085
0
LINE
8
BLACK
6
CONTINUOUS
10
5.118859803149606
20
-3.4207665354330707
11
5.1215410236220471
21
-3.4215560236220472
0
LINE
8
BLACK
6
CONTINUOUS
10
5.1215410236220471
20
-3.4215560236220472
11
5.1222486220472438
21
-3.4221080708661415
0
LINE
8
BLACK
6
CONTINUOUS
10
5.1222486220472438
20
-3.4221080708661415
11
5.1252952755905508
21
-3.4249642913385827
0
LINE
8
BLACK
6
CONTINUOUS
10
5.1252952755905508
20
-3.4249642913385827
11
5.1679870866141728
21
-3.4649878346456693
0
LINE
8
BLACK
6
CONTINUOUS
10
5.1679870866141728
20
-3.4649878346456693
11
5.169036299212598
21
-3.4665637795275588
0
LINE
8
BLACK
6
CONTINUOUS
10
5.169036299212598
20
-3.4665637795275588
11
5.169066732283464
21
-3.4665472047244092
0
LINE
8
BLACK
6
CONTINUOUS
10
5.169066732283464
20
-3.4665472047244092
11
5.1692366929133859
21
-3.4668585433070866
0
LINE
8
BLACK
6
CONTINUOUS
10
5.1692366929133859
20
-3.4668585433070866
11
5.1726865354330709
21
-3.471466968503937
0
LINE
8
BLACK
6
CONTINUOUS
10
5.1726865354330709
20
-3.471466968503937
11
5.1772949606299212
21
-3.4749168110236219
0
LINE
8
BLACK
6
CONTINUOUS
10
5.1772949606299212
20
-3.4749168110236219
11
5.1772950393700787
21
-3.4749168503937007
0
LINE
8
BLACK
6
CONTINUOUS
10
5.1772950393700787
20
-3.4749168503937007
11
5.1772951181102362
21
-3.4749168897637794
0
LINE
8
BLACK
6
CONTINUOUS
10
5.1772951181102362
20
-3.4749168897637794
11
5.1779411417322834
21
-3.4751578346456693
0
LINE
8
BLACK
6
CONTINUOUS
10
5.1779411417322834
20
-3.4751578346456693
11
5.1784929133858268
21
-3.4753636614173229
0
LINE
8
BLACK
6
CONTINUOUS
10
5.1784929133858268
20
-3.4753636614173229
11
5.180152125984252
21
-3.4763925196850392
0
LINE
8
BLACK
6
CONTINUOUS
10
5.180152125984252
20
-3.4763925196850392
11
5.1893334251968506
21
-3.4849999999999999
0
LINE
8
BLACK
6
CONTINUOUS
10
5.1893334251968506
20
-3.4849999999999999
11
5.2700393700787398
21
-3.4849999999999999
0
LINE
8
BLACK
6
CONTINUOUS
10
5.2700393700787398
20
-3.4849999999999999
11
5.2727212992125985
21
-3.4857874803149604
0
LINE
8
BLACK
6
CONTINUOUS
10
5.2727212992125985
20
-3.4857874803149604
11
5.2745517322834647
21
-3.4878999212598423
0
LINE
8
BLACK
6
CONTINUOUS
10
5.2745517322834647
20
-3.4878999212598423
11
5.2749999999999995
21
-3.4899606299212595
0
LINE
8
BLACK
6
CONTINUOUS
10
5.2749999999999995
20
-3.4899606299212595
11
5.2749999999999995
21
-3.5550393700787399
0
LINE
8
BLACK
6
CONTINUOUS
10
5.2749999999999995
20
-3.5550393700787399
11
5.2742125196850393
21
-3.5577212992125982
0
LINE
8
BLACK
6
CONTINUOUS
10
5.2742125196850393
20
-3.5577212992125982
11
5.2721000787401575
21
-3.5595517322834644
0
LINE
8
BLACK
6
CONTINUOUS
10
5.2721000787401575
20
-3.5595517322834644
11
5.2700393700787398
21
-3.5600000000000001
0
LINE
8
BLACK
6
CONTINUOUS
10
5.2700393700787398
20
-3.5600000000000001
11
5.1876197637795274
21
-3.5600000000000001
0
LINE
8
BLACK
6
CONTINUOUS
10
5.1876197637795274
20
-3.5600000000000001
11
5.1867160236220471
21
-3.5601912992125984
0
LINE
8
BLACK
6
CONTINUOUS
10
5.1867160236220471
20
-3.5601912992125984
11
5.1361001181102361
21
-3.5602366141732285
0
LINE
8
BLACK
6
CONTINUOUS
10
5.1361001181102361
20
-3.5602366141732285
11
5.1343622047244093
21
-3.5599238976377952
0
LINE
8
BLACK
6
CONTINUOUS
10
5.1343622047244093
20
-3.5599238976377952
11
5.133989173228346
21
-3.5597847637795277
0
LINE
8
BLACK
6
CONTINUOUS
10
5.133989173228346
20
-3.5597847637795277
11
5.1335118503937007
21
-3.5596067322834646
0
LINE
8
BLACK
6
CONTINUOUS
10
5.1335118503937007
20
-3.5596067322834646
11
5.133511811023622
21
-3.5596066929133858
0
LINE
8
BLACK
6
CONTINUOUS
10
5.133511811023622
20
-3.5596066929133858
11
5.1335117322834645
21
-3.5596066929133858
0
LINE
8
BLACK
6
CONTINUOUS
10
5.1335117322834645
20
-3.5596066929133858
11
5.1335116141732282
21
-3.5596066535433071
0
LINE
8
BLACK
6
CONTINUOUS
10
5.1335116141732282
20
-3.5596066535433071
11
5.1311279133858267
21
-3.5593503937007873
0
LINE
8
BLACK
6
CONTINUOUS
10
5.1311279133858267
20
-3.5593503937007873
11
5.1311274803149605
21
-3.5593503937007873
0
LINE
8
BLACK
6
CONTINUOUS
10
5.1311274803149605
20
-3.5593503937007873
11
5.0288725196850397
21
-3.5593503937007873
0
LINE
8
BLACK
6
CONTINUOUS
10
5.0288725196850397
20
-3.5593503937007873
11
5.0288720472440946
21
-3.5593503937007873
0
LINE
8
BLACK
6
CONTINUOUS
10
5.0288720472440946
20
-3.5593503937007873
11
5.0264882677165357
21
-3.5596066929133858
0
LINE
8
BLACK
6
CONTINUOUS
10
5.0264882677165357
20
-3.5596066929133858
11
5.0264881496062994
21
-3.5596066929133858
0
LINE
8
BLACK
6
CONTINUOUS
10
5.0264881496062994
20
-3.5596066929133858
11
5.0264881496062994
21
-3.5596067322834646
0
LINE
8
BLACK
6
CONTINUOUS
10
5.0264881496062994
20
-3.5596067322834646
11
5.0262772440944881
21
-3.5596853543307088
0
LINE
8
BLACK
6
CONTINUOUS
10
5.0262772440944881
20
-3.5596853543307088
11
5.0253676377952754
21
-3.5600246456692912
0
LINE
8
BLACK
6
CONTINUOUS
10
5.0253676377952754
20
-3.5600246456692912
11
5.0236386614173227
21
-3.5603373622047245
0
LINE
8
BLACK
6
CONTINUOUS
10
5.0236386614173227
20
-3.5603373622047245
11
4.9964355118110237
21
-3.5603617322834644
0
LINE
8
BLACK
6
CONTINUOUS
10
4.9964355118110237
20
-3.5603617322834644
11
4.9946974803149606
21
-3.5600489370078741
0
LINE
8
BLACK
6
CONTINUOUS
10
4.9946974803149606
20
-3.5600489370078741
11
4.9935119685039373
21
-3.5596067322834646
0
LINE
8
BLACK
6
CONTINUOUS
10
4.9935119685039373
20
-3.5596067322834646
11
4.9935116535433073
21
-3.5596066535433071
0
LINE
8
BLACK
6
CONTINUOUS
10
4.9935116535433073
20
-3.5596066535433071
11
4.9911279133858271
21
-3.5593503937007873
0
LINE
8
BLACK
6
CONTINUOUS
10
4.9911279133858271
20
-3.5593503937007873
11
4.9911274803149608
21
-3.5593503937007873
0
LINE
8
BLACK
6
CONTINUOUS
10
4.9911274803149608
20
-3.5593503937007873
11
4.8888725196850391
21
-3.5593503937007873
0
LINE
8
BLACK
6
CONTINUOUS
10
4.8888725196850391
20
-3.5593503937007873
11
4.8888720472440941
21
-3.5593503937007873
0
LINE
8
BLACK
6
CONTINUOUS
10
4.8888720472440941
20
-3.5593503937007873
11
4.8864883464566926
21
-3.5596066535433071
0
LINE
8
BLACK
6
CONTINUOUS
10
4.8864883464566926
20
-3.5596066535433071
11
4.8864882283464564
21
-3.5596066929133858
0
LINE
8
BLACK
6
CONTINUOUS
10
4.8864882283464564
20
-3.5596066929133858
11
4.8850305905511808
21
-3.5601503543307085
0
LINE
8
BLACK
6
CONTINUOUS
10
4.8850305905511808
20
-3.5601503543307085
11
4.8833015748031494
21
-3.5604630708661418
0
LINE
8
BLACK
6
CONTINUOUS
10
4.8833015748031494
20
-3.5604630708661418
11
4.8567709448818901
21
-3.5604868110236221
0
LINE
8
BLACK
6
CONTINUOUS
10
4.8567709448818901
20
-3.5604868110236221
11
4.8550330314960632
21
-3.56017405511811
0
LINE
8
BLACK
6
CONTINUOUS
10
4.8550330314960632
20
-3.56017405511811
11
4.8535120078740155
21
-3.5596067716535433
0
LINE
8
BLACK
6
CONTINUOUS
10
4.8535120078740155
20
-3.5596067716535433
11
4.853511614173228
21
-3.5596066535433071
0
LINE
8
BLACK
6
CONTINUOUS
10
4.853511614173228
20
-3.5596066535433071
11
4.8511279133858265
21
-3.5593503937007873
0
LINE
8
BLACK
6
CONTINUOUS
10
4.8511279133858265
20
-3.5593503937007873
11
4.8511274803149602
21
-3.5593503937007873
0
LINE
8
BLACK
6
CONTINUOUS
10
4.8511274803149602
20
-3.5593503937007873
11
4.7488725196850394
21
-3.5593503937007873
0
LINE
8
BLACK
6
CONTINUOUS
10
4.7488725196850394
20
-3.5593503937007873
11
4.7488720472440944
21
-3.5593503937007873
0
LINE
8
BLACK
6
CONTINUOUS
10
4.7488720472440944
20
-3.5593503937007873
11
4.7464883464566929
21
-3.5596066535433071
0
LINE
8
BLACK
6
CONTINUOUS
10
4.7464883464566929
20
-3.5596066535433071
11
4.7464880708661417
21
-3.5596067322834646
0
LINE
8
BLACK
6
CONTINUOUS
10
4.7464880708661417
20
-3.5596067322834646
11
4.7446936220472438
21
-3.560276023622047
0
LINE
8
BLACK
6
CONTINUOUS
10
4.7446936220472438
20
-3.560276023622047
11
4.7429645669291336
21
-3.560588779527559
0
LINE
8
BLACK
6
CONTINUOUS
10
4.7429645669291336
20
-3.560588779527559
11
4.7171062992125981
21
-3.560611929133858
0
LINE
8
BLACK
6
CONTINUOUS
10
4.7171062992125981
20
-3.560611929133858
11
4.7153682677165349
21
-3.5602991338582677
0
LINE
8
BLACK
6
CONTINUOUS
10
4.7153682677165349
20
-3.5602991338582677
11
4.7135119685039371
21
-3.5596067322834646
0
LINE
8
BLACK
6
CONTINUOUS
10
4.7135119685039371
20
-3.5596067322834646
11
4.713511653543307
21
-3.5596066535433071
0
LINE
8
BLACK
6
CONTINUOUS
10
4.713511653543307
20
-3.5596066535433071
11
4.7111279133858268
21
-3.5593503937007873
0
LINE
8
BLACK
6
CONTINUOUS
10
4.7111279133858268
20
-3.5593503937007873
11
4.7111274803149605
21
-3.5593503937007873
0
LINE
8
BLACK
6
CONTINUOUS
10
4.7111274803149605
20
-3.5593503937007873
11
4.6088725196850389
21
-3.5593503937007873
0
LINE
8
BLACK
6
CONTINUOUS
10
4.6088725196850389
20
-3.5593503937007873
11
4.6088720472440947
21
-3.5593503937007873
0
LINE
8
BLACK
6
CONTINUOUS
10
4.6088720472440947
20
-3.5593503937007873
11
4.606488228346457
21
-3.5596066929133858
0
LINE
8
BLACK
6
CONTINUOUS
10
4.606488228346457
20
-3.5596066929133858
11
4.6064881889763782
21
-3.5596066929133858
0
LINE
8
BLACK
6
CONTINUOUS
10
4.6064881889763782
20
-3.5596066929133858
11
4.6043566535433067
21
-3.5604016929133859
0
LINE
8
BLACK
6
CONTINUOUS
10
4.6043566535433067
20
-3.5604016929133859
11
4.6026276377952753
21
-3.5607144488188975
0
LINE
8
BLACK
6
CONTINUOUS
10
4.6026276377952753
20
-3.5607144488188975
11
4.4381067716535432
21
-3.5608618110236221
0
LINE
8
BLACK
6
CONTINUOUS
10
4.4381067716535432
20
-3.5608618110236221
11
4.4381067716535432
21
-3.6184488188976376
0
LINE
8
BLACK
6
CONTINUOUS
10
4.4381067716535432
20
-3.6184488188976376
11
4.2881067716535428
21
-3.6184488188976376
0
LINE
8
BLACK
6
CONTINUOUS
10
4.2881067716535428
20
-3.6184488188976376
11
4.2881067716535428
21
-3.5609961811023623
0
LINE
8
BLACK
6
CONTINUOUS
10
4.2881067716535428
20
-3.5609961811023623
11
4.2412563779527561
21
-3.5610381496062993
0
LINE
8
BLACK
6
CONTINUOUS
10
4.2412563779527561
20
-3.5610381496062993
11
4.2412563779527561
21
-3.6184488188976376
0
LINE
8
BLACK
6
CONTINUOUS
10
4.2412563779527561
20
-3.6184488188976376
11
4.0912563779527558
21
-3.6184488188976376
0
LINE
8
BLACK
6
CONTINUOUS
10
4.0912563779527558
20
-3.6184488188976376
11
4.0912563779527558
21
-3.5592021259842519
0
LINE
8
BLACK
6
CONTINUOUS
10
4.0912563779527558
20
-3.5592021259842519
11
4.090450118110236
21
-3.5582733464566929
0
LINE
8
BLACK
6
CONTINUOUS
10
4.090450118110236
20
-3.5582733464566929
11
4.0899999999999999
21
-3.5562085826771654
0
LINE
8
BLACK
6
CONTINUOUS
10
4.0899999999999999
20
-3.5562085826771654
11
4.0899999999999999
21
-3.4249642913385827
0
LINE
8
BLACK
6
CONTINUOUS
10
4.0899999999999999
20
-3.4249642913385827
11
4.0907874803149609
21
-3.4222823622047245
0
LINE
8
BLACK
6
CONTINUOUS
10
4.0907874803149609
20
-3.4222823622047245
11
4.0928999212598427
21
-3.4204519291338582
0
LINE
8
BLACK
6
CONTINUOUS
10
4.0928999212598427
20
-3.4204519291338582
11
4.0949641338582676
21
-3.4200036614173226
0
LINE
8
BLACK
6
CONTINUOUS
10
4.0949641338582676
20
-3.4200036614173226
11
5.118859803149606
21
-3.4207665354330707
0
LINE
8
BLACK
6
CONTINUOUS
10
5.2162204724409449
20
-3.3947637795275591
11
5.2062915748031493
21
-3.3947637795275591
0
LINE
8
BLACK
6
CONTINUOUS
10
5.2062915748031493
20
-3.3947637795275591
11
5.2063676771653542
21
-3.4394488188976378
0
LINE
8
BLACK
6
CONTINUOUS
10
5.2063676771653542
20
-3.4394488188976378
11
5.271633858267716
21
-3.4394488188976378
0
LINE
8
BLACK
6
CONTINUOUS
10
5.271633858267716
20
-3.4394488188976378
11
5.271633858267716
21
-3.4571653543307086
0
LINE
8
BLACK
6
CONTINUOUS
10
5.271633858267716
20
-3.4571653543307086
11
5.186988188976378
21
-3.4571653543307086
0
LINE
8
BLACK
6
CONTINUOUS
10
5.186988188976378
20
-3.4571653543307086
11
5.186988188976378
21
-3.4394488188976378
0
LINE
8
BLACK
6
CONTINUOUS
10
5.186988188976378
20
-3.4394488188976378
11
5.1946681889763777
21
-3.4394488188976378
0
LINE
8
BLACK
6
CONTINUOUS
10
5.1946681889763777
20
-3.4394488188976378
11
5.1945920866141728
21
-3.3947637795275591
0
LINE
8
BLACK
6
CONTINUOUS
10
5.1945920866141728
20
-3.3947637795275591
11
5.184724409448819
21
-3.3947637795275591
0
LINE
8
BLACK
6
CONTINUOUS
10
5.184724409448819
20
-3.3947637795275591
11
5.184724409448819
21
-3.3652362204724411
0
LINE
8
BLACK
6
CONTINUOUS
10
5.184724409448819
20
-3.3652362204724411
11
5.2162204724409449
21
-3.3652362204724411
0
LINE
8
BLACK
6
CONTINUOUS
10
5.2162204724409449
20
-3.3652362204724411
11
5.2162204724409449
21
-3.3947637795275591
0
LINE
8
BLACK
6
CONTINUOUS
10
5.8847488582677165
20
-2.8137599212598423
11
5.8865792913385828
21
-2.8158723622047241
0
LINE
8
BLACK
6
CONTINUOUS
10
5.8865792913385828
20
-2.8158723622047241
11
5.8870275590551175
21
-2.8179330708661419
0
LINE
8
BLACK
6
CONTINUOUS
10
5.8870275590551175
20
-2.8179330708661419
11
5.8870275590551175
21
-4.8820669291338579
0
LINE
8
BLACK
6
CONTINUOUS
10
5.8870275590551175
20
-4.8820669291338579
11
5.8862400787401574
21
-4.8847488582677165
0
LINE
8
BLACK
6
CONTINUOUS
10
5.8862400787401574
20
-4.8847488582677165
11
5.8841276377952756
21
-4.8865792913385828
0
LINE
8
BLACK
6
CONTINUOUS
10
5.8841276377952756
20
-4.8865792913385828
11
5.8820669291338579
21
-4.8870275590551184
0
LINE
8
BLACK
6
CONTINUOUS
10
5.8820669291338579
20
-4.8870275590551184
11
3.8179330708661419
21
-4.8870275590551184
0
LINE
8
BLACK
6
CONTINUOUS
10
3.8179330708661419
20
-4.8870275590551184
11
3.8152511417322832
21
-4.8862400787401574
0
LINE
8
BLACK
6
CONTINUOUS
10
3.8152511417322832
20
-4.8862400787401574
11
3.8134207086614174
21
-4.8841276377952756
0
LINE
8
BLACK
6
CONTINUOUS
10
3.8134207086614174
20
-4.8841276377952756
11
3.8129724409448817
21
-4.8820669291338579
0
LINE
8
BLACK
6
CONTINUOUS
10
3.8129724409448817
20
-4.8820669291338579
11
3.8129724409448817
21
-3.3974464173228345
0
LINE
8
BLACK
6
CONTINUOUS
10
3.8129724409448817
20
-3.3974464173228345
11
3.8129724409448817
21
-2.8179330708661419
0
LINE
8
BLACK
6
CONTINUOUS
10
3.8129724409448817
20
-2.8179330708661419
11
3.8137599212598423
21
-2.8152511417322832
0
LINE
8
BLACK
6
CONTINUOUS
10
3.8137599212598423
20
-2.8152511417322832
11
3.8158723622047241
21
-2.8134207086614174
0
LINE
8
BLACK
6
CONTINUOUS
10
3.8158723622047241
20
-2.8134207086614174
11
3.8179330708661419
21
-2.8129724409448817
0
LINE
8
BLACK
6
CONTINUOUS
10
3.8179330708661419
20
-2.8129724409448817
11
5.8820669291338579
21
-2.8129724409448817
0
LINE
8
BLACK
6
CONTINUOUS
10
5.8820669291338579
20
-2.8129724409448817
11
5.8847488582677165
21
-2.8137599212598423
0
LINE
8
BLACK
6
CONTINUOUS
10
4.0040748031496065
20
-4.0025535433070862
11
4.005071102362205
21
-4.0075620866141728
0
LINE
8
BLACK
6
CONTINUOUS
10
4.005071102362205
20
-4.0075620866141728
11
4.0070253937007871
21
-4.0122801968503934
0
LINE
8
BLACK
6
CONTINUOUS
10
4.0070253937007871
20
-4.0122801968503934
11
4.0098625590551178
21
-4.0165263385826773
0
LINE
8
BLACK
6
CONTINUOUS
10
4.0098625590551178
20
-4.0165263385826773
11
4.0098626771653541
21
-4.0165264566929135
0
LINE
8
BLACK
6
CONTINUOUS
10
4.0098626771653541
20
-4.0165264566929135
11
4.0098627165354328
21
-4.0165264960629923
0
LINE
8
BLACK
6
CONTINUOUS
10
4.0098627165354328
20
-4.0165264960629923
11
4.0695273622047239
21
-4.0761911023622046
0
LINE
8
BLACK
6
CONTINUOUS
10
4.0695273622047239
20
-4.0761911023622046
11
4.0708669291338584
21
-4.0786443307086611
0
LINE
8
BLACK
6
CONTINUOUS
10
4.0708669291338584
20
-4.0786443307086611
11
4.0709803149606296
21
-4.0796987795275585
0
LINE
8
BLACK
6
CONTINUOUS
10
4.0709803149606296
20
-4.0796987795275585
11
4.0709803149606296
21
-4.0919595275590552
0
LINE
8
BLACK
6
CONTINUOUS
10
4.0709803149606296
20
-4.0919595275590552
11
4.0701928346456695
21
-4.094641456692913
0
LINE
8
BLACK
6
CONTINUOUS
10
4.0701928346456695
20
-4.094641456692913
11
4.06976874015748
21
-4.0952079527559055
0
LINE
8
BLACK
6
CONTINUOUS
10
4.06976874015748
20
-4.0952079527559055
11
4.0687803543307082
21
-4.0963486220472438
0
LINE
8
BLACK
6
CONTINUOUS
10
4.0687803543307082
20
-4.0963486220472438
11
4.0687802362204719
21
-4.0963488188976376
0
LINE
8
BLACK
6
CONTINUOUS
10
4.0687802362204719
20
-4.0963488188976376
11
4.0663898425196852
21
-4.1015829527559058
0
LINE
8
BLACK
6
CONTINUOUS
10
4.0663898425196852
20
-4.1015829527559058
11
4.0656024409448817
21
-4.1042646456692911
0
LINE
8
BLACK
6
CONTINUOUS
10
4.0656024409448817
20
-4.1042646456692911
11
4.0656023622047242
21
-4.1042649212598423
0
LINE
8
BLACK
6
CONTINUOUS
10
4.0656023622047242
20
-4.1042649212598423
11
4.0647834645669292
21
-4.1099607480314964
0
LINE
8
BLACK
6
CONTINUOUS
10
4.0647834645669292
20
-4.1099607480314964
11
4.0647834645669292
21
-4.250039724409449
0
LINE
8
BLACK
6
CONTINUOUS
10
4.0647834645669292
20
-4.250039724409449
11
4.065245472440945
21
-4.2543368110236219
0
LINE
8
BLACK
6
CONTINUOUS
10
4.065245472440945
20
-4.2543368110236219
11
4.065245472440945
21
-4.2543369685039369
0
LINE
8
BLACK
6
CONTINUOUS
10
4.065245472440945
20
-4.2543369685039369
11
4.0656935826771656
21
-4.2563968503937009
0
LINE
8
BLACK
6
CONTINUOUS
10
4.0656935826771656
20
-4.2563968503937009
11
4.0656938188976381
21
-4.2563976771653547
0
LINE
8
BLACK
6
CONTINUOUS
10
4.0656938188976381
20
-4.2563976771653547
11
4.0670585826771655
21
-4.2604981889763778
0
LINE
8
BLACK
6
CONTINUOUS
10
4.0670585826771655
20
-4.2604981889763778
11
4.067058661417323
21
-4.260498307086614
0
LINE
8
BLACK
6
CONTINUOUS
10
4.067058661417323
20
-4.260498307086614
11
4.0701696062992125
21
-4.2653390551181101
0
LINE
8
BLACK
6
CONTINUOUS
10
4.0701696062992125
20
-4.2653390551181101
11
4.0701697244094488
21
-4.2653391732283463
0
LINE
8
BLACK
6
CONTINUOUS
10
4.0701697244094488
20
-4.2653391732283463
11
4.0701698818897638
21
-4.2653394094488188
0
LINE
8
BLACK
6
CONTINUOUS
10
4.0701698818897638
20
-4.2653394094488188
11
4.0719124015748029
21
-4.2673503937007871
0
LINE
8
BLACK
6
CONTINUOUS
10
4.0719124015748029
20
-4.2673503937007871
11
4.0719840944881893
21
-4.2674377952755904
0
LINE
8
BLACK
6
CONTINUOUS
10
4.0719840944881893
20
-4.2674377952755904
11
4.0763487401574805
21
-4.2712196850393696
0
LINE
8
BLACK
6
CONTINUOUS
10
4.0763487401574805
20
-4.2712196850393696
11
4.0763488582677168
21
-4.2712197637795271
0
LINE
8
BLACK
6
CONTINUOUS
10
4.0763488582677168
20
-4.2712197637795271
11
4.0815830708661416
21
-4.2736101574803147
0
LINE
8
BLACK
6
CONTINUOUS
10
4.0815830708661416
20
-4.2736101574803147
11
4.0842650000000003
21
-4.2743976377952757
0
LINE
8
BLACK
6
CONTINUOUS
10
4.0842650000000003
20
-4.2743976377952757
11
4.0899606299212596
21
-4.2752165354330707
0
LINE
8
BLACK
6
CONTINUOUS
10
4.0899606299212596
20
-4.2752165354330707
11
4.0899607874015746
21
-4.2752165354330707
0
LINE
8
BLACK
6
CONTINUOUS
10
4.0899607874015746
20
-4.2752165354330707
11
5.5042171259842521
21
-4.2752165354330707
0
LINE
8
BLACK
6
CONTINUOUS
10
5.5042171259842521
20
-4.2752165354330707
11
5.5042173622047246
21
-4.2752165354330707
0
LINE
8
BLACK
6
CONTINUOUS
10
5.5042173622047246
20
-4.2752165354330707
11
5.5085145669291338
21
-4.2747545669291336
0
LINE
8
BLACK
6
CONTINUOUS
10
5.5085145669291338
20
-4.2747545669291336
11
5.5085149212598425
21
-4.2747544881889761
0
LINE
8
BLACK
6
CONTINUOUS
10
5.5085149212598425
20
-4.2747544881889761
11
5.5085149606299213
21
-4.2747544881889761
0
LINE
8
BLACK
6
CONTINUOUS
10
5.5085149606299213
20
-4.2747544881889761
11
5.5091505511811025
21
-4.2746161811023624
0
LINE
8
BLACK
6
CONTINUOUS
10
5.5091505511811025
20
-4.2746161811023624
11
5.5105752755905515
21
-4.274306299212598
0
LINE
8
BLACK
6
CONTINUOUS
10
5.5105752755905515
20
-4.274306299212598
11
5.5142185039370082
21
-4.2730936614173229
0
LINE
8
BLACK
6
CONTINUOUS
10
5.5142185039370082
20
-4.2730936614173229
11
5.5170118503937005
21
-4.2729939370078736
0
LINE
8
BLACK
6
CONTINUOUS
10
5.5170118503937005
20
-4.2729939370078736
11
5.5192927559055116
21
-4.2742927952755903
0
LINE
8
BLACK
6
CONTINUOUS
10
5.5192927559055116
20
-4.2742927952755903
11
5.5199999606299208
21
-4.2749999999999995
0
LINE
8
BLACK
6
CONTINUOUS
10
5.5199999606299208
20
-4.2749999999999995
11
5.5199999999999996
21
-4.2749999999999995
0
LINE
8
BLACK
6
CONTINUOUS
10
5.5199999999999996
20
-4.2749999999999995
11
5.6499999999999995
21
-4.2749999999999995
0
LINE
8
BLACK
6
CONTINUOUS
10
5.6499999999999995
20
-4.2749999999999995
11
5.6499999999999995
21
-3.6299999999999999
0
LINE
8
BLACK
6
CONTINUOUS
10
5.6499999999999995
20
-3.6299999999999999
11
5.649416181102362
21
-3.6299999999999999
0
LINE
8
BLACK
6
CONTINUOUS
10
5.649416181102362
20
-3.6299999999999999
11
5.6467342519685042
21
-3.6292125196850393
0
LINE
8
BLACK
6
CONTINUOUS
10
5.6467342519685042
20
-3.6292125196850393
11
5.6449038188976379
21
-3.6271000787401575
0
LINE
8
BLACK
6
CONTINUOUS
10
5.6449038188976379
20
-3.6271000787401575
11
5.6445060236220472
21
-3.6243333858267714
0
LINE
8
BLACK
6
CONTINUOUS
10
5.6445060236220472
20
-3.6243333858267714
11
5.6453605511811018
21
-3.6222703543307087
0
LINE
8
BLACK
6
CONTINUOUS
10
5.6453605511811018
20
-3.6222703543307087
11
5.6453570078740158
21
-3.6222684251968502
0
LINE
8
BLACK
6
CONTINUOUS
10
5.6453570078740158
20
-3.6222684251968502
11
5.6453751574803146
21
-3.6222351181102361
0
LINE
8
BLACK
6
CONTINUOUS
10
5.6453751574803146
20
-3.6222351181102361
11
5.6454450393700784
21
-3.6220664960629922
0
LINE
8
BLACK
6
CONTINUOUS
10
5.6454450393700784
20
-3.6220664960629922
11
5.6455271259842519
21
-3.6219568503937007
0
LINE
8
BLACK
6
CONTINUOUS
10
5.6455271259842519
20
-3.6219568503937007
11
5.6474287007874011
21
-3.6168585433070866
0
LINE
8
BLACK
6
CONTINUOUS
10
5.6474287007874011
20
-3.6168585433070866
11
5.6475388976377952
21
-3.6165631496062991
0
LINE
8
BLACK
6
CONTINUOUS
10
5.6475388976377952
20
-3.6165631496062991
11
5.6475389763779527
21
-3.6165628346456691
0
LINE
8
BLACK
6
CONTINUOUS
10
5.6475389763779527
20
-3.6165628346456691
11
5.647795236220472
21
-3.6141790944881889
0
LINE
8
BLACK
6
CONTINUOUS
10
5.647795236220472
20
-3.6141790944881889
11
5.6477952755905507
21
-3.6141784251968505
0
LINE
8
BLACK
6
CONTINUOUS
10
5.6477952755905507
20
-3.6141784251968505
11
5.6477952755905507
21
-3.5808215354330706
0
LINE
8
BLACK
6
CONTINUOUS
10
5.6477952755905507
20
-3.5808215354330706
11
5.647795236220472
21
-3.5808208661417322
0
LINE
8
BLACK
6
CONTINUOUS
10
5.647795236220472
20
-3.5808208661417322
11
5.6475389763779527
21
-3.578437125984252
0
LINE
8
BLACK
6
CONTINUOUS
10
5.6475389763779527
20
-3.578437125984252
11
5.6475388976377952
21
-3.578436811023622
0
LINE
8
BLACK
6
CONTINUOUS
10
5.6475388976377952
20
-3.578436811023622
11
5.6455271259842519
21
-3.5730431889763778
0
LINE
8
BLACK
6
CONTINUOUS
10
5.6455271259842519
20
-3.5730431889763778
11
5.6455270472440944
21
-3.5730429921259841
0
LINE
8
BLACK
6
CONTINUOUS
10
5.6455270472440944
20
-3.5730429921259841
11
5.6420772047244094
21
-3.5684345669291337
0
LINE
8
BLACK
6
CONTINUOUS
10
5.6420772047244094
20
-3.5684345669291337
11
5.6374687795275591
21
-3.5649847244094488
0
LINE
8
BLACK
6
CONTINUOUS
10
5.6374687795275591
20
-3.5649847244094488
11
5.6374685826771653
21
-3.5649846456692913
0
LINE
8
BLACK
6
CONTINUOUS
10
5.6374685826771653
20
-3.5649846456692913
11
5.6320749606299207
21
-3.562972874015748
0
LINE
8
BLACK
6
CONTINUOUS
10
5.6320749606299207
20
-3.562972874015748
11
5.6320746456692916
21
-3.5629727952755905
0
LINE
8
BLACK
6
CONTINUOUS
10
5.6320746456692916
20
-3.5629727952755905
11
5.6296909055118105
21
-3.5627165354330708
0
LINE
8
BLACK
6
CONTINUOUS
10
5.6296909055118105
20
-3.5627165354330708
11
5.6296904724409451
21
-3.5627165354330708
0
LINE
8
BLACK
6
CONTINUOUS
10
5.6296904724409451
20
-3.5627165354330708
11
5.594364645669291
21
-3.5627165354330708
0
LINE
8
BLACK
6
CONTINUOUS
10
5.594364645669291
20
-3.5627165354330708
11
5.594364173228346
21
-3.5627165354330708
0
LINE
8
BLACK
6
CONTINUOUS
10
5.594364173228346
20
-3.5627165354330708
11
5.5919804330708658
21
-3.5629727952755905
0
LINE
8
BLACK
6
CONTINUOUS
10
5.5919804330708658
20
-3.5629727952755905
11
5.5919801181102358
21
-3.562972874015748
0
LINE
8
BLACK
6
CONTINUOUS
10
5.5919801181102358
20
-3.562972874015748
11
5.5865864566929133
21
-3.5649846456692913
0
LINE
8
BLACK
6
CONTINUOUS
10
5.5865864566929133
20
-3.5649846456692913
11
5.5865863385826771
21
-3.5649847244094488
0
LINE
8
BLACK
6
CONTINUOUS
10
5.5865863385826771
20
-3.5649847244094488
11
5.5854726771653542
21
-3.5658183858267716
0
LINE
8
BLACK
6
CONTINUOUS
10
5.5854726771653542
20
-3.5658183858267716
11
5.5828537401574803
21
-3.5667951181102362
0
LINE
8
BLACK
6
CONTINUOUS
10
5.5828537401574803
20
-3.5667951181102362
11
5.5801225196850393
21
-3.5662009055118111
0
LINE
8
BLACK
6
CONTINUOUS
10
5.5801225196850393
20
-3.5662009055118111
11
5.5795273228346458
21
-3.5658183858267716
0
LINE
8
BLACK
6
CONTINUOUS
10
5.5795273228346458
20
-3.5658183858267716
11
5.5784136220472442
21
-3.5649847244094488
0
LINE
8
BLACK
6
CONTINUOUS
10
5.5784136220472442
20
-3.5649847244094488
11
5.578413503937008
21
-3.5649846456692913
0
LINE
8
BLACK
6
CONTINUOUS
10
5.578413503937008
20
-3.5649846456692913
11
5.5730198425196846
21
-3.562972874015748
0
LINE
8
BLACK
6
CONTINUOUS
10
5.5730198425196846
20
-3.562972874015748
11
5.5730195275590546
21
-3.5629727952755905
0
LINE
8
BLACK
6
CONTINUOUS
10
5.5730195275590546
20
-3.5629727952755905
11
5.5706357874015744
21
-3.5627165354330708
0
LINE
8
BLACK
6
CONTINUOUS
10
5.5706357874015744
20
-3.5627165354330708
11
5.5706353543307081
21
-3.5627165354330708
0
LINE
8
BLACK
6
CONTINUOUS
10
5.5706353543307081
20
-3.5627165354330708
11
5.5353095275590549
21
-3.5627165354330708
0
LINE
8
BLACK
6
CONTINUOUS
10
5.5353095275590549
20
-3.5627165354330708
11
5.5353090551181099
21
-3.5627165354330708
0
LINE
8
BLACK
6
CONTINUOUS
10
5.5353090551181099
20
-3.5627165354330708
11
5.5329253149606297
21
-3.5629727952755905
0
LINE
8
BLACK
6
CONTINUOUS
10
5.5329253149606297
20
-3.5629727952755905
11
5.5329249999999996
21
-3.562972874015748
0
LINE
8
BLACK
6
CONTINUOUS
10
5.5329249999999996
20
-3.562972874015748
11
5.527531377952756
21
-3.5649846456692913
0
LINE
8
BLACK
6
CONTINUOUS
10
5.527531377952756
20
-3.5649846456692913
11
5.5275312204724409
21
-3.5649847244094488
0
LINE
8
BLACK
6
CONTINUOUS
10
5.5275312204724409
20
-3.5649847244094488
11
5.5267129527559051
21
-3.5655972834645668
0
LINE
8
BLACK
6
CONTINUOUS
10
5.5267129527559051
20
-3.5655972834645668
11
5.5240940157480312
21
-3.5665740551181102
0
LINE
8
BLACK
6
CONTINUOUS
10
5.5240940157480312
20
-3.5665740551181102
11
5.5213627559055114
21
-3.5659798818897639
0
LINE
8
BLACK
6
CONTINUOUS
10
5.5213627559055114
20
-3.5659798818897639
11
5.520491692913386
21
-3.5653750787401575
0
LINE
8
BLACK
6
CONTINUOUS
10
5.520491692913386
20
-3.5653750787401575
11
5.518651141732283
21
-3.5637802362204725
0
LINE
8
BLACK
6
CONTINUOUS
10
5.518651141732283
20
-3.5637802362204725
11
5.5186510629921255
21
-3.5637801968503937
0
LINE
8
BLACK
6
CONTINUOUS
10
5.5186510629921255
20
-3.5637801968503937
11
5.5186511023622042
21
-3.5637801968503937
0
LINE
8
BLACK
6
CONTINUOUS
10
5.5186511023622042
20
-3.5637801968503937
11
5.5134168897637794
21
-3.5613898031496061
0
LINE
8
BLACK
6
CONTINUOUS
10
5.5134168897637794
20
-3.5613898031496061
11
5.5107353149606295
21
-3.5606024409448818
0
LINE
8
BLACK
6
CONTINUOUS
10
5.5107353149606295
20
-3.5606024409448818
11
5.5107350393700782
21
-3.5606023622047243
0
LINE
8
BLACK
6
CONTINUOUS
10
5.5107350393700782
20
-3.5606023622047243
11
5.5095958661417326
21
-3.5604385826771652
0
LINE
8
BLACK
6
CONTINUOUS
10
5.5095958661417326
20
-3.5604385826771652
11
5.5050393700787401
21
-3.5597834645669288
0
LINE
8
BLACK
6
CONTINUOUS
10
5.5050393700787401
20
-3.5597834645669288
11
5.4147244094488185
21
-3.5597834645669288
0
LINE
8
BLACK
6
CONTINUOUS
10
5.4147244094488185
20
-3.5597834645669288
11
5.414724015748031
21
-3.5597834645669288
0
LINE
8
BLACK
6
CONTINUOUS
10
5.414724015748031
20
-3.5597834645669288
11
5.4112309842519686
21
-3.5601590157480314
0
LINE
8
BLACK
6
CONTINUOUS
10
5.4112309842519686
20
-3.5601590157480314
11
5.4104272047244093
21
-3.5602454330708659
0
LINE
8
BLACK
6
CONTINUOUS
10
5.4104272047244093
20
-3.5602454330708659
11
5.410427086614173
21
-3.5602454330708659
0
LINE
8
BLACK
6
CONTINUOUS
10
5.410427086614173
20
-3.5602454330708659
11
5.410426929133858
21
-3.5602454724409447
0
LINE
8
BLACK
6
CONTINUOUS
10
5.410426929133858
20
-3.5602454724409447
11
5.410426771653543
21
-3.5602454724409447
0
LINE
8
BLACK
6
CONTINUOUS
10
5.410426771653543
20
-3.5602454724409447
11
5.4083668897637791
21
-3.5606935826771653
0
LINE
8
BLACK
6
CONTINUOUS
10
5.4083668897637791
20
-3.5606935826771653
11
5.4083660629921262
21
-3.5606938188976378
0
LINE
8
BLACK
6
CONTINUOUS
10
5.4083660629921262
20
-3.5606938188976378
11
5.4042655511811022
21
-3.5620585826771651
0
LINE
8
BLACK
6
CONTINUOUS
10
5.4042655511811022
20
-3.5620585826771651
11
5.3994246062992124
21
-3.5651696850393702
0
LINE
8
BLACK
6
CONTINUOUS
10
5.3994246062992124
20
-3.5651696850393702
11
5.3974133464566929
21
-3.5669124409448818
0
LINE
8
BLACK
6
CONTINUOUS
10
5.3974133464566929
20
-3.5669124409448818
11
5.3973259842519683
21
-3.5669840551181102
0
LINE
8
BLACK
6
CONTINUOUS
10
5.3973259842519683
20
-3.5669840551181102
11
5.3935440551181104
21
-3.5713487401574802
0
LINE
8
BLACK
6
CONTINUOUS
10
5.3935440551181104
20
-3.5713487401574802
11
5.3935439763779529
21
-3.5713488582677164
0
LINE
8
BLACK
6
CONTINUOUS
10
5.3935439763779529
20
-3.5713488582677164
11
5.3911535826771653
21
-3.5765830708661417
0
LINE
8
BLACK
6
CONTINUOUS
10
5.3911535826771653
20
-3.5765830708661417
11
5.3903662204724405
21
-3.5792646456692911
0
LINE
8
BLACK
6
CONTINUOUS
10
5.3903662204724405
20
-3.5792646456692911
11
5.3903660629921255
21
-3.5792653937007874
0
LINE
8
BLACK
6
CONTINUOUS
10
5.3903660629921255
20
-3.5792653937007874
11
5.3899155905511806
21
-3.5823984251968501
0
LINE
8
BLACK
6
CONTINUOUS
10
5.3899155905511806
20
-3.5823984251968501
11
5.3897440944881891
21
-3.5827739370078739
0
LINE
8
BLACK
6
CONTINUOUS
10
5.3897440944881891
20
-3.5827739370078739
11
5.3897440944881891
21
-3.5843307086614171
0
LINE
8
BLACK
6
CONTINUOUS
10
5.3897440944881891
20
-3.5843307086614171
11
5.3890331496062993
21
-3.5843307086614171
0
LINE
8
BLACK
6
CONTINUOUS
10
5.3890331496062993
20
-3.5843307086614171
11
5.3887544488188972
21
-3.5849409448818896
0
LINE
8
BLACK
6
CONTINUOUS
10
5.3887544488188972
20
-3.5849409448818896
11
5.3883204724409444
21
-3.5853827559055116
0
LINE
8
BLACK
6
CONTINUOUS
10
5.3883204724409444
20
-3.5853827559055116
11
5.3871914173228346
21
-3.586396929133858
0
LINE
8
BLACK
6
CONTINUOUS
10
5.3871914173228346
20
-3.586396929133858
11
5.3859914566929135
21
-3.5876857874015746
0
LINE
8
BLACK
6
CONTINUOUS
10
5.3859914566929135
20
-3.5876857874015746
11
5.3859911417322834
21
-3.5876861417322834
0
LINE
8
BLACK
6
CONTINUOUS
10
5.3859911417322834
20
-3.5876861417322834
11
5.3837801968503936
21
-3.5905322440944882
0
LINE
8
BLACK
6
CONTINUOUS
10
5.3837801968503936
20
-3.5905322440944882
11
5.3813898031496059
21
-3.5957664566929135
0
LINE
8
BLACK
6
CONTINUOUS
10
5.3813898031496059
20
-3.5957664566929135
11
5.380602440944882
21
-3.598448031496063
0
LINE
8
BLACK
6
CONTINUOUS
10
5.380602440944882
20
-3.598448031496063
11
5.3806023622047245
21
-3.5984483070866142
0
LINE
8
BLACK
6
CONTINUOUS
10
5.3806023622047245
20
-3.5984483070866142
11
5.3797834645669287
21
-3.6041441338582678
0
LINE
8
BLACK
6
CONTINUOUS
10
5.3797834645669287
20
-3.6041441338582678
11
5.3797834645669287
21
-3.6643608661417324
0
LINE
8
BLACK
6
CONTINUOUS
10
5.3797834645669287
20
-3.6643608661417324
11
5.3789959842519686
21
-3.6670427952755906
0
LINE
8
BLACK
6
CONTINUOUS
10
5.3789959842519686
20
-3.6670427952755906
11
5.3774860629921255
21
-3.6685459448818896
0
LINE
8
BLACK
6
CONTINUOUS
10
5.3774860629921255
20
-3.6685459448818896
11
5.3453316141732286
21
-3.6890079133858267
0
LINE
8
BLACK
6
CONTINUOUS
10
5.3453316141732286
20
-3.6890079133858267
11
5.3426683858267712
21
-3.6897834645669292
0
LINE
8
BLACK
6
CONTINUOUS
10
5.3426683858267712
20
-3.6897834645669292
11
5.0149602362204719
21
-3.6897834645669292
0
LINE
8
BLACK
6
CONTINUOUS
10
5.0149602362204719
20
-3.6897834645669292
11
5.0114672047244095
21
-3.6901590157480313
0
LINE
8
BLACK
6
CONTINUOUS
10
5.0114672047244095
20
-3.6901590157480313
11
5.0106634251968503
21
-3.6902454330708663
0
LINE
8
BLACK
6
CONTINUOUS
10
5.0106634251968503
20
-3.6902454330708663
11
5.010663307086614
21
-3.6902454330708663
0
LINE
8
BLACK
6
CONTINUOUS
10
5.010663307086614
20
-3.6902454330708663
11
5.010663149606299
21
-3.6902454724409446
0
LINE
8
BLACK
6
CONTINUOUS
10
5.010663149606299
20
-3.6902454724409446
11
5.010662992125984
21
-3.6902454724409446
0
LINE
8
BLACK
6
CONTINUOUS
10
5.010662992125984
20
-3.6902454724409446
11
5.0086031102362201
21
-3.6906935826771652
0
LINE
8
BLACK
6
CONTINUOUS
10
5.0086031102362201
20
-3.6906935826771652
11
5.0086022834645672
21
-3.6906938188976377
0
LINE
8
BLACK
6
CONTINUOUS
10
5.0086022834645672
20
-3.6906938188976377
11
5.0045017716535432
21
-3.6920585826771655
0
LINE
8
BLACK
6
CONTINUOUS
10
5.0045017716535432
20
-3.6920585826771655
11
4.9996608267716534
21
-3.69516968503937
0
LINE
8
BLACK
6
CONTINUOUS
10
4.9996608267716534
20
-3.69516968503937
11
4.9976495669291339
21
-3.6969124409448817
0
LINE
8
BLACK
6
CONTINUOUS
10
4.9976495669291339
20
-3.6969124409448817
11
4.9975622047244093
21
-3.6969840551181101
0
LINE
8
BLACK
6
CONTINUOUS
10
4.9975622047244093
20
-3.6969840551181101
11
4.9937802755905514
21
-3.7013487401574801
0
LINE
8
BLACK
6
CONTINUOUS
10
4.9937802755905514
20
-3.7013487401574801
11
4.9937801968503939
21
-3.7013488582677163
0
LINE
8
BLACK
6
CONTINUOUS
10
4.9937801968503939
20
-3.7013488582677163
11
4.9913898031496062
21
-3.7065830708661416
0
LINE
8
BLACK
6
CONTINUOUS
10
4.9913898031496062
20
-3.7065830708661416
11
4.9906024409448815
21
-3.709264645669291
0
LINE
8
BLACK
6
CONTINUOUS
10
4.9906024409448815
20
-3.709264645669291
11
4.990602362204724
21
-3.7092649212598423
0
LINE
8
BLACK
6
CONTINUOUS
10
4.990602362204724
20
-3.7092649212598423
11
4.989783464566929
21
-3.7149607480314959
0
LINE
8
BLACK
6
CONTINUOUS
10
4.989783464566929
20
-3.7149607480314959
11
4.989783464566929
21
-3.8750397244094485
0
LINE
8
BLACK
6
CONTINUOUS
10
4.989783464566929
20
-3.8750397244094485
11
4.9902454724409449
21
-3.8793368110236219
0
LINE
8
BLACK
6
CONTINUOUS
10
4.9902454724409449
20
-3.8793368110236219
11
4.9902454724409449
21
-3.8793369685039369
0
LINE
8
BLACK
6
CONTINUOUS
10
4.9902454724409449
20
-3.8793369685039369
11
4.9906935826771655
21
-3.8813968503937009
0
LINE
8
BLACK
6
CONTINUOUS
10
4.9906935826771655
20
-3.8813968503937009
11
4.990693818897638
21
-3.8813976771653542
0
LINE
8
BLACK
6
CONTINUOUS
10
4.990693818897638
20
-3.8813976771653542
11
4.9920585826771653
21
-3.8854981889763778
0
LINE
8
BLACK
6
CONTINUOUS
10
4.9920585826771653
20
-3.8854981889763778
11
4.9920586614173228
21
-3.885498307086614
0
LINE
8
BLACK
6
CONTINUOUS
10
4.9920586614173228
20
-3.885498307086614
11
4.9951696062992124
21
-3.8903390551181101
0
LINE
8
BLACK
6
CONTINUOUS
10
4.9951696062992124
20
-3.8903390551181101
11
4.9951697244094486
21
-3.8903391732283463
0
LINE
8
BLACK
6
CONTINUOUS
10
4.9951697244094486
20
-3.8903391732283463
11
4.9951698818897636
21
-3.8903394094488188
0
LINE
8
BLACK
6
CONTINUOUS
10
4.9951698818897636
20
-3.8903394094488188
11
4.9969124015748028
21
-3.8923503937007875
0
LINE
8
BLACK
6
CONTINUOUS
10
4.9969124015748028
20
-3.8923503937007875
11
4.9969840944881891
21
-3.8924377952755904
0
LINE
8
BLACK
6
CONTINUOUS
10
4.9969840944881891
20
-3.8924377952755904
11
5.0013487401574803
21
-3.89621968503937
0
LINE
8
BLACK
6
CONTINUOUS
10
5.0013487401574803
20
-3.89621968503937
11
5.0013488582677166
21
-3.8962197637795275
0
LINE
8
BLACK
6
CONTINUOUS
10
5.0013488582677166
20
-3.8962197637795275
11
5.0065830708661414
21
-3.8986101574803147
0
LINE
8
BLACK
6
CONTINUOUS
10
5.0065830708661414
20
-3.8986101574803147
11
5.0092650000000001
21
-3.8993976377952757
0
LINE
8
BLACK
6
CONTINUOUS
10
5.0092650000000001
20
-3.8993976377952757
11
5.0149606299212595
21
-3.9002165354330707
0
LINE
8
BLACK
6
CONTINUOUS
10
5.0149606299212595
20
-3.9002165354330707
11
5.0828572047244096
21
-3.9002165354330707
0
LINE
8
BLACK
6
CONTINUOUS
10
5.0828572047244096
20
-3.9002165354330707
11
5.1450393700787398
21
-3.9002165354330707
0
LINE
8
BLACK
6
CONTINUOUS
10
5.1450393700787398
20
-3.9002165354330707
11
5.1477212992125985
21
-3.9010040157480312
0
LINE
8
BLACK
6
CONTINUOUS
10
5.1477212992125985
20
-3.9010040157480312
11
5.1495517322834647
21
-3.9031164566929135
0
LINE
8
BLACK
6
CONTINUOUS
10
5.1495517322834647
20
-3.9031164566929135
11
5.1499999999999995
21
-3.9051771653543308
0
LINE
8
BLACK
6
CONTINUOUS
10
5.1499999999999995
20
-3.9051771653543308
11
5.1499999999999995
21
-4.0798228346456691
0
LINE
8
BLACK
6
CONTINUOUS
10
5.1499999999999995
20
-4.0798228346456691
11
5.1492125196850393
21
-4.0825047637795278
0
LINE
8
BLACK
6
CONTINUOUS
10
5.1492125196850393
20
-4.0825047637795278
11
5.1471000787401575
21
-4.084335196850394
0
LINE
8
BLACK
6
CONTINUOUS
10
5.1471000787401575
20
-4.084335196850394
11
5.1450393700787398
21
-4.0847834645669288
0
LINE
8
BLACK
6
CONTINUOUS
10
5.1450393700787398
20
-4.0847834645669288
11
4.462830708661417
21
-4.0847834645669288
0
LINE
8
BLACK
6
CONTINUOUS
10
4.462830708661417
20
-4.0847834645669288
11
4.4601487795275592
21
-4.0839959842519686
0
LINE
8
BLACK
6
CONTINUOUS
10
4.4601487795275592
20
-4.0839959842519686
11
4.4583183464566929
21
-4.0818835433070868
0
LINE
8
BLACK
6
CONTINUOUS
10
4.4583183464566929
20
-4.0818835433070868
11
4.4578700787401573
21
-4.0798228346456691
0
LINE
8
BLACK
6
CONTINUOUS
10
4.4578700787401573
20
-4.0798228346456691
11
4.4578700787401573
21
-4.0570853149606299
0
LINE
8
BLACK
6
CONTINUOUS
10
4.4578700787401573
20
-4.0570853149606299
11
4.4578700393700785
21
-4.0570846456692911
0
LINE
8
BLACK
6
CONTINUOUS
10
4.4578700393700785
20
-4.0570846456692911
11
4.4576137795275592
21
-4.0547009055118108
0
LINE
8
BLACK
6
CONTINUOUS
10
4.4576137795275592
20
-4.0547009055118108
11
4.4576137007874017
21
-4.0547005905511808
0
LINE
8
BLACK
6
CONTINUOUS
10
4.4576137007874017
20
-4.0547005905511808
11
4.4556019291338584
21
-4.0493069685039371
0
LINE
8
BLACK
6
CONTINUOUS
10
4.4556019291338584
20
-4.0493069685039371
11
4.4556018503937009
21
-4.0493067716535434
0
LINE
8
BLACK
6
CONTINUOUS
10
4.4556018503937009
20
-4.0493067716535434
11
4.452152007874016
21
-4.044698346456693
0
LINE
8
BLACK
6
CONTINUOUS
10
4.452152007874016
20
-4.044698346456693
11
4.4475435826771657
21
-4.0412485039370081
0
LINE
8
BLACK
6
CONTINUOUS
10
4.4475435826771657
20
-4.0412485039370081
11
4.4475433858267719
21
-4.0412484251968506
0
LINE
8
BLACK
6
CONTINUOUS
10
4.4475433858267719
20
-4.0412484251968506
11
4.4421497637795273
21
-4.0392366535433073
0
LINE
8
BLACK
6
CONTINUOUS
10
4.4421497637795273
20
-4.0392366535433073
11
4.4421494488188973
21
-4.0392365748031498
0
LINE
8
BLACK
6
CONTINUOUS
10
4.4421494488188973
20
-4.0392365748031498
11
4.4397657086614171
21
-4.0389803149606296
0
LINE
8
BLACK
6
CONTINUOUS
10
4.4397657086614171
20
-4.0389803149606296
11
4.4397652755905508
21
-4.0389803149606296
0
LINE
8
BLACK
6
CONTINUOUS
10
4.4397652755905508
20
-4.0389803149606296
11
4.2859355118110232
21
-4.0389803149606296
0
LINE
8
BLACK
6
CONTINUOUS
10
4.2859355118110232
20
-4.0389803149606296
11
4.285935039370079
21
-4.0389803149606296
0
LINE
8
BLACK
6
CONTINUOUS
10
4.285935039370079
20
-4.0389803149606296
11
4.2835512992125979
21
-4.0392365748031498
0
LINE
8
BLACK
6
CONTINUOUS
10
4.2835512992125979
20
-4.0392365748031498
11
4.2835509842519688
21
-4.0392366535433073
0
LINE
8
BLACK
6
CONTINUOUS
10
4.2835509842519688
20
-4.0392366535433073
11
4.2781573622047242
21
-4.0412484251968506
0
LINE
8
BLACK
6
CONTINUOUS
10
4.2781573622047242
20
-4.0412484251968506
11
4.2781571653543304
21
-4.0412485039370081
0
LINE
8
BLACK
6
CONTINUOUS
10
4.2781571653543304
20
-4.0412485039370081
11
4.2735487401574801
21
-4.044698346456693
0
LINE
8
BLACK
6
CONTINUOUS
10
4.2735487401574801
20
-4.044698346456693
11
4.2700988976377952
21
-4.0493067716535434
0
LINE
8
BLACK
6
CONTINUOUS
10
4.2700988976377952
20
-4.0493067716535434
11
4.2700988188976376
21
-4.0493069685039371
0
LINE
8
BLACK
6
CONTINUOUS
10
4.2700988188976376
20
-4.0493069685039371
11
4.2690730314960632
21
-4.0520572047244094
0
LINE
8
BLACK
6
CONTINUOUS
10
4.2690730314960632
20
-4.0520572047244094
11
4.2673979527559052
21
-4.0542948425196847
0
LINE
8
BLACK
6
CONTINUOUS
10
4.2673979527559052
20
-4.0542948425196847
11
4.26477905511811
21
-4.0552716141732281
0
LINE
8
BLACK
6
CONTINUOUS
10
4.26477905511811
20
-4.0552716141732281
11
4.2620477952755902
21
-4.0546774409448814
0
LINE
8
BLACK
6
CONTINUOUS
10
4.2620477952755902
20
-4.0546774409448814
11
4.2600713385826774
21
-4.0527009842519686
0
LINE
8
BLACK
6
CONTINUOUS
10
4.2600713385826774
20
-4.0527009842519686
11
4.2597773622047246
21
-4.0520572047244094
0
LINE
8
BLACK
6
CONTINUOUS
10
4.2597773622047246
20
-4.0520572047244094
11
4.2587515354330705
21
-4.0493069685039371
0
LINE
8
BLACK
6
CONTINUOUS
10
4.2587515354330705
20
-4.0493069685039371
11
4.258751456692913
21
-4.0493067716535434
0
LINE
8
BLACK
6
CONTINUOUS
10
4.258751456692913
20
-4.0493067716535434
11
4.2553016141732281
21
-4.044698346456693
0
LINE
8
BLACK
6
CONTINUOUS
10
4.2553016141732281
20
-4.044698346456693
11
4.2506931889763777
21
-4.0412485039370081
0
LINE
8
BLACK
6
CONTINUOUS
10
4.2506931889763777
20
-4.0412485039370081
11
4.2506929921259839
21
-4.0412484251968506
0
LINE
8
BLACK
6
CONTINUOUS
10
4.2506929921259839
20
-4.0412484251968506
11
4.2452993700787403
21
-4.0392366535433073
0
LINE
8
BLACK
6
CONTINUOUS
10
4.2452993700787403
20
-4.0392366535433073
11
4.2452990551181102
21
-4.0392365748031498
0
LINE
8
BLACK
6
CONTINUOUS
10
4.2452990551181102
20
-4.0392365748031498
11
4.24291531496063
21
-4.0389803149606296
0
LINE
8
BLACK
6
CONTINUOUS
10
4.24291531496063
20
-4.0389803149606296
11
4.2429148818897637
21
-4.0389803149606296
0
LINE
8
BLACK
6
CONTINUOUS
10
4.2429148818897637
20
-4.0389803149606296
11
4.1076988188976378
21
-4.0389803149606296
0
LINE
8
BLACK
6
CONTINUOUS
10
4.1076988188976378
20
-4.0389803149606296
11
4.1050168897637791
21
-4.0381928346456695
0
LINE
8
BLACK
6
CONTINUOUS
10
4.1050168897637791
20
-4.0381928346456695
11
4.1041911417322829
21
-4.0375273622047247
0
LINE
8
BLACK
6
CONTINUOUS
10
4.1041911417322829
20
-4.0375273622047247
11
4.0573781496062988
21
-3.9907143700787402
0
LINE
8
BLACK
6
CONTINUOUS
10
4.0573781496062988
20
-3.9907143700787402
11
4.0560385433070865
21
-3.9882611417322833
0
LINE
8
BLACK
6
CONTINUOUS
10
4.0560385433070865
20
-3.9882611417322833
11
4.055925196850394
21
-3.9872066929133858
0
LINE
8
BLACK
6
CONTINUOUS
10
4.055925196850394
20
-3.9872066929133858
11
4.055925196850394
21
-3.424964409448819
0
LINE
8
BLACK
6
CONTINUOUS
10
4.055925196850394
20
-3.424964409448819
11
4.055925196850394
21
-3.4127933070866141
0
LINE
8
BLACK
6
CONTINUOUS
10
4.055925196850394
20
-3.4127933070866141
11
4.0567126771653541
21
-3.4101113779527559
0
LINE
8
BLACK
6
CONTINUOUS
10
4.0567126771653541
20
-3.4101113779527559
11
4.0573781496062988
21
-3.4092856299212597
0
LINE
8
BLACK
6
CONTINUOUS
10
4.0573781496062988
20
-3.4092856299212597
11
4.2392856299212598
21
-3.2273781496062992
0
LINE
8
BLACK
6
CONTINUOUS
10
4.2392856299212598
20
-3.2273781496062992
11
4.2417388582677162
21
-3.2260385433070864
0
LINE
8
BLACK
6
CONTINUOUS
10
4.2417388582677162
20
-3.2260385433070864
11
4.2427933070866137
21
-3.2259251968503935
0
LINE
8
BLACK
6
CONTINUOUS
10
4.2427933070866137
20
-3.2259251968503935
11
5.4472066929133858
21
-3.2259251968503935
0
LINE
8
BLACK
6
CONTINUOUS
10
5.4472066929133858
20
-3.2259251968503935
11
5.4498886220472436
21
-3.226712677165354
0
LINE
8
BLACK
6
CONTINUOUS
10
5.4498886220472436
20
-3.226712677165354
11
5.4507143700787397
21
-3.2273781496062992
0
LINE
8
BLACK
6
CONTINUOUS
10
5.4507143700787397
20
-3.2273781496062992
11
5.5600844488188974
21
-3.3367482283464565
0
LINE
8
BLACK
6
CONTINUOUS
10
5.5600844488188974
20
-3.3367482283464565
11
5.5614240551181098
21
-3.3392014566929134
0
LINE
8
BLACK
6
CONTINUOUS
10
5.5614240551181098
20
-3.3392014566929134
11
5.5612246456692915
21
-3.3419894488188975
0
LINE
8
BLACK
6
CONTINUOUS
10
5.5612246456692915
20
-3.3419894488188975
11
5.5595495669291335
21
-3.3442270866141732
0
LINE
8
BLACK
6
CONTINUOUS
10
5.5595495669291335
20
-3.3442270866141732
11
5.5569306692913383
21
-3.3452038976377954
0
LINE
8
BLACK
6
CONTINUOUS
10
5.5569306692913383
20
-3.3452038976377954
11
5.5565767716535435
21
-3.345216535433071
0
LINE
8
BLACK
6
CONTINUOUS
10
5.5565767716535435
20
-3.345216535433071
11
5.531864173228346
21
-3.345216535433071
0
LINE
8
BLACK
6
CONTINUOUS
10
5.531864173228346
20
-3.345216535433071
11
5.5294804330708658
21
-3.3454727952755903
0
LINE
8
BLACK
6
CONTINUOUS
10
5.5294804330708658
20
-3.3454727952755903
11
5.5294801181102358
21
-3.3454728740157478
0
LINE
8
BLACK
6
CONTINUOUS
10
5.5294801181102358
20
-3.3454728740157478
11
5.5240864960629921
21
-3.347484645669291
0
LINE
8
BLACK
6
CONTINUOUS
10
5.5240864960629921
20
-3.347484645669291
11
5.5240862992125983
21
-3.3474847244094486
0
LINE
8
BLACK
6
CONTINUOUS
10
5.5240862992125983
20
-3.3474847244094486
11
5.519477874015748
21
-3.3509345669291339
0
LINE
8
BLACK
6
CONTINUOUS
10
5.519477874015748
20
-3.3509345669291339
11
5.516028031496063
21
-3.3555429921259843
0
LINE
8
BLACK
6
CONTINUOUS
10
5.516028031496063
20
-3.3555429921259843
11
5.5160279527559055
21
-3.355543188976378
0
LINE
8
BLACK
6
CONTINUOUS
10
5.5160279527559055
20
-3.355543188976378
11
5.5140161811023622
21
-3.3609368110236222
0
LINE
8
BLACK
6
CONTINUOUS
10
5.5140161811023622
20
-3.3609368110236222
11
5.5140161023622047
21
-3.3609371259842518
0
LINE
8
BLACK
6
CONTINUOUS
10
5.5140161023622047
20
-3.3609371259842518
11
5.5137598425196845
21
-3.3633208661417324
0
LINE
8
BLACK
6
CONTINUOUS
10
5.5137598425196845
20
-3.3633208661417324
11
5.5137598425196845
21
-3.3966790944881891
0
LINE
8
BLACK
6
CONTINUOUS
10
5.5137598425196845
20
-3.3966790944881891
11
5.5140161023622047
21
-3.3990628346456693
0
LINE
8
BLACK
6
CONTINUOUS
10
5.5140161023622047
20
-3.3990628346456693
11
5.5140161811023622
21
-3.3990631496062993
0
LINE
8
BLACK
6
CONTINUOUS
10
5.5140161811023622
20
-3.3990631496062993
11
5.5160279527559055
21
-3.4044567716535434
0
LINE
8
BLACK
6
CONTINUOUS
10
5.5160279527559055
20
-3.4044567716535434
11
5.516028031496063
21
-3.4044569685039368
0
LINE
8
BLACK
6
CONTINUOUS
10
5.516028031496063
20
-3.4044569685039368
11
5.5194778346456692
21
-3.40906531496063
0
LINE
8
BLACK
6
CONTINUOUS
10
5.5194778346456692
20
-3.40906531496063
11
5.519477874015748
21
-3.40906531496063
0
LINE
8
BLACK
6
CONTINUOUS
10
5.519477874015748
20
-3.40906531496063
11
5.5194779133858267
21
-3.4090653937007875
0
LINE
8
BLACK
6
CONTINUOUS
10
5.5194779133858267
20
-3.4090653937007875
11
5.520875196850394
21
-3.4101113779527559
0
LINE
8
BLACK
6
CONTINUOUS
10
5.520875196850394
20
-3.4101113779527559
11
5.5222231496062992
21
-3.411120472440945
0
LINE
8
BLACK
6
CONTINUOUS
10
5.5222231496062992
20
-3.411120472440945
11
5.5238981889763776
21
-3.4133581102362203
0
LINE
8
BLACK
6
CONTINUOUS
10
5.5238981889763776
20
-3.4133581102362203
11
5.524097559055118
21
-3.4161461417322836
0
LINE
8
BLACK
6
CONTINUOUS
10
5.524097559055118
20
-3.4161461417322836
11
5.5230416535433067
21
-3.4180803937007873
0
LINE
8
BLACK
6
CONTINUOUS
10
5.5230416535433067
20
-3.4180803937007873
11
5.5231353937007874
21
-3.4181505905511811
0
LINE
8
BLACK
6
CONTINUOUS
10
5.5231353937007874
20
-3.4181505905511811
11
5.5214559448818896
21
-3.42039405511811
0
LINE
8
BLACK
6
CONTINUOUS
10
5.5214559448818896
20
-3.42039405511811
11
5.5192183070866143
21
-3.4220691338582676
0
LINE
8
BLACK
6
CONTINUOUS
10
5.5192183070866143
20
-3.4220691338582676
11
5.5174847637795272
21
-3.4223818897637797
0
LINE
8
BLACK
6
CONTINUOUS
10
5.5174847637795272
20
-3.4223818897637797
11
5.5102248031496064
21
-3.4223818897637797
0
LINE
8
BLACK
6
CONTINUOUS
10
5.5102248031496064
20
-3.4223818897637797
11
5.507847677165354
21
-3.4217752362204723
0
LINE
8
BLACK
6
CONTINUOUS
10
5.507847677165354
20
-3.4217752362204723
11
5.5077048818897634
21
-3.4216972834645669
0
LINE
8
BLACK
6
CONTINUOUS
10
5.5077048818897634
20
-3.4216972834645669
11
5.5023111811023622
21
-3.4196854724409449
0
LINE
8
BLACK
6
CONTINUOUS
10
5.5023111811023622
20
-3.4196854724409449
11
5.5023108661417321
21
-3.4196853937007874
0
LINE
8
BLACK
6
CONTINUOUS
10
5.5023108661417321
20
-3.4196853937007874
11
5.4999271259842519
21
-3.4194291338582676
0
LINE
8
BLACK
6
CONTINUOUS
10
5.4999271259842519
20
-3.4194291338582676
11
5.4999266929133857
21
-3.4194291338582676
0
LINE
8
BLACK
6
CONTINUOUS
10
5.4999266929133857
20
-3.4194291338582676
11
5.4114512598425195
21
-3.4194291338582676
0
LINE
8
BLACK
6
CONTINUOUS
10
5.4114512598425195
20
-3.4194291338582676
11
5.4114507874015745
21
-3.4194291338582676
0
LINE
8
BLACK
6
CONTINUOUS
10
5.4114507874015745
20
-3.4194291338582676
11
5.4090670472440943
21
-3.4196853937007874
0
LINE
8
BLACK
6
CONTINUOUS
10
5.4090670472440943
20
-3.4196853937007874
11
5.4090667322834642
21
-3.4196854724409449
0
LINE
8
BLACK
6
CONTINUOUS
10
5.4090667322834642
20
-3.4196854724409449
11
5.4036731102362205
21
-3.4216972440944882
0
LINE
8
BLACK
6
CONTINUOUS
10
5.4036731102362205
20
-3.4216972440944882
11
5.4036729133858268
21
-3.4216973228346457
0
LINE
8
BLACK
6
CONTINUOUS
10
5.4036729133858268
20
-3.4216973228346457
11
5.3990644881889764
21
-3.4251471653543306
0
LINE
8
BLACK
6
CONTINUOUS
10
5.3990644881889764
20
-3.4251471653543306
11
5.3956146456692915
21
-3.429755590551181
0
LINE
8
BLACK
6
CONTINUOUS
10
5.3956146456692915
20
-3.429755590551181
11
5.395614566929134
21
-3.4297557874015747
0
LINE
8
BLACK
6
CONTINUOUS
10
5.395614566929134
20
-3.4297557874015747
11
5.3936027952755907
21
-3.4351494094488189
0
LINE
8
BLACK
6
CONTINUOUS
10
5.3936027952755907
20
-3.4351494094488189
11
5.3936027165354332
21
-3.4351497244094489
0
LINE
8
BLACK
6
CONTINUOUS
10
5.3936027165354332
20
-3.4351497244094489
11
5.393346456692913
21
-3.4375334645669291
0
LINE
8
BLACK
6
CONTINUOUS
10
5.393346456692913
20
-3.4375334645669291
11
5.393346456692913
21
-3.4590806692913385
0
LINE
8
BLACK
6
CONTINUOUS
10
5.393346456692913
20
-3.4590806692913385
11
5.3936027165354332
21
-3.4614644094488187
0
LINE
8
BLACK
6
CONTINUOUS
10
5.3936027165354332
20
-3.4614644094488187
11
5.3936027952755907
21
-3.4614647244094487
0
LINE
8
BLACK
6
CONTINUOUS
10
5.3936027952755907
20
-3.4614647244094487
11
5.395614566929134
21
-3.4668583464566929
0
LINE
8
BLACK
6
CONTINUOUS
10
5.395614566929134
20
-3.4668583464566929
11
5.3956146456692915
21
-3.4668585433070866
0
LINE
8
BLACK
6
CONTINUOUS
10
5.3956146456692915
20
-3.4668585433070866
11
5.3982165748031496
21
-3.4703342913385824
0
LINE
8
BLACK
6
CONTINUOUS
10
5.3982165748031496
20
-3.4703342913385824
11
5.3991933858267718
21
-3.4729531889763781
0
LINE
8
BLACK
6
CONTINUOUS
10
5.3991933858267718
20
-3.4729531889763781
11
5.398599212598425
21
-3.4756844488188974
0
LINE
8
BLACK
6
CONTINUOUS
10
5.398599212598425
20
-3.4756844488188974
11
5.3982165748031496
21
-3.4762798818897638
0
LINE
8
BLACK
6
CONTINUOUS
10
5.3982165748031496
20
-3.4762798818897638
11
5.3956146456692915
21
-3.4797555905511812
0
LINE
8
BLACK
6
CONTINUOUS
10
5.3956146456692915
20
-3.4797555905511812
11
5.395614566929134
21
-3.4797557874015745
0
LINE
8
BLACK
6
CONTINUOUS
10
5.395614566929134
20
-3.4797557874015745
11
5.3936027952755907
21
-3.4851494094488187
0
LINE
8
BLACK
6
CONTINUOUS
10
5.3936027952755907
20
-3.4851494094488187
11
5.3936027165354332
21
-3.4851497244094487
0
LINE
8
BLACK
6
CONTINUOUS
10
5.3936027165354332
20
-3.4851497244094487
11
5.393346456692913
21
-3.4875334645669289
0
LINE
8
BLACK
6
CONTINUOUS
10
5.393346456692913
20
-3.4875334645669289
11
5.393346456692913
21
-3.5090806692913383
0
LINE
8
BLACK
6
CONTINUOUS
10
5.393346456692913
20
-3.5090806692913383
11
5.3936027165354332
21
-3.511464409448819
0
LINE
8
BLACK
6
CONTINUOUS
10
5.3936027165354332
20
-3.511464409448819
11
5.3936027952755907
21
-3.5114647244094486
0
LINE
8
BLACK
6
CONTINUOUS
10
5.3936027952755907
20
-3.5114647244094486
11
5.395614566929134
21
-3.5168583464566927
0
LINE
8
BLACK
6
CONTINUOUS
10
5.395614566929134
20
-3.5168583464566927
11
5.3956146456692915
21
-3.5168585433070865
0
LINE
8
BLACK
6
CONTINUOUS
10
5.3956146456692915
20
-3.5168585433070865
11
5.3990644881889764
21
-3.5214669685039368
0
LINE
8
BLACK
6
CONTINUOUS
10
5.3990644881889764
20
-3.5214669685039368
11
5.4036729133858268
21
-3.5249168110236218
0
LINE
8
BLACK
6
CONTINUOUS
10
5.4036729133858268
20
-3.5249168110236218
11
5.4036729921259843
21
-3.5249168503937005
0
LINE
8
BLACK
6
CONTINUOUS
10
5.4036729921259843
20
-3.5249168503937005
11
5.4036730708661418
21
-3.5249168897637793
0
LINE
8
BLACK
6
CONTINUOUS
10
5.4036730708661418
20
-3.5249168897637793
11
5.4059990157480318
21
-3.5257844094488187
0
LINE
8
BLACK
6
CONTINUOUS
10
5.4059990157480318
20
-3.5257844094488187
11
5.4090667322834642
21
-3.526928661417323
0
LINE
8
BLACK
6
CONTINUOUS
10
5.4090667322834642
20
-3.526928661417323
11
5.4090670472440943
21
-3.52692874015748
0
LINE
8
BLACK
6
CONTINUOUS
10
5.4090670472440943
20
-3.52692874015748
11
5.4114507874015745
21
-3.5271849999999998
0
LINE
8
BLACK
6
CONTINUOUS
10
5.4114507874015745
20
-3.5271849999999998
11
5.4114509842519682
21
-3.5271849999999998
0
LINE
8
BLACK
6
CONTINUOUS
10
5.4114509842519682
20
-3.5271849999999998
11
5.4114512598425195
21
-3.5271850393700785
0
LINE
8
BLACK
6
CONTINUOUS
10
5.4114512598425195
20
-3.5271850393700785
11
5.411451496062992
21
-3.5271850393700785
0
LINE
8
BLACK
6
CONTINUOUS
10
5.411451496062992
20
-3.5271850393700785
11
5.4999264566929131
21
-3.5271850393700785
0
LINE
8
BLACK
6
CONTINUOUS
10
5.4999264566929131
20
-3.5271850393700785
11
5.4999266929133857
21
-3.5271850393700785
0
LINE
8
BLACK
6
CONTINUOUS
10
5.4999266929133857
20
-3.5271850393700785
11
5.4999269685039369
21
-3.5271849999999998
0
LINE
8
BLACK
6
CONTINUOUS
10
5.4999269685039369
20
-3.5271849999999998
11
5.4999271259842519
21
-3.5271849999999998
0
LINE
8
BLACK
6
CONTINUOUS
10
5.4999271259842519
20
-3.5271849999999998
11
5.5023108661417321
21
-3.52692874015748
0
LINE
8
BLACK
6
CONTINUOUS
10
5.5023108661417321
20
-3.52692874015748
11
5.5023109842519684
21
-3.5269287007874013
0
LINE
8
BLACK
6
CONTINUOUS
10
5.5023109842519684
20
-3.5269287007874013
11
5.5023110629921259
21
-3.5269287007874013
0
LINE
8
BLACK
6
CONTINUOUS
10
5.5023110629921259
20
-3.5269287007874013
11
5.5077048818897634
21
-3.5249168897637793
0
LINE
8
BLACK
6
CONTINUOUS
10
5.5077048818897634
20
-3.5249168897637793
11
5.5077050393700784
21
-3.5249167322834647
0
LINE
8
BLACK
6
CONTINUOUS
10
5.5077050393700784
20
-3.5249167322834647
11
5.507847677165354
21
-3.5248389370078739
0
LINE
8
BLACK
6
CONTINUOUS
10
5.507847677165354
20
-3.5248389370078739
11
5.5102248031496064
21
-3.524232283464567
0
LINE
8
BLACK
6
CONTINUOUS
10
5.5102248031496064
20
-3.524232283464567
11
5.5122440944881888
21
-3.524232283464567
0
LINE
8
BLACK
6
CONTINUOUS
10
5.5122440944881888
20
-3.524232283464567
11
5.5149260236220474
21
-3.5250197637795275
0
LINE
8
BLACK
6
CONTINUOUS
10
5.5149260236220474
20
-3.5250197637795275
11
5.5167564566929137
21
-3.5271322047244094
0
LINE
8
BLACK
6
CONTINUOUS
10
5.5167564566929137
20
-3.5271322047244094
11
5.5171730708661419
21
-3.5290474409448818
0
LINE
8
BLACK
6
CONTINUOUS
10
5.5171730708661419
20
-3.5290474409448818
11
5.5171976377952756
21
-3.5290461417322834
0
LINE
8
BLACK
6
CONTINUOUS
10
5.5171976377952756
20
-3.5290461417322834
11
5.5172047244094484
21
-3.5291790944881889
0
LINE
8
BLACK
6
CONTINUOUS
10
5.5172047244094484
20
-3.5291790944881889
11
5.5174609842519686
21
-3.5315628346456691
0
LINE
8
BLACK
6
CONTINUOUS
10
5.5174609842519686
20
-3.5315628346456691
11
5.5174610629921261
21
-3.5315631496062991
0
LINE
8
BLACK
6
CONTINUOUS
10
5.5174610629921261
20
-3.5315631496062991
11
5.5194728346456694
21
-3.5369567716535433
0
LINE
8
BLACK
6
CONTINUOUS
10
5.5194728346456694
20
-3.5369567716535433
11
5.5194729133858269
21
-3.536956968503937
0
LINE
8
BLACK
6
CONTINUOUS
10
5.5194729133858269
20
-3.536956968503937
11
5.5229227559055118
21
-3.5415653937007874
0
LINE
8
BLACK
6
CONTINUOUS
10
5.5229227559055118
20
-3.5415653937007874
11
5.5275311811023622
21
-3.5450152362204723
0
LINE
8
BLACK
6
CONTINUOUS
10
5.5275311811023622
20
-3.5450152362204723
11
5.5275312598425197
21
-3.5450152755905511
0
LINE
8
BLACK
6
CONTINUOUS
10
5.5275312598425197
20
-3.5450152755905511
11
5.5275313385826772
21
-3.5450153149606298
0
LINE
8
BLACK
6
CONTINUOUS
10
5.5275313385826772
20
-3.5450153149606298
11
5.5298572834645672
21
-3.5458828346456692
0
LINE
8
BLACK
6
CONTINUOUS
10
5.5298572834645672
20
-3.5458828346456692
11
5.5329249999999996
21
-3.5470270866141731
0
LINE
8
BLACK
6
CONTINUOUS
10
5.5329249999999996
20
-3.5470270866141731
11
5.5329253149606297
21
-3.5470271653543306
0
LINE
8
BLACK
6
CONTINUOUS
10
5.5329253149606297
20
-3.5470271653543306
11
5.5353090551181099
21
-3.5472834251968504
0
LINE
8
BLACK
6
CONTINUOUS
10
5.5353090551181099
20
-3.5472834251968504
11
5.5353092519685037
21
-3.5472834251968504
0
LINE
8
BLACK
6
CONTINUOUS
10
5.5353092519685037
20
-3.5472834251968504
11
5.5353095275590549
21
-3.5472834645669291
0
LINE
8
BLACK
6
CONTINUOUS
10
5.5353095275590549
20
-3.5472834645669291
11
5.5353097637795274
21
-3.5472834645669291
0
LINE
8
BLACK
6
CONTINUOUS
10
5.5353097637795274
20
-3.5472834645669291
11
5.5706351181102365
21
-3.5472834645669291
0
LINE
8
BLACK
6
CONTINUOUS
10
5.5706351181102365
20
-3.5472834645669291
11
5.5706353543307081
21
-3.5472834645669291
0
LINE
8
BLACK
6
CONTINUOUS
10
5.5706353543307081
20
-3.5472834645669291
11
5.5706356299212594
21
-3.5472834251968504
0
LINE
8
BLACK
6
CONTINUOUS
10
5.5706356299212594
20
-3.5472834251968504
11
5.5706357874015744
21
-3.5472834251968504
0
LINE
8
BLACK
6
CONTINUOUS
10
5.5706357874015744
20
-3.5472834251968504
11
5.5730195275590546
21
-3.5470271653543306
0
LINE
8
BLACK
6
CONTINUOUS
10
5.5730195275590546
20
-3.5470271653543306
11
5.5730196456692909
21
-3.5470271259842518
0
LINE
8
BLACK
6
CONTINUOUS
10
5.5730196456692909
20
-3.5470271259842518
11
5.5730197244094484
21
-3.5470271259842518
0
LINE
8
BLACK
6
CONTINUOUS
10
5.5730197244094484
20
-3.5470271259842518
11
5.5784135433070867
21
-3.5450153149606298
0
LINE
8
BLACK
6
CONTINUOUS
10
5.5784135433070867
20
-3.5450153149606298
11
5.5830220866141733
21
-3.5415653937007874
0
LINE
8
BLACK
6
CONTINUOUS
10
5.5830220866141733
20
-3.5415653937007874
11
5.5864720078740158
21
-3.5369568503937008
0
LINE
8
BLACK
6
CONTINUOUS
10
5.5864720078740158
20
-3.5369568503937008
11
5.5884838188976378
21
-3.5315630314960629
0
LINE
8
BLACK
6
CONTINUOUS
10
5.5884838188976378
20
-3.5315630314960629
11
5.5887401574803146
21
-3.5291786614173226
0
LINE
8
BLACK
6
CONTINUOUS
10
5.5887401574803146
20
-3.5291786614173226
11
5.5887401574803146
21
-3.4958213385826773
0
LINE
8
BLACK
6
CONTINUOUS
10
5.5887401574803146
20
-3.4958213385826773
11
5.5887401181102359
21
-3.4958208661417323
0
LINE
8
BLACK
6
CONTINUOUS
10
5.5887401181102359
20
-3.4958208661417323
11
5.5884838582677165
21
-3.493437125984252
0
LINE
8
BLACK
6
CONTINUOUS
10
5.5884838582677165
20
-3.493437125984252
11
5.5884838188976378
21
-3.4934369291338583
0
LINE
8
BLACK
6
CONTINUOUS
10
5.5884838188976378
20
-3.4934369291338583
11
5.5879489763779526
21
-3.4920030314960631
0
LINE
8
BLACK
6
CONTINUOUS
10
5.5879489763779526
20
-3.4920030314960631
11
5.5867106299212601
21
-3.4886829921259843
0
LINE
8
BLACK
6
CONTINUOUS
10
5.5867106299212601
20
-3.4886829921259843
11
5.586511220472441
21
-3.4858950787401572
0
LINE
8
BLACK
6
CONTINUOUS
10
5.586511220472441
20
-3.4858950787401572
11
5.5878507874015746
21
-3.483441811023622
0
LINE
8
BLACK
6
CONTINUOUS
10
5.5878507874015746
20
-3.483441811023622
11
5.590304015748031
21
-3.482102244094488
0
LINE
8
BLACK
6
CONTINUOUS
10
5.590304015748031
20
-3.482102244094488
11
5.5918887795275589
21
-3.4820172834645668
0
LINE
8
BLACK
6
CONTINUOUS
10
5.5918887795275589
20
-3.4820172834645668
11
5.591980236220472
21
-3.4820270866141732
0
LINE
8
BLACK
6
CONTINUOUS
10
5.591980236220472
20
-3.4820270866141732
11
5.5919802755905508
21
-3.4820271259842519
0
LINE
8
BLACK
6
CONTINUOUS
10
5.5919802755905508
20
-3.4820271259842519
11
5.5926790157480317
21
-3.482102244094488
0
LINE
8
BLACK
6
CONTINUOUS
10
5.5926790157480317
20
-3.482102244094488
11
5.5943642519685035
21
-3.4822834251968504
0
LINE
8
BLACK
6
CONTINUOUS
10
5.5943642519685035
20
-3.4822834251968504
11
5.5943642913385823
21
-3.4822834251968504
0
LINE
8
BLACK
6
CONTINUOUS
10
5.5943642913385823
20
-3.4822834251968504
11
5.594364645669291
21
-3.4822834645669292
0
LINE
8
BLACK
6
CONTINUOUS
10
5.594364645669291
20
-3.4822834645669292
11
5.5943648818897636
21
-3.4822834645669292
0
LINE
8
BLACK
6
CONTINUOUS
10
5.5943648818897636
20
-3.4822834645669292
11
5.6296902362204726
21
-3.4822834645669292
0
LINE
8
BLACK
6
CONTINUOUS
10
5.6296902362204726
20
-3.4822834645669292
11
5.6296904724409451
21
-3.4822834645669292
0
LINE
8
BLACK
6
CONTINUOUS
10
5.6296904724409451
20
-3.4822834645669292
11
5.6296907480314955
21
-3.4822834251968504
0
LINE
8
BLACK
6
CONTINUOUS
10
5.6296907480314955
20
-3.4822834251968504
11
5.6296909055118105
21
-3.4822834251968504
0
LINE
8
BLACK
6
CONTINUOUS
10
5.6296909055118105
20
-3.4822834251968504
11
5.6320746456692916
21
-3.4820271653543307
0
LINE
8
BLACK
6
CONTINUOUS
10
5.6320746456692916
20
-3.4820271653543307
11
5.6320747637795279
21
-3.4820271259842519
0
LINE
8
BLACK
6
CONTINUOUS
10
5.6320747637795279
20
-3.4820271259842519
11
5.6320748425196845
21
-3.4820271259842519
0
LINE
8
BLACK
6
CONTINUOUS
10
5.6320748425196845
20
-3.4820271259842519
11
5.6321012598425195
21
-3.4820172834645668
0
LINE
8
BLACK
6
CONTINUOUS
10
5.6321012598425195
20
-3.4820172834645668
11
5.6328167322834641
21
-3.4817503937007874
0
LINE
8
BLACK
6
CONTINUOUS
10
5.6328167322834641
20
-3.4817503937007874
11
5.6374686614173228
21
-3.4800153149606299
0
LINE
8
BLACK
6
CONTINUOUS
10
5.6374686614173228
20
-3.4800153149606299
11
5.6381548031496065
21
-3.4795016929133857
0
LINE
8
BLACK
6
CONTINUOUS
10
5.6381548031496065
20
-3.4795016929133857
11
5.6420772047244094
21
-3.4765653937007874
0
LINE
8
BLACK
6
CONTINUOUS
10
5.6420772047244094
20
-3.4765653937007874
11
5.6455270472440944
21
-3.4719569685039371
0
LINE
8
BLACK
6
CONTINUOUS
10
5.6455270472440944
20
-3.4719569685039371
11
5.6455270472440944
21
-3.4719569291338583
0
LINE
8
BLACK
6
CONTINUOUS
10
5.6455270472440944
20
-3.4719569291338583
11
5.6455271259842519
21
-3.4719568503937008
0
LINE
8
BLACK
6
CONTINUOUS
10
5.6455271259842519
20
-3.4719568503937008
11
5.6474287007874011
21
-3.4668585433070866
0
LINE
8
BLACK
6
CONTINUOUS
10
5.6474287007874011
20
-3.4668585433070866
11
5.6475388976377952
21
-3.4665631496062992
0
LINE
8
BLACK
6
CONTINUOUS
10
5.6475388976377952
20
-3.4665631496062992
11
5.6475389763779527
21
-3.4665628346456692
0
LINE
8
BLACK
6
CONTINUOUS
10
5.6475389763779527
20
-3.4665628346456692
11
5.647795236220472
21
-3.4641790944881889
0
LINE
8
BLACK
6
CONTINUOUS
10
5.647795236220472
20
-3.4641790944881889
11
5.6477952755905507
21
-3.4641784251968502
0
LINE
8
BLACK
6
CONTINUOUS
10
5.6477952755905507
20
-3.4641784251968502
11
5.6477952755905507
21
-3.4308215354330707
0
LINE
8
BLACK
6
CONTINUOUS
10
5.6477952755905507
20
-3.4308215354330707
11
5.647795236220472
21
-3.4308208661417323
0
LINE
8
BLACK
6
CONTINUOUS
10
5.647795236220472
20
-3.4308208661417323
11
5.6475389763779527
21
-3.4284371259842521
0
LINE
8
BLACK
6
CONTINUOUS
10
5.6475389763779527
20
-3.4284371259842521
11
5.6475388976377952
21
-3.4284368110236221
0
LINE
8
BLACK
6
CONTINUOUS
10
5.6475388976377952
20
-3.4284368110236221
11
5.6462437401574803
21
-3.424964409448819
0
LINE
8
BLACK
6
CONTINUOUS
10
5.6462437401574803
20
-3.424964409448819
11
5.6455271259842519
21
-3.4230431496062992
0
LINE
8
BLACK
6
CONTINUOUS
10
5.6455271259842519
20
-3.4230431496062992
11
5.6455270866141731
21
-3.4230430708661417
0
LINE
8
BLACK
6
CONTINUOUS
10
5.6455270866141731
20
-3.4230430708661417
11
5.6455270472440944
21
-3.4230429921259842
0
LINE
8
BLACK
6
CONTINUOUS
10
5.6455270472440944
20
-3.4230429921259842
11
5.6420772047244094
21
-3.4184345669291338
0
LINE
8
BLACK
6
CONTINUOUS
10
5.6420772047244094
20
-3.4184345669291338
11
5.6399405511811018
21
-3.4168350787401573
0
LINE
8
BLACK
6
CONTINUOUS
10
5.6399405511811018
20
-3.4168350787401573
11
5.6382655118110234
21
-3.4145974409448816
0
LINE
8
BLACK
6
CONTINUOUS
10
5.6382655118110234
20
-3.4145974409448816
11
5.6379527559055118
21
-3.4128639370078742
0
LINE
8
BLACK
6
CONTINUOUS
10
5.6379527559055118
20
-3.4128639370078742
11
5.6379527559055118
21
-3.3494742125984249
0
LINE
8
BLACK
6
CONTINUOUS
10
5.6379527559055118
20
-3.3494742125984249
11
5.6379527165354331
21
-3.3494740157480316
0
LINE
8
BLACK
6
CONTINUOUS
10
5.6379527165354331
20
-3.3494740157480316
11
5.6377874409448818
21
-3.3486431496062989
0
LINE
8
BLACK
6
CONTINUOUS
10
5.6377874409448818
20
-3.3486431496062989
11
5.6377874015748031
21
-3.3486429133858269
0
LINE
8
BLACK
6
CONTINUOUS
10
5.6377874015748031
20
-3.3486429133858269
11
5.6369565748031496
21
-3.3444657086614171
0
LINE
8
BLACK
6
CONTINUOUS
10
5.6369565748031496
20
-3.3444657086614171
11
5.6369565354330708
21
-3.3444656692913384
0
LINE
8
BLACK
6
CONTINUOUS
10
5.6369565354330708
20
-3.3444656692913384
11
5.6369564960629921
21
-3.3444656299212596
0
LINE
8
BLACK
6
CONTINUOUS
10
5.6369564960629921
20
-3.3444656299212596
11
5.6369564960629921
21
-3.3444654724409446
0
LINE
8
BLACK
6
CONTINUOUS
10
5.6369564960629921
20
-3.3444654724409446
11
5.6350021653543303
21
-3.3397473622047245
0
LINE
8
BLACK
6
CONTINUOUS
10
5.6350021653543303
20
-3.3397473622047245
11
5.6321649999999996
21
-3.335501220472441
0
LINE
8
BLACK
6
CONTINUOUS
10
5.6321649999999996
20
-3.335501220472441
11
5.4765263385826772
21
-3.1798625590551182
0
LINE
8
BLACK
6
CONTINUOUS
10
5.4765263385826772
20
-3.1798625590551182
11
5.4722801968503934
21
-3.1770253937007875
0
LINE
8
BLACK
6
CONTINUOUS
10
5.4722801968503934
20
-3.1770253937007875
11
5.467562204724409
21
-3.1750711417322832
0
LINE
8
BLACK
6
CONTINUOUS
10
5.467562204724409
20
-3.1750711417322832
11
5.4675620866141728
21
-3.1750711023622045
0
LINE
8
BLACK
6
CONTINUOUS
10
5.4675620866141728
20
-3.1750711023622045
11
5.4625535433070862
21
-3.1740748031496064
0
LINE
8
BLACK
6
CONTINUOUS
10
5.4625535433070862
20
-3.1740748031496064
11
5.4625534251968499
21
-3.1740748031496064
0
LINE
8
BLACK
6
CONTINUOUS
10
5.4625534251968499
20
-3.1740748031496064
11
4.2274465748031496
21
-3.1740748031496064
0
LINE
8
BLACK
6
CONTINUOUS
10
4.2274465748031496
20
-3.1740748031496064
11
4.2274464173228345
21
-3.1740748031496064
0
LINE
8
BLACK
6
CONTINUOUS
10
4.2274464173228345
20
-3.1740748031496064
11
4.222437874015748
21
-3.1750711023622045
0
LINE
8
BLACK
6
CONTINUOUS
10
4.222437874015748
20
-3.1750711023622045
11
4.2224377559055117
21
-3.1750711417322832
0
LINE
8
BLACK
6
CONTINUOUS
10
4.2224377559055117
20
-3.1750711417322832
11
4.2177197637795274
21
-3.1770253937007875
0
LINE
8
BLACK
6
CONTINUOUS
10
4.2177197637795274
20
-3.1770253937007875
11
4.2134737007874019
21
-3.1798625196850394
0
LINE
8
BLACK
6
CONTINUOUS
10
4.2134737007874019
20
-3.1798625196850394
11
4.2134734645669294
21
-3.1798627165354332
0
LINE
8
BLACK
6
CONTINUOUS
10
4.2134734645669294
20
-3.1798627165354332
11
4.0098626771653541
21
-3.3834734645669289
0
LINE
8
BLACK
6
CONTINUOUS
10
4.0098626771653541
20
-3.3834734645669289
11
4.0098625590551178
21
-3.3834736220472439
0
LINE
8
BLACK
6
CONTINUOUS
10
4.0098625590551178
20
-3.3834736220472439
11
4.0081757086614171
21
-3.3859982677165354
0
LINE
8
BLACK
6
CONTINUOUS
10
4.0081757086614171
20
-3.3859982677165354
11
4.0081756692913384
21
-3.3859983070866142
0
LINE
8
BLACK
6
CONTINUOUS
10
4.0081756692913384
20
-3.3859983070866142
11
4.0070253937007871
21
-3.3877198031496061
0
LINE
8
BLACK
6
CONTINUOUS
10
4.0070253937007871
20
-3.3877198031496061
11
4.0050711417322837
21
-3.3924377559055117
0
LINE
8
BLACK
6
CONTINUOUS
10
4.0050711417322837
20
-3.3924377559055117
11
4.005071102362205
21
-3.3924378740157479
0
LINE
8
BLACK
6
CONTINUOUS
10
4.005071102362205
20
-3.3924378740157479
11
4.0040748031496065
21
-3.3974464173228345
0
LINE
8
BLACK
6
CONTINUOUS
10
4.0040748031496065
20
-3.3974464173228345
11
4.0040748031496065
21
-4.0025535433070862
0
LINE
8
BLACK
6
CONTINUOUS
10
4.0697834645669291
20
-3.5562085039370079
11
4.0702473622047242
21
-3.5605147244094488
0
LINE
8
BLACK
6
CONTINUOUS
10
4.0702473622047242
20
-3.5605147244094488
11
4.0706974015748028
21
-3.562579212598425
0
LINE
8
BLACK
6
CONTINUOUS
10
4.0706974015748028
20
-3.562579212598425
11
4.0706974803149603
21
-3.5625794488188975
0
LINE
8
BLACK
6
CONTINUOUS
10
4.0706974803149603
20
-3.5625794488188975
11
4.0709817716535435
21
-3.563431653543307
0
LINE
8
BLACK
6
CONTINUOUS
10
4.0709817716535435
20
-3.563431653543307
11
4.0712366929133861
21
-3.5650013779527558
0
LINE
8
BLACK
6
CONTINUOUS
10
4.0712366929133861
20
-3.5650013779527558
11
4.0712366929133861
21
-3.6203641338582675
0
LINE
8
BLACK
6
CONTINUOUS
10
4.0712366929133861
20
-3.6203641338582675
11
4.0714929527559054
21
-3.6227478740157482
0
LINE
8
BLACK
6
CONTINUOUS
10
4.0714929527559054
20
-3.6227478740157482
11
4.0714930314960629
21
-3.6227481889763777
0
LINE
8
BLACK
6
CONTINUOUS
10
4.0714930314960629
20
-3.6227481889763777
11
4.0735048031496062
21
-3.6281418110236219
0
LINE
8
BLACK
6
CONTINUOUS
10
4.0735048031496062
20
-3.6281418110236219
11
4.0735048818897637
21
-3.6281420078740156
0
LINE
8
BLACK
6
CONTINUOUS
10
4.0735048818897637
20
-3.6281420078740156
11
4.0769547244094486
21
-3.632750433070866
0
LINE
8
BLACK
6
CONTINUOUS
10
4.0769547244094486
20
-3.632750433070866
11
4.081563149606299
21
-3.6362002755905509
0
LINE
8
BLACK
6
CONTINUOUS
10
4.081563149606299
20
-3.6362002755905509
11
4.0815632283464565
21
-3.6362003149606297
0
LINE
8
BLACK
6
CONTINUOUS
10
4.0815632283464565
20
-3.6362003149606297
11
4.081563307086614
21
-3.6362003543307084
0
LINE
8
BLACK
6
CONTINUOUS
10
4.081563307086614
20
-3.6362003543307084
11
4.0838892519685039
21
-3.6370678740157478
0
LINE
8
BLACK
6
CONTINUOUS
10
4.0838892519685039
20
-3.6370678740157478
11
4.0869569685039373
21
-3.6382121259842517
0
LINE
8
BLACK
6
CONTINUOUS
10
4.0869569685039373
20
-3.6382121259842517
11
4.0869572834645664
21
-3.6382122047244092
0
LINE
8
BLACK
6
CONTINUOUS
10
4.0869572834645664
20
-3.6382122047244092
11
4.0893410236220475
21
-3.638468464566929
0
LINE
8
BLACK
6
CONTINUOUS
10
4.0893410236220475
20
-3.638468464566929
11
4.0893412204724404
21
-3.638468464566929
0
LINE
8
BLACK
6
CONTINUOUS
10
4.0893412204724404
20
-3.638468464566929
11
4.0893414960629917
21
-3.6384685039370077
0
LINE
8
BLACK
6
CONTINUOUS
10
4.0893414960629917
20
-3.6384685039370077
11
4.0893417322834642
21
-3.6384685039370077
0
LINE
8
BLACK
6
CONTINUOUS
10
4.0893417322834642
20
-3.6384685039370077
11
4.2431710236220468
21
-3.6384685039370077
0
LINE
8
BLACK
6
CONTINUOUS
10
4.2431710236220468
20
-3.6384685039370077
11
4.2431712598425193
21
-3.6384685039370077
0
LINE
8
BLACK
6
CONTINUOUS
10
4.2431712598425193
20
-3.6384685039370077
11
4.2431715354330706
21
-3.638468464566929
0
LINE
8
BLACK
6
CONTINUOUS
10
4.2431715354330706
20
-3.638468464566929
11
4.2431716929133856
21
-3.638468464566929
0
LINE
8
BLACK
6
CONTINUOUS
10
4.2431716929133856
20
-3.638468464566929
11
4.2455554330708658
21
-3.6382122047244092
0
LINE
8
BLACK
6
CONTINUOUS
10
4.2455554330708658
20
-3.6382122047244092
11
4.2455555511811021
21
-3.6382121653543305
0
LINE
8
BLACK
6
CONTINUOUS
10
4.2455555511811021
20
-3.6382121653543305
11
4.2455556299212596
21
-3.6382121653543305
0
LINE
8
BLACK
6
CONTINUOUS
10
4.2455556299212596
20
-3.6382121653543305
11
4.2509494488188979
21
-3.6362003543307084
0
LINE
8
BLACK
6
CONTINUOUS
10
4.2509494488188979
20
-3.6362003543307084
11
4.2525529527559058
21
-3.6349999999999998
0
LINE
8
BLACK
6
CONTINUOUS
10
4.2525529527559058
20
-3.6349999999999998
11
4.2555579921259845
21
-3.632750433070866
0
LINE
8
BLACK
6
CONTINUOUS
10
4.2555579921259845
20
-3.632750433070866
11
4.2590077952755907
21
-3.6281420472440944
0
LINE
8
BLACK
6
CONTINUOUS
10
4.2590077952755907
20
-3.6281420472440944
11
4.2590077559055119
21
-3.6281420472440944
0
LINE
8
BLACK
6
CONTINUOUS
10
4.2590077559055119
20
-3.6281420472440944
11
4.259007913385827
21
-3.6281418897637794
0
LINE
8
BLACK
6
CONTINUOUS
10
4.259007913385827
20
-3.6281418897637794
11
4.2600337401574802
21
-3.6253914566929133
0
LINE
8
BLACK
6
CONTINUOUS
10
4.2600337401574802
20
-3.6253914566929133
11
4.2617087795275586
21
-3.6231539763779526
0
LINE
8
BLACK
6
CONTINUOUS
10
4.2617087795275586
20
-3.6231539763779526
11
4.2643277165354334
21
-3.6221771653543304
0
LINE
8
BLACK
6
CONTINUOUS
10
4.2643277165354334
20
-3.6221771653543304
11
4.2670589763779523
21
-3.6227713385826772
0
LINE
8
BLACK
6
CONTINUOUS
10
4.2670589763779523
20
-3.6227713385826772
11
4.269035433070866
21
-3.6247477952755904
0
LINE
8
BLACK
6
CONTINUOUS
10
4.269035433070866
20
-3.6247477952755904
11
4.269329212598425
21
-3.6253911023622045
0
LINE
8
BLACK
6
CONTINUOUS
10
4.269329212598425
20
-3.6253911023622045
11
4.270355236220472
21
-3.6281418897637794
0
LINE
8
BLACK
6
CONTINUOUS
10
4.270355236220472
20
-3.6281418897637794
11
4.2703552755905507
21
-3.6281419291338581
0
LINE
8
BLACK
6
CONTINUOUS
10
4.2703552755905507
20
-3.6281419291338581
11
4.2703553149606295
21
-3.6281420472440944
0
LINE
8
BLACK
6
CONTINUOUS
10
4.2703553149606295
20
-3.6281420472440944
11
4.2738051181102366
21
-3.632750433070866
0
LINE
8
BLACK
6
CONTINUOUS
10
4.2738051181102366
20
-3.632750433070866
11
4.2784135433070869
21
-3.6362002755905509
0
LINE
8
BLACK
6
CONTINUOUS
10
4.2784135433070869
20
-3.6362002755905509
11
4.2784136220472444
21
-3.6362003149606297
0
LINE
8
BLACK
6
CONTINUOUS
10
4.2784136220472444
20
-3.6362003149606297
11
4.2784137007874019
21
-3.6362003543307084
0
LINE
8
BLACK
6
CONTINUOUS
10
4.2784137007874019
20
-3.6362003543307084
11
4.280739645669291
21
-3.6370678740157478
0
LINE
8
BLACK
6
CONTINUOUS
10
4.280739645669291
20
-3.6370678740157478
11
4.2838073622047244
21
-3.6382121259842517
0
LINE
8
BLACK
6
CONTINUOUS
10
4.2838073622047244
20
-3.6382121259842517
11
4.2838076771653544
21
-3.6382122047244092
0
LINE
8
BLACK
6
CONTINUOUS
10
4.2838076771653544
20
-3.6382122047244092
11
4.2861914173228346
21
-3.638468464566929
0
LINE
8
BLACK
6
CONTINUOUS
10
4.2861914173228346
20
-3.638468464566929
11
4.2861916141732284
21
-3.638468464566929
0
LINE
8
BLACK
6
CONTINUOUS
10
4.2861916141732284
20
-3.638468464566929
11
4.2861918897637796
21
-3.6384685039370077
0
LINE
8
BLACK
6
CONTINUOUS
10
4.2861918897637796
20
-3.6384685039370077
11
4.2861921259842521
21
-3.6384685039370077
0
LINE
8
BLACK
6
CONTINUOUS
10
4.2861921259842521
20
-3.6384685039370077
11
4.4400214173228347
21
-3.6384685039370077
0
LINE
8
BLACK
6
CONTINUOUS
10
4.4400214173228347
20
-3.6384685039370077
11
4.4400216535433072
21
-3.6384685039370077
0
LINE
8
BLACK
6
CONTINUOUS
10
4.4400216535433072
20
-3.6384685039370077
11
4.4400219291338585
21
-3.638468464566929
0
LINE
8
BLACK
6
CONTINUOUS
10
4.4400219291338585
20
-3.638468464566929
11
4.4400220866141735
21
-3.638468464566929
0
LINE
8
BLACK
6
CONTINUOUS
10
4.4400220866141735
20
-3.638468464566929
11
4.4424058267716537
21
-3.6382122047244092
0
LINE
8
BLACK
6
CONTINUOUS
10
4.4424058267716537
20
-3.6382122047244092
11
4.44240594488189
21
-3.6382121653543305
0
LINE
8
BLACK
6
CONTINUOUS
10
4.44240594488189
20
-3.6382121653543305
11
4.4424060236220475
21
-3.6382121653543305
0
LINE
8
BLACK
6
CONTINUOUS
10
4.4424060236220475
20
-3.6382121653543305
11
4.447799842519685
21
-3.6362003543307084
0
LINE
8
BLACK
6
CONTINUOUS
10
4.447799842519685
20
-3.6362003543307084
11
4.4494033464566929
21
-3.6349999999999998
0
LINE
8
BLACK
6
CONTINUOUS
10
4.4494033464566929
20
-3.6349999999999998
11
4.4524083858267716
21
-3.632750433070866
0
LINE
8
BLACK
6
CONTINUOUS
10
4.4524083858267716
20
-3.632750433070866
11
4.4558582283464565
21
-3.6281420078740156
0
LINE
8
BLACK
6
CONTINUOUS
10
4.4558582283464565
20
-3.6281420078740156
11
4.4558582283464565
21
-3.6281419685039369
0
LINE
8
BLACK
6
CONTINUOUS
10
4.4558582283464565
20
-3.6281419685039369
11
4.455858307086614
21
-3.6281418897637794
0
LINE
8
BLACK
6
CONTINUOUS
10
4.455858307086614
20
-3.6281418897637794
11
4.457870118110236
21
-3.6227480708661415
0
LINE
8
BLACK
6
CONTINUOUS
10
4.457870118110236
20
-3.6227480708661415
11
4.4579434251968504
21
-3.6220664960629922
0
LINE
8
BLACK
6
CONTINUOUS
10
4.4579434251968504
20
-3.6220664960629922
11
4.4581264173228341
21
-3.6203641338582675
0
LINE
8
BLACK
6
CONTINUOUS
10
4.4581264173228341
20
-3.6203641338582675
11
4.4581264566929129
21
-3.6203634645669291
0
LINE
8
BLACK
6
CONTINUOUS
10
4.4581264566929129
20
-3.6203634645669291
11
4.4581264566929129
21
-3.5860166141732281
0
LINE
8
BLACK
6
CONTINUOUS
10
4.4581264566929129
20
-3.5860166141732281
11
4.4589139370078739
21
-3.5833346850393699
0
LINE
8
BLACK
6
CONTINUOUS
10
4.4589139370078739
20
-3.5833346850393699
11
4.4610263779527557
21
-3.5815042519685036
0
LINE
8
BLACK
6
CONTINUOUS
10
4.4610263779527557
20
-3.5815042519685036
11
4.4630825590551177
21
-3.5810559842519685
0
LINE
8
BLACK
6
CONTINUOUS
10
4.4630825590551177
20
-3.5810559842519685
11
4.6026457480314962
21
-3.5809309842519683
0
LINE
8
BLACK
6
CONTINUOUS
10
4.6026457480314962
20
-3.5809309842519683
11
4.6062261417322832
21
-3.5806081496062991
0
LINE
8
BLACK
6
CONTINUOUS
10
4.6062261417322832
20
-3.5806081496062991
11
4.6079551574803146
21
-3.5802953937007875
0
LINE
8
BLACK
6
CONTINUOUS
10
4.6079551574803146
20
-3.5802953937007875
11
4.6099634251968507
21
-3.5797439370078741
0
LINE
8
BLACK
6
CONTINUOUS
10
4.6099634251968507
20
-3.5797439370078741
11
4.6107874015748029
21
-3.5796328740157479
0
LINE
8
BLACK
6
CONTINUOUS
10
4.6107874015748029
20
-3.5796328740157479
11
4.6107874015748029
21
-3.5793700787401574
0
LINE
8
BLACK
6
CONTINUOUS
10
4.6107874015748029
20
-3.5793700787401574
11
4.7092125984251965
21
-3.5793700787401574
0
LINE
8
BLACK
6
CONTINUOUS
10
4.7092125984251965
20
-3.5793700787401574
11
4.7092125984251965
21
-3.5796190944881889
0
LINE
8
BLACK
6
CONTINUOUS
10
4.7092125984251965
20
-3.5796190944881889
11
4.7101362992125981
21
-3.5797434251968503
0
LINE
8
BLACK
6
CONTINUOUS
10
4.7101362992125981
20
-3.5797434251968503
11
4.7107742913385824
21
-3.5799183070866141
0
LINE
8
BLACK
6
CONTINUOUS
10
4.7107742913385824
20
-3.5799183070866141
11
4.7117874015748029
21
-3.5801960236220474
0
LINE
8
BLACK
6
CONTINUOUS
10
4.7117874015748029
20
-3.5801960236220474
11
4.713525433070866
21
-3.5805088188976377
0
LINE
8
BLACK
6
CONTINUOUS
10
4.713525433070866
20
-3.5805088188976377
11
4.7135256692913385
21
-3.5805088188976377
0
LINE
8
BLACK
6
CONTINUOUS
10
4.7135256692913385
20
-3.5805088188976377
11
4.7135257874015748
21
-3.5805088582677165
0
LINE
8
BLACK
6
CONTINUOUS
10
4.7135257874015748
20
-3.5805088582677165
11
4.7142987007874018
21
-3.5805774803149606
0
LINE
8
BLACK
6
CONTINUOUS
10
4.7142987007874018
20
-3.5805774803149606
11
4.7171244094488189
21
-3.5808284645669293
0
LINE
8
BLACK
6
CONTINUOUS
10
4.7171244094488189
20
-3.5808284645669293
11
4.7429826771653545
21
-3.5808053149606298
0
LINE
8
BLACK
6
CONTINUOUS
10
4.7429826771653545
20
-3.5808053149606298
11
4.746562992125984
21
-3.5804824803149606
0
LINE
8
BLACK
6
CONTINUOUS
10
4.746562992125984
20
-3.5804824803149606
11
4.7479645275590547
21
-3.5802289370078739
0
LINE
8
BLACK
6
CONTINUOUS
10
4.7479645275590547
20
-3.5802289370078739
11
4.7482916535433066
21
-3.5801698031496061
0
LINE
8
BLACK
6
CONTINUOUS
10
4.7482916535433066
20
-3.5801698031496061
11
4.7482916929133854
21
-3.5801697637795273
0
LINE
8
BLACK
6
CONTINUOUS
10
4.7482916929133854
20
-3.5801697637795273
11
4.7482920472440941
21
-3.5801697244094486
0
LINE
8
BLACK
6
CONTINUOUS
10
4.7482920472440941
20
-3.5801697244094486
11
4.7498426771653541
21
-3.5797439370078741
0
LINE
8
BLACK
6
CONTINUOUS
10
4.7498426771653541
20
-3.5797439370078741
11
4.7507874015748026
21
-3.5796166141732284
0
LINE
8
BLACK
6
CONTINUOUS
10
4.7507874015748026
20
-3.5796166141732284
11
4.7507874015748026
21
-3.5793700787401574
0
LINE
8
BLACK
6
CONTINUOUS
10
4.7507874015748026
20
-3.5793700787401574
11
4.849212598425197
21
-3.5793700787401574
0
LINE
8
BLACK
6
CONTINUOUS
10
4.849212598425197
20
-3.5793700787401574
11
4.849212598425197
21
-3.5796027952755907
0
LINE
8
BLACK
6
CONTINUOUS
10
4.849212598425197
20
-3.5796027952755907
11
4.8502571259842515
21
-3.5797433858267715
0
LINE
8
BLACK
6
CONTINUOUS
10
4.8502571259842515
20
-3.5797433858267715
11
4.8504493700787403
21
-3.5797960629921257
0
LINE
8
BLACK
6
CONTINUOUS
10
4.8504493700787403
20
-3.5797960629921257
11
4.8514523622047241
21
-3.5800709842519685
0
LINE
8
BLACK
6
CONTINUOUS
10
4.8514523622047241
20
-3.5800709842519685
11
4.8531902755905509
21
-3.5803837401574801
0
LINE
8
BLACK
6
CONTINUOUS
10
4.8531902755905509
20
-3.5803837401574801
11
4.8567890157480313
21
-3.5807033464566929
0
LINE
8
BLACK
6
CONTINUOUS
10
4.8567890157480313
20
-3.5807033464566929
11
4.8833196456692916
21
-3.5806796062992126
0
LINE
8
BLACK
6
CONTINUOUS
10
4.8833196456692916
20
-3.5806796062992126
11
4.886899645669291
21
-3.5803568503937009
0
LINE
8
BLACK
6
CONTINUOUS
10
4.886899645669291
20
-3.5803568503937009
11
4.8886286614173224
21
-3.5800441338582676
0
LINE
8
BLACK
6
CONTINUOUS
10
4.8886286614173224
20
-3.5800441338582676
11
4.8896788582677164
21
-3.5797557874015746
0
LINE
8
BLACK
6
CONTINUOUS
10
4.8896788582677164
20
-3.5797557874015746
11
4.8897218897637797
21
-3.5797439763779528
0
LINE
8
BLACK
6
CONTINUOUS
10
4.8897218897637797
20
-3.5797439763779528
11
4.8907874015748032
21
-3.5796003149606297
0
LINE
8
BLACK
6
CONTINUOUS
10
4.8907874015748032
20
-3.5796003149606297
11
4.8907874015748032
21
-3.5793700787401574
0
LINE
8
BLACK
6
CONTINUOUS
10
4.8907874015748032
20
-3.5793700787401574
11
4.9892125984251967
21
-3.5793700787401574
0
LINE
8
BLACK
6
CONTINUOUS
10
4.9892125984251967
20
-3.5793700787401574
11
4.9892125984251967
21
-3.5795865354330707
0
LINE
8
BLACK
6
CONTINUOUS
10
4.9892125984251967
20
-3.5795865354330707
11
4.9903781889763774
21
-3.5797434251968503
0
LINE
8
BLACK
6
CONTINUOUS
10
4.9903781889763774
20
-3.5797434251968503
11
4.9907718110236221
21
-3.5798512992125984
0
LINE
8
BLACK
6
CONTINUOUS
10
4.9907718110236221
20
-3.5798512992125984
11
4.9911166141732286
21
-3.5799458267716533
0
LINE
8
BLACK
6
CONTINUOUS
10
4.9911166141732286
20
-3.5799458267716533
11
4.9928546456692908
21
-3.5802586220472441
0
LINE
8
BLACK
6
CONTINUOUS
10
4.9928546456692908
20
-3.5802586220472441
11
4.9928548818897633
21
-3.5802586220472441
0
LINE
8
BLACK
6
CONTINUOUS
10
4.9928548818897633
20
-3.5802586220472441
11
4.9928549999999996
21
-3.5802586614173229
0
LINE
8
BLACK
6
CONTINUOUS
10
4.9928549999999996
20
-3.5802586614173229
11
4.9932462598425191
21
-3.5802933858267716
0
LINE
8
BLACK
6
CONTINUOUS
10
4.9932462598425191
20
-3.5802933858267716
11
4.9964536220472437
21
-3.5805782677165352
0
LINE
8
BLACK
6
CONTINUOUS
10
4.9964536220472437
20
-3.5805782677165352
11
5.0236567716535436
21
-3.5805538976377953
0
LINE
8
BLACK
6
CONTINUOUS
10
5.0236567716535436
20
-3.5805538976377953
11
5.0272368110236219
21
-3.5802311023622044
0
LINE
8
BLACK
6
CONTINUOUS
10
5.0272368110236219
20
-3.5802311023622044
11
5.0289657874015745
21
-3.5799183858267716
0
LINE
8
BLACK
6
CONTINUOUS
10
5.0289657874015745
20
-3.5799183858267716
11
5.0296009448818895
21
-3.5797439370078741
0
LINE
8
BLACK
6
CONTINUOUS
10
5.0296009448818895
20
-3.5797439370078741
11
5.0307874015748029
21
-3.5795840157480314
0
LINE
8
BLACK
6
CONTINUOUS
10
5.0307874015748029
20
-3.5795840157480314
11
5.0307874015748029
21
-3.5793700787401574
0
LINE
8
BLACK
6
CONTINUOUS
10
5.0307874015748029
20
-3.5793700787401574
11
5.1292125984251964
21
-3.5793700787401574
0
LINE
8
BLACK
6
CONTINUOUS
10
5.1292125984251964
20
-3.5793700787401574
11
5.1292125984251964
21
-3.5795702362204724
0
LINE
8
BLACK
6
CONTINUOUS
10
5.1292125984251964
20
-3.5795702362204724
11
5.1304991338582679
21
-3.5797433858267715
0
LINE
8
BLACK
6
CONTINUOUS
10
5.1304991338582679
20
-3.5797433858267715
11
5.1307819685039373
21
-3.5798209055118111
0
LINE
8
BLACK
6
CONTINUOUS
10
5.1307819685039373
20
-3.5798209055118111
11
5.1325196850393704
21
-3.5801335826771652
0
LINE
8
BLACK
6
CONTINUOUS
10
5.1325196850393704
20
-3.5801335826771652
11
5.132519763779527
21
-3.5801336220472439
0
LINE
8
BLACK
6
CONTINUOUS
10
5.132519763779527
20
-3.5801336220472439
11
5.1335717322834649
21
-3.5802270078740155
0
LINE
8
BLACK
6
CONTINUOUS
10
5.1335717322834649
20
-3.5802270078740155
11
5.1361182283464561
21
-3.5804531496062992
0
LINE
8
BLACK
6
CONTINUOUS
10
5.1361182283464561
20
-3.5804531496062992
11
5.1622052755905514
21
-3.5804297637795273
0
LINE
8
BLACK
6
CONTINUOUS
10
5.1622052755905514
20
-3.5804297637795273
11
5.164887874015748
21
-3.5812148425196848
0
LINE
8
BLACK
6
CONTINUOUS
10
5.164887874015748
20
-3.5812148425196848
11
5.1667201968503935
21
-3.5833256299212599
0
LINE
8
BLACK
6
CONTINUOUS
10
5.1667201968503935
20
-3.5833256299212599
11
5.1671418897637791
21
-3.5859205118110236
0
LINE
8
BLACK
6
CONTINUOUS
10
5.1671418897637791
20
-3.5859205118110236
11
5.1669685433070862
21
-3.587533149606299
0
LINE
8
BLACK
6
CONTINUOUS
10
5.1669685433070862
20
-3.587533149606299
11
5.1669685039370075
21
-3.5875341338582678
0
LINE
8
BLACK
6
CONTINUOUS
10
5.1669685039370075
20
-3.5875341338582678
11
5.1669685039370075
21
-3.6090806692913384
0
LINE
8
BLACK
6
CONTINUOUS
10
5.1669685039370075
20
-3.6090806692913384
11
5.1672247637795277
21
-3.6114644094488186
0
LINE
8
BLACK
6
CONTINUOUS
10
5.1672247637795277
20
-3.6114644094488186
11
5.1672248425196852
21
-3.6114647244094487
0
LINE
8
BLACK
6
CONTINUOUS
10
5.1672248425196852
20
-3.6114647244094487
11
5.1692366141732284
21
-3.6168583464566928
0
LINE
8
BLACK
6
CONTINUOUS
10
5.1692366141732284
20
-3.6168583464566928
11
5.1692366929133859
21
-3.6168585433070866
0
LINE
8
BLACK
6
CONTINUOUS
10
5.1692366929133859
20
-3.6168585433070866
11
5.1726865354330709
21
-3.6214669685039369
0
LINE
8
BLACK
6
CONTINUOUS
10
5.1726865354330709
20
-3.6214669685039369
11
5.1772949606299212
21
-3.6249168110236218
0
LINE
8
BLACK
6
CONTINUOUS
10
5.1772949606299212
20
-3.6249168110236218
11
5.1772950393700787
21
-3.6249168503937006
0
LINE
8
BLACK
6
CONTINUOUS
10
5.1772950393700787
20
-3.6249168503937006
11
5.1772951181102362
21
-3.6249168897637793
0
LINE
8
BLACK
6
CONTINUOUS
10
5.1772951181102362
20
-3.6249168897637793
11
5.1785677952755904
21
-3.6253915748031496
0
LINE
8
BLACK
6
CONTINUOUS
10
5.1785677952755904
20
-3.6253915748031496
11
5.1826887795275587
21
-3.6269286614173226
0
LINE
8
BLACK
6
CONTINUOUS
10
5.1826887795275587
20
-3.6269286614173226
11
5.1826890944881887
21
-3.6269287401574801
0
LINE
8
BLACK
6
CONTINUOUS
10
5.1826890944881887
20
-3.6269287401574801
11
5.1850728346456689
21
-3.6271849999999999
0
LINE
8
BLACK
6
CONTINUOUS
10
5.1850728346456689
20
-3.6271849999999999
11
5.1850730314960627
21
-3.6271849999999999
0
LINE
8
BLACK
6
CONTINUOUS
10
5.1850730314960627
20
-3.6271849999999999
11
5.185073307086614
21
-3.6271850393700786
0
LINE
8
BLACK
6
CONTINUOUS
10
5.185073307086614
20
-3.6271850393700786
11
5.1932974803149605
21
-3.6271850393700786
0
LINE
8
BLACK
6
CONTINUOUS
10
5.1932974803149605
20
-3.6271850393700786
11
5.1959794094488192
21
-3.6279725196850392
0
LINE
8
BLACK
6
CONTINUOUS
10
5.1959794094488192
20
-3.6279725196850392
11
5.1978098425196846
21
-3.630084960629921
0
LINE
8
BLACK
6
CONTINUOUS
10
5.1978098425196846
20
-3.630084960629921
11
5.1982268897637791
21
-3.6327009448818899
0
LINE
8
BLACK
6
CONTINUOUS
10
5.1982268897637791
20
-3.6327009448818899
11
5.197967874015748
21
-3.6349999999999998
0
LINE
8
BLACK
6
CONTINUOUS
10
5.197967874015748
20
-3.6349999999999998
11
5.1987709842519685
21
-3.6421278346456694
0
LINE
8
BLACK
6
CONTINUOUS
10
5.1987709842519685
20
-3.6421278346456694
11
5.1987709842519685
21
-3.6421279133858269
0
LINE
8
BLACK
6
CONTINUOUS
10
5.1987709842519685
20
-3.6421279133858269
11
5.1987710236220472
21
-3.6421279527559056
0
LINE
8
BLACK
6
CONTINUOUS
10
5.1987710236220472
20
-3.6421279527559056
11
5.2011400393700784
21
-3.6488982283464568
0
LINE
8
BLACK
6
CONTINUOUS
10
5.2011400393700784
20
-3.6488982283464568
11
5.2011400787401572
21
-3.6488983464566926
0
LINE
8
BLACK
6
CONTINUOUS
10
5.2011400787401572
20
-3.6488983464566926
11
5.2049561811023617
21
-3.6549716141732285
0
LINE
8
BLACK
6
CONTINUOUS
10
5.2049561811023617
20
-3.6549716141732285
11
5.2049562204724404
21
-3.6549716929133855
0
LINE
8
BLACK
6
CONTINUOUS
10
5.2049562204724404
20
-3.6549716929133855
11
5.2100282677165355
21
-3.6600437401574801
0
LINE
8
BLACK
6
CONTINUOUS
10
5.2100282677165355
20
-3.6600437401574801
11
5.210028346456693
21
-3.6600437795275589
0
LINE
8
BLACK
6
CONTINUOUS
10
5.210028346456693
20
-3.6600437795275589
11
5.2161016141732279
21
-3.6638598818897639
0
LINE
8
BLACK
6
CONTINUOUS
10
5.2161016141732279
20
-3.6638598818897639
11
5.2161016535433067
21
-3.6638598818897639
0
LINE
8
BLACK
6
CONTINUOUS
10
5.2161016535433067
20
-3.6638598818897639
11
5.2161017716535429
21
-3.6638599606299214
0
LINE
8
BLACK
6
CONTINUOUS
10
5.2161017716535429
20
-3.6638599606299214
11
5.2228721653543309
21
-3.6662290157480313
0
LINE
8
BLACK
6
CONTINUOUS
10
5.2228721653543309
20
-3.6662290157480313
11
5.2299999999999995
21
-3.6670321259842518
0
LINE
8
BLACK
6
CONTINUOUS
10
5.2299999999999995
20
-3.6670321259842518
11
5.2371278346456691
21
-3.6662290157480313
0
LINE
8
BLACK
6
CONTINUOUS
10
5.2371278346456691
20
-3.6662290157480313
11
5.2438982283464561
21
-3.6638599606299214
0
LINE
8
BLACK
6
CONTINUOUS
10
5.2438982283464561
20
-3.6638599606299214
11
5.2499716929133857
21
-3.6600437401574801
0
LINE
8
BLACK
6
CONTINUOUS
10
5.2499716929133857
20
-3.6600437401574801
11
5.2550437401574799
21
-3.6549716929133855
0
LINE
8
BLACK
6
CONTINUOUS
10
5.2550437401574799
20
-3.6549716929133855
11
5.2588599606299216
21
-3.6488982283464568
0
LINE
8
BLACK
6
CONTINUOUS
10
5.2588599606299216
20
-3.6488982283464568
11
5.2612290157480315
21
-3.6421278346456694
0
LINE
8
BLACK
6
CONTINUOUS
10
5.2612290157480315
20
-3.6421278346456694
11
5.262032125984252
21
-3.6349999999999998
0
LINE
8
BLACK
6
CONTINUOUS
10
5.262032125984252
20
-3.6349999999999998
11
5.2617730708661412
21
-3.6327009842519686
0
LINE
8
BLACK
6
CONTINUOUS
10
5.2617730708661412
20
-3.6327009842519686
11
5.2622553149606297
21
-3.6299478740157478
0
LINE
8
BLACK
6
CONTINUOUS
10
5.2622553149606297
20
-3.6299478740157478
11
5.2641494881889761
21
-3.6278924409448816
0
LINE
8
BLACK
6
CONTINUOUS
10
5.2641494881889761
20
-3.6278924409448816
11
5.2667025196850394
21
-3.6271850393700786
0
LINE
8
BLACK
6
CONTINUOUS
10
5.2667025196850394
20
-3.6271850393700786
11
5.2735485039370076
21
-3.6271850393700786
0
LINE
8
BLACK
6
CONTINUOUS
10
5.2735485039370076
20
-3.6271850393700786
11
5.2735487401574801
21
-3.6271850393700786
0
LINE
8
BLACK
6
CONTINUOUS
10
5.2735487401574801
20
-3.6271850393700786
11
5.2735490157480314
21
-3.6271849999999999
0
LINE
8
BLACK
6
CONTINUOUS
10
5.2735490157480314
20
-3.6271849999999999
11
5.2735491732283464
21
-3.6271849999999999
0
LINE
8
BLACK
6
CONTINUOUS
10
5.2735491732283464
20
-3.6271849999999999
11
5.2759329133858266
21
-3.6269287401574801
0
LINE
8
BLACK
6
CONTINUOUS
10
5.2759329133858266
20
-3.6269287401574801
11
5.2759330314960629
21
-3.6269287007874014
0
LINE
8
BLACK
6
CONTINUOUS
10
5.2759330314960629
20
-3.6269287007874014
11
5.2759331102362204
21
-3.6269287007874014
0
LINE
8
BLACK
6
CONTINUOUS
10
5.2759331102362204
20
-3.6269287007874014
11
5.2813269291338578
21
-3.6249168897637793
0
LINE
8
BLACK
6
CONTINUOUS
10
5.2813269291338578
20
-3.6249168897637793
11
5.2815528346456695
21
-3.6247477952755904
0
LINE
8
BLACK
6
CONTINUOUS
10
5.2815528346456695
20
-3.6247477952755904
11
5.2859354724409444
21
-3.6214669685039369
0
LINE
8
BLACK
6
CONTINUOUS
10
5.2859354724409444
20
-3.6214669685039369
11
5.2893853149606294
21
-3.6168585433070866
0
LINE
8
BLACK
6
CONTINUOUS
10
5.2893853149606294
20
-3.6168585433070866
11
5.2893853149606294
21
-3.6168585039370078
0
LINE
8
BLACK
6
CONTINUOUS
10
5.2893853149606294
20
-3.6168585039370078
11
5.2893853937007869
21
-3.6168584251968503
0
LINE
8
BLACK
6
CONTINUOUS
10
5.2893853937007869
20
-3.6168584251968503
11
5.2913972047244089
21
-3.6114646062992124
0
LINE
8
BLACK
6
CONTINUOUS
10
5.2913972047244089
20
-3.6114646062992124
11
5.2916535433070866
21
-3.6090802362204721
0
LINE
8
BLACK
6
CONTINUOUS
10
5.2916535433070866
20
-3.6090802362204721
11
5.2916535433070866
21
-3.587533937007874
0
LINE
8
BLACK
6
CONTINUOUS
10
5.2916535433070866
20
-3.587533937007874
11
5.2916534645669291
21
-3.587533149606299
0
LINE
8
BLACK
6
CONTINUOUS
10
5.2916534645669291
20
-3.587533149606299
11
5.2913972440944876
21
-3.5851497244094488
0
LINE
8
BLACK
6
CONTINUOUS
10
5.2913972440944876
20
-3.5851497244094488
11
5.291397165354331
21
-3.5851494094488188
0
LINE
8
BLACK
6
CONTINUOUS
10
5.291397165354331
20
-3.5851494094488188
11
5.2898237401574804
21
-3.5809309842519683
0
LINE
8
BLACK
6
CONTINUOUS
10
5.2898237401574804
20
-3.5809309842519683
11
5.2893853937007869
21
-3.5797557480314959
0
LINE
8
BLACK
6
CONTINUOUS
10
5.2893853937007869
20
-3.5797557480314959
11
5.2881713779527555
21
-3.5781340157480312
0
LINE
8
BLACK
6
CONTINUOUS
10
5.2881713779527555
20
-3.5781340157480312
11
5.2871946062992121
21
-3.5755151968503935
0
LINE
8
BLACK
6
CONTINUOUS
10
5.2871946062992121
20
-3.5755151968503935
11
5.2877887401574801
21
-3.572783897637795
0
LINE
8
BLACK
6
CONTINUOUS
10
5.2877887401574801
20
-3.572783897637795
11
5.2883935826771653
21
-3.5719127559055117
0
LINE
8
BLACK
6
CONTINUOUS
10
5.2883935826771653
20
-3.5719127559055117
11
5.2888822047244091
21
-3.5713488582677164
0
LINE
8
BLACK
6
CONTINUOUS
10
5.2888822047244091
20
-3.5713488582677164
11
5.2912197637795275
21
-3.5686511417322833
0
LINE
8
BLACK
6
CONTINUOUS
10
5.2912197637795275
20
-3.5686511417322833
11
5.2936101574803152
21
-3.563416929133858
0
LINE
8
BLACK
6
CONTINUOUS
10
5.2936101574803152
20
-3.563416929133858
11
5.2943976377952753
21
-3.5607349999999998
0
LINE
8
BLACK
6
CONTINUOUS
10
5.2943976377952753
20
-3.5607349999999998
11
5.2952165354330711
21
-3.5550393700787399
0
LINE
8
BLACK
6
CONTINUOUS
10
5.2952165354330711
20
-3.5550393700787399
11
5.2952165354330711
21
-3.4899606299212595
0
LINE
8
BLACK
6
CONTINUOUS
10
5.2952165354330711
20
-3.4899606299212595
11
5.294754566929134
21
-3.4856634251968504
0
LINE
8
BLACK
6
CONTINUOUS
10
5.294754566929134
20
-3.4856634251968504
11
5.2943062992125984
21
-3.4836027165354331
0
LINE
8
BLACK
6
CONTINUOUS
10
5.2943062992125984
20
-3.4836027165354331
11
5.2931122834645672
21
-3.4800153149606299
0
LINE
8
BLACK
6
CONTINUOUS
10
5.2931122834645672
20
-3.4800153149606299
11
5.2929413779527561
21
-3.4795017716535432
0
LINE
8
BLACK
6
CONTINUOUS
10
5.2929413779527561
20
-3.4795017716535432
11
5.2910542913385825
21
-3.4765653937007874
0
LINE
8
BLACK
6
CONTINUOUS
10
5.2910542913385825
20
-3.4765653937007874
11
5.2898303937007869
21
-3.4746609448818897
0
LINE
8
BLACK
6
CONTINUOUS
10
5.2898303937007869
20
-3.4746609448818897
11
5.2890757874015746
21
-3.4737900787401572
0
LINE
8
BLACK
6
CONTINUOUS
10
5.2890757874015746
20
-3.4737900787401572
11
5.2879146456692911
21
-3.4712475196850394
0
LINE
8
BLACK
6
CONTINUOUS
10
5.2879146456692911
20
-3.4712475196850394
11
5.2883124015748031
21
-3.4684808267716534
0
LINE
8
BLACK
6
CONTINUOUS
10
5.2883124015748031
20
-3.4684808267716534
11
5.2888534251968506
21
-3.4675690157480314
0
LINE
8
BLACK
6
CONTINUOUS
10
5.2888534251968506
20
-3.4675690157480314
11
5.2893853937007869
21
-3.4668584251968504
0
LINE
8
BLACK
6
CONTINUOUS
10
5.2893853937007869
20
-3.4668584251968504
11
5.2913972047244089
21
-3.4614646062992125
0
LINE
8
BLACK
6
CONTINUOUS
10
5.2913972047244089
20
-3.4614646062992125
11
5.2916535433070866
21
-3.4590802362204722
0
LINE
8
BLACK
6
CONTINUOUS
10
5.2916535433070866
20
-3.4590802362204722
11
5.2916535433070866
21
-3.4375339370078741
0
LINE
8
BLACK
6
CONTINUOUS
10
5.2916535433070866
20
-3.4375339370078741
11
5.2916535039370078
21
-3.4375334645669291
0
LINE
8
BLACK
6
CONTINUOUS
10
5.2916535039370078
20
-3.4375334645669291
11
5.2913972440944876
21
-3.4351497244094489
0
LINE
8
BLACK
6
CONTINUOUS
10
5.2913972440944876
20
-3.4351497244094489
11
5.291397165354331
21
-3.4351494094488189
0
LINE
8
BLACK
6
CONTINUOUS
10
5.291397165354331
20
-3.4351494094488189
11
5.2897826771653538
21
-3.4308208661417323
0
LINE
8
BLACK
6
CONTINUOUS
10
5.2897826771653538
20
-3.4308208661417323
11
5.2893853937007869
21
-3.429755748031496
0
LINE
8
BLACK
6
CONTINUOUS
10
5.2893853937007869
20
-3.429755748031496
11
5.2893853543307081
21
-3.4297556692913385
0
LINE
8
BLACK
6
CONTINUOUS
10
5.2893853543307081
20
-3.4297556692913385
11
5.2893853149606294
21
-3.429755590551181
0
LINE
8
BLACK
6
CONTINUOUS
10
5.2893853149606294
20
-3.429755590551181
11
5.2859354724409444
21
-3.4251471653543306
0
LINE
8
BLACK
6
CONTINUOUS
10
5.2859354724409444
20
-3.4251471653543306
11
5.2813270472440941
21
-3.4216973228346457
0
LINE
8
BLACK
6
CONTINUOUS
10
5.2813270472440941
20
-3.4216973228346457
11
5.2813268503937003
21
-3.4216972440944882
0
LINE
8
BLACK
6
CONTINUOUS
10
5.2813268503937003
20
-3.4216972440944882
11
5.2759332283464566
21
-3.4196854724409449
0
LINE
8
BLACK
6
CONTINUOUS
10
5.2759332283464566
20
-3.4196854724409449
11
5.2759329133858266
21
-3.4196853937007874
0
LINE
8
BLACK
6
CONTINUOUS
10
5.2759329133858266
20
-3.4196853937007874
11
5.2735491732283464
21
-3.4194291338582676
0
LINE
8
BLACK
6
CONTINUOUS
10
5.2735491732283464
20
-3.4194291338582676
11
5.2735487401574801
21
-3.4194291338582676
0
LINE
8
BLACK
6
CONTINUOUS
10
5.2735487401574801
20
-3.4194291338582676
11
5.2315820472440944
21
-3.4194291338582676
0
LINE
8
BLACK
6
CONTINUOUS
10
5.2315820472440944
20
-3.4194291338582676
11
5.2289001181102357
21
-3.4186416535433071
0
LINE
8
BLACK
6
CONTINUOUS
10
5.2289001181102357
20
-3.4186416535433071
11
5.2270696850393703
21
-3.4165292125984252
0
LINE
8
BLACK
6
CONTINUOUS
10
5.2270696850393703
20
-3.4165292125984252
11
5.2266718897637796
21
-3.4137625196850392
0
LINE
8
BLACK
6
CONTINUOUS
10
5.2266718897637796
20
-3.4137625196850392
11
5.2278330708661418
21
-3.4112200000000001
0
LINE
8
BLACK
6
CONTINUOUS
10
5.2278330708661418
20
-3.4112200000000001
11
5.2286090157480309
21
-3.4104974409448818
0
LINE
8
BLACK
6
CONTINUOUS
10
5.2286090157480309
20
-3.4104974409448818
11
5.2305220866141733
21
-3.4090653937007875
0
LINE
8
BLACK
6
CONTINUOUS
10
5.2305220866141733
20
-3.4090653937007875
11
5.2326906299212599
21
-3.4061685826771653
0
LINE
8
BLACK
6
CONTINUOUS
10
5.2326906299212599
20
-3.4061685826771653
11
5.2339719291338582
21
-3.4044569685039368
0
LINE
8
BLACK
6
CONTINUOUS
10
5.2339719291338582
20
-3.4044569685039368
11
5.2339719291338582
21
-3.404456929133858
0
LINE
8
BLACK
6
CONTINUOUS
10
5.2339719291338582
20
-3.404456929133858
11
5.2339720078740157
21
-3.4044568503937005
0
LINE
8
BLACK
6
CONTINUOUS
10
5.2339720078740157
20
-3.4044568503937005
11
5.2359838188976378
21
-3.399063031496063
0
LINE
8
BLACK
6
CONTINUOUS
10
5.2359838188976378
20
-3.399063031496063
11
5.2361576377952757
21
-3.3974464173228345
0
LINE
8
BLACK
6
CONTINUOUS
10
5.2361576377952757
20
-3.3974464173228345
11
5.2362401181102358
21
-3.3966790944881891
0
LINE
8
BLACK
6
CONTINUOUS
10
5.2362401181102358
20
-3.3966790944881891
11
5.2362401574803146
21
-3.3966784251968503
0
LINE
8
BLACK
6
CONTINUOUS
10
5.2362401574803146
20
-3.3966784251968503
11
5.2362401574803146
21
-3.3633215354330708
0
LINE
8
BLACK
6
CONTINUOUS
10
5.2362401574803146
20
-3.3633215354330708
11
5.2362401181102358
21
-3.3633208661417324
0
LINE
8
BLACK
6
CONTINUOUS
10
5.2362401181102358
20
-3.3633208661417324
11
5.2359838582677165
21
-3.3609371259842518
0
LINE
8
BLACK
6
CONTINUOUS
10
5.2359838582677165
20
-3.3609371259842518
11
5.235983779527559
21
-3.3609368110236222
0
LINE
8
BLACK
6
CONTINUOUS
10
5.235983779527559
20
-3.3609368110236222
11
5.2339720078740157
21
-3.355543188976378
0
LINE
8
BLACK
6
CONTINUOUS
10
5.2339720078740157
20
-3.355543188976378
11
5.2339719291338582
21
-3.3555429921259843
0
LINE
8
BLACK
6
CONTINUOUS
10
5.2339719291338582
20
-3.3555429921259843
11
5.2305220866141733
21
-3.3509345669291339
0
LINE
8
BLACK
6
CONTINUOUS
10
5.2305220866141733
20
-3.3509345669291339
11
5.2259136614173229
21
-3.3474847244094486
0
LINE
8
BLACK
6
CONTINUOUS
10
5.2259136614173229
20
-3.3474847244094486
11
5.2259134645669292
21
-3.347484645669291
0
LINE
8
BLACK
6
CONTINUOUS
10
5.2259134645669292
20
-3.347484645669291
11
5.2205198425196846
21
-3.3454728740157478
0
LINE
8
BLACK
6
CONTINUOUS
10
5.2205198425196846
20
-3.3454728740157478
11
5.2205195275590546
21
-3.3454727952755903
0
LINE
8
BLACK
6
CONTINUOUS
10
5.2205195275590546
20
-3.3454727952755903
11
5.2181357874015744
21
-3.345216535433071
0
LINE
8
BLACK
6
CONTINUOUS
10
5.2181357874015744
20
-3.345216535433071
11
5.218135354330709
21
-3.345216535433071
0
LINE
8
BLACK
6
CONTINUOUS
10
5.218135354330709
20
-3.345216535433071
11
5.1828095275590549
21
-3.345216535433071
0
LINE
8
BLACK
6
CONTINUOUS
10
5.1828095275590549
20
-3.345216535433071
11
5.1828090551181099
21
-3.345216535433071
0
LINE
8
BLACK
6
CONTINUOUS
10
5.1828090551181099
20
-3.345216535433071
11
5.1804253149606296
21
-3.3454727952755903
0
LINE
8
BLACK
6
CONTINUOUS
10
5.1804253149606296
20
-3.3454727952755903
11
5.1804249999999996
21
-3.3454728740157478
0
LINE
8
BLACK
6
CONTINUOUS
10
5.1804249999999996
20
-3.3454728740157478
11
5.1750313779527559
21
-3.347484645669291
0
LINE
8
BLACK
6
CONTINUOUS
10
5.1750313779527559
20
-3.347484645669291
11
5.1750311811023622
21
-3.3474847244094486
0
LINE
8
BLACK
6
CONTINUOUS
10
5.1750311811023622
20
-3.3474847244094486
11
5.1704227559055118
21
-3.3509345669291339
0
LINE
8
BLACK
6
CONTINUOUS
10
5.1704227559055118
20
-3.3509345669291339
11
5.1669729133858269
21
-3.3555429921259843
0
LINE
8
BLACK
6
CONTINUOUS
10
5.1669729133858269
20
-3.3555429921259843
11
5.1669728346456694
21
-3.355543188976378
0
LINE
8
BLACK
6
CONTINUOUS
10
5.1669728346456694
20
-3.355543188976378
11
5.1649610629921261
21
-3.3609368110236222
0
LINE
8
BLACK
6
CONTINUOUS
10
5.1649610629921261
20
-3.3609368110236222
11
5.1649609842519686
21
-3.3609371259842518
0
LINE
8
BLACK
6
CONTINUOUS
10
5.1649609842519686
20
-3.3609371259842518
11
5.1647047244094484
21
-3.3633208661417324
0
LINE
8
BLACK
6
CONTINUOUS
10
5.1647047244094484
20
-3.3633208661417324
11
5.1647047244094484
21
-3.3966790944881891
0
LINE
8
BLACK
6
CONTINUOUS
10
5.1647047244094484
20
-3.3966790944881891
11
5.1649609842519686
21
-3.3990628346456693
0
LINE
8
BLACK
6
CONTINUOUS
10
5.1649609842519686
20
-3.3990628346456693
11
5.1649610629921261
21
-3.3990631496062993
0
LINE
8
BLACK
6
CONTINUOUS
10
5.1649610629921261
20
-3.3990631496062993
11
5.1669728346456694
21
-3.4044567716535434
0
LINE
8
BLACK
6
CONTINUOUS
10
5.1669728346456694
20
-3.4044567716535434
11
5.1669729133858269
21
-3.4044569685039368
0
LINE
8
BLACK
6
CONTINUOUS
10
5.1669729133858269
20
-3.4044569685039368
11
5.1704227559055118
21
-3.4090653937007875
0
LINE
8
BLACK
6
CONTINUOUS
10
5.1704227559055118
20
-3.4090653937007875
11
5.1725594094488185
21
-3.4106648425196848
0
LINE
8
BLACK
6
CONTINUOUS
10
5.1725594094488185
20
-3.4106648425196848
11
5.1742344881889766
21
-3.4129024409448818
0
LINE
8
BLACK
6
CONTINUOUS
10
5.1742344881889766
20
-3.4129024409448818
11
5.1745472440944882
21
-3.4146360236220472
0
LINE
8
BLACK
6
CONTINUOUS
10
5.1745472440944882
20
-3.4146360236220472
11
5.1745472440944882
21
-3.4212711811023619
0
LINE
8
BLACK
6
CONTINUOUS
10
5.1745472440944882
20
-3.4212711811023619
11
5.1737597637795272
21
-3.4239531102362202
0
LINE
8
BLACK
6
CONTINUOUS
10
5.1737597637795272
20
-3.4239531102362202
11
5.1729085433070869
21
-3.4248674803149606
0
LINE
8
BLACK
6
CONTINUOUS
10
5.1729085433070869
20
-3.4248674803149606
11
5.1729374015748029
21
-3.4248963385826769
0
LINE
8
BLACK
6
CONTINUOUS
10
5.1729374015748029
20
-3.4248963385826769
11
5.1726866141732284
21
-3.4251470866141731
0
LINE
8
BLACK
6
CONTINUOUS
10
5.1726866141732284
20
-3.4251470866141731
11
5.1692366141732284
21
-3.429755748031496
0
LINE
8
BLACK
6
CONTINUOUS
10
5.1692366141732284
20
-3.429755748031496
11
5.1691687401574802
21
-3.4298800787401573
0
LINE
8
BLACK
6
CONTINUOUS
10
5.1691687401574802
20
-3.4298800787401573
11
5.1690685433070866
21
-3.4299802362204725
0
LINE
8
BLACK
6
CONTINUOUS
10
5.1690685433070866
20
-3.4299802362204725
11
5.1690240157480316
21
-3.4300397637795275
0
LINE
8
BLACK
6
CONTINUOUS
10
5.1690240157480316
20
-3.4300397637795275
11
5.1690154330708662
21
-3.430033346456693
0
LINE
8
BLACK
6
CONTINUOUS
10
5.1690154330708662
20
-3.430033346456693
11
5.1671922834645665
21
-3.4318565748031493
0
LINE
8
BLACK
6
CONTINUOUS
10
5.1671922834645665
20
-3.4318565748031493
11
5.1644610236220467
21
-3.4324507480314961
0
LINE
8
BLACK
6
CONTINUOUS
10
5.1644610236220467
20
-3.4324507480314961
11
5.1618421259842515
21
-3.4314739763779527
0
LINE
8
BLACK
6
CONTINUOUS
10
5.1618421259842515
20
-3.4314739763779527
11
5.1614220866141727
21
-3.4311217322834646
0
LINE
8
BLACK
6
CONTINUOUS
10
5.1614220866141727
20
-3.4311217322834646
11
5.1600976377952756
21
-3.4298800787401573
0
LINE
8
BLACK
6
CONTINUOUS
10
5.1600976377952756
20
-3.4298800787401573
11
5.1391222047244094
21
-3.4102155905511808
0
LINE
8
BLACK
6
CONTINUOUS
10
5.1391222047244094
20
-3.4102155905511808
11
5.1391221653543306
21
-3.4102155511811021
0
LINE
8
BLACK
6
CONTINUOUS
10
5.1391221653543306
20
-3.4102155511811021
11
5.1360755118110237
21
-3.4073593307086614
0
LINE
8
BLACK
6
CONTINUOUS
10
5.1360755118110237
20
-3.4073593307086614
11
5.1360752755905512
21
-3.4073590944881889
0
LINE
8
BLACK
6
CONTINUOUS
10
5.1360752755905512
20
-3.4073590944881889
11
5.1346845275590551
21
-3.4061688976377953
0
LINE
8
BLACK
6
CONTINUOUS
10
5.1346845275590551
20
-3.4061688976377953
11
5.1346840944881889
21
-3.4061685433070865
0
LINE
8
BLACK
6
CONTINUOUS
10
5.1346840944881889
20
-3.4061685433070865
11
5.1339771259842522
21
-3.4056169685039368
0
LINE
8
BLACK
6
CONTINUOUS
10
5.1339771259842522
20
-3.4056169685039368
11
5.1333519685039368
21
-3.4051732677165352
0
LINE
8
BLACK
6
CONTINUOUS
10
5.1333519685039368
20
-3.4051732677165352
11
5.1324838188976374
21
-3.4045570866141732
0
LINE
8
BLACK
6
CONTINUOUS
10
5.1324838188976374
20
-3.4045570866141732
11
5.1324836614173224
21
-3.404556968503937
0
LINE
8
BLACK
6
CONTINUOUS
10
5.1324836614173224
20
-3.404556968503937
11
5.1285159842519681
21
-3.402741377952756
0
LINE
8
BLACK
6
CONTINUOUS
10
5.1285159842519681
20
-3.402741377952756
11
5.1272514173228343
21
-3.4021627165354329
0
LINE
8
BLACK
6
CONTINUOUS
10
5.1272514173228343
20
-3.4021627165354329
11
5.127251299212598
21
-3.4021626771653541
0
LINE
8
BLACK
6
CONTINUOUS
10
5.127251299212598
20
-3.4021626771653541
11
5.1272513385826768
21
-3.4021626771653541
0
LINE
8
BLACK
6
CONTINUOUS
10
5.1272513385826768
20
-3.4021626771653541
11
5.1245698031496065
21
-3.4013731102362206
0
LINE
8
BLACK
6
CONTINUOUS
10
5.1245698031496065
20
-3.4013731102362206
11
5.1245699212598428
21
-3.4013731102362206
0
LINE
8
BLACK
6
CONTINUOUS
10
5.1245699212598428
20
-3.4013731102362206
11
5.1188748818897638
21
-3.4005499606299212
0
LINE
8
BLACK
6
CONTINUOUS
10
5.1188748818897638
20
-3.4005499606299212
11
4.1017989763779523
21
-3.3997922047244096
0
LINE
8
BLACK
6
CONTINUOUS
10
4.1017989763779523
20
-3.3997922047244096
11
4.0949792125984255
21
-3.3997871259842518
0
LINE
8
BLACK
6
CONTINUOUS
10
4.0949792125984255
20
-3.3997871259842518
11
4.0949791732283467
21
-3.3997871259842518
0
LINE
8
BLACK
6
CONTINUOUS
10
4.0949791732283467
20
-3.3997871259842518
11
4.0949788582677167
21
-3.3997871259842518
0
LINE
8
BLACK
6
CONTINUOUS
10
4.0949788582677167
20
-3.3997871259842518
11
4.0906740944881888
21
-3.4002475196850392
0
LINE
8
BLACK
6
CONTINUOUS
10
4.0906740944881888
20
-3.4002475196850392
11
4.0906739370078737
21
-3.400247559055118
0
LINE
8
BLACK
6
CONTINUOUS
10
4.0906739370078737
20
-3.400247559055118
11
4.0886098425196851
21
-3.4006957874015749
0
LINE
8
BLACK
6
CONTINUOUS
10
4.0886098425196851
20
-3.4006957874015749
11
4.0865736614173231
21
-3.4013731102362206
0
LINE
8
BLACK
6
CONTINUOUS
10
4.0865736614173231
20
-3.4013731102362206
11
4.0845016929133857
21
-3.4020623228346456
0
LINE
8
BLACK
6
CONTINUOUS
10
4.0845016929133857
20
-3.4020623228346456
11
4.0845016141732282
21
-3.4020623228346456
0
LINE
8
BLACK
6
CONTINUOUS
10
4.0845016141732282
20
-3.4020623228346456
11
4.0845016141732282
21
-3.4020623622047244
0
LINE
8
BLACK
6
CONTINUOUS
10
4.0845016141732282
20
-3.4020623622047244
11
4.0796610236220472
21
-3.4051731889763777
0
LINE
8
BLACK
6
CONTINUOUS
10
4.0796610236220472
20
-3.4051731889763777
11
4.0796608661417322
21
-3.4051733070866139
0
LINE
8
BLACK
6
CONTINUOUS
10
4.0796608661417322
20
-3.4051733070866139
11
4.0776495669291339
21
-3.4069161023622048
0
LINE
8
BLACK
6
CONTINUOUS
10
4.0776495669291339
20
-3.4069161023622048
11
4.0775622047244093
21
-3.4069877165354332
0
LINE
8
BLACK
6
CONTINUOUS
10
4.0775622047244093
20
-3.4069877165354332
11
4.0737802755905514
21
-3.4113524015748031
0
LINE
8
BLACK
6
CONTINUOUS
10
4.0737802755905514
20
-3.4113524015748031
11
4.0737801968503939
21
-3.4113525196850394
0
LINE
8
BLACK
6
CONTINUOUS
10
4.0737801968503939
20
-3.4113525196850394
11
4.0713898031496063
21
-3.4165867322834647
0
LINE
8
BLACK
6
CONTINUOUS
10
4.0713898031496063
20
-3.4165867322834647
11
4.0706024409448816
21
-3.4192683070866141
0
LINE
8
BLACK
6
CONTINUOUS
10
4.0706024409448816
20
-3.4192683070866141
11
4.070602362204724
21
-3.4192685826771654
0
LINE
8
BLACK
6
CONTINUOUS
10
4.070602362204724
20
-3.4192685826771654
11
4.070602362204724
21
-3.4192686614173229
0
LINE
8
BLACK
6
CONTINUOUS
10
4.070602362204724
20
-3.4192686614173229
11
4.0697932677165349
21
-3.4248963385826769
0
LINE
8
BLACK
6
CONTINUOUS
10
4.0697932677165349
20
-3.4248963385826769
11
4.0697834645669291
21
-3.424964409448819
0
LINE
8
BLACK
6
CONTINUOUS
10
4.0697834645669291
20
-3.424964409448819
11
4.0697834645669291
21
-3.5562085039370079
0
CIRCLE
8
BLACK
10
4.363106771653543
20
-3.5434488188976379
40
0.0068897637795276
0
CIRCLE
8
BLACK
10
4.1662563779527559
20
-3.5434488188976379
40
0.0068897637795276
0
CIRCLE
8
BLACK
10
4.363106771653543
20
-3.7402992125984249
40
0.0068897637795276
0
CIRCLE
8
BLACK
10
4.1662563779527559
20
-3.7402992125984249
40
0.0068897637795276
0
CIRCLE
8
BLACK
10
4.3628503937007874
20
-4.1340000000000003
40
0.0068897637795276
0
CIRCLE
8
BLACK
10
4.1659999999999995
20
-4.1340000000000003
40
0.0068897637795276
0
CIRCLE
8
BLACK
10
4.363106771653543
20
-3.9371496062992124
40
0.0068897637795276
0
CIRCLE
8
BLACK
10
4.1662563779527559
20
-3.9371496062992124
40
0.0068897637795276
0
CIRCLE
8
BLACK
10
5.3169094488188975
20
-3.5744881889763778
40
0.0068897637795276
0
CIRCLE
8
BLACK
10
5.3680905511811021
20
-3.5744881889763778
40
0.0068897637795276
0
CIRCLE
8
BLACK
10
5.3169094488188975
20
-3.5233070866141731
40
0.0068897637795276
0
CIRCLE
8
BLACK
10
5.3680905511811021
20
-3.5233070866141731
40
0.0068897637795276
0
CIRCLE
8
BLACK
10
5.3169094488188975
20
-3.4721259842519685
40
0.0068897637795276
0
CIRCLE
8
BLACK
10
5.3680905511811021
20
-3.4721259842519685
40
0.0068897637795276
0
CIRCLE
8
BLACK
10
4.
20
-4.6799999999999997
40
0.0068897637795276
0
CIRCLE
8
BLACK
10
5.7000000000000002
20
-3.
40
0.0068897637795276
0
CIRCLE
8
BLACK
10
5.7000000000000002
20
-4.6799999999999997
40
0.0068897637795276
0
CIRCLE
8
BLACK
10
4.
20
-3.
40
0.0068897637795276
0
CIRCLE
8
BLACK
10
5.3799999999999999
20
-3.2799999999999998
40
0.0059055118110236
0
CIRCLE
8
BLACK
10
4.9699999999999998
20
-3.8399999999999999
40
0.0059055118110236
0
CIRCLE
8
BLACK
10
5.3449999999999998
20
-3.3999999999999999
40
0.0059055118110236
0
CIRCLE
8
BLACK
10
4.9699999999999998
20
-3.8100000000000001
40
0.0059055118110236
0
CIRCLE
8
BLACK
10
5.3099999999999996
20
-3.3700000000000001
40
0.0059055118110236
0
CIRCLE
8
BLACK
10
5.3799999999999999
20
-3.3700000000000001
40
0.0059055118110236
0
CIRCLE
8
BLACK
10
5.3449999999999998
20
-3.3100000000000001
40
0.0059055118110236
0
CIRCLE
8
BLACK
10
5.3799993700787399
20
-3.3999999999999999
40
0.0059055118110236
0
CIRCLE
8
BLACK
10
4.932012244094488
20
-3.9849933858267717
40
0.0059055118110236
0
CIRCLE
8
BLACK
10
4.9299999999999997
20
-3.8399999999999999
40
0.0059055118110236
0
CIRCLE
8
BLACK
10
5.3799999999999999
20
-3.3099996062992125
40
0.0059055118110236
0
CIRCLE
8
BLACK
10
5.3799999999999999
20
-3.3399999999999999
40
0.0059055118110236
0
CIRCLE
8
BLACK
10
4.2000000000000002
20
-3.3599999999999999
40
0.0059055118110236
0
CIRCLE
8
BLACK
10
4.8003690157480312
20
-3.6478334645669293
40
0.0059055118110236
0
CIRCLE
8
BLACK
10
5.3099999999999996
20
-3.3399999999999999
40
0.0059055118110236
0
CIRCLE
8
BLACK
10
5.3099999999999996
20
-3.3100000000000001
40
0.0059055118110236
0
CIRCLE
8
BLACK
10
5.3449999999999998
20
-3.3399999999999999
40
0.0059055118110236
0
CIRCLE
8
BLACK
10
4.9397551968503937
20
-3.649863346456693
40
0.0059055118110236
0
CIRCLE
8
BLACK
10
4.8899999999999997
20
-3.7799999999999998
40
0.0059055118110236
0
CIRCLE
8
BLACK
10
4.8899999999999997
20
-3.8100000000000001
40
0.0059055118110236
0
CIRCLE
8
BLACK
10
5.3099999999999996
20
-3.2799999999999998
40
0.0059055118110236
0
CIRCLE
8
BLACK
10
4.8899999999999997
20
-3.8399999999999999
40
0.0059055118110236
0
CIRCLE
8
BLACK
10
5.3099999999999996
20
-3.25
40
0.0059055118110236
0
CIRCLE
8
BLACK
10
5.3449999999999998
20
-3.25
40
0.0059055118110236
0
CIRCLE
8
BLACK
10
4.9699999999999998
20
-3.7799999999999998
40
0.0059055118110236
0
CIRCLE
8
BLACK
10
4.6497312992125988
20
-3.9829101181102362
40
0.0059055118110236
0
CIRCLE
8
BLACK
10
5.3799999999999999
20
-3.25
40
0.0059055118110236
0
CIRCLE
8
BLACK
10
5.0715902755905509
20
-3.9829101181102362
40
0.0059055118110236
0
CIRCLE
8
BLACK
10
5.3449999999999998
20
-3.3700000000000001
40
0.0059055118110236
0
CIRCLE
8
BLACK
10
4.7913925590551179
20
-3.9839517716535431
40
0.0059055118110236
0
CIRCLE
8
BLACK
10
4.9299999999999997
20
-3.7799999999999998
40
0.0059055118110236
0
CIRCLE
8
BLACK
10
5.3449999999999998
20
-3.2799999999999998
40
0.0059055118110236
0
CIRCLE
8
BLACK
10
4.6609828740157475
20
-3.6525698818897636
40
0.0059055118110236
0
CIRCLE
8
BLACK
10
5.3099999999999996
20
-3.3999999999999999
40
0.0059055118110236
0
CIRCLE
8
BLACK
10
5.0784647244094483
20
-3.6485100787401574
40
0.0059055118110236
0
CIRCLE
8
BLACK
10
4.9299999999999997
20
-3.8100000000000001
40
0.0059055118110236
0
CIRCLE
8
BLACK
10
5.2299999999999995
20
-3.6349999999999998
40
0.0059055118110236
0
CIRCLE
8
BLACK
10
5.6099999999999994
20
-3.6349997637795273
40
0.0059055118110236
  0
ENDSEC
  0
EOF
