  0
SECTION
  2
HEADER
  9
$ANGBASE
  50
0.0
  9
$ANGDIR
  70
1
  9
$MEASUREMENT
  70
0
  0
ENDSEC
  0
SECTION
  2
TABLES
  0
TABLE
  2
LTYPE
  70
4
  0
LTYPE
  5
40F
  2
CONTINUOUS
  70
0
  3
Solid line
  72
65
  73
0
  40
0.0
  0
LTYPE
  5
410
  2
DASHDOT
 70
0
  3
Dash Dot ____ _ ____ _
 72
65
 73
4
 40
2.0
 49
1.25
 49
-0.25
 49
0.25
 49
-0.25
  0
LTYPE
  5
411
  2
DASHED
 70
0
  3
Dashed __ __ __ __ __
 72
65
 73
2
 40
0.75
 49
0.5
 49
-0.25
  0
LTYPE
  5
43B
  2
DOTTED
 70
0
  3
Dotted .  .  .  .
 72
65
 73
2
 40
0.2
 49
0.0
 49
-0.2
  0
ENDTAB
  0
TABLE
  2
STYLE
  70
4
  0
STYLE
  2
KICAD
  70
0
  40
0
  41
1
  42
1
  50
0
  71
0
  3
isocp.shx
  0
STYLE
  2
KICADB
  70
0
  40
0
  41
1
  42
1
  50
0
  71
0
  3
isocp.shx
  0
STYLE
  2
KICADI
  70
0
  40
0
  41
1
  42
1
  50
15
  71
0
  3
isocp.shx
  0
STYLE
  2
KICADBI
  70
0
  40
0
  41
1
  42
1
  50
15
  71
0
  3
isocp.shx
  0
ENDTAB
  0
TABLE
  2
LAYER
  70
1
  0
LAYER
  2
BLACK
  70
0
  62
7
  6
CONTINUOUS
  0
ENDTAB
  0
ENDSEC
  0
SECTION
  2
ENTITIES
0
LINE
8
BLACK
6
CONTINUOUS
10
5.8903835039370076
20
-2.807114842519685
11
5.8905127559055117
21
-2.8070920866141731
0
LINE
8
BLACK
6
CONTINUOUS
10
5.8905127559055117
20
-2.8070920866141731
11
5.8906263385826767
21
-2.8071576771653541
0
LINE
8
BLACK
6
CONTINUOUS
10
5.8906263385826767
20
-2.8071576771653541
11
5.8910099212598421
21
-2.8072253149606299
0
LINE
8
BLACK
6
CONTINUOUS
10
5.8910099212598421
20
-2.8072253149606299
11
5.8915975984251965
21
-2.8077184251968501
0
LINE
8
BLACK
6
CONTINUOUS
10
5.8915975984251965
20
-2.8077184251968501
11
5.8922619291338583
21
-2.8081020078740155
0
LINE
8
BLACK
6
CONTINUOUS
10
5.8922619291338583
20
-2.8081020078740155
11
5.8923530314960626
21
-2.8083523228346454
0
LINE
8
BLACK
6
CONTINUOUS
10
5.8923530314960626
20
-2.8083523228346454
11
5.8925571653543303
21
-2.808523622047244
0
LINE
8
BLACK
6
CONTINUOUS
10
5.8925571653543303
20
-2.808523622047244
11
5.8926903937007875
21
-2.8092791732283464
0
LINE
8
BLACK
6
CONTINUOUS
10
5.8926903937007875
20
-2.8092791732283464
11
5.8929527559055117
21
-2.8100000000000001
0
LINE
8
BLACK
6
CONTINUOUS
10
5.8929527559055117
20
-2.8100000000000001
11
5.8929527559055117
21
-4.8899999999999997
0
LINE
8
BLACK
6
CONTINUOUS
10
5.8929527559055117
20
-4.8899999999999997
11
5.892885118110236
21
-4.8903835039370076
0
LINE
8
BLACK
6
CONTINUOUS
10
5.892885118110236
20
-4.8903835039370076
11
5.8929079133858266
21
-4.8905127559055117
0
LINE
8
BLACK
6
CONTINUOUS
10
5.8929079133858266
20
-4.8905127559055117
11
5.8928422834645664
21
-4.8906263385826767
0
LINE
8
BLACK
6
CONTINUOUS
10
5.8928422834645664
20
-4.8906263385826767
11
5.8927746850393703
21
-4.8910099212598421
0
LINE
8
BLACK
6
CONTINUOUS
10
5.8927746850393703
20
-4.8910099212598421
11
5.8922815354330709
21
-4.8915975984251965
0
LINE
8
BLACK
6
CONTINUOUS
10
5.8922815354330709
20
-4.8915975984251965
11
5.8918979921259842
21
-4.8922619291338583
0
LINE
8
BLACK
6
CONTINUOUS
10
5.8918979921259842
20
-4.8922619291338583
11
5.8916476377952751
21
-4.8923530314960626
0
LINE
8
BLACK
6
CONTINUOUS
10
5.8916476377952751
20
-4.8923530314960626
11
5.8914763779527561
21
-4.8925571653543303
0
LINE
8
BLACK
6
CONTINUOUS
10
5.8914763779527561
20
-4.8925571653543303
11
5.890720787401575
21
-4.8926903937007875
0
LINE
8
BLACK
6
CONTINUOUS
10
5.890720787401575
20
-4.8926903937007875
11
5.8899999999999997
21
-4.8929527559055117
0
LINE
8
BLACK
6
CONTINUOUS
10
5.8899999999999997
20
-4.8929527559055117
11
3.8100000000000001
21
-4.8929527559055117
0
LINE
8
BLACK
6
CONTINUOUS
10
3.8100000000000001
20
-4.8929527559055117
11
3.8096164566929134
21
-4.892885118110236
0
LINE
8
BLACK
6
CONTINUOUS
10
3.8096164566929134
20
-4.892885118110236
11
3.809487244094488
21
-4.8929079133858266
0
LINE
8
BLACK
6
CONTINUOUS
10
3.809487244094488
20
-4.8929079133858266
11
3.8093736220472438
21
-4.8928422834645664
0
LINE
8
BLACK
6
CONTINUOUS
10
3.8093736220472438
20
-4.8928422834645664
11
3.8089900787401576
21
-4.8927746850393703
0
LINE
8
BLACK
6
CONTINUOUS
10
3.8089900787401576
20
-4.8927746850393703
11
3.8084023622047245
21
-4.8922815354330709
0
LINE
8
BLACK
6
CONTINUOUS
10
3.8084023622047245
20
-4.8922815354330709
11
3.8077380708661415
21
-4.8918979921259842
0
LINE
8
BLACK
6
CONTINUOUS
10
3.8077380708661415
20
-4.8918979921259842
11
3.8076469291338584
21
-4.8916476377952751
0
LINE
8
BLACK
6
CONTINUOUS
10
3.8076469291338584
20
-4.8916476377952751
11
3.807442834645669
21
-4.8914763779527561
0
LINE
8
BLACK
6
CONTINUOUS
10
3.807442834645669
20
-4.8914763779527561
11
3.8073095669291339
21
-4.890720787401575
0
LINE
8
BLACK
6
CONTINUOUS
10
3.8073095669291339
20
-4.890720787401575
11
3.807047244094488
21
-4.8899999999999997
0
LINE
8
BLACK
6
CONTINUOUS
10
3.807047244094488
20
-4.8899999999999997
11
3.807047244094488
21
-2.8100000000000001
0
LINE
8
BLACK
6
CONTINUOUS
10
3.807047244094488
20
-2.8100000000000001
11
3.807114842519685
21
-2.8096164566929134
0
LINE
8
BLACK
6
CONTINUOUS
10
3.807114842519685
20
-2.8096164566929134
11
3.8070920866141731
21
-2.809487244094488
0
LINE
8
BLACK
6
CONTINUOUS
10
3.8070920866141731
20
-2.809487244094488
11
3.8071576771653541
21
-2.8093736220472438
0
LINE
8
BLACK
6
CONTINUOUS
10
3.8071576771653541
20
-2.8093736220472438
11
3.8072253149606299
21
-2.8089900787401576
0
LINE
8
BLACK
6
CONTINUOUS
10
3.8072253149606299
20
-2.8089900787401576
11
3.8077184251968501
21
-2.8084023622047245
0
LINE
8
BLACK
6
CONTINUOUS
10
3.8077184251968501
20
-2.8084023622047245
11
3.8081020078740155
21
-2.8077380708661415
0
LINE
8
BLACK
6
CONTINUOUS
10
3.8081020078740155
20
-2.8077380708661415
11
3.8083523228346454
21
-2.8076469291338584
0
LINE
8
BLACK
6
CONTINUOUS
10
3.8083523228346454
20
-2.8076469291338584
11
3.808523622047244
21
-2.807442834645669
0
LINE
8
BLACK
6
CONTINUOUS
10
3.808523622047244
20
-2.807442834645669
11
3.8092791732283464
21
-2.8073095669291339
0
LINE
8
BLACK
6
CONTINUOUS
10
3.8092791732283464
20
-2.8073095669291339
11
3.8100000000000001
21
-2.807047244094488
0
LINE
8
BLACK
6
CONTINUOUS
10
3.8100000000000001
20
-2.807047244094488
11
5.8899999999999997
21
-2.807047244094488
0
LINE
8
BLACK
6
CONTINUOUS
10
5.8899999999999997
20
-2.807047244094488
11
5.8903835039370076
21
-2.807114842519685
0
LINE
8
BLACK
6
CONTINUOUS
10
3.8129527559055116
20
-2.8129527559055116
11
3.8129527559055116
21
-4.8870472440944877
0
LINE
8
BLACK
6
CONTINUOUS
10
3.8129527559055116
20
-4.8870472440944877
11
5.8870472440944877
21
-4.8870472440944877
0
LINE
8
BLACK
6
CONTINUOUS
10
5.8870472440944877
20
-4.8870472440944877
11
5.8870472440944877
21
-2.8129527559055116
0
LINE
8
BLACK
6
CONTINUOUS
10
5.8870472440944877
20
-2.8129527559055116
11
3.8129527559055116
21
-2.8129527559055116
  0
ENDSEC
  0
EOF
