  0
SECTION
  2
HEADER
  9
$ANGBASE
  50
0.0
  9
$ANGDIR
  70
1
  9
$MEASUREMENT
  70
0
  0
ENDSEC
  0
SECTION
  2
TABLES
  0
TABLE
  2
LTYPE
  70
4
  0
LTYPE
  5
40F
  2
CONTINUOUS
  70
0
  3
Solid line
  72
65
  73
0
  40
0.0
  0
LTYPE
  5
410
  2
DASHDOT
 70
0
  3
Dash Dot ____ _ ____ _
 72
65
 73
4
 40
2.0
 49
1.25
 49
-0.25
 49
0.25
 49
-0.25
  0
LTYPE
  5
411
  2
DASHED
 70
0
  3
Dashed __ __ __ __ __
 72
65
 73
2
 40
0.75
 49
0.5
 49
-0.25
  0
LTYPE
  5
43B
  2
DOTTED
 70
0
  3
Dotted .  .  .  .
 72
65
 73
2
 40
0.2
 49
0.0
 49
-0.2
  0
ENDTAB
  0
TABLE
  2
STYLE
  70
4
  0
STYLE
  2
KICAD
  70
0
  40
0
  41
1
  42
1
  50
0
  71
0
  3
isocp.shx
  0
STYLE
  2
KICADB
  70
0
  40
0
  41
1
  42
1
  50
0
  71
0
  3
isocp.shx
  0
STYLE
  2
KICADI
  70
0
  40
0
  41
1
  42
1
  50
15
  71
0
  3
isocp.shx
  0
STYLE
  2
KICADBI
  70
0
  40
0
  41
1
  42
1
  50
15
  71
0
  3
isocp.shx
  0
ENDTAB
  0
TABLE
  2
LAYER
  70
1
  0
LAYER
  2
BLACK
  70
0
  62
7
  6
CONTINUOUS
  0
ENDTAB
  0
ENDSEC
  0
SECTION
  2
ENTITIES
0
LINE
8
BLACK
6
CONTINUOUS
10
4.0208596850393699
20
-4.5527615354330706
11
4.0344942913385822
21
-4.5557627559055121
0
LINE
8
BLACK
6
CONTINUOUS
10
4.0344942913385822
20
-4.5557627559055121
11
4.047724488188976
21
-4.5602205118110239
0
LINE
8
BLACK
6
CONTINUOUS
10
4.047724488188976
20
-4.5602205118110239
11
4.0603951968503935
21
-4.5660825984251971
0
LINE
8
BLACK
6
CONTINUOUS
10
4.0603951968503935
20
-4.5660825984251971
11
4.0723577952755905
21
-4.5732802755905508
0
LINE
8
BLACK
6
CONTINUOUS
10
4.0723577952755905
20
-4.5732802755905508
11
4.0834720472440944
21
-4.581729094488189
0
LINE
8
BLACK
6
CONTINUOUS
10
4.0834720472440944
20
-4.581729094488189
11
4.0936076771653545
21
-4.5913300787401576
0
LINE
8
BLACK
6
CONTINUOUS
10
4.0936076771653545
20
-4.5913300787401576
11
4.1026458661417324
21
-4.6019706299212597
0
LINE
8
BLACK
6
CONTINUOUS
10
4.1026458661417324
20
-4.6019706299212597
11
4.1104805905511812
21
-4.6135260236220468
0
LINE
8
BLACK
6
CONTINUOUS
10
4.1104805905511812
20
-4.6135260236220468
11
4.1170200393700789
21
-4.6258607480314957
0
LINE
8
BLACK
6
CONTINUOUS
10
4.1170200393700789
20
-4.6258607480314957
11
4.122187559055118
21
-4.6388301968503933
0
LINE
8
BLACK
6
CONTINUOUS
10
4.122187559055118
20
-4.6388301968503933
11
4.1259225196850391
21
-4.6522823622047245
0
LINE
8
BLACK
6
CONTINUOUS
10
4.1259225196850391
20
-4.6522823622047245
11
4.1281811811023621
21
-4.6660594488188973
0
LINE
8
BLACK
6
CONTINUOUS
10
4.1281811811023621
20
-4.6660594488188973
11
4.1289370078740157
21
-4.6799999999999997
0
LINE
8
BLACK
6
CONTINUOUS
10
4.1289370078740157
20
-4.6799999999999997
11
4.1281811811023621
21
-4.6939405511811021
0
LINE
8
BLACK
6
CONTINUOUS
10
4.1281811811023621
20
-4.6939405511811021
11
4.1259225196850391
21
-4.7077176377952759
0
LINE
8
BLACK
6
CONTINUOUS
10
4.1259225196850391
20
-4.7077176377952759
11
4.122187559055118
21
-4.7211698031496061
0
LINE
8
BLACK
6
CONTINUOUS
10
4.122187559055118
20
-4.7211698031496061
11
4.1170200393700789
21
-4.7341392519685037
0
LINE
8
BLACK
6
CONTINUOUS
10
4.1170200393700789
20
-4.7341392519685037
11
4.1104805905511812
21
-4.7464739763779527
0
LINE
8
BLACK
6
CONTINUOUS
10
4.1104805905511812
20
-4.7464739763779527
11
4.1026458661417324
21
-4.7580293700787397
0
LINE
8
BLACK
6
CONTINUOUS
10
4.1026458661417324
20
-4.7580293700787397
11
4.0936076771653545
21
-4.7686699212598427
0
LINE
8
BLACK
6
CONTINUOUS
10
4.0936076771653545
20
-4.7686699212598427
11
4.0834720472440944
21
-4.7782709055118113
0
LINE
8
BLACK
6
CONTINUOUS
10
4.0834720472440944
20
-4.7782709055118113
11
4.0723577952755905
21
-4.7867197244094486
0
LINE
8
BLACK
6
CONTINUOUS
10
4.0723577952755905
20
-4.7867197244094486
11
4.0603951968503935
21
-4.7939174015748032
0
LINE
8
BLACK
6
CONTINUOUS
10
4.0603951968503935
20
-4.7939174015748032
11
4.047724488188976
21
-4.7997794881889764
0
LINE
8
BLACK
6
CONTINUOUS
10
4.047724488188976
20
-4.7997794881889764
11
4.0344942913385822
21
-4.8042372440944883
0
LINE
8
BLACK
6
CONTINUOUS
10
4.0344942913385822
20
-4.8042372440944883
11
4.0208596850393699
21
-4.8072384645669288
0
LINE
8
BLACK
6
CONTINUOUS
10
4.0208596850393699
20
-4.8072384645669288
11
4.0069805118110233
21
-4.8087479133858269
0
LINE
8
BLACK
6
CONTINUOUS
10
4.0069805118110233
20
-4.8087479133858269
11
3.9930194881889762
21
-4.8087479133858269
0
LINE
8
BLACK
6
CONTINUOUS
10
3.9930194881889762
20
-4.8087479133858269
11
3.9791403149606297
21
-4.8072384645669288
0
LINE
8
BLACK
6
CONTINUOUS
10
3.9791403149606297
20
-4.8072384645669288
11
3.9655057086614174
21
-4.8042372440944883
0
LINE
8
BLACK
6
CONTINUOUS
10
3.9655057086614174
20
-4.8042372440944883
11
3.9522755118110235
21
-4.7997794881889764
0
LINE
8
BLACK
6
CONTINUOUS
10
3.9522755118110235
20
-4.7997794881889764
11
3.939604803149606
21
-4.7939174015748032
0
LINE
8
BLACK
6
CONTINUOUS
10
3.939604803149606
20
-4.7939174015748032
11
3.9276422047244095
21
-4.7867197244094486
0
LINE
8
BLACK
6
CONTINUOUS
10
3.9276422047244095
20
-4.7867197244094486
11
3.9165279527559056
21
-4.7782709055118113
0
LINE
8
BLACK
6
CONTINUOUS
10
3.9165279527559056
20
-4.7782709055118113
11
3.9063923228346455
21
-4.7686699212598427
0
LINE
8
BLACK
6
CONTINUOUS
10
3.9063923228346455
20
-4.7686699212598427
11
3.8973541338582676
21
-4.7580293700787397
0
LINE
8
BLACK
6
CONTINUOUS
10
3.8973541338582676
20
-4.7580293700787397
11
3.8895194094488188
21
-4.7464739763779527
0
LINE
8
BLACK
6
CONTINUOUS
10
3.8895194094488188
20
-4.7464739763779527
11
3.8829799606299211
21
-4.7341392519685037
0
LINE
8
BLACK
6
CONTINUOUS
10
3.8829799606299211
20
-4.7341392519685037
11
3.877812440944882
21
-4.7211698031496061
0
LINE
8
BLACK
6
CONTINUOUS
10
3.877812440944882
20
-4.7211698031496061
11
3.8740774803149605
21
-4.7077176377952759
0
LINE
8
BLACK
6
CONTINUOUS
10
3.8740774803149605
20
-4.7077176377952759
11
3.8718188188976379
21
-4.6939405511811021
0
LINE
8
BLACK
6
CONTINUOUS
10
3.8718188188976379
20
-4.6939405511811021
11
3.8710629921259843
21
-4.6799999999999997
0
LINE
8
BLACK
6
CONTINUOUS
10
3.8710629921259843
20
-4.6799999999999997
11
3.8718188188976379
21
-4.6660594488188973
0
LINE
8
BLACK
6
CONTINUOUS
10
3.8718188188976379
20
-4.6660594488188973
11
3.8740774803149605
21
-4.6522823622047245
0
LINE
8
BLACK
6
CONTINUOUS
10
3.8740774803149605
20
-4.6522823622047245
11
3.877812440944882
21
-4.6388301968503933
0
LINE
8
BLACK
6
CONTINUOUS
10
3.877812440944882
20
-4.6388301968503933
11
3.8829799606299211
21
-4.6258607480314957
0
LINE
8
BLACK
6
CONTINUOUS
10
3.8829799606299211
20
-4.6258607480314957
11
3.8895194094488188
21
-4.6135260236220468
0
LINE
8
BLACK
6
CONTINUOUS
10
3.8895194094488188
20
-4.6135260236220468
11
3.8973541338582676
21
-4.6019706299212597
0
LINE
8
BLACK
6
CONTINUOUS
10
3.8973541338582676
20
-4.6019706299212597
11
3.9063923228346455
21
-4.5913300787401576
0
LINE
8
BLACK
6
CONTINUOUS
10
3.9063923228346455
20
-4.5913300787401576
11
3.9165279527559056
21
-4.581729094488189
0
LINE
8
BLACK
6
CONTINUOUS
10
3.9165279527559056
20
-4.581729094488189
11
3.9276422047244095
21
-4.5732802755905508
0
LINE
8
BLACK
6
CONTINUOUS
10
3.9276422047244095
20
-4.5732802755905508
11
3.939604803149606
21
-4.5660825984251971
0
LINE
8
BLACK
6
CONTINUOUS
10
3.939604803149606
20
-4.5660825984251971
11
3.9522755118110235
21
-4.5602205118110239
0
LINE
8
BLACK
6
CONTINUOUS
10
3.9522755118110235
20
-4.5602205118110239
11
3.9655057086614174
21
-4.5557627559055121
0
LINE
8
BLACK
6
CONTINUOUS
10
3.9655057086614174
20
-4.5557627559055121
11
3.9791403149606297
21
-4.5527615354330706
0
LINE
8
BLACK
6
CONTINUOUS
10
3.9791403149606297
20
-4.5527615354330706
11
3.9930194881889762
21
-4.5512520866141735
0
LINE
8
BLACK
6
CONTINUOUS
10
3.9930194881889762
20
-4.5512520866141735
11
4.0069805118110233
21
-4.5512520866141735
0
LINE
8
BLACK
6
CONTINUOUS
10
4.0069805118110233
20
-4.5512520866141735
11
4.0208596850393699
21
-4.5527615354330706
0
LINE
8
BLACK
6
CONTINUOUS
10
3.8775494488188977
20
-4.6937968503937011
11
3.8798641732283463
21
-4.7074202362204725
0
LINE
8
BLACK
6
CONTINUOUS
10
3.8798641732283463
20
-4.7074202362204725
11
3.8836896456692913
21
-4.7206987401574798
0
LINE
8
BLACK
6
CONTINUOUS
10
3.8836896456692913
20
-4.7206987401574798
11
3.8889777952755904
21
-4.7334654724409448
0
LINE
8
BLACK
6
CONTINUOUS
10
3.8889777952755904
20
-4.7334654724409448
11
3.8956621259842521
21
-4.7455598425196852
0
LINE
8
BLACK
6
CONTINUOUS
10
3.8956621259842521
20
-4.7455598425196852
11
3.9036585433070865
21
-4.7568297637795274
0
LINE
8
BLACK
6
CONTINUOUS
10
3.9036585433070865
20
-4.7568297637795274
11
3.9128665354330709
21
-4.7671334645669292
0
LINE
8
BLACK
6
CONTINUOUS
10
3.9128665354330709
20
-4.7671334645669292
11
3.9231702362204723
21
-4.7763414566929132
0
LINE
8
BLACK
6
CONTINUOUS
10
3.9231702362204723
20
-4.7763414566929132
11
3.9344401574803149
21
-4.7843378740157476
0
LINE
8
BLACK
6
CONTINUOUS
10
3.9344401574803149
20
-4.7843378740157476
11
3.9465345275590549
21
-4.7910222047244098
0
LINE
8
BLACK
6
CONTINUOUS
10
3.9465345275590549
20
-4.7910222047244098
11
3.9593012598425195
21
-4.7963103543307088
0
LINE
8
BLACK
6
CONTINUOUS
10
3.9593012598425195
20
-4.7963103543307088
11
3.9725797637795273
21
-4.8001358267716538
0
LINE
8
BLACK
6
CONTINUOUS
10
3.9725797637795273
20
-4.8001358267716538
11
3.9862031496062991
21
-4.802450551181102
0
LINE
8
BLACK
6
CONTINUOUS
10
3.9862031496062991
20
-4.802450551181102
11
4.
21
-4.8032253543307082
0
LINE
8
BLACK
6
CONTINUOUS
10
4.
20
-4.8032253543307082
11
4.0137968503937005
21
-4.802450551181102
0
LINE
8
BLACK
6
CONTINUOUS
10
4.0137968503937005
20
-4.802450551181102
11
4.0274202362204727
21
-4.8001358267716538
0
LINE
8
BLACK
6
CONTINUOUS
10
4.0274202362204727
20
-4.8001358267716538
11
4.0406987401574801
21
-4.7963103543307088
0
LINE
8
BLACK
6
CONTINUOUS
10
4.0406987401574801
20
-4.7963103543307088
11
4.0534654724409451
21
-4.7910222047244098
0
LINE
8
BLACK
6
CONTINUOUS
10
4.0534654724409451
20
-4.7910222047244098
11
4.0655598425196846
21
-4.7843378740157476
0
LINE
8
BLACK
6
CONTINUOUS
10
4.0655598425196846
20
-4.7843378740157476
11
4.0768297637795277
21
-4.7763414566929132
0
LINE
8
BLACK
6
CONTINUOUS
10
4.0768297637795277
20
-4.7763414566929132
11
4.0871334645669286
21
-4.7671334645669292
0
LINE
8
BLACK
6
CONTINUOUS
10
4.0871334645669286
20
-4.7671334645669292
11
4.0963414566929135
21
-4.7568297637795274
0
LINE
8
BLACK
6
CONTINUOUS
10
4.0963414566929135
20
-4.7568297637795274
11
4.1043378740157479
21
-4.7455598425196852
0
LINE
8
BLACK
6
CONTINUOUS
10
4.1043378740157479
20
-4.7455598425196852
11
4.1110222047244092
21
-4.7334654724409448
0
LINE
8
BLACK
6
CONTINUOUS
10
4.1110222047244092
20
-4.7334654724409448
11
4.1163103543307082
21
-4.7206987401574798
0
LINE
8
BLACK
6
CONTINUOUS
10
4.1163103543307082
20
-4.7206987401574798
11
4.1201358267716532
21
-4.7074202362204725
0
LINE
8
BLACK
6
CONTINUOUS
10
4.1201358267716532
20
-4.7074202362204725
11
4.1224505511811023
21
-4.6937968503937011
0
LINE
8
BLACK
6
CONTINUOUS
10
4.1224505511811023
20
-4.6937968503937011
11
4.1232253543307085
21
-4.6799999999999997
0
LINE
8
BLACK
6
CONTINUOUS
10
4.1232253543307085
20
-4.6799999999999997
11
4.1224505511811023
21
-4.6662031496062992
0
LINE
8
BLACK
6
CONTINUOUS
10
4.1224505511811023
20
-4.6662031496062992
11
4.1201358267716532
21
-4.6525797637795279
0
LINE
8
BLACK
6
CONTINUOUS
10
4.1201358267716532
20
-4.6525797637795279
11
4.1163103543307082
21
-4.6393012598425196
0
LINE
8
BLACK
6
CONTINUOUS
10
4.1163103543307082
20
-4.6393012598425196
11
4.1110222047244092
21
-4.6265345275590546
0
LINE
8
BLACK
6
CONTINUOUS
10
4.1110222047244092
20
-4.6265345275590546
11
4.1043378740157479
21
-4.6144401574803151
0
LINE
8
BLACK
6
CONTINUOUS
10
4.1043378740157479
20
-4.6144401574803151
11
4.0963414566929135
21
-4.6031702362204721
0
LINE
8
BLACK
6
CONTINUOUS
10
4.0963414566929135
20
-4.6031702362204721
11
4.0871334645669286
21
-4.5928665354330711
0
LINE
8
BLACK
6
CONTINUOUS
10
4.0871334645669286
20
-4.5928665354330711
11
4.0768297637795277
21
-4.5836585433070862
0
LINE
8
BLACK
6
CONTINUOUS
10
4.0768297637795277
20
-4.5836585433070862
11
4.0655598425196846
21
-4.5756621259842518
0
LINE
8
BLACK
6
CONTINUOUS
10
4.0655598425196846
20
-4.5756621259842518
11
4.0534654724409451
21
-4.5689777952755906
0
LINE
8
BLACK
6
CONTINUOUS
10
4.0534654724409451
20
-4.5689777952755906
11
4.0406987401574801
21
-4.5636896456692915
0
LINE
8
BLACK
6
CONTINUOUS
10
4.0406987401574801
20
-4.5636896456692915
11
4.0274202362204727
21
-4.5598641732283465
0
LINE
8
BLACK
6
CONTINUOUS
10
4.0274202362204727
20
-4.5598641732283465
11
4.0137968503937005
21
-4.5575494488188975
0
LINE
8
BLACK
6
CONTINUOUS
10
4.0137968503937005
20
-4.5575494488188975
11
4.
21
-4.5567746456692912
0
LINE
8
BLACK
6
CONTINUOUS
10
4.
20
-4.5567746456692912
11
3.9862031496062991
21
-4.5575494488188975
0
LINE
8
BLACK
6
CONTINUOUS
10
3.9862031496062991
20
-4.5575494488188975
11
3.9725797637795273
21
-4.5598641732283465
0
LINE
8
BLACK
6
CONTINUOUS
10
3.9725797637795273
20
-4.5598641732283465
11
3.9593012598425195
21
-4.5636896456692915
0
LINE
8
BLACK
6
CONTINUOUS
10
3.9593012598425195
20
-4.5636896456692915
11
3.9465345275590549
21
-4.5689777952755906
0
LINE
8
BLACK
6
CONTINUOUS
10
3.9465345275590549
20
-4.5689777952755906
11
3.9344401574803149
21
-4.5756621259842518
0
LINE
8
BLACK
6
CONTINUOUS
10
3.9344401574803149
20
-4.5756621259842518
11
3.9231702362204723
21
-4.5836585433070862
0
LINE
8
BLACK
6
CONTINUOUS
10
3.9231702362204723
20
-4.5836585433070862
11
3.9128665354330709
21
-4.5928665354330711
0
LINE
8
BLACK
6
CONTINUOUS
10
3.9128665354330709
20
-4.5928665354330711
11
3.9036585433070865
21
-4.6031702362204721
0
LINE
8
BLACK
6
CONTINUOUS
10
3.9036585433070865
20
-4.6031702362204721
11
3.8956621259842521
21
-4.6144401574803151
0
LINE
8
BLACK
6
CONTINUOUS
10
3.8956621259842521
20
-4.6144401574803151
11
3.8889777952755904
21
-4.6265345275590546
0
LINE
8
BLACK
6
CONTINUOUS
10
3.8889777952755904
20
-4.6265345275590546
11
3.8836896456692913
21
-4.6393012598425196
0
LINE
8
BLACK
6
CONTINUOUS
10
3.8836896456692913
20
-4.6393012598425196
11
3.8798641732283463
21
-4.6525797637795279
0
LINE
8
BLACK
6
CONTINUOUS
10
3.8798641732283463
20
-4.6525797637795279
11
3.8775494488188977
21
-4.6662031496062992
0
LINE
8
BLACK
6
CONTINUOUS
10
3.8775494488188977
20
-4.6662031496062992
11
3.8767746456692911
21
-4.6799999999999997
0
LINE
8
BLACK
6
CONTINUOUS
10
3.8767746456692911
20
-4.6799999999999997
11
3.8775494488188977
21
-4.6937968503937011
0
LINE
8
BLACK
6
CONTINUOUS
10
5.72085968503937
20
-4.5527615354330706
11
5.7344942913385824
21
-4.5557627559055121
0
LINE
8
BLACK
6
CONTINUOUS
10
5.7344942913385824
20
-4.5557627559055121
11
5.7477244881889762
21
-4.5602205118110239
0
LINE
8
BLACK
6
CONTINUOUS
10
5.7477244881889762
20
-4.5602205118110239
11
5.7603951968503937
21
-4.5660825984251971
0
LINE
8
BLACK
6
CONTINUOUS
10
5.7603951968503937
20
-4.5660825984251971
11
5.7723577952755907
21
-4.5732802755905508
0
LINE
8
BLACK
6
CONTINUOUS
10
5.7723577952755907
20
-4.5732802755905508
11
5.7834720472440946
21
-4.581729094488189
0
LINE
8
BLACK
6
CONTINUOUS
10
5.7834720472440946
20
-4.581729094488189
11
5.7936076771653546
21
-4.5913300787401576
0
LINE
8
BLACK
6
CONTINUOUS
10
5.7936076771653546
20
-4.5913300787401576
11
5.8026458661417317
21
-4.6019706299212597
0
LINE
8
BLACK
6
CONTINUOUS
10
5.8026458661417317
20
-4.6019706299212597
11
5.8104805905511814
21
-4.6135260236220468
0
LINE
8
BLACK
6
CONTINUOUS
10
5.8104805905511814
20
-4.6135260236220468
11
5.8170200393700782
21
-4.6258607480314957
0
LINE
8
BLACK
6
CONTINUOUS
10
5.8170200393700782
20
-4.6258607480314957
11
5.8221875590551182
21
-4.6388301968503933
0
LINE
8
BLACK
6
CONTINUOUS
10
5.8221875590551182
20
-4.6388301968503933
11
5.8259225196850393
21
-4.6522823622047245
0
LINE
8
BLACK
6
CONTINUOUS
10
5.8259225196850393
20
-4.6522823622047245
11
5.8281811811023623
21
-4.6660594488188973
0
LINE
8
BLACK
6
CONTINUOUS
10
5.8281811811023623
20
-4.6660594488188973
11
5.8289370078740159
21
-4.6799999999999997
0
LINE
8
BLACK
6
CONTINUOUS
10
5.8289370078740159
20
-4.6799999999999997
11
5.8281811811023623
21
-4.6939405511811021
0
LINE
8
BLACK
6
CONTINUOUS
10
5.8281811811023623
20
-4.6939405511811021
11
5.8259225196850393
21
-4.7077176377952759
0
LINE
8
BLACK
6
CONTINUOUS
10
5.8259225196850393
20
-4.7077176377952759
11
5.8221875590551182
21
-4.7211698031496061
0
LINE
8
BLACK
6
CONTINUOUS
10
5.8221875590551182
20
-4.7211698031496061
11
5.8170200393700782
21
-4.7341392519685037
0
LINE
8
BLACK
6
CONTINUOUS
10
5.8170200393700782
20
-4.7341392519685037
11
5.8104805905511814
21
-4.7464739763779527
0
LINE
8
BLACK
6
CONTINUOUS
10
5.8104805905511814
20
-4.7464739763779527
11
5.8026458661417317
21
-4.7580293700787397
0
LINE
8
BLACK
6
CONTINUOUS
10
5.8026458661417317
20
-4.7580293700787397
11
5.7936076771653546
21
-4.7686699212598427
0
LINE
8
BLACK
6
CONTINUOUS
10
5.7936076771653546
20
-4.7686699212598427
11
5.7834720472440946
21
-4.7782709055118113
0
LINE
8
BLACK
6
CONTINUOUS
10
5.7834720472440946
20
-4.7782709055118113
11
5.7723577952755907
21
-4.7867197244094486
0
LINE
8
BLACK
6
CONTINUOUS
10
5.7723577952755907
20
-4.7867197244094486
11
5.7603951968503937
21
-4.7939174015748032
0
LINE
8
BLACK
6
CONTINUOUS
10
5.7603951968503937
20
-4.7939174015748032
11
5.7477244881889762
21
-4.7997794881889764
0
LINE
8
BLACK
6
CONTINUOUS
10
5.7477244881889762
20
-4.7997794881889764
11
5.7344942913385824
21
-4.8042372440944883
0
LINE
8
BLACK
6
CONTINUOUS
10
5.7344942913385824
20
-4.8042372440944883
11
5.72085968503937
21
-4.8072384645669288
0
LINE
8
BLACK
6
CONTINUOUS
10
5.72085968503937
20
-4.8072384645669288
11
5.7069805118110235
21
-4.8087479133858269
0
LINE
8
BLACK
6
CONTINUOUS
10
5.7069805118110235
20
-4.8087479133858269
11
5.693019488188976
21
-4.8087479133858269
0
LINE
8
BLACK
6
CONTINUOUS
10
5.693019488188976
20
-4.8087479133858269
11
5.6791403149606294
21
-4.8072384645669288
0
LINE
8
BLACK
6
CONTINUOUS
10
5.6791403149606294
20
-4.8072384645669288
11
5.6655057086614171
21
-4.8042372440944883
0
LINE
8
BLACK
6
CONTINUOUS
10
5.6655057086614171
20
-4.8042372440944883
11
5.6522755118110233
21
-4.7997794881889764
0
LINE
8
BLACK
6
CONTINUOUS
10
5.6522755118110233
20
-4.7997794881889764
11
5.6396048031496058
21
-4.7939174015748032
0
LINE
8
BLACK
6
CONTINUOUS
10
5.6396048031496058
20
-4.7939174015748032
11
5.6276422047244097
21
-4.7867197244094486
0
LINE
8
BLACK
6
CONTINUOUS
10
5.6276422047244097
20
-4.7867197244094486
11
5.6165279527559058
21
-4.7782709055118113
0
LINE
8
BLACK
6
CONTINUOUS
10
5.6165279527559058
20
-4.7782709055118113
11
5.6063923228346457
21
-4.7686699212598427
0
LINE
8
BLACK
6
CONTINUOUS
10
5.6063923228346457
20
-4.7686699212598427
11
5.5973541338582677
21
-4.7580293700787397
0
LINE
8
BLACK
6
CONTINUOUS
10
5.5973541338582677
20
-4.7580293700787397
11
5.589519409448819
21
-4.7464739763779527
0
LINE
8
BLACK
6
CONTINUOUS
10
5.589519409448819
20
-4.7464739763779527
11
5.5829799606299213
21
-4.7341392519685037
0
LINE
8
BLACK
6
CONTINUOUS
10
5.5829799606299213
20
-4.7341392519685037
11
5.5778124409448822
21
-4.7211698031496061
0
LINE
8
BLACK
6
CONTINUOUS
10
5.5778124409448822
20
-4.7211698031496061
11
5.5740774803149602
21
-4.7077176377952759
0
LINE
8
BLACK
6
CONTINUOUS
10
5.5740774803149602
20
-4.7077176377952759
11
5.5718188188976381
21
-4.6939405511811021
0
LINE
8
BLACK
6
CONTINUOUS
10
5.5718188188976381
20
-4.6939405511811021
11
5.5710629921259844
21
-4.6799999999999997
0
LINE
8
BLACK
6
CONTINUOUS
10
5.5710629921259844
20
-4.6799999999999997
11
5.5718188188976381
21
-4.6660594488188973
0
LINE
8
BLACK
6
CONTINUOUS
10
5.5718188188976381
20
-4.6660594488188973
11
5.5740774803149602
21
-4.6522823622047245
0
LINE
8
BLACK
6
CONTINUOUS
10
5.5740774803149602
20
-4.6522823622047245
11
5.5778124409448822
21
-4.6388301968503933
0
LINE
8
BLACK
6
CONTINUOUS
10
5.5778124409448822
20
-4.6388301968503933
11
5.5829799606299213
21
-4.6258607480314957
0
LINE
8
BLACK
6
CONTINUOUS
10
5.5829799606299213
20
-4.6258607480314957
11
5.589519409448819
21
-4.6135260236220468
0
LINE
8
BLACK
6
CONTINUOUS
10
5.589519409448819
20
-4.6135260236220468
11
5.5973541338582677
21
-4.6019706299212597
0
LINE
8
BLACK
6
CONTINUOUS
10
5.5973541338582677
20
-4.6019706299212597
11
5.6063923228346457
21
-4.5913300787401576
0
LINE
8
BLACK
6
CONTINUOUS
10
5.6063923228346457
20
-4.5913300787401576
11
5.6165279527559058
21
-4.581729094488189
0
LINE
8
BLACK
6
CONTINUOUS
10
5.6165279527559058
20
-4.581729094488189
11
5.6276422047244097
21
-4.5732802755905508
0
LINE
8
BLACK
6
CONTINUOUS
10
5.6276422047244097
20
-4.5732802755905508
11
5.6396048031496058
21
-4.5660825984251971
0
LINE
8
BLACK
6
CONTINUOUS
10
5.6396048031496058
20
-4.5660825984251971
11
5.6522755118110233
21
-4.5602205118110239
0
LINE
8
BLACK
6
CONTINUOUS
10
5.6522755118110233
20
-4.5602205118110239
11
5.6655057086614171
21
-4.5557627559055121
0
LINE
8
BLACK
6
CONTINUOUS
10
5.6655057086614171
20
-4.5557627559055121
11
5.6791403149606294
21
-4.5527615354330706
0
LINE
8
BLACK
6
CONTINUOUS
10
5.6791403149606294
20
-4.5527615354330706
11
5.693019488188976
21
-4.5512520866141735
0
LINE
8
BLACK
6
CONTINUOUS
10
5.693019488188976
20
-4.5512520866141735
11
5.7069805118110235
21
-4.5512520866141735
0
LINE
8
BLACK
6
CONTINUOUS
10
5.7069805118110235
20
-4.5512520866141735
11
5.72085968503937
21
-4.5527615354330706
0
LINE
8
BLACK
6
CONTINUOUS
10
5.5775494488188979
20
-4.6937968503937011
11
5.579864173228346
21
-4.7074202362204725
0
LINE
8
BLACK
6
CONTINUOUS
10
5.579864173228346
20
-4.7074202362204725
11
5.583689645669291
21
-4.7206987401574798
0
LINE
8
BLACK
6
CONTINUOUS
10
5.583689645669291
20
-4.7206987401574798
11
5.5889777952755901
21
-4.7334654724409448
0
LINE
8
BLACK
6
CONTINUOUS
10
5.5889777952755901
20
-4.7334654724409448
11
5.5956621259842523
21
-4.7455598425196852
0
LINE
8
BLACK
6
CONTINUOUS
10
5.5956621259842523
20
-4.7455598425196852
11
5.6036585433070867
21
-4.7568297637795274
0
LINE
8
BLACK
6
CONTINUOUS
10
5.6036585433070867
20
-4.7568297637795274
11
5.6128665354330707
21
-4.7671334645669292
0
LINE
8
BLACK
6
CONTINUOUS
10
5.6128665354330707
20
-4.7671334645669292
11
5.6231702362204725
21
-4.7763414566929132
0
LINE
8
BLACK
6
CONTINUOUS
10
5.6231702362204725
20
-4.7763414566929132
11
5.6344401574803147
21
-4.7843378740157476
0
LINE
8
BLACK
6
CONTINUOUS
10
5.6344401574803147
20
-4.7843378740157476
11
5.6465345275590551
21
-4.7910222047244098
0
LINE
8
BLACK
6
CONTINUOUS
10
5.6465345275590551
20
-4.7910222047244098
11
5.6593012598425192
21
-4.7963103543307088
0
LINE
8
BLACK
6
CONTINUOUS
10
5.6593012598425192
20
-4.7963103543307088
11
5.6725797637795274
21
-4.8001358267716538
0
LINE
8
BLACK
6
CONTINUOUS
10
5.6725797637795274
20
-4.8001358267716538
11
5.6862031496062988
21
-4.802450551181102
0
LINE
8
BLACK
6
CONTINUOUS
10
5.6862031496062988
20
-4.802450551181102
11
5.7000000000000002
21
-4.8032253543307082
0
LINE
8
BLACK
6
CONTINUOUS
10
5.7000000000000002
20
-4.8032253543307082
11
5.7137968503937007
21
-4.802450551181102
0
LINE
8
BLACK
6
CONTINUOUS
10
5.7137968503937007
20
-4.802450551181102
11
5.727420236220472
21
-4.8001358267716538
0
LINE
8
BLACK
6
CONTINUOUS
10
5.727420236220472
20
-4.8001358267716538
11
5.7406987401574803
21
-4.7963103543307088
0
LINE
8
BLACK
6
CONTINUOUS
10
5.7406987401574803
20
-4.7963103543307088
11
5.7534654724409444
21
-4.7910222047244098
0
LINE
8
BLACK
6
CONTINUOUS
10
5.7534654724409444
20
-4.7910222047244098
11
5.7655598425196848
21
-4.7843378740157476
0
LINE
8
BLACK
6
CONTINUOUS
10
5.7655598425196848
20
-4.7843378740157476
11
5.7768297637795278
21
-4.7763414566929132
0
LINE
8
BLACK
6
CONTINUOUS
10
5.7768297637795278
20
-4.7763414566929132
11
5.7871334645669288
21
-4.7671334645669292
0
LINE
8
BLACK
6
CONTINUOUS
10
5.7871334645669288
20
-4.7671334645669292
11
5.7963414566929137
21
-4.7568297637795274
0
LINE
8
BLACK
6
CONTINUOUS
10
5.7963414566929137
20
-4.7568297637795274
11
5.8043378740157481
21
-4.7455598425196852
0
LINE
8
BLACK
6
CONTINUOUS
10
5.8043378740157481
20
-4.7455598425196852
11
5.8110222047244093
21
-4.7334654724409448
0
LINE
8
BLACK
6
CONTINUOUS
10
5.8110222047244093
20
-4.7334654724409448
11
5.8163103543307084
21
-4.7206987401574798
0
LINE
8
BLACK
6
CONTINUOUS
10
5.8163103543307084
20
-4.7206987401574798
11
5.8201358267716534
21
-4.7074202362204725
0
LINE
8
BLACK
6
CONTINUOUS
10
5.8201358267716534
20
-4.7074202362204725
11
5.8224505511811024
21
-4.6937968503937011
0
LINE
8
BLACK
6
CONTINUOUS
10
5.8224505511811024
20
-4.6937968503937011
11
5.8232253543307086
21
-4.6799999999999997
0
LINE
8
BLACK
6
CONTINUOUS
10
5.8232253543307086
20
-4.6799999999999997
11
5.8224505511811024
21
-4.6662031496062992
0
LINE
8
BLACK
6
CONTINUOUS
10
5.8224505511811024
20
-4.6662031496062992
11
5.8201358267716534
21
-4.6525797637795279
0
LINE
8
BLACK
6
CONTINUOUS
10
5.8201358267716534
20
-4.6525797637795279
11
5.8163103543307084
21
-4.6393012598425196
0
LINE
8
BLACK
6
CONTINUOUS
10
5.8163103543307084
20
-4.6393012598425196
11
5.8110222047244093
21
-4.6265345275590546
0
LINE
8
BLACK
6
CONTINUOUS
10
5.8110222047244093
20
-4.6265345275590546
11
5.8043378740157481
21
-4.6144401574803151
0
LINE
8
BLACK
6
CONTINUOUS
10
5.8043378740157481
20
-4.6144401574803151
11
5.7963414566929137
21
-4.6031702362204721
0
LINE
8
BLACK
6
CONTINUOUS
10
5.7963414566929137
20
-4.6031702362204721
11
5.7871334645669288
21
-4.5928665354330711
0
LINE
8
BLACK
6
CONTINUOUS
10
5.7871334645669288
20
-4.5928665354330711
11
5.7768297637795278
21
-4.5836585433070862
0
LINE
8
BLACK
6
CONTINUOUS
10
5.7768297637795278
20
-4.5836585433070862
11
5.7655598425196848
21
-4.5756621259842518
0
LINE
8
BLACK
6
CONTINUOUS
10
5.7655598425196848
20
-4.5756621259842518
11
5.7534654724409444
21
-4.5689777952755906
0
LINE
8
BLACK
6
CONTINUOUS
10
5.7534654724409444
20
-4.5689777952755906
11
5.7406987401574803
21
-4.5636896456692915
0
LINE
8
BLACK
6
CONTINUOUS
10
5.7406987401574803
20
-4.5636896456692915
11
5.727420236220472
21
-4.5598641732283465
0
LINE
8
BLACK
6
CONTINUOUS
10
5.727420236220472
20
-4.5598641732283465
11
5.7137968503937007
21
-4.5575494488188975
0
LINE
8
BLACK
6
CONTINUOUS
10
5.7137968503937007
20
-4.5575494488188975
11
5.7000000000000002
21
-4.5567746456692912
0
LINE
8
BLACK
6
CONTINUOUS
10
5.7000000000000002
20
-4.5567746456692912
11
5.6862031496062988
21
-4.5575494488188975
0
LINE
8
BLACK
6
CONTINUOUS
10
5.6862031496062988
20
-4.5575494488188975
11
5.6725797637795274
21
-4.5598641732283465
0
LINE
8
BLACK
6
CONTINUOUS
10
5.6725797637795274
20
-4.5598641732283465
11
5.6593012598425192
21
-4.5636896456692915
0
LINE
8
BLACK
6
CONTINUOUS
10
5.6593012598425192
20
-4.5636896456692915
11
5.6465345275590551
21
-4.5689777952755906
0
LINE
8
BLACK
6
CONTINUOUS
10
5.6465345275590551
20
-4.5689777952755906
11
5.6344401574803147
21
-4.5756621259842518
0
LINE
8
BLACK
6
CONTINUOUS
10
5.6344401574803147
20
-4.5756621259842518
11
5.6231702362204725
21
-4.5836585433070862
0
LINE
8
BLACK
6
CONTINUOUS
10
5.6231702362204725
20
-4.5836585433070862
11
5.6128665354330707
21
-4.5928665354330711
0
LINE
8
BLACK
6
CONTINUOUS
10
5.6128665354330707
20
-4.5928665354330711
11
5.6036585433070867
21
-4.6031702362204721
0
LINE
8
BLACK
6
CONTINUOUS
10
5.6036585433070867
20
-4.6031702362204721
11
5.5956621259842523
21
-4.6144401574803151
0
LINE
8
BLACK
6
CONTINUOUS
10
5.5956621259842523
20
-4.6144401574803151
11
5.5889777952755901
21
-4.6265345275590546
0
LINE
8
BLACK
6
CONTINUOUS
10
5.5889777952755901
20
-4.6265345275590546
11
5.583689645669291
21
-4.6393012598425196
0
LINE
8
BLACK
6
CONTINUOUS
10
5.583689645669291
20
-4.6393012598425196
11
5.579864173228346
21
-4.6525797637795279
0
LINE
8
BLACK
6
CONTINUOUS
10
5.579864173228346
20
-4.6525797637795279
11
5.5775494488188979
21
-4.6662031496062992
0
LINE
8
BLACK
6
CONTINUOUS
10
5.5775494488188979
20
-4.6662031496062992
11
5.5767746456692908
21
-4.6799999999999997
0
LINE
8
BLACK
6
CONTINUOUS
10
5.5767746456692908
20
-4.6799999999999997
11
5.5775494488188979
21
-4.6937968503937011
0
LINE
8
BLACK
6
CONTINUOUS
10
4.0208596850393699
20
-2.8727615354330709
11
4.0344942913385822
21
-2.8757627559055119
0
LINE
8
BLACK
6
CONTINUOUS
10
4.0344942913385822
20
-2.8757627559055119
11
4.047724488188976
21
-2.8802205118110233
0
LINE
8
BLACK
6
CONTINUOUS
10
4.047724488188976
20
-2.8802205118110233
11
4.0603951968503935
21
-2.886082598425197
0
LINE
8
BLACK
6
CONTINUOUS
10
4.0603951968503935
20
-2.886082598425197
11
4.0723577952755905
21
-2.8932802755905511
0
LINE
8
BLACK
6
CONTINUOUS
10
4.0723577952755905
20
-2.8932802755905511
11
4.0834720472440944
21
-2.9017290944881888
0
LINE
8
BLACK
6
CONTINUOUS
10
4.0834720472440944
20
-2.9017290944881888
11
4.0936076771653545
21
-2.9113300787401575
0
LINE
8
BLACK
6
CONTINUOUS
10
4.0936076771653545
20
-2.9113300787401575
11
4.1026458661417324
21
-2.9219706299212596
0
LINE
8
BLACK
6
CONTINUOUS
10
4.1026458661417324
20
-2.9219706299212596
11
4.1104805905511812
21
-2.9335260236220471
0
LINE
8
BLACK
6
CONTINUOUS
10
4.1104805905511812
20
-2.9335260236220471
11
4.1170200393700789
21
-2.945860748031496
0
LINE
8
BLACK
6
CONTINUOUS
10
4.1170200393700789
20
-2.945860748031496
11
4.122187559055118
21
-2.9588301968503936
0
LINE
8
BLACK
6
CONTINUOUS
10
4.122187559055118
20
-2.9588301968503936
11
4.1259225196850391
21
-2.9722823622047243
0
LINE
8
BLACK
6
CONTINUOUS
10
4.1259225196850391
20
-2.9722823622047243
11
4.1281811811023621
21
-2.9860594488188976
0
LINE
8
BLACK
6
CONTINUOUS
10
4.1281811811023621
20
-2.9860594488188976
11
4.1289370078740157
21
-3.
0
LINE
8
BLACK
6
CONTINUOUS
10
4.1289370078740157
20
-3.
11
4.1281811811023621
21
-3.0139405511811024
0
LINE
8
BLACK
6
CONTINUOUS
10
4.1281811811023621
20
-3.0139405511811024
11
4.1259225196850391
21
-3.0277176377952757
0
LINE
8
BLACK
6
CONTINUOUS
10
4.1259225196850391
20
-3.0277176377952757
11
4.122187559055118
21
-3.0411698031496064
0
LINE
8
BLACK
6
CONTINUOUS
10
4.122187559055118
20
-3.0411698031496064
11
4.1170200393700789
21
-3.054139251968504
0
LINE
8
BLACK
6
CONTINUOUS
10
4.1170200393700789
20
-3.054139251968504
11
4.1104805905511812
21
-3.0664739763779525
0
LINE
8
BLACK
6
CONTINUOUS
10
4.1104805905511812
20
-3.0664739763779525
11
4.1026458661417324
21
-3.07802937007874
0
LINE
8
BLACK
6
CONTINUOUS
10
4.1026458661417324
20
-3.07802937007874
11
4.0936076771653545
21
-3.0886699212598425
0
LINE
8
BLACK
6
CONTINUOUS
10
4.0936076771653545
20
-3.0886699212598425
11
4.0834720472440944
21
-3.0982709055118112
0
LINE
8
BLACK
6
CONTINUOUS
10
4.0834720472440944
20
-3.0982709055118112
11
4.0723577952755905
21
-3.1067197244094489
0
LINE
8
BLACK
6
CONTINUOUS
10
4.0723577952755905
20
-3.1067197244094489
11
4.0603951968503935
21
-3.113917401574803
0
LINE
8
BLACK
6
CONTINUOUS
10
4.0603951968503935
20
-3.113917401574803
11
4.047724488188976
21
-3.1197794881889762
0
LINE
8
BLACK
6
CONTINUOUS
10
4.047724488188976
20
-3.1197794881889762
11
4.0344942913385822
21
-3.1242372440944881
0
LINE
8
BLACK
6
CONTINUOUS
10
4.0344942913385822
20
-3.1242372440944881
11
4.0208596850393699
21
-3.1272384645669291
0
LINE
8
BLACK
6
CONTINUOUS
10
4.0208596850393699
20
-3.1272384645669291
11
4.0069805118110233
21
-3.1287479133858267
0
LINE
8
BLACK
6
CONTINUOUS
10
4.0069805118110233
20
-3.1287479133858267
11
3.9930194881889762
21
-3.1287479133858267
0
LINE
8
BLACK
6
CONTINUOUS
10
3.9930194881889762
20
-3.1287479133858267
11
3.9791403149606297
21
-3.1272384645669291
0
LINE
8
BLACK
6
CONTINUOUS
10
3.9791403149606297
20
-3.1272384645669291
11
3.9655057086614174
21
-3.1242372440944881
0
LINE
8
BLACK
6
CONTINUOUS
10
3.9655057086614174
20
-3.1242372440944881
11
3.9522755118110235
21
-3.1197794881889762
0
LINE
8
BLACK
6
CONTINUOUS
10
3.9522755118110235
20
-3.1197794881889762
11
3.939604803149606
21
-3.113917401574803
0
LINE
8
BLACK
6
CONTINUOUS
10
3.939604803149606
20
-3.113917401574803
11
3.9276422047244095
21
-3.1067197244094489
0
LINE
8
BLACK
6
CONTINUOUS
10
3.9276422047244095
20
-3.1067197244094489
11
3.9165279527559056
21
-3.0982709055118112
0
LINE
8
BLACK
6
CONTINUOUS
10
3.9165279527559056
20
-3.0982709055118112
11
3.9063923228346455
21
-3.0886699212598425
0
LINE
8
BLACK
6
CONTINUOUS
10
3.9063923228346455
20
-3.0886699212598425
11
3.8973541338582676
21
-3.07802937007874
0
LINE
8
BLACK
6
CONTINUOUS
10
3.8973541338582676
20
-3.07802937007874
11
3.8895194094488188
21
-3.0664739763779525
0
LINE
8
BLACK
6
CONTINUOUS
10
3.8895194094488188
20
-3.0664739763779525
11
3.8829799606299211
21
-3.054139251968504
0
LINE
8
BLACK
6
CONTINUOUS
10
3.8829799606299211
20
-3.054139251968504
11
3.877812440944882
21
-3.0411698031496064
0
LINE
8
BLACK
6
CONTINUOUS
10
3.877812440944882
20
-3.0411698031496064
11
3.8740774803149605
21
-3.0277176377952757
0
LINE
8
BLACK
6
CONTINUOUS
10
3.8740774803149605
20
-3.0277176377952757
11
3.8718188188976379
21
-3.0139405511811024
0
LINE
8
BLACK
6
CONTINUOUS
10
3.8718188188976379
20
-3.0139405511811024
11
3.8710629921259843
21
-3.
0
LINE
8
BLACK
6
CONTINUOUS
10
3.8710629921259843
20
-3.
11
3.8718188188976379
21
-2.9860594488188976
0
LINE
8
BLACK
6
CONTINUOUS
10
3.8718188188976379
20
-2.9860594488188976
11
3.8740774803149605
21
-2.9722823622047243
0
LINE
8
BLACK
6
CONTINUOUS
10
3.8740774803149605
20
-2.9722823622047243
11
3.877812440944882
21
-2.9588301968503936
0
LINE
8
BLACK
6
CONTINUOUS
10
3.877812440944882
20
-2.9588301968503936
11
3.8829799606299211
21
-2.945860748031496
0
LINE
8
BLACK
6
CONTINUOUS
10
3.8829799606299211
20
-2.945860748031496
11
3.8895194094488188
21
-2.9335260236220471
0
LINE
8
BLACK
6
CONTINUOUS
10
3.8895194094488188
20
-2.9335260236220471
11
3.8973541338582676
21
-2.9219706299212596
0
LINE
8
BLACK
6
CONTINUOUS
10
3.8973541338582676
20
-2.9219706299212596
11
3.9063923228346455
21
-2.9113300787401575
0
LINE
8
BLACK
6
CONTINUOUS
10
3.9063923228346455
20
-2.9113300787401575
11
3.9165279527559056
21
-2.9017290944881888
0
LINE
8
BLACK
6
CONTINUOUS
10
3.9165279527559056
20
-2.9017290944881888
11
3.9276422047244095
21
-2.8932802755905511
0
LINE
8
BLACK
6
CONTINUOUS
10
3.9276422047244095
20
-2.8932802755905511
11
3.939604803149606
21
-2.886082598425197
0
LINE
8
BLACK
6
CONTINUOUS
10
3.939604803149606
20
-2.886082598425197
11
3.9522755118110235
21
-2.8802205118110233
0
LINE
8
BLACK
6
CONTINUOUS
10
3.9522755118110235
20
-2.8802205118110233
11
3.9655057086614174
21
-2.8757627559055119
0
LINE
8
BLACK
6
CONTINUOUS
10
3.9655057086614174
20
-2.8757627559055119
11
3.9791403149606297
21
-2.8727615354330709
0
LINE
8
BLACK
6
CONTINUOUS
10
3.9791403149606297
20
-2.8727615354330709
11
3.9930194881889762
21
-2.8712520866141733
0
LINE
8
BLACK
6
CONTINUOUS
10
3.9930194881889762
20
-2.8712520866141733
11
4.0069805118110233
21
-2.8712520866141733
0
LINE
8
BLACK
6
CONTINUOUS
10
4.0069805118110233
20
-2.8712520866141733
11
4.0208596850393699
21
-2.8727615354330709
0
LINE
8
BLACK
6
CONTINUOUS
10
3.8775494488188977
20
-3.0137968503937009
11
3.8798641732283463
21
-3.0274202362204723
0
LINE
8
BLACK
6
CONTINUOUS
10
3.8798641732283463
20
-3.0274202362204723
11
3.8836896456692913
21
-3.0406987401574801
0
LINE
8
BLACK
6
CONTINUOUS
10
3.8836896456692913
20
-3.0406987401574801
11
3.8889777952755904
21
-3.0534654724409447
0
LINE
8
BLACK
6
CONTINUOUS
10
3.8889777952755904
20
-3.0534654724409447
11
3.8956621259842521
21
-3.0655598425196851
0
LINE
8
BLACK
6
CONTINUOUS
10
3.8956621259842521
20
-3.0655598425196851
11
3.9036585433070865
21
-3.0768297637795277
0
LINE
8
BLACK
6
CONTINUOUS
10
3.9036585433070865
20
-3.0768297637795277
11
3.9128665354330709
21
-3.0871334645669291
0
LINE
8
BLACK
6
CONTINUOUS
10
3.9128665354330709
20
-3.0871334645669291
11
3.9231702362204723
21
-3.0963414566929135
0
LINE
8
BLACK
6
CONTINUOUS
10
3.9231702362204723
20
-3.0963414566929135
11
3.9344401574803149
21
-3.1043378740157479
0
LINE
8
BLACK
6
CONTINUOUS
10
3.9344401574803149
20
-3.1043378740157479
11
3.9465345275590549
21
-3.1110222047244092
0
LINE
8
BLACK
6
CONTINUOUS
10
3.9465345275590549
20
-3.1110222047244092
11
3.9593012598425195
21
-3.1163103543307087
0
LINE
8
BLACK
6
CONTINUOUS
10
3.9593012598425195
20
-3.1163103543307087
11
3.9725797637795273
21
-3.1201358267716537
0
LINE
8
BLACK
6
CONTINUOUS
10
3.9725797637795273
20
-3.1201358267716537
11
3.9862031496062991
21
-3.1224505511811023
0
LINE
8
BLACK
6
CONTINUOUS
10
3.9862031496062991
20
-3.1224505511811023
11
4.
21
-3.1232253543307085
0
LINE
8
BLACK
6
CONTINUOUS
10
4.
20
-3.1232253543307085
11
4.0137968503937005
21
-3.1224505511811023
0
LINE
8
BLACK
6
CONTINUOUS
10
4.0137968503937005
20
-3.1224505511811023
11
4.0274202362204727
21
-3.1201358267716537
0
LINE
8
BLACK
6
CONTINUOUS
10
4.0274202362204727
20
-3.1201358267716537
11
4.0406987401574801
21
-3.1163103543307087
0
LINE
8
BLACK
6
CONTINUOUS
10
4.0406987401574801
20
-3.1163103543307087
11
4.0534654724409451
21
-3.1110222047244092
0
LINE
8
BLACK
6
CONTINUOUS
10
4.0534654724409451
20
-3.1110222047244092
11
4.0655598425196846
21
-3.1043378740157479
0
LINE
8
BLACK
6
CONTINUOUS
10
4.0655598425196846
20
-3.1043378740157479
11
4.0768297637795277
21
-3.0963414566929135
0
LINE
8
BLACK
6
CONTINUOUS
10
4.0768297637795277
20
-3.0963414566929135
11
4.0871334645669286
21
-3.0871334645669291
0
LINE
8
BLACK
6
CONTINUOUS
10
4.0871334645669286
20
-3.0871334645669291
11
4.0963414566929135
21
-3.0768297637795277
0
LINE
8
BLACK
6
CONTINUOUS
10
4.0963414566929135
20
-3.0768297637795277
11
4.1043378740157479
21
-3.0655598425196851
0
LINE
8
BLACK
6
CONTINUOUS
10
4.1043378740157479
20
-3.0655598425196851
11
4.1110222047244092
21
-3.0534654724409447
0
LINE
8
BLACK
6
CONTINUOUS
10
4.1110222047244092
20
-3.0534654724409447
11
4.1163103543307082
21
-3.0406987401574801
0
LINE
8
BLACK
6
CONTINUOUS
10
4.1163103543307082
20
-3.0406987401574801
11
4.1201358267716532
21
-3.0274202362204723
0
LINE
8
BLACK
6
CONTINUOUS
10
4.1201358267716532
20
-3.0274202362204723
11
4.1224505511811023
21
-3.0137968503937009
0
LINE
8
BLACK
6
CONTINUOUS
10
4.1224505511811023
20
-3.0137968503937009
11
4.1232253543307085
21
-3.
0
LINE
8
BLACK
6
CONTINUOUS
10
4.1232253543307085
20
-3.
11
4.1224505511811023
21
-2.9862031496062991
0
LINE
8
BLACK
6
CONTINUOUS
10
4.1224505511811023
20
-2.9862031496062991
11
4.1201358267716532
21
-2.9725797637795277
0
LINE
8
BLACK
6
CONTINUOUS
10
4.1201358267716532
20
-2.9725797637795277
11
4.1163103543307082
21
-2.9593012598425195
0
LINE
8
BLACK
6
CONTINUOUS
10
4.1163103543307082
20
-2.9593012598425195
11
4.1110222047244092
21
-2.9465345275590549
0
LINE
8
BLACK
6
CONTINUOUS
10
4.1110222047244092
20
-2.9465345275590549
11
4.1043378740157479
21
-2.9344401574803149
0
LINE
8
BLACK
6
CONTINUOUS
10
4.1043378740157479
20
-2.9344401574803149
11
4.0963414566929135
21
-2.9231702362204723
0
LINE
8
BLACK
6
CONTINUOUS
10
4.0963414566929135
20
-2.9231702362204723
11
4.0871334645669286
21
-2.9128665354330709
0
LINE
8
BLACK
6
CONTINUOUS
10
4.0871334645669286
20
-2.9128665354330709
11
4.0768297637795277
21
-2.9036585433070865
0
LINE
8
BLACK
6
CONTINUOUS
10
4.0768297637795277
20
-2.9036585433070865
11
4.0655598425196846
21
-2.8956621259842521
0
LINE
8
BLACK
6
CONTINUOUS
10
4.0655598425196846
20
-2.8956621259842521
11
4.0534654724409451
21
-2.8889777952755904
0
LINE
8
BLACK
6
CONTINUOUS
10
4.0534654724409451
20
-2.8889777952755904
11
4.0406987401574801
21
-2.8836896456692913
0
LINE
8
BLACK
6
CONTINUOUS
10
4.0406987401574801
20
-2.8836896456692913
11
4.0274202362204727
21
-2.8798641732283463
0
LINE
8
BLACK
6
CONTINUOUS
10
4.0274202362204727
20
-2.8798641732283463
11
4.0137968503937005
21
-2.8775494488188977
0
LINE
8
BLACK
6
CONTINUOUS
10
4.0137968503937005
20
-2.8775494488188977
11
4.
21
-2.8767746456692911
0
LINE
8
BLACK
6
CONTINUOUS
10
4.
20
-2.8767746456692911
11
3.9862031496062991
21
-2.8775494488188977
0
LINE
8
BLACK
6
CONTINUOUS
10
3.9862031496062991
20
-2.8775494488188977
11
3.9725797637795273
21
-2.8798641732283463
0
LINE
8
BLACK
6
CONTINUOUS
10
3.9725797637795273
20
-2.8798641732283463
11
3.9593012598425195
21
-2.8836896456692913
0
LINE
8
BLACK
6
CONTINUOUS
10
3.9593012598425195
20
-2.8836896456692913
11
3.9465345275590549
21
-2.8889777952755904
0
LINE
8
BLACK
6
CONTINUOUS
10
3.9465345275590549
20
-2.8889777952755904
11
3.9344401574803149
21
-2.8956621259842521
0
LINE
8
BLACK
6
CONTINUOUS
10
3.9344401574803149
20
-2.8956621259842521
11
3.9231702362204723
21
-2.9036585433070865
0
LINE
8
BLACK
6
CONTINUOUS
10
3.9231702362204723
20
-2.9036585433070865
11
3.9128665354330709
21
-2.9128665354330709
0
LINE
8
BLACK
6
CONTINUOUS
10
3.9128665354330709
20
-2.9128665354330709
11
3.9036585433070865
21
-2.9231702362204723
0
LINE
8
BLACK
6
CONTINUOUS
10
3.9036585433070865
20
-2.9231702362204723
11
3.8956621259842521
21
-2.9344401574803149
0
LINE
8
BLACK
6
CONTINUOUS
10
3.8956621259842521
20
-2.9344401574803149
11
3.8889777952755904
21
-2.9465345275590549
0
LINE
8
BLACK
6
CONTINUOUS
10
3.8889777952755904
20
-2.9465345275590549
11
3.8836896456692913
21
-2.9593012598425195
0
LINE
8
BLACK
6
CONTINUOUS
10
3.8836896456692913
20
-2.9593012598425195
11
3.8798641732283463
21
-2.9725797637795277
0
LINE
8
BLACK
6
CONTINUOUS
10
3.8798641732283463
20
-2.9725797637795277
11
3.8775494488188977
21
-2.9862031496062991
0
LINE
8
BLACK
6
CONTINUOUS
10
3.8775494488188977
20
-2.9862031496062991
11
3.8767746456692911
21
-3.
0
LINE
8
BLACK
6
CONTINUOUS
10
3.8767746456692911
20
-3.
11
3.8775494488188977
21
-3.0137968503937009
0
LINE
8
BLACK
6
CONTINUOUS
10
5.72085968503937
20
-2.8727615354330709
11
5.7344942913385824
21
-2.8757627559055119
0
LINE
8
BLACK
6
CONTINUOUS
10
5.7344942913385824
20
-2.8757627559055119
11
5.7477244881889762
21
-2.8802205118110233
0
LINE
8
BLACK
6
CONTINUOUS
10
5.7477244881889762
20
-2.8802205118110233
11
5.7603951968503937
21
-2.886082598425197
0
LINE
8
BLACK
6
CONTINUOUS
10
5.7603951968503937
20
-2.886082598425197
11
5.7723577952755907
21
-2.8932802755905511
0
LINE
8
BLACK
6
CONTINUOUS
10
5.7723577952755907
20
-2.8932802755905511
11
5.7834720472440946
21
-2.9017290944881888
0
LINE
8
BLACK
6
CONTINUOUS
10
5.7834720472440946
20
-2.9017290944881888
11
5.7936076771653546
21
-2.9113300787401575
0
LINE
8
BLACK
6
CONTINUOUS
10
5.7936076771653546
20
-2.9113300787401575
11
5.8026458661417317
21
-2.9219706299212596
0
LINE
8
BLACK
6
CONTINUOUS
10
5.8026458661417317
20
-2.9219706299212596
11
5.8104805905511814
21
-2.9335260236220471
0
LINE
8
BLACK
6
CONTINUOUS
10
5.8104805905511814
20
-2.9335260236220471
11
5.8170200393700782
21
-2.945860748031496
0
LINE
8
BLACK
6
CONTINUOUS
10
5.8170200393700782
20
-2.945860748031496
11
5.8221875590551182
21
-2.9588301968503936
0
LINE
8
BLACK
6
CONTINUOUS
10
5.8221875590551182
20
-2.9588301968503936
11
5.8259225196850393
21
-2.9722823622047243
0
LINE
8
BLACK
6
CONTINUOUS
10
5.8259225196850393
20
-2.9722823622047243
11
5.8281811811023623
21
-2.9860594488188976
0
LINE
8
BLACK
6
CONTINUOUS
10
5.8281811811023623
20
-2.9860594488188976
11
5.8289370078740159
21
-3.
0
LINE
8
BLACK
6
CONTINUOUS
10
5.8289370078740159
20
-3.
11
5.8281811811023623
21
-3.0139405511811024
0
LINE
8
BLACK
6
CONTINUOUS
10
5.8281811811023623
20
-3.0139405511811024
11
5.8259225196850393
21
-3.0277176377952757
0
LINE
8
BLACK
6
CONTINUOUS
10
5.8259225196850393
20
-3.0277176377952757
11
5.8221875590551182
21
-3.0411698031496064
0
LINE
8
BLACK
6
CONTINUOUS
10
5.8221875590551182
20
-3.0411698031496064
11
5.8170200393700782
21
-3.054139251968504
0
LINE
8
BLACK
6
CONTINUOUS
10
5.8170200393700782
20
-3.054139251968504
11
5.8104805905511814
21
-3.0664739763779525
0
LINE
8
BLACK
6
CONTINUOUS
10
5.8104805905511814
20
-3.0664739763779525
11
5.8026458661417317
21
-3.07802937007874
0
LINE
8
BLACK
6
CONTINUOUS
10
5.8026458661417317
20
-3.07802937007874
11
5.7936076771653546
21
-3.0886699212598425
0
LINE
8
BLACK
6
CONTINUOUS
10
5.7936076771653546
20
-3.0886699212598425
11
5.7834720472440946
21
-3.0982709055118112
0
LINE
8
BLACK
6
CONTINUOUS
10
5.7834720472440946
20
-3.0982709055118112
11
5.7723577952755907
21
-3.1067197244094489
0
LINE
8
BLACK
6
CONTINUOUS
10
5.7723577952755907
20
-3.1067197244094489
11
5.7603951968503937
21
-3.113917401574803
0
LINE
8
BLACK
6
CONTINUOUS
10
5.7603951968503937
20
-3.113917401574803
11
5.7477244881889762
21
-3.1197794881889762
0
LINE
8
BLACK
6
CONTINUOUS
10
5.7477244881889762
20
-3.1197794881889762
11
5.7344942913385824
21
-3.1242372440944881
0
LINE
8
BLACK
6
CONTINUOUS
10
5.7344942913385824
20
-3.1242372440944881
11
5.72085968503937
21
-3.1272384645669291
0
LINE
8
BLACK
6
CONTINUOUS
10
5.72085968503937
20
-3.1272384645669291
11
5.7069805118110235
21
-3.1287479133858267
0
LINE
8
BLACK
6
CONTINUOUS
10
5.7069805118110235
20
-3.1287479133858267
11
5.693019488188976
21
-3.1287479133858267
0
LINE
8
BLACK
6
CONTINUOUS
10
5.693019488188976
20
-3.1287479133858267
11
5.6791403149606294
21
-3.1272384645669291
0
LINE
8
BLACK
6
CONTINUOUS
10
5.6791403149606294
20
-3.1272384645669291
11
5.6655057086614171
21
-3.1242372440944881
0
LINE
8
BLACK
6
CONTINUOUS
10
5.6655057086614171
20
-3.1242372440944881
11
5.6522755118110233
21
-3.1197794881889762
0
LINE
8
BLACK
6
CONTINUOUS
10
5.6522755118110233
20
-3.1197794881889762
11
5.6396048031496058
21
-3.113917401574803
0
LINE
8
BLACK
6
CONTINUOUS
10
5.6396048031496058
20
-3.113917401574803
11
5.6276422047244097
21
-3.1067197244094489
0
LINE
8
BLACK
6
CONTINUOUS
10
5.6276422047244097
20
-3.1067197244094489
11
5.6165279527559058
21
-3.0982709055118112
0
LINE
8
BLACK
6
CONTINUOUS
10
5.6165279527559058
20
-3.0982709055118112
11
5.6063923228346457
21
-3.0886699212598425
0
LINE
8
BLACK
6
CONTINUOUS
10
5.6063923228346457
20
-3.0886699212598425
11
5.5973541338582677
21
-3.07802937007874
0
LINE
8
BLACK
6
CONTINUOUS
10
5.5973541338582677
20
-3.07802937007874
11
5.589519409448819
21
-3.0664739763779525
0
LINE
8
BLACK
6
CONTINUOUS
10
5.589519409448819
20
-3.0664739763779525
11
5.5829799606299213
21
-3.054139251968504
0
LINE
8
BLACK
6
CONTINUOUS
10
5.5829799606299213
20
-3.054139251968504
11
5.5778124409448822
21
-3.0411698031496064
0
LINE
8
BLACK
6
CONTINUOUS
10
5.5778124409448822
20
-3.0411698031496064
11
5.5740774803149602
21
-3.0277176377952757
0
LINE
8
BLACK
6
CONTINUOUS
10
5.5740774803149602
20
-3.0277176377952757
11
5.5718188188976381
21
-3.0139405511811024
0
LINE
8
BLACK
6
CONTINUOUS
10
5.5718188188976381
20
-3.0139405511811024
11
5.5710629921259844
21
-3.
0
LINE
8
BLACK
6
CONTINUOUS
10
5.5710629921259844
20
-3.
11
5.5718188188976381
21
-2.9860594488188976
0
LINE
8
BLACK
6
CONTINUOUS
10
5.5718188188976381
20
-2.9860594488188976
11
5.5740774803149602
21
-2.9722823622047243
0
LINE
8
BLACK
6
CONTINUOUS
10
5.5740774803149602
20
-2.9722823622047243
11
5.5778124409448822
21
-2.9588301968503936
0
LINE
8
BLACK
6
CONTINUOUS
10
5.5778124409448822
20
-2.9588301968503936
11
5.5829799606299213
21
-2.945860748031496
0
LINE
8
BLACK
6
CONTINUOUS
10
5.5829799606299213
20
-2.945860748031496
11
5.589519409448819
21
-2.9335260236220471
0
LINE
8
BLACK
6
CONTINUOUS
10
5.589519409448819
20
-2.9335260236220471
11
5.5973541338582677
21
-2.9219706299212596
0
LINE
8
BLACK
6
CONTINUOUS
10
5.5973541338582677
20
-2.9219706299212596
11
5.6063923228346457
21
-2.9113300787401575
0
LINE
8
BLACK
6
CONTINUOUS
10
5.6063923228346457
20
-2.9113300787401575
11
5.6165279527559058
21
-2.9017290944881888
0
LINE
8
BLACK
6
CONTINUOUS
10
5.6165279527559058
20
-2.9017290944881888
11
5.6276422047244097
21
-2.8932802755905511
0
LINE
8
BLACK
6
CONTINUOUS
10
5.6276422047244097
20
-2.8932802755905511
11
5.6396048031496058
21
-2.886082598425197
0
LINE
8
BLACK
6
CONTINUOUS
10
5.6396048031496058
20
-2.886082598425197
11
5.6522755118110233
21
-2.8802205118110233
0
LINE
8
BLACK
6
CONTINUOUS
10
5.6522755118110233
20
-2.8802205118110233
11
5.6655057086614171
21
-2.8757627559055119
0
LINE
8
BLACK
6
CONTINUOUS
10
5.6655057086614171
20
-2.8757627559055119
11
5.6791403149606294
21
-2.8727615354330709
0
LINE
8
BLACK
6
CONTINUOUS
10
5.6791403149606294
20
-2.8727615354330709
11
5.693019488188976
21
-2.8712520866141733
0
LINE
8
BLACK
6
CONTINUOUS
10
5.693019488188976
20
-2.8712520866141733
11
5.7069805118110235
21
-2.8712520866141733
0
LINE
8
BLACK
6
CONTINUOUS
10
5.7069805118110235
20
-2.8712520866141733
11
5.72085968503937
21
-2.8727615354330709
0
LINE
8
BLACK
6
CONTINUOUS
10
5.5775494488188979
20
-3.0137968503937009
11
5.579864173228346
21
-3.0274202362204723
0
LINE
8
BLACK
6
CONTINUOUS
10
5.579864173228346
20
-3.0274202362204723
11
5.583689645669291
21
-3.0406987401574801
0
LINE
8
BLACK
6
CONTINUOUS
10
5.583689645669291
20
-3.0406987401574801
11
5.5889777952755901
21
-3.0534654724409447
0
LINE
8
BLACK
6
CONTINUOUS
10
5.5889777952755901
20
-3.0534654724409447
11
5.5956621259842523
21
-3.0655598425196851
0
LINE
8
BLACK
6
CONTINUOUS
10
5.5956621259842523
20
-3.0655598425196851
11
5.6036585433070867
21
-3.0768297637795277
0
LINE
8
BLACK
6
CONTINUOUS
10
5.6036585433070867
20
-3.0768297637795277
11
5.6128665354330707
21
-3.0871334645669291
0
LINE
8
BLACK
6
CONTINUOUS
10
5.6128665354330707
20
-3.0871334645669291
11
5.6231702362204725
21
-3.0963414566929135
0
LINE
8
BLACK
6
CONTINUOUS
10
5.6231702362204725
20
-3.0963414566929135
11
5.6344401574803147
21
-3.1043378740157479
0
LINE
8
BLACK
6
CONTINUOUS
10
5.6344401574803147
20
-3.1043378740157479
11
5.6465345275590551
21
-3.1110222047244092
0
LINE
8
BLACK
6
CONTINUOUS
10
5.6465345275590551
20
-3.1110222047244092
11
5.6593012598425192
21
-3.1163103543307087
0
LINE
8
BLACK
6
CONTINUOUS
10
5.6593012598425192
20
-3.1163103543307087
11
5.6725797637795274
21
-3.1201358267716537
0
LINE
8
BLACK
6
CONTINUOUS
10
5.6725797637795274
20
-3.1201358267716537
11
5.6862031496062988
21
-3.1224505511811023
0
LINE
8
BLACK
6
CONTINUOUS
10
5.6862031496062988
20
-3.1224505511811023
11
5.7000000000000002
21
-3.1232253543307085
0
LINE
8
BLACK
6
CONTINUOUS
10
5.7000000000000002
20
-3.1232253543307085
11
5.7137968503937007
21
-3.1224505511811023
0
LINE
8
BLACK
6
CONTINUOUS
10
5.7137968503937007
20
-3.1224505511811023
11
5.727420236220472
21
-3.1201358267716537
0
LINE
8
BLACK
6
CONTINUOUS
10
5.727420236220472
20
-3.1201358267716537
11
5.7406987401574803
21
-3.1163103543307087
0
LINE
8
BLACK
6
CONTINUOUS
10
5.7406987401574803
20
-3.1163103543307087
11
5.7534654724409444
21
-3.1110222047244092
0
LINE
8
BLACK
6
CONTINUOUS
10
5.7534654724409444
20
-3.1110222047244092
11
5.7655598425196848
21
-3.1043378740157479
0
LINE
8
BLACK
6
CONTINUOUS
10
5.7655598425196848
20
-3.1043378740157479
11
5.7768297637795278
21
-3.0963414566929135
0
LINE
8
BLACK
6
CONTINUOUS
10
5.7768297637795278
20
-3.0963414566929135
11
5.7871334645669288
21
-3.0871334645669291
0
LINE
8
BLACK
6
CONTINUOUS
10
5.7871334645669288
20
-3.0871334645669291
11
5.7963414566929137
21
-3.0768297637795277
0
LINE
8
BLACK
6
CONTINUOUS
10
5.7963414566929137
20
-3.0768297637795277
11
5.8043378740157481
21
-3.0655598425196851
0
LINE
8
BLACK
6
CONTINUOUS
10
5.8043378740157481
20
-3.0655598425196851
11
5.8110222047244093
21
-3.0534654724409447
0
LINE
8
BLACK
6
CONTINUOUS
10
5.8110222047244093
20
-3.0534654724409447
11
5.8163103543307084
21
-3.0406987401574801
0
LINE
8
BLACK
6
CONTINUOUS
10
5.8163103543307084
20
-3.0406987401574801
11
5.8201358267716534
21
-3.0274202362204723
0
LINE
8
BLACK
6
CONTINUOUS
10
5.8201358267716534
20
-3.0274202362204723
11
5.8224505511811024
21
-3.0137968503937009
0
LINE
8
BLACK
6
CONTINUOUS
10
5.8224505511811024
20
-3.0137968503937009
11
5.8232253543307086
21
-3.
0
LINE
8
BLACK
6
CONTINUOUS
10
5.8232253543307086
20
-3.
11
5.8224505511811024
21
-2.9862031496062991
0
LINE
8
BLACK
6
CONTINUOUS
10
5.8224505511811024
20
-2.9862031496062991
11
5.8201358267716534
21
-2.9725797637795277
0
LINE
8
BLACK
6
CONTINUOUS
10
5.8201358267716534
20
-2.9725797637795277
11
5.8163103543307084
21
-2.9593012598425195
0
LINE
8
BLACK
6
CONTINUOUS
10
5.8163103543307084
20
-2.9593012598425195
11
5.8110222047244093
21
-2.9465345275590549
0
LINE
8
BLACK
6
CONTINUOUS
10
5.8110222047244093
20
-2.9465345275590549
11
5.8043378740157481
21
-2.9344401574803149
0
LINE
8
BLACK
6
CONTINUOUS
10
5.8043378740157481
20
-2.9344401574803149
11
5.7963414566929137
21
-2.9231702362204723
0
LINE
8
BLACK
6
CONTINUOUS
10
5.7963414566929137
20
-2.9231702362204723
11
5.7871334645669288
21
-2.9128665354330709
0
LINE
8
BLACK
6
CONTINUOUS
10
5.7871334645669288
20
-2.9128665354330709
11
5.7768297637795278
21
-2.9036585433070865
0
LINE
8
BLACK
6
CONTINUOUS
10
5.7768297637795278
20
-2.9036585433070865
11
5.7655598425196848
21
-2.8956621259842521
0
LINE
8
BLACK
6
CONTINUOUS
10
5.7655598425196848
20
-2.8956621259842521
11
5.7534654724409444
21
-2.8889777952755904
0
LINE
8
BLACK
6
CONTINUOUS
10
5.7534654724409444
20
-2.8889777952755904
11
5.7406987401574803
21
-2.8836896456692913
0
LINE
8
BLACK
6
CONTINUOUS
10
5.7406987401574803
20
-2.8836896456692913
11
5.727420236220472
21
-2.8798641732283463
0
LINE
8
BLACK
6
CONTINUOUS
10
5.727420236220472
20
-2.8798641732283463
11
5.7137968503937007
21
-2.8775494488188977
0
LINE
8
BLACK
6
CONTINUOUS
10
5.7137968503937007
20
-2.8775494488188977
11
5.7000000000000002
21
-2.8767746456692911
0
LINE
8
BLACK
6
CONTINUOUS
10
5.7000000000000002
20
-2.8767746456692911
11
5.6862031496062988
21
-2.8775494488188977
0
LINE
8
BLACK
6
CONTINUOUS
10
5.6862031496062988
20
-2.8775494488188977
11
5.6725797637795274
21
-2.8798641732283463
0
LINE
8
BLACK
6
CONTINUOUS
10
5.6725797637795274
20
-2.8798641732283463
11
5.6593012598425192
21
-2.8836896456692913
0
LINE
8
BLACK
6
CONTINUOUS
10
5.6593012598425192
20
-2.8836896456692913
11
5.6465345275590551
21
-2.8889777952755904
0
LINE
8
BLACK
6
CONTINUOUS
10
5.6465345275590551
20
-2.8889777952755904
11
5.6344401574803147
21
-2.8956621259842521
0
LINE
8
BLACK
6
CONTINUOUS
10
5.6344401574803147
20
-2.8956621259842521
11
5.6231702362204725
21
-2.9036585433070865
0
LINE
8
BLACK
6
CONTINUOUS
10
5.6231702362204725
20
-2.9036585433070865
11
5.6128665354330707
21
-2.9128665354330709
0
LINE
8
BLACK
6
CONTINUOUS
10
5.6128665354330707
20
-2.9128665354330709
11
5.6036585433070867
21
-2.9231702362204723
0
LINE
8
BLACK
6
CONTINUOUS
10
5.6036585433070867
20
-2.9231702362204723
11
5.5956621259842523
21
-2.9344401574803149
0
LINE
8
BLACK
6
CONTINUOUS
10
5.5956621259842523
20
-2.9344401574803149
11
5.5889777952755901
21
-2.9465345275590549
0
LINE
8
BLACK
6
CONTINUOUS
10
5.5889777952755901
20
-2.9465345275590549
11
5.583689645669291
21
-2.9593012598425195
0
LINE
8
BLACK
6
CONTINUOUS
10
5.583689645669291
20
-2.9593012598425195
11
5.579864173228346
21
-2.9725797637795277
0
LINE
8
BLACK
6
CONTINUOUS
10
5.579864173228346
20
-2.9725797637795277
11
5.5775494488188979
21
-2.9862031496062991
0
LINE
8
BLACK
6
CONTINUOUS
10
5.5775494488188979
20
-2.9862031496062991
11
5.5767746456692908
21
-3.
0
LINE
8
BLACK
6
CONTINUOUS
10
5.5767746456692908
20
-3.
11
5.5775494488188979
21
-3.0137968503937009
  0
ENDSEC
  0
EOF
