  0
SECTION
  2
HEADER
  9
$ANGBASE
  50
0.0
  9
$ANGDIR
  70
1
  9
$MEASUREMENT
  70
0
  0
ENDSEC
  0
SECTION
  2
TABLES
  0
TABLE
  2
LTYPE
  70
4
  0
LTYPE
  5
40F
  2
CONTINUOUS
  70
0
  3
Solid line
  72
65
  73
0
  40
0.0
  0
LTYPE
  5
410
  2
DASHDOT
 70
0
  3
Dash Dot ____ _ ____ _
 72
65
 73
4
 40
2.0
 49
1.25
 49
-0.25
 49
0.25
 49
-0.25
  0
LTYPE
  5
411
  2
DASHED
 70
0
  3
Dashed __ __ __ __ __
 72
65
 73
2
 40
0.75
 49
0.5
 49
-0.25
  0
LTYPE
  5
43B
  2
DOTTED
 70
0
  3
Dotted .  .  .  .
 72
65
 73
2
 40
0.2
 49
0.0
 49
-0.2
  0
ENDTAB
  0
TABLE
  2
STYLE
  70
4
  0
STYLE
  2
KICAD
  70
0
  40
0
  41
1
  42
1
  50
0
  71
0
  3
isocp.shx
  0
STYLE
  2
KICADB
  70
0
  40
0
  41
1
  42
1
  50
0
  71
0
  3
isocp.shx
  0
STYLE
  2
KICADI
  70
0
  40
0
  41
1
  42
1
  50
15
  71
0
  3
isocp.shx
  0
STYLE
  2
KICADBI
  70
0
  40
0
  41
1
  42
1
  50
15
  71
0
  3
isocp.shx
  0
ENDTAB
  0
TABLE
  2
LAYER
  70
1
  0
LAYER
  2
BLACK
  70
0
  62
7
  6
CONTINUOUS
  0
ENDTAB
  0
ENDSEC
  0
SECTION
  2
ENTITIES
0
LINE
8
BLACK
6
CONTINUOUS
10
4.2409999999999997
20
-4.2089999999999996
11
4.0910000000000002
21
-4.2089999999999996
0
LINE
8
BLACK
6
CONTINUOUS
10
4.0910000000000002
20
-4.2089999999999996
11
4.0910000000000002
21
-4.0590000000000002
0
LINE
8
BLACK
6
CONTINUOUS
10
4.0910000000000002
20
-4.0590000000000002
11
4.2409999999999997
21
-4.0590000000000002
0
LINE
8
BLACK
6
CONTINUOUS
10
4.2409999999999997
20
-4.0590000000000002
11
4.2409999999999997
21
-4.2089999999999996
0
LINE
8
BLACK
6
CONTINUOUS
10
4.4378503937007876
20
-4.2089999999999996
11
4.2878503937007872
21
-4.2089999999999996
0
LINE
8
BLACK
6
CONTINUOUS
10
4.2878503937007872
20
-4.2089999999999996
11
4.2878503937007872
21
-4.0590000000000002
0
LINE
8
BLACK
6
CONTINUOUS
10
4.2878503937007872
20
-4.0590000000000002
11
4.4378503937007876
21
-4.0590000000000002
0
LINE
8
BLACK
6
CONTINUOUS
10
4.4378503937007876
20
-4.0590000000000002
11
4.4378503937007876
21
-4.2089999999999996
0
LINE
8
BLACK
6
CONTINUOUS
10
5.6159055118110235
20
-3.6247711023622045
11
5.6190477559055116
21
-3.6274077952755905
0
LINE
8
BLACK
6
CONTINUOUS
10
5.6190477559055116
20
-3.6274077952755905
11
5.6210987401574801
21
-3.630960157480315
0
LINE
8
BLACK
6
CONTINUOUS
10
5.6210987401574801
20
-3.630960157480315
11
5.6218110236220475
21
-3.6349997637795273
0
LINE
8
BLACK
6
CONTINUOUS
10
5.6218110236220475
20
-3.6349997637795273
11
5.6210987401574801
21
-3.63903937007874
0
LINE
8
BLACK
6
CONTINUOUS
10
5.6210987401574801
20
-3.63903937007874
11
5.6190477559055116
21
-3.6425917322834644
0
LINE
8
BLACK
6
CONTINUOUS
10
5.6190477559055116
20
-3.6425917322834644
11
5.6159055118110235
21
-3.6452284251968505
0
LINE
8
BLACK
6
CONTINUOUS
10
5.6159055118110235
20
-3.6452284251968505
11
5.61205094488189
21
-3.6466313385826772
0
LINE
8
BLACK
6
CONTINUOUS
10
5.61205094488189
20
-3.6466313385826772
11
5.6079490551181097
21
-3.6466313385826772
0
LINE
8
BLACK
6
CONTINUOUS
10
5.6079490551181097
20
-3.6466313385826772
11
5.6040944881889763
21
-3.6452284251968505
0
LINE
8
BLACK
6
CONTINUOUS
10
5.6040944881889763
20
-3.6452284251968505
11
5.6009522440944881
21
-3.6425917322834644
0
LINE
8
BLACK
6
CONTINUOUS
10
5.6009522440944881
20
-3.6425917322834644
11
5.5999150787401577
21
-3.6407953543307086
0
LINE
8
BLACK
6
CONTINUOUS
10
5.5999150787401577
20
-3.6407953543307086
11
5.2400231496062988
21
-3.6409025196850391
0
LINE
8
BLACK
6
CONTINUOUS
10
5.2400231496062988
20
-3.6409025196850391
11
5.2390477559055117
21
-3.642591968503937
0
LINE
8
BLACK
6
CONTINUOUS
10
5.2390477559055117
20
-3.642591968503937
11
5.2359055118110236
21
-3.6452286614173226
0
LINE
8
BLACK
6
CONTINUOUS
10
5.2359055118110236
20
-3.6452286614173226
11
5.2320509448818893
21
-3.6466315748031497
0
LINE
8
BLACK
6
CONTINUOUS
10
5.2320509448818893
20
-3.6466315748031497
11
5.2279490551181098
21
-3.6466315748031497
0
LINE
8
BLACK
6
CONTINUOUS
10
5.2279490551181098
20
-3.6466315748031497
11
5.2240944881889764
21
-3.6452286614173226
0
LINE
8
BLACK
6
CONTINUOUS
10
5.2240944881889764
20
-3.6452286614173226
11
5.2209522440944882
21
-3.642591968503937
0
LINE
8
BLACK
6
CONTINUOUS
10
5.2209522440944882
20
-3.642591968503937
11
5.2189012598425197
21
-3.6390396062992125
0
LINE
8
BLACK
6
CONTINUOUS
10
5.2189012598425197
20
-3.6390396062992125
11
5.2181889763779523
21
-3.6349999999999998
0
LINE
8
BLACK
6
CONTINUOUS
10
5.2181889763779523
20
-3.6349999999999998
11
5.2189012598425197
21
-3.6309603937007875
0
LINE
8
BLACK
6
CONTINUOUS
10
5.2189012598425197
20
-3.6309603937007875
11
5.2209522440944882
21
-3.6274080314960631
0
LINE
8
BLACK
6
CONTINUOUS
10
5.2209522440944882
20
-3.6274080314960631
11
5.2240944881889764
21
-3.624771338582677
0
LINE
8
BLACK
6
CONTINUOUS
10
5.2240944881889764
20
-3.624771338582677
11
5.2279490551181098
21
-3.6233684251968503
0
LINE
8
BLACK
6
CONTINUOUS
10
5.2279490551181098
20
-3.6233684251968503
11
5.2320509448818893
21
-3.6233684251968503
0
LINE
8
BLACK
6
CONTINUOUS
10
5.2320509448818893
20
-3.6233684251968503
11
5.2359055118110236
21
-3.624771338582677
0
LINE
8
BLACK
6
CONTINUOUS
10
5.2359055118110236
20
-3.624771338582677
11
5.2390477559055117
21
-3.6274080314960631
0
LINE
8
BLACK
6
CONTINUOUS
10
5.2390477559055117
20
-3.6274080314960631
11
5.2400849999999997
21
-3.6292046062992127
0
LINE
8
BLACK
6
CONTINUOUS
10
5.2400849999999997
20
-3.6292046062992127
11
5.5999766929133861
21
-3.6290974409448817
0
LINE
8
BLACK
6
CONTINUOUS
10
5.5999766929133861
20
-3.6290974409448817
11
5.6009522440944881
21
-3.6274077952755905
0
LINE
8
BLACK
6
CONTINUOUS
10
5.6009522440944881
20
-3.6274077952755905
11
5.6040944881889763
21
-3.6247711023622045
0
LINE
8
BLACK
6
CONTINUOUS
10
5.6040944881889763
20
-3.6247711023622045
11
5.6079490551181097
21
-3.6233681889763778
0
LINE
8
BLACK
6
CONTINUOUS
10
5.6079490551181097
20
-3.6233681889763778
11
5.61205094488189
21
-3.6233681889763778
0
LINE
8
BLACK
6
CONTINUOUS
10
5.61205094488189
20
-3.6233681889763778
11
5.6159055118110235
21
-3.6247711023622045
0
LINE
8
BLACK
6
CONTINUOUS
10
4.2412563779527561
20
-3.6184488188976376
11
4.0912563779527558
21
-3.6184488188976376
0
LINE
8
BLACK
6
CONTINUOUS
10
4.0912563779527558
20
-3.6184488188976376
11
4.0912563779527558
21
-3.4684488188976377
0
LINE
8
BLACK
6
CONTINUOUS
10
4.0912563779527558
20
-3.4684488188976377
11
4.2412563779527561
21
-3.4684488188976377
0
LINE
8
BLACK
6
CONTINUOUS
10
4.2412563779527561
20
-3.4684488188976377
11
4.2412563779527561
21
-3.6184488188976376
0
LINE
8
BLACK
6
CONTINUOUS
10
4.4381067716535432
20
-3.6184488188976376
11
4.2881067716535428
21
-3.6184488188976376
0
LINE
8
BLACK
6
CONTINUOUS
10
4.2881067716535428
20
-3.6184488188976376
11
4.2881067716535428
21
-3.4684488188976377
0
LINE
8
BLACK
6
CONTINUOUS
10
4.2881067716535428
20
-3.4684488188976377
11
4.4381067716535432
21
-3.4684488188976377
0
LINE
8
BLACK
6
CONTINUOUS
10
4.4381067716535432
20
-3.4684488188976377
11
4.4381067716535432
21
-3.6184488188976376
0
LINE
8
BLACK
6
CONTINUOUS
10
5.8847488582677165
20
-2.8137599212598423
11
5.8865792913385828
21
-2.8158723622047241
0
LINE
8
BLACK
6
CONTINUOUS
10
5.8865792913385828
20
-2.8158723622047241
11
5.8870275590551175
21
-2.8179330708661419
0
LINE
8
BLACK
6
CONTINUOUS
10
5.8870275590551175
20
-2.8179330708661419
11
5.8870275590551175
21
-4.8820669291338579
0
LINE
8
BLACK
6
CONTINUOUS
10
5.8870275590551175
20
-4.8820669291338579
11
5.8862400787401574
21
-4.8847488582677165
0
LINE
8
BLACK
6
CONTINUOUS
10
5.8862400787401574
20
-4.8847488582677165
11
5.8841276377952756
21
-4.8865792913385828
0
LINE
8
BLACK
6
CONTINUOUS
10
5.8841276377952756
20
-4.8865792913385828
11
5.8820669291338579
21
-4.8870275590551184
0
LINE
8
BLACK
6
CONTINUOUS
10
5.8820669291338579
20
-4.8870275590551184
11
3.8179330708661419
21
-4.8870275590551184
0
LINE
8
BLACK
6
CONTINUOUS
10
3.8179330708661419
20
-4.8870275590551184
11
3.8152511417322832
21
-4.8862400787401574
0
LINE
8
BLACK
6
CONTINUOUS
10
3.8152511417322832
20
-4.8862400787401574
11
3.8134207086614174
21
-4.8841276377952756
0
LINE
8
BLACK
6
CONTINUOUS
10
3.8134207086614174
20
-4.8841276377952756
11
3.8129724409448817
21
-4.8820669291338579
0
LINE
8
BLACK
6
CONTINUOUS
10
3.8129724409448817
20
-4.8820669291338579
11
3.8129724409448817
21
-4.0570846456692911
0
LINE
8
BLACK
6
CONTINUOUS
10
3.8129724409448817
20
-4.0570846456692911
11
3.8129724409448817
21
-3.466533464566929
0
LINE
8
BLACK
6
CONTINUOUS
10
3.8129724409448817
20
-3.466533464566929
11
3.8129724409448817
21
-2.8179330708661419
0
LINE
8
BLACK
6
CONTINUOUS
10
3.8129724409448817
20
-2.8179330708661419
11
3.8137599212598423
21
-2.8152511417322832
0
LINE
8
BLACK
6
CONTINUOUS
10
3.8137599212598423
20
-2.8152511417322832
11
3.8158723622047241
21
-2.8134207086614174
0
LINE
8
BLACK
6
CONTINUOUS
10
3.8158723622047241
20
-2.8134207086614174
11
3.8179330708661419
21
-2.8129724409448817
0
LINE
8
BLACK
6
CONTINUOUS
10
3.8179330708661419
20
-2.8129724409448817
11
5.8820669291338579
21
-2.8129724409448817
0
LINE
8
BLACK
6
CONTINUOUS
10
5.8820669291338579
20
-2.8129724409448817
11
5.8847488582677165
21
-2.8137599212598423
0
LINE
8
BLACK
6
CONTINUOUS
10
4.0709803149606296
20
-4.21091531496063
11
4.0712365748031498
21
-4.2132990551181102
0
LINE
8
BLACK
6
CONTINUOUS
10
4.0712365748031498
20
-4.2132990551181102
11
4.0712366535433073
21
-4.2132993700787402
0
LINE
8
BLACK
6
CONTINUOUS
10
4.0712366535433073
20
-4.2132993700787402
11
4.0732484251968506
21
-4.2186929921259839
0
LINE
8
BLACK
6
CONTINUOUS
10
4.0732484251968506
20
-4.2186929921259839
11
4.0732485039370081
21
-4.2186931889763777
0
LINE
8
BLACK
6
CONTINUOUS
10
4.0732485039370081
20
-4.2186931889763777
11
4.076698346456693
21
-4.223301614173228
0
LINE
8
BLACK
6
CONTINUOUS
10
4.076698346456693
20
-4.223301614173228
11
4.0813067716535434
21
-4.226751456692913
0
LINE
8
BLACK
6
CONTINUOUS
10
4.0813067716535434
20
-4.226751456692913
11
4.0813068503937009
21
-4.2267514960629917
0
LINE
8
BLACK
6
CONTINUOUS
10
4.0813068503937009
20
-4.2267514960629917
11
4.0813069291338584
21
-4.2267515354330705
0
LINE
8
BLACK
6
CONTINUOUS
10
4.0813069291338584
20
-4.2267515354330705
11
4.0836328740157484
21
-4.2276190551181099
0
LINE
8
BLACK
6
CONTINUOUS
10
4.0836328740157484
20
-4.2276190551181099
11
4.0867005905511808
21
-4.2287633070866137
0
LINE
8
BLACK
6
CONTINUOUS
10
4.0867005905511808
20
-4.2287633070866137
11
4.0867009055118109
21
-4.2287633858267712
0
LINE
8
BLACK
6
CONTINUOUS
10
4.0867009055118109
20
-4.2287633858267712
11
4.0890846456692911
21
-4.2290196456692914
0
LINE
8
BLACK
6
CONTINUOUS
10
4.0890846456692911
20
-4.2290196456692914
11
4.0890848425196848
21
-4.2290196456692914
0
LINE
8
BLACK
6
CONTINUOUS
10
4.0890848425196848
20
-4.2290196456692914
11
4.0890851181102361
21
-4.2290196850393702
0
LINE
8
BLACK
6
CONTINUOUS
10
4.0890851181102361
20
-4.2290196850393702
11
4.0890853543307086
21
-4.2290196850393702
0
LINE
8
BLACK
6
CONTINUOUS
10
4.0890853543307086
20
-4.2290196850393702
11
4.2429146456692912
21
-4.2290196850393702
0
LINE
8
BLACK
6
CONTINUOUS
10
4.2429146456692912
20
-4.2290196850393702
11
4.2429148818897637
21
-4.2290196850393702
0
LINE
8
BLACK
6
CONTINUOUS
10
4.2429148818897637
20
-4.2290196850393702
11
4.242915157480315
21
-4.2290196456692914
0
LINE
8
BLACK
6
CONTINUOUS
10
4.242915157480315
20
-4.2290196456692914
11
4.24291531496063
21
-4.2290196456692914
0
LINE
8
BLACK
6
CONTINUOUS
10
4.24291531496063
20
-4.2290196456692914
11
4.2452990551181102
21
-4.2287633858267712
0
LINE
8
BLACK
6
CONTINUOUS
10
4.2452990551181102
20
-4.2287633858267712
11
4.2452991732283465
21
-4.2287633464566925
0
LINE
8
BLACK
6
CONTINUOUS
10
4.2452991732283465
20
-4.2287633464566925
11
4.245299251968504
21
-4.2287633464566925
0
LINE
8
BLACK
6
CONTINUOUS
10
4.245299251968504
20
-4.2287633464566925
11
4.2506930708661415
21
-4.2267515354330705
0
LINE
8
BLACK
6
CONTINUOUS
10
4.2506930708661415
20
-4.2267515354330705
11
4.2553016141732281
21
-4.223301614173228
0
LINE
8
BLACK
6
CONTINUOUS
10
4.2553016141732281
20
-4.223301614173228
11
4.2587515354330705
21
-4.2186930708661414
0
LINE
8
BLACK
6
CONTINUOUS
10
4.2587515354330705
20
-4.2186930708661414
11
4.2597773622047246
21
-4.2159426377952753
0
LINE
8
BLACK
6
CONTINUOUS
10
4.2597773622047246
20
-4.2159426377952753
11
4.261452401574803
21
-4.213705157480315
0
LINE
8
BLACK
6
CONTINUOUS
10
4.261452401574803
20
-4.213705157480315
11
4.264071338582677
21
-4.2127283464566929
0
LINE
8
BLACK
6
CONTINUOUS
10
4.264071338582677
20
-4.2127283464566929
11
4.2668025984251967
21
-4.2133225196850397
0
LINE
8
BLACK
6
CONTINUOUS
10
4.2668025984251967
20
-4.2133225196850397
11
4.2687790551181104
21
-4.2152989763779525
0
LINE
8
BLACK
6
CONTINUOUS
10
4.2687790551181104
20
-4.2152989763779525
11
4.2690728346456694
21
-4.2159422834645666
0
LINE
8
BLACK
6
CONTINUOUS
10
4.2690728346456694
20
-4.2159422834645666
11
4.2700988582677164
21
-4.2186930708661414
0
LINE
8
BLACK
6
CONTINUOUS
10
4.2700988582677164
20
-4.2186930708661414
11
4.2700988976377952
21
-4.2186931102362202
0
LINE
8
BLACK
6
CONTINUOUS
10
4.2700988976377952
20
-4.2186931102362202
11
4.2700989370078739
21
-4.2186932283464564
0
LINE
8
BLACK
6
CONTINUOUS
10
4.2700989370078739
20
-4.2186932283464564
11
4.2735487401574801
21
-4.223301614173228
0
LINE
8
BLACK
6
CONTINUOUS
10
4.2735487401574801
20
-4.223301614173228
11
4.2781571653543304
21
-4.226751456692913
0
LINE
8
BLACK
6
CONTINUOUS
10
4.2781571653543304
20
-4.226751456692913
11
4.2781572440944879
21
-4.2267514960629917
0
LINE
8
BLACK
6
CONTINUOUS
10
4.2781572440944879
20
-4.2267514960629917
11
4.2781573228346454
21
-4.2267515354330705
0
LINE
8
BLACK
6
CONTINUOUS
10
4.2781573228346454
20
-4.2267515354330705
11
4.2804832677165354
21
-4.2276190551181099
0
LINE
8
BLACK
6
CONTINUOUS
10
4.2804832677165354
20
-4.2276190551181099
11
4.2835509842519688
21
-4.2287633070866137
0
LINE
8
BLACK
6
CONTINUOUS
10
4.2835509842519688
20
-4.2287633070866137
11
4.2835512992125979
21
-4.2287633858267712
0
LINE
8
BLACK
6
CONTINUOUS
10
4.2835512992125979
20
-4.2287633858267712
11
4.285935039370079
21
-4.2290196456692914
0
LINE
8
BLACK
6
CONTINUOUS
10
4.285935039370079
20
-4.2290196456692914
11
4.2859352362204719
21
-4.2290196456692914
0
LINE
8
BLACK
6
CONTINUOUS
10
4.2859352362204719
20
-4.2290196456692914
11
4.2859355118110232
21
-4.2290196850393702
0
LINE
8
BLACK
6
CONTINUOUS
10
4.2859355118110232
20
-4.2290196850393702
11
4.2859357480314957
21
-4.2290196850393702
0
LINE
8
BLACK
6
CONTINUOUS
10
4.2859357480314957
20
-4.2290196850393702
11
4.4397650393700783
21
-4.2290196850393702
0
LINE
8
BLACK
6
CONTINUOUS
10
4.4397650393700783
20
-4.2290196850393702
11
4.4397652755905508
21
-4.2290196850393702
0
LINE
8
BLACK
6
CONTINUOUS
10
4.4397652755905508
20
-4.2290196850393702
11
4.4397655511811021
21
-4.2290196456692914
0
LINE
8
BLACK
6
CONTINUOUS
10
4.4397655511811021
20
-4.2290196456692914
11
4.4397657086614171
21
-4.2290196456692914
0
LINE
8
BLACK
6
CONTINUOUS
10
4.4397657086614171
20
-4.2290196456692914
11
4.4421494488188973
21
-4.2287633858267712
0
LINE
8
BLACK
6
CONTINUOUS
10
4.4421494488188973
20
-4.2287633858267712
11
4.4421495669291335
21
-4.2287633464566925
0
LINE
8
BLACK
6
CONTINUOUS
10
4.4421495669291335
20
-4.2287633464566925
11
4.442149645669291
21
-4.2287633464566925
0
LINE
8
BLACK
6
CONTINUOUS
10
4.442149645669291
20
-4.2287633464566925
11
4.4475434645669294
21
-4.2267515354330705
0
LINE
8
BLACK
6
CONTINUOUS
10
4.4475434645669294
20
-4.2267515354330705
11
4.452152007874016
21
-4.223301614173228
0
LINE
8
BLACK
6
CONTINUOUS
10
4.452152007874016
20
-4.223301614173228
11
4.4556019291338584
21
-4.2186930708661414
0
LINE
8
BLACK
6
CONTINUOUS
10
4.4556019291338584
20
-4.2186930708661414
11
4.4576137401574805
21
-4.213299251968504
0
LINE
8
BLACK
6
CONTINUOUS
10
4.4576137401574805
20
-4.213299251968504
11
4.4578700787401573
21
-4.2109148818897637
0
LINE
8
BLACK
6
CONTINUOUS
10
4.4578700787401573
20
-4.2109148818897637
11
4.4578700787401573
21
-4.0570851181102361
0
LINE
8
BLACK
6
CONTINUOUS
10
4.4578700787401573
20
-4.0570851181102361
11
4.4576751181102363
21
-4.0552716141732281
0
LINE
8
BLACK
6
CONTINUOUS
10
4.4576751181102363
20
-4.0552716141732281
11
4.4576137795275592
21
-4.0547009055118108
0
LINE
8
BLACK
6
CONTINUOUS
10
4.4576137795275592
20
-4.0547009055118108
11
4.4576137007874017
21
-4.0547005905511808
0
LINE
8
BLACK
6
CONTINUOUS
10
4.4576137007874017
20
-4.0547005905511808
11
4.4556019291338584
21
-4.0493069685039371
0
LINE
8
BLACK
6
CONTINUOUS
10
4.4556019291338584
20
-4.0493069685039371
11
4.4556018503937009
21
-4.0493067716535434
0
LINE
8
BLACK
6
CONTINUOUS
10
4.4556018503937009
20
-4.0493067716535434
11
4.452152007874016
21
-4.044698346456693
0
LINE
8
BLACK
6
CONTINUOUS
10
4.452152007874016
20
-4.044698346456693
11
4.4475435826771657
21
-4.0412485039370081
0
LINE
8
BLACK
6
CONTINUOUS
10
4.4475435826771657
20
-4.0412485039370081
11
4.4475433858267719
21
-4.0412484251968506
0
LINE
8
BLACK
6
CONTINUOUS
10
4.4475433858267719
20
-4.0412484251968506
11
4.4421497637795273
21
-4.0392366535433073
0
LINE
8
BLACK
6
CONTINUOUS
10
4.4421497637795273
20
-4.0392366535433073
11
4.4421494488188973
21
-4.0392365748031498
0
LINE
8
BLACK
6
CONTINUOUS
10
4.4421494488188973
20
-4.0392365748031498
11
4.4397657086614171
21
-4.0389803149606296
0
LINE
8
BLACK
6
CONTINUOUS
10
4.4397657086614171
20
-4.0389803149606296
11
4.4397652755905508
21
-4.0389803149606296
0
LINE
8
BLACK
6
CONTINUOUS
10
4.4397652755905508
20
-4.0389803149606296
11
4.2859355118110232
21
-4.0389803149606296
0
LINE
8
BLACK
6
CONTINUOUS
10
4.2859355118110232
20
-4.0389803149606296
11
4.285935039370079
21
-4.0389803149606296
0
LINE
8
BLACK
6
CONTINUOUS
10
4.285935039370079
20
-4.0389803149606296
11
4.2835512992125979
21
-4.0392365748031498
0
LINE
8
BLACK
6
CONTINUOUS
10
4.2835512992125979
20
-4.0392365748031498
11
4.2835509842519688
21
-4.0392366535433073
0
LINE
8
BLACK
6
CONTINUOUS
10
4.2835509842519688
20
-4.0392366535433073
11
4.2781573622047242
21
-4.0412484251968506
0
LINE
8
BLACK
6
CONTINUOUS
10
4.2781573622047242
20
-4.0412484251968506
11
4.2781571653543304
21
-4.0412485039370081
0
LINE
8
BLACK
6
CONTINUOUS
10
4.2781571653543304
20
-4.0412485039370081
11
4.2735487401574801
21
-4.044698346456693
0
LINE
8
BLACK
6
CONTINUOUS
10
4.2735487401574801
20
-4.044698346456693
11
4.2700988976377952
21
-4.0493067716535434
0
LINE
8
BLACK
6
CONTINUOUS
10
4.2700988976377952
20
-4.0493067716535434
11
4.2700988188976376
21
-4.0493069685039371
0
LINE
8
BLACK
6
CONTINUOUS
10
4.2700988188976376
20
-4.0493069685039371
11
4.2690730314960632
21
-4.0520572047244094
0
LINE
8
BLACK
6
CONTINUOUS
10
4.2690730314960632
20
-4.0520572047244094
11
4.2673979527559052
21
-4.0542948425196847
0
LINE
8
BLACK
6
CONTINUOUS
10
4.2673979527559052
20
-4.0542948425196847
11
4.26477905511811
21
-4.0552716141732281
0
LINE
8
BLACK
6
CONTINUOUS
10
4.26477905511811
20
-4.0552716141732281
11
4.2620477952755902
21
-4.0546774409448814
0
LINE
8
BLACK
6
CONTINUOUS
10
4.2620477952755902
20
-4.0546774409448814
11
4.2600713385826774
21
-4.0527009842519686
0
LINE
8
BLACK
6
CONTINUOUS
10
4.2600713385826774
20
-4.0527009842519686
11
4.2597773622047246
21
-4.0520572047244094
0
LINE
8
BLACK
6
CONTINUOUS
10
4.2597773622047246
20
-4.0520572047244094
11
4.2587515354330705
21
-4.0493069685039371
0
LINE
8
BLACK
6
CONTINUOUS
10
4.2587515354330705
20
-4.0493069685039371
11
4.258751456692913
21
-4.0493067716535434
0
LINE
8
BLACK
6
CONTINUOUS
10
4.258751456692913
20
-4.0493067716535434
11
4.2553016141732281
21
-4.044698346456693
0
LINE
8
BLACK
6
CONTINUOUS
10
4.2553016141732281
20
-4.044698346456693
11
4.2506931889763777
21
-4.0412485039370081
0
LINE
8
BLACK
6
CONTINUOUS
10
4.2506931889763777
20
-4.0412485039370081
11
4.2506929921259839
21
-4.0412484251968506
0
LINE
8
BLACK
6
CONTINUOUS
10
4.2506929921259839
20
-4.0412484251968506
11
4.2452993700787403
21
-4.0392366535433073
0
LINE
8
BLACK
6
CONTINUOUS
10
4.2452993700787403
20
-4.0392366535433073
11
4.2452990551181102
21
-4.0392365748031498
0
LINE
8
BLACK
6
CONTINUOUS
10
4.2452990551181102
20
-4.0392365748031498
11
4.24291531496063
21
-4.0389803149606296
0
LINE
8
BLACK
6
CONTINUOUS
10
4.24291531496063
20
-4.0389803149606296
11
4.2429148818897637
21
-4.0389803149606296
0
LINE
8
BLACK
6
CONTINUOUS
10
4.2429148818897637
20
-4.0389803149606296
11
4.0890851181102361
21
-4.0389803149606296
0
LINE
8
BLACK
6
CONTINUOUS
10
4.0890851181102361
20
-4.0389803149606296
11
4.0890846456692911
21
-4.0389803149606296
0
LINE
8
BLACK
6
CONTINUOUS
10
4.0890846456692911
20
-4.0389803149606296
11
4.0867009055118109
21
-4.0392365748031498
0
LINE
8
BLACK
6
CONTINUOUS
10
4.0867009055118109
20
-4.0392365748031498
11
4.0867005905511808
21
-4.0392366535433073
0
LINE
8
BLACK
6
CONTINUOUS
10
4.0867005905511808
20
-4.0392366535433073
11
4.0813069685039371
21
-4.0412484251968506
0
LINE
8
BLACK
6
CONTINUOUS
10
4.0813069685039371
20
-4.0412484251968506
11
4.0813067716535434
21
-4.0412485039370081
0
LINE
8
BLACK
6
CONTINUOUS
10
4.0813067716535434
20
-4.0412485039370081
11
4.076698346456693
21
-4.044698346456693
0
LINE
8
BLACK
6
CONTINUOUS
10
4.076698346456693
20
-4.044698346456693
11
4.0732485039370081
21
-4.0493067716535434
0
LINE
8
BLACK
6
CONTINUOUS
10
4.0732485039370081
20
-4.0493067716535434
11
4.0732484251968506
21
-4.0493069685039371
0
LINE
8
BLACK
6
CONTINUOUS
10
4.0732484251968506
20
-4.0493069685039371
11
4.0712366535433073
21
-4.0547005905511808
0
LINE
8
BLACK
6
CONTINUOUS
10
4.0712366535433073
20
-4.0547005905511808
11
4.0712365748031498
21
-4.0547009055118108
0
LINE
8
BLACK
6
CONTINUOUS
10
4.0712365748031498
20
-4.0547009055118108
11
4.0709803149606296
21
-4.0570846456692911
0
LINE
8
BLACK
6
CONTINUOUS
10
4.0709803149606296
20
-4.0570846456692911
11
4.0709803149606296
21
-4.21091531496063
0
LINE
8
BLACK
6
CONTINUOUS
10
5.6028721653543307
20
-3.6037707480314958
11
5.6028720472440945
21
-3.6037707480314958
0
LINE
8
BLACK
6
CONTINUOUS
10
5.6028720472440945
20
-3.6037707480314958
11
5.6028720078740157
21
-3.6037707874015745
0
LINE
8
BLACK
6
CONTINUOUS
10
5.6028720078740157
20
-3.6037707874015745
11
5.5961017322834641
21
-3.6061398031496061
0
LINE
8
BLACK
6
CONTINUOUS
10
5.5961017322834641
20
-3.6061398031496061
11
5.5961016535433066
21
-3.6061398425196849
0
LINE
8
BLACK
6
CONTINUOUS
10
5.5961016535433066
20
-3.6061398425196849
11
5.5926408267716532
21
-3.6083144488188976
0
LINE
8
BLACK
6
CONTINUOUS
10
5.5926408267716532
20
-3.6083144488188976
11
5.5900016141732278
21
-3.609074803149606
0
LINE
8
BLACK
6
CONTINUOUS
10
5.5900016141732278
20
-3.609074803149606
11
5.2499979921259845
21
-3.609074803149606
0
LINE
8
BLACK
6
CONTINUOUS
10
5.2499979921259845
20
-3.609074803149606
11
5.2473587795275591
21
-3.6083144488188976
0
LINE
8
BLACK
6
CONTINUOUS
10
5.2473587795275591
20
-3.6083144488188976
11
5.2438983070866136
21
-3.6061400787401574
0
LINE
8
BLACK
6
CONTINUOUS
10
5.2438983070866136
20
-3.6061400787401574
11
5.2438981889763783
21
-3.6061399999999999
0
LINE
8
BLACK
6
CONTINUOUS
10
5.2438981889763783
20
-3.6061399999999999
11
5.2371279527559054
21
-3.603771023622047
0
LINE
8
BLACK
6
CONTINUOUS
10
5.2371279527559054
20
-3.603771023622047
11
5.2371279133858266
21
-3.6037709842519683
0
LINE
8
BLACK
6
CONTINUOUS
10
5.2371279133858266
20
-3.6037709842519683
11
5.2371278346456691
21
-3.6037709842519683
0
LINE
8
BLACK
6
CONTINUOUS
10
5.2371278346456691
20
-3.6037709842519683
11
5.2299999999999995
21
-3.6029678740157478
0
LINE
8
BLACK
6
CONTINUOUS
10
5.2299999999999995
20
-3.6029678740157478
11
5.2228721653543309
21
-3.6037709842519683
0
LINE
8
BLACK
6
CONTINUOUS
10
5.2228721653543309
20
-3.6037709842519683
11
5.2228720472440946
21
-3.6037709842519683
0
LINE
8
BLACK
6
CONTINUOUS
10
5.2228720472440946
20
-3.6037709842519683
11
5.2228720078740158
21
-3.603771023622047
0
LINE
8
BLACK
6
CONTINUOUS
10
5.2228720078740158
20
-3.603771023622047
11
5.2161017322834642
21
-3.6061400393700787
0
LINE
8
BLACK
6
CONTINUOUS
10
5.2161017322834642
20
-3.6061400393700787
11
5.2161016141732279
21
-3.6061400787401574
0
LINE
8
BLACK
6
CONTINUOUS
10
5.2161016141732279
20
-3.6061400787401574
11
5.210028346456693
21
-3.6099561811023619
0
LINE
8
BLACK
6
CONTINUOUS
10
5.210028346456693
20
-3.6099561811023619
11
5.2100282677165355
21
-3.6099562204724407
0
LINE
8
BLACK
6
CONTINUOUS
10
5.2100282677165355
20
-3.6099562204724407
11
5.2049562204724404
21
-3.6150282677165353
0
LINE
8
BLACK
6
CONTINUOUS
10
5.2049562204724404
20
-3.6150282677165353
11
5.2049561811023617
21
-3.6150283464566928
0
LINE
8
BLACK
6
CONTINUOUS
10
5.2049561811023617
20
-3.6150283464566928
11
5.2011400787401572
21
-3.6211016141732282
0
LINE
8
BLACK
6
CONTINUOUS
10
5.2011400787401572
20
-3.6211016141732282
11
5.2011400393700784
21
-3.6211017322834644
0
LINE
8
BLACK
6
CONTINUOUS
10
5.2011400393700784
20
-3.6211017322834644
11
5.1998642519685037
21
-3.6247477952755904
0
LINE
8
BLACK
6
CONTINUOUS
10
5.1998642519685037
20
-3.6247477952755904
11
5.1987709842519685
21
-3.6278721653543307
0
LINE
8
BLACK
6
CONTINUOUS
10
5.1987709842519685
20
-3.6278721653543307
11
5.197967874015748
21
-3.6349999999999998
0
LINE
8
BLACK
6
CONTINUOUS
10
5.197967874015748
20
-3.6349999999999998
11
5.1987709842519685
21
-3.6421278346456694
0
LINE
8
BLACK
6
CONTINUOUS
10
5.1987709842519685
20
-3.6421278346456694
11
5.1987709842519685
21
-3.6421279133858269
0
LINE
8
BLACK
6
CONTINUOUS
10
5.1987709842519685
20
-3.6421279133858269
11
5.1987710236220472
21
-3.6421279527559056
0
LINE
8
BLACK
6
CONTINUOUS
10
5.1987710236220472
20
-3.6421279527559056
11
5.2011400393700784
21
-3.6488982283464568
0
LINE
8
BLACK
6
CONTINUOUS
10
5.2011400393700784
20
-3.6488982283464568
11
5.2011400787401572
21
-3.6488983464566926
0
LINE
8
BLACK
6
CONTINUOUS
10
5.2011400787401572
20
-3.6488983464566926
11
5.2049561811023617
21
-3.6549716141732285
0
LINE
8
BLACK
6
CONTINUOUS
10
5.2049561811023617
20
-3.6549716141732285
11
5.2049562204724404
21
-3.6549716929133855
0
LINE
8
BLACK
6
CONTINUOUS
10
5.2049562204724404
20
-3.6549716929133855
11
5.2100282677165355
21
-3.6600437401574801
0
LINE
8
BLACK
6
CONTINUOUS
10
5.2100282677165355
20
-3.6600437401574801
11
5.210028346456693
21
-3.6600437795275589
0
LINE
8
BLACK
6
CONTINUOUS
10
5.210028346456693
20
-3.6600437795275589
11
5.2161016141732279
21
-3.6638598818897639
0
LINE
8
BLACK
6
CONTINUOUS
10
5.2161016141732279
20
-3.6638598818897639
11
5.2161016535433067
21
-3.6638598818897639
0
LINE
8
BLACK
6
CONTINUOUS
10
5.2161016535433067
20
-3.6638598818897639
11
5.2161017716535429
21
-3.6638599606299214
0
LINE
8
BLACK
6
CONTINUOUS
10
5.2161017716535429
20
-3.6638599606299214
11
5.2228721653543309
21
-3.6662290157480313
0
LINE
8
BLACK
6
CONTINUOUS
10
5.2228721653543309
20
-3.6662290157480313
11
5.2299999999999995
21
-3.6670321259842518
0
LINE
8
BLACK
6
CONTINUOUS
10
5.2299999999999995
20
-3.6670321259842518
11
5.2371278346456691
21
-3.6662290157480313
0
LINE
8
BLACK
6
CONTINUOUS
10
5.2371278346456691
20
-3.6662290157480313
11
5.2438982283464561
21
-3.6638599606299214
0
LINE
8
BLACK
6
CONTINUOUS
10
5.2438982283464561
20
-3.6638599606299214
11
5.2473587795275591
21
-3.6616855118110236
0
LINE
8
BLACK
6
CONTINUOUS
10
5.2473587795275591
20
-3.6616855118110236
11
5.2499979921259845
21
-3.6609251968503935
0
LINE
8
BLACK
6
CONTINUOUS
10
5.2499979921259845
20
-3.6609251968503935
11
5.5900023622047241
21
-3.6609251968503935
0
LINE
8
BLACK
6
CONTINUOUS
10
5.5900023622047241
20
-3.6609251968503935
11
5.5926415748031495
21
-3.6616855511811024
0
LINE
8
BLACK
6
CONTINUOUS
10
5.5926415748031495
20
-3.6616855511811024
11
5.5961017716535428
21
-3.6638597244094488
0
LINE
8
BLACK
6
CONTINUOUS
10
5.5961017716535428
20
-3.6638597244094488
11
5.6028721653543307
21
-3.6662287795275588
0
LINE
8
BLACK
6
CONTINUOUS
10
5.6028721653543307
20
-3.6662287795275588
11
5.6099999999999994
21
-3.6670318897637793
0
LINE
8
BLACK
6
CONTINUOUS
10
5.6099999999999994
20
-3.6670318897637793
11
5.617127834645669
21
-3.6662287795275588
0
LINE
8
BLACK
6
CONTINUOUS
10
5.617127834645669
20
-3.6662287795275588
11
5.6238982283464569
21
-3.6638597244094488
0
LINE
8
BLACK
6
CONTINUOUS
10
5.6238982283464569
20
-3.6638597244094488
11
5.6299716929133856
21
-3.6600435039370076
0
LINE
8
BLACK
6
CONTINUOUS
10
5.6299716929133856
20
-3.6600435039370076
11
5.6350437401574798
21
-3.6549714566929135
0
LINE
8
BLACK
6
CONTINUOUS
10
5.6350437401574798
20
-3.6549714566929135
11
5.6388599606299215
21
-3.6488979921259843
0
LINE
8
BLACK
6
CONTINUOUS
10
5.6388599606299215
20
-3.6488979921259843
11
5.6412290157480314
21
-3.6421275984251968
0
LINE
8
BLACK
6
CONTINUOUS
10
5.6412290157480314
20
-3.6421275984251968
11
5.6420321259842519
21
-3.6349997637795273
0
LINE
8
BLACK
6
CONTINUOUS
10
5.6420321259842519
20
-3.6349997637795273
11
5.6412290157480314
21
-3.6278719291338581
0
LINE
8
BLACK
6
CONTINUOUS
10
5.6412290157480314
20
-3.6278719291338581
11
5.6388599606299215
21
-3.6211015354330707
0
LINE
8
BLACK
6
CONTINUOUS
10
5.6388599606299215
20
-3.6211015354330707
11
5.6388598818897639
21
-3.6211014173228344
0
LINE
8
BLACK
6
CONTINUOUS
10
5.6388598818897639
20
-3.6211014173228344
11
5.6388598818897639
21
-3.6211013779527557
0
LINE
8
BLACK
6
CONTINUOUS
10
5.6388598818897639
20
-3.6211013779527557
11
5.6350437795275585
21
-3.6150281102362203
0
LINE
8
BLACK
6
CONTINUOUS
10
5.6350437795275585
20
-3.6150281102362203
11
5.6350437401574798
21
-3.6150280314960628
0
LINE
8
BLACK
6
CONTINUOUS
10
5.6350437401574798
20
-3.6150280314960628
11
5.6299716929133856
21
-3.6099559842519686
0
LINE
8
BLACK
6
CONTINUOUS
10
5.6299716929133856
20
-3.6099559842519686
11
5.6299716141732281
21
-3.6099559448818899
0
LINE
8
BLACK
6
CONTINUOUS
10
5.6299716141732281
20
-3.6099559448818899
11
5.6238983464566932
21
-3.6061398425196849
0
LINE
8
BLACK
6
CONTINUOUS
10
5.6238983464566932
20
-3.6061398425196849
11
5.6238982283464569
21
-3.6061398031496061
0
LINE
8
BLACK
6
CONTINUOUS
10
5.6238982283464569
20
-3.6061398031496061
11
5.6171279527559053
21
-3.6037707874015745
0
LINE
8
BLACK
6
CONTINUOUS
10
5.6171279527559053
20
-3.6037707874015745
11
5.6171279133858265
21
-3.6037707480314958
0
LINE
8
BLACK
6
CONTINUOUS
10
5.6171279133858265
20
-3.6037707480314958
11
5.617127834645669
21
-3.6037707480314958
0
LINE
8
BLACK
6
CONTINUOUS
10
5.617127834645669
20
-3.6037707480314958
11
5.6099999999999994
21
-3.6029676377952753
0
LINE
8
BLACK
6
CONTINUOUS
10
5.6099999999999994
20
-3.6029676377952753
11
5.6028721653543307
21
-3.6037707480314958
0
LINE
8
BLACK
6
CONTINUOUS
10
4.0712366929133861
20
-3.6203641338582675
11
4.0714929527559054
21
-3.6227478740157482
0
LINE
8
BLACK
6
CONTINUOUS
10
4.0714929527559054
20
-3.6227478740157482
11
4.0714930314960629
21
-3.6227481889763777
0
LINE
8
BLACK
6
CONTINUOUS
10
4.0714930314960629
20
-3.6227481889763777
11
4.0735048031496062
21
-3.6281418110236219
0
LINE
8
BLACK
6
CONTINUOUS
10
4.0735048031496062
20
-3.6281418110236219
11
4.0735048818897637
21
-3.6281420078740156
0
LINE
8
BLACK
6
CONTINUOUS
10
4.0735048818897637
20
-3.6281420078740156
11
4.0769547244094486
21
-3.632750433070866
0
LINE
8
BLACK
6
CONTINUOUS
10
4.0769547244094486
20
-3.632750433070866
11
4.081563149606299
21
-3.6362002755905509
0
LINE
8
BLACK
6
CONTINUOUS
10
4.081563149606299
20
-3.6362002755905509
11
4.0815632283464565
21
-3.6362003149606297
0
LINE
8
BLACK
6
CONTINUOUS
10
4.0815632283464565
20
-3.6362003149606297
11
4.081563307086614
21
-3.6362003543307084
0
LINE
8
BLACK
6
CONTINUOUS
10
4.081563307086614
20
-3.6362003543307084
11
4.0838892519685039
21
-3.6370678740157478
0
LINE
8
BLACK
6
CONTINUOUS
10
4.0838892519685039
20
-3.6370678740157478
11
4.0869569685039373
21
-3.6382121259842517
0
LINE
8
BLACK
6
CONTINUOUS
10
4.0869569685039373
20
-3.6382121259842517
11
4.0869572834645664
21
-3.6382122047244092
0
LINE
8
BLACK
6
CONTINUOUS
10
4.0869572834645664
20
-3.6382122047244092
11
4.0893410236220475
21
-3.638468464566929
0
LINE
8
BLACK
6
CONTINUOUS
10
4.0893410236220475
20
-3.638468464566929
11
4.0893412204724404
21
-3.638468464566929
0
LINE
8
BLACK
6
CONTINUOUS
10
4.0893412204724404
20
-3.638468464566929
11
4.0893414960629917
21
-3.6384685039370077
0
LINE
8
BLACK
6
CONTINUOUS
10
4.0893414960629917
20
-3.6384685039370077
11
4.0893417322834642
21
-3.6384685039370077
0
LINE
8
BLACK
6
CONTINUOUS
10
4.0893417322834642
20
-3.6384685039370077
11
4.2431710236220468
21
-3.6384685039370077
0
LINE
8
BLACK
6
CONTINUOUS
10
4.2431710236220468
20
-3.6384685039370077
11
4.2431712598425193
21
-3.6384685039370077
0
LINE
8
BLACK
6
CONTINUOUS
10
4.2431712598425193
20
-3.6384685039370077
11
4.2431715354330706
21
-3.638468464566929
0
LINE
8
BLACK
6
CONTINUOUS
10
4.2431715354330706
20
-3.638468464566929
11
4.2431716929133856
21
-3.638468464566929
0
LINE
8
BLACK
6
CONTINUOUS
10
4.2431716929133856
20
-3.638468464566929
11
4.2455554330708658
21
-3.6382122047244092
0
LINE
8
BLACK
6
CONTINUOUS
10
4.2455554330708658
20
-3.6382122047244092
11
4.2455555511811021
21
-3.6382121653543305
0
LINE
8
BLACK
6
CONTINUOUS
10
4.2455555511811021
20
-3.6382121653543305
11
4.2455556299212596
21
-3.6382121653543305
0
LINE
8
BLACK
6
CONTINUOUS
10
4.2455556299212596
20
-3.6382121653543305
11
4.2509494488188979
21
-3.6362003543307084
0
LINE
8
BLACK
6
CONTINUOUS
10
4.2509494488188979
20
-3.6362003543307084
11
4.2525529527559058
21
-3.6349999999999998
0
LINE
8
BLACK
6
CONTINUOUS
10
4.2525529527559058
20
-3.6349999999999998
11
4.2555579921259845
21
-3.632750433070866
0
LINE
8
BLACK
6
CONTINUOUS
10
4.2555579921259845
20
-3.632750433070866
11
4.2590077952755907
21
-3.6281420472440944
0
LINE
8
BLACK
6
CONTINUOUS
10
4.2590077952755907
20
-3.6281420472440944
11
4.2590077559055119
21
-3.6281420472440944
0
LINE
8
BLACK
6
CONTINUOUS
10
4.2590077559055119
20
-3.6281420472440944
11
4.259007913385827
21
-3.6281418897637794
0
LINE
8
BLACK
6
CONTINUOUS
10
4.259007913385827
20
-3.6281418897637794
11
4.2600337401574802
21
-3.6253914566929133
0
LINE
8
BLACK
6
CONTINUOUS
10
4.2600337401574802
20
-3.6253914566929133
11
4.2617087795275586
21
-3.6231539763779526
0
LINE
8
BLACK
6
CONTINUOUS
10
4.2617087795275586
20
-3.6231539763779526
11
4.2643277165354334
21
-3.6221771653543304
0
LINE
8
BLACK
6
CONTINUOUS
10
4.2643277165354334
20
-3.6221771653543304
11
4.2670589763779523
21
-3.6227713385826772
0
LINE
8
BLACK
6
CONTINUOUS
10
4.2670589763779523
20
-3.6227713385826772
11
4.269035433070866
21
-3.6247477952755904
0
LINE
8
BLACK
6
CONTINUOUS
10
4.269035433070866
20
-3.6247477952755904
11
4.269329212598425
21
-3.6253911023622045
0
LINE
8
BLACK
6
CONTINUOUS
10
4.269329212598425
20
-3.6253911023622045
11
4.270355236220472
21
-3.6281418897637794
0
LINE
8
BLACK
6
CONTINUOUS
10
4.270355236220472
20
-3.6281418897637794
11
4.2703552755905507
21
-3.6281419291338581
0
LINE
8
BLACK
6
CONTINUOUS
10
4.2703552755905507
20
-3.6281419291338581
11
4.2703553149606295
21
-3.6281420472440944
0
LINE
8
BLACK
6
CONTINUOUS
10
4.2703553149606295
20
-3.6281420472440944
11
4.2738051181102366
21
-3.632750433070866
0
LINE
8
BLACK
6
CONTINUOUS
10
4.2738051181102366
20
-3.632750433070866
11
4.2784135433070869
21
-3.6362002755905509
0
LINE
8
BLACK
6
CONTINUOUS
10
4.2784135433070869
20
-3.6362002755905509
11
4.2784136220472444
21
-3.6362003149606297
0
LINE
8
BLACK
6
CONTINUOUS
10
4.2784136220472444
20
-3.6362003149606297
11
4.2784137007874019
21
-3.6362003543307084
0
LINE
8
BLACK
6
CONTINUOUS
10
4.2784137007874019
20
-3.6362003543307084
11
4.280739645669291
21
-3.6370678740157478
0
LINE
8
BLACK
6
CONTINUOUS
10
4.280739645669291
20
-3.6370678740157478
11
4.2838073622047244
21
-3.6382121259842517
0
LINE
8
BLACK
6
CONTINUOUS
10
4.2838073622047244
20
-3.6382121259842517
11
4.2838076771653544
21
-3.6382122047244092
0
LINE
8
BLACK
6
CONTINUOUS
10
4.2838076771653544
20
-3.6382122047244092
11
4.2861914173228346
21
-3.638468464566929
0
LINE
8
BLACK
6
CONTINUOUS
10
4.2861914173228346
20
-3.638468464566929
11
4.2861916141732284
21
-3.638468464566929
0
LINE
8
BLACK
6
CONTINUOUS
10
4.2861916141732284
20
-3.638468464566929
11
4.2861918897637796
21
-3.6384685039370077
0
LINE
8
BLACK
6
CONTINUOUS
10
4.2861918897637796
20
-3.6384685039370077
11
4.2861921259842521
21
-3.6384685039370077
0
LINE
8
BLACK
6
CONTINUOUS
10
4.2861921259842521
20
-3.6384685039370077
11
4.4400214173228347
21
-3.6384685039370077
0
LINE
8
BLACK
6
CONTINUOUS
10
4.4400214173228347
20
-3.6384685039370077
11
4.4400216535433072
21
-3.6384685039370077
0
LINE
8
BLACK
6
CONTINUOUS
10
4.4400216535433072
20
-3.6384685039370077
11
4.4400219291338585
21
-3.638468464566929
0
LINE
8
BLACK
6
CONTINUOUS
10
4.4400219291338585
20
-3.638468464566929
11
4.4400220866141735
21
-3.638468464566929
0
LINE
8
BLACK
6
CONTINUOUS
10
4.4400220866141735
20
-3.638468464566929
11
4.4424058267716537
21
-3.6382122047244092
0
LINE
8
BLACK
6
CONTINUOUS
10
4.4424058267716537
20
-3.6382122047244092
11
4.44240594488189
21
-3.6382121653543305
0
LINE
8
BLACK
6
CONTINUOUS
10
4.44240594488189
20
-3.6382121653543305
11
4.4424060236220475
21
-3.6382121653543305
0
LINE
8
BLACK
6
CONTINUOUS
10
4.4424060236220475
20
-3.6382121653543305
11
4.447799842519685
21
-3.6362003543307084
0
LINE
8
BLACK
6
CONTINUOUS
10
4.447799842519685
20
-3.6362003543307084
11
4.4494033464566929
21
-3.6349999999999998
0
LINE
8
BLACK
6
CONTINUOUS
10
4.4494033464566929
20
-3.6349999999999998
11
4.4524083858267716
21
-3.632750433070866
0
LINE
8
BLACK
6
CONTINUOUS
10
4.4524083858267716
20
-3.632750433070866
11
4.4558582283464565
21
-3.6281420078740156
0
LINE
8
BLACK
6
CONTINUOUS
10
4.4558582283464565
20
-3.6281420078740156
11
4.4558582283464565
21
-3.6281419685039369
0
LINE
8
BLACK
6
CONTINUOUS
10
4.4558582283464565
20
-3.6281419685039369
11
4.455858307086614
21
-3.6281418897637794
0
LINE
8
BLACK
6
CONTINUOUS
10
4.455858307086614
20
-3.6281418897637794
11
4.457870118110236
21
-3.6227480708661415
0
LINE
8
BLACK
6
CONTINUOUS
10
4.457870118110236
20
-3.6227480708661415
11
4.4580471653543308
21
-3.6211014960629919
0
LINE
8
BLACK
6
CONTINUOUS
10
4.4580471653543308
20
-3.6211014960629919
11
4.4581264173228341
21
-3.6203641338582675
0
LINE
8
BLACK
6
CONTINUOUS
10
4.4581264173228341
20
-3.6203641338582675
11
4.4581264566929129
21
-3.6203634645669291
0
LINE
8
BLACK
6
CONTINUOUS
10
4.4581264566929129
20
-3.6203634645669291
11
4.4581264566929129
21
-3.4665341338582678
0
LINE
8
BLACK
6
CONTINUOUS
10
4.4581264566929129
20
-3.4665341338582678
11
4.4581264173228341
21
-3.466533464566929
0
LINE
8
BLACK
6
CONTINUOUS
10
4.4581264173228341
20
-3.466533464566929
11
4.4578701574803148
21
-3.4641497244094488
0
LINE
8
BLACK
6
CONTINUOUS
10
4.4578701574803148
20
-3.4641497244094488
11
4.4578700787401573
21
-3.4641494094488188
0
LINE
8
BLACK
6
CONTINUOUS
10
4.4578700787401573
20
-3.4641494094488188
11
4.455858307086614
21
-3.4587557874015746
0
LINE
8
BLACK
6
CONTINUOUS
10
4.455858307086614
20
-3.4587557874015746
11
4.4558582283464565
21
-3.4587555905511809
0
LINE
8
BLACK
6
CONTINUOUS
10
4.4558582283464565
20
-3.4587555905511809
11
4.4524083858267716
21
-3.4541471653543305
0
LINE
8
BLACK
6
CONTINUOUS
10
4.4524083858267716
20
-3.4541471653543305
11
4.4477999606299212
21
-3.4506973228346456
0
LINE
8
BLACK
6
CONTINUOUS
10
4.4477999606299212
20
-3.4506973228346456
11
4.4477997637795275
21
-3.4506972440944881
0
LINE
8
BLACK
6
CONTINUOUS
10
4.4477997637795275
20
-3.4506972440944881
11
4.4424061417322838
21
-3.4486854724409448
0
LINE
8
BLACK
6
CONTINUOUS
10
4.4424061417322838
20
-3.4486854724409448
11
4.4424058267716537
21
-3.4486853937007873
0
LINE
8
BLACK
6
CONTINUOUS
10
4.4424058267716537
20
-3.4486853937007873
11
4.4400220866141735
21
-3.4484291338582675
0
LINE
8
BLACK
6
CONTINUOUS
10
4.4400220866141735
20
-3.4484291338582675
11
4.4400216535433072
21
-3.4484291338582675
0
LINE
8
BLACK
6
CONTINUOUS
10
4.4400216535433072
20
-3.4484291338582675
11
4.2861918897637796
21
-3.4484291338582675
0
LINE
8
BLACK
6
CONTINUOUS
10
4.2861918897637796
20
-3.4484291338582675
11
4.2861914173228346
21
-3.4484291338582675
0
LINE
8
BLACK
6
CONTINUOUS
10
4.2861914173228346
20
-3.4484291338582675
11
4.2838076771653544
21
-3.4486853937007873
0
LINE
8
BLACK
6
CONTINUOUS
10
4.2838076771653544
20
-3.4486853937007873
11
4.2838073622047244
21
-3.4486854724409448
0
LINE
8
BLACK
6
CONTINUOUS
10
4.2838073622047244
20
-3.4486854724409448
11
4.2784137401574807
21
-3.4506972440944881
0
LINE
8
BLACK
6
CONTINUOUS
10
4.2784137401574807
20
-3.4506972440944881
11
4.2784135433070869
21
-3.4506973228346456
0
LINE
8
BLACK
6
CONTINUOUS
10
4.2784135433070869
20
-3.4506973228346456
11
4.2738051181102366
21
-3.4541471653543305
0
LINE
8
BLACK
6
CONTINUOUS
10
4.2738051181102366
20
-3.4541471653543305
11
4.2703552755905507
21
-3.4587555905511809
0
LINE
8
BLACK
6
CONTINUOUS
10
4.2703552755905507
20
-3.4587555905511809
11
4.2703551968503932
21
-3.4587557874015746
0
LINE
8
BLACK
6
CONTINUOUS
10
4.2703551968503932
20
-3.4587557874015746
11
4.2693294094488188
21
-3.461506023622047
0
LINE
8
BLACK
6
CONTINUOUS
10
4.2693294094488188
20
-3.461506023622047
11
4.2676543307086616
21
-3.4637436614173227
0
LINE
8
BLACK
6
CONTINUOUS
10
4.2676543307086616
20
-3.4637436614173227
11
4.2650354330708664
21
-3.4647204330708661
0
LINE
8
BLACK
6
CONTINUOUS
10
4.2650354330708664
20
-3.4647204330708661
11
4.2623041732283466
21
-3.4641262598425198
0
LINE
8
BLACK
6
CONTINUOUS
10
4.2623041732283466
20
-3.4641262598425198
11
4.260327716535433
21
-3.4621498031496061
0
LINE
8
BLACK
6
CONTINUOUS
10
4.260327716535433
20
-3.4621498031496061
11
4.2600337401574802
21
-3.461506023622047
0
LINE
8
BLACK
6
CONTINUOUS
10
4.2600337401574802
20
-3.461506023622047
11
4.259007913385827
21
-3.4587557874015746
0
LINE
8
BLACK
6
CONTINUOUS
10
4.259007913385827
20
-3.4587557874015746
11
4.2590078346456695
21
-3.4587555905511809
0
LINE
8
BLACK
6
CONTINUOUS
10
4.2590078346456695
20
-3.4587555905511809
11
4.2555579921259845
21
-3.4541471653543305
0
LINE
8
BLACK
6
CONTINUOUS
10
4.2555579921259845
20
-3.4541471653543305
11
4.2509495669291342
21
-3.4506973228346456
0
LINE
8
BLACK
6
CONTINUOUS
10
4.2509495669291342
20
-3.4506973228346456
11
4.2509493700787404
21
-3.4506972440944881
0
LINE
8
BLACK
6
CONTINUOUS
10
4.2509493700787404
20
-3.4506972440944881
11
4.2455557480314958
21
-3.4486854724409448
0
LINE
8
BLACK
6
CONTINUOUS
10
4.2455557480314958
20
-3.4486854724409448
11
4.2455554330708658
21
-3.4486853937007873
0
LINE
8
BLACK
6
CONTINUOUS
10
4.2455554330708658
20
-3.4486853937007873
11
4.2431716929133856
21
-3.4484291338582675
0
LINE
8
BLACK
6
CONTINUOUS
10
4.2431716929133856
20
-3.4484291338582675
11
4.2431712598425193
21
-3.4484291338582675
0
LINE
8
BLACK
6
CONTINUOUS
10
4.2431712598425193
20
-3.4484291338582675
11
4.0893414960629917
21
-3.4484291338582675
0
LINE
8
BLACK
6
CONTINUOUS
10
4.0893414960629917
20
-3.4484291338582675
11
4.0893410236220475
21
-3.4484291338582675
0
LINE
8
BLACK
6
CONTINUOUS
10
4.0893410236220475
20
-3.4484291338582675
11
4.0869572834645664
21
-3.4486853937007873
0
LINE
8
BLACK
6
CONTINUOUS
10
4.0869572834645664
20
-3.4486853937007873
11
4.0869569685039373
21
-3.4486854724409448
0
LINE
8
BLACK
6
CONTINUOUS
10
4.0869569685039373
20
-3.4486854724409448
11
4.0815633464566927
21
-3.4506972440944881
0
LINE
8
BLACK
6
CONTINUOUS
10
4.0815633464566927
20
-3.4506972440944881
11
4.081563149606299
21
-3.4506973228346456
0
LINE
8
BLACK
6
CONTINUOUS
10
4.081563149606299
20
-3.4506973228346456
11
4.0769547244094486
21
-3.4541471653543305
0
LINE
8
BLACK
6
CONTINUOUS
10
4.0769547244094486
20
-3.4541471653543305
11
4.0735048818897637
21
-3.4587555905511809
0
LINE
8
BLACK
6
CONTINUOUS
10
4.0735048818897637
20
-3.4587555905511809
11
4.0735048031496062
21
-3.4587557874015746
0
LINE
8
BLACK
6
CONTINUOUS
10
4.0735048031496062
20
-3.4587557874015746
11
4.0714930314960629
21
-3.4641494094488188
0
LINE
8
BLACK
6
CONTINUOUS
10
4.0714930314960629
20
-3.4641494094488188
11
4.0714929527559054
21
-3.4641497244094488
0
LINE
8
BLACK
6
CONTINUOUS
10
4.0714929527559054
20
-3.4641497244094488
11
4.0712366929133861
21
-3.466533464566929
0
LINE
8
BLACK
6
CONTINUOUS
10
4.0712366929133861
20
-3.466533464566929
11
4.0712366929133861
21
-3.6203641338582675
0
CIRCLE
8
BLACK
10
4.363106771653543
20
-3.5434488188976379
40
0.0068897637795276
0
CIRCLE
8
BLACK
10
4.1662563779527559
20
-3.5434488188976379
40
0.0068897637795276
0
CIRCLE
8
BLACK
10
4.363106771653543
20
-3.7402992125984249
40
0.0068897637795276
0
CIRCLE
8
BLACK
10
4.1662563779527559
20
-3.7402992125984249
40
0.0068897637795276
0
CIRCLE
8
BLACK
10
4.3628503937007874
20
-4.1340000000000003
40
0.0068897637795276
0
CIRCLE
8
BLACK
10
4.1659999999999995
20
-4.1340000000000003
40
0.0068897637795276
0
CIRCLE
8
BLACK
10
4.363106771653543
20
-3.9371496062992124
40
0.0068897637795276
0
CIRCLE
8
BLACK
10
4.1662563779527559
20
-3.9371496062992124
40
0.0068897637795276
0
CIRCLE
8
BLACK
10
5.3169094488188975
20
-3.5744881889763778
40
0.0068897637795276
0
CIRCLE
8
BLACK
10
5.3680905511811021
20
-3.5744881889763778
40
0.0068897637795276
0
CIRCLE
8
BLACK
10
5.3169094488188975
20
-3.5233070866141731
40
0.0068897637795276
0
CIRCLE
8
BLACK
10
5.3680905511811021
20
-3.5233070866141731
40
0.0068897637795276
0
CIRCLE
8
BLACK
10
5.3169094488188975
20
-3.4721259842519685
40
0.0068897637795276
0
CIRCLE
8
BLACK
10
5.3680905511811021
20
-3.4721259842519685
40
0.0068897637795276
0
CIRCLE
8
BLACK
10
4.
20
-4.6799999999999997
40
0.0068897637795276
0
CIRCLE
8
BLACK
10
5.7000000000000002
20
-3.
40
0.0068897637795276
0
CIRCLE
8
BLACK
10
5.7000000000000002
20
-4.6799999999999997
40
0.0068897637795276
0
CIRCLE
8
BLACK
10
4.
20
-3.
40
0.0068897637795276
0
CIRCLE
8
BLACK
10
5.3799999999999999
20
-3.2799999999999998
40
0.0059055118110236
0
CIRCLE
8
BLACK
10
4.9699999999999998
20
-3.8399999999999999
40
0.0059055118110236
0
CIRCLE
8
BLACK
10
5.3449999999999998
20
-3.3999999999999999
40
0.0059055118110236
0
CIRCLE
8
BLACK
10
4.9699999999999998
20
-3.8100000000000001
40
0.0059055118110236
0
CIRCLE
8
BLACK
10
5.3099999999999996
20
-3.3700000000000001
40
0.0059055118110236
0
CIRCLE
8
BLACK
10
5.3799999999999999
20
-3.3700000000000001
40
0.0059055118110236
0
CIRCLE
8
BLACK
10
5.3449999999999998
20
-3.3100000000000001
40
0.0059055118110236
0
CIRCLE
8
BLACK
10
5.3799993700787399
20
-3.3999999999999999
40
0.0059055118110236
0
CIRCLE
8
BLACK
10
4.932012244094488
20
-3.9849933858267717
40
0.0059055118110236
0
CIRCLE
8
BLACK
10
4.9299999999999997
20
-3.8399999999999999
40
0.0059055118110236
0
CIRCLE
8
BLACK
10
5.3799999999999999
20
-3.3099996062992125
40
0.0059055118110236
0
CIRCLE
8
BLACK
10
5.3799999999999999
20
-3.3399999999999999
40
0.0059055118110236
0
CIRCLE
8
BLACK
10
4.2000000000000002
20
-3.3599999999999999
40
0.0059055118110236
0
CIRCLE
8
BLACK
10
4.8003690157480312
20
-3.6478334645669293
40
0.0059055118110236
0
CIRCLE
8
BLACK
10
5.3099999999999996
20
-3.3399999999999999
40
0.0059055118110236
0
CIRCLE
8
BLACK
10
5.3099999999999996
20
-3.3100000000000001
40
0.0059055118110236
0
CIRCLE
8
BLACK
10
5.3449999999999998
20
-3.3399999999999999
40
0.0059055118110236
0
CIRCLE
8
BLACK
10
4.9397551968503937
20
-3.649863346456693
40
0.0059055118110236
0
CIRCLE
8
BLACK
10
4.8899999999999997
20
-3.7799999999999998
40
0.0059055118110236
0
CIRCLE
8
BLACK
10
4.8899999999999997
20
-3.8100000000000001
40
0.0059055118110236
0
CIRCLE
8
BLACK
10
5.3099999999999996
20
-3.2799999999999998
40
0.0059055118110236
0
CIRCLE
8
BLACK
10
4.8899999999999997
20
-3.8399999999999999
40
0.0059055118110236
0
CIRCLE
8
BLACK
10
5.3099999999999996
20
-3.25
40
0.0059055118110236
0
CIRCLE
8
BLACK
10
5.3449999999999998
20
-3.25
40
0.0059055118110236
0
CIRCLE
8
BLACK
10
4.9699999999999998
20
-3.7799999999999998
40
0.0059055118110236
0
CIRCLE
8
BLACK
10
4.6497312992125988
20
-3.9829101181102362
40
0.0059055118110236
0
CIRCLE
8
BLACK
10
5.3799999999999999
20
-3.25
40
0.0059055118110236
0
CIRCLE
8
BLACK
10
5.0715902755905509
20
-3.9829101181102362
40
0.0059055118110236
0
CIRCLE
8
BLACK
10
5.3449999999999998
20
-3.3700000000000001
40
0.0059055118110236
0
CIRCLE
8
BLACK
10
4.7913925590551179
20
-3.9839517716535431
40
0.0059055118110236
0
CIRCLE
8
BLACK
10
4.9299999999999997
20
-3.7799999999999998
40
0.0059055118110236
0
CIRCLE
8
BLACK
10
5.3449999999999998
20
-3.2799999999999998
40
0.0059055118110236
0
CIRCLE
8
BLACK
10
4.6609828740157475
20
-3.6525698818897636
40
0.0059055118110236
0
CIRCLE
8
BLACK
10
5.3099999999999996
20
-3.3999999999999999
40
0.0059055118110236
0
CIRCLE
8
BLACK
10
5.0784647244094483
20
-3.6485100787401574
40
0.0059055118110236
0
CIRCLE
8
BLACK
10
4.9299999999999997
20
-3.8100000000000001
40
0.0059055118110236
0
CIRCLE
8
BLACK
10
5.2299999999999995
20
-3.6349999999999998
40
0.0059055118110236
0
CIRCLE
8
BLACK
10
5.6099999999999994
20
-3.6349997637795273
40
0.0059055118110236
  0
ENDSEC
  0
EOF
