  0
SECTION
  2
HEADER
  9
$ANGBASE
  50
0.0
  9
$ANGDIR
  70
1
  9
$MEASUREMENT
  70
0
  0
ENDSEC
  0
SECTION
  2
TABLES
  0
TABLE
  2
LTYPE
  70
4
  0
LTYPE
  5
40F
  2
CONTINUOUS
  70
0
  3
Solid line
  72
65
  73
0
  40
0.0
  0
LTYPE
  5
410
  2
DASHDOT
 70
0
  3
Dash Dot ____ _ ____ _
 72
65
 73
4
 40
2.0
 49
1.25
 49
-0.25
 49
0.25
 49
-0.25
  0
LTYPE
  5
411
  2
DASHED
 70
0
  3
Dashed __ __ __ __ __
 72
65
 73
2
 40
0.75
 49
0.5
 49
-0.25
  0
LTYPE
  5
43B
  2
DOTTED
 70
0
  3
Dotted .  .  .  .
 72
65
 73
2
 40
0.2
 49
0.0
 49
-0.2
  0
ENDTAB
  0
TABLE
  2
STYLE
  70
4
  0
STYLE
  2
KICAD
  70
0
  40
0
  41
1
  42
1
  50
0
  71
0
  3
isocp.shx
  0
STYLE
  2
KICADB
  70
0
  40
0
  41
1
  42
1
  50
0
  71
0
  3
isocp.shx
  0
STYLE
  2
KICADI
  70
0
  40
0
  41
1
  42
1
  50
15
  71
0
  3
isocp.shx
  0
STYLE
  2
KICADBI
  70
0
  40
0
  41
1
  42
1
  50
15
  71
0
  3
isocp.shx
  0
ENDTAB
  0
TABLE
  2
LAYER
  70
1
  0
LAYER
  2
BLACK
  70
0
  62
7
  6
CONTINUOUS
  0
ENDTAB
  0
ENDSEC
  0
SECTION
  2
ENTITIES
0
LINE
8
BLACK
6
CONTINUOUS
10
4.0216558661417325
20
-4.5479051181102363
11
4.0358108661417322
21
-4.551020866141732
0
LINE
8
BLACK
6
CONTINUOUS
10
4.0358108661417322
20
-4.551020866141732
11
4.0495460629921256
21
-4.5556487795275586
0
LINE
8
BLACK
6
CONTINUOUS
10
4.0495460629921256
20
-4.5556487795275586
11
4.0627003543307083
21
-4.5617346062992121
0
LINE
8
BLACK
6
CONTINUOUS
10
4.0627003543307083
20
-4.5617346062992121
11
4.075119527559055
21
-4.5692069685039369
0
LINE
8
BLACK
6
CONTINUOUS
10
4.075119527559055
20
-4.5692069685039369
11
4.0866579921259838
21
-4.5779783070866138
0
LINE
8
BLACK
6
CONTINUOUS
10
4.0866579921259838
20
-4.5779783070866138
11
4.0971805118110236
21
-4.5879457480314958
0
LINE
8
BLACK
6
CONTINUOUS
10
4.0971805118110236
20
-4.5879457480314958
11
4.1065636220472443
21
-4.5989924409448815
0
LINE
8
BLACK
6
CONTINUOUS
10
4.1065636220472443
20
-4.5989924409448815
11
4.1146974015748032
21
-4.6109888582677163
0
LINE
8
BLACK
6
CONTINUOUS
10
4.1146974015748032
20
-4.6109888582677163
11
4.1214864566929137
21
-4.6237943700787403
0
LINE
8
BLACK
6
CONTINUOUS
10
4.1214864566929137
20
-4.6237943700787403
11
4.1268512204724406
21
-4.6372588582677166
0
LINE
8
BLACK
6
CONTINUOUS
10
4.1268512204724406
20
-4.6372588582677166
11
4.1307287401574806
21
-4.6512244488188976
0
LINE
8
BLACK
6
CONTINUOUS
10
4.1307287401574806
20
-4.6512244488188976
11
4.1330735826771656
21
-4.665527362204724
0
LINE
8
BLACK
6
CONTINUOUS
10
4.1330735826771656
20
-4.665527362204724
11
4.1338582677165352
21
-4.6799999999999997
0
LINE
8
BLACK
6
CONTINUOUS
10
4.1338582677165352
20
-4.6799999999999997
11
4.1330735826771656
21
-4.6944726377952755
0
LINE
8
BLACK
6
CONTINUOUS
10
4.1330735826771656
20
-4.6944726377952755
11
4.1307287401574806
21
-4.7087755511811027
0
LINE
8
BLACK
6
CONTINUOUS
10
4.1307287401574806
20
-4.7087755511811027
11
4.1268512204724406
21
-4.7227411417322838
0
LINE
8
BLACK
6
CONTINUOUS
10
4.1268512204724406
20
-4.7227411417322838
11
4.1214864566929137
21
-4.73620562992126
0
LINE
8
BLACK
6
CONTINUOUS
10
4.1214864566929137
20
-4.73620562992126
11
4.1146974015748032
21
-4.7490111417322831
0
LINE
8
BLACK
6
CONTINUOUS
10
4.1146974015748032
20
-4.7490111417322831
11
4.1065636220472443
21
-4.761007559055118
0
LINE
8
BLACK
6
CONTINUOUS
10
4.1065636220472443
20
-4.761007559055118
11
4.0971805118110236
21
-4.7720542519685036
0
LINE
8
BLACK
6
CONTINUOUS
10
4.0971805118110236
20
-4.7720542519685036
11
4.0866579921259838
21
-4.7820216929133856
0
LINE
8
BLACK
6
CONTINUOUS
10
4.0866579921259838
20
-4.7820216929133856
11
4.075119527559055
21
-4.7907930314960625
0
LINE
8
BLACK
6
CONTINUOUS
10
4.075119527559055
20
-4.7907930314960625
11
4.0627003543307083
21
-4.7982653937007873
0
LINE
8
BLACK
6
CONTINUOUS
10
4.0627003543307083
20
-4.7982653937007873
11
4.0495460629921256
21
-4.8043512204724408
0
LINE
8
BLACK
6
CONTINUOUS
10
4.0495460629921256
20
-4.8043512204724408
11
4.0358108661417322
21
-4.8089791338582675
0
LINE
8
BLACK
6
CONTINUOUS
10
4.0358108661417322
20
-4.8089791338582675
11
4.0216558661417325
21
-4.812094881889764
0
LINE
8
BLACK
6
CONTINUOUS
10
4.0216558661417325
20
-4.812094881889764
11
4.0072469291338582
21
-4.8136619685039372
0
LINE
8
BLACK
6
CONTINUOUS
10
4.0072469291338582
20
-4.8136619685039372
11
3.9927530708661418
21
-4.8136619685039372
0
LINE
8
BLACK
6
CONTINUOUS
10
3.9927530708661418
20
-4.8136619685039372
11
3.9783441338582675
21
-4.812094881889764
0
LINE
8
BLACK
6
CONTINUOUS
10
3.9783441338582675
20
-4.812094881889764
11
3.9641891338582678
21
-4.8089791338582675
0
LINE
8
BLACK
6
CONTINUOUS
10
3.9641891338582678
20
-4.8089791338582675
11
3.950453937007874
21
-4.8043512204724408
0
LINE
8
BLACK
6
CONTINUOUS
10
3.950453937007874
20
-4.8043512204724408
11
3.9372996456692912
21
-4.7982653937007873
0
LINE
8
BLACK
6
CONTINUOUS
10
3.9372996456692912
20
-4.7982653937007873
11
3.924880472440945
21
-4.7907930314960625
0
LINE
8
BLACK
6
CONTINUOUS
10
3.924880472440945
20
-4.7907930314960625
11
3.9133420078740158
21
-4.7820216929133856
0
LINE
8
BLACK
6
CONTINUOUS
10
3.9133420078740158
20
-4.7820216929133856
11
3.9028194881889764
21
-4.7720542519685036
0
LINE
8
BLACK
6
CONTINUOUS
10
3.9028194881889764
20
-4.7720542519685036
11
3.8934363779527557
21
-4.761007559055118
0
LINE
8
BLACK
6
CONTINUOUS
10
3.8934363779527557
20
-4.761007559055118
11
3.8853025984251968
21
-4.7490111417322831
0
LINE
8
BLACK
6
CONTINUOUS
10
3.8853025984251968
20
-4.7490111417322831
11
3.8785135433070863
21
-4.73620562992126
0
LINE
8
BLACK
6
CONTINUOUS
10
3.8785135433070863
20
-4.73620562992126
11
3.873148779527559
21
-4.7227411417322838
0
LINE
8
BLACK
6
CONTINUOUS
10
3.873148779527559
20
-4.7227411417322838
11
3.8692712598425194
21
-4.7087755511811027
0
LINE
8
BLACK
6
CONTINUOUS
10
3.8692712598425194
20
-4.7087755511811027
11
3.8669264173228344
21
-4.6944726377952755
0
LINE
8
BLACK
6
CONTINUOUS
10
3.8669264173228344
20
-4.6944726377952755
11
3.8661417322834644
21
-4.6799999999999997
0
LINE
8
BLACK
6
CONTINUOUS
10
3.8661417322834644
20
-4.6799999999999997
11
3.8669264173228344
21
-4.665527362204724
0
LINE
8
BLACK
6
CONTINUOUS
10
3.8669264173228344
20
-4.665527362204724
11
3.8692712598425194
21
-4.6512244488188976
0
LINE
8
BLACK
6
CONTINUOUS
10
3.8692712598425194
20
-4.6512244488188976
11
3.873148779527559
21
-4.6372588582677166
0
LINE
8
BLACK
6
CONTINUOUS
10
3.873148779527559
20
-4.6372588582677166
11
3.8785135433070863
21
-4.6237943700787403
0
LINE
8
BLACK
6
CONTINUOUS
10
3.8785135433070863
20
-4.6237943700787403
11
3.8853025984251968
21
-4.6109888582677163
0
LINE
8
BLACK
6
CONTINUOUS
10
3.8853025984251968
20
-4.6109888582677163
11
3.8934363779527557
21
-4.5989924409448815
0
LINE
8
BLACK
6
CONTINUOUS
10
3.8934363779527557
20
-4.5989924409448815
11
3.9028194881889764
21
-4.5879457480314958
0
LINE
8
BLACK
6
CONTINUOUS
10
3.9028194881889764
20
-4.5879457480314958
11
3.9133420078740158
21
-4.5779783070866138
0
LINE
8
BLACK
6
CONTINUOUS
10
3.9133420078740158
20
-4.5779783070866138
11
3.924880472440945
21
-4.5692069685039369
0
LINE
8
BLACK
6
CONTINUOUS
10
3.924880472440945
20
-4.5692069685039369
11
3.9372996456692912
21
-4.5617346062992121
0
LINE
8
BLACK
6
CONTINUOUS
10
3.9372996456692912
20
-4.5617346062992121
11
3.950453937007874
21
-4.5556487795275586
0
LINE
8
BLACK
6
CONTINUOUS
10
3.950453937007874
20
-4.5556487795275586
11
3.9641891338582678
21
-4.551020866141732
0
LINE
8
BLACK
6
CONTINUOUS
10
3.9641891338582678
20
-4.551020866141732
11
3.9783441338582675
21
-4.5479051181102363
0
LINE
8
BLACK
6
CONTINUOUS
10
3.9783441338582675
20
-4.5479051181102363
11
3.9927530708661418
21
-4.5463380314960631
0
LINE
8
BLACK
6
CONTINUOUS
10
3.9927530708661418
20
-4.5463380314960631
11
4.0072469291338582
21
-4.5463380314960631
0
LINE
8
BLACK
6
CONTINUOUS
10
4.0072469291338582
20
-4.5463380314960631
11
4.0216558661417325
21
-4.5479051181102363
0
LINE
8
BLACK
6
CONTINUOUS
10
5.7216558661417318
20
-4.5479051181102363
11
5.7358108661417324
21
-4.551020866141732
0
LINE
8
BLACK
6
CONTINUOUS
10
5.7358108661417324
20
-4.551020866141732
11
5.7495460629921258
21
-4.5556487795275586
0
LINE
8
BLACK
6
CONTINUOUS
10
5.7495460629921258
20
-4.5556487795275586
11
5.7627003543307085
21
-4.5617346062992121
0
LINE
8
BLACK
6
CONTINUOUS
10
5.7627003543307085
20
-4.5617346062992121
11
5.7751195275590552
21
-4.5692069685039369
0
LINE
8
BLACK
6
CONTINUOUS
10
5.7751195275590552
20
-4.5692069685039369
11
5.786657992125984
21
-4.5779783070866138
0
LINE
8
BLACK
6
CONTINUOUS
10
5.786657992125984
20
-4.5779783070866138
11
5.7971805118110238
21
-4.5879457480314958
0
LINE
8
BLACK
6
CONTINUOUS
10
5.7971805118110238
20
-4.5879457480314958
11
5.8065636220472436
21
-4.5989924409448815
0
LINE
8
BLACK
6
CONTINUOUS
10
5.8065636220472436
20
-4.5989924409448815
11
5.8146974015748034
21
-4.6109888582677163
0
LINE
8
BLACK
6
CONTINUOUS
10
5.8146974015748034
20
-4.6109888582677163
11
5.821486456692913
21
-4.6237943700787403
0
LINE
8
BLACK
6
CONTINUOUS
10
5.821486456692913
20
-4.6237943700787403
11
5.8268512204724408
21
-4.6372588582677166
0
LINE
8
BLACK
6
CONTINUOUS
10
5.8268512204724408
20
-4.6372588582677166
11
5.8307287401574799
21
-4.6512244488188976
0
LINE
8
BLACK
6
CONTINUOUS
10
5.8307287401574799
20
-4.6512244488188976
11
5.8330735826771649
21
-4.665527362204724
0
LINE
8
BLACK
6
CONTINUOUS
10
5.8330735826771649
20
-4.665527362204724
11
5.8338582677165354
21
-4.6799999999999997
0
LINE
8
BLACK
6
CONTINUOUS
10
5.8338582677165354
20
-4.6799999999999997
11
5.8330735826771649
21
-4.6944726377952755
0
LINE
8
BLACK
6
CONTINUOUS
10
5.8330735826771649
20
-4.6944726377952755
11
5.8307287401574799
21
-4.7087755511811027
0
LINE
8
BLACK
6
CONTINUOUS
10
5.8307287401574799
20
-4.7087755511811027
11
5.8268512204724408
21
-4.7227411417322838
0
LINE
8
BLACK
6
CONTINUOUS
10
5.8268512204724408
20
-4.7227411417322838
11
5.821486456692913
21
-4.73620562992126
0
LINE
8
BLACK
6
CONTINUOUS
10
5.821486456692913
20
-4.73620562992126
11
5.8146974015748034
21
-4.7490111417322831
0
LINE
8
BLACK
6
CONTINUOUS
10
5.8146974015748034
20
-4.7490111417322831
11
5.8065636220472436
21
-4.761007559055118
0
LINE
8
BLACK
6
CONTINUOUS
10
5.8065636220472436
20
-4.761007559055118
11
5.7971805118110238
21
-4.7720542519685036
0
LINE
8
BLACK
6
CONTINUOUS
10
5.7971805118110238
20
-4.7720542519685036
11
5.786657992125984
21
-4.7820216929133856
0
LINE
8
BLACK
6
CONTINUOUS
10
5.786657992125984
20
-4.7820216929133856
11
5.7751195275590552
21
-4.7907930314960625
0
LINE
8
BLACK
6
CONTINUOUS
10
5.7751195275590552
20
-4.7907930314960625
11
5.7627003543307085
21
-4.7982653937007873
0
LINE
8
BLACK
6
CONTINUOUS
10
5.7627003543307085
20
-4.7982653937007873
11
5.7495460629921258
21
-4.8043512204724408
0
LINE
8
BLACK
6
CONTINUOUS
10
5.7495460629921258
20
-4.8043512204724408
11
5.7358108661417324
21
-4.8089791338582675
0
LINE
8
BLACK
6
CONTINUOUS
10
5.7358108661417324
20
-4.8089791338582675
11
5.7216558661417318
21
-4.812094881889764
0
LINE
8
BLACK
6
CONTINUOUS
10
5.7216558661417318
20
-4.812094881889764
11
5.7072469291338583
21
-4.8136619685039372
0
LINE
8
BLACK
6
CONTINUOUS
10
5.7072469291338583
20
-4.8136619685039372
11
5.692753070866142
21
-4.8136619685039372
0
LINE
8
BLACK
6
CONTINUOUS
10
5.692753070866142
20
-4.8136619685039372
11
5.6783441338582676
21
-4.812094881889764
0
LINE
8
BLACK
6
CONTINUOUS
10
5.6783441338582676
20
-4.812094881889764
11
5.6641891338582679
21
-4.8089791338582675
0
LINE
8
BLACK
6
CONTINUOUS
10
5.6641891338582679
20
-4.8089791338582675
11
5.6504539370078737
21
-4.8043512204724408
0
LINE
8
BLACK
6
CONTINUOUS
10
5.6504539370078737
20
-4.8043512204724408
11
5.637299645669291
21
-4.7982653937007873
0
LINE
8
BLACK
6
CONTINUOUS
10
5.637299645669291
20
-4.7982653937007873
11
5.6248804724409451
21
-4.7907930314960625
0
LINE
8
BLACK
6
CONTINUOUS
10
5.6248804724409451
20
-4.7907930314960625
11
5.6133420078740155
21
-4.7820216929133856
0
LINE
8
BLACK
6
CONTINUOUS
10
5.6133420078740155
20
-4.7820216929133856
11
5.6028194881889766
21
-4.7720542519685036
0
LINE
8
BLACK
6
CONTINUOUS
10
5.6028194881889766
20
-4.7720542519685036
11
5.5934363779527558
21
-4.761007559055118
0
LINE
8
BLACK
6
CONTINUOUS
10
5.5934363779527558
20
-4.761007559055118
11
5.5853025984251969
21
-4.7490111417322831
0
LINE
8
BLACK
6
CONTINUOUS
10
5.5853025984251969
20
-4.7490111417322831
11
5.5785135433070865
21
-4.73620562992126
0
LINE
8
BLACK
6
CONTINUOUS
10
5.5785135433070865
20
-4.73620562992126
11
5.5731487795275587
21
-4.7227411417322838
0
LINE
8
BLACK
6
CONTINUOUS
10
5.5731487795275587
20
-4.7227411417322838
11
5.5692712598425196
21
-4.7087755511811027
0
LINE
8
BLACK
6
CONTINUOUS
10
5.5692712598425196
20
-4.7087755511811027
11
5.5669264173228346
21
-4.6944726377952755
0
LINE
8
BLACK
6
CONTINUOUS
10
5.5669264173228346
20
-4.6944726377952755
11
5.5661417322834641
21
-4.6799999999999997
0
LINE
8
BLACK
6
CONTINUOUS
10
5.5661417322834641
20
-4.6799999999999997
11
5.5669264173228346
21
-4.665527362204724
0
LINE
8
BLACK
6
CONTINUOUS
10
5.5669264173228346
20
-4.665527362204724
11
5.5692712598425196
21
-4.6512244488188976
0
LINE
8
BLACK
6
CONTINUOUS
10
5.5692712598425196
20
-4.6512244488188976
11
5.5731487795275587
21
-4.6372588582677166
0
LINE
8
BLACK
6
CONTINUOUS
10
5.5731487795275587
20
-4.6372588582677166
11
5.5785135433070865
21
-4.6237943700787403
0
LINE
8
BLACK
6
CONTINUOUS
10
5.5785135433070865
20
-4.6237943700787403
11
5.5853025984251969
21
-4.6109888582677163
0
LINE
8
BLACK
6
CONTINUOUS
10
5.5853025984251969
20
-4.6109888582677163
11
5.5934363779527558
21
-4.5989924409448815
0
LINE
8
BLACK
6
CONTINUOUS
10
5.5934363779527558
20
-4.5989924409448815
11
5.6028194881889766
21
-4.5879457480314958
0
LINE
8
BLACK
6
CONTINUOUS
10
5.6028194881889766
20
-4.5879457480314958
11
5.6133420078740155
21
-4.5779783070866138
0
LINE
8
BLACK
6
CONTINUOUS
10
5.6133420078740155
20
-4.5779783070866138
11
5.6248804724409451
21
-4.5692069685039369
0
LINE
8
BLACK
6
CONTINUOUS
10
5.6248804724409451
20
-4.5692069685039369
11
5.637299645669291
21
-4.5617346062992121
0
LINE
8
BLACK
6
CONTINUOUS
10
5.637299645669291
20
-4.5617346062992121
11
5.6504539370078737
21
-4.5556487795275586
0
LINE
8
BLACK
6
CONTINUOUS
10
5.6504539370078737
20
-4.5556487795275586
11
5.6641891338582679
21
-4.551020866141732
0
LINE
8
BLACK
6
CONTINUOUS
10
5.6641891338582679
20
-4.551020866141732
11
5.6783441338582676
21
-4.5479051181102363
0
LINE
8
BLACK
6
CONTINUOUS
10
5.6783441338582676
20
-4.5479051181102363
11
5.692753070866142
21
-4.5463380314960631
0
LINE
8
BLACK
6
CONTINUOUS
10
5.692753070866142
20
-4.5463380314960631
11
5.7072469291338583
21
-4.5463380314960631
0
LINE
8
BLACK
6
CONTINUOUS
10
5.7072469291338583
20
-4.5463380314960631
11
5.7216558661417318
21
-4.5479051181102363
0
LINE
8
BLACK
6
CONTINUOUS
10
4.244013267716535
20
-4.0517253543307081
11
4.2465677559055113
21
-4.0534322440944877
0
LINE
8
BLACK
6
CONTINUOUS
10
4.2465677559055113
20
-4.0534322440944877
11
4.2482746456692908
21
-4.0559867322834648
0
LINE
8
BLACK
6
CONTINUOUS
10
4.2482746456692908
20
-4.0559867322834648
11
4.2488740157480311
21
-4.0590000000000002
0
LINE
8
BLACK
6
CONTINUOUS
10
4.2488740157480311
20
-4.0590000000000002
11
4.2488740157480311
21
-4.2089999999999996
0
LINE
8
BLACK
6
CONTINUOUS
10
4.2488740157480311
20
-4.2089999999999996
11
4.2482746456692908
21
-4.2120132677165349
0
LINE
8
BLACK
6
CONTINUOUS
10
4.2482746456692908
20
-4.2120132677165349
11
4.2465677559055113
21
-4.2145677559055121
0
LINE
8
BLACK
6
CONTINUOUS
10
4.2465677559055113
20
-4.2145677559055121
11
4.244013267716535
21
-4.2162746456692917
0
LINE
8
BLACK
6
CONTINUOUS
10
4.244013267716535
20
-4.2162746456692917
11
4.2409999999999997
21
-4.2168740157480311
0
LINE
8
BLACK
6
CONTINUOUS
10
4.2409999999999997
20
-4.2168740157480311
11
4.0910000000000002
21
-4.2168740157480311
0
LINE
8
BLACK
6
CONTINUOUS
10
4.0910000000000002
20
-4.2168740157480311
11
4.0879867322834649
21
-4.2162746456692917
0
LINE
8
BLACK
6
CONTINUOUS
10
4.0879867322834649
20
-4.2162746456692917
11
4.0854322440944877
21
-4.2145677559055121
0
LINE
8
BLACK
6
CONTINUOUS
10
4.0854322440944877
20
-4.2145677559055121
11
4.0837253543307082
21
-4.2120132677165349
0
LINE
8
BLACK
6
CONTINUOUS
10
4.0837253543307082
20
-4.2120132677165349
11
4.0831259842519687
21
-4.2089999999999996
0
LINE
8
BLACK
6
CONTINUOUS
10
4.0831259842519687
20
-4.2089999999999996
11
4.0831259842519687
21
-4.0590000000000002
0
LINE
8
BLACK
6
CONTINUOUS
10
4.0831259842519687
20
-4.0590000000000002
11
4.0837253543307082
21
-4.0559867322834648
0
LINE
8
BLACK
6
CONTINUOUS
10
4.0837253543307082
20
-4.0559867322834648
11
4.0854322440944877
21
-4.0534322440944877
0
LINE
8
BLACK
6
CONTINUOUS
10
4.0854322440944877
20
-4.0534322440944877
11
4.0879867322834649
21
-4.0517253543307081
0
LINE
8
BLACK
6
CONTINUOUS
10
4.0879867322834649
20
-4.0517253543307081
11
4.0910000000000002
21
-4.0511259842519687
0
LINE
8
BLACK
6
CONTINUOUS
10
4.0910000000000002
20
-4.0511259842519687
11
4.2409999999999997
21
-4.0511259842519687
0
LINE
8
BLACK
6
CONTINUOUS
10
4.2409999999999997
20
-4.0511259842519687
11
4.244013267716535
21
-4.0517253543307081
0
LINE
8
BLACK
6
CONTINUOUS
10
4.4408636614173229
20
-4.0517253543307081
11
4.4434181496062992
21
-4.0534322440944877
0
LINE
8
BLACK
6
CONTINUOUS
10
4.4434181496062992
20
-4.0534322440944877
11
4.4451250393700787
21
-4.0559867322834648
0
LINE
8
BLACK
6
CONTINUOUS
10
4.4451250393700787
20
-4.0559867322834648
11
4.4457244094488191
21
-4.0590000000000002
0
LINE
8
BLACK
6
CONTINUOUS
10
4.4457244094488191
20
-4.0590000000000002
11
4.4457244094488191
21
-4.2089999999999996
0
LINE
8
BLACK
6
CONTINUOUS
10
4.4457244094488191
20
-4.2089999999999996
11
4.4451250393700787
21
-4.2120132677165349
0
LINE
8
BLACK
6
CONTINUOUS
10
4.4451250393700787
20
-4.2120132677165349
11
4.4434181496062992
21
-4.2145677559055121
0
LINE
8
BLACK
6
CONTINUOUS
10
4.4434181496062992
20
-4.2145677559055121
11
4.4408636614173229
21
-4.2162746456692917
0
LINE
8
BLACK
6
CONTINUOUS
10
4.4408636614173229
20
-4.2162746456692917
11
4.4378503937007876
21
-4.2168740157480311
0
LINE
8
BLACK
6
CONTINUOUS
10
4.4378503937007876
20
-4.2168740157480311
11
4.2878503937007872
21
-4.2168740157480311
0
LINE
8
BLACK
6
CONTINUOUS
10
4.2878503937007872
20
-4.2168740157480311
11
4.2848371259842519
21
-4.2162746456692917
0
LINE
8
BLACK
6
CONTINUOUS
10
4.2848371259842519
20
-4.2162746456692917
11
4.2822826377952756
21
-4.2145677559055121
0
LINE
8
BLACK
6
CONTINUOUS
10
4.2822826377952756
20
-4.2145677559055121
11
4.2805757480314961
21
-4.2120132677165349
0
LINE
8
BLACK
6
CONTINUOUS
10
4.2805757480314961
20
-4.2120132677165349
11
4.2799763779527558
21
-4.2089999999999996
0
LINE
8
BLACK
6
CONTINUOUS
10
4.2799763779527558
20
-4.2089999999999996
11
4.2799763779527558
21
-4.0590000000000002
0
LINE
8
BLACK
6
CONTINUOUS
10
4.2799763779527558
20
-4.0590000000000002
11
4.2805757480314961
21
-4.0559867322834648
0
LINE
8
BLACK
6
CONTINUOUS
10
4.2805757480314961
20
-4.0559867322834648
11
4.2822826377952756
21
-4.0534322440944877
0
LINE
8
BLACK
6
CONTINUOUS
10
4.2822826377952756
20
-4.0534322440944877
11
4.2848371259842519
21
-4.0517253543307081
0
LINE
8
BLACK
6
CONTINUOUS
10
4.2848371259842519
20
-4.0517253543307081
11
4.2878503937007872
21
-4.0511259842519687
0
LINE
8
BLACK
6
CONTINUOUS
10
4.2878503937007872
20
-4.0511259842519687
11
4.4378503937007876
21
-4.0511259842519687
0
LINE
8
BLACK
6
CONTINUOUS
10
4.4378503937007876
20
-4.0511259842519687
11
4.4408636614173229
21
-4.0517253543307081
0
LINE
8
BLACK
6
CONTINUOUS
10
4.2442696456692914
20
-3.8548749606299211
11
4.2468241338582677
21
-3.8565818503937006
0
LINE
8
BLACK
6
CONTINUOUS
10
4.2468241338582677
20
-3.8565818503937006
11
4.2485310236220473
21
-3.8591363385826769
0
LINE
8
BLACK
6
CONTINUOUS
10
4.2485310236220473
20
-3.8591363385826769
11
4.2491303937007876
21
-3.8621496062992127
0
LINE
8
BLACK
6
CONTINUOUS
10
4.2491303937007876
20
-3.8621496062992127
11
4.2491303937007876
21
-4.0121496062992126
0
LINE
8
BLACK
6
CONTINUOUS
10
4.2491303937007876
20
-4.0121496062992126
11
4.2485310236220473
21
-4.0151628740157479
0
LINE
8
BLACK
6
CONTINUOUS
10
4.2485310236220473
20
-4.0151628740157479
11
4.2468241338582677
21
-4.0177173622047242
0
LINE
8
BLACK
6
CONTINUOUS
10
4.2468241338582677
20
-4.0177173622047242
11
4.2442696456692914
21
-4.0194242519685037
0
LINE
8
BLACK
6
CONTINUOUS
10
4.2442696456692914
20
-4.0194242519685037
11
4.2412563779527561
21
-4.0200236220472441
0
LINE
8
BLACK
6
CONTINUOUS
10
4.2412563779527561
20
-4.0200236220472441
11
4.0912563779527558
21
-4.0200236220472441
0
LINE
8
BLACK
6
CONTINUOUS
10
4.0912563779527558
20
-4.0200236220472441
11
4.0882431102362204
21
-4.0194242519685037
0
LINE
8
BLACK
6
CONTINUOUS
10
4.0882431102362204
20
-4.0194242519685037
11
4.0856886220472441
21
-4.0177173622047242
0
LINE
8
BLACK
6
CONTINUOUS
10
4.0856886220472441
20
-4.0177173622047242
11
4.0839817322834646
21
-4.0151628740157479
0
LINE
8
BLACK
6
CONTINUOUS
10
4.0839817322834646
20
-4.0151628740157479
11
4.0833823622047243
21
-4.0121496062992126
0
LINE
8
BLACK
6
CONTINUOUS
10
4.0833823622047243
20
-4.0121496062992126
11
4.0833823622047243
21
-3.8621496062992127
0
LINE
8
BLACK
6
CONTINUOUS
10
4.0833823622047243
20
-3.8621496062992127
11
4.0839817322834646
21
-3.8591363385826769
0
LINE
8
BLACK
6
CONTINUOUS
10
4.0839817322834646
20
-3.8591363385826769
11
4.0856886220472441
21
-3.8565818503937006
0
LINE
8
BLACK
6
CONTINUOUS
10
4.0856886220472441
20
-3.8565818503937006
11
4.0882431102362204
21
-3.8548749606299211
0
LINE
8
BLACK
6
CONTINUOUS
10
4.0882431102362204
20
-3.8548749606299211
11
4.0912563779527558
21
-3.8542755905511812
0
LINE
8
BLACK
6
CONTINUOUS
10
4.0912563779527558
20
-3.8542755905511812
11
4.2412563779527561
21
-3.8542755905511812
0
LINE
8
BLACK
6
CONTINUOUS
10
4.2412563779527561
20
-3.8542755905511812
11
4.2442696456692914
21
-3.8548749606299211
0
LINE
8
BLACK
6
CONTINUOUS
10
4.4411200393700785
20
-3.8548749606299211
11
4.4436745275590548
21
-3.8565818503937006
0
LINE
8
BLACK
6
CONTINUOUS
10
4.4436745275590548
20
-3.8565818503937006
11
4.4453814173228343
21
-3.8591363385826769
0
LINE
8
BLACK
6
CONTINUOUS
10
4.4453814173228343
20
-3.8591363385826769
11
4.4459807874015747
21
-3.8621496062992127
0
LINE
8
BLACK
6
CONTINUOUS
10
4.4459807874015747
20
-3.8621496062992127
11
4.4459807874015747
21
-4.0121496062992126
0
LINE
8
BLACK
6
CONTINUOUS
10
4.4459807874015747
20
-4.0121496062992126
11
4.4453814173228343
21
-4.0151628740157479
0
LINE
8
BLACK
6
CONTINUOUS
10
4.4453814173228343
20
-4.0151628740157479
11
4.4436745275590548
21
-4.0177173622047242
0
LINE
8
BLACK
6
CONTINUOUS
10
4.4436745275590548
20
-4.0177173622047242
11
4.4411200393700785
21
-4.0194242519685037
0
LINE
8
BLACK
6
CONTINUOUS
10
4.4411200393700785
20
-4.0194242519685037
11
4.4381067716535432
21
-4.0200236220472441
0
LINE
8
BLACK
6
CONTINUOUS
10
4.4381067716535432
20
-4.0200236220472441
11
4.2881067716535428
21
-4.0200236220472441
0
LINE
8
BLACK
6
CONTINUOUS
10
4.2881067716535428
20
-4.0200236220472441
11
4.2850935039370075
21
-4.0194242519685037
0
LINE
8
BLACK
6
CONTINUOUS
10
4.2850935039370075
20
-4.0194242519685037
11
4.2825390157480312
21
-4.0177173622047242
0
LINE
8
BLACK
6
CONTINUOUS
10
4.2825390157480312
20
-4.0177173622047242
11
4.2808321259842517
21
-4.0151628740157479
0
LINE
8
BLACK
6
CONTINUOUS
10
4.2808321259842517
20
-4.0151628740157479
11
4.2802327559055113
21
-4.0121496062992126
0
LINE
8
BLACK
6
CONTINUOUS
10
4.2802327559055113
20
-4.0121496062992126
11
4.2802327559055113
21
-3.8621496062992127
0
LINE
8
BLACK
6
CONTINUOUS
10
4.2802327559055113
20
-3.8621496062992127
11
4.2808321259842517
21
-3.8591363385826769
0
LINE
8
BLACK
6
CONTINUOUS
10
4.2808321259842517
20
-3.8591363385826769
11
4.2825390157480312
21
-3.8565818503937006
0
LINE
8
BLACK
6
CONTINUOUS
10
4.2825390157480312
20
-3.8565818503937006
11
4.2850935039370075
21
-3.8548749606299211
0
LINE
8
BLACK
6
CONTINUOUS
10
4.2850935039370075
20
-3.8548749606299211
11
4.2881067716535428
21
-3.8542755905511812
0
LINE
8
BLACK
6
CONTINUOUS
10
4.2881067716535428
20
-3.8542755905511812
11
4.4381067716535432
21
-3.8542755905511812
0
LINE
8
BLACK
6
CONTINUOUS
10
4.4381067716535432
20
-3.8542755905511812
11
4.4411200393700785
21
-3.8548749606299211
0
LINE
8
BLACK
6
CONTINUOUS
10
4.2442696456692914
20
-3.6580245669291336
11
4.2468241338582677
21
-3.6597314566929131
0
LINE
8
BLACK
6
CONTINUOUS
10
4.2468241338582677
20
-3.6597314566929131
11
4.2485310236220473
21
-3.6622859448818899
0
LINE
8
BLACK
6
CONTINUOUS
10
4.2485310236220473
20
-3.6622859448818899
11
4.2491303937007876
21
-3.6652992125984252
0
LINE
8
BLACK
6
CONTINUOUS
10
4.2491303937007876
20
-3.6652992125984252
11
4.2491303937007876
21
-3.8152992125984251
0
LINE
8
BLACK
6
CONTINUOUS
10
4.2491303937007876
20
-3.8152992125984251
11
4.2485310236220473
21
-3.8183124803149604
0
LINE
8
BLACK
6
CONTINUOUS
10
4.2485310236220473
20
-3.8183124803149604
11
4.2468241338582677
21
-3.8208669685039367
0
LINE
8
BLACK
6
CONTINUOUS
10
4.2468241338582677
20
-3.8208669685039367
11
4.2442696456692914
21
-3.8225738582677162
0
LINE
8
BLACK
6
CONTINUOUS
10
4.2442696456692914
20
-3.8225738582677162
11
4.2412563779527561
21
-3.8231732283464566
0
LINE
8
BLACK
6
CONTINUOUS
10
4.2412563779527561
20
-3.8231732283464566
11
4.0912563779527558
21
-3.8231732283464566
0
LINE
8
BLACK
6
CONTINUOUS
10
4.0912563779527558
20
-3.8231732283464566
11
4.0882431102362204
21
-3.8225738582677162
0
LINE
8
BLACK
6
CONTINUOUS
10
4.0882431102362204
20
-3.8225738582677162
11
4.0856886220472441
21
-3.8208669685039367
0
LINE
8
BLACK
6
CONTINUOUS
10
4.0856886220472441
20
-3.8208669685039367
11
4.0839817322834646
21
-3.8183124803149604
0
LINE
8
BLACK
6
CONTINUOUS
10
4.0839817322834646
20
-3.8183124803149604
11
4.0833823622047243
21
-3.8152992125984251
0
LINE
8
BLACK
6
CONTINUOUS
10
4.0833823622047243
20
-3.8152992125984251
11
4.0833823622047243
21
-3.6652992125984252
0
LINE
8
BLACK
6
CONTINUOUS
10
4.0833823622047243
20
-3.6652992125984252
11
4.0839817322834646
21
-3.6622859448818899
0
LINE
8
BLACK
6
CONTINUOUS
10
4.0839817322834646
20
-3.6622859448818899
11
4.0856886220472441
21
-3.6597314566929131
0
LINE
8
BLACK
6
CONTINUOUS
10
4.0856886220472441
20
-3.6597314566929131
11
4.0882431102362204
21
-3.6580245669291336
0
LINE
8
BLACK
6
CONTINUOUS
10
4.0882431102362204
20
-3.6580245669291336
11
4.0912563779527558
21
-3.6574251968503937
0
LINE
8
BLACK
6
CONTINUOUS
10
4.0912563779527558
20
-3.6574251968503937
11
4.2412563779527561
21
-3.6574251968503937
0
LINE
8
BLACK
6
CONTINUOUS
10
4.2412563779527561
20
-3.6574251968503937
11
4.2442696456692914
21
-3.6580245669291336
0
LINE
8
BLACK
6
CONTINUOUS
10
4.4411200393700785
20
-3.6580245669291336
11
4.4436745275590548
21
-3.6597314566929131
0
LINE
8
BLACK
6
CONTINUOUS
10
4.4436745275590548
20
-3.6597314566929131
11
4.4453814173228343
21
-3.6622859448818899
0
LINE
8
BLACK
6
CONTINUOUS
10
4.4453814173228343
20
-3.6622859448818899
11
4.4459807874015747
21
-3.6652992125984252
0
LINE
8
BLACK
6
CONTINUOUS
10
4.4459807874015747
20
-3.6652992125984252
11
4.4459807874015747
21
-3.8152992125984251
0
LINE
8
BLACK
6
CONTINUOUS
10
4.4459807874015747
20
-3.8152992125984251
11
4.4453814173228343
21
-3.8183124803149604
0
LINE
8
BLACK
6
CONTINUOUS
10
4.4453814173228343
20
-3.8183124803149604
11
4.4436745275590548
21
-3.8208669685039367
0
LINE
8
BLACK
6
CONTINUOUS
10
4.4436745275590548
20
-3.8208669685039367
11
4.4411200393700785
21
-3.8225738582677162
0
LINE
8
BLACK
6
CONTINUOUS
10
4.4411200393700785
20
-3.8225738582677162
11
4.4381067716535432
21
-3.8231732283464566
0
LINE
8
BLACK
6
CONTINUOUS
10
4.4381067716535432
20
-3.8231732283464566
11
4.2881067716535428
21
-3.8231732283464566
0
LINE
8
BLACK
6
CONTINUOUS
10
4.2881067716535428
20
-3.8231732283464566
11
4.2850935039370075
21
-3.8225738582677162
0
LINE
8
BLACK
6
CONTINUOUS
10
4.2850935039370075
20
-3.8225738582677162
11
4.2825390157480312
21
-3.8208669685039367
0
LINE
8
BLACK
6
CONTINUOUS
10
4.2825390157480312
20
-3.8208669685039367
11
4.2808321259842517
21
-3.8183124803149604
0
LINE
8
BLACK
6
CONTINUOUS
10
4.2808321259842517
20
-3.8183124803149604
11
4.2802327559055113
21
-3.8152992125984251
0
LINE
8
BLACK
6
CONTINUOUS
10
4.2802327559055113
20
-3.8152992125984251
11
4.2802327559055113
21
-3.6652992125984252
0
LINE
8
BLACK
6
CONTINUOUS
10
4.2802327559055113
20
-3.6652992125984252
11
4.2808321259842517
21
-3.6622859448818899
0
LINE
8
BLACK
6
CONTINUOUS
10
4.2808321259842517
20
-3.6622859448818899
11
4.2825390157480312
21
-3.6597314566929131
0
LINE
8
BLACK
6
CONTINUOUS
10
4.2825390157480312
20
-3.6597314566929131
11
4.2850935039370075
21
-3.6580245669291336
0
LINE
8
BLACK
6
CONTINUOUS
10
4.2850935039370075
20
-3.6580245669291336
11
4.2881067716535428
21
-3.6574251968503937
0
LINE
8
BLACK
6
CONTINUOUS
10
4.2881067716535428
20
-3.6574251968503937
11
4.4381067716535432
21
-3.6574251968503937
0
LINE
8
BLACK
6
CONTINUOUS
10
4.4381067716535432
20
-3.6574251968503937
11
4.4411200393700785
21
-3.6580245669291336
0
LINE
8
BLACK
6
CONTINUOUS
10
4.2442696456692914
20
-3.4611741732283465
11
4.2468241338582677
21
-3.4628810629921261
0
LINE
8
BLACK
6
CONTINUOUS
10
4.2468241338582677
20
-3.4628810629921261
11
4.2485310236220473
21
-3.4654355511811024
0
LINE
8
BLACK
6
CONTINUOUS
10
4.2485310236220473
20
-3.4654355511811024
11
4.2491303937007876
21
-3.4684488188976377
0
LINE
8
BLACK
6
CONTINUOUS
10
4.2491303937007876
20
-3.4684488188976377
11
4.2491303937007876
21
-3.6184488188976376
0
LINE
8
BLACK
6
CONTINUOUS
10
4.2491303937007876
20
-3.6184488188976376
11
4.2485310236220473
21
-3.6214620866141733
0
LINE
8
BLACK
6
CONTINUOUS
10
4.2485310236220473
20
-3.6214620866141733
11
4.2468241338582677
21
-3.6240165748031496
0
LINE
8
BLACK
6
CONTINUOUS
10
4.2468241338582677
20
-3.6240165748031496
11
4.2442696456692914
21
-3.6257234645669292
0
LINE
8
BLACK
6
CONTINUOUS
10
4.2442696456692914
20
-3.6257234645669292
11
4.2412563779527561
21
-3.6263228346456691
0
LINE
8
BLACK
6
CONTINUOUS
10
4.2412563779527561
20
-3.6263228346456691
11
4.0912563779527558
21
-3.6263228346456691
0
LINE
8
BLACK
6
CONTINUOUS
10
4.0912563779527558
20
-3.6263228346456691
11
4.0882431102362204
21
-3.6257234645669292
0
LINE
8
BLACK
6
CONTINUOUS
10
4.0882431102362204
20
-3.6257234645669292
11
4.0856886220472441
21
-3.6240165748031496
0
LINE
8
BLACK
6
CONTINUOUS
10
4.0856886220472441
20
-3.6240165748031496
11
4.0839817322834646
21
-3.6214620866141733
0
LINE
8
BLACK
6
CONTINUOUS
10
4.0839817322834646
20
-3.6214620866141733
11
4.0833823622047243
21
-3.6184488188976376
0
LINE
8
BLACK
6
CONTINUOUS
10
4.0833823622047243
20
-3.6184488188976376
11
4.0833823622047243
21
-3.4684488188976377
0
LINE
8
BLACK
6
CONTINUOUS
10
4.0833823622047243
20
-3.4684488188976377
11
4.0839817322834646
21
-3.4654355511811024
0
LINE
8
BLACK
6
CONTINUOUS
10
4.0839817322834646
20
-3.4654355511811024
11
4.0856886220472441
21
-3.4628810629921261
0
LINE
8
BLACK
6
CONTINUOUS
10
4.0856886220472441
20
-3.4628810629921261
11
4.0882431102362204
21
-3.4611741732283465
0
LINE
8
BLACK
6
CONTINUOUS
10
4.0882431102362204
20
-3.4611741732283465
11
4.0912563779527558
21
-3.4605748031496062
0
LINE
8
BLACK
6
CONTINUOUS
10
4.0912563779527558
20
-3.4605748031496062
11
4.2412563779527561
21
-3.4605748031496062
0
LINE
8
BLACK
6
CONTINUOUS
10
4.2412563779527561
20
-3.4605748031496062
11
4.2442696456692914
21
-3.4611741732283465
0
LINE
8
BLACK
6
CONTINUOUS
10
4.4411200393700785
20
-3.4611741732283465
11
4.4436745275590548
21
-3.4628810629921261
0
LINE
8
BLACK
6
CONTINUOUS
10
4.4436745275590548
20
-3.4628810629921261
11
4.4453814173228343
21
-3.4654355511811024
0
LINE
8
BLACK
6
CONTINUOUS
10
4.4453814173228343
20
-3.4654355511811024
11
4.4459807874015747
21
-3.4684488188976377
0
LINE
8
BLACK
6
CONTINUOUS
10
4.4459807874015747
20
-3.4684488188976377
11
4.4459807874015747
21
-3.6184488188976376
0
LINE
8
BLACK
6
CONTINUOUS
10
4.4459807874015747
20
-3.6184488188976376
11
4.4453814173228343
21
-3.6214620866141733
0
LINE
8
BLACK
6
CONTINUOUS
10
4.4453814173228343
20
-3.6214620866141733
11
4.4436745275590548
21
-3.6240165748031496
0
LINE
8
BLACK
6
CONTINUOUS
10
4.4436745275590548
20
-3.6240165748031496
11
4.4411200393700785
21
-3.6257234645669292
0
LINE
8
BLACK
6
CONTINUOUS
10
4.4411200393700785
20
-3.6257234645669292
11
4.4381067716535432
21
-3.6263228346456691
0
LINE
8
BLACK
6
CONTINUOUS
10
4.4381067716535432
20
-3.6263228346456691
11
4.2881067716535428
21
-3.6263228346456691
0
LINE
8
BLACK
6
CONTINUOUS
10
4.2881067716535428
20
-3.6263228346456691
11
4.2850935039370075
21
-3.6257234645669292
0
LINE
8
BLACK
6
CONTINUOUS
10
4.2850935039370075
20
-3.6257234645669292
11
4.2825390157480312
21
-3.6240165748031496
0
LINE
8
BLACK
6
CONTINUOUS
10
4.2825390157480312
20
-3.6240165748031496
11
4.2808321259842517
21
-3.6214620866141733
0
LINE
8
BLACK
6
CONTINUOUS
10
4.2808321259842517
20
-3.6214620866141733
11
4.2802327559055113
21
-3.6184488188976376
0
LINE
8
BLACK
6
CONTINUOUS
10
4.2802327559055113
20
-3.6184488188976376
11
4.2802327559055113
21
-3.4684488188976377
0
LINE
8
BLACK
6
CONTINUOUS
10
4.2802327559055113
20
-3.4684488188976377
11
4.2808321259842517
21
-3.4654355511811024
0
LINE
8
BLACK
6
CONTINUOUS
10
4.2808321259842517
20
-3.4654355511811024
11
4.2825390157480312
21
-3.4628810629921261
0
LINE
8
BLACK
6
CONTINUOUS
10
4.2825390157480312
20
-3.4628810629921261
11
4.2850935039370075
21
-3.4611741732283465
0
LINE
8
BLACK
6
CONTINUOUS
10
4.2850935039370075
20
-3.4611741732283465
11
4.2881067716535428
21
-3.4605748031496062
0
LINE
8
BLACK
6
CONTINUOUS
10
4.2881067716535428
20
-3.4605748031496062
11
4.4381067716535432
21
-3.4605748031496062
0
LINE
8
BLACK
6
CONTINUOUS
10
4.4381067716535432
20
-3.4605748031496062
11
4.4411200393700785
21
-3.4611741732283465
0
LINE
8
BLACK
6
CONTINUOUS
10
5.3220799999999997
20
-3.5585748425196848
11
5.3267444488188973
21
-3.5609514960629922
0
LINE
8
BLACK
6
CONTINUOUS
10
5.3267444488188973
20
-3.5609514960629922
11
5.330446141732283
21
-3.564653188976378
0
LINE
8
BLACK
6
CONTINUOUS
10
5.330446141732283
20
-3.564653188976378
11
5.3328227952755904
21
-3.5693176377952756
0
LINE
8
BLACK
6
CONTINUOUS
10
5.3328227952755904
20
-3.5693176377952756
11
5.3336417322834642
21
-3.5744881889763778
0
LINE
8
BLACK
6
CONTINUOUS
10
5.3336417322834642
20
-3.5744881889763778
11
5.3328227952755904
21
-3.5796587401574804
0
LINE
8
BLACK
6
CONTINUOUS
10
5.3328227952755904
20
-3.5796587401574804
11
5.330446141732283
21
-3.584323188976378
0
LINE
8
BLACK
6
CONTINUOUS
10
5.330446141732283
20
-3.584323188976378
11
5.3267444488188973
21
-3.5880248818897638
0
LINE
8
BLACK
6
CONTINUOUS
10
5.3267444488188973
20
-3.5880248818897638
11
5.3220799999999997
21
-3.5904015354330707
0
LINE
8
BLACK
6
CONTINUOUS
10
5.3220799999999997
20
-3.5904015354330707
11
5.3169094488188975
21
-3.5912204724409449
0
LINE
8
BLACK
6
CONTINUOUS
10
5.3169094488188975
20
-3.5912204724409449
11
5.3117388976377953
21
-3.5904015354330707
0
LINE
8
BLACK
6
CONTINUOUS
10
5.3117388976377953
20
-3.5904015354330707
11
5.3070744488188977
21
-3.5880248818897638
0
LINE
8
BLACK
6
CONTINUOUS
10
5.3070744488188977
20
-3.5880248818897638
11
5.3033727559055119
21
-3.584323188976378
0
LINE
8
BLACK
6
CONTINUOUS
10
5.3033727559055119
20
-3.584323188976378
11
5.3009961023622045
21
-3.5796587401574804
0
LINE
8
BLACK
6
CONTINUOUS
10
5.3009961023622045
20
-3.5796587401574804
11
5.3001771653543308
21
-3.5744881889763778
0
LINE
8
BLACK
6
CONTINUOUS
10
5.3001771653543308
20
-3.5744881889763778
11
5.3009961023622045
21
-3.5693176377952756
0
LINE
8
BLACK
6
CONTINUOUS
10
5.3009961023622045
20
-3.5693176377952756
11
5.3033727559055119
21
-3.564653188976378
0
LINE
8
BLACK
6
CONTINUOUS
10
5.3033727559055119
20
-3.564653188976378
11
5.3070744488188977
21
-3.5609514960629922
0
LINE
8
BLACK
6
CONTINUOUS
10
5.3070744488188977
20
-3.5609514960629922
11
5.3117388976377953
21
-3.5585748425196848
0
LINE
8
BLACK
6
CONTINUOUS
10
5.3117388976377953
20
-3.5585748425196848
11
5.3169094488188975
21
-3.5577559055118111
0
LINE
8
BLACK
6
CONTINUOUS
10
5.3169094488188975
20
-3.5577559055118111
11
5.3220799999999997
21
-3.5585748425196848
0
LINE
8
BLACK
6
CONTINUOUS
10
5.3732611023622043
20
-3.5585748425196848
11
5.3779255511811019
21
-3.5609514960629922
0
LINE
8
BLACK
6
CONTINUOUS
10
5.3779255511811019
20
-3.5609514960629922
11
5.3816272440944877
21
-3.564653188976378
0
LINE
8
BLACK
6
CONTINUOUS
10
5.3816272440944877
20
-3.564653188976378
11
5.3840038976377951
21
-3.5693176377952756
0
LINE
8
BLACK
6
CONTINUOUS
10
5.3840038976377951
20
-3.5693176377952756
11
5.3848228346456688
21
-3.5744881889763778
0
LINE
8
BLACK
6
CONTINUOUS
10
5.3848228346456688
20
-3.5744881889763778
11
5.3840038976377951
21
-3.5796587401574804
0
LINE
8
BLACK
6
CONTINUOUS
10
5.3840038976377951
20
-3.5796587401574804
11
5.3816272440944877
21
-3.584323188976378
0
LINE
8
BLACK
6
CONTINUOUS
10
5.3816272440944877
20
-3.584323188976378
11
5.3779255511811019
21
-3.5880248818897638
0
LINE
8
BLACK
6
CONTINUOUS
10
5.3779255511811019
20
-3.5880248818897638
11
5.3732611023622043
21
-3.5904015354330707
0
LINE
8
BLACK
6
CONTINUOUS
10
5.3732611023622043
20
-3.5904015354330707
11
5.3680905511811021
21
-3.5912204724409449
0
LINE
8
BLACK
6
CONTINUOUS
10
5.3680905511811021
20
-3.5912204724409449
11
5.3629199999999999
21
-3.5904015354330707
0
LINE
8
BLACK
6
CONTINUOUS
10
5.3629199999999999
20
-3.5904015354330707
11
5.3582555511811023
21
-3.5880248818897638
0
LINE
8
BLACK
6
CONTINUOUS
10
5.3582555511811023
20
-3.5880248818897638
11
5.3545538582677166
21
-3.584323188976378
0
LINE
8
BLACK
6
CONTINUOUS
10
5.3545538582677166
20
-3.584323188976378
11
5.3521772047244092
21
-3.5796587401574804
0
LINE
8
BLACK
6
CONTINUOUS
10
5.3521772047244092
20
-3.5796587401574804
11
5.3513582677165354
21
-3.5744881889763778
0
LINE
8
BLACK
6
CONTINUOUS
10
5.3513582677165354
20
-3.5744881889763778
11
5.3521772047244092
21
-3.5693176377952756
0
LINE
8
BLACK
6
CONTINUOUS
10
5.3521772047244092
20
-3.5693176377952756
11
5.3545538582677166
21
-3.564653188976378
0
LINE
8
BLACK
6
CONTINUOUS
10
5.3545538582677166
20
-3.564653188976378
11
5.3582555511811023
21
-3.5609514960629922
0
LINE
8
BLACK
6
CONTINUOUS
10
5.3582555511811023
20
-3.5609514960629922
11
5.3629199999999999
21
-3.5585748425196848
0
LINE
8
BLACK
6
CONTINUOUS
10
5.3629199999999999
20
-3.5585748425196848
11
5.3680905511811021
21
-3.5577559055118111
0
LINE
8
BLACK
6
CONTINUOUS
10
5.3680905511811021
20
-3.5577559055118111
11
5.3732611023622043
21
-3.5585748425196848
0
LINE
8
BLACK
6
CONTINUOUS
10
5.3220799999999997
20
-3.5073937401574802
11
5.3267444488188973
21
-3.5097703937007871
0
LINE
8
BLACK
6
CONTINUOUS
10
5.3267444488188973
20
-3.5097703937007871
11
5.330446141732283
21
-3.5134720866141733
0
LINE
8
BLACK
6
CONTINUOUS
10
5.330446141732283
20
-3.5134720866141733
11
5.3328227952755904
21
-3.5181365354330709
0
LINE
8
BLACK
6
CONTINUOUS
10
5.3328227952755904
20
-3.5181365354330709
11
5.3336417322834642
21
-3.5233070866141731
0
LINE
8
BLACK
6
CONTINUOUS
10
5.3336417322834642
20
-3.5233070866141731
11
5.3328227952755904
21
-3.5284776377952753
0
LINE
8
BLACK
6
CONTINUOUS
10
5.3328227952755904
20
-3.5284776377952753
11
5.330446141732283
21
-3.5331420866141729
0
LINE
8
BLACK
6
CONTINUOUS
10
5.330446141732283
20
-3.5331420866141729
11
5.3267444488188973
21
-3.5368437795275591
0
LINE
8
BLACK
6
CONTINUOUS
10
5.3267444488188973
20
-3.5368437795275591
11
5.3220799999999997
21
-3.5392204330708661
0
LINE
8
BLACK
6
CONTINUOUS
10
5.3220799999999997
20
-3.5392204330708661
11
5.3169094488188975
21
-3.5400393700787403
0
LINE
8
BLACK
6
CONTINUOUS
10
5.3169094488188975
20
-3.5400393700787403
11
5.3117388976377953
21
-3.5392204330708661
0
LINE
8
BLACK
6
CONTINUOUS
10
5.3117388976377953
20
-3.5392204330708661
11
5.3070744488188977
21
-3.5368437795275591
0
LINE
8
BLACK
6
CONTINUOUS
10
5.3070744488188977
20
-3.5368437795275591
11
5.3033727559055119
21
-3.5331420866141729
0
LINE
8
BLACK
6
CONTINUOUS
10
5.3033727559055119
20
-3.5331420866141729
11
5.3009961023622045
21
-3.5284776377952753
0
LINE
8
BLACK
6
CONTINUOUS
10
5.3009961023622045
20
-3.5284776377952753
11
5.3001771653543308
21
-3.5233070866141731
0
LINE
8
BLACK
6
CONTINUOUS
10
5.3001771653543308
20
-3.5233070866141731
11
5.3009961023622045
21
-3.5181365354330709
0
LINE
8
BLACK
6
CONTINUOUS
10
5.3009961023622045
20
-3.5181365354330709
11
5.3033727559055119
21
-3.5134720866141733
0
LINE
8
BLACK
6
CONTINUOUS
10
5.3033727559055119
20
-3.5134720866141733
11
5.3070744488188977
21
-3.5097703937007871
0
LINE
8
BLACK
6
CONTINUOUS
10
5.3070744488188977
20
-3.5097703937007871
11
5.3117388976377953
21
-3.5073937401574802
0
LINE
8
BLACK
6
CONTINUOUS
10
5.3117388976377953
20
-3.5073937401574802
11
5.3169094488188975
21
-3.506574803149606
0
LINE
8
BLACK
6
CONTINUOUS
10
5.3169094488188975
20
-3.506574803149606
11
5.3220799999999997
21
-3.5073937401574802
0
LINE
8
BLACK
6
CONTINUOUS
10
5.3732611023622043
20
-3.5073937401574802
11
5.3779255511811019
21
-3.5097703937007871
0
LINE
8
BLACK
6
CONTINUOUS
10
5.3779255511811019
20
-3.5097703937007871
11
5.3816272440944877
21
-3.5134720866141733
0
LINE
8
BLACK
6
CONTINUOUS
10
5.3816272440944877
20
-3.5134720866141733
11
5.3840038976377951
21
-3.5181365354330709
0
LINE
8
BLACK
6
CONTINUOUS
10
5.3840038976377951
20
-3.5181365354330709
11
5.3848228346456688
21
-3.5233070866141731
0
LINE
8
BLACK
6
CONTINUOUS
10
5.3848228346456688
20
-3.5233070866141731
11
5.3840038976377951
21
-3.5284776377952753
0
LINE
8
BLACK
6
CONTINUOUS
10
5.3840038976377951
20
-3.5284776377952753
11
5.3816272440944877
21
-3.5331420866141729
0
LINE
8
BLACK
6
CONTINUOUS
10
5.3816272440944877
20
-3.5331420866141729
11
5.3779255511811019
21
-3.5368437795275591
0
LINE
8
BLACK
6
CONTINUOUS
10
5.3779255511811019
20
-3.5368437795275591
11
5.3732611023622043
21
-3.5392204330708661
0
LINE
8
BLACK
6
CONTINUOUS
10
5.3732611023622043
20
-3.5392204330708661
11
5.3680905511811021
21
-3.5400393700787403
0
LINE
8
BLACK
6
CONTINUOUS
10
5.3680905511811021
20
-3.5400393700787403
11
5.3629199999999999
21
-3.5392204330708661
0
LINE
8
BLACK
6
CONTINUOUS
10
5.3629199999999999
20
-3.5392204330708661
11
5.3582555511811023
21
-3.5368437795275591
0
LINE
8
BLACK
6
CONTINUOUS
10
5.3582555511811023
20
-3.5368437795275591
11
5.3545538582677166
21
-3.5331420866141729
0
LINE
8
BLACK
6
CONTINUOUS
10
5.3545538582677166
20
-3.5331420866141729
11
5.3521772047244092
21
-3.5284776377952753
0
LINE
8
BLACK
6
CONTINUOUS
10
5.3521772047244092
20
-3.5284776377952753
11
5.3513582677165354
21
-3.5233070866141731
0
LINE
8
BLACK
6
CONTINUOUS
10
5.3513582677165354
20
-3.5233070866141731
11
5.3521772047244092
21
-3.5181365354330709
0
LINE
8
BLACK
6
CONTINUOUS
10
5.3521772047244092
20
-3.5181365354330709
11
5.3545538582677166
21
-3.5134720866141733
0
LINE
8
BLACK
6
CONTINUOUS
10
5.3545538582677166
20
-3.5134720866141733
11
5.3582555511811023
21
-3.5097703937007871
0
LINE
8
BLACK
6
CONTINUOUS
10
5.3582555511811023
20
-3.5097703937007871
11
5.3629199999999999
21
-3.5073937401574802
0
LINE
8
BLACK
6
CONTINUOUS
10
5.3629199999999999
20
-3.5073937401574802
11
5.3680905511811021
21
-3.506574803149606
0
LINE
8
BLACK
6
CONTINUOUS
10
5.3680905511811021
20
-3.506574803149606
11
5.3732611023622043
21
-3.5073937401574802
0
LINE
8
BLACK
6
CONTINUOUS
10
5.3220799999999997
20
-3.4562126377952755
11
5.3267444488188973
21
-3.4585892913385825
0
LINE
8
BLACK
6
CONTINUOUS
10
5.3267444488188973
20
-3.4585892913385825
11
5.330446141732283
21
-3.4622909842519682
0
LINE
8
BLACK
6
CONTINUOUS
10
5.330446141732283
20
-3.4622909842519682
11
5.3328227952755904
21
-3.4669554330708658
0
LINE
8
BLACK
6
CONTINUOUS
10
5.3328227952755904
20
-3.4669554330708658
11
5.3336417322834642
21
-3.4721259842519685
0
LINE
8
BLACK
6
CONTINUOUS
10
5.3336417322834642
20
-3.4721259842519685
11
5.3328227952755904
21
-3.4772965354330707
0
LINE
8
BLACK
6
CONTINUOUS
10
5.3328227952755904
20
-3.4772965354330707
11
5.330446141732283
21
-3.4819609842519683
0
LINE
8
BLACK
6
CONTINUOUS
10
5.330446141732283
20
-3.4819609842519683
11
5.3267444488188973
21
-3.4856626771653541
0
LINE
8
BLACK
6
CONTINUOUS
10
5.3267444488188973
20
-3.4856626771653541
11
5.3220799999999997
21
-3.4880393307086615
0
LINE
8
BLACK
6
CONTINUOUS
10
5.3220799999999997
20
-3.4880393307086615
11
5.3169094488188975
21
-3.4888582677165352
0
LINE
8
BLACK
6
CONTINUOUS
10
5.3169094488188975
20
-3.4888582677165352
11
5.3117388976377953
21
-3.4880393307086615
0
LINE
8
BLACK
6
CONTINUOUS
10
5.3117388976377953
20
-3.4880393307086615
11
5.3070744488188977
21
-3.4856626771653541
0
LINE
8
BLACK
6
CONTINUOUS
10
5.3070744488188977
20
-3.4856626771653541
11
5.3033727559055119
21
-3.4819609842519683
0
LINE
8
BLACK
6
CONTINUOUS
10
5.3033727559055119
20
-3.4819609842519683
11
5.3009961023622045
21
-3.4772965354330707
0
LINE
8
BLACK
6
CONTINUOUS
10
5.3009961023622045
20
-3.4772965354330707
11
5.3001771653543308
21
-3.4721259842519685
0
LINE
8
BLACK
6
CONTINUOUS
10
5.3001771653543308
20
-3.4721259842519685
11
5.3009961023622045
21
-3.4669554330708658
0
LINE
8
BLACK
6
CONTINUOUS
10
5.3009961023622045
20
-3.4669554330708658
11
5.3033727559055119
21
-3.4622909842519682
0
LINE
8
BLACK
6
CONTINUOUS
10
5.3033727559055119
20
-3.4622909842519682
11
5.3070744488188977
21
-3.4585892913385825
0
LINE
8
BLACK
6
CONTINUOUS
10
5.3070744488188977
20
-3.4585892913385825
11
5.3117388976377953
21
-3.4562126377952755
0
LINE
8
BLACK
6
CONTINUOUS
10
5.3117388976377953
20
-3.4562126377952755
11
5.3169094488188975
21
-3.4553937007874014
0
LINE
8
BLACK
6
CONTINUOUS
10
5.3169094488188975
20
-3.4553937007874014
11
5.3220799999999997
21
-3.4562126377952755
0
LINE
8
BLACK
6
CONTINUOUS
10
5.3732611023622043
20
-3.4562126377952755
11
5.3779255511811019
21
-3.4585892913385825
0
LINE
8
BLACK
6
CONTINUOUS
10
5.3779255511811019
20
-3.4585892913385825
11
5.3816272440944877
21
-3.4622909842519682
0
LINE
8
BLACK
6
CONTINUOUS
10
5.3816272440944877
20
-3.4622909842519682
11
5.3840038976377951
21
-3.4669554330708658
0
LINE
8
BLACK
6
CONTINUOUS
10
5.3840038976377951
20
-3.4669554330708658
11
5.3848228346456688
21
-3.4721259842519685
0
LINE
8
BLACK
6
CONTINUOUS
10
5.3848228346456688
20
-3.4721259842519685
11
5.3840038976377951
21
-3.4772965354330707
0
LINE
8
BLACK
6
CONTINUOUS
10
5.3840038976377951
20
-3.4772965354330707
11
5.3816272440944877
21
-3.4819609842519683
0
LINE
8
BLACK
6
CONTINUOUS
10
5.3816272440944877
20
-3.4819609842519683
11
5.3779255511811019
21
-3.4856626771653541
0
LINE
8
BLACK
6
CONTINUOUS
10
5.3779255511811019
20
-3.4856626771653541
11
5.3732611023622043
21
-3.4880393307086615
0
LINE
8
BLACK
6
CONTINUOUS
10
5.3732611023622043
20
-3.4880393307086615
11
5.3680905511811021
21
-3.4888582677165352
0
LINE
8
BLACK
6
CONTINUOUS
10
5.3680905511811021
20
-3.4888582677165352
11
5.3629199999999999
21
-3.4880393307086615
0
LINE
8
BLACK
6
CONTINUOUS
10
5.3629199999999999
20
-3.4880393307086615
11
5.3582555511811023
21
-3.4856626771653541
0
LINE
8
BLACK
6
CONTINUOUS
10
5.3582555511811023
20
-3.4856626771653541
11
5.3545538582677166
21
-3.4819609842519683
0
LINE
8
BLACK
6
CONTINUOUS
10
5.3545538582677166
20
-3.4819609842519683
11
5.3521772047244092
21
-3.4772965354330707
0
LINE
8
BLACK
6
CONTINUOUS
10
5.3521772047244092
20
-3.4772965354330707
11
5.3513582677165354
21
-3.4721259842519685
0
LINE
8
BLACK
6
CONTINUOUS
10
5.3513582677165354
20
-3.4721259842519685
11
5.3521772047244092
21
-3.4669554330708658
0
LINE
8
BLACK
6
CONTINUOUS
10
5.3521772047244092
20
-3.4669554330708658
11
5.3545538582677166
21
-3.4622909842519682
0
LINE
8
BLACK
6
CONTINUOUS
10
5.3545538582677166
20
-3.4622909842519682
11
5.3582555511811023
21
-3.4585892913385825
0
LINE
8
BLACK
6
CONTINUOUS
10
5.3582555511811023
20
-3.4585892913385825
11
5.3629199999999999
21
-3.4562126377952755
0
LINE
8
BLACK
6
CONTINUOUS
10
5.3629199999999999
20
-3.4562126377952755
11
5.3680905511811021
21
-3.4553937007874014
0
LINE
8
BLACK
6
CONTINUOUS
10
5.3680905511811021
20
-3.4553937007874014
11
5.3732611023622043
21
-3.4562126377952755
0
LINE
8
BLACK
6
CONTINUOUS
10
4.0216558661417325
20
-2.8679051181102362
11
4.0358108661417322
21
-2.8710208661417322
0
LINE
8
BLACK
6
CONTINUOUS
10
4.0358108661417322
20
-2.8710208661417322
11
4.0495460629921256
21
-2.8756487795275589
0
LINE
8
BLACK
6
CONTINUOUS
10
4.0495460629921256
20
-2.8756487795275589
11
4.0627003543307083
21
-2.8817346062992124
0
LINE
8
BLACK
6
CONTINUOUS
10
4.0627003543307083
20
-2.8817346062992124
11
4.075119527559055
21
-2.8892069685039368
0
LINE
8
BLACK
6
CONTINUOUS
10
4.075119527559055
20
-2.8892069685039368
11
4.0866579921259838
21
-2.8979783070866141
0
LINE
8
BLACK
6
CONTINUOUS
10
4.0866579921259838
20
-2.8979783070866141
11
4.0971805118110236
21
-2.9079457480314961
0
LINE
8
BLACK
6
CONTINUOUS
10
4.0971805118110236
20
-2.9079457480314961
11
4.1065636220472443
21
-2.9189924409448817
0
LINE
8
BLACK
6
CONTINUOUS
10
4.1065636220472443
20
-2.9189924409448817
11
4.1146974015748032
21
-2.9309888582677166
0
LINE
8
BLACK
6
CONTINUOUS
10
4.1146974015748032
20
-2.9309888582677166
11
4.1214864566929137
21
-2.9437943700787401
0
LINE
8
BLACK
6
CONTINUOUS
10
4.1214864566929137
20
-2.9437943700787401
11
4.1268512204724406
21
-2.9572588582677164
0
LINE
8
BLACK
6
CONTINUOUS
10
4.1268512204724406
20
-2.9572588582677164
11
4.1307287401574806
21
-2.9712244488188975
0
LINE
8
BLACK
6
CONTINUOUS
10
4.1307287401574806
20
-2.9712244488188975
11
4.1330735826771656
21
-2.9855273622047243
0
LINE
8
BLACK
6
CONTINUOUS
10
4.1330735826771656
20
-2.9855273622047243
11
4.1338582677165352
21
-3.
0
LINE
8
BLACK
6
CONTINUOUS
10
4.1338582677165352
20
-3.
11
4.1330735826771656
21
-3.0144726377952753
0
LINE
8
BLACK
6
CONTINUOUS
10
4.1330735826771656
20
-3.0144726377952753
11
4.1307287401574806
21
-3.0287755511811021
0
LINE
8
BLACK
6
CONTINUOUS
10
4.1307287401574806
20
-3.0287755511811021
11
4.1268512204724406
21
-3.0427411417322836
0
LINE
8
BLACK
6
CONTINUOUS
10
4.1268512204724406
20
-3.0427411417322836
11
4.1214864566929137
21
-3.0562056299212599
0
LINE
8
BLACK
6
CONTINUOUS
10
4.1214864566929137
20
-3.0562056299212599
11
4.1146974015748032
21
-3.0690111417322834
0
LINE
8
BLACK
6
CONTINUOUS
10
4.1146974015748032
20
-3.0690111417322834
11
4.1065636220472443
21
-3.0810075590551183
0
LINE
8
BLACK
6
CONTINUOUS
10
4.1065636220472443
20
-3.0810075590551183
11
4.0971805118110236
21
-3.0920542519685039
0
LINE
8
BLACK
6
CONTINUOUS
10
4.0971805118110236
20
-3.0920542519685039
11
4.0866579921259838
21
-3.1020216929133859
0
LINE
8
BLACK
6
CONTINUOUS
10
4.0866579921259838
20
-3.1020216929133859
11
4.075119527559055
21
-3.1107930314960628
0
LINE
8
BLACK
6
CONTINUOUS
10
4.075119527559055
20
-3.1107930314960628
11
4.0627003543307083
21
-3.1182653937007871
0
LINE
8
BLACK
6
CONTINUOUS
10
4.0627003543307083
20
-3.1182653937007871
11
4.0495460629921256
21
-3.1243512204724411
0
LINE
8
BLACK
6
CONTINUOUS
10
4.0495460629921256
20
-3.1243512204724411
11
4.0358108661417322
21
-3.1289791338582678
0
LINE
8
BLACK
6
CONTINUOUS
10
4.0358108661417322
20
-3.1289791338582678
11
4.0216558661417325
21
-3.1320948818897638
0
LINE
8
BLACK
6
CONTINUOUS
10
4.0216558661417325
20
-3.1320948818897638
11
4.0072469291338582
21
-3.1336619685039371
0
LINE
8
BLACK
6
CONTINUOUS
10
4.0072469291338582
20
-3.1336619685039371
11
3.9927530708661418
21
-3.1336619685039371
0
LINE
8
BLACK
6
CONTINUOUS
10
3.9927530708661418
20
-3.1336619685039371
11
3.9783441338582675
21
-3.1320948818897638
0
LINE
8
BLACK
6
CONTINUOUS
10
3.9783441338582675
20
-3.1320948818897638
11
3.9641891338582678
21
-3.1289791338582678
0
LINE
8
BLACK
6
CONTINUOUS
10
3.9641891338582678
20
-3.1289791338582678
11
3.950453937007874
21
-3.1243512204724411
0
LINE
8
BLACK
6
CONTINUOUS
10
3.950453937007874
20
-3.1243512204724411
11
3.9372996456692912
21
-3.1182653937007871
0
LINE
8
BLACK
6
CONTINUOUS
10
3.9372996456692912
20
-3.1182653937007871
11
3.924880472440945
21
-3.1107930314960628
0
LINE
8
BLACK
6
CONTINUOUS
10
3.924880472440945
20
-3.1107930314960628
11
3.9133420078740158
21
-3.1020216929133859
0
LINE
8
BLACK
6
CONTINUOUS
10
3.9133420078740158
20
-3.1020216929133859
11
3.9028194881889764
21
-3.0920542519685039
0
LINE
8
BLACK
6
CONTINUOUS
10
3.9028194881889764
20
-3.0920542519685039
11
3.8934363779527557
21
-3.0810075590551183
0
LINE
8
BLACK
6
CONTINUOUS
10
3.8934363779527557
20
-3.0810075590551183
11
3.8853025984251968
21
-3.0690111417322834
0
LINE
8
BLACK
6
CONTINUOUS
10
3.8853025984251968
20
-3.0690111417322834
11
3.8785135433070863
21
-3.0562056299212599
0
LINE
8
BLACK
6
CONTINUOUS
10
3.8785135433070863
20
-3.0562056299212599
11
3.873148779527559
21
-3.0427411417322836
0
LINE
8
BLACK
6
CONTINUOUS
10
3.873148779527559
20
-3.0427411417322836
11
3.8692712598425194
21
-3.0287755511811021
0
LINE
8
BLACK
6
CONTINUOUS
10
3.8692712598425194
20
-3.0287755511811021
11
3.8669264173228344
21
-3.0144726377952753
0
LINE
8
BLACK
6
CONTINUOUS
10
3.8669264173228344
20
-3.0144726377952753
11
3.8661417322834644
21
-3.
0
LINE
8
BLACK
6
CONTINUOUS
10
3.8661417322834644
20
-3.
11
3.8669264173228344
21
-2.9855273622047243
0
LINE
8
BLACK
6
CONTINUOUS
10
3.8669264173228344
20
-2.9855273622047243
11
3.8692712598425194
21
-2.9712244488188975
0
LINE
8
BLACK
6
CONTINUOUS
10
3.8692712598425194
20
-2.9712244488188975
11
3.873148779527559
21
-2.9572588582677164
0
LINE
8
BLACK
6
CONTINUOUS
10
3.873148779527559
20
-2.9572588582677164
11
3.8785135433070863
21
-2.9437943700787401
0
LINE
8
BLACK
6
CONTINUOUS
10
3.8785135433070863
20
-2.9437943700787401
11
3.8853025984251968
21
-2.9309888582677166
0
LINE
8
BLACK
6
CONTINUOUS
10
3.8853025984251968
20
-2.9309888582677166
11
3.8934363779527557
21
-2.9189924409448817
0
LINE
8
BLACK
6
CONTINUOUS
10
3.8934363779527557
20
-2.9189924409448817
11
3.9028194881889764
21
-2.9079457480314961
0
LINE
8
BLACK
6
CONTINUOUS
10
3.9028194881889764
20
-2.9079457480314961
11
3.9133420078740158
21
-2.8979783070866141
0
LINE
8
BLACK
6
CONTINUOUS
10
3.9133420078740158
20
-2.8979783070866141
11
3.924880472440945
21
-2.8892069685039368
0
LINE
8
BLACK
6
CONTINUOUS
10
3.924880472440945
20
-2.8892069685039368
11
3.9372996456692912
21
-2.8817346062992124
0
LINE
8
BLACK
6
CONTINUOUS
10
3.9372996456692912
20
-2.8817346062992124
11
3.950453937007874
21
-2.8756487795275589
0
LINE
8
BLACK
6
CONTINUOUS
10
3.950453937007874
20
-2.8756487795275589
11
3.9641891338582678
21
-2.8710208661417322
0
LINE
8
BLACK
6
CONTINUOUS
10
3.9641891338582678
20
-2.8710208661417322
11
3.9783441338582675
21
-2.8679051181102362
0
LINE
8
BLACK
6
CONTINUOUS
10
3.9783441338582675
20
-2.8679051181102362
11
3.9927530708661418
21
-2.8663380314960629
0
LINE
8
BLACK
6
CONTINUOUS
10
3.9927530708661418
20
-2.8663380314960629
11
4.0072469291338582
21
-2.8663380314960629
0
LINE
8
BLACK
6
CONTINUOUS
10
4.0072469291338582
20
-2.8663380314960629
11
4.0216558661417325
21
-2.8679051181102362
0
LINE
8
BLACK
6
CONTINUOUS
10
5.7216558661417318
20
-2.8679051181102362
11
5.7358108661417324
21
-2.8710208661417322
0
LINE
8
BLACK
6
CONTINUOUS
10
5.7358108661417324
20
-2.8710208661417322
11
5.7495460629921258
21
-2.8756487795275589
0
LINE
8
BLACK
6
CONTINUOUS
10
5.7495460629921258
20
-2.8756487795275589
11
5.7627003543307085
21
-2.8817346062992124
0
LINE
8
BLACK
6
CONTINUOUS
10
5.7627003543307085
20
-2.8817346062992124
11
5.7751195275590552
21
-2.8892069685039368
0
LINE
8
BLACK
6
CONTINUOUS
10
5.7751195275590552
20
-2.8892069685039368
11
5.786657992125984
21
-2.8979783070866141
0
LINE
8
BLACK
6
CONTINUOUS
10
5.786657992125984
20
-2.8979783070866141
11
5.7971805118110238
21
-2.9079457480314961
0
LINE
8
BLACK
6
CONTINUOUS
10
5.7971805118110238
20
-2.9079457480314961
11
5.8065636220472436
21
-2.9189924409448817
0
LINE
8
BLACK
6
CONTINUOUS
10
5.8065636220472436
20
-2.9189924409448817
11
5.8146974015748034
21
-2.9309888582677166
0
LINE
8
BLACK
6
CONTINUOUS
10
5.8146974015748034
20
-2.9309888582677166
11
5.821486456692913
21
-2.9437943700787401
0
LINE
8
BLACK
6
CONTINUOUS
10
5.821486456692913
20
-2.9437943700787401
11
5.8268512204724408
21
-2.9572588582677164
0
LINE
8
BLACK
6
CONTINUOUS
10
5.8268512204724408
20
-2.9572588582677164
11
5.8307287401574799
21
-2.9712244488188975
0
LINE
8
BLACK
6
CONTINUOUS
10
5.8307287401574799
20
-2.9712244488188975
11
5.8330735826771649
21
-2.9855273622047243
0
LINE
8
BLACK
6
CONTINUOUS
10
5.8330735826771649
20
-2.9855273622047243
11
5.8338582677165354
21
-3.
0
LINE
8
BLACK
6
CONTINUOUS
10
5.8338582677165354
20
-3.
11
5.8330735826771649
21
-3.0144726377952753
0
LINE
8
BLACK
6
CONTINUOUS
10
5.8330735826771649
20
-3.0144726377952753
11
5.8307287401574799
21
-3.0287755511811021
0
LINE
8
BLACK
6
CONTINUOUS
10
5.8307287401574799
20
-3.0287755511811021
11
5.8268512204724408
21
-3.0427411417322836
0
LINE
8
BLACK
6
CONTINUOUS
10
5.8268512204724408
20
-3.0427411417322836
11
5.821486456692913
21
-3.0562056299212599
0
LINE
8
BLACK
6
CONTINUOUS
10
5.821486456692913
20
-3.0562056299212599
11
5.8146974015748034
21
-3.0690111417322834
0
LINE
8
BLACK
6
CONTINUOUS
10
5.8146974015748034
20
-3.0690111417322834
11
5.8065636220472436
21
-3.0810075590551183
0
LINE
8
BLACK
6
CONTINUOUS
10
5.8065636220472436
20
-3.0810075590551183
11
5.7971805118110238
21
-3.0920542519685039
0
LINE
8
BLACK
6
CONTINUOUS
10
5.7971805118110238
20
-3.0920542519685039
11
5.786657992125984
21
-3.1020216929133859
0
LINE
8
BLACK
6
CONTINUOUS
10
5.786657992125984
20
-3.1020216929133859
11
5.7751195275590552
21
-3.1107930314960628
0
LINE
8
BLACK
6
CONTINUOUS
10
5.7751195275590552
20
-3.1107930314960628
11
5.7627003543307085
21
-3.1182653937007871
0
LINE
8
BLACK
6
CONTINUOUS
10
5.7627003543307085
20
-3.1182653937007871
11
5.7495460629921258
21
-3.1243512204724411
0
LINE
8
BLACK
6
CONTINUOUS
10
5.7495460629921258
20
-3.1243512204724411
11
5.7358108661417324
21
-3.1289791338582678
0
LINE
8
BLACK
6
CONTINUOUS
10
5.7358108661417324
20
-3.1289791338582678
11
5.7216558661417318
21
-3.1320948818897638
0
LINE
8
BLACK
6
CONTINUOUS
10
5.7216558661417318
20
-3.1320948818897638
11
5.7072469291338583
21
-3.1336619685039371
0
LINE
8
BLACK
6
CONTINUOUS
10
5.7072469291338583
20
-3.1336619685039371
11
5.692753070866142
21
-3.1336619685039371
0
LINE
8
BLACK
6
CONTINUOUS
10
5.692753070866142
20
-3.1336619685039371
11
5.6783441338582676
21
-3.1320948818897638
0
LINE
8
BLACK
6
CONTINUOUS
10
5.6783441338582676
20
-3.1320948818897638
11
5.6641891338582679
21
-3.1289791338582678
0
LINE
8
BLACK
6
CONTINUOUS
10
5.6641891338582679
20
-3.1289791338582678
11
5.6504539370078737
21
-3.1243512204724411
0
LINE
8
BLACK
6
CONTINUOUS
10
5.6504539370078737
20
-3.1243512204724411
11
5.637299645669291
21
-3.1182653937007871
0
LINE
8
BLACK
6
CONTINUOUS
10
5.637299645669291
20
-3.1182653937007871
11
5.6248804724409451
21
-3.1107930314960628
0
LINE
8
BLACK
6
CONTINUOUS
10
5.6248804724409451
20
-3.1107930314960628
11
5.6133420078740155
21
-3.1020216929133859
0
LINE
8
BLACK
6
CONTINUOUS
10
5.6133420078740155
20
-3.1020216929133859
11
5.6028194881889766
21
-3.0920542519685039
0
LINE
8
BLACK
6
CONTINUOUS
10
5.6028194881889766
20
-3.0920542519685039
11
5.5934363779527558
21
-3.0810075590551183
0
LINE
8
BLACK
6
CONTINUOUS
10
5.5934363779527558
20
-3.0810075590551183
11
5.5853025984251969
21
-3.0690111417322834
0
LINE
8
BLACK
6
CONTINUOUS
10
5.5853025984251969
20
-3.0690111417322834
11
5.5785135433070865
21
-3.0562056299212599
0
LINE
8
BLACK
6
CONTINUOUS
10
5.5785135433070865
20
-3.0562056299212599
11
5.5731487795275587
21
-3.0427411417322836
0
LINE
8
BLACK
6
CONTINUOUS
10
5.5731487795275587
20
-3.0427411417322836
11
5.5692712598425196
21
-3.0287755511811021
0
LINE
8
BLACK
6
CONTINUOUS
10
5.5692712598425196
20
-3.0287755511811021
11
5.5669264173228346
21
-3.0144726377952753
0
LINE
8
BLACK
6
CONTINUOUS
10
5.5669264173228346
20
-3.0144726377952753
11
5.5661417322834641
21
-3.
0
LINE
8
BLACK
6
CONTINUOUS
10
5.5661417322834641
20
-3.
11
5.5669264173228346
21
-2.9855273622047243
0
LINE
8
BLACK
6
CONTINUOUS
10
5.5669264173228346
20
-2.9855273622047243
11
5.5692712598425196
21
-2.9712244488188975
0
LINE
8
BLACK
6
CONTINUOUS
10
5.5692712598425196
20
-2.9712244488188975
11
5.5731487795275587
21
-2.9572588582677164
0
LINE
8
BLACK
6
CONTINUOUS
10
5.5731487795275587
20
-2.9572588582677164
11
5.5785135433070865
21
-2.9437943700787401
0
LINE
8
BLACK
6
CONTINUOUS
10
5.5785135433070865
20
-2.9437943700787401
11
5.5853025984251969
21
-2.9309888582677166
0
LINE
8
BLACK
6
CONTINUOUS
10
5.5853025984251969
20
-2.9309888582677166
11
5.5934363779527558
21
-2.9189924409448817
0
LINE
8
BLACK
6
CONTINUOUS
10
5.5934363779527558
20
-2.9189924409448817
11
5.6028194881889766
21
-2.9079457480314961
0
LINE
8
BLACK
6
CONTINUOUS
10
5.6028194881889766
20
-2.9079457480314961
11
5.6133420078740155
21
-2.8979783070866141
0
LINE
8
BLACK
6
CONTINUOUS
10
5.6133420078740155
20
-2.8979783070866141
11
5.6248804724409451
21
-2.8892069685039368
0
LINE
8
BLACK
6
CONTINUOUS
10
5.6248804724409451
20
-2.8892069685039368
11
5.637299645669291
21
-2.8817346062992124
0
LINE
8
BLACK
6
CONTINUOUS
10
5.637299645669291
20
-2.8817346062992124
11
5.6504539370078737
21
-2.8756487795275589
0
LINE
8
BLACK
6
CONTINUOUS
10
5.6504539370078737
20
-2.8756487795275589
11
5.6641891338582679
21
-2.8710208661417322
0
LINE
8
BLACK
6
CONTINUOUS
10
5.6641891338582679
20
-2.8710208661417322
11
5.6783441338582676
21
-2.8679051181102362
0
LINE
8
BLACK
6
CONTINUOUS
10
5.6783441338582676
20
-2.8679051181102362
11
5.692753070866142
21
-2.8663380314960629
0
LINE
8
BLACK
6
CONTINUOUS
10
5.692753070866142
20
-2.8663380314960629
11
5.7072469291338583
21
-2.8663380314960629
0
LINE
8
BLACK
6
CONTINUOUS
10
5.7072469291338583
20
-2.8663380314960629
11
5.7216558661417318
21
-2.8679051181102362
  0
ENDSEC
  0
EOF
