M48
;DRILL file {KiCad (2017-08-08 revision 53204e097)-makepkg} date 11/24/17 10:40:25
;FORMAT={3:3/ absolute / metric / suppress leading zeros}
FMAT,2
METRIC,TZ
T1C0.300
T2C0.400
T3C1.300
T4C3.200
%
G90
G05
M71
T1
X106680Y-85344
X118103Y-101166
X118389Y-92775
X121701Y-101192
X121929Y-92655
X124206Y-96012
X124206Y-96774
X124206Y-97536
X125222Y-96012
X125222Y-96774
X125222Y-97536
X125273Y-101219
X125470Y-92707
X126238Y-96012
X126238Y-96774
X126238Y-97536
X128818Y-101166
X128993Y-92672
X132842Y-92329
X134874Y-82550
X134874Y-83312
X134874Y-84074
X134874Y-84836
X134874Y-85598
X134874Y-86360
X135763Y-82550
X135763Y-83312
X135763Y-84074
X135763Y-84836
X135763Y-85598
X135763Y-86360
X136652Y-86360
X136652Y-82550
X136652Y-83312
X136652Y-84074
X136652Y-84836
X136652Y-85598
X142494Y-92329
T2
X135050Y-88192
X135050Y-89492
X135050Y-90792
X136350Y-88192
X136350Y-89492
X136350Y-90792
T3
X105816Y-105004
X110816Y-105004
X105823Y-95004
X110823Y-95004
X105823Y-90004
X110823Y-90004
X105823Y-100004
X110823Y-100004
T4
X101600Y-118872
X144780Y-76200
X101600Y-76200
X144780Y-118872
T0
M30
