G04 #@! TF.GenerationSoftware,KiCad,Pcbnew,(2017-08-08 revision 53204e097)-makepkg*
G04 #@! TF.CreationDate,2017-11-28T10:39:20+01:00*
G04 #@! TF.ProjectId,LMR1405001A,4C4D5231343035303031412E6B696361,rev?*
G04 #@! TF.SameCoordinates,Original*
G04 #@! TF.FileFunction,Paste,Bot*
G04 #@! TF.FilePolarity,Positive*
%FSLAX46Y46*%
G04 Gerber Fmt 4.6, Leading zero omitted, Abs format (unit mm)*
G04 Created by KiCad (PCBNEW (2017-08-08 revision 53204e097)-makepkg) date 11/28/17 10:39:20*
%MOMM*%
%LPD*%
G01*
G04 APERTURE LIST*
%ADD10R,2.500000X1.000000*%
%ADD11R,0.800000X0.750000*%
%ADD12R,2.600000X3.200000*%
%ADD13R,5.400040X2.900680*%
%ADD14C,2.400000*%
%ADD15C,0.100000*%
%ADD16C,0.450000*%
G04 APERTURE END LIST*
D10*
X129032000Y-88416000D03*
X129032000Y-91416000D03*
X121920000Y-91416000D03*
X121920000Y-88416000D03*
X125476000Y-88416000D03*
X125476000Y-91416000D03*
D11*
X141045500Y-89217500D03*
X142545500Y-89217500D03*
X141045500Y-91376500D03*
X142545500Y-91376500D03*
D10*
X121666000Y-102449500D03*
X121666000Y-105449500D03*
X118110000Y-105449500D03*
X118110000Y-102449500D03*
X128778000Y-102449500D03*
X128778000Y-105449500D03*
X125222000Y-105449500D03*
X125222000Y-102449500D03*
D12*
X121622000Y-96774000D03*
X128822000Y-96774000D03*
D13*
X137160000Y-95836740D03*
X137160000Y-105839260D03*
D11*
X132092000Y-85852000D03*
X133592000Y-85852000D03*
X141045500Y-87566500D03*
X142545500Y-87566500D03*
X140958000Y-85852000D03*
X139458000Y-85852000D03*
D14*
X135699500Y-89492000D03*
D15*
G36*
X136899500Y-91042000D02*
X134499500Y-91042000D01*
X134499500Y-87942000D01*
X136899500Y-87942000D01*
X136899500Y-91042000D01*
X136899500Y-91042000D01*
G37*
D16*
X138574500Y-91397000D03*
D15*
G36*
X139649500Y-91622000D02*
X137499500Y-91622000D01*
X137499500Y-91172000D01*
X139649500Y-91172000D01*
X139649500Y-91622000D01*
X139649500Y-91622000D01*
G37*
D16*
X138574500Y-90127000D03*
D15*
G36*
X139649500Y-90352000D02*
X137499500Y-90352000D01*
X137499500Y-89902000D01*
X139649500Y-89902000D01*
X139649500Y-90352000D01*
X139649500Y-90352000D01*
G37*
D16*
X138574500Y-88857000D03*
D15*
G36*
X139649500Y-89082000D02*
X137499500Y-89082000D01*
X137499500Y-88632000D01*
X139649500Y-88632000D01*
X139649500Y-89082000D01*
X139649500Y-89082000D01*
G37*
D16*
X138574500Y-87587000D03*
D15*
G36*
X139649500Y-87812000D02*
X137499500Y-87812000D01*
X137499500Y-87362000D01*
X139649500Y-87362000D01*
X139649500Y-87812000D01*
X139649500Y-87812000D01*
G37*
D16*
X132824500Y-87587000D03*
D15*
G36*
X133899500Y-87812000D02*
X131749500Y-87812000D01*
X131749500Y-87362000D01*
X133899500Y-87362000D01*
X133899500Y-87812000D01*
X133899500Y-87812000D01*
G37*
D16*
X132824500Y-88857000D03*
D15*
G36*
X133899500Y-89082000D02*
X131749500Y-89082000D01*
X131749500Y-88632000D01*
X133899500Y-88632000D01*
X133899500Y-89082000D01*
X133899500Y-89082000D01*
G37*
D16*
X132824500Y-90127000D03*
D15*
G36*
X133899500Y-90352000D02*
X131749500Y-90352000D01*
X131749500Y-89902000D01*
X133899500Y-89902000D01*
X133899500Y-90352000D01*
X133899500Y-90352000D01*
G37*
D16*
X132824500Y-91397000D03*
D15*
G36*
X133899500Y-91622000D02*
X131749500Y-91622000D01*
X131749500Y-91172000D01*
X133899500Y-91172000D01*
X133899500Y-91622000D01*
X133899500Y-91622000D01*
G37*
D10*
X118364000Y-88416000D03*
X118364000Y-91416000D03*
M02*
