G04 #@! TF.GenerationSoftware,KiCad,Pcbnew,(2017-08-08 revision 53204e097)-makepkg*
G04 #@! TF.CreationDate,2017-11-28T10:39:20+01:00*
G04 #@! TF.ProjectId,LMR1405001A,4C4D5231343035303031412E6B696361,rev?*
G04 #@! TF.SameCoordinates,Original*
G04 #@! TF.FileFunction,Copper,L1,Top,Signal*
G04 #@! TF.FilePolarity,Positive*
%FSLAX46Y46*%
G04 Gerber Fmt 4.6, Leading zero omitted, Abs format (unit mm)*
G04 Created by KiCad (PCBNEW (2017-08-08 revision 53204e097)-makepkg) date 11/28/17 10:39:20*
%MOMM*%
%LPD*%
G01*
G04 APERTURE LIST*
%ADD10C,0.450000*%
%ADD11C,6.400000*%
%ADD12R,3.810000X3.810000*%
%ADD13C,0.600000*%
%ADD14C,0.300000*%
%ADD15C,0.254000*%
G04 APERTURE END LIST*
D10*
X136349500Y-90792000D03*
X135049500Y-90792000D03*
X135049500Y-88192000D03*
X136349500Y-88192000D03*
X136349500Y-89492000D03*
X135049500Y-89492000D03*
D11*
X101600000Y-118872000D03*
X144780000Y-76200000D03*
X144780000Y-118872000D03*
X101600000Y-76200000D03*
D12*
X105822912Y-90003600D03*
X110822912Y-90003600D03*
X110822912Y-95003600D03*
X105822912Y-95003600D03*
X105816400Y-105003600D03*
X110816400Y-105003600D03*
X110822912Y-100003600D03*
X105822912Y-100003600D03*
D13*
X124206000Y-97536000D03*
X124206000Y-96774000D03*
X124206000Y-96012000D03*
X126238000Y-97536000D03*
X126238000Y-96774000D03*
X126238000Y-96012000D03*
X125222000Y-97536000D03*
X125222000Y-96774000D03*
X125222000Y-96012000D03*
X106680000Y-85344000D03*
X128993004Y-92672156D03*
X125469782Y-92706529D03*
X121929373Y-92654970D03*
X118388965Y-92775275D03*
X128818393Y-101165917D03*
X125273111Y-101218832D03*
X121701371Y-101192375D03*
X118103175Y-101165917D03*
X135763000Y-82550000D03*
X134874000Y-82550000D03*
X135763000Y-83312000D03*
X135763000Y-84074000D03*
X136652000Y-82550000D03*
X136652000Y-83312000D03*
X134874000Y-83312000D03*
X134874000Y-84074000D03*
X136652000Y-84073990D03*
X135763000Y-84836000D03*
X135763000Y-85598000D03*
X134874000Y-84836000D03*
X134874000Y-85598000D03*
X136651984Y-86360000D03*
X134874000Y-86360000D03*
X135763000Y-86360000D03*
X136652000Y-84836000D03*
X136652000Y-85598000D03*
X142494000Y-92328994D03*
X132842000Y-92329000D03*
D14*
X123906001Y-96474001D02*
X124206000Y-96774000D01*
X124206000Y-96012000D02*
X124206000Y-96774000D01*
X123906001Y-96311999D02*
X123906001Y-96474001D01*
X123952000Y-96266000D02*
X123906001Y-96311999D01*
X125222000Y-96012000D02*
X124206000Y-96012000D01*
X126238000Y-96774000D02*
X126238000Y-97536000D01*
X124922001Y-97236001D02*
X125222000Y-97536000D01*
X124968000Y-97028000D02*
X124922001Y-97073999D01*
X124922001Y-97073999D02*
X124922001Y-97236001D01*
X125222000Y-96774000D02*
X125222000Y-97536000D01*
X107104264Y-85344000D02*
X106680000Y-85344000D01*
X111381954Y-85344000D02*
X107104264Y-85344000D01*
X118388965Y-92351011D02*
X111381954Y-85344000D01*
X118388965Y-92775275D02*
X118388965Y-92351011D01*
X135763000Y-82550000D02*
X136652000Y-82550000D01*
X136652000Y-83312000D02*
X135763000Y-83312000D01*
X135763010Y-84073990D02*
X135763000Y-84074000D01*
X136187264Y-84074000D02*
X135763000Y-84074000D01*
X136525010Y-83947000D02*
X136398010Y-84074000D01*
X136652000Y-84073990D02*
X135763010Y-84073990D01*
X136398010Y-84074000D02*
X136187264Y-84074000D01*
X134874000Y-84074000D02*
X134874000Y-83312000D01*
X135890000Y-84836000D02*
X135763000Y-84836000D01*
X136652000Y-84836000D02*
X135890000Y-84836000D01*
X136652000Y-85598000D02*
X135763000Y-85598000D01*
X134874000Y-85598000D02*
X134874000Y-84836000D01*
X135763000Y-86360000D02*
X136651984Y-86360000D01*
X142493994Y-92329000D02*
X142494000Y-92328994D01*
X132842000Y-92329000D02*
X142493994Y-92329000D01*
D15*
G36*
X148896000Y-123496000D02*
X97484000Y-123496000D01*
X97484000Y-103098600D01*
X103263960Y-103098600D01*
X103263960Y-106908600D01*
X103313243Y-107156365D01*
X103453591Y-107366409D01*
X103663635Y-107506757D01*
X103911400Y-107556040D01*
X107721400Y-107556040D01*
X107969165Y-107506757D01*
X108179209Y-107366409D01*
X108316400Y-107161090D01*
X108453591Y-107366409D01*
X108663635Y-107506757D01*
X108911400Y-107556040D01*
X112721400Y-107556040D01*
X112969165Y-107506757D01*
X113179209Y-107366409D01*
X113319557Y-107156365D01*
X113368840Y-106908600D01*
X113368840Y-103098600D01*
X113319557Y-102850835D01*
X113179209Y-102640791D01*
X112969165Y-102500443D01*
X112721400Y-102451160D01*
X108911400Y-102451160D01*
X108663635Y-102500443D01*
X108453591Y-102640791D01*
X108316400Y-102846110D01*
X108179209Y-102640791D01*
X107969165Y-102500443D01*
X107721400Y-102451160D01*
X103911400Y-102451160D01*
X103663635Y-102500443D01*
X103453591Y-102640791D01*
X103313243Y-102850835D01*
X103263960Y-103098600D01*
X97484000Y-103098600D01*
X97484000Y-88098600D01*
X103270472Y-88098600D01*
X103270472Y-91908600D01*
X103319755Y-92156365D01*
X103460103Y-92366409D01*
X103670147Y-92506757D01*
X103917912Y-92556040D01*
X107727912Y-92556040D01*
X107975677Y-92506757D01*
X108185721Y-92366409D01*
X108322912Y-92161090D01*
X108460103Y-92366409D01*
X108670147Y-92506757D01*
X108917912Y-92556040D01*
X112727912Y-92556040D01*
X112938424Y-92514167D01*
X131906838Y-92514167D01*
X132048883Y-92857943D01*
X132311673Y-93121192D01*
X132655201Y-93263838D01*
X133027167Y-93264162D01*
X133370943Y-93122117D01*
X133379074Y-93114000D01*
X141956500Y-93114000D01*
X141963673Y-93121186D01*
X142307201Y-93263832D01*
X142679167Y-93264156D01*
X143022943Y-93122111D01*
X143286192Y-92859321D01*
X143428838Y-92515793D01*
X143429162Y-92143827D01*
X143287117Y-91800051D01*
X143024327Y-91536802D01*
X142680799Y-91394156D01*
X142308833Y-91393832D01*
X141965057Y-91535877D01*
X141956920Y-91544000D01*
X133379506Y-91544000D01*
X133372327Y-91536808D01*
X133028799Y-91394162D01*
X132656833Y-91393838D01*
X132313057Y-91535883D01*
X132049808Y-91798673D01*
X131907162Y-92142201D01*
X131906838Y-92514167D01*
X112938424Y-92514167D01*
X112975677Y-92506757D01*
X113185721Y-92366409D01*
X113326069Y-92156365D01*
X113375352Y-91908600D01*
X113375352Y-88098600D01*
X113326069Y-87850835D01*
X113185721Y-87640791D01*
X112975677Y-87500443D01*
X112727912Y-87451160D01*
X108917912Y-87451160D01*
X108670147Y-87500443D01*
X108460103Y-87640791D01*
X108322912Y-87846110D01*
X108185721Y-87640791D01*
X107975677Y-87500443D01*
X107727912Y-87451160D01*
X103917912Y-87451160D01*
X103670147Y-87500443D01*
X103460103Y-87640791D01*
X103319755Y-87850835D01*
X103270472Y-88098600D01*
X97484000Y-88098600D01*
X97484000Y-72084000D01*
X148896000Y-72084000D01*
X148896000Y-123496000D01*
X148896000Y-123496000D01*
G37*
X148896000Y-123496000D02*
X97484000Y-123496000D01*
X97484000Y-103098600D01*
X103263960Y-103098600D01*
X103263960Y-106908600D01*
X103313243Y-107156365D01*
X103453591Y-107366409D01*
X103663635Y-107506757D01*
X103911400Y-107556040D01*
X107721400Y-107556040D01*
X107969165Y-107506757D01*
X108179209Y-107366409D01*
X108316400Y-107161090D01*
X108453591Y-107366409D01*
X108663635Y-107506757D01*
X108911400Y-107556040D01*
X112721400Y-107556040D01*
X112969165Y-107506757D01*
X113179209Y-107366409D01*
X113319557Y-107156365D01*
X113368840Y-106908600D01*
X113368840Y-103098600D01*
X113319557Y-102850835D01*
X113179209Y-102640791D01*
X112969165Y-102500443D01*
X112721400Y-102451160D01*
X108911400Y-102451160D01*
X108663635Y-102500443D01*
X108453591Y-102640791D01*
X108316400Y-102846110D01*
X108179209Y-102640791D01*
X107969165Y-102500443D01*
X107721400Y-102451160D01*
X103911400Y-102451160D01*
X103663635Y-102500443D01*
X103453591Y-102640791D01*
X103313243Y-102850835D01*
X103263960Y-103098600D01*
X97484000Y-103098600D01*
X97484000Y-88098600D01*
X103270472Y-88098600D01*
X103270472Y-91908600D01*
X103319755Y-92156365D01*
X103460103Y-92366409D01*
X103670147Y-92506757D01*
X103917912Y-92556040D01*
X107727912Y-92556040D01*
X107975677Y-92506757D01*
X108185721Y-92366409D01*
X108322912Y-92161090D01*
X108460103Y-92366409D01*
X108670147Y-92506757D01*
X108917912Y-92556040D01*
X112727912Y-92556040D01*
X112938424Y-92514167D01*
X131906838Y-92514167D01*
X132048883Y-92857943D01*
X132311673Y-93121192D01*
X132655201Y-93263838D01*
X133027167Y-93264162D01*
X133370943Y-93122117D01*
X133379074Y-93114000D01*
X141956500Y-93114000D01*
X141963673Y-93121186D01*
X142307201Y-93263832D01*
X142679167Y-93264156D01*
X143022943Y-93122111D01*
X143286192Y-92859321D01*
X143428838Y-92515793D01*
X143429162Y-92143827D01*
X143287117Y-91800051D01*
X143024327Y-91536802D01*
X142680799Y-91394156D01*
X142308833Y-91393832D01*
X141965057Y-91535877D01*
X141956920Y-91544000D01*
X133379506Y-91544000D01*
X133372327Y-91536808D01*
X133028799Y-91394162D01*
X132656833Y-91393838D01*
X132313057Y-91535883D01*
X132049808Y-91798673D01*
X131907162Y-92142201D01*
X131906838Y-92514167D01*
X112938424Y-92514167D01*
X112975677Y-92506757D01*
X113185721Y-92366409D01*
X113326069Y-92156365D01*
X113375352Y-91908600D01*
X113375352Y-88098600D01*
X113326069Y-87850835D01*
X113185721Y-87640791D01*
X112975677Y-87500443D01*
X112727912Y-87451160D01*
X108917912Y-87451160D01*
X108670147Y-87500443D01*
X108460103Y-87640791D01*
X108322912Y-87846110D01*
X108185721Y-87640791D01*
X107975677Y-87500443D01*
X107727912Y-87451160D01*
X103917912Y-87451160D01*
X103670147Y-87500443D01*
X103460103Y-87640791D01*
X103319755Y-87850835D01*
X103270472Y-88098600D01*
X97484000Y-88098600D01*
X97484000Y-72084000D01*
X148896000Y-72084000D01*
X148896000Y-123496000D01*
M02*
