G04 #@! TF.GenerationSoftware,KiCad,Pcbnew,(2017-08-08 revision 53204e097)-makepkg*
G04 #@! TF.CreationDate,2017-11-28T10:39:20+01:00*
G04 #@! TF.ProjectId,LMR1405001A,4C4D5231343035303031412E6B696361,rev?*
G04 #@! TF.SameCoordinates,Original*
G04 #@! TF.FileFunction,Copper,L2,Bot,Signal*
G04 #@! TF.FilePolarity,Positive*
%FSLAX46Y46*%
G04 Gerber Fmt 4.6, Leading zero omitted, Abs format (unit mm)*
G04 Created by KiCad (PCBNEW (2017-08-08 revision 53204e097)-makepkg) date 11/28/17 10:39:20*
%MOMM*%
%LPD*%
G01*
G04 APERTURE LIST*
%ADD10R,2.500000X1.000000*%
%ADD11R,0.800000X0.750000*%
%ADD12R,2.600000X3.200000*%
%ADD13R,5.400040X2.900680*%
%ADD14C,0.450000*%
%ADD15C,2.400000*%
%ADD16C,0.100000*%
%ADD17C,6.400000*%
%ADD18R,3.810000X3.810000*%
%ADD19C,0.600000*%
%ADD20C,0.300000*%
%ADD21C,0.254000*%
G04 APERTURE END LIST*
D10*
X129032000Y-88416000D03*
X129032000Y-91416000D03*
X121920000Y-91416000D03*
X121920000Y-88416000D03*
X125476000Y-88416000D03*
X125476000Y-91416000D03*
D11*
X141045500Y-89217500D03*
X142545500Y-89217500D03*
X141045500Y-91376500D03*
X142545500Y-91376500D03*
D10*
X121666000Y-102449500D03*
X121666000Y-105449500D03*
X118110000Y-105449500D03*
X118110000Y-102449500D03*
X128778000Y-102449500D03*
X128778000Y-105449500D03*
X125222000Y-105449500D03*
X125222000Y-102449500D03*
D12*
X121622000Y-96774000D03*
X128822000Y-96774000D03*
D13*
X137160000Y-95836740D03*
X137160000Y-105839260D03*
D11*
X132092000Y-85852000D03*
X133592000Y-85852000D03*
X141045500Y-87566500D03*
X142545500Y-87566500D03*
X140958000Y-85852000D03*
X139458000Y-85852000D03*
D14*
X136349500Y-90792000D03*
X135049500Y-90792000D03*
X135049500Y-88192000D03*
X136349500Y-88192000D03*
X136349500Y-89492000D03*
X135049500Y-89492000D03*
D15*
X135699500Y-89492000D03*
D16*
G36*
X136899500Y-91042000D02*
X134499500Y-91042000D01*
X134499500Y-87942000D01*
X136899500Y-87942000D01*
X136899500Y-91042000D01*
X136899500Y-91042000D01*
G37*
D14*
X138574500Y-91397000D03*
D16*
G36*
X139649500Y-91622000D02*
X137499500Y-91622000D01*
X137499500Y-91172000D01*
X139649500Y-91172000D01*
X139649500Y-91622000D01*
X139649500Y-91622000D01*
G37*
D14*
X138574500Y-90127000D03*
D16*
G36*
X139649500Y-90352000D02*
X137499500Y-90352000D01*
X137499500Y-89902000D01*
X139649500Y-89902000D01*
X139649500Y-90352000D01*
X139649500Y-90352000D01*
G37*
D14*
X138574500Y-88857000D03*
D16*
G36*
X139649500Y-89082000D02*
X137499500Y-89082000D01*
X137499500Y-88632000D01*
X139649500Y-88632000D01*
X139649500Y-89082000D01*
X139649500Y-89082000D01*
G37*
D14*
X138574500Y-87587000D03*
D16*
G36*
X139649500Y-87812000D02*
X137499500Y-87812000D01*
X137499500Y-87362000D01*
X139649500Y-87362000D01*
X139649500Y-87812000D01*
X139649500Y-87812000D01*
G37*
D14*
X132824500Y-87587000D03*
D16*
G36*
X133899500Y-87812000D02*
X131749500Y-87812000D01*
X131749500Y-87362000D01*
X133899500Y-87362000D01*
X133899500Y-87812000D01*
X133899500Y-87812000D01*
G37*
D14*
X132824500Y-88857000D03*
D16*
G36*
X133899500Y-89082000D02*
X131749500Y-89082000D01*
X131749500Y-88632000D01*
X133899500Y-88632000D01*
X133899500Y-89082000D01*
X133899500Y-89082000D01*
G37*
D14*
X132824500Y-90127000D03*
D16*
G36*
X133899500Y-90352000D02*
X131749500Y-90352000D01*
X131749500Y-89902000D01*
X133899500Y-89902000D01*
X133899500Y-90352000D01*
X133899500Y-90352000D01*
G37*
D14*
X132824500Y-91397000D03*
D16*
G36*
X133899500Y-91622000D02*
X131749500Y-91622000D01*
X131749500Y-91172000D01*
X133899500Y-91172000D01*
X133899500Y-91622000D01*
X133899500Y-91622000D01*
G37*
D10*
X118364000Y-88416000D03*
X118364000Y-91416000D03*
D17*
X101600000Y-118872000D03*
X144780000Y-76200000D03*
X144780000Y-118872000D03*
X101600000Y-76200000D03*
D18*
X105822912Y-90003600D03*
X110822912Y-90003600D03*
X110822912Y-95003600D03*
X105822912Y-95003600D03*
X105816400Y-105003600D03*
X110816400Y-105003600D03*
X110822912Y-100003600D03*
X105822912Y-100003600D03*
D19*
X124206000Y-97536000D03*
X124206000Y-96774000D03*
X124206000Y-96012000D03*
X126238000Y-97536000D03*
X126238000Y-96774000D03*
X126238000Y-96012000D03*
X125222000Y-97536000D03*
X125222000Y-96774000D03*
X125222000Y-96012000D03*
X106680000Y-85344000D03*
X128993004Y-92672156D03*
X125469782Y-92706529D03*
X121929373Y-92654970D03*
X118388965Y-92775275D03*
X128818393Y-101165917D03*
X125273111Y-101218832D03*
X121701371Y-101192375D03*
X118103175Y-101165917D03*
X135763000Y-82550000D03*
X134874000Y-82550000D03*
X135763000Y-83312000D03*
X135763000Y-84074000D03*
X136652000Y-82550000D03*
X136652000Y-83312000D03*
X134874000Y-83312000D03*
X134874000Y-84074000D03*
X136652000Y-84073990D03*
X135763000Y-84836000D03*
X135763000Y-85598000D03*
X134874000Y-84836000D03*
X134874000Y-85598000D03*
X136651984Y-86360000D03*
X134874000Y-86360000D03*
X135763000Y-86360000D03*
X136652000Y-84836000D03*
X136652000Y-85598000D03*
X142494000Y-92328994D03*
X132842000Y-92329000D03*
D20*
X118148000Y-88632000D02*
X118364000Y-88416000D01*
X118364000Y-88416000D02*
X119914000Y-88416000D01*
X119914000Y-88416000D02*
X121920000Y-88416000D01*
X129032000Y-88416000D02*
X130326000Y-88416000D01*
X130326000Y-88416000D02*
X130810000Y-88900000D01*
X130810000Y-88900000D02*
X132781500Y-88900000D01*
X132781500Y-88900000D02*
X132824500Y-88857000D01*
X121920000Y-88416000D02*
X125476000Y-88416000D01*
X132781500Y-90170000D02*
X132824500Y-90127000D01*
X125476000Y-88416000D02*
X129032000Y-88416000D01*
X132824500Y-90127000D02*
X132824500Y-88857000D01*
X123906001Y-97236001D02*
X124206000Y-97536000D01*
X123906001Y-97073999D02*
X123906001Y-97236001D01*
X123952000Y-97028000D02*
X123906001Y-97073999D01*
X124206000Y-96774000D02*
X124206000Y-97536000D01*
X121622000Y-96774000D02*
X124206000Y-96774000D01*
X125222000Y-97536000D02*
X126238000Y-97536000D01*
X126238000Y-96012000D02*
X126238000Y-96774000D01*
X124922001Y-96474001D02*
X125222000Y-96774000D01*
X124922001Y-96311999D02*
X124922001Y-96474001D01*
X124968000Y-96266000D02*
X124922001Y-96311999D01*
X125222000Y-96012000D02*
X125222000Y-96774000D01*
X129032000Y-91416000D02*
X129032000Y-92633160D01*
X129032000Y-92633160D02*
X128993004Y-92672156D01*
X125476000Y-91416000D02*
X125476000Y-92700311D01*
X125476000Y-92700311D02*
X125469782Y-92706529D01*
X121920000Y-91416000D02*
X121920000Y-92645597D01*
X121920000Y-92645597D02*
X121929373Y-92654970D01*
X118364000Y-91416000D02*
X118364000Y-92750310D01*
X118364000Y-92750310D02*
X118388965Y-92775275D01*
X128778000Y-102449500D02*
X128778000Y-101206310D01*
X128778000Y-101206310D02*
X128818393Y-101165917D01*
X125222000Y-102449500D02*
X125222000Y-101269943D01*
X125222000Y-101269943D02*
X125273111Y-101218832D01*
X121666000Y-102449500D02*
X121666000Y-101227746D01*
X121666000Y-101227746D02*
X121701371Y-101192375D01*
X118110000Y-102449500D02*
X118110000Y-101172742D01*
X118110000Y-101172742D02*
X118103175Y-101165917D01*
X134874000Y-82550000D02*
X135763000Y-82550000D01*
X134874000Y-83312000D02*
X135763000Y-83312000D01*
X135338736Y-84074000D02*
X135763000Y-84074000D01*
X135128000Y-84074000D02*
X135338736Y-84074000D01*
X134874000Y-84074000D02*
X135763000Y-84074000D01*
X135001000Y-83947000D02*
X135128000Y-84074000D01*
X136652000Y-83312000D02*
X136652000Y-82550000D01*
X136652000Y-84836000D02*
X136652000Y-84073990D01*
X135890000Y-84836000D02*
X135763000Y-84836000D01*
X134874000Y-84836000D02*
X135890000Y-84836000D01*
X134874000Y-85598000D02*
X135763000Y-85598000D01*
X136652000Y-86359984D02*
X136651984Y-86360000D01*
X136652000Y-85598000D02*
X136652000Y-86359984D01*
X135763000Y-86360000D02*
X134874000Y-86360000D01*
X136062999Y-86659999D02*
X135763000Y-86360000D01*
X136349500Y-86946500D02*
X136062999Y-86659999D01*
X136349500Y-88192000D02*
X136349500Y-86946500D01*
X138574500Y-88857000D02*
X140685000Y-88857000D01*
X140685000Y-88857000D02*
X141045500Y-89217500D01*
X129076000Y-95758000D02*
X137081260Y-95758000D01*
X137081260Y-95758000D02*
X137160000Y-95836740D01*
X138574500Y-91397000D02*
X138574500Y-95784500D01*
X138574500Y-95784500D02*
X138537500Y-95821500D01*
X138574500Y-91397000D02*
X141025000Y-91397000D01*
X141025000Y-91397000D02*
X141045500Y-91376500D01*
X142545500Y-92277494D02*
X142494000Y-92328994D01*
X142545500Y-91376500D02*
X142545500Y-92277494D01*
X132824500Y-92311500D02*
X132842000Y-92329000D01*
X132824500Y-91397000D02*
X132824500Y-92311500D01*
X132092000Y-85852000D02*
X132092000Y-87515000D01*
X132092000Y-87515000D02*
X132164000Y-87587000D01*
X132164000Y-87587000D02*
X132824500Y-87587000D01*
X106353600Y-105003600D02*
X105765600Y-105003600D01*
X105765600Y-105003600D02*
X102362000Y-101600000D01*
X102362000Y-86360000D02*
X107442000Y-81280000D01*
X102362000Y-101600000D02*
X102362000Y-86360000D01*
X142545500Y-85141500D02*
X142545500Y-86891500D01*
X107442000Y-81280000D02*
X138684000Y-81280000D01*
X138684000Y-81280000D02*
X142545500Y-85141500D01*
X142545500Y-86891500D02*
X142545500Y-87566500D01*
X117943500Y-105283000D02*
X118110000Y-105449500D01*
X128778000Y-105449500D02*
X136770240Y-105449500D01*
X136770240Y-105449500D02*
X137160000Y-105839260D01*
X125222000Y-105449500D02*
X126772000Y-105449500D01*
X126772000Y-105449500D02*
X128778000Y-105449500D01*
X121666000Y-105449500D02*
X125222000Y-105449500D01*
X118110000Y-105449500D02*
X121666000Y-105449500D01*
X141045500Y-87566500D02*
X141045500Y-85939500D01*
X141045500Y-85939500D02*
X140958000Y-85852000D01*
X138574500Y-87587000D02*
X141025000Y-87587000D01*
X141025000Y-87587000D02*
X141045500Y-87566500D01*
X128405760Y-105839260D02*
X128016000Y-105449500D01*
D21*
G36*
X139827000Y-98425000D02*
X129540698Y-98425000D01*
X137228183Y-93532962D01*
X137263996Y-93498713D01*
X137283976Y-93453367D01*
X137287000Y-93425817D01*
X137287000Y-91546788D01*
X137357309Y-91499809D01*
X137497657Y-91289765D01*
X137543559Y-91059000D01*
X139827000Y-91059000D01*
X139827000Y-98425000D01*
X139827000Y-98425000D01*
G37*
X139827000Y-98425000D02*
X129540698Y-98425000D01*
X137228183Y-93532962D01*
X137263996Y-93498713D01*
X137283976Y-93453367D01*
X137287000Y-93425817D01*
X137287000Y-91546788D01*
X137357309Y-91499809D01*
X137497657Y-91289765D01*
X137543559Y-91059000D01*
X139827000Y-91059000D01*
X139827000Y-98425000D01*
G36*
X148896000Y-123496000D02*
X97484000Y-123496000D01*
X97484000Y-86360000D01*
X101577000Y-86360000D01*
X101577000Y-101600000D01*
X101636755Y-101900407D01*
X101806921Y-102155079D01*
X103263960Y-103612118D01*
X103263960Y-103886871D01*
X103172336Y-104023996D01*
X103124000Y-104267000D01*
X103124000Y-108077000D01*
X103172336Y-108320004D01*
X103309987Y-108526013D01*
X103515996Y-108663664D01*
X103759000Y-108712000D01*
X139933121Y-108712000D01*
X140118639Y-108675099D01*
X140159399Y-108702333D01*
X140208000Y-108712000D01*
X143510000Y-108712000D01*
X143558601Y-108702333D01*
X143599803Y-108674803D01*
X143627333Y-108633601D01*
X143637000Y-108585000D01*
X143637000Y-92202000D01*
X143627333Y-92153399D01*
X143599803Y-92112197D01*
X143558601Y-92084667D01*
X143510000Y-92075000D01*
X143493052Y-92075000D01*
X143543657Y-91999265D01*
X143592940Y-91751500D01*
X143592940Y-91001500D01*
X143543657Y-90753735D01*
X143403309Y-90543691D01*
X143193265Y-90403343D01*
X142945500Y-90354060D01*
X142145500Y-90354060D01*
X141897735Y-90403343D01*
X141795500Y-90471655D01*
X141693265Y-90403343D01*
X141445500Y-90354060D01*
X140645500Y-90354060D01*
X140397735Y-90403343D01*
X140340776Y-90441402D01*
X140197004Y-90345336D01*
X139954000Y-90297000D01*
X137160000Y-90297000D01*
X136916996Y-90345336D01*
X136710987Y-90482987D01*
X136573336Y-90688996D01*
X136525000Y-90932000D01*
X136525000Y-93077236D01*
X135705086Y-93599000D01*
X127254000Y-93599000D01*
X127010996Y-93647336D01*
X126804987Y-93784987D01*
X126667336Y-93990996D01*
X126619000Y-94234000D01*
X126619000Y-98552000D01*
X126667336Y-98795004D01*
X126804987Y-99001013D01*
X127010996Y-99138664D01*
X127254000Y-99187000D01*
X130683000Y-99187000D01*
X130683000Y-103632000D01*
X113368840Y-103632000D01*
X113368840Y-103098600D01*
X113319557Y-102850835D01*
X113179209Y-102640791D01*
X112969165Y-102500443D01*
X112721400Y-102451160D01*
X108911400Y-102451160D01*
X108663635Y-102500443D01*
X108453591Y-102640791D01*
X108316400Y-102846110D01*
X108179209Y-102640791D01*
X107969165Y-102500443D01*
X107721400Y-102451160D01*
X104323318Y-102451160D01*
X103147000Y-101274842D01*
X103147000Y-86868000D01*
X103251000Y-86868000D01*
X103251000Y-90453811D01*
X103270472Y-90551475D01*
X103270472Y-91908600D01*
X103319755Y-92156365D01*
X103460103Y-92366409D01*
X103670147Y-92506757D01*
X103917912Y-92556040D01*
X107727912Y-92556040D01*
X107975677Y-92506757D01*
X108185721Y-92366409D01*
X108322912Y-92161090D01*
X108460103Y-92366409D01*
X108670147Y-92506757D01*
X108917912Y-92556040D01*
X112727912Y-92556040D01*
X112975677Y-92506757D01*
X113185721Y-92366409D01*
X113326069Y-92156365D01*
X113375352Y-91908600D01*
X113375352Y-91080312D01*
X131123460Y-91064415D01*
X131102060Y-91172000D01*
X131102060Y-91622000D01*
X131151343Y-91869765D01*
X131291691Y-92079809D01*
X131501735Y-92220157D01*
X131749500Y-92269440D01*
X131907051Y-92269440D01*
X131906838Y-92514167D01*
X132048883Y-92857943D01*
X132311673Y-93121192D01*
X132655201Y-93263838D01*
X133027167Y-93264162D01*
X133370943Y-93122117D01*
X133634192Y-92859327D01*
X133776838Y-92515799D01*
X133777053Y-92269440D01*
X133899500Y-92269440D01*
X134147265Y-92220157D01*
X134357309Y-92079809D01*
X134497657Y-91869765D01*
X134546940Y-91622000D01*
X134546940Y-91172000D01*
X134497657Y-90924235D01*
X134448722Y-90850999D01*
X134571664Y-90667004D01*
X134620000Y-90424000D01*
X134620000Y-88519000D01*
X134571664Y-88275996D01*
X134462420Y-88112501D01*
X134497657Y-88059765D01*
X134546940Y-87812000D01*
X134546940Y-87362000D01*
X134497657Y-87114235D01*
X134357309Y-86904191D01*
X134147265Y-86763843D01*
X133899500Y-86714560D01*
X132905284Y-86714560D01*
X132949809Y-86684809D01*
X133090157Y-86474765D01*
X133139440Y-86227000D01*
X133139440Y-85477000D01*
X133090157Y-85229235D01*
X132949809Y-85019191D01*
X132739765Y-84878843D01*
X132492000Y-84829560D01*
X131692000Y-84829560D01*
X131444235Y-84878843D01*
X131234191Y-85019191D01*
X131093843Y-85229235D01*
X131044560Y-85477000D01*
X131044560Y-86227000D01*
X131093843Y-86474765D01*
X131234191Y-86684809D01*
X131307000Y-86733459D01*
X131307000Y-86893962D01*
X131291691Y-86904191D01*
X131185140Y-87063654D01*
X130503111Y-86424252D01*
X130312250Y-86301026D01*
X130069282Y-86252508D01*
X103886473Y-86233000D01*
X103642996Y-86281336D01*
X103436987Y-86418987D01*
X103299336Y-86624996D01*
X103251000Y-86868000D01*
X103147000Y-86868000D01*
X103147000Y-86685158D01*
X107767158Y-82065000D01*
X138358842Y-82065000D01*
X141123402Y-84829560D01*
X140558000Y-84829560D01*
X140310235Y-84878843D01*
X140100191Y-85019191D01*
X139959843Y-85229235D01*
X139910560Y-85477000D01*
X139910560Y-86227000D01*
X139959843Y-86474765D01*
X140100191Y-86684809D01*
X140183264Y-86740317D01*
X140142048Y-86802000D01*
X139954371Y-86802000D01*
X139897265Y-86763843D01*
X139649500Y-86714560D01*
X137499500Y-86714560D01*
X137251735Y-86763843D01*
X137041691Y-86904191D01*
X136901343Y-87114235D01*
X136852060Y-87362000D01*
X136852060Y-87812000D01*
X136901343Y-88059765D01*
X137009746Y-88222000D01*
X136901343Y-88384235D01*
X136852060Y-88632000D01*
X136852060Y-89082000D01*
X136901343Y-89329765D01*
X137041691Y-89539809D01*
X137251735Y-89680157D01*
X137499500Y-89729440D01*
X139649500Y-89729440D01*
X139897265Y-89680157D01*
X139954371Y-89642000D01*
X140007906Y-89642000D01*
X140047343Y-89840265D01*
X140187691Y-90050309D01*
X140397735Y-90190657D01*
X140645500Y-90239940D01*
X141445500Y-90239940D01*
X141693265Y-90190657D01*
X141903309Y-90050309D01*
X142043657Y-89840265D01*
X142092940Y-89592500D01*
X142092940Y-88842500D01*
X142043657Y-88594735D01*
X142023581Y-88564689D01*
X142145500Y-88588940D01*
X142945500Y-88588940D01*
X143193265Y-88539657D01*
X143403309Y-88399309D01*
X143543657Y-88189265D01*
X143592940Y-87941500D01*
X143592940Y-87191500D01*
X143543657Y-86943735D01*
X143403309Y-86733691D01*
X143330500Y-86685041D01*
X143330500Y-85141500D01*
X143270745Y-84841094D01*
X143100579Y-84586421D01*
X139239079Y-80724921D01*
X138984407Y-80554755D01*
X138684000Y-80495000D01*
X107442000Y-80495000D01*
X107141594Y-80554755D01*
X106886921Y-80724921D01*
X101806921Y-85804921D01*
X101636755Y-86059593D01*
X101602262Y-86233000D01*
X101577000Y-86360000D01*
X97484000Y-86360000D01*
X97484000Y-72084000D01*
X148896000Y-72084000D01*
X148896000Y-123496000D01*
X148896000Y-123496000D01*
G37*
X148896000Y-123496000D02*
X97484000Y-123496000D01*
X97484000Y-86360000D01*
X101577000Y-86360000D01*
X101577000Y-101600000D01*
X101636755Y-101900407D01*
X101806921Y-102155079D01*
X103263960Y-103612118D01*
X103263960Y-103886871D01*
X103172336Y-104023996D01*
X103124000Y-104267000D01*
X103124000Y-108077000D01*
X103172336Y-108320004D01*
X103309987Y-108526013D01*
X103515996Y-108663664D01*
X103759000Y-108712000D01*
X139933121Y-108712000D01*
X140118639Y-108675099D01*
X140159399Y-108702333D01*
X140208000Y-108712000D01*
X143510000Y-108712000D01*
X143558601Y-108702333D01*
X143599803Y-108674803D01*
X143627333Y-108633601D01*
X143637000Y-108585000D01*
X143637000Y-92202000D01*
X143627333Y-92153399D01*
X143599803Y-92112197D01*
X143558601Y-92084667D01*
X143510000Y-92075000D01*
X143493052Y-92075000D01*
X143543657Y-91999265D01*
X143592940Y-91751500D01*
X143592940Y-91001500D01*
X143543657Y-90753735D01*
X143403309Y-90543691D01*
X143193265Y-90403343D01*
X142945500Y-90354060D01*
X142145500Y-90354060D01*
X141897735Y-90403343D01*
X141795500Y-90471655D01*
X141693265Y-90403343D01*
X141445500Y-90354060D01*
X140645500Y-90354060D01*
X140397735Y-90403343D01*
X140340776Y-90441402D01*
X140197004Y-90345336D01*
X139954000Y-90297000D01*
X137160000Y-90297000D01*
X136916996Y-90345336D01*
X136710987Y-90482987D01*
X136573336Y-90688996D01*
X136525000Y-90932000D01*
X136525000Y-93077236D01*
X135705086Y-93599000D01*
X127254000Y-93599000D01*
X127010996Y-93647336D01*
X126804987Y-93784987D01*
X126667336Y-93990996D01*
X126619000Y-94234000D01*
X126619000Y-98552000D01*
X126667336Y-98795004D01*
X126804987Y-99001013D01*
X127010996Y-99138664D01*
X127254000Y-99187000D01*
X130683000Y-99187000D01*
X130683000Y-103632000D01*
X113368840Y-103632000D01*
X113368840Y-103098600D01*
X113319557Y-102850835D01*
X113179209Y-102640791D01*
X112969165Y-102500443D01*
X112721400Y-102451160D01*
X108911400Y-102451160D01*
X108663635Y-102500443D01*
X108453591Y-102640791D01*
X108316400Y-102846110D01*
X108179209Y-102640791D01*
X107969165Y-102500443D01*
X107721400Y-102451160D01*
X104323318Y-102451160D01*
X103147000Y-101274842D01*
X103147000Y-86868000D01*
X103251000Y-86868000D01*
X103251000Y-90453811D01*
X103270472Y-90551475D01*
X103270472Y-91908600D01*
X103319755Y-92156365D01*
X103460103Y-92366409D01*
X103670147Y-92506757D01*
X103917912Y-92556040D01*
X107727912Y-92556040D01*
X107975677Y-92506757D01*
X108185721Y-92366409D01*
X108322912Y-92161090D01*
X108460103Y-92366409D01*
X108670147Y-92506757D01*
X108917912Y-92556040D01*
X112727912Y-92556040D01*
X112975677Y-92506757D01*
X113185721Y-92366409D01*
X113326069Y-92156365D01*
X113375352Y-91908600D01*
X113375352Y-91080312D01*
X131123460Y-91064415D01*
X131102060Y-91172000D01*
X131102060Y-91622000D01*
X131151343Y-91869765D01*
X131291691Y-92079809D01*
X131501735Y-92220157D01*
X131749500Y-92269440D01*
X131907051Y-92269440D01*
X131906838Y-92514167D01*
X132048883Y-92857943D01*
X132311673Y-93121192D01*
X132655201Y-93263838D01*
X133027167Y-93264162D01*
X133370943Y-93122117D01*
X133634192Y-92859327D01*
X133776838Y-92515799D01*
X133777053Y-92269440D01*
X133899500Y-92269440D01*
X134147265Y-92220157D01*
X134357309Y-92079809D01*
X134497657Y-91869765D01*
X134546940Y-91622000D01*
X134546940Y-91172000D01*
X134497657Y-90924235D01*
X134448722Y-90850999D01*
X134571664Y-90667004D01*
X134620000Y-90424000D01*
X134620000Y-88519000D01*
X134571664Y-88275996D01*
X134462420Y-88112501D01*
X134497657Y-88059765D01*
X134546940Y-87812000D01*
X134546940Y-87362000D01*
X134497657Y-87114235D01*
X134357309Y-86904191D01*
X134147265Y-86763843D01*
X133899500Y-86714560D01*
X132905284Y-86714560D01*
X132949809Y-86684809D01*
X133090157Y-86474765D01*
X133139440Y-86227000D01*
X133139440Y-85477000D01*
X133090157Y-85229235D01*
X132949809Y-85019191D01*
X132739765Y-84878843D01*
X132492000Y-84829560D01*
X131692000Y-84829560D01*
X131444235Y-84878843D01*
X131234191Y-85019191D01*
X131093843Y-85229235D01*
X131044560Y-85477000D01*
X131044560Y-86227000D01*
X131093843Y-86474765D01*
X131234191Y-86684809D01*
X131307000Y-86733459D01*
X131307000Y-86893962D01*
X131291691Y-86904191D01*
X131185140Y-87063654D01*
X130503111Y-86424252D01*
X130312250Y-86301026D01*
X130069282Y-86252508D01*
X103886473Y-86233000D01*
X103642996Y-86281336D01*
X103436987Y-86418987D01*
X103299336Y-86624996D01*
X103251000Y-86868000D01*
X103147000Y-86868000D01*
X103147000Y-86685158D01*
X107767158Y-82065000D01*
X138358842Y-82065000D01*
X141123402Y-84829560D01*
X140558000Y-84829560D01*
X140310235Y-84878843D01*
X140100191Y-85019191D01*
X139959843Y-85229235D01*
X139910560Y-85477000D01*
X139910560Y-86227000D01*
X139959843Y-86474765D01*
X140100191Y-86684809D01*
X140183264Y-86740317D01*
X140142048Y-86802000D01*
X139954371Y-86802000D01*
X139897265Y-86763843D01*
X139649500Y-86714560D01*
X137499500Y-86714560D01*
X137251735Y-86763843D01*
X137041691Y-86904191D01*
X136901343Y-87114235D01*
X136852060Y-87362000D01*
X136852060Y-87812000D01*
X136901343Y-88059765D01*
X137009746Y-88222000D01*
X136901343Y-88384235D01*
X136852060Y-88632000D01*
X136852060Y-89082000D01*
X136901343Y-89329765D01*
X137041691Y-89539809D01*
X137251735Y-89680157D01*
X137499500Y-89729440D01*
X139649500Y-89729440D01*
X139897265Y-89680157D01*
X139954371Y-89642000D01*
X140007906Y-89642000D01*
X140047343Y-89840265D01*
X140187691Y-90050309D01*
X140397735Y-90190657D01*
X140645500Y-90239940D01*
X141445500Y-90239940D01*
X141693265Y-90190657D01*
X141903309Y-90050309D01*
X142043657Y-89840265D01*
X142092940Y-89592500D01*
X142092940Y-88842500D01*
X142043657Y-88594735D01*
X142023581Y-88564689D01*
X142145500Y-88588940D01*
X142945500Y-88588940D01*
X143193265Y-88539657D01*
X143403309Y-88399309D01*
X143543657Y-88189265D01*
X143592940Y-87941500D01*
X143592940Y-87191500D01*
X143543657Y-86943735D01*
X143403309Y-86733691D01*
X143330500Y-86685041D01*
X143330500Y-85141500D01*
X143270745Y-84841094D01*
X143100579Y-84586421D01*
X139239079Y-80724921D01*
X138984407Y-80554755D01*
X138684000Y-80495000D01*
X107442000Y-80495000D01*
X107141594Y-80554755D01*
X106886921Y-80724921D01*
X101806921Y-85804921D01*
X101636755Y-86059593D01*
X101602262Y-86233000D01*
X101577000Y-86360000D01*
X97484000Y-86360000D01*
X97484000Y-72084000D01*
X148896000Y-72084000D01*
X148896000Y-123496000D01*
G36*
X130018548Y-87014471D02*
X131181212Y-88104467D01*
X131291691Y-88269809D01*
X131501735Y-88410157D01*
X131508776Y-88411557D01*
X131722209Y-88611651D01*
X131764276Y-88637839D01*
X131809069Y-88646000D01*
X133852060Y-88646000D01*
X133852060Y-90297000D01*
X131780081Y-90297000D01*
X131755709Y-90301848D01*
X130455208Y-90303013D01*
X130282000Y-90268560D01*
X127782000Y-90268560D01*
X127595917Y-90305574D01*
X126915149Y-90306184D01*
X126726000Y-90268560D01*
X124226000Y-90268560D01*
X124023831Y-90308773D01*
X123375090Y-90309354D01*
X123170000Y-90268560D01*
X120670000Y-90268560D01*
X120451746Y-90311973D01*
X119835031Y-90312525D01*
X119614000Y-90268560D01*
X117114000Y-90268560D01*
X116879661Y-90315172D01*
X104013000Y-90326697D01*
X104013000Y-86995095D01*
X130018548Y-87014471D01*
X130018548Y-87014471D01*
G37*
X130018548Y-87014471D02*
X131181212Y-88104467D01*
X131291691Y-88269809D01*
X131501735Y-88410157D01*
X131508776Y-88411557D01*
X131722209Y-88611651D01*
X131764276Y-88637839D01*
X131809069Y-88646000D01*
X133852060Y-88646000D01*
X133852060Y-90297000D01*
X131780081Y-90297000D01*
X131755709Y-90301848D01*
X130455208Y-90303013D01*
X130282000Y-90268560D01*
X127782000Y-90268560D01*
X127595917Y-90305574D01*
X126915149Y-90306184D01*
X126726000Y-90268560D01*
X124226000Y-90268560D01*
X124023831Y-90308773D01*
X123375090Y-90309354D01*
X123170000Y-90268560D01*
X120670000Y-90268560D01*
X120451746Y-90311973D01*
X119835031Y-90312525D01*
X119614000Y-90268560D01*
X117114000Y-90268560D01*
X116879661Y-90315172D01*
X104013000Y-90326697D01*
X104013000Y-86995095D01*
X130018548Y-87014471D01*
G36*
X139806121Y-104402806D02*
X139806121Y-107950000D01*
X103886000Y-107950000D01*
X103886000Y-104394000D01*
X139803390Y-104394000D01*
X139806121Y-104402806D01*
X139806121Y-104402806D01*
G37*
X139806121Y-104402806D02*
X139806121Y-107950000D01*
X103886000Y-107950000D01*
X103886000Y-104394000D01*
X139803390Y-104394000D01*
X139806121Y-104402806D01*
G36*
X130519348Y-98425000D02*
X127381000Y-98425000D01*
X127381000Y-94361000D01*
X136973936Y-94361000D01*
X130519348Y-98425000D01*
X130519348Y-98425000D01*
G37*
X130519348Y-98425000D02*
X127381000Y-98425000D01*
X127381000Y-94361000D01*
X136973936Y-94361000D01*
X130519348Y-98425000D01*
M02*
