G04 #@! TF.GenerationSoftware,KiCad,Pcbnew,(2017-08-08 revision 53204e097)-makepkg*
G04 #@! TF.CreationDate,2017-11-28T10:39:20+01:00*
G04 #@! TF.ProjectId,LMR1405001A,4C4D5231343035303031412E6B696361,rev?*
G04 #@! TF.SameCoordinates,Original*
G04 #@! TF.FileFunction,Legend,Top*
G04 #@! TF.FilePolarity,Positive*
%FSLAX46Y46*%
G04 Gerber Fmt 4.6, Leading zero omitted, Abs format (unit mm)*
G04 Created by KiCad (PCBNEW (2017-08-08 revision 53204e097)-makepkg) date 11/28/17 10:39:20*
%MOMM*%
%LPD*%
G01*
G04 APERTURE LIST*
%ADD10C,0.300000*%
%ADD11C,0.150000*%
%ADD12C,0.304800*%
G04 APERTURE END LIST*
D10*
X116658285Y-80180571D02*
X115944000Y-80180571D01*
X115944000Y-78680571D01*
X117158285Y-80180571D02*
X117158285Y-78680571D01*
X117658285Y-79752000D01*
X118158285Y-78680571D01*
X118158285Y-80180571D01*
X119729714Y-80180571D02*
X119229714Y-79466285D01*
X118872571Y-80180571D02*
X118872571Y-78680571D01*
X119444000Y-78680571D01*
X119586857Y-78752000D01*
X119658285Y-78823428D01*
X119729714Y-78966285D01*
X119729714Y-79180571D01*
X119658285Y-79323428D01*
X119586857Y-79394857D01*
X119444000Y-79466285D01*
X118872571Y-79466285D01*
X121158285Y-80180571D02*
X120301142Y-80180571D01*
X120729714Y-80180571D02*
X120729714Y-78680571D01*
X120586857Y-78894857D01*
X120444000Y-79037714D01*
X120301142Y-79109142D01*
X122444000Y-79180571D02*
X122444000Y-80180571D01*
X122086857Y-78609142D02*
X121729714Y-79680571D01*
X122658285Y-79680571D01*
X123515428Y-78680571D02*
X123658285Y-78680571D01*
X123801142Y-78752000D01*
X123872571Y-78823428D01*
X123944000Y-78966285D01*
X124015428Y-79252000D01*
X124015428Y-79609142D01*
X123944000Y-79894857D01*
X123872571Y-80037714D01*
X123801142Y-80109142D01*
X123658285Y-80180571D01*
X123515428Y-80180571D01*
X123372571Y-80109142D01*
X123301142Y-80037714D01*
X123229714Y-79894857D01*
X123158285Y-79609142D01*
X123158285Y-79252000D01*
X123229714Y-78966285D01*
X123301142Y-78823428D01*
X123372571Y-78752000D01*
X123515428Y-78680571D01*
X125372571Y-78680571D02*
X124658285Y-78680571D01*
X124586857Y-79394857D01*
X124658285Y-79323428D01*
X124801142Y-79252000D01*
X125158285Y-79252000D01*
X125301142Y-79323428D01*
X125372571Y-79394857D01*
X125444000Y-79537714D01*
X125444000Y-79894857D01*
X125372571Y-80037714D01*
X125301142Y-80109142D01*
X125158285Y-80180571D01*
X124801142Y-80180571D01*
X124658285Y-80109142D01*
X124586857Y-80037714D01*
X126372571Y-78680571D02*
X126515428Y-78680571D01*
X126658285Y-78752000D01*
X126729714Y-78823428D01*
X126801142Y-78966285D01*
X126872571Y-79252000D01*
X126872571Y-79609142D01*
X126801142Y-79894857D01*
X126729714Y-80037714D01*
X126658285Y-80109142D01*
X126515428Y-80180571D01*
X126372571Y-80180571D01*
X126229714Y-80109142D01*
X126158285Y-80037714D01*
X126086857Y-79894857D01*
X126015428Y-79609142D01*
X126015428Y-79252000D01*
X126086857Y-78966285D01*
X126158285Y-78823428D01*
X126229714Y-78752000D01*
X126372571Y-78680571D01*
X127801142Y-78680571D02*
X127944000Y-78680571D01*
X128086857Y-78752000D01*
X128158285Y-78823428D01*
X128229714Y-78966285D01*
X128301142Y-79252000D01*
X128301142Y-79609142D01*
X128229714Y-79894857D01*
X128158285Y-80037714D01*
X128086857Y-80109142D01*
X127944000Y-80180571D01*
X127801142Y-80180571D01*
X127658285Y-80109142D01*
X127586857Y-80037714D01*
X127515428Y-79894857D01*
X127444000Y-79609142D01*
X127444000Y-79252000D01*
X127515428Y-78966285D01*
X127586857Y-78823428D01*
X127658285Y-78752000D01*
X127801142Y-78680571D01*
X129729714Y-80180571D02*
X128872571Y-80180571D01*
X129301142Y-80180571D02*
X129301142Y-78680571D01*
X129158285Y-78894857D01*
X129015428Y-79037714D01*
X128872571Y-79109142D01*
X130301142Y-79752000D02*
X131015428Y-79752000D01*
X130158285Y-80180571D02*
X130658285Y-78680571D01*
X131158285Y-80180571D01*
X117423857Y-89318571D02*
X117709571Y-89318571D01*
X117852428Y-89390000D01*
X117995285Y-89532857D01*
X118066714Y-89818571D01*
X118066714Y-90318571D01*
X117995285Y-90604285D01*
X117852428Y-90747142D01*
X117709571Y-90818571D01*
X117423857Y-90818571D01*
X117281000Y-90747142D01*
X117138142Y-90604285D01*
X117066714Y-90318571D01*
X117066714Y-89818571D01*
X117138142Y-89532857D01*
X117281000Y-89390000D01*
X117423857Y-89318571D01*
X118709571Y-89318571D02*
X118709571Y-90532857D01*
X118781000Y-90675714D01*
X118852428Y-90747142D01*
X118995285Y-90818571D01*
X119281000Y-90818571D01*
X119423857Y-90747142D01*
X119495285Y-90675714D01*
X119566714Y-90532857D01*
X119566714Y-89318571D01*
X120066714Y-89318571D02*
X120923857Y-89318571D01*
X120495285Y-90818571D02*
X120495285Y-89318571D01*
X123281000Y-89318571D02*
X122566714Y-89318571D01*
X122495285Y-90032857D01*
X122566714Y-89961428D01*
X122709571Y-89890000D01*
X123066714Y-89890000D01*
X123209571Y-89961428D01*
X123281000Y-90032857D01*
X123352428Y-90175714D01*
X123352428Y-90532857D01*
X123281000Y-90675714D01*
X123209571Y-90747142D01*
X123066714Y-90818571D01*
X122709571Y-90818571D01*
X122566714Y-90747142D01*
X122495285Y-90675714D01*
X123781000Y-89318571D02*
X124281000Y-90818571D01*
X124781000Y-89318571D01*
X117923857Y-94490000D02*
X117781000Y-94418571D01*
X117566714Y-94418571D01*
X117352428Y-94490000D01*
X117209571Y-94632857D01*
X117138142Y-94775714D01*
X117066714Y-95061428D01*
X117066714Y-95275714D01*
X117138142Y-95561428D01*
X117209571Y-95704285D01*
X117352428Y-95847142D01*
X117566714Y-95918571D01*
X117709571Y-95918571D01*
X117923857Y-95847142D01*
X117995285Y-95775714D01*
X117995285Y-95275714D01*
X117709571Y-95275714D01*
X118638142Y-95918571D02*
X118638142Y-94418571D01*
X119495285Y-95918571D01*
X119495285Y-94418571D01*
X120209571Y-95918571D02*
X120209571Y-94418571D01*
X120566714Y-94418571D01*
X120781000Y-94490000D01*
X120923857Y-94632857D01*
X120995285Y-94775714D01*
X121066714Y-95061428D01*
X121066714Y-95275714D01*
X120995285Y-95561428D01*
X120923857Y-95704285D01*
X120781000Y-95847142D01*
X120566714Y-95918571D01*
X120209571Y-95918571D01*
X117923857Y-99590000D02*
X117781000Y-99518571D01*
X117566714Y-99518571D01*
X117352428Y-99590000D01*
X117209571Y-99732857D01*
X117138142Y-99875714D01*
X117066714Y-100161428D01*
X117066714Y-100375714D01*
X117138142Y-100661428D01*
X117209571Y-100804285D01*
X117352428Y-100947142D01*
X117566714Y-101018571D01*
X117709571Y-101018571D01*
X117923857Y-100947142D01*
X117995285Y-100875714D01*
X117995285Y-100375714D01*
X117709571Y-100375714D01*
X118638142Y-101018571D02*
X118638142Y-99518571D01*
X119495285Y-101018571D01*
X119495285Y-99518571D01*
X120209571Y-101018571D02*
X120209571Y-99518571D01*
X120566714Y-99518571D01*
X120781000Y-99590000D01*
X120923857Y-99732857D01*
X120995285Y-99875714D01*
X121066714Y-100161428D01*
X121066714Y-100375714D01*
X120995285Y-100661428D01*
X120923857Y-100804285D01*
X120781000Y-100947142D01*
X120566714Y-101018571D01*
X120209571Y-101018571D01*
X117138142Y-106118571D02*
X117138142Y-104618571D01*
X117852428Y-106118571D02*
X117852428Y-104618571D01*
X118709571Y-106118571D01*
X118709571Y-104618571D01*
X121209571Y-105118571D02*
X121209571Y-106118571D01*
X120852428Y-104547142D02*
X120495285Y-105618571D01*
X121423857Y-105618571D01*
X121995285Y-105547142D02*
X123138142Y-105547142D01*
X124495285Y-105118571D02*
X124495285Y-106118571D01*
X124138142Y-104547142D02*
X123781000Y-105618571D01*
X124709571Y-105618571D01*
X125566714Y-104618571D02*
X125709571Y-104618571D01*
X125852428Y-104690000D01*
X125923857Y-104761428D01*
X125995285Y-104904285D01*
X126066714Y-105190000D01*
X126066714Y-105547142D01*
X125995285Y-105832857D01*
X125923857Y-105975714D01*
X125852428Y-106047142D01*
X125709571Y-106118571D01*
X125566714Y-106118571D01*
X125423857Y-106047142D01*
X125352428Y-105975714D01*
X125281000Y-105832857D01*
X125209571Y-105547142D01*
X125209571Y-105190000D01*
X125281000Y-104904285D01*
X125352428Y-104761428D01*
X125423857Y-104690000D01*
X125566714Y-104618571D01*
X126495285Y-104618571D02*
X126995285Y-106118571D01*
X127495285Y-104618571D01*
D11*
X115822912Y-92503600D02*
X106822912Y-92503600D01*
X106822912Y-87503600D02*
X115822912Y-87503600D01*
X106822912Y-92503600D02*
X100822912Y-92503600D01*
X115323012Y-92003600D02*
X107323012Y-92003600D01*
X104822912Y-91503600D02*
X101822912Y-91503600D01*
X106822912Y-87503600D02*
X100822912Y-87503600D01*
X115323012Y-88003600D02*
X107323012Y-88003600D01*
X104822912Y-88503600D02*
X101822912Y-88503600D01*
X101822912Y-92003600D02*
X100822912Y-92003600D01*
X107323012Y-91003600D02*
X106822912Y-91003600D01*
X101822912Y-88003600D02*
X100822912Y-88003600D01*
X107323012Y-89003600D02*
X106822912Y-89003600D01*
X115323012Y-88003600D02*
X115323012Y-92003600D01*
X107323012Y-92003600D02*
X107323012Y-88003600D01*
X104822912Y-88503500D02*
X104822912Y-91503700D01*
X101822912Y-92003600D02*
X101822912Y-88003600D01*
X115822912Y-87503500D02*
X115822912Y-92503700D01*
X106822912Y-87503500D02*
X106822912Y-92503700D01*
X100822912Y-92003600D02*
X100822912Y-92503600D01*
X100822912Y-87503600D02*
X100822912Y-88003600D01*
X100822912Y-92503600D02*
X100822912Y-93003600D01*
X100822912Y-97003600D02*
X100822912Y-97503600D01*
X106822912Y-92503500D02*
X106822912Y-97503700D01*
X115822912Y-92503500D02*
X115822912Y-97503700D01*
X101822912Y-97003600D02*
X101822912Y-93003600D01*
X104822912Y-93503500D02*
X104822912Y-96503700D01*
X107323012Y-97003600D02*
X107323012Y-93003600D01*
X115323012Y-93003600D02*
X115323012Y-97003600D01*
X107323012Y-94003600D02*
X106822912Y-94003600D01*
X101822912Y-93003600D02*
X100822912Y-93003600D01*
X107323012Y-96003600D02*
X106822912Y-96003600D01*
X101822912Y-97003600D02*
X100822912Y-97003600D01*
X104822912Y-93503600D02*
X101822912Y-93503600D01*
X115323012Y-93003600D02*
X107323012Y-93003600D01*
X106822912Y-92503600D02*
X100822912Y-92503600D01*
X104822912Y-96503600D02*
X101822912Y-96503600D01*
X115323012Y-97003600D02*
X107323012Y-97003600D01*
X106822912Y-97503600D02*
X100822912Y-97503600D01*
X106822912Y-92503600D02*
X115822912Y-92503600D01*
X115822912Y-97503600D02*
X106822912Y-97503600D01*
X115816400Y-107503600D02*
X106816400Y-107503600D01*
X106816400Y-102503600D02*
X115816400Y-102503600D01*
X106816400Y-107503600D02*
X100816400Y-107503600D01*
X115316500Y-107003600D02*
X107316500Y-107003600D01*
X104816400Y-106503600D02*
X101816400Y-106503600D01*
X106816400Y-102503600D02*
X100816400Y-102503600D01*
X115316500Y-103003600D02*
X107316500Y-103003600D01*
X104816400Y-103503600D02*
X101816400Y-103503600D01*
X101816400Y-107003600D02*
X100816400Y-107003600D01*
X107316500Y-106003600D02*
X106816400Y-106003600D01*
X101816400Y-103003600D02*
X100816400Y-103003600D01*
X107316500Y-104003600D02*
X106816400Y-104003600D01*
X115316500Y-103003600D02*
X115316500Y-107003600D01*
X107316500Y-107003600D02*
X107316500Y-103003600D01*
X104816400Y-103503500D02*
X104816400Y-106503700D01*
X101816400Y-107003600D02*
X101816400Y-103003600D01*
X115816400Y-102503500D02*
X115816400Y-107503700D01*
X106816400Y-102503500D02*
X106816400Y-107503700D01*
X100816400Y-107003600D02*
X100816400Y-107503600D01*
X100816400Y-102503600D02*
X100816400Y-103003600D01*
X100822912Y-97503600D02*
X100822912Y-98003600D01*
X100822912Y-102003600D02*
X100822912Y-102503600D01*
X106822912Y-97503500D02*
X106822912Y-102503700D01*
X115822912Y-97503500D02*
X115822912Y-102503700D01*
X101822912Y-102003600D02*
X101822912Y-98003600D01*
X104822912Y-98503500D02*
X104822912Y-101503700D01*
X107323012Y-102003600D02*
X107323012Y-98003600D01*
X115323012Y-98003600D02*
X115323012Y-102003600D01*
X107323012Y-99003600D02*
X106822912Y-99003600D01*
X101822912Y-98003600D02*
X100822912Y-98003600D01*
X107323012Y-101003600D02*
X106822912Y-101003600D01*
X101822912Y-102003600D02*
X100822912Y-102003600D01*
X104822912Y-98503600D02*
X101822912Y-98503600D01*
X115323012Y-98003600D02*
X107323012Y-98003600D01*
X106822912Y-97503600D02*
X100822912Y-97503600D01*
X104822912Y-101503600D02*
X101822912Y-101503600D01*
X115323012Y-102003600D02*
X107323012Y-102003600D01*
X106822912Y-102503600D02*
X100822912Y-102503600D01*
X106822912Y-97503600D02*
X115822912Y-97503600D01*
X115822912Y-102503600D02*
X106822912Y-102503600D01*
D12*
X113370340Y-90511600D02*
X114458912Y-90511600D01*
X114676626Y-90584171D01*
X114821769Y-90729314D01*
X114894340Y-90947028D01*
X114894340Y-91092171D01*
X114894340Y-88987600D02*
X114894340Y-89858457D01*
X114894340Y-89423028D02*
X113370340Y-89423028D01*
X113588054Y-89568171D01*
X113733197Y-89713314D01*
X113805769Y-89858457D01*
X113370340Y-95511600D02*
X114458912Y-95511600D01*
X114676626Y-95584171D01*
X114821769Y-95729314D01*
X114894340Y-95947028D01*
X114894340Y-96092171D01*
X113515483Y-94858457D02*
X113442912Y-94785885D01*
X113370340Y-94640742D01*
X113370340Y-94277885D01*
X113442912Y-94132742D01*
X113515483Y-94060171D01*
X113660626Y-93987600D01*
X113805769Y-93987600D01*
X114023483Y-94060171D01*
X114894340Y-94931028D01*
X114894340Y-93987600D01*
X113363828Y-105511600D02*
X114452400Y-105511600D01*
X114670114Y-105584171D01*
X114815257Y-105729314D01*
X114887828Y-105947028D01*
X114887828Y-106092171D01*
X113363828Y-104931028D02*
X113363828Y-103915028D01*
X114887828Y-104568171D01*
X113370340Y-100511600D02*
X114458912Y-100511600D01*
X114676626Y-100584171D01*
X114821769Y-100729314D01*
X114894340Y-100947028D01*
X114894340Y-101092171D01*
X114023483Y-99568171D02*
X113950912Y-99713314D01*
X113878340Y-99785885D01*
X113733197Y-99858457D01*
X113660626Y-99858457D01*
X113515483Y-99785885D01*
X113442912Y-99713314D01*
X113370340Y-99568171D01*
X113370340Y-99277885D01*
X113442912Y-99132742D01*
X113515483Y-99060171D01*
X113660626Y-98987600D01*
X113733197Y-98987600D01*
X113878340Y-99060171D01*
X113950912Y-99132742D01*
X114023483Y-99277885D01*
X114023483Y-99568171D01*
X114096054Y-99713314D01*
X114168626Y-99785885D01*
X114313769Y-99858457D01*
X114604054Y-99858457D01*
X114749197Y-99785885D01*
X114821769Y-99713314D01*
X114894340Y-99568171D01*
X114894340Y-99277885D01*
X114821769Y-99132742D01*
X114749197Y-99060171D01*
X114604054Y-98987600D01*
X114313769Y-98987600D01*
X114168626Y-99060171D01*
X114096054Y-99132742D01*
X114023483Y-99277885D01*
M02*
