G04 #@! TF.GenerationSoftware,KiCad,Pcbnew,(2017-08-08 revision 53204e097)-makepkg*
G04 #@! TF.CreationDate,2017-11-28T10:39:20+01:00*
G04 #@! TF.ProjectId,LMR1405001A,4C4D5231343035303031412E6B696361,rev?*
G04 #@! TF.SameCoordinates,Original*
G04 #@! TF.FileFunction,Legend,Bot*
G04 #@! TF.FilePolarity,Positive*
%FSLAX46Y46*%
G04 Gerber Fmt 4.6, Leading zero omitted, Abs format (unit mm)*
G04 Created by KiCad (PCBNEW (2017-08-08 revision 53204e097)-makepkg) date 11/28/17 10:39:20*
%MOMM*%
%LPD*%
G01*
G04 APERTURE LIST*
%ADD10C,0.150000*%
G04 APERTURE END LIST*
D10*
X127557000Y-90916000D02*
X127557000Y-88916000D01*
X130507000Y-88916000D02*
X130507000Y-90916000D01*
X123395000Y-88916000D02*
X123395000Y-90916000D01*
X120445000Y-90916000D02*
X120445000Y-88916000D01*
X124001000Y-90916000D02*
X124001000Y-88916000D01*
X126951000Y-88916000D02*
X126951000Y-90916000D01*
X141445500Y-89817500D02*
X142145500Y-89817500D01*
X142145500Y-88617500D02*
X141445500Y-88617500D01*
X141445500Y-91976500D02*
X142145500Y-91976500D01*
X142145500Y-90776500D02*
X141445500Y-90776500D01*
X120191000Y-104949500D02*
X120191000Y-102949500D01*
X123141000Y-102949500D02*
X123141000Y-104949500D01*
X119585000Y-102949500D02*
X119585000Y-104949500D01*
X116635000Y-104949500D02*
X116635000Y-102949500D01*
X127303000Y-104949500D02*
X127303000Y-102949500D01*
X130253000Y-102949500D02*
X130253000Y-104949500D01*
X126697000Y-102949500D02*
X126697000Y-104949500D01*
X123747000Y-104949500D02*
X123747000Y-102949500D01*
X128722000Y-99974000D02*
X128722000Y-93574000D01*
X128822000Y-99974000D02*
X128722000Y-99974000D01*
X128822000Y-93574000D02*
X128822000Y-99974000D01*
X128922000Y-93574000D02*
X128922000Y-99974000D01*
X121722000Y-99974000D02*
X130022000Y-99974000D01*
X130022000Y-93574000D02*
X121722000Y-93574000D01*
X142161260Y-100838000D02*
G75*
G03X142161260Y-100838000I-5001260J0D01*
G01*
X137160000Y-94838520D02*
X132158740Y-94838520D01*
X132158740Y-94838520D02*
X131160520Y-95836740D01*
X131160520Y-95836740D02*
X131160520Y-105839260D01*
X131160520Y-105839260D02*
X132158740Y-106837480D01*
X132158740Y-106837480D02*
X142161260Y-106837480D01*
X142161260Y-106837480D02*
X143159480Y-105839260D01*
X143159480Y-105839260D02*
X143159480Y-95836740D01*
X143159480Y-95836740D02*
X142161260Y-94838520D01*
X142161260Y-94838520D02*
X137160000Y-94838520D01*
X132492000Y-86452000D02*
X133192000Y-86452000D01*
X133192000Y-85252000D02*
X132492000Y-85252000D01*
X141445500Y-88166500D02*
X142145500Y-88166500D01*
X142145500Y-86966500D02*
X141445500Y-86966500D01*
X140558000Y-85252000D02*
X139858000Y-85252000D01*
X139858000Y-86452000D02*
X140558000Y-86452000D01*
X133699500Y-91992000D02*
X137699500Y-91992000D01*
X133699500Y-86992000D02*
X133699500Y-91992000D01*
X137699500Y-86992000D02*
X133699500Y-86992000D01*
X137699500Y-91992000D02*
X137699500Y-86992000D01*
X116889000Y-90916000D02*
X116889000Y-88916000D01*
X119839000Y-88916000D02*
X119839000Y-90916000D01*
X129643142Y-85685333D02*
X129690761Y-85637714D01*
X129738380Y-85494857D01*
X129738380Y-85399619D01*
X129690761Y-85256761D01*
X129595523Y-85161523D01*
X129500285Y-85113904D01*
X129309809Y-85066285D01*
X129166952Y-85066285D01*
X128976476Y-85113904D01*
X128881238Y-85161523D01*
X128786000Y-85256761D01*
X128738380Y-85399619D01*
X128738380Y-85494857D01*
X128786000Y-85637714D01*
X128833619Y-85685333D01*
X129738380Y-86637714D02*
X129738380Y-86066285D01*
X129738380Y-86352000D02*
X128738380Y-86352000D01*
X128881238Y-86256761D01*
X128976476Y-86161523D01*
X129024095Y-86066285D01*
X122023142Y-85685333D02*
X122070761Y-85637714D01*
X122118380Y-85494857D01*
X122118380Y-85399619D01*
X122070761Y-85256761D01*
X121975523Y-85161523D01*
X121880285Y-85113904D01*
X121689809Y-85066285D01*
X121546952Y-85066285D01*
X121356476Y-85113904D01*
X121261238Y-85161523D01*
X121166000Y-85256761D01*
X121118380Y-85399619D01*
X121118380Y-85494857D01*
X121166000Y-85637714D01*
X121213619Y-85685333D01*
X121213619Y-86066285D02*
X121166000Y-86113904D01*
X121118380Y-86209142D01*
X121118380Y-86447238D01*
X121166000Y-86542476D01*
X121213619Y-86590095D01*
X121308857Y-86637714D01*
X121404095Y-86637714D01*
X121546952Y-86590095D01*
X122118380Y-86018666D01*
X122118380Y-86637714D01*
X125833142Y-85685333D02*
X125880761Y-85637714D01*
X125928380Y-85494857D01*
X125928380Y-85399619D01*
X125880761Y-85256761D01*
X125785523Y-85161523D01*
X125690285Y-85113904D01*
X125499809Y-85066285D01*
X125356952Y-85066285D01*
X125166476Y-85113904D01*
X125071238Y-85161523D01*
X124976000Y-85256761D01*
X124928380Y-85399619D01*
X124928380Y-85494857D01*
X124976000Y-85637714D01*
X125023619Y-85685333D01*
X124928380Y-86018666D02*
X124928380Y-86637714D01*
X125309333Y-86304380D01*
X125309333Y-86447238D01*
X125356952Y-86542476D01*
X125404571Y-86590095D01*
X125499809Y-86637714D01*
X125737904Y-86637714D01*
X125833142Y-86590095D01*
X125880761Y-86542476D01*
X125928380Y-86447238D01*
X125928380Y-86161523D01*
X125880761Y-86066285D01*
X125833142Y-86018666D01*
X144692666Y-89511142D02*
X144740285Y-89558761D01*
X144883142Y-89606380D01*
X144978380Y-89606380D01*
X145121238Y-89558761D01*
X145216476Y-89463523D01*
X145264095Y-89368285D01*
X145311714Y-89177809D01*
X145311714Y-89034952D01*
X145264095Y-88844476D01*
X145216476Y-88749238D01*
X145121238Y-88654000D01*
X144978380Y-88606380D01*
X144883142Y-88606380D01*
X144740285Y-88654000D01*
X144692666Y-88701619D01*
X143835523Y-88939714D02*
X143835523Y-89606380D01*
X144073619Y-88558761D02*
X144311714Y-89273047D01*
X143692666Y-89273047D01*
X144692666Y-91797142D02*
X144740285Y-91844761D01*
X144883142Y-91892380D01*
X144978380Y-91892380D01*
X145121238Y-91844761D01*
X145216476Y-91749523D01*
X145264095Y-91654285D01*
X145311714Y-91463809D01*
X145311714Y-91320952D01*
X145264095Y-91130476D01*
X145216476Y-91035238D01*
X145121238Y-90940000D01*
X144978380Y-90892380D01*
X144883142Y-90892380D01*
X144740285Y-90940000D01*
X144692666Y-90987619D01*
X143787904Y-90892380D02*
X144264095Y-90892380D01*
X144311714Y-91368571D01*
X144264095Y-91320952D01*
X144168857Y-91273333D01*
X143930761Y-91273333D01*
X143835523Y-91320952D01*
X143787904Y-91368571D01*
X143740285Y-91463809D01*
X143740285Y-91701904D01*
X143787904Y-91797142D01*
X143835523Y-91844761D01*
X143930761Y-91892380D01*
X144168857Y-91892380D01*
X144264095Y-91844761D01*
X144311714Y-91797142D01*
X122023142Y-107402333D02*
X122070761Y-107354714D01*
X122118380Y-107211857D01*
X122118380Y-107116619D01*
X122070761Y-106973761D01*
X121975523Y-106878523D01*
X121880285Y-106830904D01*
X121689809Y-106783285D01*
X121546952Y-106783285D01*
X121356476Y-106830904D01*
X121261238Y-106878523D01*
X121166000Y-106973761D01*
X121118380Y-107116619D01*
X121118380Y-107211857D01*
X121166000Y-107354714D01*
X121213619Y-107402333D01*
X121118380Y-107735666D02*
X121118380Y-108402333D01*
X122118380Y-107973761D01*
X118467142Y-107402333D02*
X118514761Y-107354714D01*
X118562380Y-107211857D01*
X118562380Y-107116619D01*
X118514761Y-106973761D01*
X118419523Y-106878523D01*
X118324285Y-106830904D01*
X118133809Y-106783285D01*
X117990952Y-106783285D01*
X117800476Y-106830904D01*
X117705238Y-106878523D01*
X117610000Y-106973761D01*
X117562380Y-107116619D01*
X117562380Y-107211857D01*
X117610000Y-107354714D01*
X117657619Y-107402333D01*
X117990952Y-107973761D02*
X117943333Y-107878523D01*
X117895714Y-107830904D01*
X117800476Y-107783285D01*
X117752857Y-107783285D01*
X117657619Y-107830904D01*
X117610000Y-107878523D01*
X117562380Y-107973761D01*
X117562380Y-108164238D01*
X117610000Y-108259476D01*
X117657619Y-108307095D01*
X117752857Y-108354714D01*
X117800476Y-108354714D01*
X117895714Y-108307095D01*
X117943333Y-108259476D01*
X117990952Y-108164238D01*
X117990952Y-107973761D01*
X118038571Y-107878523D01*
X118086190Y-107830904D01*
X118181428Y-107783285D01*
X118371904Y-107783285D01*
X118467142Y-107830904D01*
X118514761Y-107878523D01*
X118562380Y-107973761D01*
X118562380Y-108164238D01*
X118514761Y-108259476D01*
X118467142Y-108307095D01*
X118371904Y-108354714D01*
X118181428Y-108354714D01*
X118086190Y-108307095D01*
X118038571Y-108259476D01*
X117990952Y-108164238D01*
X129262142Y-107275333D02*
X129309761Y-107227714D01*
X129357380Y-107084857D01*
X129357380Y-106989619D01*
X129309761Y-106846761D01*
X129214523Y-106751523D01*
X129119285Y-106703904D01*
X128928809Y-106656285D01*
X128785952Y-106656285D01*
X128595476Y-106703904D01*
X128500238Y-106751523D01*
X128405000Y-106846761D01*
X128357380Y-106989619D01*
X128357380Y-107084857D01*
X128405000Y-107227714D01*
X128452619Y-107275333D01*
X129357380Y-107751523D02*
X129357380Y-107942000D01*
X129309761Y-108037238D01*
X129262142Y-108084857D01*
X129119285Y-108180095D01*
X128928809Y-108227714D01*
X128547857Y-108227714D01*
X128452619Y-108180095D01*
X128405000Y-108132476D01*
X128357380Y-108037238D01*
X128357380Y-107846761D01*
X128405000Y-107751523D01*
X128452619Y-107703904D01*
X128547857Y-107656285D01*
X128785952Y-107656285D01*
X128881190Y-107703904D01*
X128928809Y-107751523D01*
X128976428Y-107846761D01*
X128976428Y-108037238D01*
X128928809Y-108132476D01*
X128881190Y-108180095D01*
X128785952Y-108227714D01*
X125579142Y-107307142D02*
X125626761Y-107259523D01*
X125674380Y-107116666D01*
X125674380Y-107021428D01*
X125626761Y-106878571D01*
X125531523Y-106783333D01*
X125436285Y-106735714D01*
X125245809Y-106688095D01*
X125102952Y-106688095D01*
X124912476Y-106735714D01*
X124817238Y-106783333D01*
X124722000Y-106878571D01*
X124674380Y-107021428D01*
X124674380Y-107116666D01*
X124722000Y-107259523D01*
X124769619Y-107307142D01*
X125674380Y-108259523D02*
X125674380Y-107688095D01*
X125674380Y-107973809D02*
X124674380Y-107973809D01*
X124817238Y-107878571D01*
X124912476Y-107783333D01*
X124960095Y-107688095D01*
X124674380Y-108878571D02*
X124674380Y-108973809D01*
X124722000Y-109069047D01*
X124769619Y-109116666D01*
X124864857Y-109164285D01*
X125055333Y-109211904D01*
X125293428Y-109211904D01*
X125483904Y-109164285D01*
X125579142Y-109116666D01*
X125626761Y-109069047D01*
X125674380Y-108973809D01*
X125674380Y-108878571D01*
X125626761Y-108783333D01*
X125579142Y-108735714D01*
X125483904Y-108688095D01*
X125293428Y-108640476D01*
X125055333Y-108640476D01*
X124864857Y-108688095D01*
X124769619Y-108735714D01*
X124722000Y-108783333D01*
X124674380Y-108878571D01*
X119864095Y-100782380D02*
X119864095Y-99782380D01*
X119626000Y-99782380D01*
X119483142Y-99830000D01*
X119387904Y-99925238D01*
X119340285Y-100020476D01*
X119292666Y-100210952D01*
X119292666Y-100353809D01*
X119340285Y-100544285D01*
X119387904Y-100639523D01*
X119483142Y-100734761D01*
X119626000Y-100782380D01*
X119864095Y-100782380D01*
X118340285Y-100782380D02*
X118911714Y-100782380D01*
X118626000Y-100782380D02*
X118626000Y-99782380D01*
X118721238Y-99925238D01*
X118816476Y-100020476D01*
X118911714Y-100068095D01*
X143930666Y-108148380D02*
X144406857Y-108148380D01*
X144406857Y-107148380D01*
X143073523Y-108148380D02*
X143644952Y-108148380D01*
X143359238Y-108148380D02*
X143359238Y-107148380D01*
X143454476Y-107291238D01*
X143549714Y-107386476D01*
X143644952Y-107434095D01*
X135548666Y-86304380D02*
X135882000Y-85828190D01*
X136120095Y-86304380D02*
X136120095Y-85304380D01*
X135739142Y-85304380D01*
X135643904Y-85352000D01*
X135596285Y-85399619D01*
X135548666Y-85494857D01*
X135548666Y-85637714D01*
X135596285Y-85732952D01*
X135643904Y-85780571D01*
X135739142Y-85828190D01*
X136120095Y-85828190D01*
X134596285Y-86304380D02*
X135167714Y-86304380D01*
X134882000Y-86304380D02*
X134882000Y-85304380D01*
X134977238Y-85447238D01*
X135072476Y-85542476D01*
X135167714Y-85590095D01*
X144692666Y-88082380D02*
X145026000Y-87606190D01*
X145264095Y-88082380D02*
X145264095Y-87082380D01*
X144883142Y-87082380D01*
X144787904Y-87130000D01*
X144740285Y-87177619D01*
X144692666Y-87272857D01*
X144692666Y-87415714D01*
X144740285Y-87510952D01*
X144787904Y-87558571D01*
X144883142Y-87606190D01*
X145264095Y-87606190D01*
X144311714Y-87177619D02*
X144264095Y-87130000D01*
X144168857Y-87082380D01*
X143930761Y-87082380D01*
X143835523Y-87130000D01*
X143787904Y-87177619D01*
X143740285Y-87272857D01*
X143740285Y-87368095D01*
X143787904Y-87510952D01*
X144359333Y-88082380D01*
X143740285Y-88082380D01*
X142914666Y-86304380D02*
X143248000Y-85828190D01*
X143486095Y-86304380D02*
X143486095Y-85304380D01*
X143105142Y-85304380D01*
X143009904Y-85352000D01*
X142962285Y-85399619D01*
X142914666Y-85494857D01*
X142914666Y-85637714D01*
X142962285Y-85732952D01*
X143009904Y-85780571D01*
X143105142Y-85828190D01*
X143486095Y-85828190D01*
X142581333Y-85304380D02*
X141962285Y-85304380D01*
X142295619Y-85685333D01*
X142152761Y-85685333D01*
X142057523Y-85732952D01*
X142009904Y-85780571D01*
X141962285Y-85875809D01*
X141962285Y-86113904D01*
X142009904Y-86209142D01*
X142057523Y-86256761D01*
X142152761Y-86304380D01*
X142438476Y-86304380D01*
X142533714Y-86256761D01*
X142581333Y-86209142D01*
X134651880Y-88730095D02*
X135461404Y-88730095D01*
X135556642Y-88777714D01*
X135604261Y-88825333D01*
X135651880Y-88920571D01*
X135651880Y-89111047D01*
X135604261Y-89206285D01*
X135556642Y-89253904D01*
X135461404Y-89301523D01*
X134651880Y-89301523D01*
X135651880Y-90301523D02*
X135651880Y-89730095D01*
X135651880Y-90015809D02*
X134651880Y-90015809D01*
X134794738Y-89920571D01*
X134889976Y-89825333D01*
X134937595Y-89730095D01*
X133386580Y-91422400D02*
X133624676Y-91422400D01*
X133529438Y-91184304D02*
X133624676Y-91422400D01*
X133529438Y-91660495D01*
X133815152Y-91279542D02*
X133624676Y-91422400D01*
X133815152Y-91565257D01*
X118594142Y-85812333D02*
X118641761Y-85764714D01*
X118689380Y-85621857D01*
X118689380Y-85526619D01*
X118641761Y-85383761D01*
X118546523Y-85288523D01*
X118451285Y-85240904D01*
X118260809Y-85193285D01*
X118117952Y-85193285D01*
X117927476Y-85240904D01*
X117832238Y-85288523D01*
X117737000Y-85383761D01*
X117689380Y-85526619D01*
X117689380Y-85621857D01*
X117737000Y-85764714D01*
X117784619Y-85812333D01*
X117689380Y-86669476D02*
X117689380Y-86479000D01*
X117737000Y-86383761D01*
X117784619Y-86336142D01*
X117927476Y-86240904D01*
X118117952Y-86193285D01*
X118498904Y-86193285D01*
X118594142Y-86240904D01*
X118641761Y-86288523D01*
X118689380Y-86383761D01*
X118689380Y-86574238D01*
X118641761Y-86669476D01*
X118594142Y-86717095D01*
X118498904Y-86764714D01*
X118260809Y-86764714D01*
X118165571Y-86717095D01*
X118117952Y-86669476D01*
X118070333Y-86574238D01*
X118070333Y-86383761D01*
X118117952Y-86288523D01*
X118165571Y-86240904D01*
X118260809Y-86193285D01*
X107013333Y-118324380D02*
X107013333Y-119038666D01*
X107060952Y-119181523D01*
X107156190Y-119276761D01*
X107299047Y-119324380D01*
X107394285Y-119324380D01*
X106632380Y-118324380D02*
X106013333Y-118324380D01*
X106346666Y-118705333D01*
X106203809Y-118705333D01*
X106108571Y-118752952D01*
X106060952Y-118800571D01*
X106013333Y-118895809D01*
X106013333Y-119133904D01*
X106060952Y-119229142D01*
X106108571Y-119276761D01*
X106203809Y-119324380D01*
X106489523Y-119324380D01*
X106584761Y-119276761D01*
X106632380Y-119229142D01*
X140033333Y-75652380D02*
X140033333Y-76366666D01*
X140080952Y-76509523D01*
X140176190Y-76604761D01*
X140319047Y-76652380D01*
X140414285Y-76652380D01*
X139128571Y-75985714D02*
X139128571Y-76652380D01*
X139366666Y-75604761D02*
X139604761Y-76319047D01*
X138985714Y-76319047D01*
X140033333Y-118324380D02*
X140033333Y-119038666D01*
X140080952Y-119181523D01*
X140176190Y-119276761D01*
X140319047Y-119324380D01*
X140414285Y-119324380D01*
X139080952Y-118324380D02*
X139557142Y-118324380D01*
X139604761Y-118800571D01*
X139557142Y-118752952D01*
X139461904Y-118705333D01*
X139223809Y-118705333D01*
X139128571Y-118752952D01*
X139080952Y-118800571D01*
X139033333Y-118895809D01*
X139033333Y-119133904D01*
X139080952Y-119229142D01*
X139128571Y-119276761D01*
X139223809Y-119324380D01*
X139461904Y-119324380D01*
X139557142Y-119276761D01*
X139604761Y-119229142D01*
X107013333Y-75652380D02*
X107013333Y-76366666D01*
X107060952Y-76509523D01*
X107156190Y-76604761D01*
X107299047Y-76652380D01*
X107394285Y-76652380D01*
X106108571Y-75652380D02*
X106299047Y-75652380D01*
X106394285Y-75700000D01*
X106441904Y-75747619D01*
X106537142Y-75890476D01*
X106584761Y-76080952D01*
X106584761Y-76461904D01*
X106537142Y-76557142D01*
X106489523Y-76604761D01*
X106394285Y-76652380D01*
X106203809Y-76652380D01*
X106108571Y-76604761D01*
X106060952Y-76557142D01*
X106013333Y-76461904D01*
X106013333Y-76223809D01*
X106060952Y-76128571D01*
X106108571Y-76080952D01*
X106203809Y-76033333D01*
X106394285Y-76033333D01*
X106489523Y-76080952D01*
X106537142Y-76128571D01*
X106584761Y-76223809D01*
M02*
