%TF.GenerationSoftware,KiCad,Pcbnew,7.0.11+1*%
%TF.CreationDate,2024-05-31T00:38:34+00:00*%
%TF.ProjectId,LMR1405001,4c4d5231-3430-4353-9030-312e6b696361,rev?*%
%TF.SameCoordinates,Original*%
%TF.FileFunction,Copper,L2,Bot*%
%TF.FilePolarity,Positive*%
%FSLAX46Y46*%
G04 Gerber Fmt 4.6, Leading zero omitted, Abs format (unit mm)*
G04 Created by KiCad (PCBNEW 7.0.11+1) date 2024-05-31 00:38:34*
%MOMM*%
%LPD*%
G01*
G04 APERTURE LIST*
G04 Aperture macros list*
%AMOutline4P*
0 Free polygon, 4 corners , with rotation*
0 The origin of the aperture is its center*
0 number of corners: always 4*
0 $1 to $8 corner X, Y*
0 $9 Rotation angle, in degrees counterclockwise*
0 create outline with 4 corners*
4,1,4,$1,$2,$3,$4,$5,$6,$7,$8,$1,$2,$9*%
G04 Aperture macros list end*
%TA.AperFunction,ComponentPad*%
%ADD10R,3.810000X3.810000*%
%TD*%
%TA.AperFunction,SMDPad,CuDef*%
%ADD11R,2.500000X1.000000*%
%TD*%
%TA.AperFunction,SMDPad,CuDef*%
%ADD12R,0.800000X0.750000*%
%TD*%
%TA.AperFunction,SMDPad,CuDef*%
%ADD13R,2.600000X3.200000*%
%TD*%
%TA.AperFunction,SMDPad,CuDef*%
%ADD14R,5.400040X2.900680*%
%TD*%
%TA.AperFunction,SMDPad,CuDef*%
%ADD15Outline4P,-0.225000X-1.075000X0.225000X-1.075000X0.225000X1.075000X-0.225000X1.075000X90.000000*%
%TD*%
%TA.AperFunction,ComponentPad*%
%ADD16C,0.450000*%
%TD*%
%TA.AperFunction,SMDPad,CuDef*%
%ADD17Outline4P,-1.550000X-1.200000X1.550000X-1.200000X1.550000X1.200000X-1.550000X1.200000X90.000000*%
%TD*%
%TA.AperFunction,ComponentPad*%
%ADD18C,6.400000*%
%TD*%
%TA.AperFunction,ViaPad*%
%ADD19C,0.600000*%
%TD*%
%TA.AperFunction,Conductor*%
%ADD20C,0.300000*%
%TD*%
G04 APERTURE END LIST*
D10*
%TO.P,J1,1,P1*%
%TO.N,VCC*%
X110822912Y-90003600D03*
X105822912Y-90003600D03*
%TD*%
%TO.P,J2,1,P1*%
%TO.N,GND*%
X110822912Y-95003600D03*
X105822912Y-95003600D03*
%TD*%
%TO.P,J7,1,P1*%
%TO.N,+5V*%
X110816400Y-105003600D03*
X105816400Y-105003600D03*
%TD*%
%TO.P,J8,1,P1*%
%TO.N,GND*%
X110822912Y-100003600D03*
X105822912Y-100003600D03*
%TD*%
D11*
%TO.P,C1,1*%
%TO.N,VCC*%
X129032000Y-88416000D03*
%TO.P,C1,2*%
%TO.N,GND*%
X129032000Y-91416000D03*
%TD*%
%TO.P,C2,1*%
%TO.N,VCC*%
X121920000Y-88416000D03*
%TO.P,C2,2*%
%TO.N,GND*%
X121920000Y-91416000D03*
%TD*%
%TO.P,C3,1*%
%TO.N,VCC*%
X125476000Y-88416000D03*
%TO.P,C3,2*%
%TO.N,GND*%
X125476000Y-91416000D03*
%TD*%
D12*
%TO.P,C4,1*%
%TO.N,Net-(U1-SS)*%
X141045500Y-89217500D03*
%TO.P,C4,2*%
%TO.N,GND*%
X142545500Y-89217500D03*
%TD*%
%TO.P,C5,1*%
%TO.N,Net-(U1-BOOT)*%
X142545500Y-91376500D03*
%TO.P,C5,2*%
%TO.N,Net-(D1-K)*%
X141045500Y-91376500D03*
%TD*%
D11*
%TO.P,C7,1*%
%TO.N,+5V*%
X121666000Y-105449500D03*
%TO.P,C7,2*%
%TO.N,GND*%
X121666000Y-102449500D03*
%TD*%
%TO.P,C8,1*%
%TO.N,+5V*%
X118110000Y-105449500D03*
%TO.P,C8,2*%
%TO.N,GND*%
X118110000Y-102449500D03*
%TD*%
%TO.P,C9,1*%
%TO.N,+5V*%
X128778000Y-105449500D03*
%TO.P,C9,2*%
%TO.N,GND*%
X128778000Y-102449500D03*
%TD*%
%TO.P,C10,1*%
%TO.N,+5V*%
X125222000Y-105449500D03*
%TO.P,C10,2*%
%TO.N,GND*%
X125222000Y-102449500D03*
%TD*%
D13*
%TO.P,D1,1,K*%
%TO.N,Net-(D1-K)*%
X128822000Y-96774000D03*
%TO.P,D1,2,A*%
%TO.N,GND*%
X121622000Y-96774000D03*
%TD*%
D14*
%TO.P,L1,1,1*%
%TO.N,Net-(D1-K)*%
X137160000Y-95836740D03*
%TO.P,L1,2,2*%
%TO.N,+5V*%
X137160000Y-105839260D03*
%TD*%
D12*
%TO.P,R1,1*%
%TO.N,Net-(U1-RT{slash}SYNC)*%
X132092000Y-85852000D03*
%TO.P,R1,2*%
%TO.N,GND*%
X133592000Y-85852000D03*
%TD*%
%TO.P,R2,1*%
%TO.N,+5V*%
X142545500Y-87566500D03*
%TO.P,R2,2*%
%TO.N,Net-(U1-FB)*%
X141045500Y-87566500D03*
%TD*%
%TO.P,R3,1*%
%TO.N,Net-(U1-FB)*%
X140958000Y-85852000D03*
%TO.P,R3,2*%
%TO.N,GND*%
X139458000Y-85852000D03*
%TD*%
D15*
%TO.P,U1,1,BOOT*%
%TO.N,Net-(U1-BOOT)*%
X132824500Y-91397000D03*
%TO.P,U1,2,VIN*%
%TO.N,VCC*%
X132824500Y-90127000D03*
%TO.P,U1,3,EN*%
X132824500Y-88857000D03*
%TO.P,U1,4,RT/SYNC*%
%TO.N,Net-(U1-RT{slash}SYNC)*%
X132824500Y-87587000D03*
%TO.P,U1,5,FB*%
%TO.N,Net-(U1-FB)*%
X138574500Y-87587000D03*
%TO.P,U1,6,SS*%
%TO.N,Net-(U1-SS)*%
X138574500Y-88857000D03*
%TO.P,U1,7,GND*%
%TO.N,GND*%
X138574500Y-90127000D03*
%TO.P,U1,8,SW*%
%TO.N,Net-(D1-K)*%
X138574500Y-91397000D03*
D16*
%TO.P,U1,9,GND*%
%TO.N,GND*%
X135049500Y-90792000D03*
X136349500Y-90792000D03*
X135049500Y-89492000D03*
D17*
X135699500Y-89492000D03*
D16*
X136349500Y-89492000D03*
X135049500Y-88192000D03*
X136349500Y-88192000D03*
%TD*%
D11*
%TO.P,C6,1*%
%TO.N,VCC*%
X118364000Y-88416000D03*
%TO.P,C6,2*%
%TO.N,GND*%
X118364000Y-91416000D03*
%TD*%
D18*
%TO.P,J3,1,P1*%
%TO.N,GND*%
X101600000Y-118872000D03*
%TD*%
%TO.P,J4,1,P1*%
%TO.N,GND*%
X144780000Y-76200000D03*
%TD*%
%TO.P,J5,1,P1*%
%TO.N,GND*%
X144780000Y-118872000D03*
%TD*%
%TO.P,J6,1,P1*%
%TO.N,GND*%
X101600000Y-76200000D03*
%TD*%
D19*
%TO.N,GND*%
X136652000Y-83312000D03*
X126238000Y-97536000D03*
X135763000Y-86360000D03*
X126238000Y-96774000D03*
X134874000Y-85598000D03*
X136652000Y-85598000D03*
X135763000Y-84074000D03*
X136651984Y-86360000D03*
X125273111Y-101218832D03*
X125222000Y-97536000D03*
X136652000Y-84073990D03*
X136652000Y-84836000D03*
X106680000Y-85344000D03*
X121929373Y-92654970D03*
X134874000Y-84836000D03*
X134874000Y-84074000D03*
X135763000Y-84836000D03*
X125469782Y-92706529D03*
X124206000Y-96012000D03*
X124206000Y-96774000D03*
X134874000Y-83312000D03*
X124206000Y-97536000D03*
X134874000Y-82550000D03*
X135763000Y-82550000D03*
X126238000Y-96012000D03*
X118103175Y-101165917D03*
X136652000Y-82550000D03*
X128818393Y-101165917D03*
X135763000Y-85598000D03*
X121701371Y-101192375D03*
X125222000Y-96012000D03*
X135763000Y-83312000D03*
X118388965Y-92775275D03*
X134874000Y-86360000D03*
X128993004Y-92672156D03*
X125222000Y-96774000D03*
%TO.N,Net-(U1-BOOT)*%
X132842000Y-92329000D03*
X142494000Y-92328994D03*
%TD*%
D20*
%TO.N,VCC*%
X119914000Y-88416000D02*
X121920000Y-88416000D01*
X132781500Y-90170000D02*
X132824500Y-90127000D01*
X132824500Y-90127000D02*
X132824500Y-88857000D01*
X130326000Y-88416000D02*
X130810000Y-88900000D01*
X129032000Y-88416000D02*
X130326000Y-88416000D01*
X121920000Y-88416000D02*
X125476000Y-88416000D01*
X132781500Y-88900000D02*
X132824500Y-88857000D01*
X125476000Y-88416000D02*
X129032000Y-88416000D01*
X118148000Y-88632000D02*
X118364000Y-88416000D01*
X130810000Y-88900000D02*
X132781500Y-88900000D01*
X118364000Y-88416000D02*
X119914000Y-88416000D01*
%TO.N,GND*%
X135763000Y-86360000D02*
X134874000Y-86360000D01*
X118110000Y-101172742D02*
X118103175Y-101165917D01*
X125222000Y-96012000D02*
X125222000Y-96774000D01*
X123906001Y-97236001D02*
X124206000Y-97536000D01*
X124922001Y-96474001D02*
X125222000Y-96774000D01*
X134874000Y-84836000D02*
X135890000Y-84836000D01*
X121666000Y-101227746D02*
X121701371Y-101192375D01*
X129032000Y-91416000D02*
X129032000Y-92633160D01*
X135128000Y-84074000D02*
X135338736Y-84074000D01*
X125476000Y-92700311D02*
X125469782Y-92706529D01*
X126238000Y-96012000D02*
X126238000Y-96774000D01*
X136349500Y-88192000D02*
X136349500Y-86946500D01*
X124968000Y-96266000D02*
X124922001Y-96311999D01*
X134874000Y-82550000D02*
X135763000Y-82550000D01*
X136349500Y-86946500D02*
X136062999Y-86659999D01*
X125222000Y-97536000D02*
X126238000Y-97536000D01*
X135001000Y-83947000D02*
X135128000Y-84074000D01*
X118110000Y-102449500D02*
X118110000Y-101172742D01*
X128778000Y-102449500D02*
X128778000Y-101206310D01*
X121920000Y-92645597D02*
X121929373Y-92654970D01*
X123952000Y-97028000D02*
X123906001Y-97073999D01*
X123906001Y-97073999D02*
X123906001Y-97236001D01*
X128778000Y-101206310D02*
X128818393Y-101165917D01*
X124922001Y-96311999D02*
X124922001Y-96474001D01*
X121622000Y-96774000D02*
X124206000Y-96774000D01*
X125476000Y-91416000D02*
X125476000Y-92700311D01*
X121920000Y-91416000D02*
X121920000Y-92645597D01*
X125222000Y-101269943D02*
X125273111Y-101218832D01*
X134874000Y-84074000D02*
X135763000Y-84074000D01*
X121666000Y-102449500D02*
X121666000Y-101227746D01*
X134874000Y-85598000D02*
X135763000Y-85598000D01*
X134874000Y-83312000D02*
X135763000Y-83312000D01*
X125222000Y-102449500D02*
X125222000Y-101269943D01*
X135890000Y-84836000D02*
X135763000Y-84836000D01*
X118364000Y-91416000D02*
X118364000Y-92750310D01*
X118364000Y-92750310D02*
X118388965Y-92775275D01*
X136652000Y-86359984D02*
X136651984Y-86360000D01*
X135338736Y-84074000D02*
X135763000Y-84074000D01*
X136652000Y-83312000D02*
X136652000Y-82550000D01*
X124206000Y-96774000D02*
X124206000Y-97536000D01*
X136652000Y-85598000D02*
X136652000Y-86359984D01*
X136062999Y-86659999D02*
X135763000Y-86360000D01*
X136652000Y-84836000D02*
X136652000Y-84073990D01*
X129032000Y-92633160D02*
X128993004Y-92672156D01*
%TO.N,Net-(U1-SS)*%
X140685000Y-88857000D02*
X141045500Y-89217500D01*
X138574500Y-88857000D02*
X140685000Y-88857000D01*
%TO.N,Net-(U1-BOOT)*%
X132824500Y-92311500D02*
X132842000Y-92329000D01*
X142545500Y-91376500D02*
X142545500Y-92277494D01*
X142545500Y-92277494D02*
X142494000Y-92328994D01*
X132824500Y-91397000D02*
X132824500Y-92311500D01*
%TO.N,Net-(D1-K)*%
X138574500Y-95784500D02*
X138537500Y-95821500D01*
X137081260Y-95758000D02*
X137160000Y-95836740D01*
X138574500Y-91397000D02*
X138574500Y-95784500D01*
X138574500Y-91397000D02*
X141025000Y-91397000D01*
X129076000Y-95758000D02*
X137081260Y-95758000D01*
X141025000Y-91397000D02*
X141045500Y-91376500D01*
%TO.N,Net-(U1-RT{slash}SYNC)*%
X132164000Y-87587000D02*
X132824500Y-87587000D01*
X132092000Y-85852000D02*
X132092000Y-87515000D01*
X132092000Y-87515000D02*
X132164000Y-87587000D01*
%TO.N,+5V*%
X142545500Y-86891500D02*
X142545500Y-87566500D01*
X117943500Y-105283000D02*
X118110000Y-105449500D01*
X142545500Y-85141500D02*
X142545500Y-86891500D01*
X128778000Y-105449500D02*
X136770240Y-105449500D01*
X126772000Y-105449500D02*
X128778000Y-105449500D01*
X107442000Y-81280000D02*
X138684000Y-81280000D01*
X105765600Y-105003600D02*
X102362000Y-101600000D01*
X125222000Y-105449500D02*
X126772000Y-105449500D01*
X106353600Y-105003600D02*
X105765600Y-105003600D01*
X118110000Y-105449500D02*
X121666000Y-105449500D01*
X136770240Y-105449500D02*
X137160000Y-105839260D01*
X102362000Y-86360000D02*
X107442000Y-81280000D01*
X121666000Y-105449500D02*
X125222000Y-105449500D01*
X138684000Y-81280000D02*
X142545500Y-85141500D01*
X128405760Y-105839260D02*
X128016000Y-105449500D01*
X102362000Y-101600000D02*
X102362000Y-86360000D01*
%TO.N,Net-(U1-FB)*%
X138574500Y-87587000D02*
X141025000Y-87587000D01*
X141045500Y-87566500D02*
X141045500Y-85939500D01*
X141045500Y-85939500D02*
X140958000Y-85852000D01*
X141025000Y-87587000D02*
X141045500Y-87566500D01*
%TD*%
%TA.AperFunction,Conductor*%
%TO.N,Net-(D1-K)*%
G36*
X130556000Y-98552000D02*
G01*
X129104573Y-98552000D01*
X127380000Y-98552000D01*
X127311879Y-98531998D01*
X127265386Y-98478342D01*
X127254000Y-98426000D01*
X127254000Y-94360000D01*
X127274002Y-94291879D01*
X127327658Y-94245386D01*
X127380000Y-94234000D01*
X135889999Y-94234000D01*
X137414000Y-94234000D01*
X130556000Y-98552000D01*
G37*
%TD.AperFunction*%
%TD*%
%TA.AperFunction,Conductor*%
%TO.N,Net-(D1-K)*%
G36*
X139896121Y-90952002D02*
G01*
X139942614Y-91005658D01*
X139954000Y-91058000D01*
X139954000Y-98426000D01*
X139933998Y-98494121D01*
X139880342Y-98540614D01*
X139828000Y-98552000D01*
X129104573Y-98552000D01*
X137160000Y-93425817D01*
X137160000Y-91545258D01*
X137180002Y-91477137D01*
X137210491Y-91444390D01*
X137262761Y-91405261D01*
X137350387Y-91288207D01*
X137350387Y-91288206D01*
X137350389Y-91288204D01*
X137401489Y-91151201D01*
X137408000Y-91090638D01*
X137408000Y-91058000D01*
X137428002Y-90989879D01*
X137481658Y-90943386D01*
X137534000Y-90932000D01*
X139828000Y-90932000D01*
X139896121Y-90952002D01*
G37*
%TD.AperFunction*%
%TD*%
%TA.AperFunction,Conductor*%
%TO.N,+5V*%
G36*
X139872247Y-104287002D02*
G01*
X139918740Y-104340658D01*
X139924468Y-104355666D01*
X139927463Y-104365320D01*
X139933121Y-104402654D01*
X139933121Y-107951000D01*
X139913119Y-108019121D01*
X139859463Y-108065614D01*
X139807121Y-108077000D01*
X103885000Y-108077000D01*
X103816879Y-108056998D01*
X103770386Y-108003342D01*
X103759000Y-107951000D01*
X103759000Y-104393000D01*
X103779002Y-104324879D01*
X103832658Y-104278386D01*
X103885000Y-104267000D01*
X139804126Y-104267000D01*
X139872247Y-104287002D01*
G37*
%TD.AperFunction*%
%TD*%
%TA.AperFunction,Conductor*%
%TO.N,GND*%
G36*
X149472621Y-71469502D02*
G01*
X149519114Y-71523158D01*
X149530500Y-71575500D01*
X149530500Y-124004500D01*
X149510498Y-124072621D01*
X149456842Y-124119114D01*
X149404500Y-124130500D01*
X96975500Y-124130500D01*
X96907379Y-124110498D01*
X96860886Y-124056842D01*
X96849500Y-124004500D01*
X96849500Y-86339152D01*
X101698594Y-86339152D01*
X101702235Y-86377675D01*
X101702941Y-86385138D01*
X101703500Y-86396996D01*
X101703500Y-101513389D01*
X101701708Y-101529620D01*
X101701958Y-101529644D01*
X101701211Y-101537536D01*
X101703438Y-101608369D01*
X101703500Y-101612327D01*
X101703500Y-101641432D01*
X101704056Y-101645833D01*
X101704986Y-101657655D01*
X101706437Y-101703829D01*
X101706438Y-101703832D01*
X101712421Y-101724429D01*
X101716428Y-101743780D01*
X101719117Y-101765060D01*
X101719117Y-101765061D01*
X101736124Y-101808018D01*
X101739967Y-101819244D01*
X101752853Y-101863597D01*
X101752853Y-101863598D01*
X101763771Y-101882058D01*
X101772468Y-101899811D01*
X101780364Y-101919755D01*
X101780368Y-101919761D01*
X101807514Y-101957123D01*
X101814033Y-101967047D01*
X101837547Y-102006807D01*
X101852714Y-102021974D01*
X101865552Y-102037005D01*
X101878158Y-102054356D01*
X101913752Y-102083802D01*
X101922532Y-102091792D01*
X103365995Y-103535254D01*
X103400020Y-103597566D01*
X103402900Y-103624349D01*
X103402900Y-103935772D01*
X103382898Y-104003893D01*
X103372126Y-104018282D01*
X103347021Y-104047255D01*
X103347018Y-104047260D01*
X103286302Y-104180207D01*
X103266302Y-104248322D01*
X103266300Y-104248329D01*
X103245500Y-104393003D01*
X103245500Y-107951009D01*
X103257235Y-108060155D01*
X103257235Y-108060159D01*
X103268617Y-108112480D01*
X103268623Y-108112501D01*
X103303288Y-108216654D01*
X103303290Y-108216657D01*
X103382308Y-108339612D01*
X103382311Y-108339615D01*
X103382315Y-108339621D01*
X103426575Y-108390700D01*
X103428396Y-108392920D01*
X103539258Y-108488980D01*
X103539261Y-108488982D01*
X103672210Y-108549698D01*
X103740331Y-108569700D01*
X103885000Y-108590500D01*
X103885004Y-108590500D01*
X139807115Y-108590500D01*
X139807121Y-108590500D01*
X139916270Y-108578766D01*
X139916279Y-108578764D01*
X139916280Y-108578764D01*
X139932424Y-108575251D01*
X139968612Y-108567380D01*
X140061150Y-108536579D01*
X140132101Y-108534046D01*
X140190036Y-108567037D01*
X140207999Y-108585000D01*
X140208000Y-108585000D01*
X143510000Y-108585000D01*
X143510000Y-92202000D01*
X143495171Y-92202000D01*
X143427050Y-92181998D01*
X143380557Y-92128342D01*
X143370453Y-92058068D01*
X143392158Y-92005667D01*
X143392068Y-92005618D01*
X143392529Y-92004772D01*
X143394304Y-92000489D01*
X143396389Y-91997704D01*
X143444689Y-91868207D01*
X143447488Y-91860704D01*
X143447490Y-91860696D01*
X143453999Y-91800149D01*
X143454000Y-91800132D01*
X143454000Y-90952867D01*
X143453999Y-90952850D01*
X143447490Y-90892303D01*
X143447488Y-90892295D01*
X143396389Y-90755297D01*
X143396387Y-90755292D01*
X143308761Y-90638238D01*
X143191707Y-90550612D01*
X143191702Y-90550610D01*
X143054704Y-90499511D01*
X143054696Y-90499509D01*
X142994149Y-90493000D01*
X142994138Y-90493000D01*
X142096862Y-90493000D01*
X142096850Y-90493000D01*
X142036303Y-90499509D01*
X142036295Y-90499511D01*
X141899296Y-90550610D01*
X141899293Y-90550612D01*
X141871006Y-90571787D01*
X141804485Y-90596596D01*
X141735112Y-90581503D01*
X141719994Y-90571787D01*
X141691706Y-90550612D01*
X141691703Y-90550610D01*
X141554704Y-90499511D01*
X141554696Y-90499509D01*
X141494149Y-90493000D01*
X141494138Y-90493000D01*
X140596862Y-90493000D01*
X140596850Y-90493000D01*
X140536303Y-90499509D01*
X140536295Y-90499511D01*
X140399297Y-90550610D01*
X140399293Y-90550612D01*
X140378509Y-90566171D01*
X140311988Y-90590981D01*
X140242614Y-90575889D01*
X140220489Y-90560527D01*
X140173739Y-90520018D01*
X140173737Y-90520017D01*
X140173738Y-90520017D01*
X140040789Y-90459301D01*
X139972677Y-90439302D01*
X139972670Y-90439300D01*
X139943735Y-90435140D01*
X139828000Y-90418500D01*
X137534000Y-90418500D01*
X137533990Y-90418500D01*
X137445267Y-90428039D01*
X137424851Y-90430234D01*
X137424848Y-90430234D01*
X137424844Y-90430235D01*
X137424840Y-90430235D01*
X137372519Y-90441617D01*
X137372498Y-90441623D01*
X137268345Y-90476288D01*
X137145385Y-90555310D01*
X137094299Y-90599576D01*
X137092080Y-90601395D01*
X136996019Y-90712258D01*
X136996017Y-90712261D01*
X136935301Y-90845210D01*
X136915302Y-90913322D01*
X136915298Y-90913341D01*
X136903856Y-90992920D01*
X136874363Y-91057500D01*
X136863338Y-91068723D01*
X136834677Y-91094467D01*
X136834667Y-91094477D01*
X136804183Y-91127219D01*
X136804175Y-91127228D01*
X136748017Y-91199519D01*
X136687301Y-91332468D01*
X136667302Y-91400580D01*
X136667300Y-91400587D01*
X136646500Y-91545261D01*
X136646500Y-93074766D01*
X136626498Y-93142887D01*
X136588146Y-93181067D01*
X135771423Y-93700801D01*
X135703777Y-93720500D01*
X127379990Y-93720500D01*
X127291267Y-93730039D01*
X127270851Y-93732234D01*
X127270848Y-93732234D01*
X127270844Y-93732235D01*
X127270840Y-93732235D01*
X127218519Y-93743617D01*
X127218498Y-93743623D01*
X127114345Y-93778288D01*
X126991385Y-93857310D01*
X126940299Y-93901576D01*
X126938080Y-93903395D01*
X126842019Y-94014258D01*
X126842017Y-94014261D01*
X126781301Y-94147210D01*
X126761302Y-94215322D01*
X126761300Y-94215329D01*
X126740500Y-94360003D01*
X126740500Y-98426009D01*
X126752235Y-98535155D01*
X126752235Y-98535159D01*
X126763617Y-98587480D01*
X126763623Y-98587501D01*
X126798288Y-98691654D01*
X126798290Y-98691657D01*
X126877308Y-98814612D01*
X126877311Y-98814615D01*
X126877315Y-98814621D01*
X126921575Y-98865700D01*
X126923396Y-98867920D01*
X127034258Y-98963980D01*
X127034261Y-98963982D01*
X127167210Y-99024698D01*
X127235331Y-99044700D01*
X127380000Y-99065500D01*
X129104573Y-99065500D01*
X130684000Y-99065500D01*
X130752121Y-99085502D01*
X130798614Y-99139158D01*
X130810000Y-99191500D01*
X130810000Y-103627500D01*
X130789998Y-103695621D01*
X130736342Y-103742114D01*
X130684000Y-103753500D01*
X113355900Y-103753500D01*
X113287779Y-103733498D01*
X113241286Y-103679842D01*
X113229900Y-103627500D01*
X113229900Y-103049967D01*
X113229899Y-103049950D01*
X113223390Y-102989403D01*
X113223388Y-102989395D01*
X113172289Y-102852397D01*
X113172287Y-102852392D01*
X113084661Y-102735338D01*
X112967607Y-102647712D01*
X112967602Y-102647710D01*
X112830604Y-102596611D01*
X112830596Y-102596609D01*
X112770049Y-102590100D01*
X112770038Y-102590100D01*
X108862762Y-102590100D01*
X108862750Y-102590100D01*
X108802203Y-102596609D01*
X108802195Y-102596611D01*
X108665197Y-102647710D01*
X108665192Y-102647712D01*
X108548138Y-102735338D01*
X108460512Y-102852392D01*
X108460510Y-102852397D01*
X108434455Y-102922253D01*
X108391908Y-102979089D01*
X108325388Y-103003899D01*
X108256014Y-102988807D01*
X108205812Y-102938605D01*
X108198345Y-102922253D01*
X108172289Y-102852397D01*
X108172287Y-102852392D01*
X108084661Y-102735338D01*
X107967607Y-102647712D01*
X107967602Y-102647710D01*
X107830604Y-102596611D01*
X107830596Y-102596609D01*
X107770049Y-102590100D01*
X107770038Y-102590100D01*
X104335550Y-102590100D01*
X104267429Y-102570098D01*
X104246455Y-102553195D01*
X103057405Y-101364145D01*
X103023379Y-101301833D01*
X103020500Y-101275050D01*
X103020500Y-90327696D01*
X103372500Y-90327696D01*
X103384283Y-90437074D01*
X103395714Y-90489512D01*
X103395716Y-90489518D01*
X103402937Y-90511164D01*
X103409412Y-90551035D01*
X103409412Y-91957249D01*
X103415921Y-92017796D01*
X103415923Y-92017804D01*
X103467022Y-92154802D01*
X103467024Y-92154807D01*
X103554650Y-92271861D01*
X103671704Y-92359487D01*
X103671706Y-92359488D01*
X103671708Y-92359489D01*
X103730787Y-92381524D01*
X103808707Y-92410588D01*
X103808715Y-92410590D01*
X103869262Y-92417099D01*
X103869267Y-92417099D01*
X103869274Y-92417100D01*
X103869280Y-92417100D01*
X107776544Y-92417100D01*
X107776550Y-92417100D01*
X107776557Y-92417099D01*
X107776561Y-92417099D01*
X107837108Y-92410590D01*
X107837111Y-92410589D01*
X107837113Y-92410589D01*
X107974116Y-92359489D01*
X108014845Y-92329000D01*
X108091173Y-92271861D01*
X108178798Y-92154808D01*
X108178797Y-92154808D01*
X108178801Y-92154804D01*
X108204857Y-92084943D01*
X108247403Y-92028111D01*
X108313924Y-92003300D01*
X108383298Y-92018392D01*
X108433500Y-92068594D01*
X108440962Y-92084934D01*
X108467023Y-92154804D01*
X108467024Y-92154805D01*
X108467025Y-92154808D01*
X108554650Y-92271861D01*
X108671704Y-92359487D01*
X108671706Y-92359488D01*
X108671708Y-92359489D01*
X108730787Y-92381524D01*
X108808707Y-92410588D01*
X108808715Y-92410590D01*
X108869262Y-92417099D01*
X108869267Y-92417099D01*
X108869274Y-92417100D01*
X108869280Y-92417100D01*
X112776544Y-92417100D01*
X112776550Y-92417100D01*
X112776557Y-92417099D01*
X112776561Y-92417099D01*
X112837108Y-92410590D01*
X112837111Y-92410589D01*
X112837113Y-92410589D01*
X112974116Y-92359489D01*
X113014845Y-92329000D01*
X113091173Y-92271861D01*
X113178799Y-92154807D01*
X113178799Y-92154806D01*
X113178801Y-92154804D01*
X113229901Y-92017801D01*
X113231763Y-92000489D01*
X113236411Y-91957249D01*
X113236412Y-91957232D01*
X113236412Y-91084822D01*
X113256414Y-91016701D01*
X113310070Y-90970208D01*
X113362297Y-90958822D01*
X116907202Y-90955647D01*
X116998144Y-90947447D01*
X117042061Y-90939503D01*
X117093071Y-90925496D01*
X117126432Y-90921000D01*
X119604148Y-90921000D01*
X119637455Y-90925481D01*
X119679400Y-90936979D01*
X119723546Y-90944924D01*
X119814960Y-90953043D01*
X120471760Y-90952455D01*
X120562700Y-90944255D01*
X120598299Y-90937815D01*
X120606608Y-90936313D01*
X120606609Y-90936312D01*
X120606618Y-90936311D01*
X120646004Y-90925496D01*
X120679364Y-90921000D01*
X123163224Y-90921000D01*
X123196523Y-90925480D01*
X123226890Y-90933803D01*
X123267238Y-90941064D01*
X123271039Y-90941748D01*
X123306597Y-90944905D01*
X123362441Y-90949865D01*
X124036319Y-90949262D01*
X124127251Y-90941064D01*
X124171168Y-90933121D01*
X124197843Y-90925797D01*
X124198936Y-90925497D01*
X124232297Y-90921000D01*
X126722295Y-90921000D01*
X126755601Y-90925481D01*
X126774362Y-90930624D01*
X126818508Y-90938569D01*
X126909922Y-90946688D01*
X127600882Y-90946069D01*
X127691815Y-90937870D01*
X127735731Y-90929927D01*
X127751870Y-90925496D01*
X127785228Y-90921000D01*
X130281372Y-90921000D01*
X130314678Y-90925482D01*
X130321862Y-90927451D01*
X130366000Y-90935393D01*
X130366002Y-90935394D01*
X130392722Y-90937766D01*
X130457403Y-90943510D01*
X131120014Y-90942916D01*
X131188152Y-90962857D01*
X131234693Y-91016471D01*
X131245404Y-91082381D01*
X131241001Y-91123342D01*
X131241000Y-91123367D01*
X131241000Y-91670649D01*
X131247509Y-91731196D01*
X131247511Y-91731204D01*
X131298610Y-91868202D01*
X131298612Y-91868207D01*
X131386238Y-91985261D01*
X131503292Y-92072887D01*
X131503294Y-92072888D01*
X131503296Y-92072889D01*
X131535622Y-92084946D01*
X131640295Y-92123988D01*
X131640303Y-92123990D01*
X131700850Y-92130499D01*
X131700855Y-92130499D01*
X131700862Y-92130500D01*
X131909756Y-92130500D01*
X131977877Y-92150502D01*
X132024370Y-92204158D01*
X132034963Y-92270604D01*
X132028384Y-92329000D01*
X132048783Y-92510047D01*
X132048783Y-92510049D01*
X132048784Y-92510050D01*
X132108957Y-92682015D01*
X132108958Y-92682018D01*
X132205887Y-92836279D01*
X132205888Y-92836281D01*
X132334718Y-92965111D01*
X132334720Y-92965112D01*
X132488981Y-93062041D01*
X132488982Y-93062041D01*
X132488985Y-93062043D01*
X132660953Y-93122217D01*
X132842000Y-93142616D01*
X133023047Y-93122217D01*
X133195015Y-93062043D01*
X133349281Y-92965111D01*
X133478111Y-92836281D01*
X133575043Y-92682015D01*
X133635217Y-92510047D01*
X133655616Y-92329000D01*
X133649036Y-92270605D01*
X133661285Y-92200676D01*
X133709397Y-92148468D01*
X133774244Y-92130500D01*
X133948132Y-92130500D01*
X133948138Y-92130500D01*
X133948145Y-92130499D01*
X133948149Y-92130499D01*
X134008696Y-92123990D01*
X134008699Y-92123989D01*
X134008701Y-92123989D01*
X134145704Y-92072889D01*
X134151442Y-92068594D01*
X134262761Y-91985261D01*
X134350387Y-91868207D01*
X134350387Y-91868206D01*
X134350389Y-91868204D01*
X134401489Y-91731201D01*
X134408000Y-91670638D01*
X134408000Y-91123362D01*
X134403857Y-91084822D01*
X134401490Y-91062803D01*
X134401488Y-91062795D01*
X134361523Y-90955647D01*
X134350389Y-90925796D01*
X134319553Y-90884604D01*
X134294743Y-90818086D01*
X134309834Y-90748711D01*
X134325197Y-90726584D01*
X134337608Y-90712261D01*
X134396982Y-90643739D01*
X134457698Y-90510790D01*
X134477700Y-90442669D01*
X134498500Y-90298000D01*
X134498500Y-88645000D01*
X134486766Y-88535851D01*
X134475380Y-88483509D01*
X134445052Y-88392389D01*
X134440711Y-88379345D01*
X134392779Y-88304761D01*
X134361692Y-88256388D01*
X134342525Y-88234268D01*
X134313032Y-88169687D01*
X134323135Y-88099413D01*
X134336877Y-88076253D01*
X134350389Y-88058204D01*
X134401489Y-87921201D01*
X134408000Y-87860638D01*
X134408000Y-87313362D01*
X134407999Y-87313350D01*
X134401490Y-87252803D01*
X134401488Y-87252795D01*
X134360480Y-87142850D01*
X134350389Y-87115796D01*
X134350388Y-87115794D01*
X134350387Y-87115792D01*
X134262761Y-86998738D01*
X134145707Y-86911112D01*
X134145702Y-86911110D01*
X134008704Y-86860011D01*
X134008696Y-86860009D01*
X133948149Y-86853500D01*
X133948138Y-86853500D01*
X132882184Y-86853500D01*
X132814063Y-86833498D01*
X132767570Y-86779842D01*
X132757466Y-86709568D01*
X132786960Y-86644988D01*
X132806669Y-86626635D01*
X132855261Y-86590261D01*
X132910338Y-86516687D01*
X132942887Y-86473207D01*
X132942887Y-86473206D01*
X132942889Y-86473204D01*
X132993989Y-86336201D01*
X132995950Y-86317967D01*
X133000499Y-86275649D01*
X133000500Y-86275632D01*
X133000500Y-85428367D01*
X133000499Y-85428350D01*
X132993990Y-85367803D01*
X132993988Y-85367795D01*
X132942889Y-85230797D01*
X132942887Y-85230792D01*
X132855261Y-85113738D01*
X132738207Y-85026112D01*
X132738202Y-85026110D01*
X132601204Y-84975011D01*
X132601196Y-84975009D01*
X132540649Y-84968500D01*
X132540638Y-84968500D01*
X131643362Y-84968500D01*
X131643350Y-84968500D01*
X131582803Y-84975009D01*
X131582795Y-84975011D01*
X131445797Y-85026110D01*
X131445792Y-85026112D01*
X131328738Y-85113738D01*
X131241112Y-85230792D01*
X131241110Y-85230797D01*
X131190011Y-85367795D01*
X131190009Y-85367803D01*
X131183500Y-85428350D01*
X131183500Y-86275649D01*
X131190009Y-86336196D01*
X131190011Y-86336204D01*
X131241110Y-86473202D01*
X131241112Y-86473207D01*
X131328738Y-86590261D01*
X131383009Y-86630887D01*
X131425556Y-86687722D01*
X131433500Y-86731755D01*
X131433500Y-86900288D01*
X131413498Y-86968409D01*
X131391877Y-86991634D01*
X131392610Y-86992367D01*
X131386240Y-86998736D01*
X131298611Y-87115794D01*
X131296884Y-87118958D01*
X131294336Y-87121505D01*
X131293210Y-87123010D01*
X131292993Y-87122848D01*
X131246680Y-87169158D01*
X131177306Y-87184248D01*
X131110786Y-87159435D01*
X131100122Y-87150491D01*
X130456324Y-86546931D01*
X130456302Y-86546912D01*
X130420983Y-86516687D01*
X130420982Y-86516686D01*
X130420977Y-86516682D01*
X130412283Y-86509899D01*
X130403019Y-86502671D01*
X130387140Y-86491401D01*
X130365089Y-86475750D01*
X130365085Y-86475747D01*
X130264306Y-86429631D01*
X130232186Y-86414933D01*
X130232183Y-86414932D01*
X130232184Y-86414932D01*
X130164073Y-86394877D01*
X130164076Y-86394877D01*
X130019422Y-86373969D01*
X104185694Y-86354722D01*
X104012472Y-86354593D01*
X104012471Y-86354593D01*
X104012463Y-86354593D01*
X103903122Y-86366287D01*
X103903118Y-86366288D01*
X103850690Y-86377673D01*
X103828249Y-86385138D01*
X103746343Y-86412383D01*
X103746341Y-86412383D01*
X103746341Y-86412384D01*
X103623390Y-86491399D01*
X103623386Y-86491402D01*
X103572299Y-86535669D01*
X103570080Y-86537488D01*
X103474019Y-86648351D01*
X103474017Y-86648354D01*
X103413301Y-86781303D01*
X103393302Y-86849415D01*
X103393300Y-86849422D01*
X103393300Y-86849424D01*
X103372749Y-86992367D01*
X103372500Y-86994096D01*
X103372500Y-90327696D01*
X103020500Y-90327696D01*
X103020500Y-86684950D01*
X103040502Y-86616829D01*
X103057405Y-86595855D01*
X107677855Y-81975405D01*
X107740167Y-81941379D01*
X107766950Y-81938500D01*
X138359050Y-81938500D01*
X138427171Y-81958502D01*
X138448145Y-81975405D01*
X141226145Y-84753405D01*
X141260171Y-84815717D01*
X141255106Y-84886532D01*
X141212559Y-84943368D01*
X141146039Y-84968179D01*
X141137050Y-84968500D01*
X140509350Y-84968500D01*
X140448803Y-84975009D01*
X140448795Y-84975011D01*
X140311797Y-85026110D01*
X140311792Y-85026112D01*
X140194738Y-85113738D01*
X140107112Y-85230792D01*
X140107110Y-85230797D01*
X140056011Y-85367795D01*
X140056009Y-85367803D01*
X140049500Y-85428350D01*
X140049500Y-86275649D01*
X140056009Y-86336196D01*
X140056011Y-86336204D01*
X140107110Y-86473202D01*
X140107112Y-86473207D01*
X140194737Y-86590259D01*
X140194738Y-86590259D01*
X140194739Y-86590261D01*
X140230230Y-86616829D01*
X140264468Y-86642460D01*
X140307014Y-86699296D01*
X140312078Y-86770112D01*
X140285258Y-86819242D01*
X140287639Y-86821025D01*
X140244981Y-86878009D01*
X140188145Y-86920556D01*
X140144113Y-86928500D01*
X139959710Y-86928500D01*
X139899331Y-86913091D01*
X139895704Y-86911111D01*
X139758704Y-86860011D01*
X139758696Y-86860009D01*
X139698149Y-86853500D01*
X139698138Y-86853500D01*
X137450862Y-86853500D01*
X137450850Y-86853500D01*
X137390303Y-86860009D01*
X137390295Y-86860011D01*
X137253297Y-86911110D01*
X137253292Y-86911112D01*
X137136238Y-86998738D01*
X137048612Y-87115792D01*
X137048610Y-87115797D01*
X136997511Y-87252795D01*
X136997509Y-87252803D01*
X136991000Y-87313350D01*
X136991000Y-87860649D01*
X136997509Y-87921196D01*
X136997511Y-87921204D01*
X137048610Y-88058202D01*
X137048612Y-88058207D01*
X137114701Y-88146491D01*
X137139512Y-88213011D01*
X137124420Y-88282385D01*
X137114701Y-88297509D01*
X137048612Y-88385792D01*
X137048610Y-88385797D01*
X136997511Y-88522795D01*
X136997509Y-88522803D01*
X136991000Y-88583350D01*
X136991000Y-89130649D01*
X136997509Y-89191196D01*
X136997511Y-89191204D01*
X137048610Y-89328202D01*
X137048612Y-89328207D01*
X137136238Y-89445261D01*
X137253292Y-89532887D01*
X137253294Y-89532888D01*
X137253296Y-89532889D01*
X137312375Y-89554924D01*
X137390295Y-89583988D01*
X137390303Y-89583990D01*
X137450850Y-89590499D01*
X137450855Y-89590499D01*
X137450862Y-89590500D01*
X137450868Y-89590500D01*
X139698132Y-89590500D01*
X139698138Y-89590500D01*
X139698145Y-89590499D01*
X139698149Y-89590499D01*
X139758696Y-89583990D01*
X139758699Y-89583989D01*
X139758701Y-89583989D01*
X139895704Y-89532889D01*
X139895708Y-89532885D01*
X139899331Y-89530909D01*
X139959710Y-89515500D01*
X140011000Y-89515500D01*
X140079121Y-89535502D01*
X140125614Y-89589158D01*
X140136196Y-89637805D01*
X140136820Y-89637772D01*
X140137000Y-89641149D01*
X140143509Y-89701696D01*
X140143511Y-89701704D01*
X140194610Y-89838702D01*
X140194612Y-89838707D01*
X140282238Y-89955761D01*
X140399292Y-90043387D01*
X140399294Y-90043388D01*
X140399296Y-90043389D01*
X140458375Y-90065424D01*
X140536295Y-90094488D01*
X140536303Y-90094490D01*
X140596850Y-90100999D01*
X140596855Y-90100999D01*
X140596862Y-90101000D01*
X140596868Y-90101000D01*
X141494132Y-90101000D01*
X141494138Y-90101000D01*
X141494145Y-90100999D01*
X141494149Y-90100999D01*
X141554696Y-90094490D01*
X141554699Y-90094489D01*
X141554701Y-90094489D01*
X141691704Y-90043389D01*
X141808761Y-89955761D01*
X141896389Y-89838704D01*
X141947489Y-89701701D01*
X141954000Y-89641138D01*
X141954000Y-88793862D01*
X141953999Y-88793850D01*
X141947490Y-88733303D01*
X141947489Y-88733298D01*
X141933904Y-88696877D01*
X141902450Y-88612548D01*
X141897385Y-88541735D01*
X141931410Y-88479422D01*
X141993722Y-88445397D01*
X142033975Y-88443239D01*
X142036298Y-88443488D01*
X142036299Y-88443489D01*
X142054047Y-88445397D01*
X142096852Y-88449999D01*
X142096853Y-88449999D01*
X142096862Y-88450000D01*
X142096868Y-88450000D01*
X142994132Y-88450000D01*
X142994138Y-88450000D01*
X142994145Y-88449999D01*
X142994149Y-88449999D01*
X143054696Y-88443490D01*
X143054699Y-88443489D01*
X143054701Y-88443489D01*
X143055372Y-88443239D01*
X143073545Y-88436460D01*
X143191704Y-88392389D01*
X143209132Y-88379343D01*
X143308761Y-88304761D01*
X143396387Y-88187707D01*
X143396387Y-88187706D01*
X143396389Y-88187704D01*
X143444689Y-88058207D01*
X143447488Y-88050704D01*
X143447490Y-88050696D01*
X143453999Y-87990149D01*
X143454000Y-87990132D01*
X143454000Y-87142867D01*
X143453999Y-87142850D01*
X143447490Y-87082303D01*
X143447488Y-87082295D01*
X143414591Y-86994096D01*
X143396389Y-86945296D01*
X143396388Y-86945294D01*
X143396387Y-86945292D01*
X143308761Y-86828238D01*
X143254490Y-86787611D01*
X143211944Y-86730775D01*
X143204000Y-86686744D01*
X143204000Y-85228114D01*
X143205792Y-85211879D01*
X143205543Y-85211856D01*
X143206287Y-85203970D01*
X143206289Y-85203963D01*
X143204062Y-85133111D01*
X143204000Y-85129153D01*
X143204000Y-85100071D01*
X143203999Y-85100064D01*
X143203446Y-85095687D01*
X143202512Y-85083835D01*
X143201062Y-85037669D01*
X143195079Y-85017076D01*
X143191071Y-84997718D01*
X143188382Y-84976439D01*
X143188382Y-84976436D01*
X143171369Y-84933466D01*
X143167530Y-84922251D01*
X143154645Y-84877901D01*
X143154645Y-84877900D01*
X143143724Y-84859435D01*
X143135031Y-84841689D01*
X143127135Y-84821744D01*
X143099983Y-84784374D01*
X143093465Y-84774451D01*
X143069952Y-84734691D01*
X143054788Y-84719527D01*
X143041947Y-84704493D01*
X143029341Y-84687143D01*
X143029336Y-84687137D01*
X142993748Y-84657697D01*
X142984967Y-84649707D01*
X139210875Y-80875615D01*
X139200664Y-80862869D01*
X139200471Y-80863030D01*
X139195417Y-80856921D01*
X139173484Y-80836325D01*
X139143741Y-80808394D01*
X139140930Y-80805670D01*
X139120333Y-80785073D01*
X139120331Y-80785071D01*
X139120325Y-80785066D01*
X139116827Y-80782353D01*
X139107803Y-80774646D01*
X139087463Y-80755546D01*
X139074133Y-80743028D01*
X139074130Y-80743026D01*
X139074125Y-80743023D01*
X139055338Y-80732694D01*
X139038818Y-80721843D01*
X139021867Y-80708695D01*
X138979465Y-80690346D01*
X138968810Y-80685126D01*
X138942851Y-80670855D01*
X138928338Y-80662876D01*
X138928335Y-80662875D01*
X138907568Y-80657543D01*
X138888865Y-80651140D01*
X138878703Y-80646743D01*
X138869176Y-80642620D01*
X138869174Y-80642619D01*
X138869176Y-80642619D01*
X138823552Y-80635394D01*
X138811929Y-80632987D01*
X138767188Y-80621500D01*
X138745741Y-80621500D01*
X138726032Y-80619949D01*
X138704848Y-80616594D01*
X138704847Y-80616594D01*
X138684770Y-80618491D01*
X138658859Y-80620941D01*
X138647004Y-80621500D01*
X107528614Y-80621500D01*
X107512379Y-80619707D01*
X107512356Y-80619957D01*
X107504463Y-80619211D01*
X107433612Y-80621438D01*
X107429654Y-80621500D01*
X107400568Y-80621500D01*
X107400562Y-80621500D01*
X107400556Y-80621501D01*
X107396161Y-80622056D01*
X107384341Y-80622986D01*
X107338172Y-80624437D01*
X107338170Y-80624437D01*
X107338169Y-80624438D01*
X107317571Y-80630421D01*
X107298221Y-80634428D01*
X107276940Y-80637116D01*
X107276934Y-80637118D01*
X107233974Y-80654126D01*
X107222749Y-80657969D01*
X107178406Y-80670852D01*
X107178399Y-80670855D01*
X107159937Y-80681773D01*
X107142191Y-80690466D01*
X107122248Y-80698362D01*
X107122245Y-80698364D01*
X107084872Y-80725517D01*
X107074953Y-80732032D01*
X107035194Y-80755546D01*
X107020022Y-80770717D01*
X107004996Y-80783550D01*
X106987644Y-80796157D01*
X106987643Y-80796158D01*
X106958191Y-80831758D01*
X106950204Y-80840534D01*
X101957611Y-85833127D01*
X101944865Y-85843340D01*
X101945025Y-85843533D01*
X101938920Y-85848583D01*
X101890395Y-85900256D01*
X101887643Y-85903096D01*
X101867074Y-85923665D01*
X101867073Y-85923667D01*
X101864344Y-85927184D01*
X101856650Y-85936191D01*
X101825029Y-85969865D01*
X101825027Y-85969867D01*
X101814691Y-85988667D01*
X101803843Y-86005180D01*
X101790699Y-86022126D01*
X101790694Y-86022135D01*
X101772350Y-86064524D01*
X101767131Y-86075178D01*
X101744877Y-86115661D01*
X101744873Y-86115670D01*
X101739541Y-86136436D01*
X101733139Y-86155136D01*
X101724620Y-86174820D01*
X101724620Y-86174823D01*
X101717393Y-86220452D01*
X101714986Y-86232072D01*
X101703500Y-86276810D01*
X101703500Y-86298258D01*
X101701949Y-86317967D01*
X101698594Y-86339152D01*
X96849500Y-86339152D01*
X96849500Y-71575500D01*
X96869502Y-71507379D01*
X96923158Y-71460886D01*
X96975500Y-71449500D01*
X149404500Y-71449500D01*
X149472621Y-71469502D01*
G37*
%TD.AperFunction*%
%TD*%
%TA.AperFunction,Conductor*%
%TO.N,VCC*%
G36*
X130019039Y-86887470D02*
G01*
X130087142Y-86907523D01*
X130105115Y-86921545D01*
X130182500Y-86994093D01*
X131266872Y-88010691D01*
X131293522Y-88050720D01*
X131294295Y-88050299D01*
X131298612Y-88058207D01*
X131386238Y-88175261D01*
X131503292Y-88262887D01*
X131503294Y-88262888D01*
X131503296Y-88262889D01*
X131519705Y-88269009D01*
X131533720Y-88274237D01*
X131575864Y-88300370D01*
X131809069Y-88519000D01*
X133859000Y-88519000D01*
X133927121Y-88539002D01*
X133973614Y-88592658D01*
X133985000Y-88645000D01*
X133985000Y-90298000D01*
X133964998Y-90366121D01*
X133911342Y-90412614D01*
X133859000Y-90424000D01*
X131765542Y-90424000D01*
X131742587Y-90428859D01*
X130456943Y-90430010D01*
X130412800Y-90422067D01*
X130403325Y-90418533D01*
X130391201Y-90414011D01*
X130391200Y-90414010D01*
X130391198Y-90414010D01*
X130391195Y-90414009D01*
X130330649Y-90407500D01*
X130330638Y-90407500D01*
X127733362Y-90407500D01*
X127733350Y-90407500D01*
X127672802Y-90414010D01*
X127672799Y-90414010D01*
X127672799Y-90414011D01*
X127667442Y-90416008D01*
X127644338Y-90424626D01*
X127600422Y-90432569D01*
X126909462Y-90433188D01*
X126865316Y-90425243D01*
X126835204Y-90414011D01*
X126835196Y-90414009D01*
X126774649Y-90407500D01*
X126774638Y-90407500D01*
X124177362Y-90407500D01*
X124177350Y-90407500D01*
X124116804Y-90414009D01*
X124116801Y-90414010D01*
X124079777Y-90427819D01*
X124035860Y-90435762D01*
X123361982Y-90436365D01*
X123317839Y-90428421D01*
X123279205Y-90414012D01*
X123279195Y-90414009D01*
X123218649Y-90407500D01*
X123218638Y-90407500D01*
X120621362Y-90407500D01*
X120621350Y-90407500D01*
X120560804Y-90414009D01*
X120560797Y-90414011D01*
X120515218Y-90431011D01*
X120471300Y-90438955D01*
X119814500Y-90439543D01*
X119770354Y-90431598D01*
X119723204Y-90414011D01*
X119723196Y-90414009D01*
X119662649Y-90407500D01*
X119662638Y-90407500D01*
X117065362Y-90407500D01*
X117065350Y-90407500D01*
X117004801Y-90414010D01*
X117004800Y-90414010D01*
X116950659Y-90434203D01*
X116906742Y-90442147D01*
X104012113Y-90453698D01*
X103943974Y-90433757D01*
X103897433Y-90380143D01*
X103886000Y-90327698D01*
X103886000Y-86994093D01*
X103906002Y-86925972D01*
X103959658Y-86879479D01*
X104012089Y-86868093D01*
X130019039Y-86887470D01*
G37*
%TD.AperFunction*%
%TD*%
M02*
