%TF.GenerationSoftware,KiCad,Pcbnew,7.0.11+1*%
%TF.CreationDate,2024-05-31T00:38:34+00:00*%
%TF.ProjectId,LMR1405001,4c4d5231-3430-4353-9030-312e6b696361,rev?*%
%TF.SameCoordinates,Original*%
%TF.FileFunction,Legend,Bot*%
%TF.FilePolarity,Positive*%
%FSLAX46Y46*%
G04 Gerber Fmt 4.6, Leading zero omitted, Abs format (unit mm)*
G04 Created by KiCad (PCBNEW 7.0.11+1) date 2024-05-31 00:38:34*
%MOMM*%
%LPD*%
G01*
G04 APERTURE LIST*
%ADD10C,0.150000*%
%ADD11C,6.400000*%
G04 APERTURE END LIST*
D10*
X129645580Y-85685333D02*
X129693200Y-85637714D01*
X129693200Y-85637714D02*
X129740819Y-85494857D01*
X129740819Y-85494857D02*
X129740819Y-85399619D01*
X129740819Y-85399619D02*
X129693200Y-85256762D01*
X129693200Y-85256762D02*
X129597961Y-85161524D01*
X129597961Y-85161524D02*
X129502723Y-85113905D01*
X129502723Y-85113905D02*
X129312247Y-85066286D01*
X129312247Y-85066286D02*
X129169390Y-85066286D01*
X129169390Y-85066286D02*
X128978914Y-85113905D01*
X128978914Y-85113905D02*
X128883676Y-85161524D01*
X128883676Y-85161524D02*
X128788438Y-85256762D01*
X128788438Y-85256762D02*
X128740819Y-85399619D01*
X128740819Y-85399619D02*
X128740819Y-85494857D01*
X128740819Y-85494857D02*
X128788438Y-85637714D01*
X128788438Y-85637714D02*
X128836057Y-85685333D01*
X129740819Y-86637714D02*
X129740819Y-86066286D01*
X129740819Y-86352000D02*
X128740819Y-86352000D01*
X128740819Y-86352000D02*
X128883676Y-86256762D01*
X128883676Y-86256762D02*
X128978914Y-86161524D01*
X128978914Y-86161524D02*
X129026533Y-86066286D01*
X122025580Y-85685333D02*
X122073200Y-85637714D01*
X122073200Y-85637714D02*
X122120819Y-85494857D01*
X122120819Y-85494857D02*
X122120819Y-85399619D01*
X122120819Y-85399619D02*
X122073200Y-85256762D01*
X122073200Y-85256762D02*
X121977961Y-85161524D01*
X121977961Y-85161524D02*
X121882723Y-85113905D01*
X121882723Y-85113905D02*
X121692247Y-85066286D01*
X121692247Y-85066286D02*
X121549390Y-85066286D01*
X121549390Y-85066286D02*
X121358914Y-85113905D01*
X121358914Y-85113905D02*
X121263676Y-85161524D01*
X121263676Y-85161524D02*
X121168438Y-85256762D01*
X121168438Y-85256762D02*
X121120819Y-85399619D01*
X121120819Y-85399619D02*
X121120819Y-85494857D01*
X121120819Y-85494857D02*
X121168438Y-85637714D01*
X121168438Y-85637714D02*
X121216057Y-85685333D01*
X121216057Y-86066286D02*
X121168438Y-86113905D01*
X121168438Y-86113905D02*
X121120819Y-86209143D01*
X121120819Y-86209143D02*
X121120819Y-86447238D01*
X121120819Y-86447238D02*
X121168438Y-86542476D01*
X121168438Y-86542476D02*
X121216057Y-86590095D01*
X121216057Y-86590095D02*
X121311295Y-86637714D01*
X121311295Y-86637714D02*
X121406533Y-86637714D01*
X121406533Y-86637714D02*
X121549390Y-86590095D01*
X121549390Y-86590095D02*
X122120819Y-86018667D01*
X122120819Y-86018667D02*
X122120819Y-86637714D01*
X125835580Y-85685333D02*
X125883200Y-85637714D01*
X125883200Y-85637714D02*
X125930819Y-85494857D01*
X125930819Y-85494857D02*
X125930819Y-85399619D01*
X125930819Y-85399619D02*
X125883200Y-85256762D01*
X125883200Y-85256762D02*
X125787961Y-85161524D01*
X125787961Y-85161524D02*
X125692723Y-85113905D01*
X125692723Y-85113905D02*
X125502247Y-85066286D01*
X125502247Y-85066286D02*
X125359390Y-85066286D01*
X125359390Y-85066286D02*
X125168914Y-85113905D01*
X125168914Y-85113905D02*
X125073676Y-85161524D01*
X125073676Y-85161524D02*
X124978438Y-85256762D01*
X124978438Y-85256762D02*
X124930819Y-85399619D01*
X124930819Y-85399619D02*
X124930819Y-85494857D01*
X124930819Y-85494857D02*
X124978438Y-85637714D01*
X124978438Y-85637714D02*
X125026057Y-85685333D01*
X124930819Y-86018667D02*
X124930819Y-86637714D01*
X124930819Y-86637714D02*
X125311771Y-86304381D01*
X125311771Y-86304381D02*
X125311771Y-86447238D01*
X125311771Y-86447238D02*
X125359390Y-86542476D01*
X125359390Y-86542476D02*
X125407009Y-86590095D01*
X125407009Y-86590095D02*
X125502247Y-86637714D01*
X125502247Y-86637714D02*
X125740342Y-86637714D01*
X125740342Y-86637714D02*
X125835580Y-86590095D01*
X125835580Y-86590095D02*
X125883200Y-86542476D01*
X125883200Y-86542476D02*
X125930819Y-86447238D01*
X125930819Y-86447238D02*
X125930819Y-86161524D01*
X125930819Y-86161524D02*
X125883200Y-86066286D01*
X125883200Y-86066286D02*
X125835580Y-86018667D01*
X144692666Y-89513580D02*
X144740285Y-89561200D01*
X144740285Y-89561200D02*
X144883142Y-89608819D01*
X144883142Y-89608819D02*
X144978380Y-89608819D01*
X144978380Y-89608819D02*
X145121237Y-89561200D01*
X145121237Y-89561200D02*
X145216475Y-89465961D01*
X145216475Y-89465961D02*
X145264094Y-89370723D01*
X145264094Y-89370723D02*
X145311713Y-89180247D01*
X145311713Y-89180247D02*
X145311713Y-89037390D01*
X145311713Y-89037390D02*
X145264094Y-88846914D01*
X145264094Y-88846914D02*
X145216475Y-88751676D01*
X145216475Y-88751676D02*
X145121237Y-88656438D01*
X145121237Y-88656438D02*
X144978380Y-88608819D01*
X144978380Y-88608819D02*
X144883142Y-88608819D01*
X144883142Y-88608819D02*
X144740285Y-88656438D01*
X144740285Y-88656438D02*
X144692666Y-88704057D01*
X143835523Y-88942152D02*
X143835523Y-89608819D01*
X144073618Y-88561200D02*
X144311713Y-89275485D01*
X144311713Y-89275485D02*
X143692666Y-89275485D01*
X144692666Y-91799580D02*
X144740285Y-91847200D01*
X144740285Y-91847200D02*
X144883142Y-91894819D01*
X144883142Y-91894819D02*
X144978380Y-91894819D01*
X144978380Y-91894819D02*
X145121237Y-91847200D01*
X145121237Y-91847200D02*
X145216475Y-91751961D01*
X145216475Y-91751961D02*
X145264094Y-91656723D01*
X145264094Y-91656723D02*
X145311713Y-91466247D01*
X145311713Y-91466247D02*
X145311713Y-91323390D01*
X145311713Y-91323390D02*
X145264094Y-91132914D01*
X145264094Y-91132914D02*
X145216475Y-91037676D01*
X145216475Y-91037676D02*
X145121237Y-90942438D01*
X145121237Y-90942438D02*
X144978380Y-90894819D01*
X144978380Y-90894819D02*
X144883142Y-90894819D01*
X144883142Y-90894819D02*
X144740285Y-90942438D01*
X144740285Y-90942438D02*
X144692666Y-90990057D01*
X143787904Y-90894819D02*
X144264094Y-90894819D01*
X144264094Y-90894819D02*
X144311713Y-91371009D01*
X144311713Y-91371009D02*
X144264094Y-91323390D01*
X144264094Y-91323390D02*
X144168856Y-91275771D01*
X144168856Y-91275771D02*
X143930761Y-91275771D01*
X143930761Y-91275771D02*
X143835523Y-91323390D01*
X143835523Y-91323390D02*
X143787904Y-91371009D01*
X143787904Y-91371009D02*
X143740285Y-91466247D01*
X143740285Y-91466247D02*
X143740285Y-91704342D01*
X143740285Y-91704342D02*
X143787904Y-91799580D01*
X143787904Y-91799580D02*
X143835523Y-91847200D01*
X143835523Y-91847200D02*
X143930761Y-91894819D01*
X143930761Y-91894819D02*
X144168856Y-91894819D01*
X144168856Y-91894819D02*
X144264094Y-91847200D01*
X144264094Y-91847200D02*
X144311713Y-91799580D01*
X122025580Y-107402333D02*
X122073200Y-107354714D01*
X122073200Y-107354714D02*
X122120819Y-107211857D01*
X122120819Y-107211857D02*
X122120819Y-107116619D01*
X122120819Y-107116619D02*
X122073200Y-106973762D01*
X122073200Y-106973762D02*
X121977961Y-106878524D01*
X121977961Y-106878524D02*
X121882723Y-106830905D01*
X121882723Y-106830905D02*
X121692247Y-106783286D01*
X121692247Y-106783286D02*
X121549390Y-106783286D01*
X121549390Y-106783286D02*
X121358914Y-106830905D01*
X121358914Y-106830905D02*
X121263676Y-106878524D01*
X121263676Y-106878524D02*
X121168438Y-106973762D01*
X121168438Y-106973762D02*
X121120819Y-107116619D01*
X121120819Y-107116619D02*
X121120819Y-107211857D01*
X121120819Y-107211857D02*
X121168438Y-107354714D01*
X121168438Y-107354714D02*
X121216057Y-107402333D01*
X121120819Y-107735667D02*
X121120819Y-108402333D01*
X121120819Y-108402333D02*
X122120819Y-107973762D01*
X118469580Y-107402333D02*
X118517200Y-107354714D01*
X118517200Y-107354714D02*
X118564819Y-107211857D01*
X118564819Y-107211857D02*
X118564819Y-107116619D01*
X118564819Y-107116619D02*
X118517200Y-106973762D01*
X118517200Y-106973762D02*
X118421961Y-106878524D01*
X118421961Y-106878524D02*
X118326723Y-106830905D01*
X118326723Y-106830905D02*
X118136247Y-106783286D01*
X118136247Y-106783286D02*
X117993390Y-106783286D01*
X117993390Y-106783286D02*
X117802914Y-106830905D01*
X117802914Y-106830905D02*
X117707676Y-106878524D01*
X117707676Y-106878524D02*
X117612438Y-106973762D01*
X117612438Y-106973762D02*
X117564819Y-107116619D01*
X117564819Y-107116619D02*
X117564819Y-107211857D01*
X117564819Y-107211857D02*
X117612438Y-107354714D01*
X117612438Y-107354714D02*
X117660057Y-107402333D01*
X117993390Y-107973762D02*
X117945771Y-107878524D01*
X117945771Y-107878524D02*
X117898152Y-107830905D01*
X117898152Y-107830905D02*
X117802914Y-107783286D01*
X117802914Y-107783286D02*
X117755295Y-107783286D01*
X117755295Y-107783286D02*
X117660057Y-107830905D01*
X117660057Y-107830905D02*
X117612438Y-107878524D01*
X117612438Y-107878524D02*
X117564819Y-107973762D01*
X117564819Y-107973762D02*
X117564819Y-108164238D01*
X117564819Y-108164238D02*
X117612438Y-108259476D01*
X117612438Y-108259476D02*
X117660057Y-108307095D01*
X117660057Y-108307095D02*
X117755295Y-108354714D01*
X117755295Y-108354714D02*
X117802914Y-108354714D01*
X117802914Y-108354714D02*
X117898152Y-108307095D01*
X117898152Y-108307095D02*
X117945771Y-108259476D01*
X117945771Y-108259476D02*
X117993390Y-108164238D01*
X117993390Y-108164238D02*
X117993390Y-107973762D01*
X117993390Y-107973762D02*
X118041009Y-107878524D01*
X118041009Y-107878524D02*
X118088628Y-107830905D01*
X118088628Y-107830905D02*
X118183866Y-107783286D01*
X118183866Y-107783286D02*
X118374342Y-107783286D01*
X118374342Y-107783286D02*
X118469580Y-107830905D01*
X118469580Y-107830905D02*
X118517200Y-107878524D01*
X118517200Y-107878524D02*
X118564819Y-107973762D01*
X118564819Y-107973762D02*
X118564819Y-108164238D01*
X118564819Y-108164238D02*
X118517200Y-108259476D01*
X118517200Y-108259476D02*
X118469580Y-108307095D01*
X118469580Y-108307095D02*
X118374342Y-108354714D01*
X118374342Y-108354714D02*
X118183866Y-108354714D01*
X118183866Y-108354714D02*
X118088628Y-108307095D01*
X118088628Y-108307095D02*
X118041009Y-108259476D01*
X118041009Y-108259476D02*
X117993390Y-108164238D01*
X129264580Y-107275333D02*
X129312200Y-107227714D01*
X129312200Y-107227714D02*
X129359819Y-107084857D01*
X129359819Y-107084857D02*
X129359819Y-106989619D01*
X129359819Y-106989619D02*
X129312200Y-106846762D01*
X129312200Y-106846762D02*
X129216961Y-106751524D01*
X129216961Y-106751524D02*
X129121723Y-106703905D01*
X129121723Y-106703905D02*
X128931247Y-106656286D01*
X128931247Y-106656286D02*
X128788390Y-106656286D01*
X128788390Y-106656286D02*
X128597914Y-106703905D01*
X128597914Y-106703905D02*
X128502676Y-106751524D01*
X128502676Y-106751524D02*
X128407438Y-106846762D01*
X128407438Y-106846762D02*
X128359819Y-106989619D01*
X128359819Y-106989619D02*
X128359819Y-107084857D01*
X128359819Y-107084857D02*
X128407438Y-107227714D01*
X128407438Y-107227714D02*
X128455057Y-107275333D01*
X129359819Y-107751524D02*
X129359819Y-107942000D01*
X129359819Y-107942000D02*
X129312200Y-108037238D01*
X129312200Y-108037238D02*
X129264580Y-108084857D01*
X129264580Y-108084857D02*
X129121723Y-108180095D01*
X129121723Y-108180095D02*
X128931247Y-108227714D01*
X128931247Y-108227714D02*
X128550295Y-108227714D01*
X128550295Y-108227714D02*
X128455057Y-108180095D01*
X128455057Y-108180095D02*
X128407438Y-108132476D01*
X128407438Y-108132476D02*
X128359819Y-108037238D01*
X128359819Y-108037238D02*
X128359819Y-107846762D01*
X128359819Y-107846762D02*
X128407438Y-107751524D01*
X128407438Y-107751524D02*
X128455057Y-107703905D01*
X128455057Y-107703905D02*
X128550295Y-107656286D01*
X128550295Y-107656286D02*
X128788390Y-107656286D01*
X128788390Y-107656286D02*
X128883628Y-107703905D01*
X128883628Y-107703905D02*
X128931247Y-107751524D01*
X128931247Y-107751524D02*
X128978866Y-107846762D01*
X128978866Y-107846762D02*
X128978866Y-108037238D01*
X128978866Y-108037238D02*
X128931247Y-108132476D01*
X128931247Y-108132476D02*
X128883628Y-108180095D01*
X128883628Y-108180095D02*
X128788390Y-108227714D01*
X125581580Y-107307142D02*
X125629200Y-107259523D01*
X125629200Y-107259523D02*
X125676819Y-107116666D01*
X125676819Y-107116666D02*
X125676819Y-107021428D01*
X125676819Y-107021428D02*
X125629200Y-106878571D01*
X125629200Y-106878571D02*
X125533961Y-106783333D01*
X125533961Y-106783333D02*
X125438723Y-106735714D01*
X125438723Y-106735714D02*
X125248247Y-106688095D01*
X125248247Y-106688095D02*
X125105390Y-106688095D01*
X125105390Y-106688095D02*
X124914914Y-106735714D01*
X124914914Y-106735714D02*
X124819676Y-106783333D01*
X124819676Y-106783333D02*
X124724438Y-106878571D01*
X124724438Y-106878571D02*
X124676819Y-107021428D01*
X124676819Y-107021428D02*
X124676819Y-107116666D01*
X124676819Y-107116666D02*
X124724438Y-107259523D01*
X124724438Y-107259523D02*
X124772057Y-107307142D01*
X125676819Y-108259523D02*
X125676819Y-107688095D01*
X125676819Y-107973809D02*
X124676819Y-107973809D01*
X124676819Y-107973809D02*
X124819676Y-107878571D01*
X124819676Y-107878571D02*
X124914914Y-107783333D01*
X124914914Y-107783333D02*
X124962533Y-107688095D01*
X124676819Y-108878571D02*
X124676819Y-108973809D01*
X124676819Y-108973809D02*
X124724438Y-109069047D01*
X124724438Y-109069047D02*
X124772057Y-109116666D01*
X124772057Y-109116666D02*
X124867295Y-109164285D01*
X124867295Y-109164285D02*
X125057771Y-109211904D01*
X125057771Y-109211904D02*
X125295866Y-109211904D01*
X125295866Y-109211904D02*
X125486342Y-109164285D01*
X125486342Y-109164285D02*
X125581580Y-109116666D01*
X125581580Y-109116666D02*
X125629200Y-109069047D01*
X125629200Y-109069047D02*
X125676819Y-108973809D01*
X125676819Y-108973809D02*
X125676819Y-108878571D01*
X125676819Y-108878571D02*
X125629200Y-108783333D01*
X125629200Y-108783333D02*
X125581580Y-108735714D01*
X125581580Y-108735714D02*
X125486342Y-108688095D01*
X125486342Y-108688095D02*
X125295866Y-108640476D01*
X125295866Y-108640476D02*
X125057771Y-108640476D01*
X125057771Y-108640476D02*
X124867295Y-108688095D01*
X124867295Y-108688095D02*
X124772057Y-108735714D01*
X124772057Y-108735714D02*
X124724438Y-108783333D01*
X124724438Y-108783333D02*
X124676819Y-108878571D01*
X119864094Y-100784819D02*
X119864094Y-99784819D01*
X119864094Y-99784819D02*
X119625999Y-99784819D01*
X119625999Y-99784819D02*
X119483142Y-99832438D01*
X119483142Y-99832438D02*
X119387904Y-99927676D01*
X119387904Y-99927676D02*
X119340285Y-100022914D01*
X119340285Y-100022914D02*
X119292666Y-100213390D01*
X119292666Y-100213390D02*
X119292666Y-100356247D01*
X119292666Y-100356247D02*
X119340285Y-100546723D01*
X119340285Y-100546723D02*
X119387904Y-100641961D01*
X119387904Y-100641961D02*
X119483142Y-100737200D01*
X119483142Y-100737200D02*
X119625999Y-100784819D01*
X119625999Y-100784819D02*
X119864094Y-100784819D01*
X118340285Y-100784819D02*
X118911713Y-100784819D01*
X118625999Y-100784819D02*
X118625999Y-99784819D01*
X118625999Y-99784819D02*
X118721237Y-99927676D01*
X118721237Y-99927676D02*
X118816475Y-100022914D01*
X118816475Y-100022914D02*
X118911713Y-100070533D01*
X143930666Y-108150819D02*
X144406856Y-108150819D01*
X144406856Y-108150819D02*
X144406856Y-107150819D01*
X143073523Y-108150819D02*
X143644951Y-108150819D01*
X143359237Y-108150819D02*
X143359237Y-107150819D01*
X143359237Y-107150819D02*
X143454475Y-107293676D01*
X143454475Y-107293676D02*
X143549713Y-107388914D01*
X143549713Y-107388914D02*
X143644951Y-107436533D01*
X135548666Y-86306819D02*
X135881999Y-85830628D01*
X136120094Y-86306819D02*
X136120094Y-85306819D01*
X136120094Y-85306819D02*
X135739142Y-85306819D01*
X135739142Y-85306819D02*
X135643904Y-85354438D01*
X135643904Y-85354438D02*
X135596285Y-85402057D01*
X135596285Y-85402057D02*
X135548666Y-85497295D01*
X135548666Y-85497295D02*
X135548666Y-85640152D01*
X135548666Y-85640152D02*
X135596285Y-85735390D01*
X135596285Y-85735390D02*
X135643904Y-85783009D01*
X135643904Y-85783009D02*
X135739142Y-85830628D01*
X135739142Y-85830628D02*
X136120094Y-85830628D01*
X134596285Y-86306819D02*
X135167713Y-86306819D01*
X134881999Y-86306819D02*
X134881999Y-85306819D01*
X134881999Y-85306819D02*
X134977237Y-85449676D01*
X134977237Y-85449676D02*
X135072475Y-85544914D01*
X135072475Y-85544914D02*
X135167713Y-85592533D01*
X144692666Y-88084819D02*
X145025999Y-87608628D01*
X145264094Y-88084819D02*
X145264094Y-87084819D01*
X145264094Y-87084819D02*
X144883142Y-87084819D01*
X144883142Y-87084819D02*
X144787904Y-87132438D01*
X144787904Y-87132438D02*
X144740285Y-87180057D01*
X144740285Y-87180057D02*
X144692666Y-87275295D01*
X144692666Y-87275295D02*
X144692666Y-87418152D01*
X144692666Y-87418152D02*
X144740285Y-87513390D01*
X144740285Y-87513390D02*
X144787904Y-87561009D01*
X144787904Y-87561009D02*
X144883142Y-87608628D01*
X144883142Y-87608628D02*
X145264094Y-87608628D01*
X144311713Y-87180057D02*
X144264094Y-87132438D01*
X144264094Y-87132438D02*
X144168856Y-87084819D01*
X144168856Y-87084819D02*
X143930761Y-87084819D01*
X143930761Y-87084819D02*
X143835523Y-87132438D01*
X143835523Y-87132438D02*
X143787904Y-87180057D01*
X143787904Y-87180057D02*
X143740285Y-87275295D01*
X143740285Y-87275295D02*
X143740285Y-87370533D01*
X143740285Y-87370533D02*
X143787904Y-87513390D01*
X143787904Y-87513390D02*
X144359332Y-88084819D01*
X144359332Y-88084819D02*
X143740285Y-88084819D01*
X142914666Y-86306819D02*
X143247999Y-85830628D01*
X143486094Y-86306819D02*
X143486094Y-85306819D01*
X143486094Y-85306819D02*
X143105142Y-85306819D01*
X143105142Y-85306819D02*
X143009904Y-85354438D01*
X143009904Y-85354438D02*
X142962285Y-85402057D01*
X142962285Y-85402057D02*
X142914666Y-85497295D01*
X142914666Y-85497295D02*
X142914666Y-85640152D01*
X142914666Y-85640152D02*
X142962285Y-85735390D01*
X142962285Y-85735390D02*
X143009904Y-85783009D01*
X143009904Y-85783009D02*
X143105142Y-85830628D01*
X143105142Y-85830628D02*
X143486094Y-85830628D01*
X142581332Y-85306819D02*
X141962285Y-85306819D01*
X141962285Y-85306819D02*
X142295618Y-85687771D01*
X142295618Y-85687771D02*
X142152761Y-85687771D01*
X142152761Y-85687771D02*
X142057523Y-85735390D01*
X142057523Y-85735390D02*
X142009904Y-85783009D01*
X142009904Y-85783009D02*
X141962285Y-85878247D01*
X141962285Y-85878247D02*
X141962285Y-86116342D01*
X141962285Y-86116342D02*
X142009904Y-86211580D01*
X142009904Y-86211580D02*
X142057523Y-86259200D01*
X142057523Y-86259200D02*
X142152761Y-86306819D01*
X142152761Y-86306819D02*
X142438475Y-86306819D01*
X142438475Y-86306819D02*
X142533713Y-86259200D01*
X142533713Y-86259200D02*
X142581332Y-86211580D01*
X134654319Y-88730095D02*
X135463842Y-88730095D01*
X135463842Y-88730095D02*
X135559080Y-88777714D01*
X135559080Y-88777714D02*
X135606700Y-88825333D01*
X135606700Y-88825333D02*
X135654319Y-88920571D01*
X135654319Y-88920571D02*
X135654319Y-89111047D01*
X135654319Y-89111047D02*
X135606700Y-89206285D01*
X135606700Y-89206285D02*
X135559080Y-89253904D01*
X135559080Y-89253904D02*
X135463842Y-89301523D01*
X135463842Y-89301523D02*
X134654319Y-89301523D01*
X135654319Y-90301523D02*
X135654319Y-89730095D01*
X135654319Y-90015809D02*
X134654319Y-90015809D01*
X134654319Y-90015809D02*
X134797176Y-89920571D01*
X134797176Y-89920571D02*
X134892414Y-89825333D01*
X134892414Y-89825333D02*
X134940033Y-89730095D01*
X133389019Y-91422400D02*
X133627114Y-91422400D01*
X133531876Y-91184305D02*
X133627114Y-91422400D01*
X133627114Y-91422400D02*
X133531876Y-91660495D01*
X133817590Y-91279543D02*
X133627114Y-91422400D01*
X133627114Y-91422400D02*
X133817590Y-91565257D01*
X118596580Y-85812333D02*
X118644200Y-85764714D01*
X118644200Y-85764714D02*
X118691819Y-85621857D01*
X118691819Y-85621857D02*
X118691819Y-85526619D01*
X118691819Y-85526619D02*
X118644200Y-85383762D01*
X118644200Y-85383762D02*
X118548961Y-85288524D01*
X118548961Y-85288524D02*
X118453723Y-85240905D01*
X118453723Y-85240905D02*
X118263247Y-85193286D01*
X118263247Y-85193286D02*
X118120390Y-85193286D01*
X118120390Y-85193286D02*
X117929914Y-85240905D01*
X117929914Y-85240905D02*
X117834676Y-85288524D01*
X117834676Y-85288524D02*
X117739438Y-85383762D01*
X117739438Y-85383762D02*
X117691819Y-85526619D01*
X117691819Y-85526619D02*
X117691819Y-85621857D01*
X117691819Y-85621857D02*
X117739438Y-85764714D01*
X117739438Y-85764714D02*
X117787057Y-85812333D01*
X117691819Y-86669476D02*
X117691819Y-86479000D01*
X117691819Y-86479000D02*
X117739438Y-86383762D01*
X117739438Y-86383762D02*
X117787057Y-86336143D01*
X117787057Y-86336143D02*
X117929914Y-86240905D01*
X117929914Y-86240905D02*
X118120390Y-86193286D01*
X118120390Y-86193286D02*
X118501342Y-86193286D01*
X118501342Y-86193286D02*
X118596580Y-86240905D01*
X118596580Y-86240905D02*
X118644200Y-86288524D01*
X118644200Y-86288524D02*
X118691819Y-86383762D01*
X118691819Y-86383762D02*
X118691819Y-86574238D01*
X118691819Y-86574238D02*
X118644200Y-86669476D01*
X118644200Y-86669476D02*
X118596580Y-86717095D01*
X118596580Y-86717095D02*
X118501342Y-86764714D01*
X118501342Y-86764714D02*
X118263247Y-86764714D01*
X118263247Y-86764714D02*
X118168009Y-86717095D01*
X118168009Y-86717095D02*
X118120390Y-86669476D01*
X118120390Y-86669476D02*
X118072771Y-86574238D01*
X118072771Y-86574238D02*
X118072771Y-86383762D01*
X118072771Y-86383762D02*
X118120390Y-86288524D01*
X118120390Y-86288524D02*
X118168009Y-86240905D01*
X118168009Y-86240905D02*
X118263247Y-86193286D01*
X107013333Y-118326819D02*
X107013333Y-119041104D01*
X107013333Y-119041104D02*
X107060952Y-119183961D01*
X107060952Y-119183961D02*
X107156190Y-119279200D01*
X107156190Y-119279200D02*
X107299047Y-119326819D01*
X107299047Y-119326819D02*
X107394285Y-119326819D01*
X106632380Y-118326819D02*
X106013333Y-118326819D01*
X106013333Y-118326819D02*
X106346666Y-118707771D01*
X106346666Y-118707771D02*
X106203809Y-118707771D01*
X106203809Y-118707771D02*
X106108571Y-118755390D01*
X106108571Y-118755390D02*
X106060952Y-118803009D01*
X106060952Y-118803009D02*
X106013333Y-118898247D01*
X106013333Y-118898247D02*
X106013333Y-119136342D01*
X106013333Y-119136342D02*
X106060952Y-119231580D01*
X106060952Y-119231580D02*
X106108571Y-119279200D01*
X106108571Y-119279200D02*
X106203809Y-119326819D01*
X106203809Y-119326819D02*
X106489523Y-119326819D01*
X106489523Y-119326819D02*
X106584761Y-119279200D01*
X106584761Y-119279200D02*
X106632380Y-119231580D01*
X140033333Y-75654819D02*
X140033333Y-76369104D01*
X140033333Y-76369104D02*
X140080952Y-76511961D01*
X140080952Y-76511961D02*
X140176190Y-76607200D01*
X140176190Y-76607200D02*
X140319047Y-76654819D01*
X140319047Y-76654819D02*
X140414285Y-76654819D01*
X139128571Y-75988152D02*
X139128571Y-76654819D01*
X139366666Y-75607200D02*
X139604761Y-76321485D01*
X139604761Y-76321485D02*
X138985714Y-76321485D01*
X140033333Y-118326819D02*
X140033333Y-119041104D01*
X140033333Y-119041104D02*
X140080952Y-119183961D01*
X140080952Y-119183961D02*
X140176190Y-119279200D01*
X140176190Y-119279200D02*
X140319047Y-119326819D01*
X140319047Y-119326819D02*
X140414285Y-119326819D01*
X139080952Y-118326819D02*
X139557142Y-118326819D01*
X139557142Y-118326819D02*
X139604761Y-118803009D01*
X139604761Y-118803009D02*
X139557142Y-118755390D01*
X139557142Y-118755390D02*
X139461904Y-118707771D01*
X139461904Y-118707771D02*
X139223809Y-118707771D01*
X139223809Y-118707771D02*
X139128571Y-118755390D01*
X139128571Y-118755390D02*
X139080952Y-118803009D01*
X139080952Y-118803009D02*
X139033333Y-118898247D01*
X139033333Y-118898247D02*
X139033333Y-119136342D01*
X139033333Y-119136342D02*
X139080952Y-119231580D01*
X139080952Y-119231580D02*
X139128571Y-119279200D01*
X139128571Y-119279200D02*
X139223809Y-119326819D01*
X139223809Y-119326819D02*
X139461904Y-119326819D01*
X139461904Y-119326819D02*
X139557142Y-119279200D01*
X139557142Y-119279200D02*
X139604761Y-119231580D01*
X107013333Y-75654819D02*
X107013333Y-76369104D01*
X107013333Y-76369104D02*
X107060952Y-76511961D01*
X107060952Y-76511961D02*
X107156190Y-76607200D01*
X107156190Y-76607200D02*
X107299047Y-76654819D01*
X107299047Y-76654819D02*
X107394285Y-76654819D01*
X106108571Y-75654819D02*
X106299047Y-75654819D01*
X106299047Y-75654819D02*
X106394285Y-75702438D01*
X106394285Y-75702438D02*
X106441904Y-75750057D01*
X106441904Y-75750057D02*
X106537142Y-75892914D01*
X106537142Y-75892914D02*
X106584761Y-76083390D01*
X106584761Y-76083390D02*
X106584761Y-76464342D01*
X106584761Y-76464342D02*
X106537142Y-76559580D01*
X106537142Y-76559580D02*
X106489523Y-76607200D01*
X106489523Y-76607200D02*
X106394285Y-76654819D01*
X106394285Y-76654819D02*
X106203809Y-76654819D01*
X106203809Y-76654819D02*
X106108571Y-76607200D01*
X106108571Y-76607200D02*
X106060952Y-76559580D01*
X106060952Y-76559580D02*
X106013333Y-76464342D01*
X106013333Y-76464342D02*
X106013333Y-76226247D01*
X106013333Y-76226247D02*
X106060952Y-76131009D01*
X106060952Y-76131009D02*
X106108571Y-76083390D01*
X106108571Y-76083390D02*
X106203809Y-76035771D01*
X106203809Y-76035771D02*
X106394285Y-76035771D01*
X106394285Y-76035771D02*
X106489523Y-76083390D01*
X106489523Y-76083390D02*
X106537142Y-76131009D01*
X106537142Y-76131009D02*
X106584761Y-76226247D01*
%TO.C,C1*%
X130507000Y-88916000D02*
X130507000Y-90916000D01*
X127557000Y-90916000D02*
X127557000Y-88916000D01*
%TO.C,C2*%
X123395000Y-88916000D02*
X123395000Y-90916000D01*
X120445000Y-90916000D02*
X120445000Y-88916000D01*
%TO.C,C3*%
X126951000Y-88916000D02*
X126951000Y-90916000D01*
X124001000Y-90916000D02*
X124001000Y-88916000D01*
%TO.C,C4*%
X141445500Y-89817500D02*
X142145500Y-89817500D01*
X142145500Y-88617500D02*
X141445500Y-88617500D01*
%TO.C,C5*%
X142145500Y-90776500D02*
X141445500Y-90776500D01*
X141445500Y-91976500D02*
X142145500Y-91976500D01*
%TO.C,C7*%
X120191000Y-104949500D02*
X120191000Y-102949500D01*
X123141000Y-102949500D02*
X123141000Y-104949500D01*
%TO.C,C8*%
X116635000Y-104949500D02*
X116635000Y-102949500D01*
X119585000Y-102949500D02*
X119585000Y-104949500D01*
%TO.C,C9*%
X127303000Y-104949500D02*
X127303000Y-102949500D01*
X130253000Y-102949500D02*
X130253000Y-104949500D01*
%TO.C,C10*%
X123747000Y-104949500D02*
X123747000Y-102949500D01*
X126697000Y-102949500D02*
X126697000Y-104949500D01*
%TO.C,D1*%
X130022000Y-93574000D02*
X121722000Y-93574000D01*
X128922000Y-93574000D02*
X128922000Y-99974000D01*
X128822000Y-99974000D02*
X128722000Y-99974000D01*
X128822000Y-93574000D02*
X128822000Y-99974000D01*
X128722000Y-99974000D02*
X128722000Y-93574000D01*
X121722000Y-99974000D02*
X130022000Y-99974000D01*
%TO.C,L1*%
X142161260Y-94838520D02*
X137160000Y-94838520D01*
X137160000Y-94838520D02*
X132158740Y-94838520D01*
X132158740Y-94838520D02*
X131160520Y-95836740D01*
X143159480Y-95836740D02*
X142161260Y-94838520D01*
X131160520Y-95836740D02*
X131160520Y-105839260D01*
X143159480Y-105839260D02*
X143159480Y-95836740D01*
X131160520Y-105839260D02*
X132158740Y-106837480D01*
X142161260Y-106837480D02*
X143159480Y-105839260D01*
X132158740Y-106837480D02*
X142161260Y-106837480D01*
X142161260Y-100838000D02*
G75*
G03*
X132158740Y-100838000I-5001260J0D01*
G01*
X132158740Y-100838000D02*
G75*
G03*
X142161260Y-100838000I5001260J0D01*
G01*
%TO.C,R1*%
X132492000Y-86452000D02*
X133192000Y-86452000D01*
X133192000Y-85252000D02*
X132492000Y-85252000D01*
%TO.C,R2*%
X142145500Y-86966500D02*
X141445500Y-86966500D01*
X141445500Y-88166500D02*
X142145500Y-88166500D01*
%TO.C,R3*%
X140558000Y-85252000D02*
X139858000Y-85252000D01*
X139858000Y-86452000D02*
X140558000Y-86452000D01*
%TO.C,U1*%
X133699500Y-91992000D02*
X137699500Y-91992000D01*
X137699500Y-91992000D02*
X137699500Y-86992000D01*
X133699500Y-86992000D02*
X133699500Y-91992000D01*
X137699500Y-86992000D02*
X133699500Y-86992000D01*
%TO.C,C6*%
X119839000Y-88916000D02*
X119839000Y-90916000D01*
X116889000Y-90916000D02*
X116889000Y-88916000D01*
%TD*%
D11*
%TO.C,J3*%
X101600000Y-118872000D03*
%TD*%
%TO.C,J4*%
X144780000Y-76200000D03*
%TD*%
%TO.C,J5*%
X144780000Y-118872000D03*
%TD*%
%TO.C,J6*%
X101600000Y-76200000D03*
%TD*%
M02*
