%TF.GenerationSoftware,KiCad,Pcbnew,7.0.11+1*%
%TF.CreationDate,2024-05-31T00:38:34+00:00*%
%TF.ProjectId,LMR1405001,4c4d5231-3430-4353-9030-312e6b696361,rev?*%
%TF.SameCoordinates,Original*%
%TF.FileFunction,Copper,L1,Top*%
%TF.FilePolarity,Positive*%
%FSLAX46Y46*%
G04 Gerber Fmt 4.6, Leading zero omitted, Abs format (unit mm)*
G04 Created by KiCad (PCBNEW 7.0.11+1) date 2024-05-31 00:38:34*
%MOMM*%
%LPD*%
G01*
G04 APERTURE LIST*
%TA.AperFunction,ComponentPad*%
%ADD10R,3.810000X3.810000*%
%TD*%
%TA.AperFunction,ComponentPad*%
%ADD11C,0.450000*%
%TD*%
%TA.AperFunction,ComponentPad*%
%ADD12C,6.400000*%
%TD*%
%TA.AperFunction,ViaPad*%
%ADD13C,0.600000*%
%TD*%
%TA.AperFunction,Conductor*%
%ADD14C,0.300000*%
%TD*%
G04 APERTURE END LIST*
D10*
%TO.P,J1,1,P1*%
%TO.N,VCC*%
X110822912Y-90003600D03*
X105822912Y-90003600D03*
%TD*%
%TO.P,J2,1,P1*%
%TO.N,GND*%
X110822912Y-95003600D03*
X105822912Y-95003600D03*
%TD*%
%TO.P,J7,1,P1*%
%TO.N,+5V*%
X110816400Y-105003600D03*
X105816400Y-105003600D03*
%TD*%
%TO.P,J8,1,P1*%
%TO.N,GND*%
X110822912Y-100003600D03*
X105822912Y-100003600D03*
%TD*%
D11*
%TO.P,U1,9,GND*%
%TO.N,GND*%
X135049500Y-90792000D03*
X136349500Y-90792000D03*
X135049500Y-89492000D03*
X136349500Y-89492000D03*
X135049500Y-88192000D03*
X136349500Y-88192000D03*
%TD*%
D12*
%TO.P,J3,1,P1*%
%TO.N,GND*%
X101600000Y-118872000D03*
%TD*%
%TO.P,J4,1,P1*%
%TO.N,GND*%
X144780000Y-76200000D03*
%TD*%
%TO.P,J5,1,P1*%
%TO.N,GND*%
X144780000Y-118872000D03*
%TD*%
%TO.P,J6,1,P1*%
%TO.N,GND*%
X101600000Y-76200000D03*
%TD*%
D13*
%TO.N,GND*%
X136652000Y-83312000D03*
X126238000Y-97536000D03*
X135763000Y-86360000D03*
X126238000Y-96774000D03*
X134874000Y-85598000D03*
X136652000Y-85598000D03*
X135763000Y-84074000D03*
X136651984Y-86360000D03*
X125273111Y-101218832D03*
X125222000Y-97536000D03*
X136652000Y-84073990D03*
X136652000Y-84836000D03*
X106680000Y-85344000D03*
X121929373Y-92654970D03*
X134874000Y-84836000D03*
X134874000Y-84074000D03*
X135763000Y-84836000D03*
X125469782Y-92706529D03*
X124206000Y-96012000D03*
X124206000Y-96774000D03*
X134874000Y-83312000D03*
X124206000Y-97536000D03*
X134874000Y-82550000D03*
X135763000Y-82550000D03*
X126238000Y-96012000D03*
X118103175Y-101165917D03*
X136652000Y-82550000D03*
X128818393Y-101165917D03*
X135763000Y-85598000D03*
X121701371Y-101192375D03*
X125222000Y-96012000D03*
X135763000Y-83312000D03*
X118388965Y-92775275D03*
X134874000Y-86360000D03*
X128993004Y-92672156D03*
X125222000Y-96774000D03*
%TO.N,Net-(U1-BOOT)*%
X132842000Y-92329000D03*
X142494000Y-92328994D03*
%TD*%
D14*
%TO.N,GND*%
X136398010Y-84074000D02*
X136187264Y-84074000D01*
X136187264Y-84074000D02*
X135763000Y-84074000D01*
X135763000Y-82550000D02*
X136652000Y-82550000D01*
X136652000Y-85598000D02*
X135763000Y-85598000D01*
X124206000Y-96012000D02*
X124206000Y-96774000D01*
X136652000Y-83312000D02*
X135763000Y-83312000D01*
X135763000Y-86360000D02*
X136651984Y-86360000D01*
X125222000Y-96774000D02*
X125222000Y-97536000D01*
X136652000Y-84836000D02*
X135890000Y-84836000D01*
X124922001Y-97236001D02*
X125222000Y-97536000D01*
X118388965Y-92775275D02*
X118388965Y-92351011D01*
X134874000Y-85598000D02*
X134874000Y-84836000D01*
X107104264Y-85344000D02*
X106680000Y-85344000D01*
X135763010Y-84073990D02*
X135763000Y-84074000D01*
X118388965Y-92351011D02*
X111381954Y-85344000D01*
X124968000Y-97028000D02*
X124922001Y-97073999D01*
X123952000Y-96266000D02*
X123906001Y-96311999D01*
X136525010Y-83947000D02*
X136398010Y-84074000D01*
X126238000Y-96774000D02*
X126238000Y-97536000D01*
X111381954Y-85344000D02*
X107104264Y-85344000D01*
X125222000Y-96012000D02*
X124206000Y-96012000D01*
X136652000Y-84073990D02*
X135763010Y-84073990D01*
X124922001Y-97073999D02*
X124922001Y-97236001D01*
X123906001Y-96311999D02*
X123906001Y-96474001D01*
X134874000Y-84074000D02*
X134874000Y-83312000D01*
X135890000Y-84836000D02*
X135763000Y-84836000D01*
X123906001Y-96474001D02*
X124206000Y-96774000D01*
%TO.N,Net-(U1-BOOT)*%
X132842000Y-92329000D02*
X142493994Y-92329000D01*
X142493994Y-92329000D02*
X142494000Y-92328994D01*
%TD*%
%TA.AperFunction,Conductor*%
%TO.N,GND*%
G36*
X149472621Y-71469502D02*
G01*
X149519114Y-71523158D01*
X149530500Y-71575500D01*
X149530500Y-124004500D01*
X149510498Y-124072621D01*
X149456842Y-124119114D01*
X149404500Y-124130500D01*
X96975500Y-124130500D01*
X96907379Y-124110498D01*
X96860886Y-124056842D01*
X96849500Y-124004500D01*
X96849500Y-106957249D01*
X103402900Y-106957249D01*
X103409409Y-107017796D01*
X103409411Y-107017804D01*
X103460510Y-107154802D01*
X103460512Y-107154807D01*
X103548138Y-107271861D01*
X103665192Y-107359487D01*
X103665194Y-107359488D01*
X103665196Y-107359489D01*
X103724275Y-107381524D01*
X103802195Y-107410588D01*
X103802203Y-107410590D01*
X103862750Y-107417099D01*
X103862755Y-107417099D01*
X103862762Y-107417100D01*
X103862768Y-107417100D01*
X107770032Y-107417100D01*
X107770038Y-107417100D01*
X107770045Y-107417099D01*
X107770049Y-107417099D01*
X107830596Y-107410590D01*
X107830599Y-107410589D01*
X107830601Y-107410589D01*
X107967604Y-107359489D01*
X108084661Y-107271861D01*
X108172289Y-107154804D01*
X108198345Y-107084943D01*
X108240891Y-107028111D01*
X108307412Y-107003300D01*
X108376786Y-107018392D01*
X108426988Y-107068594D01*
X108434450Y-107084934D01*
X108460511Y-107154804D01*
X108460512Y-107154805D01*
X108460513Y-107154808D01*
X108548138Y-107271861D01*
X108665192Y-107359487D01*
X108665194Y-107359488D01*
X108665196Y-107359489D01*
X108724275Y-107381524D01*
X108802195Y-107410588D01*
X108802203Y-107410590D01*
X108862750Y-107417099D01*
X108862755Y-107417099D01*
X108862762Y-107417100D01*
X108862768Y-107417100D01*
X112770032Y-107417100D01*
X112770038Y-107417100D01*
X112770045Y-107417099D01*
X112770049Y-107417099D01*
X112830596Y-107410590D01*
X112830599Y-107410589D01*
X112830601Y-107410589D01*
X112967604Y-107359489D01*
X113084661Y-107271861D01*
X113172289Y-107154804D01*
X113223389Y-107017801D01*
X113229900Y-106957238D01*
X113229900Y-103049962D01*
X113224948Y-103003899D01*
X113223390Y-102989403D01*
X113223388Y-102989395D01*
X113172289Y-102852397D01*
X113172287Y-102852392D01*
X113084661Y-102735338D01*
X112967607Y-102647712D01*
X112967602Y-102647710D01*
X112830604Y-102596611D01*
X112830596Y-102596609D01*
X112770049Y-102590100D01*
X112770038Y-102590100D01*
X108862762Y-102590100D01*
X108862750Y-102590100D01*
X108802203Y-102596609D01*
X108802195Y-102596611D01*
X108665197Y-102647710D01*
X108665192Y-102647712D01*
X108548138Y-102735338D01*
X108460512Y-102852392D01*
X108460510Y-102852397D01*
X108434455Y-102922253D01*
X108391908Y-102979089D01*
X108325388Y-103003899D01*
X108256014Y-102988807D01*
X108205812Y-102938605D01*
X108198345Y-102922253D01*
X108172289Y-102852397D01*
X108172287Y-102852392D01*
X108084661Y-102735338D01*
X107967607Y-102647712D01*
X107967602Y-102647710D01*
X107830604Y-102596611D01*
X107830596Y-102596609D01*
X107770049Y-102590100D01*
X107770038Y-102590100D01*
X103862762Y-102590100D01*
X103862750Y-102590100D01*
X103802203Y-102596609D01*
X103802195Y-102596611D01*
X103665197Y-102647710D01*
X103665192Y-102647712D01*
X103548138Y-102735338D01*
X103460512Y-102852392D01*
X103460510Y-102852397D01*
X103409411Y-102989395D01*
X103409409Y-102989403D01*
X103402900Y-103049950D01*
X103402900Y-106957249D01*
X96849500Y-106957249D01*
X96849500Y-91957249D01*
X103409412Y-91957249D01*
X103415921Y-92017796D01*
X103415923Y-92017804D01*
X103467022Y-92154802D01*
X103467024Y-92154807D01*
X103554650Y-92271861D01*
X103671704Y-92359487D01*
X103671706Y-92359488D01*
X103671708Y-92359489D01*
X103730787Y-92381524D01*
X103808707Y-92410588D01*
X103808715Y-92410590D01*
X103869262Y-92417099D01*
X103869267Y-92417099D01*
X103869274Y-92417100D01*
X103869280Y-92417100D01*
X107776544Y-92417100D01*
X107776550Y-92417100D01*
X107776557Y-92417099D01*
X107776561Y-92417099D01*
X107837108Y-92410590D01*
X107837111Y-92410589D01*
X107837113Y-92410589D01*
X107974116Y-92359489D01*
X108014845Y-92329000D01*
X108091173Y-92271861D01*
X108178798Y-92154808D01*
X108178797Y-92154808D01*
X108178801Y-92154804D01*
X108204857Y-92084943D01*
X108247403Y-92028111D01*
X108313924Y-92003300D01*
X108383298Y-92018392D01*
X108433500Y-92068594D01*
X108440962Y-92084934D01*
X108467023Y-92154804D01*
X108467024Y-92154805D01*
X108467025Y-92154808D01*
X108554650Y-92271861D01*
X108671704Y-92359487D01*
X108671706Y-92359488D01*
X108671708Y-92359489D01*
X108730787Y-92381524D01*
X108808707Y-92410588D01*
X108808715Y-92410590D01*
X108869262Y-92417099D01*
X108869267Y-92417099D01*
X108869274Y-92417100D01*
X108869280Y-92417100D01*
X112776544Y-92417100D01*
X112776550Y-92417100D01*
X112776557Y-92417099D01*
X112776561Y-92417099D01*
X112837108Y-92410590D01*
X112837111Y-92410589D01*
X112837113Y-92410589D01*
X112974116Y-92359489D01*
X113014845Y-92329000D01*
X132028384Y-92329000D01*
X132048783Y-92510047D01*
X132048783Y-92510049D01*
X132048784Y-92510050D01*
X132108957Y-92682015D01*
X132108958Y-92682018D01*
X132205887Y-92836279D01*
X132205888Y-92836281D01*
X132334718Y-92965111D01*
X132334720Y-92965112D01*
X132488981Y-93062041D01*
X132488982Y-93062041D01*
X132488985Y-93062043D01*
X132660953Y-93122217D01*
X132842000Y-93142616D01*
X133023047Y-93122217D01*
X133195015Y-93062043D01*
X133282913Y-93006812D01*
X133349949Y-92987500D01*
X141986060Y-92987500D01*
X142053096Y-93006813D01*
X142140985Y-93062037D01*
X142312953Y-93122211D01*
X142494000Y-93142610D01*
X142675047Y-93122211D01*
X142847015Y-93062037D01*
X143001281Y-92965105D01*
X143130111Y-92836275D01*
X143227043Y-92682009D01*
X143287217Y-92510041D01*
X143307616Y-92328994D01*
X143287217Y-92147947D01*
X143227043Y-91975979D01*
X143227041Y-91975976D01*
X143227041Y-91975975D01*
X143130112Y-91821714D01*
X143130111Y-91821712D01*
X143001281Y-91692882D01*
X143001279Y-91692881D01*
X142847018Y-91595952D01*
X142847015Y-91595951D01*
X142675050Y-91535778D01*
X142675049Y-91535777D01*
X142675047Y-91535777D01*
X142494000Y-91515378D01*
X142312953Y-91535777D01*
X142312950Y-91535777D01*
X142312949Y-91535778D01*
X142140984Y-91595951D01*
X142140982Y-91595952D01*
X142053077Y-91651187D01*
X141986041Y-91670500D01*
X133349949Y-91670500D01*
X133282913Y-91651187D01*
X133195017Y-91595958D01*
X133195014Y-91595956D01*
X133023050Y-91535784D01*
X133023049Y-91535783D01*
X133023047Y-91535783D01*
X132842000Y-91515384D01*
X132660953Y-91535783D01*
X132660950Y-91535783D01*
X132660949Y-91535784D01*
X132488984Y-91595957D01*
X132488981Y-91595958D01*
X132334720Y-91692887D01*
X132334718Y-91692888D01*
X132205888Y-91821718D01*
X132205887Y-91821720D01*
X132108958Y-91975981D01*
X132108957Y-91975984D01*
X132076552Y-92068594D01*
X132048783Y-92147953D01*
X132028384Y-92329000D01*
X113014845Y-92329000D01*
X113091173Y-92271861D01*
X113178799Y-92154807D01*
X113178799Y-92154806D01*
X113178801Y-92154804D01*
X113229901Y-92017801D01*
X113234398Y-91975978D01*
X113236411Y-91957249D01*
X113236412Y-91957232D01*
X113236412Y-88049967D01*
X113236411Y-88049950D01*
X113229902Y-87989403D01*
X113229900Y-87989395D01*
X113178801Y-87852397D01*
X113178799Y-87852392D01*
X113091173Y-87735338D01*
X112974119Y-87647712D01*
X112974114Y-87647710D01*
X112837116Y-87596611D01*
X112837108Y-87596609D01*
X112776561Y-87590100D01*
X112776550Y-87590100D01*
X108869274Y-87590100D01*
X108869262Y-87590100D01*
X108808715Y-87596609D01*
X108808707Y-87596611D01*
X108671709Y-87647710D01*
X108671704Y-87647712D01*
X108554650Y-87735338D01*
X108467024Y-87852392D01*
X108467022Y-87852397D01*
X108440967Y-87922253D01*
X108398420Y-87979089D01*
X108331900Y-88003899D01*
X108262526Y-87988807D01*
X108212324Y-87938605D01*
X108204857Y-87922253D01*
X108178801Y-87852397D01*
X108178799Y-87852392D01*
X108091173Y-87735338D01*
X107974119Y-87647712D01*
X107974114Y-87647710D01*
X107837116Y-87596611D01*
X107837108Y-87596609D01*
X107776561Y-87590100D01*
X107776550Y-87590100D01*
X103869274Y-87590100D01*
X103869262Y-87590100D01*
X103808715Y-87596609D01*
X103808707Y-87596611D01*
X103671709Y-87647710D01*
X103671704Y-87647712D01*
X103554650Y-87735338D01*
X103467024Y-87852392D01*
X103467022Y-87852397D01*
X103415923Y-87989395D01*
X103415921Y-87989403D01*
X103409412Y-88049950D01*
X103409412Y-91957249D01*
X96849500Y-91957249D01*
X96849500Y-71575500D01*
X96869502Y-71507379D01*
X96923158Y-71460886D01*
X96975500Y-71449500D01*
X149404500Y-71449500D01*
X149472621Y-71469502D01*
G37*
%TD.AperFunction*%
%TD*%
M02*
